<?xml version="1.0" encoding="UTF-8"?>
<svg xmlns="http://www.w3.org/2000/svg" width="499.75693" height="261.92723" xmlns:xlink="http://www.w3.org/1999/xlink" viewBox="0 0 499.75693 261.92723">
  <defs>
    <symbol id="Failed" viewBox="0 0 22 22">
      <g>
        <circle cx="11" cy="11" r="11" fill="#a4262c"/>
        <path d="M17.45425,6.501l-1.95525-1.95525-4.499,4.499-4.499-4.499-1.95525,1.95525,4.499,4.499-4.499,4.499,1.95525,1.95525,4.499-4.499,4.499,4.499,1.95525-1.95525-4.499-4.499,4.499-4.499Z" fill="#fff"/>
      </g>
    </symbol>
    <linearGradient id="linear-gradient" x1="248.42667" y1="34.49203" x2="248.42667" y2="60.49203" gradientTransform="translate(-.00098 .00095)" gradientUnits="userSpaceOnUse">
      <stop offset="0" stop-color="#0078d4"/>
      <stop offset=".16" stop-color="#1380da"/>
      <stop offset=".53" stop-color="#3c91e5"/>
      <stop offset=".82" stop-color="#559cec"/>
      <stop offset="1" stop-color="#5ea0ef"/>
    </linearGradient>
    <linearGradient id="linear-gradient-2" x1="-452.80353" y1="-52.04723" x2="-433.19647" y2="-52.04723" gradientTransform="translate(564 153.49811) scale(1 -1)" gradientUnits="userSpaceOnUse">
      <stop offset="0" stop-color="#005ba1"/>
      <stop offset=".07" stop-color="#0060a9"/>
      <stop offset=".36" stop-color="#0071c8"/>
      <stop offset=".52" stop-color="#0078d4"/>
      <stop offset=".64" stop-color="#0074cd"/>
      <stop offset=".82" stop-color="#006abb"/>
      <stop offset="1" stop-color="#005ba1"/>
    </linearGradient>
    <linearGradient id="linear-gradient-3" x1="-197.18353" y1="-60.04723" x2="-177.57647" y2="-60.04723" xlink:href="#linear-gradient-2"/>
  </defs>
  <g isolation="isolate">
    <g id="Shapes">
      <rect width="499.75693" height="261.92723" fill="#fff"/>
      <g>
        <g mix-blend-mode="multiply">
          <rect x="270.1" y="131.41367" width="215.6" height="118.8" fill="#d9d9d6"/>
          <rect x="270.1" y="131.41367" width="215.6" height="118.8" fill="#d9d9d6" opacity=".85"/>
        </g>
        <g>
          <rect x="269.6" y="130.91367" width="215.6" height="118.8" fill="#fff"/>
          <rect x="269.6" y="130.91367" width="215.6" height="118.8" fill="#d9d9d6" opacity=".85"/>
        </g>
      </g>
      <path d="M244.52569,52.69298h7.8s0,7.8,0,7.8h-7.8s0-7.8,0-7.8ZM235.42569,42.29298h7.8v-7.8h-6.71125c-.6013,0-1.08875.48745-1.08875,1.08875v6.71125ZM236.51444,60.49298h6.71125v-7.8h-7.8v6.71125c0,.6013.48745,1.08875,1.08875,1.08875h0ZM235.42569,51.39298h7.8v-7.8h-7.8v7.8ZM253.62569,60.49298h6.71125c.6013,0,1.08875-.48745,1.08875-1.08875h0v-6.71125h-7.8v7.8ZM244.52569,51.39298h7.8v-7.8h-7.8v7.8ZM253.62569,51.39298h7.8v-7.8h-7.8v7.8ZM253.62569,34.49298v7.8h7.8v-6.71125c0-.6013-.48745-1.08875-1.08875-1.08875h-6.71125ZM244.52569,42.29298h7.8v-7.8h-7.8v7.8Z" fill="url(#linear-gradient)"/>
      <g>
        <rect x="283.0334" y="148.51367" width="188.9666" height="88" fill="#fff"/>
        <rect x="283.0334" y="148.51367" width="188.9666" height="88" fill="#0078d4" opacity=".03"/>
        <rect x="283.0334" y="148.51367" width="188.9666" height="88" fill="none" opacity=".6" stroke="#0078d4" stroke-width=".25"/>
      </g>
      <g>
        <g mix-blend-mode="multiply">
          <rect x="13.7" y="131.41367" width="215.6" height="118.8" fill="#d9d9d6"/>
          <rect x="13.7" y="131.41367" width="215.6" height="118.8" fill="#d9d9d6" opacity=".85"/>
          <rect x="13.7" y="131.41367" width="215.6" height="118.8" fill="none" stroke="#d9d9d6" stroke-miterlimit="10" stroke-width=".75"/>
        </g>
        <g>
          <rect x="13.2" y="130.91367" width="215.6" height="118.8" fill="#fff"/>
          <rect x="13.2" y="130.91367" width="215.6" height="118.8" fill="#d9d9d6" opacity=".85"/>
          <rect x="13.2" y="130.91367" width="215.6" height="118.8" fill="none" stroke="#b31b1b" stroke-miterlimit="10" stroke-width=".75"/>
        </g>
      </g>
      <g>
        <rect x="26.6334" y="148.51367" width="188.9666" height="88" fill="#fff"/>
        <rect x="26.6334" y="148.51367" width="188.9666" height="88" fill="#0078d4" opacity=".03"/>
        <rect x="26.6334" y="148.51367" width="188.9666" height="88" fill="none" opacity=".6" stroke="#b31b1b" stroke-width=".75"/>
      </g>
      <g>
        <path d="M121,197.86769c-5.41412,0-9.80353-1.52941-9.80353-3.54824v18.90353c0,1.94235,4.31294,3.51765,9.66588,3.54823h.13765c5.41412,0,9.80353-1.52941,9.80353-3.54823v-18.90353c0,1.97294-4.38941,3.54824-9.80353,3.54824Z" fill="url(#linear-gradient-2)"/>
        <path d="M130.80353,194.31946c0,1.97294-4.38941,3.54824-9.80353,3.54824s-9.80353-1.52941-9.80353-3.54824,4.38941-3.54824,9.80353-3.54824,9.80353,1.52941,9.80353,3.54824" fill="#e8e8e8"/>
        <path d="M128.52471,194.02887c0,1.25412-3.38,2.26353-7.52471,2.26353s-7.52471-1.00941-7.52471-2.26353,3.38-2.24824,7.52471-2.24824,7.52471,1.00941,7.52471,2.24824" fill="#50e6ff"/>
        <path d="M121,194.59475c-2.01838-.05155-4.03067.24331-5.94941.87176,1.92057.61678,3.93346.89621,5.94941.82588,2.02003.05917,4.0345-.24118,5.94941-.88706-1.92421-.59939-3.93499-.87335-5.94941-.81059Z" fill="#198ab3"/>
        <path d="M126.56706,203.77122v2.49294h-1.52941c-.17178-.00415-.33343-.08219-.44353-.21412v-2.27882h-2.06471v2.72235c.02237.77678.6702,1.38834,1.44698,1.36597.02752-.00079.05501-.00239.08243-.0048h2.27882l.39765-.19882s-.16823.62706-.39765.65765h-3.64v1.52941h4.06824c1.02189.01816,1.86502-.79553,1.88318-1.81742.00074-.04166.00007-.08333-.002-.12494v-4.12941h-2.08Z" fill="#f2f2f2"/>
        <path d="M121.81059,203.77122h0v-.74941c.07728-.51948-.23368-1.0183-.73412-1.17765-.24757-.07785-.5052-.11907-.76471-.12235-.60435-.02657-1.16067.32801-1.39176.88706l-1.19294,2.90588-1.52941-2.90588c-.2175-.53544-.73736-.88605-1.3153-.88706-.26618-.00163-.53046.045-.78.13765-.53529.16824-.65765.52-.65765,1.11647v5.06235h1.78941v-3.41059l.96353,2.40118c.25931.61434.86259,1.0125,1.52941,1.00941.67294,0,.94824-.39765,1.22353-1.00941l1.02471-2.30941v3.28824h1.80471v-4.23647h.03059Z" fill="#f2f2f2"/>
      </g>
      <g>
        <path d="M376.62,205.86769c-5.41412,0-9.80353-1.52941-9.80353-3.54824v18.90353c0,1.94235,4.31294,3.51765,9.66588,3.54823h.13765c5.41412,0,9.80353-1.52941,9.80353-3.54823v-18.90353c0,1.97294-4.38941,3.54824-9.80353,3.54824Z" fill="url(#linear-gradient-3)"/>
        <path d="M386.42353,202.31946c0,1.97294-4.38941,3.54824-9.80353,3.54824s-9.80353-1.52941-9.80353-3.54824,4.38941-3.54824,9.80353-3.54824,9.80353,1.52941,9.80353,3.54824" fill="#e8e8e8"/>
        <path d="M384.14471,202.02887c0,1.25412-3.38,2.26353-7.52471,2.26353s-7.52471-1.00941-7.52471-2.26353,3.38-2.24824,7.52471-2.24824,7.52471,1.00941,7.52471,2.24824" fill="#50e6ff"/>
        <path d="M376.62,202.59475c-2.01838-.05155-4.03067.24331-5.94941.87176,1.92057.61678,3.93346.89621,5.94941.82588,2.02003.05917,4.0345-.24118,5.94941-.88706-1.92421-.59939-3.93499-.87335-5.94941-.81059Z" fill="#198ab3"/>
        <path d="M382.18706,211.77122v2.49294h-1.52941c-.17178-.00415-.33343-.08219-.44353-.21412v-2.27882h-2.06471v2.72235c.02237.77678.6702,1.38834,1.44698,1.36597.02752-.00079.05501-.00239.08243-.0048h2.27882l.39765-.19882s-.16823.62706-.39765.65765h-3.64v1.52941h4.06824c1.02189.01816,1.86502-.79553,1.88318-1.81742.00074-.04166.00007-.08333-.002-.12494v-4.12941h-2.08Z" fill="#f2f2f2"/>
        <path d="M377.43059,211.77122h0v-.74941c.07728-.51948-.23368-1.0183-.73412-1.17765-.24757-.07785-.5052-.11907-.76471-.12235-.60435-.02657-1.16067.32801-1.39176.88706l-1.19294,2.90588-1.52941-2.90588c-.2175-.53544-.73736-.88605-1.3153-.88706-.26618-.00163-.53046.045-.78.13765-.53529.16824-.65765.52-.65765,1.11647v5.06235h1.78941v-3.41059l.96353,2.40118c.25931.61434.86259,1.0125,1.52941,1.00941.67294,0,.94824-.39765,1.22353-1.00941l1.02471-2.30941v3.28824h1.80471v-4.23647h.03059Z" fill="#f2f2f2"/>
      </g>
      <g>
        <path d="M246.87241,65.93825v20.62854c0,2.75,2.2173,5.3822,4.92735,5.84924l118.47289,20.42053c2.71004.46716,4.92735,3.09924,4.92735,5.84924v24.44568" fill="none" stroke="#3c3c41" stroke-miterlimit="10"/>
        <polygon points="371.46025 142.03724 375.2 148.51368 378.93975 142.03724 371.46025 142.03724" fill="#3c3c41"/>
      </g>
      <use width="22" height="22" transform="translate(114.4 140.42129) scale(.81818)" xlink:href="#Failed"/>
      <use width="22" height="22" transform="translate(114.4 119.42129) scale(.81818)" xlink:href="#Failed"/>
    </g>
    <g id="Text">
      <g>
        <rect x="26.4" y="165.08911" width="189.2" height="18.05239" fill="none"/>
        <path d="M76.21969,173.61331v3.37695h-2.20801v-9.80273h3.45898c2.47021,0,3.70508,1.04199,3.70508,3.12402,0,.98438-.35449,1.78125-1.06299,2.38965s-1.65527.91211-2.84033.91211h-1.05273ZM76.21969,168.88284v3.05566h.86816c1.17578,0,1.76367-.51465,1.76367-1.54492,0-1.00684-.58789-1.51074-1.76367-1.51074h-.86816Z" fill="#2f2f2f"/>
        <path d="M86.84518,171.93851c-.25977-.14062-.56299-.21191-.90918-.21191-.46924,0-.83643.17188-1.10059.5166-.26416.34375-.39648.8125-.39648,1.4043v3.34277h-2.16016v-7h2.16016v1.29883h.02734c.3418-.94727.95703-1.42188,1.8457-1.42188.22803,0,.40576.02734.5332.08203v1.98926Z" fill="#2f2f2f"/>
        <path d="M88.93161,168.88284c-.36475,0-.66309-.1084-.89551-.32422-.23242-.2168-.34863-.48242-.34863-.79688,0-.32324.11621-.58789.34863-.79297s.53076-.30762.89551-.30762c.36914,0,.66895.10254.89893.30762s.34521.46973.34521.79297c0,.32812-.11523.59766-.34521.80664-.22998.20996-.52979.31445-.89893.31445ZM89.99801,176.99026h-2.16016v-7h2.16016v7Z" fill="#2f2f2f"/>
        <path d="M102.89499,176.99026h-2.15332v-3.99219c0-1.01562-.37354-1.52441-1.12109-1.52441-.35547,0-.64502.15332-.86816.45801-.22314.30566-.33496.68652-.33496,1.1416v3.91699h-2.16016v-4.0332c0-.98828-.3667-1.4834-1.10059-1.4834-.36914,0-.66406.14648-.88525.4375-.22119.29199-.33154.68848-.33154,1.18945v3.88965h-2.16016v-7h2.16016v1.09375h.02734c.22314-.37305.53662-.67773.93994-.91211.40332-.23535.84424-.35254,1.32275-.35254.98877,0,1.66553.43555,2.03027,1.30566.5332-.87012,1.31689-1.30566,2.35156-1.30566,1.52197,0,2.2832.93945,2.2832,2.81641v4.35449Z" fill="#2f2f2f"/>
        <path d="M110.46041,176.99026h-2.04395v-1.00488h-.02734c-.46924.78418-1.16455,1.17578-2.08496,1.17578-.6792,0-1.21338-.19238-1.60303-.57715-.38965-.38574-.58447-.89941-.58447-1.54199,0-1.35742.8042-2.1416,2.41309-2.35156l1.90039-.25293c0-.76562-.41455-1.14844-1.24414-1.14844-.83398,0-1.62695.24902-2.37891.74512v-1.62695c.30078-.1543.71191-.29102,1.23389-.41016.52197-.11816.99707-.17773,1.42529-.17773,1.99609,0,2.99414.99609,2.99414,2.9873v4.18359ZM108.43014,174.14651v-.47168l-1.27148.16406c-.70166.0918-1.05273.4082-1.05273.9502,0,.24609.08545.44824.25635.60547s.40234.23535.69385.23535c.40576,0,.73584-.13965.99121-.41992s.38281-.63477.38281-1.06348Z" fill="#2f2f2f"/>
        <path d="M116.72311,171.93851c-.25977-.14062-.56299-.21191-.90918-.21191-.46924,0-.83643.17188-1.10059.5166-.26416.34375-.39648.8125-.39648,1.4043v3.34277h-2.16016v-7h2.16016v1.29883h.02734c.3418-.94727.95703-1.42188,1.8457-1.42188.22803,0,.40576.02734.5332.08203v1.98926Z" fill="#2f2f2f"/>
        <path d="M124.84274,169.99026l-2.84375,7.56055c-.68359,1.81836-1.71338,2.72754-3.08984,2.72754-.52393,0-.95459-.05859-1.29199-.17773v-1.72266c.28711.16895.59912.25293.93652.25293.55615,0,.94336-.26172,1.16211-.78613l.36914-.86816-2.84375-6.98633h2.39258l1.30566,4.25879c.08203.26465.146.57715.19141.93652h.02734c.04102-.26367.11621-.57129.22559-.92285l1.31934-4.27246h2.13965Z" fill="#2f2f2f"/>
        <path d="M129.1152,176.80569v-1.75c.35547.21484.70996.37402,1.06299.47852.35303.10547.68701.15723,1.00146.15723.38281,0,.68457-.05176.90576-.15723.22119-.10449.33154-.26367.33154-.47852,0-.13672-.05029-.25-.15039-.3418-.1001-.09082-.229-.1709-.38623-.23926s-.3291-.12988-.51611-.18457-.3667-.11621-.54004-.18457c-.27783-.10449-.52295-.21777-.73486-.33789-.21191-.12109-.38965-.26074-.5332-.4209-.14355-.15918-.25293-.34375-.32812-.55371-.0752-.20898-.11279-.45801-.11279-.74512,0-.3916.08545-.72852.25635-1.01172.1709-.28223.39893-.51367.68359-.69336.28467-.18066.61084-.3125.97754-.39648.3667-.08496.74854-.12695,1.14502-.12695.31006,0,.62451.02441.94336.07227s.6333.11719.94336.20801v1.66797c-.27344-.15918-.56641-.2793-.87842-.3584-.31201-.08008-.61865-.12012-.91943-.12012-.14111,0-.27441.0127-.3999.03809-.12549.02441-.23584.06152-.33154.10938s-.1709.10938-.22559.18457-.08203.16016-.08203.25586c0,.12793.04102.2373.12305.32812.08203.0918.18896.16992.32129.23633.13232.06543.2793.125.44092.17773.16162.05176.32227.10547.48193.16016.28711.10059.54688.20996.7793.32812.23242.11914.43164.25781.59814.41699.1665.16016.29395.34668.38281.56055.08887.21484.1333.46973.1333.76562,0,.41504-.08984.76953-.27002,1.06348s-.41943.5332-.71777.71777-.64258.31836-1.03223.40332c-.38965.08398-.79395.12598-1.21338.12598-.77002,0-1.4834-.11816-2.13965-.35547Z" fill="#2f2f2f"/>
        <path d="M142.06442,174.1055h-4.56641c.07275,1.0166.71338,1.52441,1.9209,1.52441.77002,0,1.44678-.18164,2.03027-.54688v1.55859c-.64697.34668-1.48779.51953-2.52246.51953-1.13037,0-2.00732-.31348-2.63184-.93945-.62451-.62695-.93652-1.50098-.93652-2.62207,0-1.16211.3374-2.08203,1.01172-2.76172.67432-.67871,1.50391-1.01855,2.48828-1.01855,1.021,0,1.81055.30371,2.36865.90918.55811.60645.8374,1.42871.8374,2.46777v.90918ZM140.06149,172.77933c0-1.00195-.40576-1.50391-1.2168-1.50391-.34619,0-.646.14355-.89893.43066s-.40674.64551-.46143,1.07324h2.57715Z" fill="#2f2f2f"/>
        <path d="M147.99606,171.93851c-.25977-.14062-.56299-.21191-.90918-.21191-.46924,0-.83643.17188-1.10059.5166-.26416.34375-.39648.8125-.39648,1.4043v3.34277h-2.16016v-7h2.16016v1.29883h.02734c.3418-.94727.95703-1.42188,1.8457-1.42188.22803,0,.40576.02734.5332.08203v1.98926Z" fill="#2f2f2f"/>
        <path d="M156.0942,169.99026l-2.60449,7h-2.46094l-2.48145-7h2.31055l1.2168,4.31348c.13672.48828.21631.90234.23926,1.24414h.02734c.03174-.32324.11621-.72461.25293-1.20312l1.24414-4.35449h2.25586Z" fill="#2f2f2f"/>
        <path d="M163.08249,174.1055h-4.56641c.07275,1.0166.71338,1.52441,1.9209,1.52441.77002,0,1.44678-.18164,2.03027-.54688v1.55859c-.64697.34668-1.48779.51953-2.52246.51953-1.13037,0-2.00732-.31348-2.63184-.93945-.62451-.62695-.93652-1.50098-.93652-2.62207,0-1.16211.3374-2.08203,1.01172-2.76172.67432-.67871,1.50391-1.01855,2.48828-1.01855,1.021,0,1.81055.30371,2.36865.90918.55811.60645.8374,1.42871.8374,2.46777v.90918ZM161.07956,172.77933c0-1.00195-.40576-1.50391-1.2168-1.50391-.34619,0-.646.14355-.89893.43066s-.40674.64551-.46143,1.07324h2.57715Z" fill="#2f2f2f"/>
        <path d="M169.01364,171.93851c-.25977-.14062-.56299-.21191-.90918-.21191-.46924,0-.83643.17188-1.10059.5166-.26416.34375-.39648.8125-.39648,1.4043v3.34277h-2.16016v-7h2.16016v1.29883h.02734c.3418-.94727.95703-1.42188,1.8457-1.42188.22803,0,.40576.02734.5332.08203v1.98926Z" fill="#2f2f2f"/>
      </g>
      <g>
        <rect x="164.82569" y="10.66859" width="167.2" height="20.19225" fill="none"/>
        <path d="M220.26559,22.57132h-2.40625l-.69727-2.18066h-3.48633l-.69043,2.18066h-2.39258l3.56836-9.80273h2.61816l3.48633,9.80273ZM216.65622,18.69534l-1.05273-3.29492c-.07764-.24609-.13232-.54004-.16406-.88184h-.05469c-.02295.28711-.07959.57129-.1709.85449l-1.06641,3.32227h2.50879Z" fill="#2f2f2f"/>
        <path d="M223.44918,21.75784h-.02734v4.0332h-2.16016v-10.21973h2.16016v1.05273h.02734c.5332-.81641,1.28271-1.22363,2.24902-1.22363.90674,0,1.60742.31055,2.10205.93262s.7417,1.46875.7417,2.54004c0,1.16602-.28809,2.10254-.86475,2.80957-.57666.70605-1.34326,1.05957-2.30029,1.05957-.84326,0-1.48584-.32812-1.92773-.98438ZM223.38766,18.88675v.56055c0,.48242.12744.87695.38281,1.18262.25537.30469.59033.45801,1.00488.45801.49219,0,.87402-.19043,1.14502-.57129.271-.37988.40674-.91895.40674-1.61621,0-1.23047-.47852-1.8457-1.43555-1.8457-.44189,0-.80322.16699-1.0835.50195s-.42041.77832-.42041,1.33008Z" fill="#2f2f2f"/>
        <path d="M232.14645,21.75784h-.02734v4.0332h-2.16016v-10.21973h2.16016v1.05273h.02734c.5332-.81641,1.28271-1.22363,2.24902-1.22363.90674,0,1.60742.31055,2.10205.93262s.7417,1.46875.7417,2.54004c0,1.16602-.28809,2.10254-.86475,2.80957-.57666.70605-1.34326,1.05957-2.30029,1.05957-.84326,0-1.48584-.32812-1.92773-.98438ZM232.08493,18.88675v.56055c0,.48242.12744.87695.38281,1.18262.25537.30469.59033.45801,1.00488.45801.49219,0,.87402-.19043,1.14502-.57129.271-.37988.40674-.91895.40674-1.61621,0-1.23047-.47852-1.8457-1.43555-1.8457-.44189,0-.80322.16699-1.0835.50195s-.42041.77832-.42041,1.33008Z" fill="#2f2f2f"/>
        <path d="M240.82858,22.57132h-2.16016v-10.36328h2.16016v10.36328Z" fill="#2f2f2f"/>
        <path d="M243.69723,14.4639c-.36475,0-.66309-.1084-.89551-.3252-.23242-.21582-.34863-.48145-.34863-.7959,0-.32422.11621-.58789.34863-.79297s.53076-.30762.89551-.30762c.36914,0,.66895.10254.89893.30762s.34521.46875.34521.79297c0,.32812-.11523.59668-.34521.80664-.22998.20898-.52979.31445-.89893.31445ZM244.76364,22.57132h-2.16016v-7h2.16016v7Z" fill="#2f2f2f"/>
        <path d="M251.84372,22.31839c-.48779.28223-1.19189.42383-2.1123.42383-1.07568,0-1.9458-.32617-2.61133-.97754-.66553-.65234-.99805-1.49316-.99805-2.52246,0-1.18945.35645-2.12695,1.06982-2.81348.71338-.68555,1.66699-1.02832,2.86084-1.02832.82471,0,1.42188.10938,1.79102.32812v1.83203c-.45117-.33789-.95459-.50586-1.51074-.50586-.61963,0-1.11084.18066-1.47314.54297s-.54346.8623-.54346,1.50098c0,.61914.17334,1.10645.51953,1.45898.34619.35352.82275.53027,1.42871.53027.5376,0,1.06396-.16895,1.5791-.50586v1.73633Z" fill="#2f2f2f"/>
        <path d="M259.17916,22.57132h-2.04395v-1.00488h-.02734c-.46924.7832-1.16455,1.17578-2.08496,1.17578-.6792,0-1.21338-.19238-1.60303-.57812-.38965-.38477-.58447-.89844-.58447-1.54102,0-1.3584.8042-2.14258,2.41309-2.35156l1.90039-.25293c0-.76562-.41455-1.14844-1.24414-1.14844-.83398,0-1.62695.24805-2.37891.74512v-1.62695c.30078-.15527.71191-.29199,1.23389-.41016.52197-.11914.99707-.17773,1.42529-.17773,1.99609,0,2.99414.99512,2.99414,2.9873v4.18359ZM257.14889,19.72757v-.47168l-1.27148.16406c-.70166.09082-1.05273.40723-1.05273.9502,0,.24609.08545.44727.25635.60449s.40234.23633.69385.23633c.40576,0,.73584-.14062.99121-.4209s.38281-.63477.38281-1.0625Z" fill="#2f2f2f"/>
        <path d="M265.00778,22.48929c-.31885.16797-.7998.25293-1.44238.25293-1.52197,0-2.2832-.79102-2.2832-2.37207v-3.20605h-1.13477v-1.59277h1.13477v-1.51074l2.15332-.61523v2.12598h1.57227v1.59277h-1.57227v2.83008c0,.72852.28955,1.09375.86816,1.09375.22803,0,.4624-.06641.7041-.19824v1.59961Z" fill="#2f2f2f"/>
        <path d="M267.38571,14.4639c-.36475,0-.66309-.1084-.89551-.3252-.23242-.21582-.34863-.48145-.34863-.7959,0-.32422.11621-.58789.34863-.79297s.53076-.30762.89551-.30762c.36914,0,.66895.10254.89893.30762s.34521.46875.34521.79297c0,.32812-.11523.59668-.34521.80664-.22998.20898-.52979.31445-.89893.31445ZM268.45211,22.57132h-2.16016v-7h2.16016v7Z" fill="#2f2f2f"/>
        <path d="M273.56295,22.74222c-1.1665,0-2.08398-.32715-2.75146-.98145-.66748-.65332-1.00146-1.54102-1.00146-2.66211,0-1.1582.34619-2.06348,1.03906-2.71777.69287-.65332,1.62939-.98047,2.80957-.98047,1.16211,0,2.07373.32715,2.73438.98047.66064.6543.99121,1.51855.99121,2.59473,0,1.16211-.34082,2.08008-1.02197,2.75488-.68115.67383-1.61426,1.01172-2.79932,1.01172ZM273.61764,17.05472c-.51025,0-.90674.1748-1.18945.52637-.28271.35059-.42383.84766-.42383,1.49023,0,1.34375.54248,2.0166,1.62695,2.0166,1.03467,0,1.55176-.69043,1.55176-2.07129,0-1.30859-.52197-1.96191-1.56543-1.96191Z" fill="#2f2f2f"/>
        <path d="M285.52536,22.57132h-2.15332v-3.88965c0-1.08496-.38721-1.62695-1.16211-1.62695-.37354,0-.68115.14355-.92285.43066s-.3623.65137-.3623,1.09375v3.99219h-2.16016v-7h2.16016v1.10742h.02734c.51514-.85254,1.26465-1.27832,2.24902-1.27832,1.54932,0,2.32422.96094,2.32422,2.88477v4.28613Z" fill="#2f2f2f"/>
      </g>
      <g>
        <rect x="13.21795" y="93.5892" width="57.18205" height="35.32447" fill="none"/>
        <path d="M16.54782,102.11331v3.37695h-2.20801v-9.80273h3.45898c2.47021,0,3.70508,1.04199,3.70508,3.12402,0,.98438-.35449,1.78125-1.06299,2.38965s-1.65527.91211-2.84033.91211h-1.05273ZM16.54782,97.38284v3.05566h.86816c1.17578,0,1.76367-.51465,1.76367-1.54492,0-1.00684-.58789-1.51074-1.76367-1.51074h-.86816Z" fill="#2f2f2f"/>
        <path d="M27.17331,100.43851c-.25977-.14062-.56299-.21191-.90918-.21191-.46924,0-.83643.17188-1.10059.5166-.26416.34375-.39648.8125-.39648,1.4043v3.34277h-2.16016v-7h2.16016v1.29883h.02734c.3418-.94727.95703-1.42188,1.8457-1.42188.22803,0,.40576.02734.5332.08203v1.98926Z" fill="#2f2f2f"/>
        <path d="M29.25973,97.38284c-.36475,0-.66309-.1084-.89551-.32422-.23242-.2168-.34863-.48242-.34863-.79688,0-.32324.11621-.58789.34863-.79297s.53076-.30762.89551-.30762c.36914,0,.66895.10254.89893.30762s.34521.46973.34521.79297c0,.32812-.11523.59766-.34521.80664-.22998.20996-.52979.31445-.89893.31445ZM30.32614,105.49026h-2.16016v-7h2.16016v7Z" fill="#2f2f2f"/>
        <path d="M43.22311,105.49026h-2.15332v-3.99219c0-1.01562-.37354-1.52441-1.12109-1.52441-.35547,0-.64502.15332-.86816.45801-.22314.30566-.33496.68652-.33496,1.1416v3.91699h-2.16016v-4.0332c0-.98828-.3667-1.4834-1.10059-1.4834-.36914,0-.66406.14648-.88525.4375-.22119.29199-.33154.68848-.33154,1.18945v3.88965h-2.16016v-7h2.16016v1.09375h.02734c.22314-.37305.53662-.67773.93994-.91211.40332-.23535.84424-.35254,1.32275-.35254.98877,0,1.66553.43555,2.03027,1.30566.5332-.87012,1.31689-1.30566,2.35156-1.30566,1.52197,0,2.2832.93945,2.2832,2.81641v4.35449Z" fill="#2f2f2f"/>
        <path d="M50.78854,105.49026h-2.04395v-1.00488h-.02734c-.46924.78418-1.16455,1.17578-2.08496,1.17578-.6792,0-1.21338-.19238-1.60303-.57715-.38965-.38574-.58447-.89941-.58447-1.54199,0-1.35742.8042-2.1416,2.41309-2.35156l1.90039-.25293c0-.76562-.41455-1.14844-1.24414-1.14844-.83398,0-1.62695.24902-2.37891.74512v-1.62695c.30078-.1543.71191-.29102,1.23389-.41016.52197-.11816.99707-.17773,1.42529-.17773,1.99609,0,2.99414.99609,2.99414,2.9873v4.18359ZM48.75827,102.64651v-.47168l-1.27148.16406c-.70166.0918-1.05273.4082-1.05273.9502,0,.24609.08545.44824.25635.60547s.40234.23535.69385.23535c.40576,0,.73584-.13965.99121-.41992s.38281-.63477.38281-1.06348Z" fill="#2f2f2f"/>
        <path d="M57.05124,100.43851c-.25977-.14062-.56299-.21191-.90918-.21191-.46924,0-.83643.17188-1.10059.5166-.26416.34375-.39648.8125-.39648,1.4043v3.34277h-2.16016v-7h2.16016v1.29883h.02734c.3418-.94727.95703-1.42188,1.8457-1.42188.22803,0,.40576.02734.5332.08203v1.98926Z" fill="#2f2f2f"/>
        <path d="M65.17086,98.49026l-2.84375,7.56055c-.68359,1.81836-1.71338,2.72754-3.08984,2.72754-.52393,0-.95459-.05859-1.29199-.17773v-1.72266c.28711.16895.59912.25293.93652.25293.55615,0,.94336-.26172,1.16211-.78613l.36914-.86816-2.84375-6.98633h2.39258l1.30566,4.25879c.08203.26465.146.57715.19141.93652h.02734c.04102-.26367.11621-.57129.22559-.92285l1.31934-4.27246h2.13965Z" fill="#2f2f2f"/>
        <path d="M18.00387,116.42483c-.1958-.15039-.47852-.22559-.84766-.22559-.47852,0-.87842.22559-1.19971.67676s-.48193,1.06641-.48193,1.8457v3.56836h-1.12109v-7h1.12109v1.44238h.02734c.15967-.49219.40332-.87598.73145-1.15137.32812-.27637.69482-.41406,1.10059-.41406.2915,0,.51514.03223.66992.0957v1.16211Z" fill="#2f2f2f"/>
        <path d="M24.84665,119.07034h-4.94238c.01807.7793.22803,1.38086.62891,1.80469s.95264.63574,1.6543.63574c.78857,0,1.51318-.25977,2.17383-.7793v1.05273c-.61523.44727-1.42871.66992-2.44043.66992-.98877,0-1.76611-.31738-2.33105-.95312s-.84766-1.53027-.84766-2.68359c0-1.08887.30859-1.97656.92627-2.66211.61768-.68652,1.38428-1.0293,2.30029-1.0293s1.62451.29688,2.12598.88867c.50146.59277.75195,1.41504.75195,2.46777v.58789ZM23.69821,118.12015c-.00439-.64648-.16064-1.15039-.46826-1.51074-.30762-.35938-.73486-.54004-1.28174-.54004-.52881,0-.97754.18945-1.34668.56738-.36914.37891-.59717.87305-.68359,1.4834h3.78027Z" fill="#2f2f2f"/>
        <path d="M32.54733,121.72952c0,2.57031-1.23047,3.85547-3.69141,3.85547-.86572,0-1.62256-.16406-2.26953-.49219v-1.12109c.78857.4375,1.54053.65625,2.25586.65625,1.72266,0,2.58398-.91602,2.58398-2.74805v-.76562h-.02734c-.5332.89355-1.33545,1.33984-2.40625,1.33984-.87061,0-1.57129-.31055-2.10205-.93262s-.79639-1.45703-.79639-2.50586c0-1.18945.28613-2.13477.85791-2.83691.57178-.70117,1.35449-1.05273,2.34814-1.05273.94336,0,1.64307.37891,2.09863,1.13477h.02734v-.9707h1.12109v6.43945ZM31.42624,119.12503v-1.03223c0-.55566-.18799-1.03223-.56396-1.42871s-.84424-.59473-1.40479-.59473c-.69287,0-1.23486.25195-1.62695.75586-.39209.50293-.58789,1.20898-.58789,2.11523,0,.7793.18799,1.40234.56396,1.87012.37598.4668.87402.7002,1.49365.7002.62891,0,1.14062-.22266,1.53467-.66992.39404-.44629.59131-1.01855.59131-1.71582Z" fill="#2f2f2f"/>
        <path d="M35.23727,113.51273c-.20068,0-.37158-.06836-.5127-.20508s-.21191-.30957-.21191-.51953c0-.20898.0708-.38379.21191-.52246.14111-.13965.31201-.20898.5127-.20898.20508,0,.37939.06934.52295.20898.14355.13867.21533.31348.21533.52246,0,.20117-.07178.37207-.21533.5127-.14355.1416-.31787.21191-.52295.21191ZM35.78415,122.29007h-1.12109v-7h1.12109v7Z" fill="#2f2f2f"/>
        <path d="M40.87838,122.45413c-1.03467,0-1.86035-.32715-2.47803-.98047-.61768-.6543-.92627-1.52148-.92627-2.60156,0-1.17578.32129-2.09375.96387-2.75488.64258-.66016,1.51074-.99121,2.60449-.99121,1.04346,0,1.8584.32129,2.44385.96387s.87842,1.53418.87842,2.67285c0,1.11719-.31543,2.01074-.94678,2.68359-.63135.67188-1.47754,1.00781-2.53955,1.00781ZM40.96041,116.06937c-.72021,0-1.28955.24512-1.70898.73535-.41943.48926-.62891,1.16504-.62891,2.02637,0,.83008.21191,1.4834.63574,1.96191s.99121.71777,1.70215.71777c.72461,0,1.28174-.23438,1.67139-.7041.38965-.46875.58447-1.13672.58447-2.00293,0-.875-.19482-1.54883-.58447-2.02344-.38965-.47363-.94678-.71094-1.67139-.71094Z" fill="#2f2f2f"/>
        <path d="M51.89059,122.29007h-1.12109v-3.99219c0-1.48535-.54248-2.22852-1.62695-2.22852-.56055,0-1.02441.21094-1.39111.63281-.3667.4209-.55029.95312-.55029,1.5957v3.99219h-1.12109v-7h1.12109v1.16211h.02734c.52881-.88379,1.29443-1.32617,2.29688-1.32617.76562,0,1.35107.24707,1.75684.74219.40576.49414.6084,1.20898.6084,2.14258v4.2793Z" fill="#2f2f2f"/>
      </g>
      <g>
        <rect x="282.8" y="158.42129" width="189.2" height="32.34994" fill="none"/>
        <path d="M347.60446,162.31741h-3.45898v2.40625h3.17871v1.79102h-3.17871v3.80762h-2.20801v-9.80273h5.66699v1.79785Z" fill="#2f2f2f"/>
        <path d="M354.46041,170.3223h-2.04395v-1.00488h-.02734c-.46924.7832-1.16455,1.17578-2.08496,1.17578-.6792,0-1.21338-.19238-1.60303-.57812-.38965-.38477-.58447-.89844-.58447-1.54102,0-1.3584.8042-2.14258,2.41309-2.35156l1.90039-.25293c0-.76562-.41455-1.14844-1.24414-1.14844-.83398,0-1.62695.24805-2.37891.74512v-1.62695c.30078-.15527.71191-.29199,1.23389-.41016.52197-.11914.99707-.17773,1.42529-.17773,1.99609,0,2.99414.99512,2.99414,2.9873v4.18359ZM352.43014,167.47855v-.47168l-1.27148.16406c-.70166.09082-1.05273.40723-1.05273.9502,0,.24609.08545.44727.25635.60449s.40234.23633.69385.23633c.40576,0,.73584-.14062.99121-.4209s.38281-.63477.38281-1.0625Z" fill="#2f2f2f"/>
        <path d="M357.23092,162.21487c-.36475,0-.66309-.1084-.89551-.3252-.23242-.21582-.34863-.48145-.34863-.7959,0-.32422.11621-.58789.34863-.79297s.53076-.30762.89551-.30762c.36914,0,.66895.10254.89893.30762s.34521.46875.34521.79297c0,.32812-.11523.59668-.34521.80664-.22998.20898-.52979.31445-.89893.31445ZM358.29733,170.3223h-2.16016v-7h2.16016v7Z" fill="#2f2f2f"/>
        <path d="M362.23239,170.3223h-2.16016v-10.36328h2.16016v10.36328Z" fill="#2f2f2f"/>
        <path d="M370.34811,167.43753h-4.56641c.07275,1.01562.71338,1.52441,1.9209,1.52441.77002,0,1.44678-.18262,2.03027-.54688v1.55859c-.64697.3457-1.48779.51953-2.52246.51953-1.13037,0-2.00732-.31348-2.63184-.94043-.62451-.62598-.93652-1.5-.93652-2.62109,0-1.16211.3374-2.08301,1.01172-2.76172.67432-.67969,1.50391-1.01855,2.48828-1.01855,1.021,0,1.81055.30273,2.36865.90918.55811.60547.8374,1.42871.8374,2.46777v.90918ZM368.34518,166.11136c0-1.00293-.40576-1.50391-1.2168-1.50391-.34619,0-.646.14355-.89893.43066s-.40674.64453-.46143,1.07324h2.57715Z" fill="#2f2f2f"/>
        <path d="M378.59372,170.3223h-2.16016v-.96387h-.02734c-.49219.75586-1.21436,1.13477-2.16699,1.13477-.875,0-1.5791-.30859-2.1123-.92676-.5332-.61719-.7998-1.47949-.7998-2.58691,0-1.1582.29395-2.08496.88184-2.78223s1.35791-1.0459,2.31055-1.0459c.90234,0,1.53125.32324,1.88672.9707h.02734v-4.16309h2.16016v10.36328ZM376.47458,166.918v-.52637c0-.45605-.13232-.83398-.39648-1.13477s-.6084-.45117-1.03223-.45117c-.47852,0-.85205.1875-1.12109.56348s-.40332.89258-.40332,1.54883c0,.61523.12988,1.08887.38965,1.42188.25977.33203.61963.49902,1.08008.49902.4375,0,.79395-.17578,1.06982-.52637.27588-.35156.41357-.81641.41357-1.39453Z" fill="#2f2f2f"/>
        <path d="M384.06295,167.34183h-3.73926v-1.51074h3.73926v1.51074Z" fill="#2f2f2f"/>
        <path d="M389.28073,170.49319c-1.1665,0-2.08398-.32715-2.75146-.98145-.66748-.65332-1.00146-1.54102-1.00146-2.66211,0-1.1582.34619-2.06348,1.03906-2.71777.69287-.65332,1.62939-.98047,2.80957-.98047,1.16211,0,2.07373.32715,2.73438.98047.66064.6543.99121,1.51855.99121,2.59473,0,1.16211-.34082,2.08008-1.02197,2.75488-.68115.67383-1.61426,1.01172-2.79932,1.01172ZM389.33541,164.80569c-.51025,0-.90674.1748-1.18945.52637-.28271.35059-.42383.84766-.42383,1.49023,0,1.34375.54248,2.0166,1.62695,2.0166,1.03467,0,1.55176-.69043,1.55176-2.07129,0-1.30859-.52197-1.96191-1.56543-1.96191Z" fill="#2f2f2f"/>
        <path d="M400.96969,163.3223l-2.60449,7h-2.46094l-2.48145-7h2.31055l1.2168,4.31348c.13672.4873.21631.90234.23926,1.24414h.02734c.03174-.32422.11621-.72461.25293-1.20312l1.24414-4.35449h2.25586Z" fill="#2f2f2f"/>
        <path d="M407.95749,167.43753h-4.56641c.07275,1.01562.71338,1.52441,1.9209,1.52441.77002,0,1.44678-.18262,2.03027-.54688v1.55859c-.64697.3457-1.48779.51953-2.52246.51953-1.13037,0-2.00732-.31348-2.63184-.94043-.62451-.62598-.93652-1.5-.93652-2.62109,0-1.16211.3374-2.08301,1.01172-2.76172.67432-.67969,1.50391-1.01855,2.48828-1.01855,1.021,0,1.81055.30273,2.36865.90918.55811.60547.8374,1.42871.8374,2.46777v.90918ZM405.95456,166.11136c0-1.00293-.40576-1.50391-1.2168-1.50391-.34619,0-.646.14355-.89893.43066s-.40674.64453-.46143,1.07324h2.57715Z" fill="#2f2f2f"/>
        <path d="M413.88913,165.27054c-.25977-.1416-.56299-.21191-.90918-.21191-.46924,0-.83643.17188-1.10059.51562-.26416.34473-.39648.8125-.39648,1.40527v3.34277h-2.16016v-7h2.16016v1.29883h.02734c.3418-.94824.95703-1.42188,1.8457-1.42188.22803,0,.40576.02734.5332.08203v1.98926Z" fill="#2f2f2f"/>
        <path d="M332.27877,186.30862h-.02734v4.0332h-2.16016v-10.21973h2.16016v1.05273h.02734c.5332-.81641,1.28271-1.22363,2.24902-1.22363.90674,0,1.60742.31055,2.10205.93262s.7417,1.46875.7417,2.54004c0,1.16602-.28809,2.10254-.86475,2.80957-.57666.70605-1.34326,1.05957-2.30029,1.05957-.84326,0-1.48584-.32812-1.92773-.98438ZM332.21725,183.43753v.56055c0,.48242.12744.87695.38281,1.18262.25537.30469.59033.45801,1.00488.45801.49219,0,.87402-.19043,1.14502-.57129.271-.37988.40674-.91895.40674-1.61621,0-1.23047-.47852-1.8457-1.43555-1.8457-.44189,0-.80322.16699-1.0835.50195s-.42041.77832-.42041,1.33008Z" fill="#2f2f2f"/>
        <path d="M343.35495,182.07034c-.25977-.1416-.56299-.21191-.90918-.21191-.46924,0-.83643.17188-1.10059.51562-.26416.34473-.39648.8125-.39648,1.40527v3.34277h-2.16016v-7h2.16016v1.29883h.02734c.3418-.94824.95703-1.42188,1.8457-1.42188.22803,0,.40576.02734.5332.08203v1.98926Z" fill="#2f2f2f"/>
        <path d="M345.44088,179.01468c-.36475,0-.66309-.1084-.89551-.3252-.23242-.21582-.34863-.48145-.34863-.7959,0-.32422.11621-.58789.34863-.79297s.53076-.30762.89551-.30762c.36914,0,.66895.10254.89893.30762s.34521.46875.34521.79297c0,.32812-.11523.59668-.34521.80664-.22998.20898-.52979.31445-.89893.31445ZM346.50729,187.1221h-2.16016v-7h2.16016v7Z" fill="#2f2f2f"/>
        <path d="M359.40426,187.1221h-2.15332v-3.99219c0-1.0166-.37354-1.52441-1.12109-1.52441-.35547,0-.64502.15234-.86816.45801-.22314.30469-.33496.68555-.33496,1.1416v3.91699h-2.16016v-4.0332c0-.98926-.3667-1.4834-1.10059-1.4834-.36914,0-.66406.14551-.88525.4375-.22119.29102-.33154.6875-.33154,1.18945v3.88965h-2.16016v-7h2.16016v1.09375h.02734c.22314-.37402.53662-.67773.93994-.91309.40332-.23438.84424-.35156,1.32275-.35156.98877,0,1.66553.43457,2.03027,1.30566.5332-.87109,1.31689-1.30566,2.35156-1.30566,1.52197,0,2.2832.93848,2.2832,2.81641v4.35449Z" fill="#2f2f2f"/>
        <path d="M366.96969,187.1221h-2.04395v-1.00488h-.02734c-.46924.7832-1.16455,1.17578-2.08496,1.17578-.6792,0-1.21338-.19238-1.60303-.57812-.38965-.38477-.58447-.89844-.58447-1.54102,0-1.3584.8042-2.14258,2.41309-2.35156l1.90039-.25293c0-.76562-.41455-1.14844-1.24414-1.14844-.83398,0-1.62695.24805-2.37891.74512v-1.62695c.30078-.15527.71191-.29199,1.23389-.41016.52197-.11914.99707-.17773,1.42529-.17773,1.99609,0,2.99414.99512,2.99414,2.9873v4.18359ZM364.93942,184.27835v-.47168l-1.27148.16406c-.70166.09082-1.05273.40723-1.05273.9502,0,.24609.08545.44727.25635.60449s.40234.23633.69385.23633c.40576,0,.73584-.14062.99121-.4209s.38281-.63477.38281-1.0625Z" fill="#2f2f2f"/>
        <path d="M373.23239,182.07034c-.25977-.1416-.56299-.21191-.90918-.21191-.46924,0-.83643.17188-1.10059.51562-.26416.34473-.39648.8125-.39648,1.40527v3.34277h-2.16016v-7h2.16016v1.29883h.02734c.3418-.94824.95703-1.42188,1.8457-1.42188.22803,0,.40576.02734.5332.08203v1.98926Z" fill="#2f2f2f"/>
        <path d="M381.35202,180.1221l-2.84375,7.56055c-.68359,1.81836-1.71338,2.72754-3.08984,2.72754-.52393,0-.95459-.05957-1.29199-.17773v-1.72266c.28711.16797.59912.25293.93652.25293.55615,0,.94336-.2627,1.16211-.78613l.36914-.86816-2.84375-6.98633h2.39258l1.30566,4.25879c.08203.26367.146.57617.19141.93652h.02734c.04102-.26465.11621-.57227.22559-.92285l1.31934-4.27246h2.13965Z" fill="#2f2f2f"/>
        <path d="M385.62448,186.93753v-1.75c.35547.21387.70996.37305,1.06299.47852.35303.10449.68701.15723,1.00146.15723.38281,0,.68457-.05273.90576-.15723.22119-.10547.33154-.26465.33154-.47852,0-.13672-.05029-.25098-.15039-.3418-.1001-.0918-.229-.1709-.38623-.23926s-.3291-.12988-.51611-.18457-.3667-.11621-.54004-.18457c-.27783-.10547-.52295-.21777-.73486-.33887-.21191-.12012-.38965-.26074-.5332-.41992-.14355-.16016-.25293-.34473-.32812-.55371-.0752-.20996-.11279-.45801-.11279-.74512,0-.39258.08545-.72949.25635-1.01172.1709-.2832.39893-.51367.68359-.69434.28467-.17969.61084-.31152.97754-.39648.3667-.08398.74854-.12598,1.14502-.12598.31006,0,.62451.02344.94336.07129s.6333.11719.94336.20898v1.66797c-.27344-.16016-.56641-.2793-.87842-.35938-.31201-.0791-.61865-.11914-.91943-.11914-.14111,0-.27441.0127-.3999.03711-.12549.02539-.23584.06152-.33154.10938s-.1709.10938-.22559.18457-.08203.16113-.08203.25684c0,.12695.04102.23633.12305.32812.08203.09082.18896.16992.32129.23535.13232.06641.2793.12598.44092.17773.16162.05273.32227.10645.48193.16113.28711.09961.54688.20898.7793.32812.23242.11816.43164.25684.59814.41699.1665.15918.29395.3457.38281.56055.08887.21387.1333.46875.1333.76562,0,.41406-.08984.76855-.27002,1.0625s-.41943.5332-.71777.71777-.64258.31934-1.03223.40332c-.38965.08496-.79395.12695-1.21338.12695-.77002,0-1.4834-.11914-2.13965-.35547Z" fill="#2f2f2f"/>
        <path d="M398.57418,184.23733h-4.56641c.07275,1.01562.71338,1.52441,1.9209,1.52441.77002,0,1.44678-.18262,2.03027-.54688v1.55859c-.64697.3457-1.48779.51953-2.52246.51953-1.13037,0-2.00732-.31348-2.63184-.94043-.62451-.62598-.93652-1.5-.93652-2.62109,0-1.16211.3374-2.08301,1.01172-2.76172.67432-.67969,1.50391-1.01855,2.48828-1.01855,1.021,0,1.81055.30273,2.36865.90918.55811.60547.8374,1.42871.8374,2.46777v.90918ZM396.57125,182.91116c0-1.00293-.40576-1.50391-1.2168-1.50391-.34619,0-.646.14355-.89893.43066s-.40674.64453-.46143,1.07324h2.57715Z" fill="#2f2f2f"/>
        <path d="M404.50534,182.07034c-.25977-.1416-.56299-.21191-.90918-.21191-.46924,0-.83643.17188-1.10059.51562-.26416.34473-.39648.8125-.39648,1.40527v3.34277h-2.16016v-7h2.16016v1.29883h.02734c.3418-.94824.95703-1.42188,1.8457-1.42188.22803,0,.40576.02734.5332.08203v1.98926Z" fill="#2f2f2f"/>
        <path d="M412.60348,180.1221l-2.60449,7h-2.46094l-2.48145-7h2.31055l1.2168,4.31348c.13672.4873.21631.90234.23926,1.24414h.02734c.03174-.32422.11621-.72461.25293-1.20312l1.24414-4.35449h2.25586Z" fill="#2f2f2f"/>
        <path d="M419.59176,184.23733h-4.56641c.07275,1.01562.71338,1.52441,1.9209,1.52441.77002,0,1.44678-.18262,2.03027-.54688v1.55859c-.64697.3457-1.48779.51953-2.52246.51953-1.13037,0-2.00732-.31348-2.63184-.94043-.62451-.62598-.93652-1.5-.93652-2.62109,0-1.16211.3374-2.08301,1.01172-2.76172.67432-.67969,1.50391-1.01855,2.48828-1.01855,1.021,0,1.81055.30273,2.36865.90918.55811.60547.8374,1.42871.8374,2.46777v.90918ZM417.58883,182.91116c0-1.00293-.40576-1.50391-1.2168-1.50391-.34619,0-.646.14355-.89893.43066s-.40674.64453-.46143,1.07324h2.57715Z" fill="#2f2f2f"/>
        <path d="M425.52291,182.07034c-.25977-.1416-.56299-.21191-.90918-.21191-.46924,0-.83643.17188-1.10059.51562-.26416.34473-.39648.8125-.39648,1.40527v3.34277h-2.16016v-7h2.16016v1.29883h.02734c.3418-.94824.95703-1.42188,1.8457-1.42188.22803,0,.40576.02734.5332.08203v1.98926Z" fill="#2f2f2f"/>
      </g>
      <g>
        <rect x="406.219" y="93.71367" width="78.981" height="34.66507" fill="none"/>
        <path d="M416.88864,105.23929v-2.1875c.39648.33203.82715.58203,1.29199.74805.46484.16699.93408.25,1.4082.25.27783,0,.52051-.02539.72803-.0752.20752-.05078.38037-.12012.51953-.20898s.24268-.19336.31104-.31445c.06836-.12012.10254-.25195.10254-.39258,0-.19141-.05469-.3623-.16406-.5127s-.25879-.29004-.44775-.41699c-.18896-.12793-.41357-.25098-.67334-.36914-.25977-.11914-.54004-.23926-.84082-.3623-.76562-.31934-1.33643-.70898-1.7124-1.16895-.37598-.46094-.56396-1.0166-.56396-1.66797,0-.51074.10254-.94922.30762-1.31641.20508-.36621.48438-.66895.8374-.90527.35303-.2373.76221-.41113,1.22705-.52344.46484-.11133.95703-.16699,1.47656-.16699.51025,0,.96289.03027,1.35693.0918s.75781.15625,1.09033.28418v2.04395c-.16406-.11426-.34277-.21484-.53662-.30078-.19385-.08691-.39307-.1582-.59814-.21582-.20508-.05664-.40918-.09863-.61182-.12598s-.39551-.04102-.57764-.04102c-.25049,0-.47852.02344-.68359.07129s-.37842.11523-.51953.20215c-.14111.08594-.25049.19043-.32812.31055-.07764.12109-.11621.25684-.11621.40723,0,.16406.04346.31055.12988.44043s.20947.25293.36914.36914.35303.23047.58105.3418c.22803.1123.48535.22656.77246.3457.39209.16406.74414.33789,1.05615.52246s.58008.39355.80322.62598.39404.49805.5127.7959c.11865.29883.17773.64648.17773,1.04297,0,.54688-.10352,1.00586-.31104,1.37695-.20752.37207-.48877.67285-.84424.90234-.35547.23047-.76904.39551-1.24072.49609-.47168.09961-.96973.15039-1.49365.15039-.5376,0-1.04932-.0459-1.53467-.13672-.48535-.0918-.90576-.22852-1.26123-.41016Z" fill="#2f2f2f"/>
        <path d="M431.26461,102.7305h-4.56641c.07275,1.01562.71338,1.52441,1.9209,1.52441.77002,0,1.44678-.18262,2.03027-.54688v1.55859c-.64697.3457-1.48779.51953-2.52246.51953-1.13037,0-2.00732-.31348-2.63184-.94043-.62451-.62598-.93652-1.5-.93652-2.62109,0-1.16211.3374-2.08301,1.01172-2.76172.67432-.67969,1.50391-1.01855,2.48828-1.01855,1.021,0,1.81055.30273,2.36865.90918.55811.60547.8374,1.42871.8374,2.46777v.90918ZM429.26168,101.40433c0-1.00293-.40576-1.50391-1.2168-1.50391-.34619,0-.646.14355-.89893.43066s-.40674.64453-.46143,1.07324h2.57715Z" fill="#2f2f2f"/>
        <path d="M437.93551,105.36233c-.48779.28223-1.19189.42383-2.1123.42383-1.07568,0-1.9458-.32617-2.61133-.97754-.66553-.65234-.99805-1.49316-.99805-2.52246,0-1.18945.35645-2.12695,1.06982-2.81348.71338-.68555,1.66699-1.02832,2.86084-1.02832.82471,0,1.42188.10938,1.79102.32812v1.83203c-.45117-.33789-.95459-.50586-1.51074-.50586-.61963,0-1.11084.18066-1.47314.54297s-.54346.8623-.54346,1.50098c0,.61914.17334,1.10645.51953,1.45898.34619.35352.82275.53027,1.42871.53027.5376,0,1.06396-.16895,1.5791-.50586v1.73633Z" fill="#2f2f2f"/>
        <path d="M442.66549,105.78616c-1.1665,0-2.08398-.32715-2.75146-.98145-.66748-.65332-1.00146-1.54102-1.00146-2.66211,0-1.1582.34619-2.06348,1.03906-2.71777.69287-.65332,1.62939-.98047,2.80957-.98047,1.16211,0,2.07373.32715,2.73438.98047.66064.6543.99121,1.51855.99121,2.59473,0,1.16211-.34082,2.08008-1.02197,2.75488-.68115.67383-1.61426,1.01172-2.79932,1.01172ZM442.72018,100.09866c-.51025,0-.90674.1748-1.18945.52637-.28271.35059-.42383.84766-.42383,1.49023,0,1.34375.54248,2.0166,1.62695,2.0166,1.03467,0,1.55176-.69043,1.55176-2.07129,0-1.30859-.52197-1.96191-1.56543-1.96191Z" fill="#2f2f2f"/>
        <path d="M454.6279,105.61526h-2.15332v-3.88965c0-1.08496-.38721-1.62695-1.16211-1.62695-.37354,0-.68115.14355-.92285.43066s-.3623.65137-.3623,1.09375v3.99219h-2.16016v-7h2.16016v1.10742h.02734c.51514-.85254,1.26465-1.27832,2.24902-1.27832,1.54932,0,2.32422.96094,2.32422,2.88477v4.28613Z" fill="#2f2f2f"/>
        <path d="M463.21041,105.61526h-2.16016v-.96387h-.02734c-.49219.75586-1.21436,1.13477-2.16699,1.13477-.875,0-1.5791-.30859-2.1123-.92676-.5332-.61719-.7998-1.47949-.7998-2.58691,0-1.1582.29395-2.08496.88184-2.78223s1.35791-1.0459,2.31055-1.0459c.90234,0,1.53125.32324,1.88672.9707h.02734v-4.16309h2.16016v10.36328ZM461.09127,102.21097v-.52637c0-.45605-.13232-.83398-.39648-1.13477s-.6084-.45117-1.03223-.45117c-.47852,0-.85205.1875-1.12109.56348s-.40332.89258-.40332,1.54883c0,.61523.12988,1.08887.38965,1.42188.25977.33203.61963.49902,1.08008.49902.4375,0,.79395-.17578,1.06982-.52637.27588-.35156.41357-.81641.41357-1.39453Z" fill="#2f2f2f"/>
        <path d="M470.85836,105.61526h-2.04395v-1.00488h-.02734c-.46924.7832-1.16455,1.17578-2.08496,1.17578-.6792,0-1.21338-.19238-1.60303-.57812-.38965-.38477-.58447-.89844-.58447-1.54102,0-1.3584.8042-2.14258,2.41309-2.35156l1.90039-.25293c0-.76562-.41455-1.14844-1.24414-1.14844-.83398,0-1.62695.24805-2.37891.74512v-1.62695c.30078-.15527.71191-.29199,1.23389-.41016.52197-.11914.99707-.17773,1.42529-.17773,1.99609,0,2.99414.99512,2.99414,2.9873v4.18359ZM468.82809,102.77151v-.47168l-1.27148.16406c-.70166.09082-1.05273.40723-1.05273.9502,0,.24609.08545.44727.25635.60449s.40234.23633.69385.23633c.40576,0,.73584-.14062.99121-.4209s.38281-.63477.38281-1.0625Z" fill="#2f2f2f"/>
        <path d="M477.12155,100.56351c-.25977-.1416-.56299-.21191-.90918-.21191-.46924,0-.83643.17188-1.10059.51562-.26416.34473-.39648.8125-.39648,1.40527v3.34277h-2.16016v-7h2.16016v1.29883h.02734c.3418-.94824.95703-1.42188,1.8457-1.42188.22803,0,.40576.02734.5332.08203v1.98926Z" fill="#2f2f2f"/>
        <path d="M485.24069,98.61526l-2.84375,7.56055c-.68359,1.81836-1.71338,2.72754-3.08984,2.72754-.52393,0-.95459-.05957-1.29199-.17773v-1.72266c.28711.16797.59912.25293.93652.25293.55615,0,.94336-.2627,1.16211-.78613l.36914-.86816-2.84375-6.98633h2.39258l1.30566,4.25879c.08203.26367.146.57617.19141.93652h.02734c.04102-.26465.11621-.57227.22559-.92285l1.31934-4.27246h2.13965Z" fill="#2f2f2f"/>
        <path d="M450.33541,116.54983c-.1958-.15039-.47852-.22559-.84766-.22559-.47852,0-.87842.22559-1.19971.67676s-.48193,1.06641-.48193,1.8457v3.56836h-1.12109v-7h1.12109v1.44238h.02734c.15967-.49219.40332-.87598.73145-1.15234.32812-.27539.69482-.41309,1.10059-.41309.2915,0,.51514.03125.66992.0957v1.16211Z" fill="#2f2f2f"/>
        <path d="M457.17819,119.19534h-4.94238c.01807.7793.22803,1.38086.62891,1.80469s.95264.63574,1.6543.63574c.78857,0,1.51318-.25977,2.17383-.7793v1.05273c-.61523.44629-1.42871.66992-2.44043.66992-.98877,0-1.76611-.31836-2.33105-.9541s-.84766-1.53027-.84766-2.68262c0-1.08984.30859-1.97656.92627-2.66309.61768-.68555,1.38428-1.02832,2.30029-1.02832s1.62451.2959,2.12598.88867c.50146.5918.75195,1.41504.75195,2.46777v.58789ZM456.02975,118.24515c-.00439-.64746-.16064-1.15137-.46826-1.51074-.30762-.36035-.73486-.54004-1.28174-.54004-.52881,0-.97754.18848-1.34668.56738-.36914.37793-.59717.87207-.68359,1.4834h3.78027Z" fill="#2f2f2f"/>
        <path d="M464.87887,121.85452c0,2.57031-1.23047,3.85547-3.69141,3.85547-.86572,0-1.62256-.16406-2.26953-.49219v-1.12109c.78857.4375,1.54053.65625,2.25586.65625,1.72266,0,2.58398-.91602,2.58398-2.74805v-.76562h-.02734c-.5332.89258-1.33545,1.33984-2.40625,1.33984-.87061,0-1.57129-.31152-2.10205-.93359s-.79639-1.45703-.79639-2.50488c0-1.18945.28613-2.13574.85791-2.83691.57178-.70215,1.35449-1.05273,2.34814-1.05273.94336,0,1.64307.37793,2.09863,1.13477h.02734v-.9707h1.12109v6.43945ZM463.75778,119.25003v-1.03223c0-.55664-.18799-1.03223-.56396-1.42871s-.84424-.59473-1.40479-.59473c-.69287,0-1.23486.25195-1.62695.75488-.39209.50391-.58789,1.20898-.58789,2.11621,0,.7793.18799,1.40234.56396,1.86914.37598.46777.87402.70117,1.49365.70117.62891,0,1.14062-.22363,1.53467-.66992.39404-.44727.59131-1.01855.59131-1.71582Z" fill="#2f2f2f"/>
        <path d="M467.56881,113.63773c-.20068,0-.37158-.06836-.5127-.20508s-.21191-.31055-.21191-.51953c0-.20996.0708-.38379.21191-.52344.14111-.13867.31201-.20801.5127-.20801.20508,0,.37939.06934.52295.20801.14355.13965.21533.31348.21533.52344,0,.2002-.07178.37109-.21533.5127-.14355.14062-.31787.21191-.52295.21191ZM468.11569,122.41507h-1.12109v-7h1.12109v7Z" fill="#2f2f2f"/>
        <path d="M473.20993,122.57913c-1.03467,0-1.86035-.32715-2.47803-.98145-.61768-.65332-.92627-1.52051-.92627-2.60059,0-1.17578.32129-2.09473.96387-2.75488.64258-.66113,1.51074-.99121,2.60449-.99121,1.04346,0,1.8584.32129,2.44385.96387s.87842,1.5332.87842,2.67285c0,1.11621-.31543,2.01074-.94678,2.68262-.63135.67285-1.47754,1.00879-2.53955,1.00879ZM473.29196,116.19437c-.72021,0-1.28955.24512-1.70898.73438-.41943.49023-.62891,1.16602-.62891,2.02734,0,.8291.21191,1.4834.63574,1.96191s.99121.71777,1.70215.71777c.72461,0,1.28174-.23535,1.67139-.7041.38965-.46973.58447-1.1377.58447-2.00293,0-.875-.19482-1.5498-.58447-2.02344-.38965-.47461-.94678-.71094-1.67139-.71094Z" fill="#2f2f2f"/>
        <path d="M484.22213,122.41507h-1.12109v-3.99219c0-1.48633-.54248-2.22852-1.62695-2.22852-.56055,0-1.02441.21094-1.39111.63184-.3667.42188-.55029.9541-.55029,1.59668v3.99219h-1.12109v-7h1.12109v1.16211h.02734c.52881-.88477,1.29443-1.32617,2.29688-1.32617.76562,0,1.35107.24707,1.75684.74121.40576.49512.6084,1.20898.6084,2.14355v4.2793Z" fill="#2f2f2f"/>
      </g>
    </g>
  </g>
</svg>