<?xml version="1.0" encoding="UTF-8"?>
<svg xmlns="http://www.w3.org/2000/svg" width="600.48874" height="269.3481" xmlns:xlink="http://www.w3.org/1999/xlink" viewBox="0 0 600.48874 269.3481">
  <defs>
    <linearGradient id="linear-gradient" x1="299.42667" y1="38.7568" x2="299.42667" y2="64.7568" gradientTransform="translate(-.00098 .00095)" gradientUnits="userSpaceOnUse">
      <stop offset="0" stop-color="#0078d4"/>
      <stop offset=".16" stop-color="#1380da"/>
      <stop offset=".53" stop-color="#3c91e5"/>
      <stop offset=".82" stop-color="#559cec"/>
      <stop offset="1" stop-color="#5ea0ef"/>
    </linearGradient>
    <linearGradient id="linear-gradient-2" x1="-452.80353" y1="605.2023" x2="-433.19647" y2="605.2023" gradientTransform="translate(564 815.01241) scale(1 -1)" gradientUnits="userSpaceOnUse">
      <stop offset="0" stop-color="#005ba1"/>
      <stop offset=".07" stop-color="#0060a9"/>
      <stop offset=".36" stop-color="#0071c8"/>
      <stop offset=".52" stop-color="#0078d4"/>
      <stop offset=".64" stop-color="#0074cd"/>
      <stop offset=".82" stop-color="#006abb"/>
      <stop offset="1" stop-color="#005ba1"/>
    </linearGradient>
    <linearGradient id="linear-gradient-3" x1="-97.18353" x2="-77.57647" xlink:href="#linear-gradient-2"/>
  </defs>
  <g isolation="isolate">
    <g id="Shapes">
      <rect width="600.48874" height="269.3481" fill="#fff"/>
      <g>
        <g mix-blend-mode="multiply">
          <rect x="370.1" y="135.67844" width="215.6" height="118.8" fill="#d9d9d6"/>
          <rect x="370.1" y="135.67844" width="215.6" height="118.8" fill="#d9d9d6" opacity=".85"/>
        </g>
        <g>
          <rect x="369.6" y="135.17844" width="215.6" height="118.8" fill="#fff"/>
          <rect x="369.6" y="135.17844" width="215.6" height="118.8" fill="#d9d9d6" opacity=".85"/>
        </g>
      </g>
      <g>
        <rect x="233.42569" y="193.20282" width="132" height="37.75105" fill="none"/>
        <path d="M264.83786,203.56626h-1.27148l-1.03906-2.74805h-4.15625l-.97754,2.74805h-1.27832l3.75977-9.80273h1.18945l3.77344,9.80273ZM262.15133,199.78599l-1.53809-4.17676c-.0498-.13672-.10059-.35547-.15039-.65625h-.02734c-.0459.27783-.09766.49658-.15723.65625l-1.52441,4.17676h3.39746Z" fill="#2f2f2f"/>
        <path d="M265.90524,203.31333v-1.20312c.61035.45117,1.2832.67676,2.0166.67676.98438,0,1.47656-.32812,1.47656-.98438,0-.18701-.04199-.34521-.12598-.4751-.08496-.12988-.19922-.24512-.3418-.34521-.14453-.1001-.3125-.19043-.50586-.27002-.19434-.07959-.40234-.16309-.62598-.24951-.30957-.12305-.58203-.24707-.81738-.37256-.23438-.12549-.42969-.2666-.58789-.42383-.15625-.15723-.27539-.33594-.35547-.53662-.0791-.20068-.11914-.43506-.11914-.7041,0-.32812.0752-.61865.22559-.87158s.35059-.46484.60156-.63574.53613-.2998.8584-.38623c.32031-.08643.65234-.12988.99414-.12988.60645,0,1.14844.10498,1.62695.31445v1.13477c-.51465-.3374-1.10742-.50586-1.77734-.50586-.20996,0-.39844.02393-.56738.07178s-.31348.11523-.43457.20166c-.12012.08643-.21387.19043-.2793.31104-.06641.12061-.09961.25391-.09961.3999,0,.18213.0332.33496.09961.45801.06543.12305.16211.23242.29004.32812s.28223.18213.46484.25977.38965.16162.62207.25293c.30957.11865.58789.24023.83398.36572s.45605.2666.62891.42383.30664.33838.40039.54346c.09277.20508.13965.44873.13965.73145,0,.34619-.07617.64697-.22949.90234-.15234.25537-.35645.46729-.61133.63574s-.54883.29395-.88184.37598-.68164.12305-1.0459.12305c-.71973,0-1.34473-.13916-1.87305-.41699Z" fill="#2f2f2f"/>
        <path d="M277.96774,196.56626l-3.21973,8.12109c-.57422,1.44922-1.38086,2.17383-2.41992,2.17383-.29199,0-.53516-.02979-.73145-.08887v-1.00488c.24121.08203.46289.12305.66309.12305.56543,0,.98926-.3374,1.27148-1.01172l.56055-1.32617-2.73438-6.98633h1.24414l1.89355,5.38672c.02246.06836.07031.24609.14355.5332h.04102c.02246-.10938.06836-.28271.13672-.51953l1.98926-5.40039h1.16211Z" fill="#2f2f2f"/>
        <path d="M285.02047,203.56626h-1.12109v-3.99219c0-1.48584-.54199-2.22852-1.62695-2.22852-.56055,0-1.02441.21094-1.39062.63232-.36719.42139-.55078.95361-.55078,1.59619v3.99219h-1.12109v-7h1.12109v1.16211h.02734c.52832-.88428,1.29395-1.32617,2.29688-1.32617.76562,0,1.35156.24707,1.75684.7417s.6084,1.20898.6084,2.14307v4.2793Z" fill="#2f2f2f"/>
        <path d="M291.86911,203.24497c-.53809.32373-1.17578.48535-1.91406.48535-.99805,0-1.80371-.32471-2.41602-.97412-.61328-.64941-.91992-1.49121-.91992-2.52588,0-1.15283.33008-2.0791.99121-2.77881s1.54297-1.04932,2.64551-1.04932c.61523,0,1.15723.11377,1.62695.3418v1.14844c-.51953-.36475-1.0752-.54688-1.66797-.54688-.71582,0-1.30273.25635-1.75977.76904-.45898.5127-.6875,1.18604-.6875,2.02002,0,.82031.21484,1.46729.64648,1.94141.42969.47412,1.00781.71094,1.73242.71094.61035,0,1.18457-.20264,1.72266-.6084v1.06641Z" fill="#2f2f2f"/>
        <path d="M299.16793,203.56626h-1.12109v-4.0332c0-1.4585-.54199-2.1875-1.62695-2.1875-.54688,0-1.00684.21094-1.38086.63232s-.56055.96289-.56055,1.62354v3.96484h-1.12109v-10.36328h1.12109v4.52539h.02734c.53809-.88428,1.30371-1.32617,2.29688-1.32617,1.57715,0,2.36523.9502,2.36523,2.85059v4.31348Z" fill="#2f2f2f"/>
        <path d="M304.84079,197.70103c-.19629-.15039-.47852-.22559-.84766-.22559-.47852,0-.87891.22559-1.19922.67676-.32227.45117-.48242,1.06641-.48242,1.8457v3.56836h-1.12109v-7h1.12109v1.44238h.02734c.15918-.49219.40332-.87598.73145-1.15186s.69531-.41357,1.10059-.41357c.29199,0,.51465.03174.66992.0957v1.16211Z" fill="#2f2f2f"/>
        <path d="M308.98336,203.73032c-1.03418,0-1.86035-.32715-2.47852-.98096-.61719-.65381-.92578-1.521-.92578-2.60107,0-1.17578.32129-2.09424.96387-2.75488s1.51074-.99121,2.60449-.99121c1.04395,0,1.8584.32129,2.44336.96387.58594.64258.87891,1.53369.87891,2.67285,0,1.1167-.31543,2.01074-.94727,2.68311-.63086.67236-1.47754,1.0083-2.53906,1.0083ZM309.0654,197.34556c-.71973,0-1.29004.24512-1.70898.73486s-.62891,1.16553-.62891,2.02686c0,.82959.21191,1.4834.63574,1.96191s.99121.71777,1.70215.71777c.72461,0,1.28125-.23486,1.67188-.7041.38867-.46924.58398-1.13721.58398-2.00293,0-.875-.19531-1.54932-.58398-2.02344-.39062-.47412-.94727-.71094-1.67188-.71094Z" fill="#2f2f2f"/>
        <path d="M319.99606,203.56626h-1.12109v-3.99219c0-1.48584-.54199-2.22852-1.62695-2.22852-.56055,0-1.02441.21094-1.39062.63232-.36719.42139-.55078.95361-.55078,1.59619v3.99219h-1.12109v-7h1.12109v1.16211h.02734c.52832-.88428,1.29395-1.32617,2.29688-1.32617.76562,0,1.35156.24707,1.75684.7417s.6084,1.20898.6084,2.14307v4.2793Z" fill="#2f2f2f"/>
        <path d="M324.99899,203.73032c-1.03418,0-1.86035-.32715-2.47852-.98096-.61719-.65381-.92578-1.521-.92578-2.60107,0-1.17578.32129-2.09424.96387-2.75488s1.51074-.99121,2.60449-.99121c1.04395,0,1.8584.32129,2.44336.96387.58594.64258.87891,1.53369.87891,2.67285,0,1.1167-.31543,2.01074-.94727,2.68311-.63086.67236-1.47754,1.0083-2.53906,1.0083ZM325.08102,197.34556c-.71973,0-1.29004.24512-1.70898.73486s-.62891,1.16553-.62891,2.02686c0,.82959.21191,1.4834.63574,1.96191s.99121.71777,1.70215.71777c.72461,0,1.28125-.23486,1.67188-.7041.38867-.46924.58398-1.13721.58398-2.00293,0-.875-.19531-1.54932-.58398-2.02344-.39062-.47412-.94727-.71094-1.67188-.71094Z" fill="#2f2f2f"/>
        <path d="M335.8945,203.56626h-1.12109v-1.10742h-.02734c-.46484.84766-1.18457,1.27148-2.16016,1.27148-1.66797,0-2.50195-.99365-2.50195-2.98047v-4.18359h1.11426v4.00586c0,1.47656.56543,2.21484,1.69531,2.21484.54688,0,.99707-.20166,1.35059-.60498.35254-.40332.5293-.93066.5293-1.58252v-4.0332h1.12109v7Z" fill="#2f2f2f"/>
        <path d="M337.65622,203.31333v-1.20312c.61035.45117,1.2832.67676,2.0166.67676.98438,0,1.47656-.32812,1.47656-.98438,0-.18701-.04199-.34521-.12598-.4751-.08496-.12988-.19922-.24512-.3418-.34521-.14453-.1001-.3125-.19043-.50586-.27002-.19434-.07959-.40234-.16309-.62598-.24951-.30957-.12305-.58203-.24707-.81738-.37256-.23438-.12549-.42969-.2666-.58789-.42383-.15625-.15723-.27539-.33594-.35547-.53662-.0791-.20068-.11914-.43506-.11914-.7041,0-.32812.0752-.61865.22559-.87158s.35059-.46484.60156-.63574.53613-.2998.8584-.38623c.32031-.08643.65234-.12988.99414-.12988.60645,0,1.14844.10498,1.62695.31445v1.13477c-.51465-.3374-1.10742-.50586-1.77734-.50586-.20996,0-.39844.02393-.56738.07178s-.31348.11523-.43457.20166c-.12012.08643-.21387.19043-.2793.31104-.06641.12061-.09961.25391-.09961.3999,0,.18213.0332.33496.09961.45801.06543.12305.16211.23242.29004.32812s.28223.18213.46484.25977.38965.16162.62207.25293c.30957.11865.58789.24023.83398.36572s.45605.2666.62891.42383.30664.33838.40039.54346c.09277.20508.13965.44873.13965.73145,0,.34619-.07617.64697-.22949.90234-.15234.25537-.35645.46729-.61133.63574s-.54883.29395-.88184.37598-.68164.12305-1.0459.12305c-.71973,0-1.34473-.13916-1.87305-.41699Z" fill="#2f2f2f"/>
        <path d="M272.04293,214.50083c-.19629-.15039-.47852-.22559-.84766-.22559-.47852,0-.87891.22559-1.19922.67676-.32227.45117-.48242,1.06641-.48242,1.8457v3.56836h-1.12109v-7h1.12109v1.44238h.02734c.15918-.49219.40332-.87598.73145-1.15186s.69531-.41357,1.10059-.41357c.29199,0,.51465.03174.66992.0957v1.16211Z" fill="#2f2f2f"/>
        <path d="M278.88571,217.14634h-4.94238c.01855.7793.22754,1.38086.62891,1.80469s.95215.63574,1.6543.63574c.78809,0,1.5127-.25977,2.17383-.7793v1.05273c-.61523.44678-1.42871.66992-2.44043.66992-.98926,0-1.76562-.31787-2.33105-.95361s-.84766-1.53027-.84766-2.68311c0-1.08936.30859-1.97656.92578-2.6626.61816-.68604,1.38477-1.02881,2.30078-1.02881s1.625.29639,2.12598.88867.75195,1.41504.75195,2.46777v.58789ZM277.73727,216.19614c-.00488-.64697-.16113-1.15088-.46777-1.51074-.30859-.35986-.73535-.54004-1.28223-.54004-.52832,0-.97754.18896-1.34668.56738s-.59668.87256-.68359,1.4834h3.78027Z" fill="#2f2f2f"/>
        <path d="M281.71676,219.35435h-.02734v4.23145h-1.12109v-10.21973h1.12109v1.23047h.02734c.55176-.92969,1.3584-1.39453,2.41992-1.39453.90234,0,1.60645.31348,2.1123.93994s.75879,1.46631.75879,2.51904c0,1.17139-.28516,2.10889-.85449,2.81299s-1.34863,1.05615-2.33789,1.05615c-.90723,0-1.60645-.39209-2.09863-1.17578ZM281.68942,216.53111v.97754c0,.57861.1875,1.06982.56445,1.47314.375.40332.85254.60498,1.43164.60498.67871,0,1.21094-.25977,1.5957-.7793.38574-.51953.57812-1.2417.57812-2.16699,0-.7793-.17969-1.39014-.54004-1.83203s-.84766-.66309-1.46289-.66309c-.65137,0-1.17578.22656-1.57227.68018s-.59473,1.02197-.59473,1.70557Z" fill="#2f2f2f"/>
        <path d="M289.85836,220.36607h-1.12109v-10.36328h1.12109v10.36328Z" fill="#2f2f2f"/>
        <path d="M292.54489,211.58872c-.2002,0-.37109-.06836-.5127-.20508s-.21191-.31006-.21191-.51953.07031-.38379.21191-.52295.3125-.2085.5127-.2085c.20508,0,.37891.06934.52344.2085.14258.13916.21484.31348.21484.52295,0,.20068-.07227.37158-.21484.5127-.14453.14111-.31836.21191-.52344.21191ZM293.09176,220.36607h-1.12109v-7h1.12109v7Z" fill="#2f2f2f"/>
        <path d="M300.00485,220.04478c-.53809.32373-1.17578.48535-1.91406.48535-.99805,0-1.80371-.32471-2.41602-.97412-.61328-.64941-.91992-1.49121-.91992-2.52588,0-1.15283.33008-2.0791.99121-2.77881s1.54297-1.04932,2.64551-1.04932c.61523,0,1.15723.11377,1.62695.3418v1.14844c-.51953-.36475-1.0752-.54688-1.66797-.54688-.71582,0-1.30273.25635-1.75977.76904-.45898.5127-.6875,1.18604-.6875,2.02002,0,.82031.21484,1.46729.64648,1.94141.42969.47412,1.00781.71094,1.73242.71094.61035,0,1.18457-.20264,1.72266-.6084v1.06641Z" fill="#2f2f2f"/>
        <path d="M306.74801,220.36607h-1.12109v-1.09375h-.02734c-.4873.83838-1.20508,1.25781-2.15332,1.25781-.69727,0-1.24316-.18457-1.63672-.55371-.39453-.36914-.5918-.85889-.5918-1.46973,0-1.30811.77051-2.06885,2.31055-2.2832l2.09863-.29395c0-1.18945-.48047-1.78418-1.44238-1.78418-.84277,0-1.60449.28711-2.2832.86133v-1.14844c.68848-.4375,1.48145-.65625,2.37891-.65625,1.64551,0,2.46777.87061,2.46777,2.61133v4.55273ZM305.62692,216.82505l-1.68848.23242c-.51953.07275-.91113.20166-1.17578.38623s-.39648.51172-.39648.98096c0,.3418.12207.62109.36523.8374.24414.21631.56934.32471.97461.32471.55566,0,1.01562-.19482,1.37695-.58447.36328-.38965.54395-.88281.54395-1.47998v-.69727Z" fill="#2f2f2f"/>
        <path d="M312.0068,220.29771c-.26465.146-.61328.21875-1.0459.21875-1.22559,0-1.83887-.68359-1.83887-2.05078v-4.14258h-1.20312v-.95703h1.20312v-1.70898l1.12109-.3623v2.07129h1.76367v.95703h-1.76367v3.94434c0,.46924.08008.8042.23926,1.00488s.42383.30078.79297.30078c.28223,0,.52637-.07764.73145-.23242v.95703Z" fill="#2f2f2f"/>
        <path d="M313.96188,211.58872c-.2002,0-.37109-.06836-.5127-.20508s-.21191-.31006-.21191-.51953.07031-.38379.21191-.52295.3125-.2085.5127-.2085c.20508,0,.37891.06934.52344.2085.14258.13916.21484.31348.21484.52295,0,.20068-.07227.37158-.21484.5127-.14453.14111-.31836.21191-.52344.21191ZM314.50875,220.36607h-1.12109v-7h1.12109v7Z" fill="#2f2f2f"/>
        <path d="M319.60348,220.53013c-1.03418,0-1.86035-.32715-2.47852-.98096-.61719-.65381-.92578-1.521-.92578-2.60107,0-1.17578.32129-2.09424.96387-2.75488s1.51074-.99121,2.60449-.99121c1.04395,0,1.8584.32129,2.44336.96387.58594.64258.87891,1.53369.87891,2.67285,0,1.1167-.31543,2.01074-.94727,2.68311-.63086.67236-1.47754,1.0083-2.53906,1.0083ZM319.68551,214.14536c-.71973,0-1.29004.24512-1.70898.73486s-.62891,1.16553-.62891,2.02686c0,.82959.21191,1.4834.63574,1.96191s.99121.71777,1.70215.71777c.72461,0,1.28125-.23486,1.67188-.7041.38867-.46924.58398-1.13721.58398-2.00293,0-.875-.19531-1.54932-.58398-2.02344-.39062-.47412-.94727-.71094-1.67188-.71094Z" fill="#2f2f2f"/>
        <path d="M330.6152,220.36607h-1.12109v-3.99219c0-1.48584-.54199-2.22852-1.62695-2.22852-.56055,0-1.02441.21094-1.39062.63232-.36719.42139-.55078.95361-.55078,1.59619v3.99219h-1.12109v-7h1.12109v1.16211h.02734c.52832-.88428,1.29395-1.32617,2.29688-1.32617.76562,0,1.35156.24707,1.75684.7417s.6084,1.20898.6084,2.14307v4.2793Z" fill="#2f2f2f"/>
      </g>
      <path d="M295.52569,56.95775h7.8s0,7.8,0,7.8h-7.8s0-7.8,0-7.8ZM286.42569,46.55775h7.8v-7.8h-6.71125c-.6013,0-1.08875.48745-1.08875,1.08875v6.71125ZM287.51444,64.75775h6.71125v-7.8h-7.8v6.71125c0,.6013.48745,1.08875,1.08875,1.08875h0ZM286.42569,55.65775h7.8v-7.8h-7.8v7.8ZM304.62569,64.75775h6.71125c.6013,0,1.08875-.48745,1.08875-1.08875h0v-6.71125h-7.8v7.8ZM295.52569,55.65775h7.8v-7.8h-7.8v7.8ZM304.62569,55.65775h7.8v-7.8h-7.8v7.8ZM304.62569,38.75775v7.8h7.8v-6.71125c0-.6013-.48745-1.08875-1.08875-1.08875h-6.71125ZM295.52569,46.55775h7.8v-7.8h-7.8v7.8Z" fill="url(#linear-gradient)"/>
      <g>
        <rect x="383.0334" y="152.77844" width="188.9666" height="88" fill="#fff"/>
        <rect x="383.0334" y="152.77844" width="188.9666" height="88" fill="#0078d4" opacity=".03"/>
        <rect x="383.0334" y="152.77844" width="188.9666" height="88" fill="none" opacity=".6" stroke="#0078d4" stroke-width=".25"/>
      </g>
      <g>
        <g mix-blend-mode="multiply">
          <rect x="13.7" y="135.67844" width="215.6" height="118.8" fill="#d9d9d6"/>
          <rect x="13.7" y="135.67844" width="215.6" height="118.8" fill="#d9d9d6" opacity=".85"/>
        </g>
        <g>
          <rect x="13.2" y="135.17844" width="215.6" height="118.8" fill="#fff"/>
          <rect x="13.2" y="135.17844" width="215.6" height="118.8" fill="#d9d9d6" opacity=".85"/>
        </g>
      </g>
      <g>
        <rect x="26.6334" y="152.77844" width="188.9666" height="88" fill="#fff"/>
        <rect x="26.6334" y="152.77844" width="188.9666" height="88" fill="#0078d4" opacity=".03"/>
        <rect x="26.6334" y="152.77844" width="188.9666" height="88" fill="none" opacity=".6" stroke="#0078d4" stroke-width=".25"/>
      </g>
      <g>
        <line x1="215.60001" y1="182.94137" x2="221.60001" y2="182.94137" fill="none" stroke="#3c3c41" stroke-miterlimit="10"/>
        <line x1="225.64915" y1="182.94137" x2="369.39327" y2="182.94137" fill="none" stroke="#3c3c41" stroke-dasharray="12.14739 4.04913" stroke-miterlimit="10"/>
        <line x1="371.41783" y1="182.94137" x2="377.41783" y2="182.94137" fill="none" stroke="#3c3c41" stroke-miterlimit="10"/>
        <polygon points="376.32359 186.68111 382.8 182.94137 376.32359 179.20162 376.32359 186.68111" fill="#3c3c41"/>
      </g>
      <g>
        <path d="M121,202.13246c-5.41412,0-9.80353-1.52941-9.80353-3.54824v18.90353c0,1.94235,4.31294,3.51765,9.66588,3.54823h.13765c5.41412,0,9.80353-1.52941,9.80353-3.54823v-18.90353c0,1.97294-4.38941,3.54824-9.80353,3.54824Z" fill="url(#linear-gradient-2)"/>
        <path d="M130.80353,198.58423c0,1.97294-4.38941,3.54824-9.80353,3.54824s-9.80353-1.52941-9.80353-3.54824,4.38941-3.54824,9.80353-3.54824,9.80353,1.52941,9.80353,3.54824" fill="#e8e8e8"/>
        <path d="M128.52471,198.29364c0,1.25412-3.38,2.26353-7.52471,2.26353s-7.52471-1.00941-7.52471-2.26353,3.38-2.24824,7.52471-2.24824,7.52471,1.00941,7.52471,2.24824" fill="#50e6ff"/>
        <path d="M121,198.85952c-2.01838-.05155-4.03067.24331-5.94941.87176,1.92057.61678,3.93346.89621,5.94941.82588,2.02003.05917,4.0345-.24118,5.94941-.88706-1.92421-.59939-3.93499-.87335-5.94941-.81059Z" fill="#198ab3"/>
        <path d="M126.56706,208.03599v2.49294h-1.52941c-.17178-.00415-.33343-.08219-.44353-.21412v-2.27882h-2.06471v2.72235c.02237.77678.6702,1.38834,1.44698,1.36597.02752-.00079.05501-.00239.08243-.0048h2.27882l.39765-.19882s-.16823.62706-.39765.65765h-3.64v1.52941h4.06824c1.02189.01816,1.86502-.79553,1.88318-1.81742.00074-.04166.00007-.08333-.002-.12494v-4.12941h-2.08Z" fill="#f2f2f2"/>
        <path d="M121.81059,208.03599h0v-.74941c.07728-.51948-.23368-1.0183-.73412-1.17765-.24757-.07785-.5052-.11907-.76471-.12235-.60435-.02657-1.16067.32801-1.39176.88706l-1.19294,2.90588-1.52941-2.90588c-.2175-.53544-.73736-.88605-1.3153-.88706-.26618-.00163-.53046.045-.78.13765-.53529.16824-.65765.52-.65765,1.11647v5.06235h1.78941v-3.41059l.96353,2.40118c.25931.61434.86259,1.0125,1.52941,1.00941.67294,0,.94824-.39765,1.22353-1.00941l1.02471-2.30941v3.28824h1.80471v-4.23647h.03059Z" fill="#f2f2f2"/>
      </g>
      <g>
        <path d="M476.62,202.13246c-5.41412,0-9.80353-1.52941-9.80353-3.54824v18.90353c0,1.94235,4.31294,3.51765,9.66588,3.54823h.13765c5.41412,0,9.80353-1.52941,9.80353-3.54823v-18.90353c0,1.97294-4.38941,3.54824-9.80353,3.54824Z" fill="url(#linear-gradient-3)"/>
        <path d="M486.42353,198.58423c0,1.97294-4.38941,3.54824-9.80353,3.54824s-9.80353-1.52941-9.80353-3.54824,4.38941-3.54824,9.80353-3.54824,9.80353,1.52941,9.80353,3.54824" fill="#e8e8e8"/>
        <path d="M484.14471,198.29364c0,1.25412-3.38,2.26353-7.52471,2.26353s-7.52471-1.00941-7.52471-2.26353,3.38-2.24824,7.52471-2.24824,7.52471,1.00941,7.52471,2.24824" fill="#50e6ff"/>
        <path d="M476.62,198.85952c-2.01838-.05155-4.03067.24331-5.94941.87176,1.92057.61678,3.93346.89621,5.94941.82588,2.02003.05917,4.0345-.24118,5.94941-.88706-1.92421-.59939-3.93499-.87335-5.94941-.81059Z" fill="#198ab3"/>
        <path d="M482.18706,208.03599v2.49294h-1.52941c-.17178-.00415-.33343-.08219-.44353-.21412v-2.27882h-2.06471v2.72235c.02237.77678.6702,1.38834,1.44698,1.36597.02752-.00079.05501-.00239.08243-.0048h2.27882l.39765-.19882s-.16823.62706-.39765.65765h-3.64v1.52941h4.06824c1.02189.01816,1.86502-.79553,1.88318-1.81742.00074-.04166.00007-.08333-.002-.12494v-4.12941h-2.08Z" fill="#f2f2f2"/>
        <path d="M477.43059,208.03599h0v-.74941c.07728-.51948-.23368-1.0183-.73412-1.17765-.24757-.07785-.5052-.11907-.76471-.12235-.60435-.02657-1.16067.32801-1.39176.88706l-1.19294,2.90588-1.52941-2.90588c-.2175-.53544-.73736-.88605-1.3153-.88706-.26618-.00163-.53046.045-.78.13765-.53529.16824-.65765.52-.65765,1.11647v5.06235h1.78941v-3.41059l.96353,2.40118c.25931.61434.86259,1.0125,1.52941,1.00941.67294,0,.94824-.39765,1.22353-1.00941l1.02471-2.30941v3.28824h1.80471v-4.23647h.03059Z" fill="#f2f2f2"/>
      </g>
      <g>
        <path d="M298.21088,70.20296v20.62854c0,2.75-2.2327,5.27856-4.96155,5.6189l-167.40448,20.88135c-2.72885.34033-4.96155,2.8689-4.96155,5.6189v24.44568" fill="none" stroke="#3c3c41" stroke-miterlimit="10"/>
        <polygon points="117.14356 146.30196 120.88331 152.7784 124.62305 146.30196 117.14356 146.30196" fill="#3c3c41"/>
      </g>
    </g>
    <g id="Text">
      <g>
        <rect x="26.4" y="169.35388" width="189.2" height="18.05239" fill="none"/>
        <path d="M76.21969,177.87827v3.37695h-2.20801v-9.80273h3.45898c2.47021,0,3.70508,1.0415,3.70508,3.12402,0,.98438-.35449,1.78076-1.06299,2.38916s-1.65527.9126-2.84033.9126h-1.05273ZM76.21969,173.14781v3.05566h.86816c1.17578,0,1.76367-.51514,1.76367-1.54492,0-1.00732-.58789-1.51074-1.76367-1.51074h-.86816Z" fill="#2f2f2f"/>
        <path d="M86.84518,176.20347c-.25977-.14111-.56299-.21191-.90918-.21191-.46924,0-.83643.17188-1.10059.51611s-.39648.8125-.39648,1.40479v3.34277h-2.16016v-7h2.16016v1.29883h.02734c.3418-.94775.95703-1.42188,1.8457-1.42188.22803,0,.40576.02734.5332.08203v1.98926Z" fill="#2f2f2f"/>
        <path d="M88.93161,173.14781c-.36475,0-.66309-.1084-.89551-.32471s-.34863-.48193-.34863-.79639c0-.32373.11621-.58789.34863-.79297s.53076-.30762.89551-.30762c.36914,0,.66895.10254.89893.30762s.34521.46924.34521.79297c0,.32812-.11523.59717-.34521.80664s-.52979.31445-.89893.31445ZM89.99801,181.25523h-2.16016v-7h2.16016v7Z" fill="#2f2f2f"/>
        <path d="M102.89499,181.25523h-2.15332v-3.99219c0-1.01611-.37354-1.52441-1.12109-1.52441-.35547,0-.64502.15283-.86816.45801s-.33496.68604-.33496,1.1416v3.91699h-2.16016v-4.0332c0-.98877-.3667-1.4834-1.10059-1.4834-.36914,0-.66406.146-.88525.4375s-.33154.68799-.33154,1.18945v3.88965h-2.16016v-7h2.16016v1.09375h.02734c.22314-.37354.53662-.67773.93994-.9126s.84424-.35205,1.32275-.35205c.98877,0,1.66553.43506,2.03027,1.30566.5332-.87061,1.31689-1.30566,2.35156-1.30566,1.52197,0,2.2832.93896,2.2832,2.81641v4.35449Z" fill="#2f2f2f"/>
        <path d="M110.46041,181.25523h-2.04395v-1.00488h-.02734c-.46924.78369-1.16455,1.17578-2.08496,1.17578-.6792,0-1.21338-.19238-1.60303-.57764s-.58447-.89893-.58447-1.5415c0-1.35791.8042-2.14209,2.41309-2.35156l1.90039-.25293c0-.76562-.41455-1.14844-1.24414-1.14844-.83398,0-1.62695.24854-2.37891.74512v-1.62695c.30078-.15479.71191-.2915,1.23389-.41016s.99707-.17773,1.42529-.17773c1.99609,0,2.99414.99561,2.99414,2.9873v4.18359ZM108.43014,178.41148v-.47168l-1.27148.16406c-.70166.09131-1.05273.40771-1.05273.9502,0,.24609.08545.44775.25635.60498s.40234.23584.69385.23584c.40576,0,.73584-.14014.99121-.42041s.38281-.63477.38281-1.06299Z" fill="#2f2f2f"/>
        <path d="M116.72311,176.20347c-.25977-.14111-.56299-.21191-.90918-.21191-.46924,0-.83643.17188-1.10059.51611s-.39648.8125-.39648,1.40479v3.34277h-2.16016v-7h2.16016v1.29883h.02734c.3418-.94775.95703-1.42188,1.8457-1.42188.22803,0,.40576.02734.5332.08203v1.98926Z" fill="#2f2f2f"/>
        <path d="M124.84274,174.25523l-2.84375,7.56055c-.68359,1.81836-1.71338,2.72754-3.08984,2.72754-.52393,0-.95459-.05908-1.29199-.17773v-1.72266c.28711.16846.59912.25293.93652.25293.55615,0,.94336-.26221,1.16211-.78613l.36914-.86816-2.84375-6.98633h2.39258l1.30566,4.25879c.08203.26416.146.57666.19141.93652h.02734c.04102-.26416.11621-.57178.22559-.92285l1.31934-4.27246h2.13965Z" fill="#2f2f2f"/>
        <path d="M129.1152,181.07066v-1.75c.35547.21436.70996.37354,1.06299.47852s.68701.15723,1.00146.15723c.38281,0,.68457-.05225.90576-.15723s.33154-.26416.33154-.47852c0-.13672-.05029-.25049-.15039-.3418s-.229-.1709-.38623-.23926-.3291-.12988-.51611-.18457-.3667-.11621-.54004-.18457c-.27783-.10498-.52295-.21777-.73486-.33838s-.38965-.26074-.5332-.42041-.25293-.34424-.32812-.55371-.11279-.45801-.11279-.74512c0-.39209.08545-.729.25635-1.01172s.39893-.51367.68359-.69385.61084-.31201.97754-.39648.74854-.12646,1.14502-.12646c.31006,0,.62451.02393.94336.07178s.6333.11719.94336.2085v1.66797c-.27344-.15967-.56641-.2793-.87842-.35889s-.61865-.11963-.91943-.11963c-.14111,0-.27441.0127-.3999.0376s-.23584.06152-.33154.10938-.1709.10938-.22559.18457-.08203.16064-.08203.25635c0,.12744.04102.23682.12305.32812s.18896.16992.32129.23584.2793.12549.44092.17773.32227.10596.48193.16064c.28711.1001.54688.20947.7793.32812s.43164.25732.59814.41699.29395.34619.38281.56055.1333.46924.1333.76562c0,.41455-.08984.76904-.27002,1.06299s-.41943.5332-.71777.71777-.64258.31885-1.03223.40332-.79395.12646-1.21338.12646c-.77002,0-1.4834-.11865-2.13965-.35547Z" fill="#2f2f2f"/>
        <path d="M142.06442,178.37046h-4.56641c.07275,1.01611.71338,1.52441,1.9209,1.52441.77002,0,1.44678-.18213,2.03027-.54688v1.55859c-.64697.34619-1.48779.51953-2.52246.51953-1.13037,0-2.00732-.31348-2.63184-.93994s-.93652-1.50049-.93652-2.62158c0-1.16211.3374-2.08252,1.01172-2.76172s1.50391-1.01855,2.48828-1.01855c1.021,0,1.81055.30322,2.36865.90918s.8374,1.42871.8374,2.46777v.90918ZM140.06149,177.04429c0-1.00244-.40576-1.50391-1.2168-1.50391-.34619,0-.646.14355-.89893.43066s-.40674.64502-.46143,1.07324h2.57715Z" fill="#2f2f2f"/>
        <path d="M147.99606,176.20347c-.25977-.14111-.56299-.21191-.90918-.21191-.46924,0-.83643.17188-1.10059.51611s-.39648.8125-.39648,1.40479v3.34277h-2.16016v-7h2.16016v1.29883h.02734c.3418-.94775.95703-1.42188,1.8457-1.42188.22803,0,.40576.02734.5332.08203v1.98926Z" fill="#2f2f2f"/>
        <path d="M156.0942,174.25523l-2.60449,7h-2.46094l-2.48145-7h2.31055l1.2168,4.31348c.13672.48779.21631.90234.23926,1.24414h.02734c.03174-.32373.11621-.72461.25293-1.20312l1.24414-4.35449h2.25586Z" fill="#2f2f2f"/>
        <path d="M163.08249,178.37046h-4.56641c.07275,1.01611.71338,1.52441,1.9209,1.52441.77002,0,1.44678-.18213,2.03027-.54688v1.55859c-.64697.34619-1.48779.51953-2.52246.51953-1.13037,0-2.00732-.31348-2.63184-.93994s-.93652-1.50049-.93652-2.62158c0-1.16211.3374-2.08252,1.01172-2.76172s1.50391-1.01855,2.48828-1.01855c1.021,0,1.81055.30322,2.36865.90918s.8374,1.42871.8374,2.46777v.90918ZM161.07956,177.04429c0-1.00244-.40576-1.50391-1.2168-1.50391-.34619,0-.646.14355-.89893.43066s-.40674.64502-.46143,1.07324h2.57715Z" fill="#2f2f2f"/>
        <path d="M169.01364,176.20347c-.25977-.14111-.56299-.21191-.90918-.21191-.46924,0-.83643.17188-1.10059.51611s-.39648.8125-.39648,1.40479v3.34277h-2.16016v-7h2.16016v1.29883h.02734c.3418-.94775.95703-1.42188,1.8457-1.42188.22803,0,.40576.02734.5332.08203v1.98926Z" fill="#2f2f2f"/>
      </g>
      <g>
        <rect x="215.82569" y="14.93335" width="167.2" height="20.19225" fill="none"/>
        <path d="M271.26559,26.83579h-2.40625l-.69727-2.18066h-3.48633l-.69043,2.18066h-2.39258l3.56836-9.80273h2.61816l3.48633,9.80273ZM267.65622,22.95982l-1.05273-3.29492c-.07764-.24609-.13232-.54004-.16406-.88184h-.05469c-.02295.28711-.07959.57178-.1709.85449l-1.06641,3.32227h2.50879Z" fill="#2f2f2f"/>
        <path d="M274.44918,26.02232h-.02734v4.0332h-2.16016v-10.21973h2.16016v1.05273h.02734c.5332-.81592,1.28271-1.22363,2.24902-1.22363.90674,0,1.60742.31104,2.10205.93311s.7417,1.46875.7417,2.53955c0,1.1665-.28809,2.10303-.86475,2.80957s-1.34326,1.05957-2.30029,1.05957c-.84326,0-1.48584-.32812-1.92773-.98438ZM274.38766,23.15122v.56055c0,.48291.12744.87744.38281,1.18262s.59033.45801,1.00488.45801c.49219,0,.87402-.19043,1.14502-.5708s.40674-.91943.40674-1.6167c0-1.23047-.47852-1.8457-1.43555-1.8457-.44189,0-.80322.16748-1.0835.50244s-.42041.77832-.42041,1.32959Z" fill="#2f2f2f"/>
        <path d="M283.14645,26.02232h-.02734v4.0332h-2.16016v-10.21973h2.16016v1.05273h.02734c.5332-.81592,1.28271-1.22363,2.24902-1.22363.90674,0,1.60742.31104,2.10205.93311s.7417,1.46875.7417,2.53955c0,1.1665-.28809,2.10303-.86475,2.80957s-1.34326,1.05957-2.30029,1.05957c-.84326,0-1.48584-.32812-1.92773-.98438ZM283.08493,23.15122v.56055c0,.48291.12744.87744.38281,1.18262s.59033.45801,1.00488.45801c.49219,0,.87402-.19043,1.14502-.5708s.40674-.91943.40674-1.6167c0-1.23047-.47852-1.8457-1.43555-1.8457-.44189,0-.80322.16748-1.0835.50244s-.42041.77832-.42041,1.32959Z" fill="#2f2f2f"/>
        <path d="M291.82858,26.83579h-2.16016v-10.36328h2.16016v10.36328Z" fill="#2f2f2f"/>
        <path d="M294.69723,18.72837c-.36475,0-.66309-.1084-.89551-.32471s-.34863-.48193-.34863-.79639c0-.32373.11621-.58789.34863-.79297s.53076-.30762.89551-.30762c.36914,0,.66895.10254.89893.30762s.34521.46924.34521.79297c0,.32812-.11523.59717-.34521.80664s-.52979.31445-.89893.31445ZM295.76364,26.83579h-2.16016v-7h2.16016v7Z" fill="#2f2f2f"/>
        <path d="M302.84372,26.58286c-.48779.28271-1.19189.42383-2.1123.42383-1.07568,0-1.9458-.32568-2.61133-.97754s-.99805-1.49268-.99805-2.52246c0-1.18945.35645-2.12695,1.06982-2.81299s1.66699-1.02881,2.86084-1.02881c.82471,0,1.42188.10938,1.79102.32812v1.83203c-.45117-.3374-.95459-.50586-1.51074-.50586-.61963,0-1.11084.18115-1.47314.54346s-.54346.8623-.54346,1.50049c0,.61963.17334,1.10645.51953,1.45947s.82275.52979,1.42871.52979c.5376,0,1.06396-.16846,1.5791-.50586v1.73633Z" fill="#2f2f2f"/>
        <path d="M310.17916,26.83579h-2.04395v-1.00488h-.02734c-.46924.78369-1.16455,1.17578-2.08496,1.17578-.6792,0-1.21338-.19238-1.60303-.57764s-.58447-.89893-.58447-1.5415c0-1.35791.8042-2.14209,2.41309-2.35156l1.90039-.25293c0-.76562-.41455-1.14844-1.24414-1.14844-.83398,0-1.62695.24854-2.37891.74512v-1.62695c.30078-.15479.71191-.2915,1.23389-.41016s.99707-.17773,1.42529-.17773c1.99609,0,2.99414.99561,2.99414,2.9873v4.18359ZM308.14889,23.99204v-.47168l-1.27148.16406c-.70166.09131-1.05273.40771-1.05273.9502,0,.24609.08545.44775.25635.60498s.40234.23584.69385.23584c.40576,0,.73584-.14014.99121-.42041s.38281-.63477.38281-1.06299Z" fill="#2f2f2f"/>
        <path d="M316.00778,26.75376c-.31885.16846-.7998.25293-1.44238.25293-1.52197,0-2.2832-.79053-2.2832-2.37207v-3.20605h-1.13477v-1.59277h1.13477v-1.51074l2.15332-.61523v2.12598h1.57227v1.59277h-1.57227v2.83008c0,.729.28955,1.09375.86816,1.09375.22803,0,.4624-.06592.7041-.19824v1.59961Z" fill="#2f2f2f"/>
        <path d="M318.38571,18.72837c-.36475,0-.66309-.1084-.89551-.32471s-.34863-.48193-.34863-.79639c0-.32373.11621-.58789.34863-.79297s.53076-.30762.89551-.30762c.36914,0,.66895.10254.89893.30762s.34521.46924.34521.79297c0,.32812-.11523.59717-.34521.80664s-.52979.31445-.89893.31445ZM319.45211,26.83579h-2.16016v-7h2.16016v7Z" fill="#2f2f2f"/>
        <path d="M324.56295,27.00669c-1.1665,0-2.08398-.32715-2.75146-.98096s-1.00146-1.5415-1.00146-2.6626c0-1.15771.34619-2.06348,1.03906-2.71729s1.62939-.98096,2.80957-.98096c1.16211,0,2.07373.32715,2.73438.98096s.99121,1.51855.99121,2.59424c0,1.16211-.34082,2.08057-1.02197,2.75488s-1.61426,1.01172-2.79932,1.01172ZM324.61764,21.31919c-.51025,0-.90674.17529-1.18945.52637s-.42383.84766-.42383,1.49023c0,1.34424.54248,2.0166,1.62695,2.0166,1.03467,0,1.55176-.69043,1.55176-2.07129,0-1.30811-.52197-1.96191-1.56543-1.96191Z" fill="#2f2f2f"/>
        <path d="M336.52536,26.83579h-2.15332v-3.88965c0-1.08447-.38721-1.62695-1.16211-1.62695-.37354,0-.68115.14355-.92285.43066s-.3623.65186-.3623,1.09375v3.99219h-2.16016v-7h2.16016v1.10742h.02734c.51514-.85205,1.26465-1.27832,2.24902-1.27832,1.54932,0,2.32422.96143,2.32422,2.88477v4.28613Z" fill="#2f2f2f"/>
      </g>
      <g>
        <rect x="13.21795" y="99.85397" width="57.18205" height="35.32447" fill="none"/>
        <path d="M16.54782,108.37827v3.37695h-2.20801v-9.80273h3.45898c2.47021,0,3.70508,1.0415,3.70508,3.12402,0,.98438-.35449,1.78076-1.06299,2.38916s-1.65527.9126-2.84033.9126h-1.05273ZM16.54782,103.64781v3.05566h.86816c1.17578,0,1.76367-.51514,1.76367-1.54492,0-1.00732-.58789-1.51074-1.76367-1.51074h-.86816Z" fill="#2f2f2f"/>
        <path d="M27.17331,106.70347c-.25977-.14111-.56299-.21191-.90918-.21191-.46924,0-.83643.17188-1.10059.51611s-.39648.8125-.39648,1.40479v3.34277h-2.16016v-7h2.16016v1.29883h.02734c.3418-.94775.95703-1.42188,1.8457-1.42188.22803,0,.40576.02734.5332.08203v1.98926Z" fill="#2f2f2f"/>
        <path d="M29.25973,103.64781c-.36475,0-.66309-.1084-.89551-.32471s-.34863-.48193-.34863-.79639c0-.32373.11621-.58789.34863-.79297s.53076-.30762.89551-.30762c.36914,0,.66895.10254.89893.30762s.34521.46924.34521.79297c0,.32812-.11523.59717-.34521.80664s-.52979.31445-.89893.31445ZM30.32614,111.75523h-2.16016v-7h2.16016v7Z" fill="#2f2f2f"/>
        <path d="M43.22311,111.75523h-2.15332v-3.99219c0-1.01611-.37354-1.52441-1.12109-1.52441-.35547,0-.64502.15283-.86816.45801s-.33496.68604-.33496,1.1416v3.91699h-2.16016v-4.0332c0-.98877-.3667-1.4834-1.10059-1.4834-.36914,0-.66406.146-.88525.4375s-.33154.68799-.33154,1.18945v3.88965h-2.16016v-7h2.16016v1.09375h.02734c.22314-.37354.53662-.67773.93994-.9126s.84424-.35205,1.32275-.35205c.98877,0,1.66553.43506,2.03027,1.30566.5332-.87061,1.31689-1.30566,2.35156-1.30566,1.52197,0,2.2832.93896,2.2832,2.81641v4.35449Z" fill="#2f2f2f"/>
        <path d="M50.78854,111.75523h-2.04395v-1.00488h-.02734c-.46924.78369-1.16455,1.17578-2.08496,1.17578-.6792,0-1.21338-.19238-1.60303-.57764s-.58447-.89893-.58447-1.5415c0-1.35791.8042-2.14209,2.41309-2.35156l1.90039-.25293c0-.76562-.41455-1.14844-1.24414-1.14844-.83398,0-1.62695.24854-2.37891.74512v-1.62695c.30078-.15479.71191-.2915,1.23389-.41016s.99707-.17773,1.42529-.17773c1.99609,0,2.99414.99561,2.99414,2.9873v4.18359ZM48.75827,108.91148v-.47168l-1.27148.16406c-.70166.09131-1.05273.40771-1.05273.9502,0,.24609.08545.44775.25635.60498s.40234.23584.69385.23584c.40576,0,.73584-.14014.99121-.42041s.38281-.63477.38281-1.06299Z" fill="#2f2f2f"/>
        <path d="M57.05124,106.70347c-.25977-.14111-.56299-.21191-.90918-.21191-.46924,0-.83643.17188-1.10059.51611s-.39648.8125-.39648,1.40479v3.34277h-2.16016v-7h2.16016v1.29883h.02734c.3418-.94775.95703-1.42188,1.8457-1.42188.22803,0,.40576.02734.5332.08203v1.98926Z" fill="#2f2f2f"/>
        <path d="M65.17086,104.75523l-2.84375,7.56055c-.68359,1.81836-1.71338,2.72754-3.08984,2.72754-.52393,0-.95459-.05908-1.29199-.17773v-1.72266c.28711.16846.59912.25293.93652.25293.55615,0,.94336-.26221,1.16211-.78613l.36914-.86816-2.84375-6.98633h2.39258l1.30566,4.25879c.08203.26416.146.57666.19141.93652h.02734c.04102-.26416.11621-.57178.22559-.92285l1.31934-4.27246h2.13965Z" fill="#2f2f2f"/>
        <path d="M18.00387,122.6898c-.1958-.15039-.47852-.22559-.84766-.22559-.47852,0-.87842.22559-1.19971.67676s-.48193,1.06641-.48193,1.8457v3.56836h-1.12109v-7h1.12109v1.44238h.02734c.15967-.49219.40332-.87598.73145-1.15186s.69482-.41357,1.10059-.41357c.2915,0,.51514.03174.66992.0957v1.16211Z" fill="#2f2f2f"/>
        <path d="M24.84665,125.33531h-4.94238c.01807.7793.22803,1.38086.62891,1.80469s.95264.63574,1.6543.63574c.78857,0,1.51318-.25977,2.17383-.7793v1.05273c-.61523.44678-1.42871.66992-2.44043.66992-.98877,0-1.76611-.31787-2.33105-.95361s-.84766-1.53027-.84766-2.68311c0-1.08936.30859-1.97656.92627-2.6626s1.38428-1.02881,2.30029-1.02881,1.62451.29639,2.12598.88867.75195,1.41504.75195,2.46777v.58789ZM23.69821,124.38511c-.00439-.64697-.16064-1.15088-.46826-1.51074s-.73486-.54004-1.28174-.54004c-.52881,0-.97754.18896-1.34668.56738s-.59717.87256-.68359,1.4834h3.78027Z" fill="#2f2f2f"/>
        <path d="M32.54733,127.99448c0,2.57031-1.23047,3.85547-3.69141,3.85547-.86572,0-1.62256-.16406-2.26953-.49219v-1.12109c.78857.4375,1.54053.65625,2.25586.65625,1.72266,0,2.58398-.91602,2.58398-2.74805v-.76562h-.02734c-.5332.89307-1.33545,1.33984-2.40625,1.33984-.87061,0-1.57129-.31104-2.10205-.93311s-.79639-1.45703-.79639-2.50537c0-1.18945.28613-2.13525.85791-2.83691s1.35449-1.05273,2.34814-1.05273c.94336,0,1.64307.37842,2.09863,1.13477h.02734v-.9707h1.12109v6.43945ZM31.42624,125.38999v-1.03223c0-.55615-.18799-1.03223-.56396-1.42871s-.84424-.59473-1.40479-.59473c-.69287,0-1.23486.25195-1.62695.75537s-.58789,1.20898-.58789,2.11572c0,.7793.18799,1.40234.56396,1.86963s.87402.70068,1.49365.70068c.62891,0,1.14062-.22314,1.53467-.66992s.59131-1.01855.59131-1.71582Z" fill="#2f2f2f"/>
        <path d="M35.23727,119.77769c-.20068,0-.37158-.06836-.5127-.20508s-.21191-.31006-.21191-.51953.0708-.38379.21191-.52295.31201-.2085.5127-.2085c.20508,0,.37939.06934.52295.2085s.21533.31348.21533.52295c0,.20068-.07178.37158-.21533.5127s-.31787.21191-.52295.21191ZM35.78415,128.55503h-1.12109v-7h1.12109v7Z" fill="#2f2f2f"/>
        <path d="M40.87838,128.71909c-1.03467,0-1.86035-.32715-2.47803-.98096s-.92627-1.521-.92627-2.60107c0-1.17578.32129-2.09424.96387-2.75488s1.51074-.99121,2.60449-.99121c1.04346,0,1.8584.32129,2.44385.96387s.87842,1.53369.87842,2.67285c0,1.1167-.31543,2.01074-.94678,2.68311s-1.47754,1.0083-2.53955,1.0083ZM40.96041,122.33433c-.72021,0-1.28955.24512-1.70898.73486s-.62891,1.16553-.62891,2.02686c0,.82959.21191,1.4834.63574,1.96191s.99121.71777,1.70215.71777c.72461,0,1.28174-.23486,1.67139-.7041s.58447-1.13721.58447-2.00293c0-.875-.19482-1.54932-.58447-2.02344s-.94678-.71094-1.67139-.71094Z" fill="#2f2f2f"/>
        <path d="M51.89059,128.55503h-1.12109v-3.99219c0-1.48584-.54248-2.22852-1.62695-2.22852-.56055,0-1.02441.21094-1.39111.63232s-.55029.95361-.55029,1.59619v3.99219h-1.12109v-7h1.12109v1.16211h.02734c.52881-.88428,1.29443-1.32617,2.29688-1.32617.76562,0,1.35107.24707,1.75684.7417s.6084,1.20898.6084,2.14307v4.2793Z" fill="#2f2f2f"/>
      </g>
      <g>
        <rect x="382.8" y="169.35388" width="189.2" height="17.93066" fill="none"/>
        <path d="M446.28903,181.25523h-2.53613l-1.52441-2.52246c-.11377-.19141-.22314-.3623-.32812-.5127s-.21094-.2793-.31787-.38623-.21875-.18896-.33496-.24609-.24268-.08545-.37939-.08545h-.59473v3.75293h-2.20801v-9.80273h3.5c2.37891,0,3.56836.88867,3.56836,2.66602,0,.3418-.05225.65723-.15723.94678s-.25293.55029-.44434.78271-.42285.43311-.69385.60156-.57324.30078-.90576.39648v.02734c.146.04541.28711.11963.42383.22217s.26904.22217.39648.35889.24951.28369.36572.44092.22217.31104.31787.46143l1.85254,2.89844ZM440.2734,173.10679v2.72754h.95703c.47412,0,.85449-.13672,1.1416-.41016.2915-.27783.4375-.62207.4375-1.03223,0-.85693-.5127-1.28516-1.53809-1.28516h-.99805Z" fill="#2f2f2f"/>
        <path d="M453.10739,178.37046h-4.56641c.07275,1.01611.71338,1.52441,1.9209,1.52441.77002,0,1.44678-.18213,2.03027-.54688v1.55859c-.64697.34619-1.48779.51953-2.52246.51953-1.13037,0-2.00732-.31348-2.63184-.93994s-.93652-1.50049-.93652-2.62158c0-1.16211.3374-2.08252,1.01172-2.76172s1.50391-1.01855,2.48828-1.01855c1.021,0,1.81055.30322,2.36865.90918s.8374,1.42871.8374,2.46777v.90918ZM451.10446,177.04429c0-1.00244-.40576-1.50391-1.2168-1.50391-.34619,0-.646.14355-.89893.43066s-.40674.64502-.46143,1.07324h2.57715Z" fill="#2f2f2f"/>
        <path d="M460.27243,181.25523h-2.04395v-1.00488h-.02734c-.46924.78369-1.16455,1.17578-2.08496,1.17578-.6792,0-1.21338-.19238-1.60303-.57764s-.58447-.89893-.58447-1.5415c0-1.35791.8042-2.14209,2.41309-2.35156l1.90039-.25293c0-.76562-.41455-1.14844-1.24414-1.14844-.83398,0-1.62695.24854-2.37891.74512v-1.62695c.30078-.15479.71191-.2915,1.23389-.41016s.99707-.17773,1.42529-.17773c1.99609,0,2.99414.99561,2.99414,2.9873v4.18359ZM458.24215,178.41148v-.47168l-1.27148.16406c-.70166.09131-1.05273.40771-1.05273.9502,0,.24609.08545.44775.25635.60498s.40234.23584.69385.23584c.40576,0,.73584-.14014.99121-.42041s.38281-.63477.38281-1.06299Z" fill="#2f2f2f"/>
        <path d="M468.85348,181.25523h-2.16016v-.96387h-.02734c-.49219.75635-1.21436,1.13477-2.16699,1.13477-.875,0-1.5791-.30859-2.1123-.92627s-.7998-1.47998-.7998-2.5874c0-1.15771.29395-2.08496.88184-2.78223s1.35791-1.0459,2.31055-1.0459c.90234,0,1.53125.32373,1.88672.9707h.02734v-4.16309h2.16016v10.36328ZM466.73434,177.85093v-.52637c0-.45557-.13232-.83398-.39648-1.13477s-.6084-.45117-1.03223-.45117c-.47852,0-.85205.18799-1.12109.56396s-.40332.89209-.40332,1.54834c0,.61523.12988,1.08936.38965,1.42188s.61963.49902,1.08008.49902c.4375,0,.79395-.17529,1.06982-.52637s.41357-.81592.41357-1.39453Z" fill="#2f2f2f"/>
        <path d="M479.10055,176.20347c-.25977-.14111-.56299-.21191-.90918-.21191-.46924,0-.83643.17188-1.10059.51611s-.39648.8125-.39648,1.40479v3.34277h-2.16016v-7h2.16016v1.29883h.02734c.3418-.94775.95703-1.42188,1.8457-1.42188.22803,0,.40576.02734.5332.08203v1.98926Z" fill="#2f2f2f"/>
        <path d="M486.47311,178.37046h-4.56641c.07275,1.01611.71338,1.52441,1.9209,1.52441.77002,0,1.44678-.18213,2.03027-.54688v1.55859c-.64697.34619-1.48779.51953-2.52246.51953-1.13037,0-2.00732-.31348-2.63184-.93994s-.93652-1.50049-.93652-2.62158c0-1.16211.3374-2.08252,1.01172-2.76172s1.50391-1.01855,2.48828-1.01855c1.021,0,1.81055.30322,2.36865.90918s.8374,1.42871.8374,2.46777v.90918ZM484.47018,177.04429c0-1.00244-.40576-1.50391-1.2168-1.50391-.34619,0-.646.14355-.89893.43066s-.40674.64502-.46143,1.07324h2.57715Z" fill="#2f2f2f"/>
        <path d="M490.02389,180.44175h-.02734v4.0332h-2.16016v-10.21973h2.16016v1.05273h.02734c.5332-.81592,1.28271-1.22363,2.24902-1.22363.90674,0,1.60742.31104,2.10205.93311s.7417,1.46875.7417,2.53955c0,1.1665-.28809,2.10303-.86475,2.80957s-1.34326,1.05957-2.30029,1.05957c-.84326,0-1.48584-.32812-1.92773-.98438ZM489.96237,177.57066v.56055c0,.48291.12744.87744.38281,1.18262s.59033.45801,1.00488.45801c.49219,0,.87402-.19043,1.14502-.5708s.40674-.91943.40674-1.6167c0-1.23047-.47852-1.8457-1.43555-1.8457-.44189,0-.80322.16748-1.0835.50244s-.42041.77832-.42041,1.32959Z" fill="#2f2f2f"/>
        <path d="M498.70651,181.25523h-2.16016v-10.36328h2.16016v10.36328Z" fill="#2f2f2f"/>
        <path d="M501.57516,173.14781c-.36475,0-.66309-.1084-.89551-.32471s-.34863-.48193-.34863-.79639c0-.32373.11621-.58789.34863-.79297s.53076-.30762.89551-.30762c.36914,0,.66895.10254.89893.30762s.34521.46924.34521.79297c0,.32812-.11523.59717-.34521.80664s-.52979.31445-.89893.31445ZM502.64157,181.25523h-2.16016v-7h2.16016v7Z" fill="#2f2f2f"/>
        <path d="M509.72116,181.0023c-.48779.28271-1.19189.42383-2.1123.42383-1.07568,0-1.9458-.32568-2.61133-.97754s-.99805-1.49268-.99805-2.52246c0-1.18945.35645-2.12695,1.06982-2.81299s1.66699-1.02881,2.86084-1.02881c.82471,0,1.42188.10938,1.79102.32812v1.83203c-.45117-.3374-.95459-.50586-1.51074-.50586-.61963,0-1.11084.18115-1.47314.54346s-.54346.8623-.54346,1.50049c0,.61963.17334,1.10645.51953,1.45947s.82275.52979,1.42871.52979c.5376,0,1.06396-.16846,1.5791-.50586v1.73633Z" fill="#2f2f2f"/>
        <path d="M517.05709,181.25523h-2.04395v-1.00488h-.02734c-.46924.78369-1.16455,1.17578-2.08496,1.17578-.6792,0-1.21338-.19238-1.60303-.57764s-.58447-.89893-.58447-1.5415c0-1.35791.8042-2.14209,2.41309-2.35156l1.90039-.25293c0-.76562-.41455-1.14844-1.24414-1.14844-.83398,0-1.62695.24854-2.37891.74512v-1.62695c.30078-.15479.71191-.2915,1.23389-.41016s.99707-.17773,1.42529-.17773c1.99609,0,2.99414.99561,2.99414,2.9873v4.18359ZM515.02682,178.41148v-.47168l-1.27148.16406c-.70166.09131-1.05273.40771-1.05273.9502,0,.24609.08545.44775.25635.60498s.40234.23584.69385.23584c.40576,0,.73584-.14014.99121-.42041s.38281-.63477.38281-1.06299Z" fill="#2f2f2f"/>
      </g>
      <g>
        <rect x="506.219" y="99.97844" width="78.981" height="34.66507" fill="none"/>
        <path d="M516.88864,111.50376v-2.1875c.39648.33252.82715.58203,1.29199.74854s.93408.24951,1.4082.24951c.27783,0,.52051-.0249.72803-.0752s.38037-.11963.51953-.2085.24268-.19385.31104-.31445.10254-.25195.10254-.39307c0-.19141-.05469-.3623-.16406-.5127s-.25879-.28955-.44775-.41699-.41357-.25049-.67334-.36914-.54004-.23926-.84082-.3623c-.76562-.31885-1.33643-.7085-1.7124-1.16895s-.56396-1.01611-.56396-1.66797c0-.51025.10254-.94922.30762-1.31592s.48438-.66895.8374-.90576.76221-.41113,1.22705-.52295.95703-.16748,1.47656-.16748c.51025,0,.96289.03076,1.35693.09229s.75781.15625,1.09033.28369v2.04395c-.16406-.11377-.34277-.21436-.53662-.30078s-.39307-.1582-.59814-.21533-.40918-.09912-.61182-.12646-.39551-.04102-.57764-.04102c-.25049,0-.47852.02393-.68359.07178s-.37842.11523-.51953.20166-.25049.19043-.32812.31104-.11621.25635-.11621.40674c0,.16406.04346.31104.12988.44092s.20947.25293.36914.36914.35303.22998.58105.3418.48535.22656.77246.34521c.39209.16406.74414.33838,1.05615.52295s.58008.39307.80322.62549.39404.49805.5127.79639.17773.646.17773,1.04248c0,.54688-.10352,1.00586-.31104,1.37744s-.48877.67236-.84424.90234-.76904.39551-1.24072.49561-.96973.15039-1.49365.15039c-.5376,0-1.04932-.04541-1.53467-.13672s-.90576-.22803-1.26123-.41016Z" fill="#2f2f2f"/>
        <path d="M531.26461,108.99497h-4.56641c.07275,1.01611.71338,1.52441,1.9209,1.52441.77002,0,1.44678-.18213,2.03027-.54688v1.55859c-.64697.34619-1.48779.51953-2.52246.51953-1.13037,0-2.00732-.31348-2.63184-.93994s-.93652-1.50049-.93652-2.62158c0-1.16211.3374-2.08252,1.01172-2.76172s1.50391-1.01855,2.48828-1.01855c1.021,0,1.81055.30322,2.36865.90918s.8374,1.42871.8374,2.46777v.90918ZM529.26168,107.6688c0-1.00244-.40576-1.50391-1.2168-1.50391-.34619,0-.646.14355-.89893.43066s-.40674.64502-.46143,1.07324h2.57715Z" fill="#2f2f2f"/>
        <path d="M537.93551,111.62681c-.48779.28271-1.19189.42383-2.1123.42383-1.07568,0-1.9458-.32568-2.61133-.97754s-.99805-1.49268-.99805-2.52246c0-1.18945.35645-2.12695,1.06982-2.81299s1.66699-1.02881,2.86084-1.02881c.82471,0,1.42188.10938,1.79102.32812v1.83203c-.45117-.3374-.95459-.50586-1.51074-.50586-.61963,0-1.11084.18115-1.47314.54346s-.54346.8623-.54346,1.50049c0,.61963.17334,1.10645.51953,1.45947s.82275.52979,1.42871.52979c.5376,0,1.06396-.16846,1.5791-.50586v1.73633Z" fill="#2f2f2f"/>
        <path d="M542.66549,112.05064c-1.1665,0-2.08398-.32715-2.75146-.98096s-1.00146-1.5415-1.00146-2.6626c0-1.15771.34619-2.06348,1.03906-2.71729s1.62939-.98096,2.80957-.98096c1.16211,0,2.07373.32715,2.73438.98096s.99121,1.51855.99121,2.59424c0,1.16211-.34082,2.08057-1.02197,2.75488s-1.61426,1.01172-2.79932,1.01172ZM542.72018,106.36314c-.51025,0-.90674.17529-1.18945.52637s-.42383.84766-.42383,1.49023c0,1.34424.54248,2.0166,1.62695,2.0166,1.03467,0,1.55176-.69043,1.55176-2.07129,0-1.30811-.52197-1.96191-1.56543-1.96191Z" fill="#2f2f2f"/>
        <path d="M554.6279,111.87974h-2.15332v-3.88965c0-1.08447-.38721-1.62695-1.16211-1.62695-.37354,0-.68115.14355-.92285.43066s-.3623.65186-.3623,1.09375v3.99219h-2.16016v-7h2.16016v1.10742h.02734c.51514-.85205,1.26465-1.27832,2.24902-1.27832,1.54932,0,2.32422.96143,2.32422,2.88477v4.28613Z" fill="#2f2f2f"/>
        <path d="M563.21041,111.87974h-2.16016v-.96387h-.02734c-.49219.75635-1.21436,1.13477-2.16699,1.13477-.875,0-1.5791-.30859-2.1123-.92627s-.7998-1.47998-.7998-2.5874c0-1.15771.29395-2.08496.88184-2.78223s1.35791-1.0459,2.31055-1.0459c.90234,0,1.53125.32373,1.88672.9707h.02734v-4.16309h2.16016v10.36328ZM561.09127,108.47544v-.52637c0-.45557-.13232-.83398-.39648-1.13477s-.6084-.45117-1.03223-.45117c-.47852,0-.85205.18799-1.12109.56396s-.40332.89209-.40332,1.54834c0,.61523.12988,1.08936.38965,1.42188s.61963.49902,1.08008.49902c.4375,0,.79395-.17529,1.06982-.52637s.41357-.81592.41357-1.39453Z" fill="#2f2f2f"/>
        <path d="M570.85836,111.87974h-2.04395v-1.00488h-.02734c-.46924.78369-1.16455,1.17578-2.08496,1.17578-.6792,0-1.21338-.19238-1.60303-.57764s-.58447-.89893-.58447-1.5415c0-1.35791.8042-2.14209,2.41309-2.35156l1.90039-.25293c0-.76562-.41455-1.14844-1.24414-1.14844-.83398,0-1.62695.24854-2.37891.74512v-1.62695c.30078-.15479.71191-.2915,1.23389-.41016s.99707-.17773,1.42529-.17773c1.99609,0,2.99414.99561,2.99414,2.9873v4.18359ZM568.82809,109.03599v-.47168l-1.27148.16406c-.70166.09131-1.05273.40771-1.05273.9502,0,.24609.08545.44775.25635.60498s.40234.23584.69385.23584c.40576,0,.73584-.14014.99121-.42041s.38281-.63477.38281-1.06299Z" fill="#2f2f2f"/>
        <path d="M577.12155,106.82798c-.25977-.14111-.56299-.21191-.90918-.21191-.46924,0-.83643.17188-1.10059.51611s-.39648.8125-.39648,1.40479v3.34277h-2.16016v-7h2.16016v1.29883h.02734c.3418-.94775.95703-1.42188,1.8457-1.42188.22803,0,.40576.02734.5332.08203v1.98926Z" fill="#2f2f2f"/>
        <path d="M585.24069,104.87974l-2.84375,7.56055c-.68359,1.81836-1.71338,2.72754-3.08984,2.72754-.52393,0-.95459-.05908-1.29199-.17773v-1.72266c.28711.16846.59912.25293.93652.25293.55615,0,.94336-.26221,1.16211-.78613l.36914-.86816-2.84375-6.98633h2.39258l1.30566,4.25879c.08203.26416.146.57666.19141.93652h.02734c.04102-.26416.11621-.57178.22559-.92285l1.31934-4.27246h2.13965Z" fill="#2f2f2f"/>
        <path d="M550.33541,122.81431c-.1958-.15039-.47852-.22559-.84766-.22559-.47852,0-.87842.22559-1.19971.67676s-.48193,1.06641-.48193,1.8457v3.56836h-1.12109v-7h1.12109v1.44238h.02734c.15967-.49219.40332-.87598.73145-1.15186s.69482-.41357,1.10059-.41357c.2915,0,.51514.03174.66992.0957v1.16211Z" fill="#2f2f2f"/>
        <path d="M557.17819,125.45982h-4.94238c.01807.7793.22803,1.38086.62891,1.80469s.95264.63574,1.6543.63574c.78857,0,1.51318-.25977,2.17383-.7793v1.05273c-.61523.44678-1.42871.66992-2.44043.66992-.98877,0-1.76611-.31787-2.33105-.95361s-.84766-1.53027-.84766-2.68311c0-1.08936.30859-1.97656.92627-2.6626s1.38428-1.02881,2.30029-1.02881,1.62451.29639,2.12598.88867.75195,1.41504.75195,2.46777v.58789ZM556.02975,124.50962c-.00439-.64697-.16064-1.15088-.46826-1.51074s-.73486-.54004-1.28174-.54004c-.52881,0-.97754.18896-1.34668.56738s-.59717.87256-.68359,1.4834h3.78027Z" fill="#2f2f2f"/>
        <path d="M564.87887,128.119c0,2.57031-1.23047,3.85547-3.69141,3.85547-.86572,0-1.62256-.16406-2.26953-.49219v-1.12109c.78857.4375,1.54053.65625,2.25586.65625,1.72266,0,2.58398-.91602,2.58398-2.74805v-.76562h-.02734c-.5332.89307-1.33545,1.33984-2.40625,1.33984-.87061,0-1.57129-.31104-2.10205-.93311s-.79639-1.45703-.79639-2.50537c0-1.18945.28613-2.13525.85791-2.83691s1.35449-1.05273,2.34814-1.05273c.94336,0,1.64307.37842,2.09863,1.13477h.02734v-.9707h1.12109v6.43945ZM563.75778,125.5145v-1.03223c0-.55615-.18799-1.03223-.56396-1.42871s-.84424-.59473-1.40479-.59473c-.69287,0-1.23486.25195-1.62695.75537s-.58789,1.20898-.58789,2.11572c0,.7793.18799,1.40234.56396,1.86963s.87402.70068,1.49365.70068c.62891,0,1.14062-.22314,1.53467-.66992s.59131-1.01855.59131-1.71582Z" fill="#2f2f2f"/>
        <path d="M567.56881,119.9022c-.20068,0-.37158-.06836-.5127-.20508s-.21191-.31006-.21191-.51953.0708-.38379.21191-.52295.31201-.2085.5127-.2085c.20508,0,.37939.06934.52295.2085s.21533.31348.21533.52295c0,.20068-.07178.37158-.21533.5127s-.31787.21191-.52295.21191ZM568.11569,128.67954h-1.12109v-7h1.12109v7Z" fill="#2f2f2f"/>
        <path d="M573.20993,128.84361c-1.03467,0-1.86035-.32715-2.47803-.98096s-.92627-1.521-.92627-2.60107c0-1.17578.32129-2.09424.96387-2.75488s1.51074-.99121,2.60449-.99121c1.04346,0,1.8584.32129,2.44385.96387s.87842,1.53369.87842,2.67285c0,1.1167-.31543,2.01074-.94678,2.68311s-1.47754,1.0083-2.53955,1.0083ZM573.29196,122.45884c-.72021,0-1.28955.24512-1.70898.73486s-.62891,1.16553-.62891,2.02686c0,.82959.21191,1.4834.63574,1.96191s.99121.71777,1.70215.71777c.72461,0,1.28174-.23486,1.67139-.7041s.58447-1.13721.58447-2.00293c0-.875-.19482-1.54932-.58447-2.02344s-.94678-.71094-1.67139-.71094Z" fill="#2f2f2f"/>
        <path d="M584.22213,128.67954h-1.12109v-3.99219c0-1.48584-.54248-2.22852-1.62695-2.22852-.56055,0-1.02441.21094-1.39111.63232s-.55029.95361-.55029,1.59619v3.99219h-1.12109v-7h1.12109v1.16211h.02734c.52881-.88428,1.29443-1.32617,2.29688-1.32617.76562,0,1.35107.24707,1.75684.7417s.6084,1.20898.6084,2.14307v4.2793Z" fill="#2f2f2f"/>
      </g>
    </g>
  </g>
</svg>