<?xml version="1.0" encoding="UTF-8"?>
<svg xmlns="http://www.w3.org/2000/svg" width="598.4" height="312.4" xmlns:xlink="http://www.w3.org/1999/xlink" viewBox="0 0 598.4 312.4">
  <defs>
    <linearGradient id="linear-gradient" x1="114.23726" y1="828.81368" x2="114.03957" y2="800.99967" gradientTransform="translate(0 1028.16597) scale(1 -1)" gradientUnits="userSpaceOnUse">
      <stop offset="0" stop-color="#50e6ff"/>
      <stop offset="1" stop-color="#32bedd"/>
    </linearGradient>
    <linearGradient id="linear-gradient-2" x1="-502.62786" y1="1503.50996" x2="-502.62786" y2="1485.32181" gradientTransform="translate(617.12598 -1285.758)" gradientUnits="userSpaceOnUse">
      <stop offset=".001" stop-color="#a33a85"/>
      <stop offset="1" stop-color="#ce74b6"/>
    </linearGradient>
    <linearGradient id="linear-gradient-3" x1="103.15632" y1="831.99931" x2="103.15632" y2="827.5638" xlink:href="#linear-gradient"/>
    <linearGradient id="linear-gradient-4" x1="102.18448" y1="808.43483" x2="102.18448" y2="803.99931" xlink:href="#linear-gradient"/>
    <linearGradient id="linear-gradient-5" x1="126.21521" y1="809.14651" x2="126.21521" y2="804.71099" xlink:href="#linear-gradient"/>
    <linearGradient id="linear-gradient-6" x1="484.12085" x2="483.92316" y2="800.99967" xlink:href="#linear-gradient"/>
    <linearGradient id="linear-gradient-7" x1="-132.74427" x2="-132.74427" xlink:href="#linear-gradient-2"/>
    <linearGradient id="linear-gradient-8" x1="473.03991" y1="831.99931" x2="473.03991" y2="827.5638" xlink:href="#linear-gradient"/>
    <linearGradient id="linear-gradient-9" x1="472.06807" y1="808.43483" x2="472.06807" y2="803.99931" xlink:href="#linear-gradient"/>
    <linearGradient id="linear-gradient-10" x1="496.09881" y1="809.14651" x2="496.09881" y2="804.71099" xlink:href="#linear-gradient"/>
    <linearGradient id="linear-gradient-11" x1="-269.00005" y1="1202.28298" x2="-269.00005" y2="1228.28298" gradientTransform="translate(564 1262.16597) scale(1 -1)" gradientUnits="userSpaceOnUse">
      <stop offset="0" stop-color="#0078d4"/>
      <stop offset=".16" stop-color="#1380da"/>
      <stop offset=".53" stop-color="#3c91e5"/>
      <stop offset=".82" stop-color="#559cec"/>
      <stop offset="1" stop-color="#5ea0ef"/>
    </linearGradient>
  </defs>
  <g id="Shapes">
    <rect width="598.4" height="312.4" fill="#fff"/>
    <g>
      <rect x="13.6" y="130.08298" width="202" height="172" fill="#fff"/>
      <rect x="13.6" y="130.08298" width="202" height="172" fill="#d9d9d6" opacity=".4"/>
      <rect x="13.6" y="130.08298" width="202" height="172" fill="none" stroke="#d9d9d6" stroke-width=".25"/>
    </g>
    <g>
      <rect x="26.6" y="148.08298" width="176" height="136" fill="#fff"/>
      <rect x="26.6" y="148.08298" width="176" height="136" fill="#590055" opacity=".07"/>
      <rect x="26.6" y="148.08298" width="176" height="136" fill="none" opacity=".9" stroke="#590055" stroke-width=".35"/>
    </g>
    <g>
      <rect x="39.6" y="240.08298" width="150" height="31" fill="#fff"/>
      <rect x="39.6" y="240.08298" width="150" height="31" fill="#590055" opacity="0"/>
      <rect x="39.6" y="240.08298" width="150" height="31" fill="none" opacity=".7" stroke="#590055" stroke-width=".38"/>
    </g>
    <g>
      <rect x="382.6" y="130.08298" width="202" height="172" fill="#fff"/>
      <rect x="382.6" y="130.08298" width="202" height="172" fill="#d9d9d6" opacity=".4"/>
      <rect x="382.6" y="130.08298" width="202" height="172" fill="none" stroke="#d9d9d6" stroke-width=".25"/>
    </g>
    <g>
      <path d="M294.49355,68.68308v19.35635c0,2.75-2.23471,5.26184-4.96602,5.58187l-170.16151,19.93773c-2.73132.32003-4.96603,2.83187-4.96603,5.58187v37.84339" fill="none" stroke="#3c3c41" stroke-miterlimit="10"/>
      <polygon points="110.66024 155.89005 114.39999 162.36646 118.13973 155.89005 110.66024 155.89005" fill="#3c3c41"/>
    </g>
    <g>
      <polygon points="126.6109 220.58089 103.78655 197.75496 102.52609 199.01384 113.23449 209.72383 101.55662 221.31629 102.81076 222.57992 114.49495 210.98271 125.35202 221.83978 126.6109 220.58089" fill="url(#linear-gradient)"/>
      <path d="M127.31151,212.05655c-.08224-2.81983-2.19514-5.16363-4.99125-5.53687-.16764-3.97433-3.50146-7.07567-7.47896-6.95232-3.1646-.05693-6.01923,1.89465-7.11521,4.86472-3.37336.40329-5.94331,3.21205-6.04453,6.60755.14708,3.84623,3.38443,6.84636,7.23224,6.69928h12.33736c.1028.0174.20718.0174.30839,0,3.13455-.03796,5.67604-2.54781,5.75511-5.68237h-.00316Z" fill="url(#linear-gradient-2)"/>
      <path d="M102.44543,200.48465c1.15925.39221,2.41813-.22932,2.81192-1.38857.39221-1.15925-.22932-2.41813-1.38857-2.81192-1.16083-.39221-2.41971.22932-2.81351,1.39015-.39221,1.15925.22932,2.41813,1.38857,2.81192l.00158-.00158Z" fill="url(#linear-gradient-3)"/>
      <path d="M101.4728,224.04914c1.15925.39221,2.41813-.22932,2.81192-1.38857.39221-1.15925-.22932-2.41813-1.38857-2.81192-1.15925-.39221-2.41813.22932-2.81192,1.38857-.39221,1.15925.22932,2.41813,1.38857,2.81192Z" fill="url(#linear-gradient-4)"/>
      <path d="M125.50384,223.33746c1.15925.39221,2.41813-.22932,2.81192-1.38857.39221-1.15925-.22932-2.41813-1.38857-2.81192-1.15925-.39221-2.41813.22932-2.81192,1.38857s.22932,2.41813,1.38857,2.81192Z" fill="url(#linear-gradient-5)"/>
    </g>
    <g>
      <rect x="395.6" y="148.08298" width="176" height="136" fill="#fff"/>
      <rect x="395.6" y="148.08298" width="176" height="136" fill="#590055" opacity=".07"/>
      <rect x="395.6" y="148.08298" width="176" height="136" fill="none" opacity=".9" stroke="#590055" stroke-width=".35"/>
    </g>
    <g>
      <rect x="408.6" y="240.08298" width="150" height="31" fill="#fff"/>
      <rect x="408.6" y="240.08298" width="150" height="31" fill="#590055" opacity="0"/>
      <rect x="408.6" y="240.08298" width="150" height="31" fill="none" opacity=".7" stroke="#590055" stroke-width=".38"/>
    </g>
    <g>
      <polygon points="496.49449 220.58089 473.67014 197.75496 472.40968 199.01384 483.11808 209.72383 471.44021 221.31629 472.69435 222.57992 484.37854 210.98271 495.23561 221.83978 496.49449 220.58089" fill="url(#linear-gradient-6)"/>
      <path d="M497.1951,212.05655c-.08224-2.81983-2.19514-5.16363-4.99125-5.53687-.16764-3.97433-3.50146-7.07567-7.47896-6.95232-3.1646-.05693-6.01923,1.89465-7.11521,4.86472-3.37336.40329-5.94331,3.21205-6.04453,6.60755.14708,3.84623,3.38443,6.84636,7.23224,6.69928h12.33736c.1028.0174.20718.0174.30839,0,3.13455-.03796,5.67604-2.54781,5.75511-5.68237h-.00316Z" fill="url(#linear-gradient-7)"/>
      <path d="M472.32902,200.48465c1.15925.39221,2.41813-.22932,2.81192-1.38857.39221-1.15925-.22932-2.41813-1.38857-2.81192-1.16083-.39221-2.41971.22932-2.81351,1.39015-.39221,1.15925.22932,2.41813,1.38857,2.81192l.00158-.00158Z" fill="url(#linear-gradient-8)"/>
      <path d="M471.35639,224.04914c1.15925.39221,2.41813-.22932,2.81192-1.38857.39221-1.15925-.22932-2.41813-1.38857-2.81192-1.15925-.39221-2.41813.22932-2.81192,1.38857-.39221,1.15925.22932,2.41813,1.38857,2.81192Z" fill="url(#linear-gradient-9)"/>
      <path d="M495.38743,223.33746c1.15925.39221,2.41813-.22932,2.81192-1.38857.39221-1.15925-.22932-2.41813-1.38857-2.81192-1.15925-.39221-2.41813.22932-2.81192,1.38857s.22932,2.41813,1.38857,2.81192Z" fill="url(#linear-gradient-10)"/>
    </g>
    <g>
      <rect x="229.90408" y="216.24912" width="136.4" height="32.83386" fill="none"/>
      <path d="M272.60098,226.61228h-1.36719l-1.64062-2.74805c-.15039-.25537-.2959-.47266-.4375-.65283s-.28613-.32715-.43359-.44092c-.14844-.11377-.30859-.19727-.47852-.24951-.17188-.05225-.36426-.07861-.57812-.07861h-.94336v4.16992h-1.14844v-9.80273h2.92578c.42871,0,.82422.05371,1.18555.16064.36328.10693.67773.27002.94336.48877.26758.21875.47559.49121.62598.81689s.22559.70752.22559,1.14502c0,.3418-.05078.65527-.1543.93994-.10156.28467-.24805.53906-.4375.76221-.18848.22314-.41602.41357-.68359.5708-.26562.15723-.56543.2793-.89844.36572v.02734c.16406.07275.30664.15625.42773.24951.12012.09326.23535.2041.34473.33154s.21777.27246.3252.43408c.10645.16162.22656.34961.3584.56396l1.83887,2.94629ZM266.72207,217.84861v3.55469h1.55859c.28711,0,.55273-.04346.79688-.12988.24316-.08643.4541-.21094.63184-.37256s.31641-.35986.41699-.59473.15039-.49805.15039-.78955c0-.52393-.16992-.93311-.50977-1.22705-.33887-.29395-.83008-.44092-1.47266-.44092h-1.57227Z" fill="#2f2f2f"/>
      <path d="M279.21328,223.39255h-4.94238c.01855.7793.22754,1.38086.62891,1.80469s.95215.63574,1.6543.63574c.78809,0,1.5127-.25977,2.17383-.7793v1.05273c-.61523.44678-1.42871.66992-2.44043.66992-.98926,0-1.76562-.31787-2.33105-.95361s-.84766-1.53027-.84766-2.68311c0-1.08936.30859-1.97656.92578-2.6626.61816-.68604,1.38477-1.02881,2.30078-1.02881s1.625.29639,2.12598.88867.75195,1.41504.75195,2.46777v.58789ZM278.06484,222.44236c-.00488-.64697-.16113-1.15088-.46777-1.51074-.30859-.35986-.73535-.54004-1.28223-.54004-.52832,0-.97754.18896-1.34668.56738s-.59668.87256-.68359,1.4834h3.78027Z" fill="#2f2f2f"/>
      <path d="M282.04434,225.60056h-.02734v4.23145h-1.12109v-10.21973h1.12109v1.23047h.02734c.55176-.92969,1.3584-1.39453,2.41992-1.39453.90234,0,1.60645.31348,2.1123.93994s.75879,1.46631.75879,2.51904c0,1.17139-.28516,2.10889-.85449,2.81299s-1.34863,1.05615-2.33789,1.05615c-.90723,0-1.60645-.39209-2.09863-1.17578ZM282.01699,222.77732v.97754c0,.57861.1875,1.06982.56445,1.47314.375.40332.85254.60498,1.43164.60498.67871,0,1.21094-.25977,1.5957-.7793.38574-.51953.57812-1.2417.57812-2.16699,0-.7793-.17969-1.39014-.54004-1.83203s-.84766-.66309-1.46289-.66309c-.65137,0-1.17578.22656-1.57227.68018s-.59473,1.02197-.59473,1.70557Z" fill="#2f2f2f"/>
      <path d="M290.18594,226.61228h-1.12109v-10.36328h1.12109v10.36328Z" fill="#2f2f2f"/>
      <path d="M292.87246,217.83494c-.2002,0-.37109-.06836-.5127-.20508s-.21191-.31006-.21191-.51953.07031-.38379.21191-.52295.3125-.2085.5127-.2085c.20508,0,.37891.06934.52344.2085.14258.13916.21484.31348.21484.52295,0,.20068-.07227.37158-.21484.5127-.14453.14111-.31836.21191-.52344.21191ZM293.41934,226.61228h-1.12109v-7h1.12109v7Z" fill="#2f2f2f"/>
      <path d="M300.33242,226.29099c-.53809.32373-1.17578.48535-1.91406.48535-.99805,0-1.80371-.32471-2.41602-.97412-.61328-.64941-.91992-1.49121-.91992-2.52588,0-1.15283.33008-2.0791.99121-2.77881s1.54297-1.04932,2.64551-1.04932c.61523,0,1.15723.11377,1.62695.3418v1.14844c-.51953-.36475-1.0752-.54688-1.66797-.54688-.71582,0-1.30273.25635-1.75977.76904-.45898.5127-.6875,1.18604-.6875,2.02002,0,.82031.21484,1.46729.64648,1.94141.42969.47412,1.00781.71094,1.73242.71094.61035,0,1.18457-.20264,1.72266-.6084v1.06641Z" fill="#2f2f2f"/>
      <path d="M307.07559,226.61228h-1.12109v-1.09375h-.02734c-.4873.83838-1.20508,1.25781-2.15332,1.25781-.69727,0-1.24316-.18457-1.63672-.55371-.39453-.36914-.5918-.85889-.5918-1.46973,0-1.30811.77051-2.06885,2.31055-2.2832l2.09863-.29395c0-1.18945-.48047-1.78418-1.44238-1.78418-.84277,0-1.60449.28711-2.2832.86133v-1.14844c.68848-.4375,1.48145-.65625,2.37891-.65625,1.64551,0,2.46777.87061,2.46777,2.61133v4.55273ZM305.95449,223.07126l-1.68848.23242c-.51953.07275-.91113.20166-1.17578.38623s-.39648.51172-.39648.98096c0,.3418.12207.62109.36523.8374.24414.21631.56934.32471.97461.32471.55566,0,1.01562-.19482,1.37695-.58447.36328-.38965.54395-.88281.54395-1.47998v-.69727Z" fill="#2f2f2f"/>
      <path d="M312.33438,226.54392c-.26465.146-.61328.21875-1.0459.21875-1.22559,0-1.83887-.68359-1.83887-2.05078v-4.14258h-1.20312v-.95703h1.20312v-1.70898l1.12109-.3623v2.07129h1.76367v.95703h-1.76367v3.94434c0,.46924.08008.8042.23926,1.00488s.42383.30078.79297.30078c.28223,0,.52637-.07764.73145-.23242v.95703Z" fill="#2f2f2f"/>
      <path d="M314.28945,217.83494c-.2002,0-.37109-.06836-.5127-.20508s-.21191-.31006-.21191-.51953.07031-.38379.21191-.52295.3125-.2085.5127-.2085c.20508,0,.37891.06934.52344.2085.14258.13916.21484.31348.21484.52295,0,.20068-.07227.37158-.21484.5127-.14453.14111-.31836.21191-.52344.21191ZM314.83633,226.61228h-1.12109v-7h1.12109v7Z" fill="#2f2f2f"/>
      <path d="M319.93105,226.77634c-1.03418,0-1.86035-.32715-2.47852-.98096-.61719-.65381-.92578-1.521-.92578-2.60107,0-1.17578.32129-2.09424.96387-2.75488s1.51074-.99121,2.60449-.99121c1.04395,0,1.8584.32129,2.44336.96387.58594.64258.87891,1.53369.87891,2.67285,0,1.1167-.31543,2.01074-.94727,2.68311-.63086.67236-1.47754,1.0083-2.53906,1.0083ZM320.01309,220.39158c-.71973,0-1.29004.24512-1.70898.73486s-.62891,1.16553-.62891,2.02686c0,.82959.21191,1.4834.63574,1.96191s.99121.71777,1.70215.71777c.72461,0,1.28125-.23486,1.67188-.7041.38867-.46924.58398-1.13721.58398-2.00293,0-.875-.19531-1.54932-.58398-2.02344-.39062-.47412-.94727-.71094-1.67188-.71094Z" fill="#2f2f2f"/>
      <path d="M330.94277,226.61228h-1.12109v-3.99219c0-1.48584-.54199-2.22852-1.62695-2.22852-.56055,0-1.02441.21094-1.39062.63232-.36719.42139-.55078.95361-.55078,1.59619v3.99219h-1.12109v-7h1.12109v1.16211h.02734c.52832-.88428,1.29395-1.32617,2.29688-1.32617.76562,0,1.35156.24707,1.75684.7417s.6084,1.20898.6084,2.14307v4.2793Z" fill="#2f2f2f"/>
      <path d="M264.94863,243.41208h-1.1416v-6.57617c0-.51953.03223-1.15527.0957-1.90723h-.02734c-.10938.44189-.20703.75879-.29395.9502l-3.34961,7.5332h-.56055l-3.34277-7.47852c-.0957-.21875-.19336-.55371-.29395-1.00488h-.02734c.03613.39209.05469,1.03223.05469,1.9209v6.5625h-1.10742v-9.80273h1.51758l3.00781,6.83594c.23242.52393.38281.91602.45117,1.17578h.04102c.19629-.5376.35352-.93896.47168-1.20312l3.06934-6.80859h1.43555v9.80273Z" fill="#2f2f2f"/>
      <path d="M272.92715,240.19236h-4.94238c.01855.7793.22754,1.38086.62891,1.80469s.95215.63574,1.6543.63574c.78809,0,1.5127-.25977,2.17383-.7793v1.05273c-.61523.44678-1.42871.66992-2.44043.66992-.98926,0-1.76562-.31787-2.33105-.95361s-.84766-1.53027-.84766-2.68311c0-1.08936.30859-1.97656.92578-2.6626.61816-.68604,1.38477-1.02881,2.30078-1.02881s1.625.29639,2.12598.88867.75195,1.41504.75195,2.46777v.58789ZM271.77871,239.24216c-.00488-.64697-.16113-1.15088-.46777-1.51074-.30859-.35986-.73535-.54004-1.28223-.54004-.52832,0-.97754.18896-1.34668.56738s-.59668.87256-.68359,1.4834h3.78027Z" fill="#2f2f2f"/>
      <path d="M277.85098,243.34373c-.26465.146-.61328.21875-1.0459.21875-1.22559,0-1.83887-.68359-1.83887-2.05078v-4.14258h-1.20312v-.95703h1.20312v-1.70898l1.12109-.3623v2.07129h1.76367v.95703h-1.76367v3.94434c0,.46924.08008.8042.23926,1.00488s.42383.30078.79297.30078c.28223,0,.52637-.07764.73145-.23242v.95703Z" fill="#2f2f2f"/>
      <path d="M284.46816,243.41208h-1.12109v-1.09375h-.02734c-.4873.83838-1.20508,1.25781-2.15332,1.25781-.69727,0-1.24316-.18457-1.63672-.55371-.39453-.36914-.5918-.85889-.5918-1.46973,0-1.30811.77051-2.06885,2.31055-2.2832l2.09863-.29395c0-1.18945-.48047-1.78418-1.44238-1.78418-.84277,0-1.60449.28711-2.2832.86133v-1.14844c.68848-.4375,1.48145-.65625,2.37891-.65625,1.64551,0,2.46777.87061,2.46777,2.61133v4.55273ZM283.34707,239.87107l-1.68848.23242c-.51953.07275-.91113.20166-1.17578.38623s-.39648.51172-.39648.98096c0,.3418.12207.62109.36523.8374.24414.21631.56934.32471.97461.32471.55566,0,1.01562-.19482,1.37695-.58447.36328-.38965.54395-.88281.54395-1.47998v-.69727Z" fill="#2f2f2f"/>
      <path d="M292.5375,243.41208h-1.12109v-1.18945h-.02734c-.51953.90234-1.32129,1.35352-2.40625,1.35352-.87988,0-1.58203-.31348-2.10938-.93994-.52539-.62646-.78906-1.47998-.78906-2.56006,0-1.15771.29199-2.08496.875-2.78223s1.36035-1.0459,2.33105-1.0459c.96191,0,1.66113.37842,2.09863,1.13477h.02734v-4.33398h1.12109v10.36328ZM291.41641,240.24705v-1.03223c0-.56494-.18652-1.04346-.56055-1.43555s-.84766-.58789-1.42188-.58789c-.68359,0-1.22168.25049-1.61328.75195s-.58789,1.19385-.58789,2.07812c0,.80664.1875,1.44336.56445,1.91064.375.46729.87988.70068,1.51367.70068.62402,0,1.13086-.22559,1.52148-.67676.38867-.45117.58398-1.021.58398-1.70898Z" fill="#2f2f2f"/>
      <path d="M299.69375,243.41208h-1.12109v-1.09375h-.02734c-.4873.83838-1.20508,1.25781-2.15332,1.25781-.69727,0-1.24316-.18457-1.63672-.55371-.39453-.36914-.5918-.85889-.5918-1.46973,0-1.30811.77051-2.06885,2.31055-2.2832l2.09863-.29395c0-1.18945-.48047-1.78418-1.44238-1.78418-.84277,0-1.60449.28711-2.2832.86133v-1.14844c.68848-.4375,1.48145-.65625,2.37891-.65625,1.64551,0,2.46777.87061,2.46777,2.61133v4.55273ZM298.57266,239.87107l-1.68848.23242c-.51953.07275-.91113.20166-1.17578.38623s-.39648.51172-.39648.98096c0,.3418.12207.62109.36523.8374.24414.21631.56934.32471.97461.32471.55566,0,1.01562-.19482,1.37695-.58447.36328-.38965.54395-.88281.54395-1.47998v-.69727Z" fill="#2f2f2f"/>
      <path d="M304.95254,243.34373c-.26465.146-.61328.21875-1.0459.21875-1.22559,0-1.83887-.68359-1.83887-2.05078v-4.14258h-1.20312v-.95703h1.20312v-1.70898l1.12109-.3623v2.07129h1.76367v.95703h-1.76367v3.94434c0,.46924.08008.8042.23926,1.00488s.42383.30078.79297.30078c.28223,0,.52637-.07764.73145-.23242v.95703Z" fill="#2f2f2f"/>
      <path d="M311.56973,243.41208h-1.12109v-1.09375h-.02734c-.4873.83838-1.20508,1.25781-2.15332,1.25781-.69727,0-1.24316-.18457-1.63672-.55371-.39453-.36914-.5918-.85889-.5918-1.46973,0-1.30811.77051-2.06885,2.31055-2.2832l2.09863-.29395c0-1.18945-.48047-1.78418-1.44238-1.78418-.84277,0-1.60449.28711-2.2832.86133v-1.14844c.68848-.4375,1.48145-.65625,2.37891-.65625,1.64551,0,2.46777.87061,2.46777,2.61133v4.55273ZM310.44863,239.87107l-1.68848.23242c-.51953.07275-.91113.20166-1.17578.38623s-.39648.51172-.39648.98096c0,.3418.12207.62109.36523.8374.24414.21631.56934.32471.97461.32471.55566,0,1.01562-.19482,1.37695-.58447.36328-.38965.54395-.88281.54395-1.47998v-.69727Z" fill="#2f2f2f"/>
      <path d="M320.44277,243.57615c-1.03418,0-1.86035-.32715-2.47852-.98096-.61719-.65381-.92578-1.521-.92578-2.60107,0-1.17578.32129-2.09424.96387-2.75488s1.51074-.99121,2.60449-.99121c1.04395,0,1.8584.32129,2.44336.96387.58594.64258.87891,1.53369.87891,2.67285,0,1.1167-.31543,2.01074-.94727,2.68311-.63086.67236-1.47754,1.0083-2.53906,1.0083ZM320.5248,237.19138c-.71973,0-1.29004.24512-1.70898.73486s-.62891,1.16553-.62891,2.02686c0,.82959.21191,1.4834.63574,1.96191s.99121.71777,1.70215.71777c.72461,0,1.28125-.23486,1.67188-.7041.38867-.46924.58398-1.13721.58398-2.00293,0-.875-.19531-1.54932-.58398-2.02344-.39062-.47412-.94727-.71094-1.67188-.71094Z" fill="#2f2f2f"/>
      <path d="M331.45547,243.41208h-1.12109v-3.99219c0-1.48584-.54199-2.22852-1.62695-2.22852-.56055,0-1.02441.21094-1.39062.63232-.36719.42139-.55078.95361-.55078,1.59619v3.99219h-1.12109v-7h1.12109v1.16211h.02734c.52832-.88428,1.29395-1.32617,2.29688-1.32617.76562,0,1.35156.24707,1.75684.7417s.6084,1.20898.6084,2.14307v4.2793Z" fill="#2f2f2f"/>
      <path d="M334.6,243.41208h-1.12109v-10.36328h1.12109v10.36328Z" fill="#2f2f2f"/>
      <path d="M342.47012,236.41208l-3.21973,8.12109c-.57422,1.44922-1.38086,2.17383-2.41992,2.17383-.29199,0-.53516-.02979-.73145-.08887v-1.00488c.24121.08203.46289.12305.66309.12305.56543,0,.98926-.3374,1.27148-1.01172l.56055-1.32617-2.73438-6.98633h1.24414l1.89355,5.38672c.02246.06836.07031.24609.14355.5332h.04102c.02246-.10938.06836-.28271.13672-.51953l1.98926-5.40039h1.16211Z" fill="#2f2f2f"/>
    </g>
    <g>
      <line x1="189.20001" y1="255.48308" x2="195.20001" y2="255.48308" fill="none" stroke="#3c3c41" stroke-miterlimit="10"/>
      <line x1="199.33505" y1="255.48308" x2="395.7503" y2="255.48308" fill="none" stroke="#3c3c41" stroke-dasharray="12.40517 4.13506" stroke-miterlimit="10"/>
      <line x1="397.81783" y1="255.48308" x2="403.81783" y2="255.48308" fill="none" stroke="#3c3c41" stroke-miterlimit="10"/>
      <polygon points="402.72359 259.22283 409.2 255.48308 402.72359 251.74334 402.72359 259.22283" fill="#3c3c41"/>
    </g>
    <path d="M291.09995,52.08298h7.8v7.8h-7.8v-7.8ZM281.99995,41.68298h7.8v-7.8h-6.71125c-.6013,0-1.08875.48745-1.08875,1.08875v6.71125ZM283.0887,59.88298h6.71125v-7.8h-7.8v6.71125c0,.6013.48745,1.08875,1.08875,1.08875h0ZM281.99995,50.78298h7.8v-7.8h-7.8v7.8ZM300.19995,59.88298h6.71125c.6013,0,1.08875-.48745,1.08875-1.08875h0v-6.71125h-7.8v7.8ZM291.09995,50.78298h7.8v-7.8h-7.8v7.8ZM300.19995,50.78298h7.8v-7.8h-7.8v7.8ZM300.19995,33.88298v7.8h7.8v-6.71125c0-.6013-.48745-1.08875-1.08875-1.08875h-6.71125ZM291.09995,41.68298h7.8v-7.8h-7.8v7.8Z" fill="url(#linear-gradient-11)"/>
  </g>
  <g id="Text">
    <g>
      <rect x="26.2" y="168.65023" width="176" height="18.05239" fill="none"/>
      <path d="M66.36318,180.17527v-2.1875c.39648.33252.82715.58203,1.29199.74854s.93408.24951,1.4082.24951c.27783,0,.52051-.0249.72803-.0752s.38037-.11963.51953-.2085.24268-.19385.31104-.31445.10254-.25195.10254-.39307c0-.19141-.05469-.3623-.16406-.5127s-.25879-.28955-.44775-.41699-.41357-.25049-.67334-.36914-.54004-.23926-.84082-.3623c-.76562-.31885-1.33643-.7085-1.7124-1.16895s-.56396-1.01611-.56396-1.66797c0-.51025.10254-.94922.30762-1.31592s.48438-.66895.8374-.90576.76221-.41113,1.22705-.52295.95703-.16748,1.47656-.16748c.51025,0,.96289.03076,1.35693.09229s.75781.15625,1.09033.28369v2.04395c-.16406-.11377-.34277-.21436-.53662-.30078s-.39307-.1582-.59814-.21533-.40918-.09912-.61182-.12646-.39551-.04102-.57764-.04102c-.25049,0-.47852.02393-.68359.07178s-.37842.11523-.51953.20166-.25049.19043-.32812.31104-.11621.25635-.11621.40674c0,.16406.04346.31104.12988.44092s.20947.25293.36914.36914.35303.22998.58105.3418.48535.22656.77246.34521c.39209.16406.74414.33838,1.05615.52295s.58008.39307.80322.62549.39404.49805.5127.79639.17773.646.17773,1.04248c0,.54688-.10352,1.00586-.31104,1.37744s-.48877.67236-.84424.90234-.76904.39551-1.24072.49561-.96973.15039-1.49365.15039c-.5376,0-1.04932-.04541-1.53467-.13672s-.90576-.22803-1.26123-.41016Z" fill="#2f2f2f"/>
      <path d="M78.46035,180.46921c-.31885.16846-.7998.25293-1.44238.25293-1.52197,0-2.2832-.79053-2.2832-2.37207v-3.20605h-1.13477v-1.59277h1.13477v-1.51074l2.15332-.61523v2.12598h1.57227v1.59277h-1.57227v2.83008c0,.729.28955,1.09375.86816,1.09375.22803,0,.4624-.06592.7041-.19824v1.59961Z" fill="#2f2f2f"/>
      <path d="M82.99355,180.72214c-1.1665,0-2.08398-.32715-2.75146-.98096s-1.00146-1.5415-1.00146-2.6626c0-1.15771.34619-2.06348,1.03906-2.71729s1.62939-.98096,2.80957-.98096c1.16211,0,2.07373.32715,2.73438.98096s.99121,1.51855.99121,2.59424c0,1.16211-.34082,2.08057-1.02197,2.75488s-1.61426,1.01172-2.79932,1.01172ZM83.04824,175.03464c-.51025,0-.90674.17529-1.18945.52637s-.42383.84766-.42383,1.49023c0,1.34424.54248,2.0166,1.62695,2.0166,1.03467,0,1.55176-.69043,1.55176-2.07129,0-1.30811-.52197-1.96191-1.56543-1.96191Z" fill="#2f2f2f"/>
      <path d="M92.76309,175.49949c-.25977-.14111-.56299-.21191-.90918-.21191-.46924,0-.83643.17188-1.10059.51611s-.39648.8125-.39648,1.40479v3.34277h-2.16016v-7h2.16016v1.29883h.02734c.3418-.94775.95703-1.42188,1.8457-1.42188.22803,0,.40576.02734.5332.08203v1.98926Z" fill="#2f2f2f"/>
      <path d="M99.48721,180.55124h-2.04395v-1.00488h-.02734c-.46924.78369-1.16455,1.17578-2.08496,1.17578-.6792,0-1.21338-.19238-1.60303-.57764s-.58447-.89893-.58447-1.5415c0-1.35791.8042-2.14209,2.41309-2.35156l1.90039-.25293c0-.76562-.41455-1.14844-1.24414-1.14844-.83398,0-1.62695.24854-2.37891.74512v-1.62695c.30078-.15479.71191-.2915,1.23389-.41016s.99707-.17773,1.42529-.17773c1.99609,0,2.99414.99561,2.99414,2.9873v4.18359ZM97.45693,177.70749v-.47168l-1.27148.16406c-.70166.09131-1.05273.40771-1.05273.9502,0,.24609.08545.44775.25635.60498s.40234.23584.69385.23584c.40576,0,.73584-.14014.99121-.42041s.38281-.63477.38281-1.06299Z" fill="#2f2f2f"/>
      <path d="M108.08193,179.75144c0,1.29883-.37598,2.30469-1.12793,3.01807s-1.84131,1.06982-3.26758,1.06982c-.94336,0-1.69092-.13428-2.24219-.40332v-1.81836c.72021.41943,1.44678.62891,2.18066.62891.729,0,1.29443-.19238,1.69531-.57764s.60156-.9082.60156-1.56885v-.55371h-.02734c-.49219.78369-1.21924,1.17578-2.18066,1.17578-.89307,0-1.60205-.31445-2.12598-.94336s-.78613-1.47217-.78613-2.5293c0-1.18506.2915-2.12598.875-2.82324s1.35107-1.0459,2.30371-1.0459c.85205,0,1.49023.32812,1.91406.98438h.02734v-.81348h2.16016v6.2002ZM105.94912,177.18796v-.55371c0-.44189-.13086-.81934-.39307-1.13135s-.60254-.46826-1.02197-.46826c-.47852,0-.85449.18701-1.12793.56055s-.41016.8999-.41016,1.5791c0,.5835.12988,1.04492.38965,1.38428s.61523.50928,1.06641.50928c.44678,0,.80762-.17188,1.0835-.51611s.41357-.79883.41357-1.36377Z" fill="#2f2f2f"/>
      <path d="M116.17568,177.66648h-4.56641c.07275,1.01611.71338,1.52441,1.9209,1.52441.77002,0,1.44678-.18213,2.03027-.54688v1.55859c-.64697.34619-1.48779.51953-2.52246.51953-1.13037,0-2.00732-.31348-2.63184-.93994s-.93652-1.50049-.93652-2.62158c0-1.16211.3374-2.08252,1.01172-2.76172s1.50391-1.01855,2.48828-1.01855c1.021,0,1.81055.30322,2.36865.90918s.8374,1.42871.8374,2.46777v.90918ZM114.17275,176.34031c0-1.00244-.40576-1.50391-1.2168-1.50391-.34619,0-.646.14355-.89893.43066s-.40674.64502-.46143,1.07324h2.57715Z" fill="#2f2f2f"/>
      <path d="M132.70498,180.55124h-2.18066v-5.86523c0-.6333.02734-1.33301.08203-2.09863h-.05469c-.11377.60156-.21631,1.03467-.30762,1.29883l-2.29688,6.66504h-1.80469l-2.33789-6.59668c-.06396-.17773-.1665-.6333-.30762-1.36719h-.06152c.05908.96631.08887,1.81396.08887,2.54297v5.4209h-1.98926v-9.80273h3.2334l2.00293,5.81055c.15967.46484.27588.93213.34863,1.40137h.04102c.12305-.54248.25293-1.01416.38965-1.41504l2.00293-5.79688h3.15137v9.80273Z" fill="#2f2f2f"/>
      <path d="M138.00283,180.72214c-1.1665,0-2.08398-.32715-2.75146-.98096s-1.00146-1.5415-1.00146-2.6626c0-1.15771.34619-2.06348,1.03906-2.71729s1.62939-.98096,2.80957-.98096c1.16211,0,2.07373.32715,2.73438.98096s.99121,1.51855.99121,2.59424c0,1.16211-.34082,2.08057-1.02197,2.75488s-1.61426,1.01172-2.79932,1.01172ZM138.05752,175.03464c-.51025,0-.90674.17529-1.18945.52637s-.42383.84766-.42383,1.49023c0,1.34424.54248,2.0166,1.62695,2.0166,1.03467,0,1.55176-.69043,1.55176-2.07129,0-1.30811-.52197-1.96191-1.56543-1.96191Z" fill="#2f2f2f"/>
      <path d="M149.6918,173.55124l-2.60449,7h-2.46094l-2.48145-7h2.31055l1.2168,4.31348c.13672.48779.21631.90234.23926,1.24414h.02734c.03174-.32373.11621-.72461.25293-1.20312l1.24414-4.35449h2.25586Z" fill="#2f2f2f"/>
      <path d="M156.67959,177.66648h-4.56641c.07275,1.01611.71338,1.52441,1.9209,1.52441.77002,0,1.44678-.18213,2.03027-.54688v1.55859c-.64697.34619-1.48779.51953-2.52246.51953-1.13037,0-2.00732-.31348-2.63184-.93994s-.93652-1.50049-.93652-2.62158c0-1.16211.3374-2.08252,1.01172-2.76172s1.50391-1.01855,2.48828-1.01855c1.021,0,1.81055.30322,2.36865.90918s.8374,1.42871.8374,2.46777v.90918ZM154.67666,176.34031c0-1.00244-.40576-1.50391-1.2168-1.50391-.34619,0-.646.14355-.89893.43066s-.40674.64502-.46143,1.07324h2.57715Z" fill="#2f2f2f"/>
      <path d="M162.61074,175.49949c-.25977-.14111-.56299-.21191-.90918-.21191-.46924,0-.83643.17188-1.10059.51611s-.39648.8125-.39648,1.40479v3.34277h-2.16016v-7h2.16016v1.29883h.02734c.3418-.94775.95703-1.42188,1.8457-1.42188.22803,0,.40576.02734.5332.08203v1.98926Z" fill="#2f2f2f"/>
    </g>
    <g>
      <path d="M96.04043,260.46775h-1.1416v-6.57617c0-.51953.03174-1.15527.0957-1.90723h-.02734c-.10938.44189-.20752.75879-.29395.9502l-3.34961,7.5332h-.56055l-3.34277-7.47852c-.0957-.21875-.19385-.55371-.29395-1.00488h-.02734c.03662.39209.05469,1.03223.05469,1.9209v6.5625h-1.10742v-9.80273h1.51758l3.00781,6.83594c.23242.52393.38281.91602.45117,1.17578h.04102c.1958-.5376.35303-.93896.47168-1.20312l3.06934-6.80859h1.43555v9.80273Z" fill="#2f2f2f"/>
      <path d="M104.01895,257.24802h-4.94238c.01807.7793.22803,1.38086.62891,1.80469s.95264.63574,1.6543.63574c.78857,0,1.51318-.25977,2.17383-.7793v1.05273c-.61523.44678-1.42871.66992-2.44043.66992-.98877,0-1.76611-.31787-2.33105-.95361s-.84766-1.53027-.84766-2.68311c0-1.08936.30859-1.97656.92627-2.6626s1.38428-1.02881,2.30029-1.02881,1.62451.29639,2.12598.88867.75195,1.41504.75195,2.46777v.58789ZM102.87051,256.29783c-.00439-.64697-.16064-1.15088-.46826-1.51074s-.73486-.54004-1.28174-.54004c-.52881,0-.97754.18896-1.34668.56738s-.59717.87256-.68359,1.4834h3.78027Z" fill="#2f2f2f"/>
      <path d="M108.94326,260.39939c-.26416.146-.61279.21875-1.0459.21875-1.22607,0-1.83887-.68359-1.83887-2.05078v-4.14258h-1.20312v-.95703h1.20312v-1.70898l1.12109-.3623v2.07129h1.76367v.95703h-1.76367v3.94434c0,.46924.07959.8042.23926,1.00488s.42383.30078.79297.30078c.28271,0,.52637-.07764.73145-.23242v.95703Z" fill="#2f2f2f"/>
      <path d="M115.55996,260.46775h-1.12109v-1.09375h-.02734c-.48779.83838-1.20557,1.25781-2.15332,1.25781-.69727,0-1.24316-.18457-1.63721-.55371s-.59131-.85889-.59131-1.46973c0-1.30811.77002-2.06885,2.31055-2.2832l2.09863-.29395c0-1.18945-.48096-1.78418-1.44238-1.78418-.84326,0-1.604.28711-2.2832.86133v-1.14844c.68799-.4375,1.48096-.65625,2.37891-.65625,1.64502,0,2.46777.87061,2.46777,2.61133v4.55273ZM114.43887,256.92673l-1.68848.23242c-.51953.07275-.91162.20166-1.17578.38623s-.39648.51172-.39648.98096c0,.3418.12207.62109.36572.8374s.56836.32471.97412.32471c.55615,0,1.01514-.19482,1.37744-.58447s.54346-.88281.54346-1.47998v-.69727Z" fill="#2f2f2f"/>
      <path d="M123.62881,260.46775h-1.12109v-1.18945h-.02734c-.51953.90234-1.32178,1.35352-2.40625,1.35352-.87939,0-1.58252-.31348-2.10889-.93994s-.78955-1.47998-.78955-2.56006c0-1.15771.2915-2.08496.875-2.78223s1.36035-1.0459,2.33105-1.0459c.96143,0,1.66113.37842,2.09863,1.13477h.02734v-4.33398h1.12109v10.36328ZM122.50771,257.30271v-1.03223c0-.56494-.18701-1.04346-.56055-1.43555s-.84766-.58789-1.42188-.58789c-.68359,0-1.22119.25049-1.61328.75195s-.58789,1.19385-.58789,2.07812c0,.80664.18799,1.44336.56396,1.91064s.88086.70068,1.51416.70068c.62451,0,1.13135-.22559,1.521-.67676s.58447-1.021.58447-1.70898Z" fill="#2f2f2f"/>
      <path d="M130.78604,260.46775h-1.12109v-1.09375h-.02734c-.48779.83838-1.20557,1.25781-2.15332,1.25781-.69727,0-1.24316-.18457-1.63721-.55371s-.59131-.85889-.59131-1.46973c0-1.30811.77002-2.06885,2.31055-2.2832l2.09863-.29395c0-1.18945-.48096-1.78418-1.44238-1.78418-.84326,0-1.604.28711-2.2832.86133v-1.14844c.68799-.4375,1.48096-.65625,2.37891-.65625,1.64502,0,2.46777.87061,2.46777,2.61133v4.55273ZM129.66494,256.92673l-1.68848.23242c-.51953.07275-.91162.20166-1.17578.38623s-.39648.51172-.39648.98096c0,.3418.12207.62109.36572.8374s.56836.32471.97412.32471c.55615,0,1.01514-.19482,1.37744-.58447s.54346-.88281.54346-1.47998v-.69727Z" fill="#2f2f2f"/>
      <path d="M136.04434,260.39939c-.26416.146-.61279.21875-1.0459.21875-1.22607,0-1.83887-.68359-1.83887-2.05078v-4.14258h-1.20312v-.95703h1.20312v-1.70898l1.12109-.3623v2.07129h1.76367v.95703h-1.76367v3.94434c0,.46924.07959.8042.23926,1.00488s.42383.30078.79297.30078c.28271,0,.52637-.07764.73145-.23242v.95703Z" fill="#2f2f2f"/>
      <path d="M142.66152,260.46775h-1.12109v-1.09375h-.02734c-.48779.83838-1.20557,1.25781-2.15332,1.25781-.69727,0-1.24316-.18457-1.63721-.55371s-.59131-.85889-.59131-1.46973c0-1.30811.77002-2.06885,2.31055-2.2832l2.09863-.29395c0-1.18945-.48096-1.78418-1.44238-1.78418-.84326,0-1.604.28711-2.2832.86133v-1.14844c.68799-.4375,1.48096-.65625,2.37891-.65625,1.64502,0,2.46777.87061,2.46777,2.61133v4.55273ZM141.54043,256.92673l-1.68848.23242c-.51953.07275-.91162.20166-1.17578.38623s-.39648.51172-.39648.98096c0,.3418.12207.62109.36572.8374s.56836.32471.97412.32471c.55615,0,1.01514-.19482,1.37744-.58447s.54346-.88281.54346-1.47998v-.69727Z" fill="#2f2f2f"/>
    </g>
    <g>
      <rect x="11.00943" y="92.69211" width="57.18205" height="35.32447" fill="none"/>
      <path d="M14.33926,101.21628v3.37695h-2.20801v-9.80273h3.45898c2.47021,0,3.70508,1.0415,3.70508,3.12402,0,.98438-.35449,1.78076-1.06299,2.38916s-1.65527.9126-2.84033.9126h-1.05273ZM14.33926,96.48582v3.05566h.86816c1.17578,0,1.76367-.51514,1.76367-1.54492,0-1.00732-.58789-1.51074-1.76367-1.51074h-.86816Z" fill="#2f2f2f"/>
      <path d="M24.96475,99.54148c-.25977-.14111-.56299-.21191-.90918-.21191-.46924,0-.83643.17188-1.10059.51611s-.39648.8125-.39648,1.40479v3.34277h-2.16016v-7h2.16016v1.29883h.02734c.3418-.94775.95703-1.42188,1.8457-1.42188.22803,0,.40576.02734.5332.08203v1.98926Z" fill="#2f2f2f"/>
      <path d="M27.05117,96.48582c-.36475,0-.66309-.1084-.89551-.32471s-.34863-.48193-.34863-.79639c0-.32373.11621-.58789.34863-.79297s.53076-.30762.89551-.30762c.36914,0,.66895.10254.89893.30762s.34521.46924.34521.79297c0,.32812-.11523.59717-.34521.80664s-.52979.31445-.89893.31445ZM28.11758,104.59324h-2.16016v-7h2.16016v7Z" fill="#2f2f2f"/>
      <path d="M41.01455,104.59324h-2.15332v-3.99219c0-1.01611-.37354-1.52441-1.12109-1.52441-.35547,0-.64502.15283-.86816.45801s-.33496.68604-.33496,1.1416v3.91699h-2.16016v-4.0332c0-.98877-.3667-1.4834-1.10059-1.4834-.36914,0-.66406.146-.88525.4375s-.33154.68799-.33154,1.18945v3.88965h-2.16016v-7h2.16016v1.09375h.02734c.22314-.37354.53662-.67773.93994-.9126s.84424-.35205,1.32275-.35205c.98877,0,1.66553.43506,2.03027,1.30566.5332-.87061,1.31689-1.30566,2.35156-1.30566,1.52197,0,2.2832.93896,2.2832,2.81641v4.35449Z" fill="#2f2f2f"/>
      <path d="M48.57998,104.59324h-2.04395v-1.00488h-.02734c-.46924.78369-1.16455,1.17578-2.08496,1.17578-.6792,0-1.21338-.19238-1.60303-.57764s-.58447-.89893-.58447-1.5415c0-1.35791.8042-2.14209,2.41309-2.35156l1.90039-.25293c0-.76562-.41455-1.14844-1.24414-1.14844-.83398,0-1.62695.24854-2.37891.74512v-1.62695c.30078-.15479.71191-.2915,1.23389-.41016s.99707-.17773,1.42529-.17773c1.99609,0,2.99414.99561,2.99414,2.9873v4.18359ZM46.54971,101.74949v-.47168l-1.27148.16406c-.70166.09131-1.05273.40771-1.05273.9502,0,.24609.08545.44775.25635.60498s.40234.23584.69385.23584c.40576,0,.73584-.14014.99121-.42041s.38281-.63477.38281-1.06299Z" fill="#2f2f2f"/>
      <path d="M54.84268,99.54148c-.25977-.14111-.56299-.21191-.90918-.21191-.46924,0-.83643.17188-1.10059.51611s-.39648.8125-.39648,1.40479v3.34277h-2.16016v-7h2.16016v1.29883h.02734c.3418-.94775.95703-1.42188,1.8457-1.42188.22803,0,.40576.02734.5332.08203v1.98926Z" fill="#2f2f2f"/>
      <path d="M62.9623,97.59324l-2.84375,7.56055c-.68359,1.81836-1.71338,2.72754-3.08984,2.72754-.52393,0-.95459-.05908-1.29199-.17773v-1.72266c.28711.16846.59912.25293.93652.25293.55615,0,.94336-.26221,1.16211-.78613l.36914-.86816-2.84375-6.98633h2.39258l1.30566,4.25879c.08203.26416.146.57666.19141.93652h.02734c.04102-.26416.11621-.57178.22559-.92285l1.31934-4.27246h2.13965Z" fill="#2f2f2f"/>
      <path d="M15.79531,115.52781c-.1958-.15039-.47852-.22559-.84766-.22559-.47852,0-.87842.22559-1.19971.67676s-.48193,1.06641-.48193,1.8457v3.56836h-1.12109v-7h1.12109v1.44238h.02734c.15967-.49219.40332-.87598.73145-1.15186s.69482-.41357,1.10059-.41357c.2915,0,.51514.03174.66992.0957v1.16211Z" fill="#2f2f2f"/>
      <path d="M22.63809,118.17332h-4.94238c.01807.7793.22803,1.38086.62891,1.80469s.95264.63574,1.6543.63574c.78857,0,1.51318-.25977,2.17383-.7793v1.05273c-.61523.44678-1.42871.66992-2.44043.66992-.98877,0-1.76611-.31787-2.33105-.95361s-.84766-1.53027-.84766-2.68311c0-1.08936.30859-1.97656.92627-2.6626s1.38428-1.02881,2.30029-1.02881,1.62451.29639,2.12598.88867.75195,1.41504.75195,2.46777v.58789ZM21.48965,117.22312c-.00439-.64697-.16064-1.15088-.46826-1.51074s-.73486-.54004-1.28174-.54004c-.52881,0-.97754.18896-1.34668.56738s-.59717.87256-.68359,1.4834h3.78027Z" fill="#2f2f2f"/>
      <path d="M30.33877,120.83249c0,2.57031-1.23047,3.85547-3.69141,3.85547-.86572,0-1.62256-.16406-2.26953-.49219v-1.12109c.78857.4375,1.54053.65625,2.25586.65625,1.72266,0,2.58398-.91602,2.58398-2.74805v-.76562h-.02734c-.5332.89307-1.33545,1.33984-2.40625,1.33984-.87061,0-1.57129-.31104-2.10205-.93311s-.79639-1.45703-.79639-2.50537c0-1.18945.28613-2.13525.85791-2.83691s1.35449-1.05273,2.34814-1.05273c.94336,0,1.64307.37842,2.09863,1.13477h.02734v-.9707h1.12109v6.43945ZM29.21768,118.228v-1.03223c0-.55615-.18799-1.03223-.56396-1.42871s-.84424-.59473-1.40479-.59473c-.69287,0-1.23486.25195-1.62695.75537s-.58789,1.20898-.58789,2.11572c0,.7793.18799,1.40234.56396,1.86963s.87402.70068,1.49365.70068c.62891,0,1.14062-.22314,1.53467-.66992s.59131-1.01855.59131-1.71582Z" fill="#2f2f2f"/>
      <path d="M33.02871,112.6157c-.20068,0-.37158-.06836-.5127-.20508s-.21191-.31006-.21191-.51953.0708-.38379.21191-.52295.31201-.2085.5127-.2085c.20508,0,.37939.06934.52295.2085s.21533.31348.21533.52295c0,.20068-.07178.37158-.21533.5127s-.31787.21191-.52295.21191ZM33.57559,121.39304h-1.12109v-7h1.12109v7Z" fill="#2f2f2f"/>
      <path d="M38.66982,121.5571c-1.03467,0-1.86035-.32715-2.47803-.98096s-.92627-1.521-.92627-2.60107c0-1.17578.32129-2.09424.96387-2.75488s1.51074-.99121,2.60449-.99121c1.04346,0,1.8584.32129,2.44385.96387s.87842,1.53369.87842,2.67285c0,1.1167-.31543,2.01074-.94678,2.68311s-1.47754,1.0083-2.53955,1.0083ZM38.75186,115.17234c-.72021,0-1.28955.24512-1.70898.73486s-.62891,1.16553-.62891,2.02686c0,.82959.21191,1.4834.63574,1.96191s.99121.71777,1.70215.71777c.72461,0,1.28174-.23486,1.67139-.7041s.58447-1.13721.58447-2.00293c0-.875-.19482-1.54932-.58447-2.02344s-.94678-.71094-1.67139-.71094Z" fill="#2f2f2f"/>
      <path d="M49.68203,121.39304h-1.12109v-3.99219c0-1.48584-.54248-2.22852-1.62695-2.22852-.56055,0-1.02441.21094-1.39111.63232s-.55029.95361-.55029,1.59619v3.99219h-1.12109v-7h1.12109v1.16211h.02734c.52881-.88428,1.29443-1.32617,2.29688-1.32617.76562,0,1.35107.24707,1.75684.7417s.6084,1.20898.6084,2.14307v4.2793Z" fill="#2f2f2f"/>
    </g>
    <g>
      <rect x="508.42842" y="92.00972" width="78.981" height="38.04051" fill="none"/>
      <path d="M519.09805,103.53415v-2.1875c.39648.33252.82715.58203,1.29199.74854s.93408.24951,1.4082.24951c.27783,0,.52051-.0249.72803-.0752s.38037-.11963.51953-.2085.24268-.19385.31104-.31445.10254-.25195.10254-.39307c0-.19141-.05469-.3623-.16406-.5127s-.25879-.28955-.44775-.41699-.41357-.25049-.67334-.36914-.54004-.23926-.84082-.3623c-.76562-.31885-1.33643-.7085-1.7124-1.16895s-.56396-1.01611-.56396-1.66797c0-.51025.10254-.94922.30762-1.31592s.48438-.66895.8374-.90576.76221-.41113,1.22705-.52295.95703-.16748,1.47656-.16748c.51025,0,.96289.03076,1.35693.09229s.75781.15625,1.09033.28369v2.04395c-.16406-.11377-.34277-.21436-.53662-.30078s-.39307-.1582-.59814-.21533-.40918-.09912-.61182-.12646-.39551-.04102-.57764-.04102c-.25049,0-.47852.02393-.68359.07178s-.37842.11523-.51953.20166-.25049.19043-.32812.31104-.11621.25635-.11621.40674c0,.16406.04346.31104.12988.44092s.20947.25293.36914.36914.35303.22998.58105.3418.48535.22656.77246.34521c.39209.16406.74414.33838,1.05615.52295s.58008.39307.80322.62549.39404.49805.5127.79639.17773.646.17773,1.04248c0,.54688-.10352,1.00586-.31104,1.37744s-.48877.67236-.84424.90234-.76904.39551-1.24072.49561-.96973.15039-1.49365.15039c-.5376,0-1.04932-.04541-1.53467-.13672s-.90576-.22803-1.26123-.41016Z" fill="#2f2f2f"/>
      <path d="M533.47402,101.02537h-4.56641c.07275,1.01611.71338,1.52441,1.9209,1.52441.77002,0,1.44678-.18213,2.03027-.54688v1.55859c-.64697.34619-1.48779.51953-2.52246.51953-1.13037,0-2.00732-.31348-2.63184-.93994s-.93652-1.50049-.93652-2.62158c0-1.16211.3374-2.08252,1.01172-2.76172s1.50391-1.01855,2.48828-1.01855c1.021,0,1.81055.30322,2.36865.90918s.8374,1.42871.8374,2.46777v.90918ZM531.47109,99.69919c0-1.00244-.40576-1.50391-1.2168-1.50391-.34619,0-.646.14355-.89893.43066s-.40674.64502-.46143,1.07324h2.57715Z" fill="#2f2f2f"/>
      <path d="M540.14492,103.6572c-.48779.28271-1.19189.42383-2.1123.42383-1.07568,0-1.9458-.32568-2.61133-.97754s-.99805-1.49268-.99805-2.52246c0-1.18945.35645-2.12695,1.06982-2.81299s1.66699-1.02881,2.86084-1.02881c.82471,0,1.42188.10938,1.79102.32812v1.83203c-.45117-.3374-.95459-.50586-1.51074-.50586-.61963,0-1.11084.18115-1.47314.54346s-.54346.8623-.54346,1.50049c0,.61963.17334,1.10645.51953,1.45947s.82275.52979,1.42871.52979c.5376,0,1.06396-.16846,1.5791-.50586v1.73633Z" fill="#2f2f2f"/>
      <path d="M544.8749,104.08103c-1.1665,0-2.08398-.32715-2.75146-.98096s-1.00146-1.5415-1.00146-2.6626c0-1.15771.34619-2.06348,1.03906-2.71729s1.62939-.98096,2.80957-.98096c1.16211,0,2.07373.32715,2.73438.98096s.99121,1.51855.99121,2.59424c0,1.16211-.34082,2.08057-1.02197,2.75488s-1.61426,1.01172-2.79932,1.01172ZM544.92959,98.39353c-.51025,0-.90674.17529-1.18945.52637s-.42383.84766-.42383,1.49023c0,1.34424.54248,2.0166,1.62695,2.0166,1.03467,0,1.55176-.69043,1.55176-2.07129,0-1.30811-.52197-1.96191-1.56543-1.96191Z" fill="#2f2f2f"/>
      <path d="M556.8373,103.91013h-2.15332v-3.88965c0-1.08447-.38721-1.62695-1.16211-1.62695-.37354,0-.68115.14355-.92285.43066s-.3623.65186-.3623,1.09375v3.99219h-2.16016v-7h2.16016v1.10742h.02734c.51514-.85205,1.26465-1.27832,2.24902-1.27832,1.54932,0,2.32422.96143,2.32422,2.88477v4.28613Z" fill="#2f2f2f"/>
      <path d="M565.41982,103.91013h-2.16016v-.96387h-.02734c-.49219.75635-1.21436,1.13477-2.16699,1.13477-.875,0-1.5791-.30859-2.1123-.92627s-.7998-1.47998-.7998-2.5874c0-1.15771.29395-2.08496.88184-2.78223s1.35791-1.0459,2.31055-1.0459c.90234,0,1.53125.32373,1.88672.9707h.02734v-4.16309h2.16016v10.36328ZM563.30068,100.50583v-.52637c0-.45557-.13232-.83398-.39648-1.13477s-.6084-.45117-1.03223-.45117c-.47852,0-.85205.18799-1.12109.56396s-.40332.89209-.40332,1.54834c0,.61523.12988,1.08936.38965,1.42188s.61963.49902,1.08008.49902c.4375,0,.79395-.17529,1.06982-.52637s.41357-.81592.41357-1.39453Z" fill="#2f2f2f"/>
      <path d="M573.06777,103.91013h-2.04395v-1.00488h-.02734c-.46924.78369-1.16455,1.17578-2.08496,1.17578-.6792,0-1.21338-.19238-1.60303-.57764s-.58447-.89893-.58447-1.5415c0-1.35791.8042-2.14209,2.41309-2.35156l1.90039-.25293c0-.76562-.41455-1.14844-1.24414-1.14844-.83398,0-1.62695.24854-2.37891.74512v-1.62695c.30078-.15479.71191-.2915,1.23389-.41016s.99707-.17773,1.42529-.17773c1.99609,0,2.99414.99561,2.99414,2.9873v4.18359ZM571.0375,101.06638v-.47168l-1.27148.16406c-.70166.09131-1.05273.40771-1.05273.9502,0,.24609.08545.44775.25635.60498s.40234.23584.69385.23584c.40576,0,.73584-.14014.99121-.42041s.38281-.63477.38281-1.06299Z" fill="#2f2f2f"/>
      <path d="M579.33096,98.85837c-.25977-.14111-.56299-.21191-.90918-.21191-.46924,0-.83643.17188-1.10059.51611s-.39648.8125-.39648,1.40479v3.34277h-2.16016v-7h2.16016v1.29883h.02734c.3418-.94775.95703-1.42188,1.8457-1.42188.22803,0,.40576.02734.5332.08203v1.98926Z" fill="#2f2f2f"/>
      <path d="M587.4501,96.91013l-2.84375,7.56055c-.68359,1.81836-1.71338,2.72754-3.08984,2.72754-.52393,0-.95459-.05908-1.29199-.17773v-1.72266c.28711.16846.59912.25293.93652.25293.55615,0,.94336-.26221,1.16211-.78613l.36914-.86816-2.84375-6.98633h2.39258l1.30566,4.25879c.08203.26416.146.57666.19141.93652h.02734c.04102-.26416.11621-.57178.22559-.92285l1.31934-4.27246h2.13965Z" fill="#2f2f2f"/>
      <path d="M552.54482,114.8447c-.1958-.15039-.47852-.22559-.84766-.22559-.47852,0-.87842.22559-1.19971.67676s-.48193,1.06641-.48193,1.8457v3.56836h-1.12109v-7h1.12109v1.44238h.02734c.15967-.49219.40332-.87598.73145-1.15186s.69482-.41357,1.10059-.41357c.2915,0,.51514.03174.66992.0957v1.16211Z" fill="#2f2f2f"/>
      <path d="M559.3876,117.49021h-4.94238c.01807.7793.22803,1.38086.62891,1.80469s.95264.63574,1.6543.63574c.78857,0,1.51318-.25977,2.17383-.7793v1.05273c-.61523.44678-1.42871.66992-2.44043.66992-.98877,0-1.76611-.31787-2.33105-.95361s-.84766-1.53027-.84766-2.68311c0-1.08936.30859-1.97656.92627-2.6626s1.38428-1.02881,2.30029-1.02881,1.62451.29639,2.12598.88867.75195,1.41504.75195,2.46777v.58789ZM558.23916,116.54001c-.00439-.64697-.16064-1.15088-.46826-1.51074s-.73486-.54004-1.28174-.54004c-.52881,0-.97754.18896-1.34668.56738s-.59717.87256-.68359,1.4834h3.78027Z" fill="#2f2f2f"/>
      <path d="M567.08828,120.14939c0,2.57031-1.23047,3.85547-3.69141,3.85547-.86572,0-1.62256-.16406-2.26953-.49219v-1.12109c.78857.4375,1.54053.65625,2.25586.65625,1.72266,0,2.58398-.91602,2.58398-2.74805v-.76562h-.02734c-.5332.89307-1.33545,1.33984-2.40625,1.33984-.87061,0-1.57129-.31104-2.10205-.93311s-.79639-1.45703-.79639-2.50537c0-1.18945.28613-2.13525.85791-2.83691s1.35449-1.05273,2.34814-1.05273c.94336,0,1.64307.37842,2.09863,1.13477h.02734v-.9707h1.12109v6.43945ZM565.96719,117.5449v-1.03223c0-.55615-.18799-1.03223-.56396-1.42871s-.84424-.59473-1.40479-.59473c-.69287,0-1.23486.25195-1.62695.75537s-.58789,1.20898-.58789,2.11572c0,.7793.18799,1.40234.56396,1.86963s.87402.70068,1.49365.70068c.62891,0,1.14062-.22314,1.53467-.66992s.59131-1.01855.59131-1.71582Z" fill="#2f2f2f"/>
      <path d="M569.77822,111.93259c-.20068,0-.37158-.06836-.5127-.20508s-.21191-.31006-.21191-.51953.0708-.38379.21191-.52295.31201-.2085.5127-.2085c.20508,0,.37939.06934.52295.2085s.21533.31348.21533.52295c0,.20068-.07178.37158-.21533.5127s-.31787.21191-.52295.21191ZM570.3251,120.70994h-1.12109v-7h1.12109v7Z" fill="#2f2f2f"/>
      <path d="M575.41934,120.874c-1.03467,0-1.86035-.32715-2.47803-.98096s-.92627-1.521-.92627-2.60107c0-1.17578.32129-2.09424.96387-2.75488s1.51074-.99121,2.60449-.99121c1.04346,0,1.8584.32129,2.44385.96387s.87842,1.53369.87842,2.67285c0,1.1167-.31543,2.01074-.94678,2.68311s-1.47754,1.0083-2.53955,1.0083ZM575.50137,114.48923c-.72021,0-1.28955.24512-1.70898.73486s-.62891,1.16553-.62891,2.02686c0,.82959.21191,1.4834.63574,1.96191s.99121.71777,1.70215.71777c.72461,0,1.28174-.23486,1.67139-.7041s.58447-1.13721.58447-2.00293c0-.875-.19482-1.54932-.58447-2.02344s-.94678-.71094-1.67139-.71094Z" fill="#2f2f2f"/>
      <path d="M586.43154,120.70994h-1.12109v-3.99219c0-1.48584-.54248-2.22852-1.62695-2.22852-.56055,0-1.02441.21094-1.39111.63232s-.55029.95361-.55029,1.59619v3.99219h-1.12109v-7h1.12109v1.16211h.02734c.52881-.88428,1.29443-1.32617,2.29688-1.32617.76562,0,1.35107.24707,1.75684.7417s.6084,1.20898.6084,2.14307v4.2793Z" fill="#2f2f2f"/>
    </g>
    <g>
      <path d="M284.81191,24.68308h-2.40625l-.69727-2.18066h-3.48633l-.69043,2.18066h-2.39258l3.56836-9.80273h2.61816l3.48633,9.80273ZM281.20254,20.8071l-1.05273-3.29492c-.07764-.24609-.13232-.54004-.16406-.88184h-.05469c-.02295.28711-.07959.57178-.1709.85449l-1.06641,3.32227h2.50879Z" fill="#2f2f2f"/>
      <path d="M292.55264,23.88328c0,1.29883-.37598,2.30469-1.12793,3.01807s-1.84131,1.06982-3.26758,1.06982c-.94336,0-1.69092-.13428-2.24219-.40332v-1.81836c.72021.41943,1.44678.62891,2.18066.62891.729,0,1.29443-.19238,1.69531-.57764s.60156-.9082.60156-1.56885v-.55371h-.02734c-.49219.78369-1.21924,1.17578-2.18066,1.17578-.89307,0-1.60205-.31445-2.12598-.94336s-.78613-1.47217-.78613-2.5293c0-1.18506.2915-2.12598.875-2.82324s1.35107-1.0459,2.30371-1.0459c.85205,0,1.49023.32812,1.91406.98438h.02734v-.81348h2.16016v6.2002ZM290.41982,21.3198v-.55371c0-.44189-.13086-.81934-.39307-1.13135s-.60254-.46826-1.02197-.46826c-.47852,0-.85449.18701-1.12793.56055s-.41016.8999-.41016,1.5791c0,.5835.12988,1.04492.38965,1.38428s.61523.50928,1.06641.50928c.44678,0,.80762-.17188,1.0835-.51611s.41357-.79883.41357-1.36377Z" fill="#2f2f2f"/>
      <path d="M300.64639,21.79832h-4.56641c.07275,1.01611.71338,1.52441,1.9209,1.52441.77002,0,1.44678-.18213,2.03027-.54688v1.55859c-.64697.34619-1.48779.51953-2.52246.51953-1.13037,0-2.00732-.31348-2.63184-.93994s-.93652-1.50049-.93652-2.62158c0-1.16211.3374-2.08252,1.01172-2.76172s1.50391-1.01855,2.48828-1.01855c1.021,0,1.81055.30322,2.36865.90918s.8374,1.42871.8374,2.46777v.90918ZM298.64346,20.47214c0-1.00244-.40576-1.50391-1.2168-1.50391-.34619,0-.646.14355-.89893.43066s-.40674.64502-.46143,1.07324h2.57715Z" fill="#2f2f2f"/>
      <path d="M308.77188,24.68308h-2.15332v-3.88965c0-1.08447-.38721-1.62695-1.16211-1.62695-.37354,0-.68115.14355-.92285.43066s-.3623.65186-.3623,1.09375v3.99219h-2.16016v-7h2.16016v1.10742h.02734c.51514-.85205,1.26465-1.27832,2.24902-1.27832,1.54932,0,2.32422.96143,2.32422,2.88477v4.28613Z" fill="#2f2f2f"/>
      <path d="M314.62148,24.60105c-.31885.16846-.7998.25293-1.44238.25293-1.52197,0-2.2832-.79053-2.2832-2.37207v-3.20605h-1.13477v-1.59277h1.13477v-1.51074l2.15332-.61523v2.12598h1.57227v1.59277h-1.57227v2.83008c0,.729.28955,1.09375.86816,1.09375.22803,0,.4624-.06592.7041-.19824v1.59961Z" fill="#2f2f2f"/>
    </g>
    <g>
      <rect x="396.08359" y="168.65023" width="176" height="18.05239" fill="none"/>
      <path d="M436.24697,180.17527v-2.1875c.39648.33252.82715.58203,1.29199.74854s.93408.24951,1.4082.24951c.27783,0,.52051-.0249.72803-.0752s.38037-.11963.51953-.2085.24268-.19385.31104-.31445.10254-.25195.10254-.39307c0-.19141-.05469-.3623-.16406-.5127s-.25879-.28955-.44775-.41699-.41357-.25049-.67334-.36914-.54004-.23926-.84082-.3623c-.76562-.31885-1.33643-.7085-1.7124-1.16895s-.56396-1.01611-.56396-1.66797c0-.51025.10254-.94922.30762-1.31592s.48438-.66895.8374-.90576.76221-.41113,1.22705-.52295.95703-.16748,1.47656-.16748c.51025,0,.96289.03076,1.35693.09229s.75781.15625,1.09033.28369v2.04395c-.16406-.11377-.34277-.21436-.53662-.30078s-.39307-.1582-.59814-.21533-.40918-.09912-.61182-.12646-.39551-.04102-.57764-.04102c-.25049,0-.47852.02393-.68359.07178s-.37842.11523-.51953.20166-.25049.19043-.32812.31104-.11621.25635-.11621.40674c0,.16406.04346.31104.12988.44092s.20947.25293.36914.36914.35303.22998.58105.3418.48535.22656.77246.34521c.39209.16406.74414.33838,1.05615.52295s.58008.39307.80322.62549.39404.49805.5127.79639.17773.646.17773,1.04248c0,.54688-.10352,1.00586-.31104,1.37744s-.48877.67236-.84424.90234-.76904.39551-1.24072.49561-.96973.15039-1.49365.15039c-.5376,0-1.04932-.04541-1.53467-.13672s-.90576-.22803-1.26123-.41016Z" fill="#2f2f2f"/>
      <path d="M448.34414,180.46921c-.31885.16846-.7998.25293-1.44238.25293-1.52197,0-2.2832-.79053-2.2832-2.37207v-3.20605h-1.13477v-1.59277h1.13477v-1.51074l2.15332-.61523v2.12598h1.57227v1.59277h-1.57227v2.83008c0,.729.28955,1.09375.86816,1.09375.22803,0,.4624-.06592.7041-.19824v1.59961Z" fill="#2f2f2f"/>
      <path d="M452.87734,180.72214c-1.1665,0-2.08398-.32715-2.75146-.98096s-1.00146-1.5415-1.00146-2.6626c0-1.15771.34619-2.06348,1.03906-2.71729s1.62939-.98096,2.80957-.98096c1.16211,0,2.07373.32715,2.73438.98096s.99121,1.51855.99121,2.59424c0,1.16211-.34082,2.08057-1.02197,2.75488s-1.61426,1.01172-2.79932,1.01172ZM452.93203,175.03464c-.51025,0-.90674.17529-1.18945.52637s-.42383.84766-.42383,1.49023c0,1.34424.54248,2.0166,1.62695,2.0166,1.03467,0,1.55176-.69043,1.55176-2.07129,0-1.30811-.52197-1.96191-1.56543-1.96191Z" fill="#2f2f2f"/>
      <path d="M462.64688,175.49949c-.25977-.14111-.56299-.21191-.90918-.21191-.46924,0-.83643.17188-1.10059.51611s-.39648.8125-.39648,1.40479v3.34277h-2.16016v-7h2.16016v1.29883h.02734c.3418-.94775.95703-1.42188,1.8457-1.42188.22803,0,.40576.02734.5332.08203v1.98926Z" fill="#2f2f2f"/>
      <path d="M469.371,180.55124h-2.04395v-1.00488h-.02734c-.46924.78369-1.16455,1.17578-2.08496,1.17578-.6792,0-1.21338-.19238-1.60303-.57764s-.58447-.89893-.58447-1.5415c0-1.35791.8042-2.14209,2.41309-2.35156l1.90039-.25293c0-.76562-.41455-1.14844-1.24414-1.14844-.83398,0-1.62695.24854-2.37891.74512v-1.62695c.30078-.15479.71191-.2915,1.23389-.41016s.99707-.17773,1.42529-.17773c1.99609,0,2.99414.99561,2.99414,2.9873v4.18359ZM467.34072,177.70749v-.47168l-1.27148.16406c-.70166.09131-1.05273.40771-1.05273.9502,0,.24609.08545.44775.25635.60498s.40234.23584.69385.23584c.40576,0,.73584-.14014.99121-.42041s.38281-.63477.38281-1.06299Z" fill="#2f2f2f"/>
      <path d="M477.96572,179.75144c0,1.29883-.37598,2.30469-1.12793,3.01807s-1.84131,1.06982-3.26758,1.06982c-.94336,0-1.69092-.13428-2.24219-.40332v-1.81836c.72021.41943,1.44678.62891,2.18066.62891.729,0,1.29443-.19238,1.69531-.57764s.60156-.9082.60156-1.56885v-.55371h-.02734c-.49219.78369-1.21924,1.17578-2.18066,1.17578-.89307,0-1.60205-.31445-2.12598-.94336s-.78613-1.47217-.78613-2.5293c0-1.18506.2915-2.12598.875-2.82324s1.35107-1.0459,2.30371-1.0459c.85205,0,1.49023.32812,1.91406.98438h.02734v-.81348h2.16016v6.2002ZM475.83291,177.18796v-.55371c0-.44189-.13086-.81934-.39307-1.13135s-.60254-.46826-1.02197-.46826c-.47852,0-.85449.18701-1.12793.56055s-.41016.8999-.41016,1.5791c0,.5835.12988,1.04492.38965,1.38428s.61523.50928,1.06641.50928c.44678,0,.80762-.17188,1.0835-.51611s.41357-.79883.41357-1.36377Z" fill="#2f2f2f"/>
      <path d="M486.05947,177.66648h-4.56641c.07275,1.01611.71338,1.52441,1.9209,1.52441.77002,0,1.44678-.18213,2.03027-.54688v1.55859c-.64697.34619-1.48779.51953-2.52246.51953-1.13037,0-2.00732-.31348-2.63184-.93994s-.93652-1.50049-.93652-2.62158c0-1.16211.3374-2.08252,1.01172-2.76172s1.50391-1.01855,2.48828-1.01855c1.021,0,1.81055.30322,2.36865.90918s.8374,1.42871.8374,2.46777v.90918ZM484.05654,176.34031c0-1.00244-.40576-1.50391-1.2168-1.50391-.34619,0-.646.14355-.89893.43066s-.40674.64502-.46143,1.07324h2.57715Z" fill="#2f2f2f"/>
      <path d="M502.58877,180.55124h-2.18066v-5.86523c0-.6333.02734-1.33301.08203-2.09863h-.05469c-.11377.60156-.21631,1.03467-.30762,1.29883l-2.29688,6.66504h-1.80469l-2.33789-6.59668c-.06396-.17773-.1665-.6333-.30762-1.36719h-.06152c.05908.96631.08887,1.81396.08887,2.54297v5.4209h-1.98926v-9.80273h3.2334l2.00293,5.81055c.15967.46484.27588.93213.34863,1.40137h.04102c.12305-.54248.25293-1.01416.38965-1.41504l2.00293-5.79688h3.15137v9.80273Z" fill="#2f2f2f"/>
      <path d="M507.88662,180.72214c-1.1665,0-2.08398-.32715-2.75146-.98096s-1.00146-1.5415-1.00146-2.6626c0-1.15771.34619-2.06348,1.03906-2.71729s1.62939-.98096,2.80957-.98096c1.16211,0,2.07373.32715,2.73438.98096s.99121,1.51855.99121,2.59424c0,1.16211-.34082,2.08057-1.02197,2.75488s-1.61426,1.01172-2.79932,1.01172ZM507.94131,175.03464c-.51025,0-.90674.17529-1.18945.52637s-.42383.84766-.42383,1.49023c0,1.34424.54248,2.0166,1.62695,2.0166,1.03467,0,1.55176-.69043,1.55176-2.07129,0-1.30811-.52197-1.96191-1.56543-1.96191Z" fill="#2f2f2f"/>
      <path d="M519.57559,173.55124l-2.60449,7h-2.46094l-2.48145-7h2.31055l1.2168,4.31348c.13672.48779.21631.90234.23926,1.24414h.02734c.03174-.32373.11621-.72461.25293-1.20312l1.24414-4.35449h2.25586Z" fill="#2f2f2f"/>
      <path d="M526.56338,177.66648h-4.56641c.07275,1.01611.71338,1.52441,1.9209,1.52441.77002,0,1.44678-.18213,2.03027-.54688v1.55859c-.64697.34619-1.48779.51953-2.52246.51953-1.13037,0-2.00732-.31348-2.63184-.93994s-.93652-1.50049-.93652-2.62158c0-1.16211.3374-2.08252,1.01172-2.76172s1.50391-1.01855,2.48828-1.01855c1.021,0,1.81055.30322,2.36865.90918s.8374,1.42871.8374,2.46777v.90918ZM524.56045,176.34031c0-1.00244-.40576-1.50391-1.2168-1.50391-.34619,0-.646.14355-.89893.43066s-.40674.64502-.46143,1.07324h2.57715Z" fill="#2f2f2f"/>
      <path d="M532.49453,175.49949c-.25977-.14111-.56299-.21191-.90918-.21191-.46924,0-.83643.17188-1.10059.51611s-.39648.8125-.39648,1.40479v3.34277h-2.16016v-7h2.16016v1.29883h.02734c.3418-.94775.95703-1.42188,1.8457-1.42188.22803,0,.40576.02734.5332.08203v1.98926Z" fill="#2f2f2f"/>
    </g>
    <g>
      <path d="M465.92422,260.46775h-1.1416v-6.57617c0-.51953.03174-1.15527.0957-1.90723h-.02734c-.10938.44189-.20752.75879-.29395.9502l-3.34961,7.5332h-.56055l-3.34277-7.47852c-.0957-.21875-.19385-.55371-.29395-1.00488h-.02734c.03662.39209.05469,1.03223.05469,1.9209v6.5625h-1.10742v-9.80273h1.51758l3.00781,6.83594c.23242.52393.38281.91602.45117,1.17578h.04102c.1958-.5376.35303-.93896.47168-1.20312l3.06934-6.80859h1.43555v9.80273Z" fill="#2f2f2f"/>
      <path d="M473.90273,257.24802h-4.94238c.01807.7793.22803,1.38086.62891,1.80469s.95264.63574,1.6543.63574c.78857,0,1.51318-.25977,2.17383-.7793v1.05273c-.61523.44678-1.42871.66992-2.44043.66992-.98877,0-1.76611-.31787-2.33105-.95361s-.84766-1.53027-.84766-2.68311c0-1.08936.30859-1.97656.92627-2.6626s1.38428-1.02881,2.30029-1.02881,1.62451.29639,2.12598.88867.75195,1.41504.75195,2.46777v.58789ZM472.7543,256.29783c-.00439-.64697-.16064-1.15088-.46826-1.51074s-.73486-.54004-1.28174-.54004c-.52881,0-.97754.18896-1.34668.56738s-.59717.87256-.68359,1.4834h3.78027Z" fill="#2f2f2f"/>
      <path d="M478.82705,260.39939c-.26416.146-.61279.21875-1.0459.21875-1.22607,0-1.83887-.68359-1.83887-2.05078v-4.14258h-1.20312v-.95703h1.20312v-1.70898l1.12109-.3623v2.07129h1.76367v.95703h-1.76367v3.94434c0,.46924.07959.8042.23926,1.00488s.42383.30078.79297.30078c.28271,0,.52637-.07764.73145-.23242v.95703Z" fill="#2f2f2f"/>
      <path d="M485.44375,260.46775h-1.12109v-1.09375h-.02734c-.48779.83838-1.20557,1.25781-2.15332,1.25781-.69727,0-1.24316-.18457-1.63721-.55371s-.59131-.85889-.59131-1.46973c0-1.30811.77002-2.06885,2.31055-2.2832l2.09863-.29395c0-1.18945-.48096-1.78418-1.44238-1.78418-.84326,0-1.604.28711-2.2832.86133v-1.14844c.68799-.4375,1.48096-.65625,2.37891-.65625,1.64502,0,2.46777.87061,2.46777,2.61133v4.55273ZM484.32266,256.92673l-1.68848.23242c-.51953.07275-.91162.20166-1.17578.38623s-.39648.51172-.39648.98096c0,.3418.12207.62109.36572.8374s.56836.32471.97412.32471c.55615,0,1.01514-.19482,1.37744-.58447s.54346-.88281.54346-1.47998v-.69727Z" fill="#2f2f2f"/>
      <path d="M493.5126,260.46775h-1.12109v-1.18945h-.02734c-.51953.90234-1.32178,1.35352-2.40625,1.35352-.87939,0-1.58252-.31348-2.10889-.93994s-.78955-1.47998-.78955-2.56006c0-1.15771.2915-2.08496.875-2.78223s1.36035-1.0459,2.33105-1.0459c.96143,0,1.66113.37842,2.09863,1.13477h.02734v-4.33398h1.12109v10.36328ZM492.3915,257.30271v-1.03223c0-.56494-.18701-1.04346-.56055-1.43555s-.84766-.58789-1.42188-.58789c-.68359,0-1.22119.25049-1.61328.75195s-.58789,1.19385-.58789,2.07812c0,.80664.18799,1.44336.56396,1.91064s.88086.70068,1.51416.70068c.62451,0,1.13135-.22559,1.521-.67676s.58447-1.021.58447-1.70898Z" fill="#2f2f2f"/>
      <path d="M500.66982,260.46775h-1.12109v-1.09375h-.02734c-.48779.83838-1.20557,1.25781-2.15332,1.25781-.69727,0-1.24316-.18457-1.63721-.55371s-.59131-.85889-.59131-1.46973c0-1.30811.77002-2.06885,2.31055-2.2832l2.09863-.29395c0-1.18945-.48096-1.78418-1.44238-1.78418-.84326,0-1.604.28711-2.2832.86133v-1.14844c.68799-.4375,1.48096-.65625,2.37891-.65625,1.64502,0,2.46777.87061,2.46777,2.61133v4.55273ZM499.54873,256.92673l-1.68848.23242c-.51953.07275-.91162.20166-1.17578.38623s-.39648.51172-.39648.98096c0,.3418.12207.62109.36572.8374s.56836.32471.97412.32471c.55615,0,1.01514-.19482,1.37744-.58447s.54346-.88281.54346-1.47998v-.69727Z" fill="#2f2f2f"/>
      <path d="M505.92813,260.39939c-.26416.146-.61279.21875-1.0459.21875-1.22607,0-1.83887-.68359-1.83887-2.05078v-4.14258h-1.20312v-.95703h1.20312v-1.70898l1.12109-.3623v2.07129h1.76367v.95703h-1.76367v3.94434c0,.46924.07959.8042.23926,1.00488s.42383.30078.79297.30078c.28271,0,.52637-.07764.73145-.23242v.95703Z" fill="#2f2f2f"/>
      <path d="M512.54531,260.46775h-1.12109v-1.09375h-.02734c-.48779.83838-1.20557,1.25781-2.15332,1.25781-.69727,0-1.24316-.18457-1.63721-.55371s-.59131-.85889-.59131-1.46973c0-1.30811.77002-2.06885,2.31055-2.2832l2.09863-.29395c0-1.18945-.48096-1.78418-1.44238-1.78418-.84326,0-1.604.28711-2.2832.86133v-1.14844c.68799-.4375,1.48096-.65625,2.37891-.65625,1.64502,0,2.46777.87061,2.46777,2.61133v4.55273ZM511.42422,256.92673l-1.68848.23242c-.51953.07275-.91162.20166-1.17578.38623s-.39648.51172-.39648.98096c0,.3418.12207.62109.36572.8374s.56836.32471.97412.32471c.55615,0,1.01514-.19482,1.37744-.58447s.54346-.88281.54346-1.47998v-.69727Z" fill="#2f2f2f"/>
    </g>
  </g>
</svg>