<?xml version="1.0" encoding="UTF-8"?>
<svg xmlns="http://www.w3.org/2000/svg" width="497.2" height="167.2" xmlns:xlink="http://www.w3.org/1999/xlink" viewBox="0 0 497.2 167.2">
  <defs>
    <linearGradient id="Cool_gray_gradient_1" data-name="Cool gray gradient 1" x1="8.8" y1="83.6" x2="162.8" y2="83.6" gradientUnits="userSpaceOnUse">
      <stop offset="0" stop-color="#f5f5f4"/>
      <stop offset="1" stop-color="#ececea"/>
    </linearGradient>
    <linearGradient id="Cool_gray_gradient_1-2" data-name="Cool gray gradient 1" x1="171.10813" x2="325.10813" xlink:href="#Cool_gray_gradient_1"/>
    <linearGradient id="Cool_gray_gradient_1-3" data-name="Cool gray gradient 1" x1="334.4" x2="488.4" xlink:href="#Cool_gray_gradient_1"/>
    <linearGradient id="linear-gradient" x1="248.64538" y1="5.94309" x2="248.44769" y2="-21.87092" gradientTransform="translate(0 86.65744) scale(1 -1)" gradientUnits="userSpaceOnUse">
      <stop offset="0" stop-color="#50e6ff"/>
      <stop offset="1" stop-color="#32bedd"/>
    </linearGradient>
    <linearGradient id="linear-gradient-2" x1="-368.21974" y1="1384.87203" x2="-368.21974" y2="1366.68388" gradientTransform="translate(617.12598 -1285.758)" gradientUnits="userSpaceOnUse">
      <stop offset=".001" stop-color="#a33a85"/>
      <stop offset="1" stop-color="#ce74b6"/>
    </linearGradient>
    <linearGradient id="linear-gradient-3" x1="237.56444" y1="9.12872" x2="237.56444" y2="4.69322" xlink:href="#linear-gradient"/>
    <linearGradient id="linear-gradient-4" x1="236.59261" y1="-14.43576" x2="236.59261" y2="-18.87128" xlink:href="#linear-gradient"/>
    <linearGradient id="linear-gradient-5" x1="260.62334" y1="-13.72408" x2="260.62334" y2="-18.1596" xlink:href="#linear-gradient"/>
  </defs>
  <g isolation="isolate">
    <g id="Shapes">
      <rect width="497.2" height="167.2" fill="#fff"/>
      <g>
        <g mix-blend-mode="multiply" opacity=".7">
          <rect x="9.3" y="9.3" width="154" height="149.6" rx="8" ry="8"/>
          <rect x="9.3" y="9.3" width="154" height="149.6" rx="8" ry="8" opacity=".2"/>
        </g>
        <g>
          <rect x="8.8" y="8.8" width="154" height="149.6" rx="8" ry="8" fill="url(#Cool_gray_gradient_1)"/>
          <rect x="8.8" y="8.8" width="154" height="149.6" rx="8" ry="8" fill="#0078d4" opacity=".2"/>
        </g>
      </g>
      <g>
        <g mix-blend-mode="multiply" opacity=".7">
          <rect x="171.60813" y="9.3" width="154" height="149.6" rx="8" ry="8"/>
          <rect x="171.60813" y="9.3" width="154" height="149.6" rx="8" ry="8" opacity=".2"/>
        </g>
        <g>
          <rect x="171.10813" y="8.8" width="154" height="149.6" rx="8" ry="8" fill="url(#Cool_gray_gradient_1-2)"/>
          <rect x="171.10813" y="8.8" width="154" height="149.6" rx="8" ry="8" fill="#0078d4" opacity=".2"/>
        </g>
      </g>
      <g>
        <g mix-blend-mode="multiply" opacity=".7">
          <rect x="334.9" y="9.3" width="154" height="149.6" rx="8" ry="8"/>
          <rect x="334.9" y="9.3" width="154" height="149.6" rx="8" ry="8" opacity=".2"/>
        </g>
        <g>
          <rect x="334.4" y="8.8" width="154" height="149.6" rx="8" ry="8" fill="url(#Cool_gray_gradient_1-3)"/>
          <rect x="334.4" y="8.8" width="154" height="149.6" rx="8" ry="8" fill="#0078d4" opacity=".2"/>
        </g>
      </g>
      <g>
        <rect x="8.00009" y="61.32872" width="480" height="79" fill="#fff"/>
        <rect x="8.00009" y="61.32872" width="480" height="79" fill="#590055" opacity=".07"/>
        <rect x="8.00009" y="61.32872" width="480" height="79" fill="none" opacity=".9" stroke="#590055" stroke-width=".35"/>
      </g>
      <g>
        <polygon points="261.01902 101.94296 238.19467 79.11703 236.93421 80.37591 247.64261 91.08589 235.96475 102.67836 237.21888 103.94199 248.90308 92.34477 259.76014 103.20184 261.01902 101.94296" fill="url(#linear-gradient)"/>
        <path d="M261.71963,93.41862c-.08224-2.81983-2.19514-5.16363-4.99125-5.53687-.16764-3.97433-3.50146-7.07567-7.47896-6.95232-3.1646-.05693-6.01923,1.89465-7.11521,4.86472-3.37336.40329-5.94331,3.21205-6.04453,6.60755.14708,3.84623,3.38443,6.84636,7.23224,6.69928h12.33736c.1028.0174.20718.0174.30839,0,3.13455-.03796,5.67604-2.54781,5.75511-5.68237h-.00316Z" fill="url(#linear-gradient-2)"/>
        <path d="M236.85355,81.84671c1.15925.39221,2.41813-.22932,2.81192-1.38857.39221-1.15925-.22932-2.41813-1.38857-2.81192-1.16083-.39221-2.41971.22932-2.81351,1.39015-.39221,1.15925.22932,2.41813,1.38857,2.81192l.00158-.00158Z" fill="url(#linear-gradient-3)"/>
        <path d="M235.88093,105.41121c1.15925.39221,2.41813-.22932,2.81192-1.38857.39221-1.15925-.22932-2.41813-1.38857-2.81192-1.15925-.39221-2.41813.22932-2.81192,1.38857-.39221,1.15925.22932,2.41813,1.38857,2.81192Z" fill="url(#linear-gradient-4)"/>
        <path d="M259.91197,104.69953c1.15925.39221,2.41813-.22932,2.81192-1.38857.39221-1.15925-.22932-2.41813-1.38857-2.81192-1.15925-.39221-2.41813.22932-2.81192,1.38857s.22932,2.41813,1.38857,2.81192Z" fill="url(#linear-gradient-5)"/>
      </g>
    </g>
    <g id="Text">
      <g>
        <path d="M34.26181,32.62999h-2.40625l-.69727-2.18066h-3.48633l-.69043,2.18066h-2.39258l3.56836-9.80273h2.61816l3.48633,9.80273ZM30.65244,28.75401l-1.05273-3.29492c-.07764-.24609-.13232-.54004-.16406-.88184h-.05469c-.02295.28711-.07959.57178-.1709.85449l-1.06641,3.32227h2.50879Z" fill="#2f2f2f"/>
        <path d="M41.62656,25.62999l-2.60449,7h-2.46094l-2.48145-7h2.31055l1.2168,4.31348c.13672.48779.21631.90234.23926,1.24414h.02734c.03174-.32373.11621-.72461.25293-1.20312l1.24414-4.35449h2.25586Z" fill="#2f2f2f"/>
        <path d="M48.28232,32.62999h-2.04395v-1.00488h-.02734c-.46924.78369-1.16455,1.17578-2.08496,1.17578-.6792,0-1.21338-.19238-1.60303-.57764s-.58447-.89893-.58447-1.5415c0-1.35791.8042-2.14209,2.41309-2.35156l1.90039-.25293c0-.76562-.41455-1.14844-1.24414-1.14844-.83398,0-1.62695.24854-2.37891.74512v-1.62695c.30078-.15479.71191-.2915,1.23389-.41016s.99707-.17773,1.42529-.17773c1.99609,0,2.99414.99561,2.99414,2.9873v4.18359ZM46.25204,29.78624v-.47168l-1.27148.16406c-.70166.09131-1.05273.40771-1.05273.9502,0,.24609.08545.44775.25635.60498s.40234.23584.69385.23584c.40576,0,.73584-.14014.99121-.42041s.38281-.63477.38281-1.06299Z" fill="#2f2f2f"/>
        <path d="M51.05283,24.52257c-.36475,0-.66309-.1084-.89551-.32471s-.34863-.48193-.34863-.79639c0-.32373.11621-.58789.34863-.79297s.53076-.30762.89551-.30762c.36914,0,.66895.10254.89893.30762s.34521.46924.34521.79297c0,.32812-.11523.59717-.34521.80664s-.52979.31445-.89893.31445ZM52.11923,32.62999h-2.16016v-7h2.16016v7Z" fill="#2f2f2f"/>
        <path d="M56.05429,32.62999h-2.16016v-10.36328h2.16016v10.36328Z" fill="#2f2f2f"/>
        <path d="M63.71933,32.62999h-2.04395v-1.00488h-.02734c-.46924.78369-1.16455,1.17578-2.08496,1.17578-.6792,0-1.21338-.19238-1.60303-.57764s-.58447-.89893-.58447-1.5415c0-1.35791.8042-2.14209,2.41309-2.35156l1.90039-.25293c0-.76562-.41455-1.14844-1.24414-1.14844-.83398,0-1.62695.24854-2.37891.74512v-1.62695c.30078-.15479.71191-.2915,1.23389-.41016s.99707-.17773,1.42529-.17773c1.99609,0,2.99414.99561,2.99414,2.9873v4.18359ZM61.68906,29.78624v-.47168l-1.27148.16406c-.70166.09131-1.05273.40771-1.05273.9502,0,.24609.08545.44775.25635.60498s.40234.23584.69385.23584c.40576,0,.73584-.14014.99121-.42041s.38281-.63477.38281-1.06299Z" fill="#2f2f2f"/>
        <path d="M67.60312,31.81651h-.02734v.81348h-2.16016v-10.36328h2.16016v4.41602h.02734c.5332-.81592,1.29199-1.22363,2.27637-1.22363.90234,0,1.59717.31006,2.08496.92969s.73145,1.46729.73145,2.54297c0,1.1665-.28467,2.10303-.85449,2.80957s-1.33057,1.05957-2.2832,1.05957c-.86133,0-1.51318-.32812-1.95508-.98438ZM67.5416,28.86339v.71777c0,.45117.12988.82471.38965,1.12109s.59229.44434.99805.44434c.49219,0,.87402-.19043,1.14502-.5708s.40674-.91943.40674-1.6167c0-.57861-.12402-1.03125-.37256-1.35693s-.60254-.48877-1.06299-.48877c-.43311,0-.79199.16162-1.07666.48535s-.42725.74512-.42725,1.26465Z" fill="#2f2f2f"/>
        <path d="M75.19101,24.52257c-.36475,0-.66309-.1084-.89551-.32471s-.34863-.48193-.34863-.79639c0-.32373.11621-.58789.34863-.79297s.53076-.30762.89551-.30762c.36914,0,.66895.10254.89893.30762s.34521.46924.34521.79297c0,.32812-.11523.59717-.34521.80664s-.52979.31445-.89893.31445ZM76.25742,32.62999h-2.16016v-7h2.16016v7Z" fill="#2f2f2f"/>
        <path d="M80.19296,32.62999h-2.16016v-10.36328h2.16016v10.36328Z" fill="#2f2f2f"/>
        <path d="M83.06161,24.52257c-.36475,0-.66309-.1084-.89551-.32471s-.34863-.48193-.34863-.79639c0-.32373.11621-.58789.34863-.79297s.53076-.30762.89551-.30762c.36914,0,.66895.10254.89893.30762s.34521.46924.34521.79297c0,.32812-.11523.59717-.34521.80664s-.52979.31445-.89893.31445ZM84.12802,32.62999h-2.16016v-7h2.16016v7Z" fill="#2f2f2f"/>
        <path d="M90.06406,32.54796c-.31885.16846-.7998.25293-1.44238.25293-1.52197,0-2.2832-.79053-2.2832-2.37207v-3.20605h-1.13477v-1.59277h1.13477v-1.51074l2.15332-.61523v2.12598h1.57227v1.59277h-1.57227v2.83008c0,.729.28955,1.09375.86816,1.09375.22803,0,.4624-.06592.7041-.19824v1.59961Z" fill="#2f2f2f"/>
        <path d="M98.28915,25.62999l-2.84375,7.56055c-.68359,1.81836-1.71338,2.72754-3.08984,2.72754-.52393,0-.95459-.05908-1.29199-.17773v-1.72266c.28711.16846.59912.25293.93652.25293.55615,0,.94336-.26221,1.16211-.78613l.36914-.86816-2.84375-6.98633h2.39258l1.30566,4.25879c.08203.26416.146.57666.19141.93652h.02734c.04102-.26416.11621-.57178.22559-.92285l1.31934-4.27246h2.13965Z" fill="#2f2f2f"/>
        <path d="M110.28622,32.62999h-7.89551v-1.27148l5.02441-6.7334h-4.66211v-1.79785h7.51953v1.2373l-4.91504,6.77441h4.92871v1.79102Z" fill="#2f2f2f"/>
        <path d="M114.80478,32.80089c-1.1665,0-2.08398-.32715-2.75146-.98096s-1.00146-1.5415-1.00146-2.6626c0-1.15771.34619-2.06348,1.03906-2.71729s1.62939-.98096,2.80957-.98096c1.16211,0,2.07373.32715,2.73438.98096s.99121,1.51855.99121,2.59424c0,1.16211-.34082,2.08057-1.02197,2.75488s-1.61426,1.01172-2.79932,1.01172ZM114.85947,27.11339c-.51025,0-.90674.17529-1.18945.52637s-.42383.84766-.42383,1.49023c0,1.34424.54248,2.0166,1.62695,2.0166,1.03467,0,1.55176-.69043,1.55176-2.07129,0-1.30811-.52197-1.96191-1.56543-1.96191Z" fill="#2f2f2f"/>
        <path d="M126.76718,32.62999h-2.15332v-3.88965c0-1.08447-.38721-1.62695-1.16211-1.62695-.37354,0-.68115.14355-.92285.43066s-.3623.65186-.3623,1.09375v3.99219h-2.16016v-7h2.16016v1.10742h.02734c.51514-.85205,1.26465-1.27832,2.24902-1.27832,1.54932,0,2.32422.96143,2.32422,2.88477v4.28613Z" fill="#2f2f2f"/>
        <path d="M134.78915,29.74522h-4.56641c.07275,1.01611.71338,1.52441,1.9209,1.52441.77002,0,1.44678-.18213,2.03027-.54688v1.55859c-.64697.34619-1.48779.51953-2.52246.51953-1.13037,0-2.00732-.31348-2.63184-.93994s-.93652-1.50049-.93652-2.62158c0-1.16211.3374-2.08252,1.01172-2.76172s1.50391-1.01855,2.48828-1.01855c1.021,0,1.81055.30322,2.36865.90918s.8374,1.42871.8374,2.46777v.90918ZM132.78622,28.41905c0-1.00244-.40576-1.50391-1.2168-1.50391-.34619,0-.646.14355-.89893.43066s-.40674.64502-.46143,1.07324h2.57715Z" fill="#2f2f2f"/>
        <path d="M144.71494,22.60851v10.02148h-2.15332v-7.58789c-.11865.10498-.25879.2041-.42041.29736s-.33398.17773-.51611.25293-.37158.13916-.56738.19141-.38965.08984-.58105.11279v-1.81836c.56055-.16406,1.08936-.37354,1.58594-.62891s.9458-.53564,1.34668-.84082h1.30566Z" fill="#2f2f2f"/>
      </g>
      <g>
        <path d="M357.72763,32.62999h-2.40625l-.69727-2.18066h-3.48633l-.69043,2.18066h-2.39258l3.56836-9.80273h2.61816l3.48633,9.80273ZM354.11826,28.75401l-1.05273-3.29492c-.07764-.24609-.13232-.54004-.16406-.88184h-.05469c-.02295.28711-.07959.57178-.1709.85449l-1.06641,3.32227h2.50879Z" fill="#2f2f2f"/>
        <path d="M365.09238,25.62999l-2.60449,7h-2.46094l-2.48145-7h2.31055l1.2168,4.31348c.13672.48779.21631.90234.23926,1.24414h.02734c.03174-.32373.11621-.72461.25293-1.20312l1.24414-4.35449h2.25586Z" fill="#2f2f2f"/>
        <path d="M371.74814,32.62999h-2.04395v-1.00488h-.02734c-.46924.78369-1.16455,1.17578-2.08496,1.17578-.6792,0-1.21338-.19238-1.60303-.57764s-.58447-.89893-.58447-1.5415c0-1.35791.8042-2.14209,2.41309-2.35156l1.90039-.25293c0-.76562-.41455-1.14844-1.24414-1.14844-.83398,0-1.62695.24854-2.37891.74512v-1.62695c.30078-.15479.71191-.2915,1.23389-.41016s.99707-.17773,1.42529-.17773c1.99609,0,2.99414.99561,2.99414,2.9873v4.18359ZM369.71786,29.78624v-.47168l-1.27148.16406c-.70166.09131-1.05273.40771-1.05273.9502,0,.24609.08545.44775.25635.60498s.40234.23584.69385.23584c.40576,0,.73584-.14014.99121-.42041s.38281-.63477.38281-1.06299Z" fill="#2f2f2f"/>
        <path d="M374.51865,24.52257c-.36475,0-.66309-.1084-.89551-.32471s-.34863-.48193-.34863-.79639c0-.32373.11621-.58789.34863-.79297s.53076-.30762.89551-.30762c.36914,0,.66895.10254.89893.30762s.34521.46924.34521.79297c0,.32812-.11523.59717-.34521.80664s-.52979.31445-.89893.31445ZM375.58505,32.62999h-2.16016v-7h2.16016v7Z" fill="#2f2f2f"/>
        <path d="M379.52011,32.62999h-2.16016v-10.36328h2.16016v10.36328Z" fill="#2f2f2f"/>
        <path d="M387.18515,32.62999h-2.04395v-1.00488h-.02734c-.46924.78369-1.16455,1.17578-2.08496,1.17578-.6792,0-1.21338-.19238-1.60303-.57764s-.58447-.89893-.58447-1.5415c0-1.35791.8042-2.14209,2.41309-2.35156l1.90039-.25293c0-.76562-.41455-1.14844-1.24414-1.14844-.83398,0-1.62695.24854-2.37891.74512v-1.62695c.30078-.15479.71191-.2915,1.23389-.41016s.99707-.17773,1.42529-.17773c1.99609,0,2.99414.99561,2.99414,2.9873v4.18359ZM385.15488,29.78624v-.47168l-1.27148.16406c-.70166.09131-1.05273.40771-1.05273.9502,0,.24609.08545.44775.25635.60498s.40234.23584.69385.23584c.40576,0,.73584-.14014.99121-.42041s.38281-.63477.38281-1.06299Z" fill="#2f2f2f"/>
        <path d="M391.06894,31.81651h-.02734v.81348h-2.16016v-10.36328h2.16016v4.41602h.02734c.5332-.81592,1.29199-1.22363,2.27637-1.22363.90234,0,1.59717.31006,2.08496.92969s.73145,1.46729.73145,2.54297c0,1.1665-.28467,2.10303-.85449,2.80957s-1.33057,1.05957-2.2832,1.05957c-.86133,0-1.51318-.32812-1.95508-.98438ZM391.00742,28.86339v.71777c0,.45117.12988.82471.38965,1.12109s.59229.44434.99805.44434c.49219,0,.87402-.19043,1.14502-.5708s.40674-.91943.40674-1.6167c0-.57861-.12402-1.03125-.37256-1.35693s-.60254-.48877-1.06299-.48877c-.43311,0-.79199.16162-1.07666.48535s-.42725.74512-.42725,1.26465Z" fill="#2f2f2f"/>
        <path d="M398.65683,24.52257c-.36475,0-.66309-.1084-.89551-.32471s-.34863-.48193-.34863-.79639c0-.32373.11621-.58789.34863-.79297s.53076-.30762.89551-.30762c.36914,0,.66895.10254.89893.30762s.34521.46924.34521.79297c0,.32812-.11523.59717-.34521.80664s-.52979.31445-.89893.31445ZM399.72324,32.62999h-2.16016v-7h2.16016v7Z" fill="#2f2f2f"/>
        <path d="M403.65878,32.62999h-2.16016v-10.36328h2.16016v10.36328Z" fill="#2f2f2f"/>
        <path d="M406.52744,24.52257c-.36475,0-.66309-.1084-.89551-.32471s-.34863-.48193-.34863-.79639c0-.32373.11621-.58789.34863-.79297s.53076-.30762.89551-.30762c.36914,0,.66895.10254.89893.30762s.34521.46924.34521.79297c0,.32812-.11523.59717-.34521.80664s-.52979.31445-.89893.31445ZM407.59384,32.62999h-2.16016v-7h2.16016v7Z" fill="#2f2f2f"/>
        <path d="M413.52988,32.54796c-.31885.16846-.7998.25293-1.44238.25293-1.52197,0-2.2832-.79053-2.2832-2.37207v-3.20605h-1.13477v-1.59277h1.13477v-1.51074l2.15332-.61523v2.12598h1.57227v1.59277h-1.57227v2.83008c0,.729.28955,1.09375.86816,1.09375.22803,0,.4624-.06592.7041-.19824v1.59961Z" fill="#2f2f2f"/>
        <path d="M421.75497,25.62999l-2.84375,7.56055c-.68359,1.81836-1.71338,2.72754-3.08984,2.72754-.52393,0-.95459-.05908-1.29199-.17773v-1.72266c.28711.16846.59912.25293.93652.25293.55615,0,.94336-.26221,1.16211-.78613l.36914-.86816-2.84375-6.98633h2.39258l1.30566,4.25879c.08203.26416.146.57666.19141.93652h.02734c.04102-.26416.11621-.57178.22559-.92285l1.31934-4.27246h2.13965Z" fill="#2f2f2f"/>
        <path d="M433.75204,32.62999h-7.89551v-1.27148l5.02441-6.7334h-4.66211v-1.79785h7.51953v1.2373l-4.91504,6.77441h4.92871v1.79102Z" fill="#2f2f2f"/>
        <path d="M438.2706,32.80089c-1.1665,0-2.08398-.32715-2.75146-.98096s-1.00146-1.5415-1.00146-2.6626c0-1.15771.34619-2.06348,1.03906-2.71729s1.62939-.98096,2.80957-.98096c1.16211,0,2.07373.32715,2.73438.98096s.99121,1.51855.99121,2.59424c0,1.16211-.34082,2.08057-1.02197,2.75488s-1.61426,1.01172-2.79932,1.01172ZM438.32529,27.11339c-.51025,0-.90674.17529-1.18945.52637s-.42383.84766-.42383,1.49023c0,1.34424.54248,2.0166,1.62695,2.0166,1.03467,0,1.55176-.69043,1.55176-2.07129,0-1.30811-.52197-1.96191-1.56543-1.96191Z" fill="#2f2f2f"/>
        <path d="M450.233,32.62999h-2.15332v-3.88965c0-1.08447-.38721-1.62695-1.16211-1.62695-.37354,0-.68115.14355-.92285.43066s-.3623.65186-.3623,1.09375v3.99219h-2.16016v-7h2.16016v1.10742h.02734c.51514-.85205,1.26465-1.27832,2.24902-1.27832,1.54932,0,2.32422.96143,2.32422,2.88477v4.28613Z" fill="#2f2f2f"/>
        <path d="M458.25497,29.74522h-4.56641c.07275,1.01611.71338,1.52441,1.9209,1.52441.77002,0,1.44678-.18213,2.03027-.54688v1.55859c-.64697.34619-1.48779.51953-2.52246.51953-1.13037,0-2.00732-.31348-2.63184-.93994s-.93652-1.50049-.93652-2.62158c0-1.16211.3374-2.08252,1.01172-2.76172s1.50391-1.01855,2.48828-1.01855c1.021,0,1.81055.30322,2.36865.90918s.8374,1.42871.8374,2.46777v.90918ZM456.25204,28.41905c0-1.00244-.40576-1.50391-1.2168-1.50391-.34619,0-.646.14355-.89893.43066s-.40674.64502-.46143,1.07324h2.57715Z" fill="#2f2f2f"/>
        <path d="M463.29306,32.3087v-1.87988c.65625.47852,1.42188.71777,2.29688.71777.55127,0,.98096-.11865,1.28857-.35547s.46143-.56738.46143-.99121c0-.4375-.19043-.7749-.5708-1.01172s-.90332-.35547-1.56885-.35547h-.90918v-1.6543h.84082c1.27588,0,1.91406-.42383,1.91406-1.27148,0-.79736-.48975-1.19629-1.46973-1.19629-.65625,0-1.29443.21191-1.91406.63574v-1.76367c.68799-.34619,1.49023-.51953,2.40625-.51953,1.00244,0,1.7832.22559,2.34131.67676s.8374,1.03662.8374,1.75684c0,1.28076-.64941,2.08252-1.94824,2.40625v.03418c.69287.08643,1.23975.33838,1.64062.75537s.60156.92871.60156,1.53467c0,.91602-.33496,1.64062-1.00488,2.17383s-1.59521.7998-2.77539.7998c-1.01172,0-1.83447-.16406-2.46777-.49219Z" fill="#2f2f2f"/>
      </g>
      <g>
        <path d="M196.87997,33.36974h-2.40625l-.69727-2.18066h-3.48633l-.69043,2.18066h-2.39258l3.56836-9.80273h2.61816l3.48633,9.80273ZM193.2706,29.49376l-1.05273-3.29492c-.07715-.24609-.13184-.54004-.16406-.88184h-.05469c-.02246.28711-.0791.57178-.1709.85449l-1.06641,3.32227h2.50879Z" fill="#2f2f2f"/>
        <path d="M204.24521,26.36974l-2.60449,7h-2.46094l-2.48145-7h2.31055l1.2168,4.31348c.13672.48779.21582.90234.23926,1.24414h.02734c.03125-.32373.11621-.72461.25293-1.20312l1.24414-4.35449h2.25586Z" fill="#2f2f2f"/>
        <path d="M210.90048,33.36974h-2.04395v-1.00488h-.02734c-.46875.78369-1.16406,1.17578-2.08496,1.17578-.67871,0-1.21289-.19238-1.60254-.57764s-.58496-.89893-.58496-1.5415c0-1.35791.80469-2.14209,2.41309-2.35156l1.90039-.25293c0-.76562-.41406-1.14844-1.24414-1.14844-.83398,0-1.62695.24854-2.37891.74512v-1.62695c.30078-.15479.71191-.2915,1.23438-.41016.52148-.11865.99707-.17773,1.4248-.17773,1.99609,0,2.99414.99561,2.99414,2.9873v4.18359ZM208.87021,30.52599v-.47168l-1.27148.16406c-.70117.09131-1.05273.40771-1.05273.9502,0,.24609.08594.44775.25684.60498s.40234.23584.69336.23584c.40625,0,.73633-.14014.99121-.42041.25586-.28027.38281-.63477.38281-1.06299Z" fill="#2f2f2f"/>
        <path d="M213.67099,25.26231c-.36426,0-.66309-.1084-.89551-.32471s-.34863-.48193-.34863-.79639c0-.32373.11621-.58789.34863-.79297s.53125-.30762.89551-.30762c.36914,0,.66895.10254.89941.30762.22949.20508.34473.46924.34473.79297,0,.32812-.11523.59717-.34473.80664-.23047.20947-.53027.31445-.89941.31445ZM214.7374,33.36974h-2.16016v-7h2.16016v7Z" fill="#2f2f2f"/>
        <path d="M218.67294,33.36974h-2.16016v-10.36328h2.16016v10.36328Z" fill="#2f2f2f"/>
        <path d="M226.33798,33.36974h-2.04395v-1.00488h-.02734c-.46973.78369-1.16504,1.17578-2.08496,1.17578-.67969,0-1.21387-.19238-1.60352-.57764s-.58398-.89893-.58398-1.5415c0-1.35791.80371-2.14209,2.41309-2.35156l1.90039-.25293c0-.76562-.41504-1.14844-1.24414-1.14844-.83398,0-1.62695.24854-2.37891.74512v-1.62695c.30078-.15479.71191-.2915,1.2334-.41016.52246-.11865.99707-.17773,1.42578-.17773,1.99609,0,2.99414.99561,2.99414,2.9873v4.18359ZM224.30771,30.52599v-.47168l-1.27148.16406c-.70215.09131-1.05273.40771-1.05273.9502,0,.24609.08496.44775.25586.60498s.40234.23584.69434.23584c.40527,0,.73535-.14014.99121-.42041.25488-.28027.38281-.63477.38281-1.06299Z" fill="#2f2f2f"/>
        <path d="M230.22177,32.55626h-.02734v.81348h-2.16016v-10.36328h2.16016v4.41602h.02734c.5332-.81592,1.29199-1.22363,2.27637-1.22363.90234,0,1.59668.31006,2.08496.92969.4873.61963.73145,1.46729.73145,2.54297,0,1.1665-.28516,2.10303-.85449,2.80957-.57031.70654-1.33105,1.05957-2.2832,1.05957-.86133,0-1.51367-.32812-1.95508-.98438ZM230.16025,29.60313v.71777c0,.45117.12988.82471.38965,1.12109s.5918.44434.99805.44434c.49219,0,.87402-.19043,1.14453-.5708.27148-.38037.40723-.91943.40723-1.6167,0-.57861-.12402-1.03125-.37305-1.35693-.24805-.32568-.60254-.48877-1.0625-.48877-.43359,0-.79199.16162-1.07715.48535-.28418.32373-.42676.74512-.42676,1.26465Z" fill="#2f2f2f"/>
        <path d="M237.80966,25.26231c-.36523,0-.66309-.1084-.89551-.32471s-.34863-.48193-.34863-.79639c0-.32373.11621-.58789.34863-.79297s.53027-.30762.89551-.30762c.36914,0,.66895.10254.89844.30762.23047.20508.3457.46924.3457.79297,0,.32812-.11523.59717-.3457.80664-.22949.20947-.5293.31445-.89844.31445ZM238.87607,33.36974h-2.16016v-7h2.16016v7Z" fill="#2f2f2f"/>
        <path d="M242.81161,33.36974h-2.16016v-10.36328h2.16016v10.36328Z" fill="#2f2f2f"/>
        <path d="M245.67978,25.26231c-.36426,0-.66309-.1084-.89551-.32471s-.34863-.48193-.34863-.79639c0-.32373.11621-.58789.34863-.79297s.53125-.30762.89551-.30762c.36914,0,.66895.10254.89941.30762.22949.20508.34473.46924.34473.79297,0,.32812-.11523.59717-.34473.80664-.23047.20947-.53027.31445-.89941.31445ZM246.74619,33.36974h-2.16016v-7h2.16016v7Z" fill="#2f2f2f"/>
        <path d="M252.68271,33.2877c-.31934.16846-.7998.25293-1.44238.25293-1.52246,0-2.2832-.79053-2.2832-2.37207v-3.20605h-1.13477v-1.59277h1.13477v-1.51074l2.15332-.61523v2.12598h1.57227v1.59277h-1.57227v2.83008c0,.729.28906,1.09375.86816,1.09375.22754,0,.46191-.06592.7041-.19824v1.59961Z" fill="#2f2f2f"/>
        <path d="M260.90732,26.36974l-2.84375,7.56055c-.68359,1.81836-1.71289,2.72754-3.08984,2.72754-.52344,0-.9541-.05908-1.29199-.17773v-1.72266c.28711.16846.59961.25293.93652.25293.55664,0,.94336-.26221,1.16211-.78613l.36914-.86816-2.84375-6.98633h2.39258l1.30566,4.25879c.08203.26416.14648.57666.19141.93652h.02734c.04102-.26416.11621-.57178.22559-.92285l1.31934-4.27246h2.13965Z" fill="#2f2f2f"/>
        <path d="M272.90439,33.36974h-7.89551v-1.27148l5.02441-6.7334h-4.66211v-1.79785h7.51953v1.2373l-4.91504,6.77441h4.92871v1.79102Z" fill="#2f2f2f"/>
        <path d="M277.42294,33.54063c-1.16602,0-2.08398-.32715-2.75098-.98096-.66797-.65381-1.00195-1.5415-1.00195-2.6626,0-1.15771.34668-2.06348,1.03906-2.71729.69336-.65381,1.62988-.98096,2.80957-.98096,1.16211,0,2.07422.32715,2.73438.98096.66113.65381.99121,1.51855.99121,2.59424,0,1.16211-.34082,2.08057-1.02148,2.75488-.68164.67432-1.61426,1.01172-2.7998,1.01172ZM277.47763,27.85313c-.50977,0-.90625.17529-1.18945.52637-.28223.35107-.42383.84766-.42383,1.49023,0,1.34424.54297,2.0166,1.62695,2.0166,1.03516,0,1.55176-.69043,1.55176-2.07129,0-1.30811-.52148-1.96191-1.56543-1.96191Z" fill="#2f2f2f"/>
        <path d="M289.38583,33.36974h-2.15332v-3.88965c0-1.08447-.3877-1.62695-1.16211-1.62695-.37402,0-.68164.14355-.92285.43066-.24219.28711-.3623.65186-.3623,1.09375v3.99219h-2.16016v-7h2.16016v1.10742h.02734c.51465-.85205,1.26465-1.27832,2.24902-1.27832,1.54883,0,2.32422.96143,2.32422,2.88477v4.28613Z" fill="#2f2f2f"/>
        <path d="M297.40732,30.48497h-4.56641c.07324,1.01611.71387,1.52441,1.9209,1.52441.77051,0,1.44727-.18213,2.03027-.54688v1.55859c-.64648.34619-1.4873.51953-2.52246.51953-1.12988,0-2.00684-.31348-2.63184-.93994-.62402-.62646-.93652-1.50049-.93652-2.62158,0-1.16211.33789-2.08252,1.01172-2.76172.6748-.6792,1.50391-1.01855,2.48828-1.01855,1.02148,0,1.81055.30322,2.36914.90918.55762.60596.83691,1.42871.83691,2.46777v.90918ZM295.40439,29.1588c0-1.00244-.40527-1.50391-1.2168-1.50391-.3457,0-.64551.14355-.89844.43066s-.40723.64502-.46191,1.07324h2.57715Z" fill="#2f2f2f"/>
        <path d="M304.57822,31.57872h4.15625v1.79102h-6.52148v-.73828c0-.50146.08496-.95117.25293-1.3501.16895-.39893.38086-.75635.63574-1.07324.25586-.31689.53418-.59717.83789-.84082.30273-.24365.59082-.46387.86426-.65967.28711-.20508.53906-.40088.75586-.58789.21582-.18701.39844-.37256.54688-.55713.14746-.18457.25879-.37158.33105-.56055.07324-.18896.10938-.39062.10938-.60498,0-.41943-.11816-.73584-.35547-.9502-.23633-.21436-.59863-.32129-1.08691-.32129-.84277,0-1.64941.33496-2.41992,1.00488v-1.90039c.85254-.55127,1.81445-.82715,2.88477-.82715.49707,0,.94238.06494,1.33691.19482.39355.12988.72754.31543,1.00098.55713s.48242.53418.62598.87842.21484.72803.21484,1.15186c0,.45117-.06934.85205-.20801,1.20312-.13965.35107-.32422.66992-.55371.95703-.23047.28711-.49609.55029-.79688.78955s-.6123.4707-.93652.69385c-.21875.15479-.42969.30859-.63184.46143-.20312.15283-.38184.30322-.53711.45117-.1543.14795-.27734.29297-.36914.43408-.09082.14111-.13672.27588-.13672.40332Z" fill="#2f2f2f"/>
      </g>
      <g>
        <path d="M200.58212,122.42442v-2.1875c.39648.33203.82715.58203,1.29199.74805.46484.16699.93457.25,1.4082.25.27832,0,.52051-.02539.72754-.0752.20801-.05078.38086-.12012.51953-.20898.13965-.08887.24316-.19336.31152-.31445.06836-.12012.10254-.25195.10254-.39258,0-.19141-.05469-.3623-.16406-.5127s-.25879-.29004-.44727-.41699c-.18945-.12793-.41406-.25098-.67383-.36914-.25977-.11914-.54004-.23926-.84082-.3623-.76562-.31934-1.33691-.70898-1.71191-1.16895-.37695-.46094-.56445-1.0166-.56445-1.66797,0-.51074.10254-.94922.30762-1.31641.20508-.36621.48438-.66895.83691-.90527.35352-.2373.7627-.41113,1.22754-.52344.46484-.11133.95703-.16699,1.47656-.16699.51074,0,.96289.03027,1.35645.0918.39453.06152.75781.15625,1.09082.28418v2.04395c-.16406-.11426-.34277-.21484-.53613-.30078-.19434-.08691-.39355-.1582-.59863-.21582-.20508-.05664-.40918-.09863-.6123-.12598-.20215-.02734-.39453-.04102-.57715-.04102-.25098,0-.47852.02344-.68359.07129s-.37793.11523-.51953.20215c-.1416.08594-.25098.19043-.32812.31055-.07715.12109-.11621.25684-.11621.40723,0,.16406.04297.31055.12988.44043s.20996.25293.36914.36914.35352.23047.58105.3418c.22754.1123.48535.22656.77246.3457.3916.16406.74414.33789,1.05566.52246.3125.18457.58008.39355.80371.62598s.39453.49805.5127.7959c.11816.29883.17773.64648.17773,1.04297,0,.54688-.10352,1.00586-.31055,1.37695-.20801.37207-.48926.67285-.84473.90234-.35547.23047-.76855.39551-1.24121.49609-.4707.09961-.96875.15039-1.49316.15039-.53809,0-1.0498-.0459-1.53418-.13672-.48633-.0918-.90625-.22852-1.26172-.41016Z" fill="#2f2f2f"/>
        <path d="M212.6788,122.71837c-.31934.16797-.7998.25293-1.44238.25293-1.52246,0-2.2832-.79102-2.2832-2.37207v-3.20605h-1.13477v-1.59277h1.13477v-1.51074l2.15332-.61523v2.12598h1.57227v1.59277h-1.57227v2.83008c0,.72852.28906,1.09375.86816,1.09375.22754,0,.46289-.06641.7041-.19824v1.59961Z" fill="#2f2f2f"/>
        <path d="M217.21201,122.9713c-1.16699,0-2.08398-.32715-2.75098-.98145-.66797-.65332-1.00195-1.54102-1.00195-2.66211,0-1.1582.34668-2.06348,1.03906-2.71777.69238-.65332,1.62891-.98047,2.80957-.98047,1.16211,0,2.07324.32715,2.73438.98047.66113.6543.99121,1.51855.99121,2.59473,0,1.16211-.34082,2.08008-1.02148,2.75488-.68164.67383-1.61523,1.01172-2.7998,1.01172ZM217.26669,117.2838c-.51074,0-.90723.1748-1.18945.52637-.28223.35059-.42383.84766-.42383,1.49023,0,1.34375.54199,2.0166,1.62695,2.0166,1.03418,0,1.55176-.69043,1.55176-2.07129,0-1.30859-.52148-1.96191-1.56543-1.96191Z" fill="#2f2f2f"/>
        <path d="M226.98154,117.74864c-.25977-.1416-.5625-.21191-.90918-.21191-.46973,0-.83594.17188-1.10059.51562-.26465.34473-.39648.8125-.39648,1.40527v3.34277h-2.16016v-7h2.16016v1.29883h.02734c.3418-.94824.95703-1.42188,1.8457-1.42188.22754,0,.40527.02734.5332.08203v1.98926Z" fill="#2f2f2f"/>
        <path d="M233.70615,122.8004h-2.04395v-1.00488h-.02734c-.46973.7832-1.16406,1.17578-2.08496,1.17578-.67871,0-1.21387-.19238-1.60254-.57812-.39062-.38477-.58496-.89844-.58496-1.54102,0-1.3584.80469-2.14258,2.41309-2.35156l1.90039-.25293c0-.76562-.41504-1.14844-1.24414-1.14844-.83398,0-1.62695.24805-2.37891.74512v-1.62695c.30078-.15527.71191-.29199,1.23438-.41016.52148-.11914.99609-.17773,1.4248-.17773,1.99609,0,2.99414.99512,2.99414,2.9873v4.18359ZM231.67587,119.95665v-.47168l-1.27148.16406c-.70215.09082-1.05273.40723-1.05273.9502,0,.24609.08594.44727.25586.60449.17188.15723.40234.23633.69434.23633.40527,0,.73633-.14062.99121-.4209s.38281-.63477.38281-1.0625Z" fill="#2f2f2f"/>
        <path d="M242.30087,122.0006c0,1.29883-.37598,2.30469-1.12793,3.01758-.75195.71387-1.84082,1.07031-3.26758,1.07031-.94336,0-1.69043-.13477-2.24219-.40332v-1.81836c.71973.41895,1.44727.62891,2.18066.62891.72949,0,1.29395-.19238,1.69531-.57812.40137-.38477.60156-.9082.60156-1.56836v-.55371h-.02734c-.49219.7832-1.21875,1.17578-2.18066,1.17578-.89355,0-1.60156-.31445-2.12598-.94336s-.78613-1.47266-.78613-2.5293c0-1.18555.29199-2.12598.875-2.82324s1.35156-1.0459,2.30371-1.0459c.85254,0,1.49023.32812,1.91406.98438h.02734v-.81348h2.16016v6.2002ZM240.16806,119.43712v-.55371c0-.44238-.13086-.81934-.39355-1.13184-.26172-.31152-.60254-.46777-1.02148-.46777-.47852,0-.85449.18652-1.12793.56055-.27344.37305-.41016.89941-.41016,1.5791,0,.58301.12988,1.04492.38965,1.38379.25977.33984.61523.50977,1.06641.50977.44629,0,.80762-.17188,1.08398-.5166.27539-.34375.41309-.79883.41309-1.36328Z" fill="#2f2f2f"/>
        <path d="M250.39462,119.91563h-4.56641c.07324,1.01562.71289,1.52441,1.9209,1.52441.77051,0,1.44727-.18262,2.03027-.54688v1.55859c-.64746.3457-1.48828.51953-2.52246.51953-1.12988,0-2.00781-.31348-2.63184-.94043-.62402-.62598-.93652-1.5-.93652-2.62109,0-1.16211.33691-2.08301,1.01172-2.76172.6748-.67969,1.50391-1.01855,2.48828-1.01855,1.02051,0,1.81055.30273,2.36914.90918.55762.60547.83691,1.42871.83691,2.46777v.90918ZM248.39169,118.58946c0-1.00293-.40527-1.50391-1.2168-1.50391-.34668,0-.64648.14355-.89844.43066-.25391.28711-.40723.64453-.46191,1.07324h2.57715Z" fill="#2f2f2f"/>
        <path d="M266.92392,122.8004h-2.18066v-5.86523c0-.63379.02734-1.33301.08203-2.09863h-.05469c-.11426.60156-.2168,1.03418-.30762,1.29883l-2.29688,6.66504h-1.80469l-2.33789-6.59668c-.06348-.17773-.16602-.63379-.30762-1.36719h-.06152c.05957.96582.08887,1.81348.08887,2.54297v5.4209h-1.98926v-9.80273h3.2334l2.00293,5.81055c.15918.46484.27539.93164.34863,1.40137h.04102c.12305-.54297.25293-1.01465.38965-1.41504l2.00293-5.79688h3.15137v9.80273Z" fill="#2f2f2f"/>
        <path d="M272.22177,122.9713c-1.16699,0-2.08398-.32715-2.75098-.98145-.66797-.65332-1.00195-1.54102-1.00195-2.66211,0-1.1582.34668-2.06348,1.03906-2.71777.69238-.65332,1.62891-.98047,2.80957-.98047,1.16211,0,2.07324.32715,2.73438.98047.66113.6543.99121,1.51855.99121,2.59473,0,1.16211-.34082,2.08008-1.02148,2.75488-.68164.67383-1.61523,1.01172-2.7998,1.01172ZM272.27646,117.2838c-.51074,0-.90723.1748-1.18945.52637-.28223.35059-.42383.84766-.42383,1.49023,0,1.34375.54199,2.0166,1.62695,2.0166,1.03418,0,1.55176-.69043,1.55176-2.07129,0-1.30859-.52148-1.96191-1.56543-1.96191Z" fill="#2f2f2f"/>
        <path d="M283.91025,115.8004l-2.60449,7h-2.46094l-2.48145-7h2.31055l1.2168,4.31348c.13672.4873.2168.90234.23926,1.24414h.02734c.03223-.32422.11621-.72461.25293-1.20312l1.24414-4.35449h2.25586Z" fill="#2f2f2f"/>
        <path d="M290.89853,119.91563h-4.56641c.07324,1.01562.71289,1.52441,1.9209,1.52441.77051,0,1.44727-.18262,2.03027-.54688v1.55859c-.64746.3457-1.48828.51953-2.52246.51953-1.12988,0-2.00781-.31348-2.63184-.94043-.62402-.62598-.93652-1.5-.93652-2.62109,0-1.16211.33691-2.08301,1.01172-2.76172.6748-.67969,1.50391-1.01855,2.48828-1.01855,1.02051,0,1.81055.30273,2.36914.90918.55762.60547.83691,1.42871.83691,2.46777v.90918ZM288.8956,118.58946c0-1.00293-.40527-1.50391-1.2168-1.50391-.34668,0-.64648.14355-.89844.43066-.25391.28711-.40723.64453-.46191,1.07324h2.57715Z" fill="#2f2f2f"/>
        <path d="M296.83017,117.74864c-.25977-.1416-.5625-.21191-.90918-.21191-.46973,0-.83594.17188-1.10059.51562-.26465.34473-.39648.8125-.39648,1.40527v3.34277h-2.16016v-7h2.16016v1.29883h.02734c.3418-.94824.95703-1.42188,1.8457-1.42188.22754,0,.40527.02734.5332.08203v1.98926Z" fill="#2f2f2f"/>
      </g>
    </g>
  </g>
</svg>