<?xml version="1.0" encoding="UTF-8"?>
<svg xmlns="http://www.w3.org/2000/svg" width="577.39255" height="122.57278" xmlns:xlink="http://www.w3.org/1999/xlink" viewBox="0 0 577.39255 122.57278">
  <defs>
    <linearGradient id="linear-gradient" x1="-532.17212" y1="940.31271" x2="-532.17212" y2="917.69604" gradientTransform="translate(564 1006.02536) scale(1 -1)" gradientUnits="userSpaceOnUse">
      <stop offset=".22" stop-color="#32d4f5"/>
      <stop offset="1" stop-color="#198ab3"/>
    </linearGradient>
    <linearGradient id="linear-gradient-2" x1="-532.82173" y1="952.44602" x2="-531.17173" y2="931.91269" xlink:href="#linear-gradient"/>
    <linearGradient id="linear-gradient-3" x1="-33.51607" x2="-33.51607" xlink:href="#linear-gradient"/>
    <linearGradient id="linear-gradient-4" x1="-34.16568" y1="952.44602" x2="-32.51568" y2="931.91269" xlink:href="#linear-gradient"/>
    <linearGradient id="linear-gradient-5" x1="-208.37579" y1="948.36942" x2="-208.37579" y2="960.36942" gradientTransform="translate(564 1006.02536) scale(1 -1)" gradientUnits="userSpaceOnUse">
      <stop offset="0" stop-color="#0078d4"/>
      <stop offset=".82" stop-color="#5ea0ef"/>
    </linearGradient>
  </defs>
  <g isolation="isolate">
    <g id="Shapes">
      <rect width="577.39255" height="122.57278" fill="#fff"/>
      <g>
        <path d="M43.02857,84.24598c1.33469,0,2.41667-1.08198,2.41667-2.41667h0c.01722-.09366.01722-.18967,0-.28333-.96667-7.61666-5.28333-13.81667-13.61667-13.81667s-12.76667,5.25-13.61667,13.83333c-.1444,1.33611.82167,2.53631,2.15778,2.68071.00851.00092.01703.0018.02555.00263h22.63333Z" fill="url(#linear-gradient)"/>
        <path d="M31.82857,69.52931c-1.46589-.00117-2.90058-.42347-4.13333-1.21667l4.13333,10.7,4.06667-10.63333c-1.21844.76264-2.62928,1.16161-4.06667,1.15Z" fill="#fff" isolation="isolate" opacity=".8"/>
        <circle cx="31.84524" cy="61.87931" r="7.63333" fill="url(#linear-gradient-2)"/>
      </g>
      <g>
        <path d="M541.68462,84.24598c1.33469,0,2.41667-1.08198,2.41667-2.41667h0c.01722-.09366.01722-.18967,0-.28333-.96667-7.61666-5.28333-13.81667-13.61667-13.81667s-12.76667,5.25-13.61667,13.83333c-.1444,1.33611.82167,2.53631,2.15778,2.68071.00851.00092.01703.0018.02555.00263h22.63333Z" fill="url(#linear-gradient-3)"/>
        <path d="M530.48462,69.52931c-1.46589-.00117-2.90058-.42347-4.13333-1.21667l4.13333,10.7,4.06667-10.63333c-1.21844.76264-2.62928,1.16161-4.06667,1.15Z" fill="#fff" isolation="isolate" opacity=".8"/>
        <circle cx="530.50128" cy="61.87931" r="7.63333" fill="url(#linear-gradient-4)"/>
      </g>
      <g>
        <g mix-blend-mode="multiply" opacity=".3">
          <rect x="85.55815" y="29.11268" width="395.72822" height="83.6" fill="#000085"/>
          <rect x="85.55815" y="29.11268" width="395.72822" height="83.6" fill="#000085" opacity=".08"/>
        </g>
        <g>
          <rect x="85.05815" y="28.61268" width="395.72822" height="83.6" fill="#fff"/>
          <rect x="85.05815" y="28.61268" width="395.72822" height="83.6" fill="#000085" opacity=".08"/>
        </g>
      </g>
      <rect x="98.25815" y="54.14601" width="96.8" height="37.4" fill="#fff" stroke="#000085" stroke-width=".25"/>
      <g>
        <line x1="49.85814" y1="72.84601" x2="94.22151" y2="72.84601" fill="none" stroke="#3c3c41" stroke-miterlimit="10" stroke-width=".75"/>
        <polygon points="93.40084 75.65082 98.25817 72.84601 93.40084 70.0412 93.40084 75.65082" fill="#3c3c41"/>
      </g>
      <g>
        <line x1="451.59053" y1="72.84601" x2="505.95391" y2="72.84601" fill="none" stroke="#3c3c41" stroke-miterlimit="10" stroke-width=".75"/>
        <polygon points="505.13322 75.65082 509.99053 72.84601 505.13322 70.0412 505.13322 75.65082" fill="#3c3c41"/>
      </g>
      <rect x="230.25817" y="54.14601" width="96.8" height="37.4" fill="#fff" stroke="#000085" stroke-width=".25"/>
      <rect x="347.09454" y="54.14601" width="108.02953" height="37.4" fill="#fff" stroke="#000085" stroke-width=".25"/>
      <g>
        <line x1="195.05815" y1="72.84601" x2="226.22153" y2="72.84601" fill="none" stroke="#3c3c41" stroke-miterlimit="10" stroke-width=".75"/>
        <polygon points="225.40084 75.65082 230.25815 72.84601 225.40084 70.0412 225.40084 75.65082" fill="#3c3c41"/>
      </g>
      <g>
        <line x1="327.05815" y1="72.84601" x2="368.87733" y2="72.84601" fill="none" stroke="#3c3c41" stroke-miterlimit="10" stroke-width=".75"/>
        <polygon points="368.05665 75.65082 372.91396 72.84601 368.05665 70.0412 368.05665 75.65082" fill="#3c3c41"/>
      </g>
      <g>
        <path d="M380.92591,93.78939c-.39655.08609-.75506.32108-.86977.56585-.52725,1.12509.77664,2.31059,1.80998,2.80781,3.71663,1.78833,8.23209-1.70149,11.13816-3.88009-.78183,1.61874-1.91767,2.92681-3.35993,3.92198l-2.05554,1.41834c-.50624.34931-.63495.97301-.21833,1.47837,1.28799,1.56234,4.13622,1.56142,6.01671.50392,2.25985-1.27083,3.68441-3.62033,5.02875-5.75075.06742,1.54554-.41792,2.89897-1.24018,4.19061-.0929.14594-.16078.54099-.07132.676.07668.11572.37819.23239.55368.23524,3.18422.05184,5.30268-3.28739,5.646-6.04607-2.39929-.72936-4.5035-1.93152-5.90478-4.03287,3.15522,1.8643,8.12417,3.1754,11.81145,2.93313,4.10298-.24894,7.9006-1.64636,11.15318-4.0959,3.29195-2.47919,5.45787-5.89655,6.31485-9.93872.39899-1.88195,1.04073-3.63894,2.25411-5.11304,1.34487-1.63385,3.44168-2.45694,5.46226-1.89568,1.35706.37695,2.65864.62909,4.04455.8674.41187.07082.77468-.34129.8157-.63613.06195-.4452-.12566-.64984-.46394-.8963-.99809-.72718-1.88682-1.51642-2.80044-2.39681-.00868-2.12425-1.14043-3.87284-3.07463-4.78114-2.27163-1.06675-4.9085-.82975-7.10115.43675-2.99956,1.73259-3.7926,4.26832-7.30874,5.68541-1.06535.42936-2.11709.64558-3.2192.71517,1.26551.94642,2.5802,1.45808,4.10533,1.73813-4.57612,1.46108-8.46514-2.43121-10.36064-6.08453l-2.37037-4.56856c-1.48384-2.8599-3.90858-4.93964-6.92373-6.08971-7.71491-2.94268-14.75211-7.99005-20.869-13.45528-.91388-.81652-1.75393-1.5563-2.69627-2.31376-.5646-.45383-1.41302-.65483-2.0726-.38879-.61647.24865-.91617.90407-1.06173,1.5279-.34132,1.46281.054,2.90629.77033,4.22268,2.89614,4.84493,9.11272,8.35724,14.11777,10.85482-4.16877-.33042-7.96448-1.9401-11.24107-4.31211-.93301-.67543-1.98528-1.73087-2.89351-1.23918-.26398.14291-.50676.59701-.53234.96516-.16962,2.44128,2.18213,4.91264,4.15954,6.19701,4.05977,2.63691,8.76492,3.94536,13.34935,5.38015-4.2444.41391-8.34327-.41558-12.12743-2.17118-.41163-.19097-.8891-.29859-1.3203-.21861-1.25951.23363-.37495,3.7951,4.0683,5.68725,1.97383.84055,3.98817,1.45565,6.12889,1.74981l6.88228.94571c-2.42088.67813-4.83306,1.056-7.25132.70319l-3.34308-.48773c-.24289-.03544-.65834.1376-.75945.31024-.51063.87194,1.0786,2.30299,1.84299,2.80736,3.06384,2.02163,6.95413,1.70492,10.37617,1.49162l4.19725-.26163c-1.97905,1.29474-4.23379,1.86363-6.57398,2.14458-.24022.02884-.55965.25187-.6028.4336-.22687.95556,1.58262,2.08092,2.42258,2.49909,3.70538,1.84468,7.47759,1.60904,11.33511.21959-1.45504,2.14716-4.64182,3.06368-7.07323,3.12625-3.76474,3.07662-10.3551,3.92296-15.04326,3.97913l-5.36706.0643c-.73223.00877-1.48487.08918-2.16068.2663-1.09055.28582-1.57894,1.30906-1.26486,2.38687.37666,1.29255,1.41735,2.27267,2.69432,2.76315,3.10726,1.19348,7.07892-.2196,10.21935-.90707-2.11774,1.66118-4.53124,2.49928-7.12226,3.06179ZM408.7052,59.81505c-.29693,2.51415,3.05506,7.59384,4.86494,9.20319,3.3542.13253,5.12157-.9131,7.49745-3.0679l.97531-3.45585c.69751-2.47153.47174-5.00056-.60457-7.32049-.65258-1.40662-1.44354-2.60558-2.30699-3.89415-1.69184-2.52482-3.15547-5.08847-4.70987-7.68768-.2737-.45767-.8902-.76689-1.32958-.78059-.52005-.01622-1.0351.30771-1.36627.75794-1.7866,2.42896-.51249,5.76575.8098,8.13425.93566,1.67596,2.09227,3.07824,3.17327,4.75832-.95436-.33741-1.64672-.84876-2.37763-1.38829-1.44627-1.06758-2.59474-2.36451-3.44283-3.96469-.14357-.27088-.56184-.45734-.84887-.41674-1.03622.14656-1.58282,3.20331-.39226,5.51436,1.16594,2.26327,3.43089,4.02146,5.34238,5.66587-2.08032.12821-3.52479-1.05701-5.28429-2.05756ZM432.67349,90.38441l17.53691-3.67956c.95539-.20046,1.55101-1.02824,1.33639-2.01247l-2.58111-11.83638c-.21956-1.00687-1.3794-1.41438-2.25669-1.22708l-5.24128,1.11903-11.80789,2.57675c-1.01772.22209-1.44999,1.25358-1.24477,2.21952l2.42576,11.41767c.18407.86639.83666,1.6315,1.83269,1.42252Z" fill="#fff"/>
        <g>
          <path d="M408.7052,59.81505c1.75951,1.00055,3.20397,2.18577,5.28429,2.05756-1.91149-1.64441-4.17645-3.40261-5.34238-5.66587-1.19055-2.31105-.64395-5.3678.39226-5.51436.28703-.0406.7053.14586.84887.41674.84809,1.60018,1.99655,2.89711,3.44283,3.96469.73091.53953,1.42327,1.05088,2.37763,1.38829-1.08101-1.68008-2.23761-3.08236-3.17327-4.75832-1.32229-2.36849-2.5964-5.70529-.8098-8.13425.33117-.45023.84621-.77416,1.36627-.75794.43938.0137,1.05589.32292,1.32958.78059,1.5544,2.59921,3.01802,5.16286,4.70987,7.68768.86345,1.28857,1.65441,2.48753,2.30699,3.89415,1.0763,2.31993,1.30208,4.84896.60457,7.32049l-.97531,3.45585c-2.37588,2.1548-4.14324,3.20043-7.49745,3.0679-1.80987-1.60935-5.16187-6.68905-4.86494-9.20319Z"/>
          <g>
            <path d="M380.92591,93.78939c2.59102-.56251,5.00453-1.40061,7.12226-3.06179-3.14043.68747-7.11209,2.10055-10.21935.90707-1.27696-.49048-2.31766-1.4706-2.69432-2.76315-.31408-1.0778.17431-2.10105,1.26486-2.38687.67581-.17712,1.42845-.25752,2.16068-.2663l5.36706-.0643c4.68816-.05616,11.27852-.90251,15.04326-3.97913,2.43141-.06257,5.61819-.97909,7.07323-3.12625-3.85752,1.38945-7.62973,1.62508-11.33511-.21959-.83996-.41816-2.64945-1.54353-2.42258-2.49909.04315-.18173.36258-.40476.6028-.4336,2.3402-.28095,4.59493-.84984,6.57398-2.14458l-4.19725.26163c-3.42204.21331-7.31234.53001-10.37617-1.49162-.76439-.50437-2.35362-1.93543-1.84299-2.80736.10111-.17264.51656-.34568.75945-.31024l3.34308.48773c2.41827.35281,4.83045-.02507,7.25132-.70319l-6.88228-.94571c-2.14072-.29416-4.15505-.90926-6.12889-1.74981-4.44325-1.89214-5.32781-5.45362-4.0683-5.68725.43119-.07998.90866.02764,1.3203.21861,3.78417,1.7556,7.88303,2.58508,12.12743,2.17118-4.58442-1.43479-9.28957-2.74324-13.34935-5.38015-1.97741-1.28437-4.32916-3.75573-4.15954-6.19701.02558-.36816.26836-.82225.53234-.96516.90822-.49169,1.9605.56375,2.89351,1.23918,3.27659,2.37202,7.07231,3.9817,11.24107,4.31211-5.00505-2.49758-11.22162-6.00989-14.11777-10.85482-.71633-1.31639-1.11165-2.75987-.77033-4.22268.14556-.62383.44527-1.27926,1.06173-1.5279.65959-.26604,1.508-.06504,2.0726.38879.94234.75746,1.78238,1.49724,2.69627,2.31376,6.11689,5.46523,13.15409,10.5126,20.869,13.45528,3.01516,1.15006,5.43989,3.22981,6.92373,6.08971l2.37037,4.56856c1.8955,3.65331,5.78452,7.5456,10.36064,6.08453-1.52513-.28005-2.83982-.79172-4.10533-1.73813,1.10211-.06958,2.15385-.28581,3.2192-.71517,3.51614-1.41709,4.30918-3.95282,7.30874-5.68541,2.19265-1.2665,4.82952-1.50351,7.10115-.43675,1.9342.9083,3.06595,2.65689,3.07463,4.78114.91363.8804,1.80235,1.66963,2.80044,2.39681.33828.24646.52588.4511.46394.8963-.04102.29484-.40383.70695-.8157.63613-1.38591-.23831-2.68749-.49045-4.04455-.8674-2.02058-.56126-4.11738.26183-5.46226,1.89568-1.21338,1.4741-1.85512,3.23109-2.25411,5.11304-.85698,4.04217-3.0229,7.45953-6.31485,9.93872-3.25259,2.44954-7.05021,3.84696-11.15318,4.0959-3.68728.24228-8.65624-1.06883-11.81145-2.93313,1.40128,2.10135,3.50549,3.30351,5.90478,4.03287-.34332,2.75868-2.46178,6.0979-5.646,6.04607-.17549-.00286-.477-.11952-.55368-.23524-.08946-.13501-.02158-.53006.07132-.676.82226-1.29164,1.3076-2.64506,1.24018-4.19061-1.34434,2.13042-2.7689,4.47992-5.02875,5.75075-1.88049,1.0575-4.72871,1.05842-6.01671-.50392-.41662-.50536-.28791-1.12906.21833-1.47837l2.05554-1.41834c1.44226-.99517,2.5781-2.30324,3.35993-3.92198-2.90607,2.17861-7.42153,5.66842-11.13816,3.88009-1.03334-.49721-2.33724-1.68272-1.80998-2.80781.1147-.24476.47321-.47975.86977-.56585ZM431.93335,67.57183c0-.66796-.54149-1.20945-1.20945-1.20945s-1.20945.54149-1.20945,1.20945.54149,1.20945,1.20945,1.20945,1.20945-.54149,1.20945-1.20945ZM436.48679,70.81849l-1.07233-.77612-.27492.3822,1.34725.39393Z"/>
            <circle cx="430.7239" cy="67.57183" r="1.20945" fill="#fff"/>
            <polygon points="436.48679 70.81849 435.13954 70.42457 435.41446 70.04237 436.48679 70.81849" fill="#fff"/>
          </g>
        </g>
        <g>
          <path d="M432.67349,90.38441c-.99603.20899-1.64862-.55613-1.83269-1.42252l-2.42576-11.41767c-.20522-.96594.22705-1.99743,1.24477-2.21952l11.80789-2.57675,5.24128-1.11903c.87729-.1873,2.03712.2202,2.25669,1.22708l2.58111,11.83638c.21463.98423-.381,1.81201-1.33639,2.01247l-17.53691,3.67956ZM440.48106,81.08103l5.76388-7.65282-15.04872,3.25926,8.55223,4.68188c.28753.13556.53738.01923.73261-.28832ZM449.55796,83.54917l-1.96503-8.96885-4.1239,5.28654,6.08893,3.68232ZM436.28832,81.37713l-6.04636-3.30458,1.95996,9.13885,4.08639-5.83426ZM437.73168,82.21302l-4.37791,6.3383,15.70316-3.30179-6.57451-4.03646-1.21232,1.55748c-.56679.3903-1.24619.49269-1.89931.27657l-1.63912-.8341Z"/>
          <path d="M440.48106,81.08103c-.19523.30755-.44508.42389-.73261.28832l-8.55223-4.68188,15.04872-3.25926-5.76388,7.65282Z" fill="#fff"/>
          <path d="M437.73168,82.21302l1.63912.8341c.65312.21612,1.33252.11373,1.89931-.27657l1.21232-1.55748,6.57451,4.03646-15.70316,3.30179,4.37791-6.3383Z" fill="#fff"/>
          <polygon points="436.28832 81.37713 432.20193 87.2114 430.24197 78.07255 436.28832 81.37713" fill="#fff"/>
          <polygon points="449.55796 83.54917 443.46903 79.86685 447.59293 74.58032 449.55796 83.54917" fill="#fff"/>
        </g>
      </g>
      <path d="M364.08382,53.89222c-.06091-1.8603-1.45498-3.40528-3.29925-3.65643-.11699-2.6183-2.31507-4.65728-4.93477-4.57759-2.08846-.03856-3.97324,1.24686-4.69978,3.20525-2.22404.26855-3.91791,2.12222-3.98541,4.3614.09685,2.53695,2.22837,4.51712,4.76558,4.42719h8.13062c.06883.0052.13796.0052.20679,0,2.07761-.01965,3.76564-1.68274,3.81622-3.75982Z" fill="url(#linear-gradient-5)"/>
    </g>
    <g id="Text">
      <g>
        <path d="M22.41313,100.60252c-.72461.38281-1.62695.57422-2.70703.57422-1.39453,0-2.51123-.44873-3.34961-1.34668s-1.25781-2.07568-1.25781-3.53418c0-1.56787.47168-2.83447,1.41504-3.80078s2.13965-1.44922,3.58887-1.44922c.92969,0,1.69971.13428,2.31055.40332v1.22363c-.70166-.39209-1.47656-.58789-2.32422-.58789-1.12549,0-2.03809.37598-2.73779,1.12793s-1.04932,1.75684-1.04932,3.01465c0,1.19385.32715,2.14551.98096,2.854s1.51172,1.06299,2.57373,1.06299c.98438,0,1.83643-.21875,2.55664-.65625v1.11426Z" fill="#2f2f2f"/>
        <path d="M25.08599,101.01268h-1.12109v-10.36328h1.12109v10.36328Z" fill="#2f2f2f"/>
        <path d="M27.773,92.23533c-.20068,0-.37158-.06836-.5127-.20508s-.21191-.31006-.21191-.51953.0708-.38379.21191-.52295.31201-.2085.5127-.2085c.20508,0,.37939.06934.52295.2085s.21533.31348.21533.52295c0,.20068-.07178.37158-.21533.5127s-.31787.21191-.52295.21191ZM28.31987,101.01268h-1.12109v-7h1.12109v7Z" fill="#2f2f2f"/>
        <path d="M36.11431,97.79295h-4.94238c.01807.7793.22803,1.38086.62891,1.80469s.95264.63574,1.6543.63574c.78857,0,1.51318-.25977,2.17383-.7793v1.05273c-.61523.44678-1.42871.66992-2.44043.66992-.98877,0-1.76611-.31787-2.33105-.95361s-.84766-1.53027-.84766-2.68311c0-1.08936.30859-1.97656.92627-2.6626s1.38428-1.02881,2.30029-1.02881,1.62451.29639,2.12598.88867.75195,1.41504.75195,2.46777v.58789ZM34.96587,96.84276c-.00439-.64697-.16064-1.15088-.46826-1.51074s-.73486-.54004-1.28174-.54004c-.52881,0-.97754.18896-1.34668.56738s-.59717.87256-.68359,1.4834h3.78027Z" fill="#2f2f2f"/>
        <path d="M43.60796,101.01268h-1.12109v-3.99219c0-1.48584-.54248-2.22852-1.62695-2.22852-.56055,0-1.02441.21094-1.39111.63232s-.55029.95361-.55029,1.59619v3.99219h-1.12109v-7h1.12109v1.16211h.02734c.52881-.88428,1.29443-1.32617,2.29688-1.32617.76562,0,1.35107.24707,1.75684.7417s.6084,1.20898.6084,2.14307v4.2793Z" fill="#2f2f2f"/>
        <path d="M48.83696,100.94432c-.26416.146-.61279.21875-1.0459.21875-1.22607,0-1.83887-.68359-1.83887-2.05078v-4.14258h-1.20312v-.95703h1.20312v-1.70898l1.12109-.3623v2.07129h1.76367v.95703h-1.76367v3.94434c0,.46924.07959.8042.23926,1.00488s.42383.30078.79297.30078c.28271,0,.52637-.07764.73145-.23242v.95703Z" fill="#2f2f2f"/>
      </g>
      <g>
        <path d="M510.65239,101.01268h-1.36719l-1.64062-2.74805c-.15039-.25537-.29639-.47266-.4375-.65283s-.28613-.32715-.43408-.44092-.30762-.19727-.47852-.24951-.36328-.07861-.57764-.07861h-.94336v4.16992h-1.14844v-9.80273h2.92578c.42822,0,.82373.05371,1.18604.16064s.67676.27002.94336.48877.4751.49121.62549.81689.22559.70752.22559,1.14502c0,.3418-.05127.65527-.15381.93994s-.24854.53906-.4375.76221-.41699.41357-.68359.5708-.56641.2793-.89893.36572v.02734c.16406.07275.30664.15625.42725.24951s.23584.2041.34521.33154.21777.27246.32471.43408.22656.34961.35889.56396l1.83887,2.94629ZM504.77349,92.24901v3.55469h1.55859c.28711,0,.55273-.04346.79639-.12988s.45459-.21094.63232-.37256.31689-.35986.41699-.59473.15039-.49805.15039-.78955c0-.52393-.16992-.93311-.50928-1.22705s-.83057-.44092-1.47314-.44092h-1.57227Z" fill="#2f2f2f"/>
        <path d="M517.2647,97.79295h-4.94238c.01807.7793.22803,1.38086.62891,1.80469s.95264.63574,1.6543.63574c.78857,0,1.51318-.25977,2.17383-.7793v1.05273c-.61523.44678-1.42871.66992-2.44043.66992-.98877,0-1.76611-.31787-2.33105-.95361s-.84766-1.53027-.84766-2.68311c0-1.08936.30859-1.97656.92627-2.6626s1.38428-1.02881,2.30029-1.02881,1.62451.29639,2.12598.88867.75195,1.41504.75195,2.46777v.58789ZM516.11626,96.84276c-.00439-.64697-.16064-1.15088-.46826-1.51074s-.73486-.54004-1.28174-.54004c-.52881,0-.97754.18896-1.34668.56738s-.59717.87256-.68359,1.4834h3.78027Z" fill="#2f2f2f"/>
        <path d="M523.76225,100.69139c-.5376.32373-1.17578.48535-1.91406.48535-.99805,0-1.80371-.32471-2.4165-.97412s-.91943-1.49121-.91943-2.52588c0-1.15283.33057-2.0791.99121-2.77881s1.54248-1.04932,2.64551-1.04932c.61523,0,1.15771.11377,1.62695.3418v1.14844c-.51953-.36475-1.07568-.54688-1.66797-.54688-.71533,0-1.30225.25635-1.76025.76904s-.68701,1.18604-.68701,2.02002c0,.82031.21533,1.46729.646,1.94141s1.0083.71094,1.73291.71094c.61084,0,1.18506-.20264,1.72266-.6084v1.06641Z" fill="#2f2f2f"/>
        <path d="M525.82475,92.23533c-.20068,0-.37158-.06836-.5127-.20508s-.21191-.31006-.21191-.51953.0708-.38379.21191-.52295.31201-.2085.5127-.2085c.20508,0,.37939.06934.52295.2085s.21533.31348.21533.52295c0,.20068-.07178.37158-.21533.5127s-.31787.21191-.52295.21191ZM526.37163,101.01268h-1.12109v-7h1.12109v7Z" fill="#2f2f2f"/>
        <path d="M529.63823,100.00096h-.02734v4.23145h-1.12109v-10.21973h1.12109v1.23047h.02734c.55127-.92969,1.35791-1.39453,2.41992-1.39453.90234,0,1.60645.31348,2.1123.93994s.75879,1.46631.75879,2.51904c0,1.17139-.28467,2.10889-.85449,2.81299s-1.34912,1.05615-2.33789,1.05615c-.90674,0-1.60645-.39209-2.09863-1.17578ZM529.61089,97.17772v.97754c0,.57861.18799,1.06982.56396,1.47314s.85352.60498,1.43213.60498c.6792,0,1.21094-.25977,1.59619-.7793s.57764-1.2417.57764-2.16699c0-.7793-.18018-1.39014-.54004-1.83203s-.84766-.66309-1.46289-.66309c-.65186,0-1.17578.22656-1.57227.68018s-.59473,1.02197-.59473,1.70557Z" fill="#2f2f2f"/>
        <path d="M537.2022,92.23533c-.20068,0-.37158-.06836-.5127-.20508s-.21191-.31006-.21191-.51953.0708-.38379.21191-.52295.31201-.2085.5127-.2085c.20508,0,.37939.06934.52295.2085s.21533.31348.21533.52295c0,.20068-.07178.37158-.21533.5127s-.31787.21191-.52295.21191ZM537.74907,101.01268h-1.12109v-7h1.12109v7Z" fill="#2f2f2f"/>
        <path d="M545.5435,97.79295h-4.94238c.01807.7793.22803,1.38086.62891,1.80469s.95264.63574,1.6543.63574c.78857,0,1.51318-.25977,2.17383-.7793v1.05273c-.61523.44678-1.42871.66992-2.44043.66992-.98877,0-1.76611-.31787-2.33105-.95361s-.84766-1.53027-.84766-2.68311c0-1.08936.30859-1.97656.92627-2.6626s1.38428-1.02881,2.30029-1.02881,1.62451.29639,2.12598.88867.75195,1.41504.75195,2.46777v.58789ZM544.39507,96.84276c-.00439-.64697-.16064-1.15088-.46826-1.51074s-.73486-.54004-1.28174-.54004c-.52881,0-.97754.18896-1.34668.56738s-.59717.87256-.68359,1.4834h3.78027Z" fill="#2f2f2f"/>
        <path d="M553.03716,101.01268h-1.12109v-3.99219c0-1.48584-.54248-2.22852-1.62695-2.22852-.56055,0-1.02441.21094-1.39111.63232s-.55029.95361-.55029,1.59619v3.99219h-1.12109v-7h1.12109v1.16211h.02734c.52881-.88428,1.29443-1.32617,2.29688-1.32617.76562,0,1.35107.24707,1.75684.7417s.6084,1.20898.6084,2.14307v4.2793Z" fill="#2f2f2f"/>
        <path d="M558.26616,100.94432c-.26416.146-.61279.21875-1.0459.21875-1.22607,0-1.83887-.68359-1.83887-2.05078v-4.14258h-1.20312v-.95703h1.20312v-1.70898l1.12109-.3623v2.07129h1.76367v.95703h-1.76367v3.94434c0,.46924.07959.8042.23926,1.00488s.42383.30078.79297.30078c.28271,0,.52637-.07764.73145-.23242v.95703Z" fill="#2f2f2f"/>
      </g>
      <g>
        <path d="M145.42778,77.01268h-1.27148l-1.03906-2.74805h-4.15625l-.97754,2.74805h-1.27832l3.75977-9.80273h1.18945l3.77344,9.80273ZM142.74126,73.23241l-1.53809-4.17676c-.05029-.13672-.1001-.35547-.15039-.65625h-.02734c-.04541.27783-.09814.49658-.15723.65625l-1.52441,4.17676h3.39746Z" fill="#2f2f2f"/>
        <path d="M147.92192,73.3076v3.70508h-1.14844v-9.80273h2.69336c1.04834,0,1.86035.25537,2.43701.76562s.86475,1.23047.86475,2.16016-.32031,1.69092-.96045,2.2832-1.50488.88867-2.59424.88867h-1.29199ZM147.92192,68.24901v4.01953h1.20312c.79297,0,1.39795-.18115,1.81494-.54346s.62549-.87402.62549-1.53467c0-1.29443-.76562-1.94141-2.29688-1.94141h-1.34668Z" fill="#2f2f2f"/>
        <path d="M155.47026,77.01268h-1.14844v-9.80273h1.14844v9.80273Z" fill="#2f2f2f"/>
      </g>
      <g>
        <path d="M247.48735,77.01268v-9.80273h2.70703c3.45459,0,5.18164,1.59277,5.18164,4.77832,0,1.51318-.47949,2.72852-1.43896,3.64697s-2.24316,1.37744-3.85205,1.37744h-2.59766ZM248.63579,68.24901v7.72461h1.46289c1.28516,0,2.28564-.34424,3.00098-1.03223s1.07324-1.66357,1.07324-2.92578c0-2.51123-1.33545-3.7666-4.00586-3.7666h-1.53125Z" fill="#2f2f2f"/>
        <path d="M257.66313,68.23533c-.20068,0-.37158-.06836-.5127-.20508s-.21191-.31006-.21191-.51953.0708-.38379.21191-.52295.31201-.2085.5127-.2085c.20508,0,.37939.06934.52295.2085s.21533.31348.21533.52295c0,.20068-.07178.37158-.21533.5127s-.31787.21191-.52295.21191ZM258.21001,77.01268h-1.12109v-7h1.12109v7Z" fill="#2f2f2f"/>
        <path d="M259.92681,76.75975v-1.20312c.61084.45117,1.28271.67676,2.0166.67676.98438,0,1.47656-.32812,1.47656-.98438,0-.18701-.04199-.34521-.12646-.4751s-.19824-.24512-.3418-.34521-.31201-.19043-.50586-.27002-.40234-.16309-.62549-.24951c-.31006-.12305-.58203-.24707-.81689-.37256s-.43066-.2666-.58789-.42383-.27588-.33594-.35547-.53662-.11963-.43506-.11963-.7041c0-.32812.0752-.61865.22559-.87158s.35107-.46484.60156-.63574.53662-.2998.85791-.38623.65283-.12988.99463-.12988c.60596,0,1.14844.10498,1.62695.31445v1.13477c-.51514-.3374-1.10742-.50586-1.77734-.50586-.20947,0-.39893.02393-.56738.07178s-.31348.11523-.43408.20166-.21436.19043-.28027.31104-.09912.25391-.09912.3999c0,.18213.0332.33496.09912.45801s.16309.23242.29053.32812.28271.18213.46484.25977.38965.16162.62207.25293c.31006.11865.58789.24023.83398.36572s.45557.2666.62891.42383.30664.33838.3999.54346.14014.44873.14014.73145c0,.34619-.07617.64697-.229.90234s-.35645.46729-.61182.63574-.54932.29395-.88184.37598-.68115.12305-1.0459.12305c-.72021,0-1.34424-.13916-1.87305-.41699Z" fill="#2f2f2f"/>
        <path d="M267.30083,76.00096h-.02734v4.23145h-1.12109v-10.21973h1.12109v1.23047h.02734c.55127-.92969,1.35791-1.39453,2.41992-1.39453.90234,0,1.60645.31348,2.1123.93994s.75879,1.46631.75879,2.51904c0,1.17139-.28467,2.10889-.85449,2.81299s-1.34912,1.05615-2.33789,1.05615c-.90674,0-1.60645-.39209-2.09863-1.17578ZM267.27349,73.17772v.97754c0,.57861.18799,1.06982.56396,1.47314s.85352.60498,1.43213.60498c.6792,0,1.21094-.25977,1.59619-.7793s.57764-1.2417.57764-2.16699c0-.7793-.18018-1.39014-.54004-1.83203s-.84766-.66309-1.46289-.66309c-.65186,0-1.17578.22656-1.57227.68018s-.59473,1.02197-.59473,1.70557Z" fill="#2f2f2f"/>
        <path d="M279.32817,77.01268h-1.12109v-1.09375h-.02734c-.48779.83838-1.20557,1.25781-2.15332,1.25781-.69727,0-1.24316-.18457-1.63721-.55371s-.59131-.85889-.59131-1.46973c0-1.30811.77002-2.06885,2.31055-2.2832l2.09863-.29395c0-1.18945-.48096-1.78418-1.44238-1.78418-.84326,0-1.604.28711-2.2832.86133v-1.14844c.68799-.4375,1.48096-.65625,2.37891-.65625,1.64502,0,2.46777.87061,2.46777,2.61133v4.55273ZM278.20708,73.47166l-1.68848.23242c-.51953.07275-.91162.20166-1.17578.38623s-.39648.51172-.39648.98096c0,.3418.12207.62109.36572.8374s.56836.32471.97412.32471c.55615,0,1.01514-.19482,1.37744-.58447s.54346-.88281.54346-1.47998v-.69727Z" fill="#2f2f2f"/>
        <path d="M284.58647,76.94432c-.26416.146-.61279.21875-1.0459.21875-1.22607,0-1.83887-.68359-1.83887-2.05078v-4.14258h-1.20312v-.95703h1.20312v-1.70898l1.12109-.3623v2.07129h1.76367v.95703h-1.76367v3.94434c0,.46924.07959.8042.23926,1.00488s.42383.30078.79297.30078c.28271,0,.52637-.07764.73145-.23242v.95703Z" fill="#2f2f2f"/>
        <path d="M290.69683,76.69139c-.5376.32373-1.17578.48535-1.91406.48535-.99805,0-1.80371-.32471-2.4165-.97412s-.91943-1.49121-.91943-2.52588c0-1.15283.33057-2.0791.99121-2.77881s1.54248-1.04932,2.64551-1.04932c.61523,0,1.15771.11377,1.62695.3418v1.14844c-.51953-.36475-1.07568-.54688-1.66797-.54688-.71533,0-1.30225.25635-1.76025.76904s-.68701,1.18604-.68701,2.02002c0,.82031.21533,1.46729.646,1.94141s1.0083.71094,1.73291.71094c.61084,0,1.18506-.20264,1.72266-.6084v1.06641Z" fill="#2f2f2f"/>
        <path d="M297.99565,77.01268h-1.12109v-4.0332c0-1.4585-.54248-2.1875-1.62695-2.1875-.54688,0-1.00732.21094-1.38086.63232s-.56055.96289-.56055,1.62354v3.96484h-1.12109v-10.36328h1.12109v4.52539h.02734c.5376-.88428,1.30322-1.32617,2.29688-1.32617,1.57666,0,2.36523.9502,2.36523,2.85059v4.31348Z" fill="#2f2f2f"/>
        <path d="M305.69878,73.79295h-4.94238c.01807.7793.22803,1.38086.62891,1.80469s.95264.63574,1.6543.63574c.78857,0,1.51318-.25977,2.17383-.7793v1.05273c-.61523.44678-1.42871.66992-2.44043.66992-.98877,0-1.76611-.31787-2.33105-.95361s-.84766-1.53027-.84766-2.68311c0-1.08936.30859-1.97656.92627-2.6626s1.38428-1.02881,2.30029-1.02881,1.62451.29639,2.12598.88867.75195,1.41504.75195,2.46777v.58789ZM304.55034,72.84276c-.00439-.64697-.16064-1.15088-.46826-1.51074s-.73486-.54004-1.28174-.54004c-.52881,0-.97754.18896-1.34668.56738s-.59717.87256-.68359,1.4834h3.78027Z" fill="#2f2f2f"/>
        <path d="M311.03179,71.14744c-.1958-.15039-.47852-.22559-.84766-.22559-.47852,0-.87842.22559-1.19971.67676s-.48193,1.06641-.48193,1.8457v3.56836h-1.12109v-7h1.12109v1.44238h.02734c.15967-.49219.40332-.87598.73145-1.15186s.69482-.41357,1.10059-.41357c.2915,0,.51514.03174.66992.0957v1.16211Z" fill="#2f2f2f"/>
      </g>
      <g>
        <path d="M88.38725,19.20653v3.37695h-2.20801v-9.80273h3.45898c2.47021,0,3.70508,1.0415,3.70508,3.12402,0,.98438-.35449,1.78076-1.06299,2.38916s-1.65527.9126-2.84033.9126h-1.05273ZM88.38725,14.47606v3.05566h.86816c1.17578,0,1.76367-.51514,1.76367-1.54492,0-1.00732-.58789-1.51074-1.76367-1.51074h-.86816Z" fill="#2f2f2f"/>
        <path d="M96.7603,19.20653v3.37695h-2.20801v-9.80273h3.45898c2.47021,0,3.70508,1.0415,3.70508,3.12402,0,.98438-.35449,1.78076-1.06299,2.38916s-1.65527.9126-2.84033.9126h-1.05273ZM96.7603,14.47606v3.05566h.86816c1.17578,0,1.76367-.51514,1.76367-1.54492,0-1.00732-.58789-1.51074-1.76367-1.51074h-.86816Z" fill="#2f2f2f"/>
        <path d="M108.55132,22.58348h-2.04395v-1.00488h-.02734c-.46924.78369-1.16455,1.17578-2.08496,1.17578-.6792,0-1.21338-.19238-1.60303-.57764s-.58447-.89893-.58447-1.5415c0-1.35791.8042-2.14209,2.41309-2.35156l1.90039-.25293c0-.76562-.41455-1.14844-1.24414-1.14844-.83398,0-1.62695.24854-2.37891.74512v-1.62695c.30078-.15479.71191-.2915,1.23389-.41016s.99707-.17773,1.42529-.17773c1.99609,0,2.99414.99561,2.99414,2.9873v4.18359ZM106.52104,19.73973v-.47168l-1.27148.16406c-.70166.09131-1.05273.40771-1.05273.9502,0,.24609.08545.44775.25635.60498s.40234.23584.69385.23584c.40576,0,.73584-.14014.99121-.42041s.38281-.63477.38281-1.06299Z" fill="#2f2f2f"/>
        <path d="M116.11675,22.58348h-2.04395v-1.00488h-.02734c-.46924.78369-1.16455,1.17578-2.08496,1.17578-.6792,0-1.21338-.19238-1.60303-.57764s-.58447-.89893-.58447-1.5415c0-1.35791.8042-2.14209,2.41309-2.35156l1.90039-.25293c0-.76562-.41455-1.14844-1.24414-1.14844-.83398,0-1.62695.24854-2.37891.74512v-1.62695c.30078-.15479.71191-.2915,1.23389-.41016s.99707-.17773,1.42529-.17773c1.99609,0,2.99414.99561,2.99414,2.9873v4.18359ZM114.08647,19.73973v-.47168l-1.27148.16406c-.70166.09131-1.05273.40771-1.05273.9502,0,.24609.08545.44775.25635.60498s.40234.23584.69385.23584c.40576,0,.73584-.14014.99121-.42041s.38281-.63477.38281-1.06299Z" fill="#2f2f2f"/>
        <path d="M117.60015,22.2075v-2.1875c.39648.33252.82715.58203,1.29199.74854s.93408.24951,1.4082.24951c.27783,0,.52051-.0249.72803-.0752s.38037-.11963.51953-.2085.24268-.19385.31104-.31445.10254-.25195.10254-.39307c0-.19141-.05469-.3623-.16406-.5127s-.25879-.28955-.44775-.41699-.41357-.25049-.67334-.36914-.54004-.23926-.84082-.3623c-.76562-.31885-1.33643-.7085-1.7124-1.16895s-.56396-1.01611-.56396-1.66797c0-.51025.10254-.94922.30762-1.31592s.48438-.66895.8374-.90576.76221-.41113,1.22705-.52295.95703-.16748,1.47656-.16748c.51025,0,.96289.03076,1.35693.09229s.75781.15625,1.09033.28369v2.04395c-.16406-.11377-.34277-.21436-.53662-.30078s-.39307-.1582-.59814-.21533-.40918-.09912-.61182-.12646-.39551-.04102-.57764-.04102c-.25049,0-.47852.02393-.68359.07178s-.37842.11523-.51953.20166-.25049.19043-.32812.31104-.11621.25635-.11621.40674c0,.16406.04346.31104.12988.44092s.20947.25293.36914.36914.35303.22998.58105.3418.48535.22656.77246.34521c.39209.16406.74414.33838,1.05615.52295s.58008.39307.80322.62549.39404.49805.5127.79639.17773.646.17773,1.04248c0,.54688-.10352,1.00586-.31104,1.37744s-.48877.67236-.84424.90234-.76904.39551-1.24072.49561-.96973.15039-1.49365.15039c-.5376,0-1.04932-.04541-1.53467-.13672s-.90576-.22803-1.26123-.41016Z" fill="#2f2f2f"/>
      </g>
    </g>
  </g>
</svg>