<?xml version="1.0" encoding="UTF-8"?>
<svg xmlns="http://www.w3.org/2000/svg" width="668.8" height="281.6" xmlns:xlink="http://www.w3.org/1999/xlink" viewBox="0 0 668.8 281.6">
  <defs>
    <linearGradient id="linear-gradient" x1="-511.39859" y1="1363.91391" x2="-511.39859" y2="1345.91674" gradientTransform="translate(564 1468) scale(1 -1)" gradientUnits="userSpaceOnUse">
      <stop offset="0" stop-color="#5ea0ef"/>
      <stop offset="1" stop-color="#0078d4"/>
    </linearGradient>
    <linearGradient id="linear-gradient-2" x1="59.03946" y1="1006.85363" x2="60.98325" y2="1004.90983" gradientTransform="translate(3.44441 1234.15976) scale(1 -1)" gradientUnits="userSpaceOnUse">
      <stop offset="0" stop-color="#8bc63f"/>
      <stop offset=".24" stop-color="#88c540"/>
      <stop offset=".5" stop-color="#7dc242"/>
      <stop offset=".76" stop-color="#6daf44"/>
      <stop offset="1" stop-color="#5e9741"/>
    </linearGradient>
    <linearGradient id="linear-gradient-3" x1="54.65546" y1="1006.85372" x2="56.58684" y2="1004.9105" xlink:href="#linear-gradient-2"/>
    <linearGradient id="linear-gradient-4" x1="50.27443" y1="1006.85677" x2="52.20581" y2="1004.91355" xlink:href="#linear-gradient-2"/>
    <linearGradient id="linear-gradient-5" x1="279.59653" y1="1006.54567" x2="281.54033" y2="1004.60187" xlink:href="#linear-gradient-2"/>
    <linearGradient id="linear-gradient-6" x1="275.21254" y1="1006.54576" x2="277.14391" y2="1004.60254" xlink:href="#linear-gradient-2"/>
    <linearGradient id="linear-gradient-7" x1="270.83151" y1="1006.54881" x2="272.76288" y2="1004.60559" xlink:href="#linear-gradient-2"/>
    <linearGradient id="linear-gradient-8" x1="499.83709" y1="1006.23816" x2="501.78089" y2="1004.29436" xlink:href="#linear-gradient-2"/>
    <linearGradient id="linear-gradient-9" x1="495.4531" y1="1006.23825" x2="497.38447" y2="1004.29503" xlink:href="#linear-gradient-2"/>
    <linearGradient id="linear-gradient-10" x1="491.07207" y1="1006.2413" x2="493.00344" y2="1004.29808" xlink:href="#linear-gradient-2"/>
  </defs>
  <g id="Shapes">
    <rect width="668.8" height="281.6" fill="#fff"/>
    <g>
      <rect x="8.00151" y="8.8" width="211.99849" height="264" fill="#fff"/>
      <rect x="8.00151" y="8.8" width="211.99849" height="264" fill="#d9d9d6" opacity=".4"/>
      <rect x="8.00151" y="8.8" width="211.99849" height="264" fill="none" stroke="#d9d9d6" stroke-width=".25"/>
    </g>
    <g>
      <rect x="22.4" y="75" width="180" height="62" fill="#fff"/>
      <rect x="22.4" y="75" width="180" height="62" fill="#1a00e2" opacity=".1"/>
      <rect x="22.4" y="75" width="180" height="62" fill="none" opacity=".7" stroke="#1a00e2" stroke-width=".35"/>
    </g>
    <g>
      <rect x="22.4" y="207" width="180" height="40" fill="#fff"/>
      <rect x="22.4" y="207" width="180" height="40" fill="#1a00e2" opacity=".1"/>
      <rect x="22.4" y="207" width="180" height="40" fill="none" opacity=".7" stroke="#1a00e2" stroke-width=".35"/>
    </g>
    <g>
      <circle cx="49.82416" cy="99.4451" r="1.51866" fill="#76bc2d"/>
      <circle cx="44.97645" cy="99.45844" r="1.51866" fill="#76bc2d"/>
      <circle cx="40.13042" cy="99.45844" r="1.51866" fill="#76bc2d"/>
      <path d="M41.23399,105.53307l-.87019.86352c-.15268.15329-.40073.15378-.55402.0011-.00037-.00037-.00073-.00073-.0011-.0011h0l-6.43804-6.41137c-.30652-.30661-.30652-.80363,0-1.11024h0l.86852-.87185h0l7.00149,6.97315c.153.15406.153.40272,0,.55679h-.00667Z" fill="#50e6ff"/>
      <path d="M40.23211,92.52696l.87185.86685c.15329.15268.15378.40073.0011.55402-.00037.00037-.00073.00073-.0011.0011l-6.87147,6.89314h0l-.87019-.86852c-.3058-.30756-.3058-.80435,0-1.1119h0l6.31468-6.33468c.15268-.15329.40073-.15378.55402-.0011.00037.00037.00073.00073.0011.0011Z" fill="#1490df"/>
      <path d="M51.52285,102.98753h1.93208l3.02231-3.01398c.3056-.30699.3056-.80325,0-1.11024l-.87019-.87185-5.0094,5.00107.9252-.005Z" fill="#50e6ff"/>
      <path d="M56.47557,99.96521l-.87185.86852h0l-6.87147-6.89147c-.14931-.15233-.14931-.39612,0-.54845h0l.88186-.87852c.15268-.15329.40073-.15378.55402-.0011.00037.00037.00074.00073.0011.0011h0l6.31635,6.33468c.30671.30718.30671.80472,0,1.1119h0l-.01.00333Z" fill="#1490df"/>
      <path d="M61.6,114.2716v-2.04044h-.27006l-2.21881-.68848-.51011-1.53033,1.11024-2.39885-1.44031-1.44031h-.27006l-2.06877,1.05022-1.38029-.57012-.90019-2.49053h-2.12879v.30006l-.72015,2.19047-1.4103.57012-2.33383-1.11024-1.44031,1.44031.15003.27006.83351,2.21881-.4801,1.50032-2.51887.80851v2.19047h.30006l2.1888.72015.51011,1.34862-1.11024,2.40051,1.50032,1.52866.30006-.15003,2.03877-1.04856,1.4103.57012.90186,2.48886h2.03877v-.30006l.72015-2.1888,1.4103-.57012,2.36884,1.10857,1.44031-1.43864-.15003-.27006-.87019-2.16713.57012-1.40863,2.42885-.89353ZM52.66309,117.27224h-.06168c-2.16995-.01703-3.91524-1.78994-3.89821-3.95989.01703-2.16995,1.78994-3.91524,3.95989-3.89821,2.16995.01703,3.91524,1.78994,3.89821,3.95989-.01684,2.14591-1.7523,3.88137-3.89821,3.89821Z" fill="url(#linear-gradient)"/>
    </g>
    <g>
      <g>
        <rect x="44.20247" y="218.2" width="26.82136" height="20" rx="3" ry="3" fill="#fff"/>
        <rect x="44.20247" y="218.2" width="26.82136" height="20" rx="3" ry="3" fill="none" stroke="#6bb9f2" stroke-width=".25"/>
      </g>
      <g>
        <circle cx="62.04614" cy="228.18911" r="1.37447" fill="url(#linear-gradient-2)"/>
        <circle cx="57.66205" cy="228.20096" r="1.37447" fill="url(#linear-gradient-3)"/>
        <circle cx="53.27795" cy="228.20096" r="1.37447" fill="url(#linear-gradient-4)"/>
        <path d="M54.27576,233.69598l-.78647.78867c-.13862.13901-.36369.13933-.50271.0007h0l-5.82275-5.80651c-.27803-.27725-.27865-.72739-.0014-1.00541h0s.78647-.78867.78647-.78867h0l6.32616,6.30852c.13901.13862.13933.36369.0007.50271h0Z" fill="#74cfeb"/>
        <path d="M53.37027,221.93077l.78867.78647c.13901.13862.13933.36369.0007.50271l-6.21648,6.23387h0l-.78867-.78647c-.27802-.27725-.27865-.72739-.0014-1.00541h0s5.71448-5.73046,5.71448-5.73046c.13862-.13901.36369-.13933.50271-.0007Z" fill="#2f8dcc"/>
        <path d="M67.2794,226.87396l.78647.78867c.27725.27802.27662.72816-.0014,1.00541h0s-5.82275,5.80651-5.82275,5.80651c-.13901.13862-.36408.13831-.50271-.0007h0l-.78647-.78867c-.13862-.13901-.13831-.36408.0007-.50271h0l6.32616-6.30852h0Z" fill="#74cfeb"/>
        <path d="M68.06341,228.65959l-.78867.78647h0l-6.21648-6.23387c-.13862-.13901-.13831-.36408.0007-.50271h0l.79706-.79484c.13901-.13862.36408-.13831.50271.0007h0l5.71448,5.73046c.27725.27802.27662.72816-.0014,1.00541h0s-.00839.00837-.00839.00837Z" fill="#2f8dcc"/>
      </g>
    </g>
    <g>
      <rect x="228.55901" y="8.8" width="211.99849" height="264" fill="#fff"/>
      <rect x="228.55901" y="8.8" width="211.99849" height="264" fill="#d9d9d6" opacity=".4"/>
      <rect x="228.55901" y="8.8" width="211.99849" height="264" fill="none" stroke="#d9d9d6" stroke-width=".25"/>
    </g>
    <g>
      <rect x="242.4" y="207" width="180" height="40" fill="#fff"/>
      <rect x="242.4" y="207" width="180" height="40" fill="#1a00e2" opacity=".1"/>
      <rect x="242.4" y="207" width="180" height="40" fill="none" opacity=".7" stroke="#1a00e2" stroke-width=".35"/>
    </g>
    <g>
      <g>
        <rect x="264.75997" y="218.2" width="26.82136" height="20" rx="3" ry="3" fill="#fff"/>
        <rect x="264.75997" y="218.2" width="26.82136" height="20" rx="3" ry="3" fill="none" stroke="#6bb9f2" stroke-width=".25"/>
      </g>
      <g>
        <circle cx="282.60365" cy="228.18911" r="1.37447" fill="url(#linear-gradient-5)"/>
        <circle cx="278.21955" cy="228.20096" r="1.37447" fill="url(#linear-gradient-6)"/>
        <circle cx="273.83546" cy="228.20096" r="1.37447" fill="url(#linear-gradient-7)"/>
        <path d="M274.83327,233.69598l-.78647.78867c-.13862.13901-.36369.13933-.50271.0007h0l-5.82275-5.80651c-.27803-.27725-.27865-.72739-.0014-1.00541h0s.78647-.78867.78647-.78867h0l6.32616,6.30852c.13901.13862.13933.36369.0007.50271h0Z" fill="#74cfeb"/>
        <path d="M273.92778,221.93077l.78867.78647c.13901.13862.13933.36369.0007.50271l-6.21648,6.23387h0l-.78867-.78647c-.27802-.27725-.27865-.72739-.0014-1.00541h0s5.71448-5.73046,5.71448-5.73046c.13862-.13901.36369-.13933.50271-.0007Z" fill="#2f8dcc"/>
        <path d="M287.83691,226.87396l.78647.78867c.27725.27802.27662.72816-.0014,1.00541h0s-5.82275,5.80651-5.82275,5.80651c-.13901.13862-.36408.13831-.50271-.0007h0l-.78647-.78867c-.13862-.13901-.13831-.36408.0007-.50271h0l6.32616-6.30852h0Z" fill="#74cfeb"/>
        <path d="M288.62092,228.65959l-.78867.78647h0l-6.21648-6.23387c-.13862-.13901-.13831-.36408.0007-.50271h0l.79706-.79484c.13901-.13862.36408-.13831.50271.0007h0l5.71448,5.73046c.27725.27802.27662.72816-.0014,1.00541h0s-.00839.00837-.00839.00837Z" fill="#2f8dcc"/>
      </g>
    </g>
    <g>
      <rect x="448.8" y="8.8" width="211.99849" height="264" fill="#fff"/>
      <rect x="448.8" y="8.8" width="211.99849" height="264" fill="#d9d9d6" opacity=".4"/>
      <rect x="448.8" y="8.8" width="211.99849" height="264" fill="none" stroke="#d9d9d6" stroke-width=".25"/>
    </g>
    <g>
      <rect x="463.4" y="207" width="180" height="40" fill="#fff"/>
      <rect x="463.4" y="207" width="180" height="40" fill="#1a00e2" opacity=".1"/>
      <rect x="463.4" y="207" width="180" height="40" fill="none" opacity=".7" stroke="#1a00e2" stroke-width=".35"/>
    </g>
    <g>
      <g>
        <rect x="485.00096" y="218.2" width="26.82136" height="20" rx="3" ry="3" fill="#fff"/>
        <rect x="485.00096" y="218.2" width="26.82136" height="20" rx="3" ry="3" fill="none" stroke="#6bb9f2" stroke-width=".25"/>
      </g>
      <g>
        <circle cx="502.84464" cy="228.18911" r="1.37447" fill="url(#linear-gradient-8)"/>
        <circle cx="498.46054" cy="228.20096" r="1.37447" fill="url(#linear-gradient-9)"/>
        <circle cx="494.07645" cy="228.20096" r="1.37447" fill="url(#linear-gradient-10)"/>
        <path d="M495.07426,233.69598l-.78647.78867c-.13862.13901-.36369.13933-.50271.0007h0l-5.82275-5.80651c-.27803-.27725-.27865-.72739-.0014-1.00541h0s.78647-.78867.78647-.78867h0l6.32616,6.30852c.13901.13862.13933.36369.0007.50271h0Z" fill="#74cfeb"/>
        <path d="M494.16877,221.93077l.78867.78647c.13901.13862.13933.36369.0007.50271l-6.21648,6.23387h0l-.78867-.78647c-.27802-.27725-.27865-.72739-.0014-1.00541h0s5.71448-5.73046,5.71448-5.73046c.13862-.13901.36369-.13933.50271-.0007Z" fill="#2f8dcc"/>
        <path d="M508.0779,226.87396l.78647.78867c.27725.27802.27662.72816-.0014,1.00541h0s-5.82275,5.80651-5.82275,5.80651c-.13901.13862-.36408.13831-.50271-.0007h0l-.78647-.78867c-.13862-.13901-.13831-.36408.0007-.50271h0l6.32616-6.30852h0Z" fill="#74cfeb"/>
        <path d="M508.86191,228.65959l-.78867.78647h0l-6.21648-6.23387c-.13862-.13901-.13831-.36408.0007-.50271h0l.79706-.79484c.13901-.13862.36408-.13831.50271.0007h0l5.71448,5.73046c.27725.27802.27662.72816-.0014,1.00541h0s-.00839.00837-.00839.00837Z" fill="#2f8dcc"/>
      </g>
    </g>
    <g>
      <line x1="109.99999" y1="136.4" x2="109.99999" y2="202.76337" fill="none" stroke="#3c3c41" stroke-miterlimit="10" stroke-width=".75"/>
      <polygon points="107.19518 201.94269 109.99999 206.8 112.8048 201.94269 107.19518 201.94269" fill="#3c3c41"/>
    </g>
    <g>
      <line x1="334.4" y1="158.4" x2="334.4" y2="202.76337" fill="none" stroke="#3c3c41" stroke-miterlimit="10" stroke-width=".75"/>
      <polygon points="331.59519 201.94269 334.4 206.8 337.20481 201.94269 331.59519 201.94269" fill="#3c3c41"/>
    </g>
    <g>
      <path d="M109.99999,158.4h443.8c2.75,0,5,2.25,5,5v39.36337" fill="none" stroke="#3c3c41" stroke-miterlimit="10" stroke-width=".75"/>
      <polygon points="555.99519 201.94269 558.8 206.8 561.60481 201.94269 555.99519 201.94269" fill="#3c3c41"/>
    </g>
  </g>
  <g id="Text">
    <g>
      <path d="M27.14512,32.80029h-2.53613l-1.52441-2.52246c-.11377-.19141-.22314-.3623-.32812-.5127s-.21094-.2793-.31787-.38623-.21875-.18896-.33496-.24609-.24268-.08545-.37939-.08545h-.59473v3.75293h-2.20801v-9.80273h3.5c2.37891,0,3.56836.88867,3.56836,2.66602,0,.3418-.05225.65723-.15723.94678s-.25293.55029-.44434.78271-.42285.43311-.69385.60156-.57324.30078-.90576.39648v.02734c.146.04541.28711.11963.42383.22217s.26904.22217.39648.35889.24951.28369.36572.44092.22217.31104.31787.46143l1.85254,2.89844ZM21.12949,24.65186v2.72754h.95703c.47412,0,.85449-.13672,1.1416-.41016.2915-.27783.4375-.62207.4375-1.03223,0-.85693-.5127-1.28516-1.53809-1.28516h-.99805Z" fill="#2f2f2f"/>
      <path d="M33.96348,29.91553h-4.56641c.07275,1.01611.71338,1.52441,1.9209,1.52441.77002,0,1.44678-.18213,2.03027-.54688v1.55859c-.64697.34619-1.48779.51953-2.52246.51953-1.13037,0-2.00732-.31348-2.63184-.93994s-.93652-1.50049-.93652-2.62158c0-1.16211.3374-2.08252,1.01172-2.76172s1.50391-1.01855,2.48828-1.01855c1.021,0,1.81055.30322,2.36865.90918s.8374,1.42871.8374,2.46777v.90918ZM31.96055,28.58936c0-1.00244-.40576-1.50391-1.2168-1.50391-.34619,0-.646.14355-.89893.43066s-.40674.64502-.46143,1.07324h2.57715Z" fill="#2f2f2f"/>
      <path d="M42.22227,32.00049c0,1.29883-.37598,2.30469-1.12793,3.01807s-1.84131,1.06982-3.26758,1.06982c-.94336,0-1.69092-.13428-2.24219-.40332v-1.81836c.72021.41943,1.44678.62891,2.18066.62891.729,0,1.29443-.19238,1.69531-.57764s.60156-.9082.60156-1.56885v-.55371h-.02734c-.49219.78369-1.21924,1.17578-2.18066,1.17578-.89307,0-1.60205-.31445-2.12598-.94336s-.78613-1.47217-.78613-2.5293c0-1.18506.2915-2.12598.875-2.82324s1.35107-1.0459,2.30371-1.0459c.85205,0,1.49023.32812,1.91406.98438h.02734v-.81348h2.16016v6.2002ZM40.08945,29.43701v-.55371c0-.44189-.13086-.81934-.39307-1.13135s-.60254-.46826-1.02197-.46826c-.47852,0-.85449.18701-1.12793.56055s-.41016.8999-.41016,1.5791c0,.5835.12988,1.04492.38965,1.38428s.61523.50928,1.06641.50928c.44678,0,.80762-.17188,1.0835-.51611s.41357-.79883.41357-1.36377Z" fill="#2f2f2f"/>
      <path d="M45.07725,24.69287c-.36475,0-.66309-.1084-.89551-.32471s-.34863-.48193-.34863-.79639c0-.32373.11621-.58789.34863-.79297s.53076-.30762.89551-.30762c.36914,0,.66895.10254.89893.30762s.34521.46924.34521.79297c0,.32812-.11523.59717-.34521.80664s-.52979.31445-.89893.31445ZM46.14365,32.80029h-2.16016v-7h2.16016v7Z" fill="#2f2f2f"/>
      <path d="M51.25449,32.97119c-1.1665,0-2.08398-.32715-2.75146-.98096s-1.00146-1.5415-1.00146-2.6626c0-1.15771.34619-2.06348,1.03906-2.71729s1.62939-.98096,2.80957-.98096c1.16211,0,2.07373.32715,2.73438.98096s.99121,1.51855.99121,2.59424c0,1.16211-.34082,2.08057-1.02197,2.75488s-1.61426,1.01172-2.79932,1.01172ZM51.30918,27.28369c-.51025,0-.90674.17529-1.18945.52637s-.42383.84766-.42383,1.49023c0,1.34424.54248,2.0166,1.62695,2.0166,1.03467,0,1.55176-.69043,1.55176-2.07129,0-1.30811-.52197-1.96191-1.56543-1.96191Z" fill="#2f2f2f"/>
      <path d="M63.21689,32.80029h-2.15332v-3.88965c0-1.08447-.38721-1.62695-1.16211-1.62695-.37354,0-.68115.14355-.92285.43066s-.3623.65186-.3623,1.09375v3.99219h-2.16016v-7h2.16016v1.10742h.02734c.51514-.85205,1.26465-1.27832,2.24902-1.27832,1.54932,0,2.32422.96143,2.32422,2.88477v4.28613Z" fill="#2f2f2f"/>
      <path d="M73.5665,22.77881v10.02148h-2.15332v-7.58789c-.11865.10498-.25879.2041-.42041.29736s-.33398.17773-.51611.25293-.37158.13916-.56738.19141-.38965.08984-.58105.11279v-1.81836c.56055-.16406,1.08936-.37354,1.58594-.62891s.9458-.53564,1.34668-.84082h1.30566Z" fill="#2f2f2f"/>
      <path d="M21.87461,51.82861h-.99805c-1.4126-1.61328-2.11914-3.60254-2.11914-5.96777,0-2.37451.70654-4.39551,2.11914-6.06348h1.01172c-1.43115,1.73193-2.14648,3.74854-2.14648,6.0498,0,2.2832.71094,4.27686,2.13281,5.98145Z" fill="#2f2f2f"/>
      <path d="M30.59238,49.6001h-1.14844v-4.4707h-5.07227v4.4707h-1.14844v-9.80273h1.14844v4.2998h5.07227v-4.2998h1.14844v9.80273Z" fill="#2f2f2f"/>
      <path d="M35.85117,49.76416c-1.03467,0-1.86035-.32715-2.47803-.98096s-.92627-1.521-.92627-2.60107c0-1.17578.32129-2.09424.96387-2.75488s1.51074-.99121,2.60449-.99121c1.04346,0,1.8584.32129,2.44385.96387s.87842,1.53369.87842,2.67285c0,1.1167-.31543,2.01074-.94678,2.68311s-1.47754,1.0083-2.53955,1.0083ZM35.9332,43.37939c-.72021,0-1.28955.24512-1.70898.73486s-.62891,1.16553-.62891,2.02686c0,.82959.21191,1.4834.63574,1.96191s.99121.71777,1.70215.71777c.72461,0,1.28174-.23486,1.67139-.7041s.58447-1.13721.58447-2.00293c0-.875-.19482-1.54932-.58447-2.02344s-.94678-.71094-1.67139-.71094Z" fill="#2f2f2f"/>
      <path d="M50.99277,49.6001h-1.12109v-4.01953c0-.7749-.11963-1.33545-.35889-1.68164s-.6416-.51953-1.20654-.51953c-.47852,0-.88525.21875-1.22021.65625s-.50244.96143-.50244,1.57227v3.99219h-1.12109v-4.15625c0-1.37646-.53076-2.06445-1.59277-2.06445-.49219,0-.89795.20605-1.2168.61865s-.47852.94922-.47852,1.60986v3.99219h-1.12109v-7h1.12109v1.10742h.02734c.49658-.84766,1.22119-1.27148,2.17383-1.27148.47852,0,.89551.1333,1.25098.3999s.59912.61621.73145,1.04932c.51953-.96631,1.29443-1.44922,2.32422-1.44922,1.54053,0,2.31055.9502,2.31055,2.85059v4.31348Z" fill="#2f2f2f"/>
      <path d="M58.6998,46.38037h-4.94238c.01807.7793.22803,1.38086.62891,1.80469s.95264.63574,1.6543.63574c.78857,0,1.51318-.25977,2.17383-.7793v1.05273c-.61523.44678-1.42871.66992-2.44043.66992-.98877,0-1.76611-.31787-2.33105-.95361s-.84766-1.53027-.84766-2.68311c0-1.08936.30859-1.97656.92627-2.6626s1.38428-1.02881,2.30029-1.02881,1.62451.29639,2.12598.88867.75195,1.41504.75195,2.46777v.58789ZM57.55137,45.43018c-.00439-.64697-.16064-1.15088-.46826-1.51074s-.73486-.54004-1.28174-.54004c-.52881,0-.97754.18896-1.34668.56738s-.59717.87256-.68359,1.4834h3.78027Z" fill="#2f2f2f"/>
      <path d="M69.24082,49.6001h-1.12109v-1.09375h-.02734c-.48779.83838-1.20557,1.25781-2.15332,1.25781-.69727,0-1.24316-.18457-1.63721-.55371s-.59131-.85889-.59131-1.46973c0-1.30811.77002-2.06885,2.31055-2.2832l2.09863-.29395c0-1.18945-.48096-1.78418-1.44238-1.78418-.84326,0-1.604.28711-2.2832.86133v-1.14844c.68799-.4375,1.48096-.65625,2.37891-.65625,1.64502,0,2.46777.87061,2.46777,2.61133v4.55273ZM68.11973,46.05908l-1.68848.23242c-.51953.07275-.91162.20166-1.17578.38623s-.39648.51172-.39648.98096c0,.3418.12207.62109.36572.8374s.56836.32471.97412.32471c.55615,0,1.01514-.19482,1.37744-.58447s.54346-.88281.54346-1.47998v-.69727Z" fill="#2f2f2f"/>
      <path d="M77.07285,49.6001h-1.12109v-3.99219c0-1.48584-.54248-2.22852-1.62695-2.22852-.56055,0-1.02441.21094-1.39111.63232s-.55029.95361-.55029,1.59619v3.99219h-1.12109v-7h1.12109v1.16211h.02734c.52881-.88428,1.29443-1.32617,2.29688-1.32617.76562,0,1.35107.24707,1.75684.7417s.6084,1.20898.6084,2.14307v4.2793Z" fill="#2f2f2f"/>
      <path d="M85.14707,49.6001h-1.12109v-1.18945h-.02734c-.51953.90234-1.32178,1.35352-2.40625,1.35352-.87939,0-1.58252-.31348-2.10889-.93994s-.78955-1.47998-.78955-2.56006c0-1.15771.2915-2.08496.875-2.78223s1.36035-1.0459,2.33105-1.0459c.96143,0,1.66113.37842,2.09863,1.13477h.02734v-4.33398h1.12109v10.36328ZM84.02598,46.43506v-1.03223c0-.56494-.18701-1.04346-.56055-1.43555s-.84766-.58789-1.42188-.58789c-.68359,0-1.22119.25049-1.61328.75195s-.58789,1.19385-.58789,2.07812c0,.80664.18799,1.44336.56396,1.91064s.88086.70068,1.51416.70068c.62451,0,1.13135-.22559,1.521-.67676s.58447-1.021.58447-1.70898Z" fill="#2f2f2f"/>
      <path d="M94.49863,49.53174c-.26416.146-.61279.21875-1.0459.21875-1.22607,0-1.83887-.68359-1.83887-2.05078v-4.14258h-1.20312v-.95703h1.20312v-1.70898l1.12109-.3623v2.07129h1.76367v.95703h-1.76367v3.94434c0,.46924.07959.8042.23926,1.00488s.42383.30078.79297.30078c.28271,0,.52637-.07764.73145-.23242v.95703Z" fill="#2f2f2f"/>
      <path d="M101.11582,49.6001h-1.12109v-1.09375h-.02734c-.48779.83838-1.20557,1.25781-2.15332,1.25781-.69727,0-1.24316-.18457-1.63721-.55371s-.59131-.85889-.59131-1.46973c0-1.30811.77002-2.06885,2.31055-2.2832l2.09863-.29395c0-1.18945-.48096-1.78418-1.44238-1.78418-.84326,0-1.604.28711-2.2832.86133v-1.14844c.68799-.4375,1.48096-.65625,2.37891-.65625,1.64502,0,2.46777.87061,2.46777,2.61133v4.55273ZM99.99473,46.05908l-1.68848.23242c-.51953.07275-.91162.20166-1.17578.38623s-.39648.51172-.39648.98096c0,.3418.12207.62109.36572.8374s.56836.32471.97412.32471c.55615,0,1.01514-.19482,1.37744-.58447s.54346-.88281.54346-1.47998v-.69727Z" fill="#2f2f2f"/>
      <path d="M106.78721,43.73486c-.1958-.15039-.47852-.22559-.84766-.22559-.47852,0-.87842.22559-1.19971.67676s-.48193,1.06641-.48193,1.8457v3.56836h-1.12109v-7h1.12109v1.44238h.02734c.15967-.49219.40332-.87598.73145-1.15186s.69482-.41357,1.10059-.41357c.2915,0,.51514.03174.66992.0957v1.16211Z" fill="#2f2f2f"/>
      <path d="M113.98984,49.03955c0,2.57031-1.23047,3.85547-3.69141,3.85547-.86572,0-1.62256-.16406-2.26953-.49219v-1.12109c.78857.4375,1.54053.65625,2.25586.65625,1.72266,0,2.58398-.91602,2.58398-2.74805v-.76562h-.02734c-.5332.89307-1.33545,1.33984-2.40625,1.33984-.87061,0-1.57129-.31104-2.10205-.93311s-.79639-1.45703-.79639-2.50537c0-1.18945.28613-2.13525.85791-2.83691s1.35449-1.05273,2.34814-1.05273c.94336,0,1.64307.37842,2.09863,1.13477h.02734v-.9707h1.12109v6.43945ZM112.86875,46.43506v-1.03223c0-.55615-.18799-1.03223-.56396-1.42871s-.84424-.59473-1.40479-.59473c-.69287,0-1.23486.25195-1.62695.75537s-.58789,1.20898-.58789,2.11572c0,.7793.18799,1.40234.56396,1.86963s.87402.70068,1.49365.70068c.62891,0,1.14062-.22314,1.53467-.66992s.59131-1.01855.59131-1.71582Z" fill="#2f2f2f"/>
      <path d="M121.81113,46.38037h-4.94238c.01807.7793.22803,1.38086.62891,1.80469s.95264.63574,1.6543.63574c.78857,0,1.51318-.25977,2.17383-.7793v1.05273c-.61523.44678-1.42871.66992-2.44043.66992-.98877,0-1.76611-.31787-2.33105-.95361s-.84766-1.53027-.84766-2.68311c0-1.08936.30859-1.97656.92627-2.6626s1.38428-1.02881,2.30029-1.02881,1.62451.29639,2.12598.88867.75195,1.41504.75195,2.46777v.58789ZM120.6627,45.43018c-.00439-.64697-.16064-1.15088-.46826-1.51074s-.73486-.54004-1.28174-.54004c-.52881,0-.97754.18896-1.34668.56738s-.59717.87256-.68359,1.4834h3.78027Z" fill="#2f2f2f"/>
      <path d="M126.73545,49.53174c-.26416.146-.61279.21875-1.0459.21875-1.22607,0-1.83887-.68359-1.83887-2.05078v-4.14258h-1.20312v-.95703h1.20312v-1.70898l1.12109-.3623v2.07129h1.76367v.95703h-1.76367v3.94434c0,.46924.07959.8042.23926,1.00488s.42383.30078.79297.30078c.28271,0,.52637-.07764.73145-.23242v.95703Z" fill="#2f2f2f"/>
      <path d="M127.96006,51.82861h-.99805c1.42188-1.70459,2.13281-3.69824,2.13281-5.98145,0-2.30127-.71533-4.31787-2.14648-6.0498h1.01172c1.42188,1.66797,2.13281,3.68896,2.13281,6.06348,0,2.36523-.71094,4.35449-2.13281,5.96777Z" fill="#2f2f2f"/>
    </g>
    <g>
      <path d="M165.27939,180.3999h-1.1416v-6.57617c0-.51953.03174-1.15527.0957-1.90723h-.02734c-.10938.44189-.20752.75879-.29395.9502l-3.34961,7.5332h-.56055l-3.34277-7.47852c-.0957-.21875-.19385-.55371-.29395-1.00488h-.02734c.03662.39209.05469,1.03223.05469,1.9209v6.5625h-1.10742v-9.80273h1.51758l3.00781,6.83594c.23242.52393.38281.91602.45117,1.17578h.04102c.1958-.5376.35303-.93896.47168-1.20312l3.06934-6.80859h1.43555v9.80273Z" fill="#2f2f2f"/>
      <path d="M172.59385,180.3999h-1.12109v-1.09375h-.02734c-.48779.83838-1.20557,1.25781-2.15332,1.25781-.69727,0-1.24316-.18457-1.63721-.55371s-.59131-.85889-.59131-1.46973c0-1.30811.77002-2.06885,2.31055-2.2832l2.09863-.29395c0-1.18945-.48096-1.78418-1.44238-1.78418-.84326,0-1.604.28711-2.2832.86133v-1.14844c.68799-.4375,1.48096-.65625,2.37891-.65625,1.64502,0,2.46777.87061,2.46777,2.61133v4.55273ZM171.47275,176.85889l-1.68848.23242c-.51953.07275-.91162.20166-1.17578.38623s-.39648.51172-.39648.98096c0,.3418.12207.62109.36572.8374s.56836.32471.97412.32471c.55615,0,1.01514-.19482,1.37744-.58447s.54346-.88281.54346-1.47998v-.69727Z" fill="#2f2f2f"/>
      <path d="M180.42539,180.3999h-1.12109v-3.99219c0-1.48584-.54248-2.22852-1.62695-2.22852-.56055,0-1.02441.21094-1.39111.63232s-.55029.95361-.55029,1.59619v3.99219h-1.12109v-7h1.12109v1.16211h.02734c.52881-.88428,1.29443-1.32617,2.29688-1.32617.76562,0,1.35107.24707,1.75684.7417s.6084,1.20898.6084,2.14307v4.2793Z" fill="#2f2f2f"/>
      <path d="M187.45762,180.3999h-1.12109v-1.09375h-.02734c-.48779.83838-1.20557,1.25781-2.15332,1.25781-.69727,0-1.24316-.18457-1.63721-.55371s-.59131-.85889-.59131-1.46973c0-1.30811.77002-2.06885,2.31055-2.2832l2.09863-.29395c0-1.18945-.48096-1.78418-1.44238-1.78418-.84326,0-1.604.28711-2.2832.86133v-1.14844c.68799-.4375,1.48096-.65625,2.37891-.65625,1.64502,0,2.46777.87061,2.46777,2.61133v4.55273ZM186.33652,176.85889l-1.68848.23242c-.51953.07275-.91162.20166-1.17578.38623s-.39648.51172-.39648.98096c0,.3418.12207.62109.36572.8374s.56836.32471.97412.32471c.55615,0,1.01514-.19482,1.37744-.58447s.54346-.88281.54346-1.47998v-.69727Z" fill="#2f2f2f"/>
      <path d="M195.52646,179.83936c0,2.57031-1.23047,3.85547-3.69141,3.85547-.86572,0-1.62256-.16406-2.26953-.49219v-1.12109c.78857.4375,1.54053.65625,2.25586.65625,1.72266,0,2.58398-.91602,2.58398-2.74805v-.76562h-.02734c-.5332.89307-1.33545,1.33984-2.40625,1.33984-.87061,0-1.57129-.31104-2.10205-.93311s-.79639-1.45703-.79639-2.50537c0-1.18945.28613-2.13525.85791-2.83691s1.35449-1.05273,2.34814-1.05273c.94336,0,1.64307.37842,2.09863,1.13477h.02734v-.9707h1.12109v6.43945ZM194.40537,177.23486v-1.03223c0-.55615-.18799-1.03223-.56396-1.42871s-.84424-.59473-1.40479-.59473c-.69287,0-1.23486.25195-1.62695.75537s-.58789,1.20898-.58789,2.11572c0,.7793.18799,1.40234.56396,1.86963s.87402.70068,1.49365.70068c.62891,0,1.14062-.22314,1.53467-.66992s.59131-1.01855.59131-1.71582Z" fill="#2f2f2f"/>
      <path d="M203.34775,177.18018h-4.94238c.01807.7793.22803,1.38086.62891,1.80469s.95264.63574,1.6543.63574c.78857,0,1.51318-.25977,2.17383-.7793v1.05273c-.61523.44678-1.42871.66992-2.44043.66992-.98877,0-1.76611-.31787-2.33105-.95361s-.84766-1.53027-.84766-2.68311c0-1.08936.30859-1.97656.92627-2.6626s1.38428-1.02881,2.30029-1.02881,1.62451.29639,2.12598.88867.75195,1.41504.75195,2.46777v.58789ZM202.19932,176.22998c-.00439-.64697-.16064-1.15088-.46826-1.51074s-.73486-.54004-1.28174-.54004c-.52881,0-.97754.18896-1.34668.56738s-.59717.87256-.68359,1.4834h3.78027Z" fill="#2f2f2f"/>
      <path d="M204.58945,180.14697v-1.20312c.61084.45117,1.28271.67676,2.0166.67676.98438,0,1.47656-.32812,1.47656-.98438,0-.18701-.04199-.34521-.12646-.4751s-.19824-.24512-.3418-.34521-.31201-.19043-.50586-.27002-.40234-.16309-.62549-.24951c-.31006-.12305-.58203-.24707-.81689-.37256s-.43066-.2666-.58789-.42383-.27588-.33594-.35547-.53662-.11963-.43506-.11963-.7041c0-.32812.0752-.61865.22559-.87158s.35107-.46484.60156-.63574.53662-.2998.85791-.38623.65283-.12988.99463-.12988c.60596,0,1.14844.10498,1.62695.31445v1.13477c-.51514-.3374-1.10742-.50586-1.77734-.50586-.20947,0-.39893.02393-.56738.07178s-.31348.11523-.43408.20166-.21436.19043-.28027.31104-.09912.25391-.09912.3999c0,.18213.0332.33496.09912.45801s.16309.23242.29053.32812.28271.18213.46484.25977.38965.16162.62207.25293c.31006.11865.58789.24023.83398.36572s.45557.2666.62891.42383.30664.33838.3999.54346.14014.44873.14014.73145c0,.34619-.07617.64697-.229.90234s-.35645.46729-.61182.63574-.54932.29395-.88184.37598-.68115.12305-1.0459.12305c-.72021,0-1.34424-.13916-1.87305-.41699Z" fill="#2f2f2f"/>
    </g>
    <g>
      <rect x="73.57526" y="92.4" width="111.22474" height="30.8" fill="none"/>
      <path d="M82.14756,94.49854l-3.62988,9.80273h-1.26465l-3.55469-9.80273h1.27832l2.71387,7.77246c.08643.25049.15283.54004.19824.86816h.02734c.03662-.27344.11182-.56738.22559-.88184l2.76855-7.75879h1.2373Z" fill="#2f2f2f"/>
      <path d="M84.05918,95.52393c-.20068,0-.37158-.06836-.5127-.20508s-.21191-.31006-.21191-.51953.0708-.38379.21191-.52295.31201-.2085.5127-.2085c.20508,0,.37939.06934.52295.2085s.21533.31348.21533.52295c0,.20068-.07178.37158-.21533.5127s-.31787.21191-.52295.21191ZM84.60605,104.30127h-1.12109v-7h1.12109v7Z" fill="#2f2f2f"/>
      <path d="M90.3751,98.43604c-.1958-.15039-.47852-.22559-.84766-.22559-.47852,0-.87842.22559-1.19971.67676s-.48193,1.06641-.48193,1.8457v3.56836h-1.12109v-7h1.12109v1.44238h.02734c.15967-.49219.40332-.87598.73145-1.15186s.69482-.41357,1.10059-.41357c.2915,0,.51514.03174.66992.0957v1.16211Z" fill="#2f2f2f"/>
      <path d="M95.29404,104.23291c-.26416.146-.61279.21875-1.0459.21875-1.22607,0-1.83887-.68359-1.83887-2.05078v-4.14258h-1.20312v-.95703h1.20312v-1.70898l1.12109-.3623v2.07129h1.76367v.95703h-1.76367v3.94434c0,.46924.07959.8042.23926,1.00488s.42383.30078.79297.30078c.28271,0,.52637-.07764.73145-.23242v.95703Z" fill="#2f2f2f"/>
      <path d="M102.41172,104.30127h-1.12109v-1.10742h-.02734c-.46484.84766-1.18506,1.27148-2.16016,1.27148-1.66797,0-2.50195-.99365-2.50195-2.98047v-4.18359h1.11426v4.00586c0,1.47656.56494,2.21484,1.69531,2.21484.54688,0,.99707-.20166,1.3501-.60498s.52979-.93066.52979-1.58252v-4.0332h1.12109v7Z" fill="#2f2f2f"/>
      <path d="M109.56748,104.30127h-1.12109v-1.09375h-.02734c-.48779.83838-1.20557,1.25781-2.15332,1.25781-.69727,0-1.24316-.18457-1.63721-.55371s-.59131-.85889-.59131-1.46973c0-1.30811.77002-2.06885,2.31055-2.2832l2.09863-.29395c0-1.18945-.48096-1.78418-1.44238-1.78418-.84326,0-1.604.28711-2.2832.86133v-1.14844c.68799-.4375,1.48096-.65625,2.37891-.65625,1.64502,0,2.46777.87061,2.46777,2.61133v4.55273ZM108.44639,100.76025l-1.68848.23242c-.51953.07275-.91162.20166-1.17578.38623s-.39648.51172-.39648.98096c0,.3418.12207.62109.36572.8374s.56836.32471.97412.32471c.55615,0,1.01514-.19482,1.37744-.58447s.54346-.88281.54346-1.47998v-.69727Z" fill="#2f2f2f"/>
      <path d="M112.70859,104.30127h-1.12109v-10.36328h1.12109v10.36328Z" fill="#2f2f2f"/>
      <path d="M126.86582,104.30127h-1.4082l-5.04492-7.81348c-.12744-.1958-.23242-.40088-.31445-.61523h-.04102c.03662.20947.05469.65869.05469,1.34668v7.08203h-1.14844v-9.80273h1.49023l4.9082,7.69043c.20508.31885.3374.5376.39648.65625h.02734c-.04541-.28271-.06836-.76318-.06836-1.44238v-6.9043h1.14844v9.80273Z" fill="#2f2f2f"/>
      <path d="M134.84482,101.08154h-4.94238c.01807.7793.22803,1.38086.62891,1.80469s.95264.63574,1.6543.63574c.78857,0,1.51318-.25977,2.17383-.7793v1.05273c-.61523.44678-1.42871.66992-2.44043.66992-.98877,0-1.76611-.31787-2.33105-.95361s-.84766-1.53027-.84766-2.68311c0-1.08936.30859-1.97656.92627-2.6626s1.38428-1.02881,2.30029-1.02881,1.62451.29639,2.12598.88867.75195,1.41504.75195,2.46777v.58789ZM133.69639,100.13135c-.00439-.64697-.16064-1.15088-.46826-1.51074s-.73486-.54004-1.28174-.54004c-.52881,0-.97754.18896-1.34668.56738s-.59717.87256-.68359,1.4834h3.78027Z" fill="#2f2f2f"/>
      <path d="M139.76865,104.23291c-.26416.146-.61279.21875-1.0459.21875-1.22607,0-1.83887-.68359-1.83887-2.05078v-4.14258h-1.20312v-.95703h1.20312v-1.70898l1.12109-.3623v2.07129h1.76367v.95703h-1.76367v3.94434c0,.46924.07959.8042.23926,1.00488s.42383.30078.79297.30078c.28271,0,.52637-.07764.73145-.23242v.95703Z" fill="#2f2f2f"/>
      <path d="M150.45957,97.30127l-2.09863,7h-1.16211l-1.44238-5.01074c-.05469-.19141-.09131-.40771-.10938-.64941h-.02734c-.01367.16406-.06152.37598-.14355.63574l-1.56543,5.02441h-1.12109l-2.11914-7h1.17578l1.44922,5.26367c.04541.15967.07764.36914.0957.62891h.05469c.01367-.20068.05469-.41455.12305-.64258l1.61328-5.25h1.02539l1.44922,5.27734c.04541.16846.07959.37842.10254.62891h.05469c.00928-.17773.04785-.38721.11621-.62891l1.42188-5.27734h1.10742Z" fill="#2f2f2f"/>
      <path d="M154.53428,104.46533c-1.03467,0-1.86035-.32715-2.47803-.98096s-.92627-1.521-.92627-2.60107c0-1.17578.32129-2.09424.96387-2.75488s1.51074-.99121,2.60449-.99121c1.04346,0,1.8584.32129,2.44385.96387s.87842,1.53369.87842,2.67285c0,1.1167-.31543,2.01074-.94678,2.68311s-1.47754,1.0083-2.53955,1.0083ZM154.61631,98.08057c-.72021,0-1.28955.24512-1.70898.73486s-.62891,1.16553-.62891,2.02686c0,.82959.21191,1.4834.63574,1.96191s.99121.71777,1.70215.71777c.72461,0,1.28174-.23486,1.67139-.7041s.58447-1.13721.58447-2.00293c0-.875-.19482-1.54932-.58447-2.02344s-.94678-.71094-1.67139-.71094Z" fill="#2f2f2f"/>
      <path d="M163.38633,98.43604c-.1958-.15039-.47852-.22559-.84766-.22559-.47852,0-.87842.22559-1.19971.67676s-.48193,1.06641-.48193,1.8457v3.56836h-1.12109v-7h1.12109v1.44238h.02734c.15967-.49219.40332-.87598.73145-1.15186s.69482-.41357,1.10059-.41357c.2915,0,.51514.03174.66992.0957v1.16211Z" fill="#2f2f2f"/>
      <path d="M170.44053,104.30127h-1.57227l-3.08984-3.36328h-.02734v3.36328h-1.12109v-10.36328h1.12109v6.56934h.02734l2.93945-3.20605h1.46973l-3.24707,3.37695,3.5,3.62305Z" fill="#2f2f2f"/>
      <path d="M84.85459,121.10107h-1.1416v-6.57617c0-.51953.03174-1.15527.0957-1.90723h-.02734c-.10938.44189-.20752.75879-.29395.9502l-3.34961,7.5332h-.56055l-3.34277-7.47852c-.0957-.21875-.19385-.55371-.29395-1.00488h-.02734c.03662.39209.05469,1.03223.05469,1.9209v6.5625h-1.10742v-9.80273h1.51758l3.00781,6.83594c.23242.52393.38281.91602.45117,1.17578h.04102c.1958-.5376.35303-.93896.47168-1.20312l3.06934-6.80859h1.43555v9.80273Z" fill="#2f2f2f"/>
      <path d="M92.16904,121.10107h-1.12109v-1.09375h-.02734c-.48779.83838-1.20557,1.25781-2.15332,1.25781-.69727,0-1.24316-.18457-1.63721-.55371s-.59131-.85889-.59131-1.46973c0-1.30811.77002-2.06885,2.31055-2.2832l2.09863-.29395c0-1.18945-.48096-1.78418-1.44238-1.78418-.84326,0-1.604.28711-2.2832.86133v-1.14844c.68799-.4375,1.48096-.65625,2.37891-.65625,1.64502,0,2.46777.87061,2.46777,2.61133v4.55273ZM91.04795,117.56006l-1.68848.23242c-.51953.07275-.91162.20166-1.17578.38623s-.39648.51172-.39648.98096c0,.3418.12207.62109.36572.8374s.56836.32471.97412.32471c.55615,0,1.01514-.19482,1.37744-.58447s.54346-.88281.54346-1.47998v-.69727Z" fill="#2f2f2f"/>
      <path d="M100.00059,121.10107h-1.12109v-3.99219c0-1.48584-.54248-2.22852-1.62695-2.22852-.56055,0-1.02441.21094-1.39111.63232s-.55029.95361-.55029,1.59619v3.99219h-1.12109v-7h1.12109v1.16211h.02734c.52881-.88428,1.29443-1.32617,2.29688-1.32617.76562,0,1.35107.24707,1.75684.7417s.6084,1.20898.6084,2.14307v4.2793Z" fill="#2f2f2f"/>
      <path d="M107.03281,121.10107h-1.12109v-1.09375h-.02734c-.48779.83838-1.20557,1.25781-2.15332,1.25781-.69727,0-1.24316-.18457-1.63721-.55371s-.59131-.85889-.59131-1.46973c0-1.30811.77002-2.06885,2.31055-2.2832l2.09863-.29395c0-1.18945-.48096-1.78418-1.44238-1.78418-.84326,0-1.604.28711-2.2832.86133v-1.14844c.68799-.4375,1.48096-.65625,2.37891-.65625,1.64502,0,2.46777.87061,2.46777,2.61133v4.55273ZM105.91172,117.56006l-1.68848.23242c-.51953.07275-.91162.20166-1.17578.38623s-.39648.51172-.39648.98096c0,.3418.12207.62109.36572.8374s.56836.32471.97412.32471c.55615,0,1.01514-.19482,1.37744-.58447s.54346-.88281.54346-1.47998v-.69727Z" fill="#2f2f2f"/>
      <path d="M115.10166,120.54053c0,2.57031-1.23047,3.85547-3.69141,3.85547-.86572,0-1.62256-.16406-2.26953-.49219v-1.12109c.78857.4375,1.54053.65625,2.25586.65625,1.72266,0,2.58398-.91602,2.58398-2.74805v-.76562h-.02734c-.5332.89307-1.33545,1.33984-2.40625,1.33984-.87061,0-1.57129-.31104-2.10205-.93311s-.79639-1.45703-.79639-2.50537c0-1.18945.28613-2.13525.85791-2.83691s1.35449-1.05273,2.34814-1.05273c.94336,0,1.64307.37842,2.09863,1.13477h.02734v-.9707h1.12109v6.43945ZM113.98057,117.93604v-1.03223c0-.55615-.18799-1.03223-.56396-1.42871s-.84424-.59473-1.40479-.59473c-.69287,0-1.23486.25195-1.62695.75537s-.58789,1.20898-.58789,2.11572c0,.7793.18799,1.40234.56396,1.86963s.87402.70068,1.49365.70068c.62891,0,1.14062-.22314,1.53467-.66992s.59131-1.01855.59131-1.71582Z" fill="#2f2f2f"/>
      <path d="M122.92295,117.88135h-4.94238c.01807.7793.22803,1.38086.62891,1.80469s.95264.63574,1.6543.63574c.78857,0,1.51318-.25977,2.17383-.7793v1.05273c-.61523.44678-1.42871.66992-2.44043.66992-.98877,0-1.76611-.31787-2.33105-.95361s-.84766-1.53027-.84766-2.68311c0-1.08936.30859-1.97656.92627-2.6626s1.38428-1.02881,2.30029-1.02881,1.62451.29639,2.12598.88867.75195,1.41504.75195,2.46777v.58789ZM121.77451,116.93115c-.00439-.64697-.16064-1.15088-.46826-1.51074s-.73486-.54004-1.28174-.54004c-.52881,0-.97754.18896-1.34668.56738s-.59717.87256-.68359,1.4834h3.78027Z" fill="#2f2f2f"/>
      <path d="M128.25596,115.23584c-.1958-.15039-.47852-.22559-.84766-.22559-.47852,0-.87842.22559-1.19971.67676s-.48193,1.06641-.48193,1.8457v3.56836h-1.12109v-7h1.12109v1.44238h.02734c.15967-.49219.40332-.87598.73145-1.15186s.69482-.41357,1.10059-.41357c.2915,0,.51514.03174.66992.0957v1.16211Z" fill="#2f2f2f"/>
    </g>
    <g>
      <path d="M87.56992,222.33691l-3.62988,9.80273h-1.26465l-3.55469-9.80273h1.27832l2.71387,7.77246c.08643.25049.15283.54004.19824.86816h.02734c.03662-.27344.11182-.56738.22559-.88184l2.76855-7.75879h1.2373Z" fill="#2f2f2f"/>
      <path d="M89.48154,223.3623c-.20068,0-.37158-.06836-.5127-.20508s-.21191-.31006-.21191-.51953.0708-.38379.21191-.52295.31201-.2085.5127-.2085c.20508,0,.37939.06934.52295.2085s.21533.31348.21533.52295c0,.20068-.07178.37158-.21533.5127s-.31787.21191-.52295.21191ZM90.02842,232.13965h-1.12109v-7h1.12109v7Z" fill="#2f2f2f"/>
      <path d="M95.79746,226.27441c-.1958-.15039-.47852-.22559-.84766-.22559-.47852,0-.87842.22559-1.19971.67676s-.48193,1.06641-.48193,1.8457v3.56836h-1.12109v-7h1.12109v1.44238h.02734c.15967-.49219.40332-.87598.73145-1.15186s.69482-.41357,1.10059-.41357c.2915,0,.51514.03174.66992.0957v1.16211Z" fill="#2f2f2f"/>
      <path d="M100.71641,232.07129c-.26416.146-.61279.21875-1.0459.21875-1.22607,0-1.83887-.68359-1.83887-2.05078v-4.14258h-1.20312v-.95703h1.20312v-1.70898l1.12109-.3623v2.07129h1.76367v.95703h-1.76367v3.94434c0,.46924.07959.8042.23926,1.00488s.42383.30078.79297.30078c.28271,0,.52637-.07764.73145-.23242v.95703Z" fill="#2f2f2f"/>
      <path d="M107.83408,232.13965h-1.12109v-1.10742h-.02734c-.46484.84766-1.18506,1.27148-2.16016,1.27148-1.66797,0-2.50195-.99365-2.50195-2.98047v-4.18359h1.11426v4.00586c0,1.47656.56494,2.21484,1.69531,2.21484.54688,0,.99707-.20166,1.3501-.60498s.52979-.93066.52979-1.58252v-4.0332h1.12109v7Z" fill="#2f2f2f"/>
      <path d="M114.98984,232.13965h-1.12109v-1.09375h-.02734c-.48779.83838-1.20557,1.25781-2.15332,1.25781-.69727,0-1.24316-.18457-1.63721-.55371s-.59131-.85889-.59131-1.46973c0-1.30811.77002-2.06885,2.31055-2.2832l2.09863-.29395c0-1.18945-.48096-1.78418-1.44238-1.78418-.84326,0-1.604.28711-2.2832.86133v-1.14844c.68799-.4375,1.48096-.65625,2.37891-.65625,1.64502,0,2.46777.87061,2.46777,2.61133v4.55273ZM113.86875,228.59863l-1.68848.23242c-.51953.07275-.91162.20166-1.17578.38623s-.39648.51172-.39648.98096c0,.3418.12207.62109.36572.8374s.56836.32471.97412.32471c.55615,0,1.01514-.19482,1.37744-.58447s.54346-.88281.54346-1.47998v-.69727Z" fill="#2f2f2f"/>
      <path d="M118.13096,232.13965h-1.12109v-10.36328h1.12109v10.36328Z" fill="#2f2f2f"/>
      <path d="M132.28818,232.13965h-1.4082l-5.04492-7.81348c-.12744-.1958-.23242-.40088-.31445-.61523h-.04102c.03662.20947.05469.65869.05469,1.34668v7.08203h-1.14844v-9.80273h1.49023l4.9082,7.69043c.20508.31885.3374.5376.39648.65625h.02734c-.04541-.28271-.06836-.76318-.06836-1.44238v-6.9043h1.14844v9.80273Z" fill="#2f2f2f"/>
      <path d="M140.26719,228.91992h-4.94238c.01807.7793.22803,1.38086.62891,1.80469s.95264.63574,1.6543.63574c.78857,0,1.51318-.25977,2.17383-.7793v1.05273c-.61523.44678-1.42871.66992-2.44043.66992-.98877,0-1.76611-.31787-2.33105-.95361s-.84766-1.53027-.84766-2.68311c0-1.08936.30859-1.97656.92627-2.6626s1.38428-1.02881,2.30029-1.02881,1.62451.29639,2.12598.88867.75195,1.41504.75195,2.46777v.58789ZM139.11875,227.96973c-.00439-.64697-.16064-1.15088-.46826-1.51074s-.73486-.54004-1.28174-.54004c-.52881,0-.97754.18896-1.34668.56738s-.59717.87256-.68359,1.4834h3.78027Z" fill="#2f2f2f"/>
      <path d="M145.19102,232.07129c-.26416.146-.61279.21875-1.0459.21875-1.22607,0-1.83887-.68359-1.83887-2.05078v-4.14258h-1.20312v-.95703h1.20312v-1.70898l1.12109-.3623v2.07129h1.76367v.95703h-1.76367v3.94434c0,.46924.07959.8042.23926,1.00488s.42383.30078.79297.30078c.28271,0,.52637-.07764.73145-.23242v.95703Z" fill="#2f2f2f"/>
      <path d="M155.88193,225.13965l-2.09863,7h-1.16211l-1.44238-5.01074c-.05469-.19141-.09131-.40771-.10938-.64941h-.02734c-.01367.16406-.06152.37598-.14355.63574l-1.56543,5.02441h-1.12109l-2.11914-7h1.17578l1.44922,5.26367c.04541.15967.07764.36914.0957.62891h.05469c.01367-.20068.05469-.41455.12305-.64258l1.61328-5.25h1.02539l1.44922,5.27734c.04541.16846.07959.37842.10254.62891h.05469c.00928-.17773.04785-.38721.11621-.62891l1.42188-5.27734h1.10742Z" fill="#2f2f2f"/>
      <path d="M159.95664,232.30371c-1.03467,0-1.86035-.32715-2.47803-.98096s-.92627-1.521-.92627-2.60107c0-1.17578.32129-2.09424.96387-2.75488s1.51074-.99121,2.60449-.99121c1.04346,0,1.8584.32129,2.44385.96387s.87842,1.53369.87842,2.67285c0,1.1167-.31543,2.01074-.94678,2.68311s-1.47754,1.0083-2.53955,1.0083ZM160.03867,225.91895c-.72021,0-1.28955.24512-1.70898.73486s-.62891,1.16553-.62891,2.02686c0,.82959.21191,1.4834.63574,1.96191s.99121.71777,1.70215.71777c.72461,0,1.28174-.23486,1.67139-.7041s.58447-1.13721.58447-2.00293c0-.875-.19482-1.54932-.58447-2.02344s-.94678-.71094-1.67139-.71094Z" fill="#2f2f2f"/>
      <path d="M168.80869,226.27441c-.1958-.15039-.47852-.22559-.84766-.22559-.47852,0-.87842.22559-1.19971.67676s-.48193,1.06641-.48193,1.8457v3.56836h-1.12109v-7h1.12109v1.44238h.02734c.15967-.49219.40332-.87598.73145-1.15186s.69482-.41357,1.10059-.41357c.2915,0,.51514.03174.66992.0957v1.16211Z" fill="#2f2f2f"/>
      <path d="M175.86289,232.13965h-1.57227l-3.08984-3.36328h-.02734v3.36328h-1.12109v-10.36328h1.12109v6.56934h.02734l2.93945-3.20605h1.46973l-3.24707,3.37695,3.5,3.62305Z" fill="#2f2f2f"/>
    </g>
    <g>
      <path d="M247.70273,32.80029h-2.53613l-1.52441-2.52246c-.11377-.19141-.22314-.3623-.32812-.5127s-.21094-.2793-.31787-.38623-.21875-.18896-.33496-.24609-.24268-.08545-.37939-.08545h-.59473v3.75293h-2.20801v-9.80273h3.5c2.37891,0,3.56836.88867,3.56836,2.66602,0,.3418-.05225.65723-.15723.94678s-.25293.55029-.44434.78271-.42285.43311-.69385.60156-.57324.30078-.90576.39648v.02734c.146.04541.28711.11963.42383.22217s.26904.22217.39648.35889.24951.28369.36572.44092.22217.31104.31787.46143l1.85254,2.89844ZM241.68711,24.65186v2.72754h.95703c.47412,0,.85449-.13672,1.1416-.41016.2915-.27783.4375-.62207.4375-1.03223,0-.85693-.5127-1.28516-1.53809-1.28516h-.99805Z" fill="#2f2f2f"/>
      <path d="M254.52109,29.91553h-4.56641c.07275,1.01611.71338,1.52441,1.9209,1.52441.77002,0,1.44678-.18213,2.03027-.54688v1.55859c-.64697.34619-1.48779.51953-2.52246.51953-1.13037,0-2.00732-.31348-2.63184-.93994s-.93652-1.50049-.93652-2.62158c0-1.16211.3374-2.08252,1.01172-2.76172s1.50391-1.01855,2.48828-1.01855c1.021,0,1.81055.30322,2.36865.90918s.8374,1.42871.8374,2.46777v.90918ZM252.51816,28.58936c0-1.00244-.40576-1.50391-1.2168-1.50391-.34619,0-.646.14355-.89893.43066s-.40674.64502-.46143,1.07324h2.57715Z" fill="#2f2f2f"/>
      <path d="M262.77988,32.00049c0,1.29883-.37598,2.30469-1.12793,3.01807s-1.84131,1.06982-3.26758,1.06982c-.94336,0-1.69092-.13428-2.24219-.40332v-1.81836c.72021.41943,1.44678.62891,2.18066.62891.729,0,1.29443-.19238,1.69531-.57764s.60156-.9082.60156-1.56885v-.55371h-.02734c-.49219.78369-1.21924,1.17578-2.18066,1.17578-.89307,0-1.60205-.31445-2.12598-.94336s-.78613-1.47217-.78613-2.5293c0-1.18506.2915-2.12598.875-2.82324s1.35107-1.0459,2.30371-1.0459c.85205,0,1.49023.32812,1.91406.98438h.02734v-.81348h2.16016v6.2002ZM260.64707,29.43701v-.55371c0-.44189-.13086-.81934-.39307-1.13135s-.60254-.46826-1.02197-.46826c-.47852,0-.85449.18701-1.12793.56055s-.41016.8999-.41016,1.5791c0,.5835.12988,1.04492.38965,1.38428s.61523.50928,1.06641.50928c.44678,0,.80762-.17188,1.0835-.51611s.41357-.79883.41357-1.36377Z" fill="#2f2f2f"/>
      <path d="M265.63486,24.69287c-.36475,0-.66309-.1084-.89551-.32471s-.34863-.48193-.34863-.79639c0-.32373.11621-.58789.34863-.79297s.53076-.30762.89551-.30762c.36914,0,.66895.10254.89893.30762s.34521.46924.34521.79297c0,.32812-.11523.59717-.34521.80664s-.52979.31445-.89893.31445ZM266.70127,32.80029h-2.16016v-7h2.16016v7Z" fill="#2f2f2f"/>
      <path d="M271.81211,32.97119c-1.1665,0-2.08398-.32715-2.75146-.98096s-1.00146-1.5415-1.00146-2.6626c0-1.15771.34619-2.06348,1.03906-2.71729s1.62939-.98096,2.80957-.98096c1.16211,0,2.07373.32715,2.73438.98096s.99121,1.51855.99121,2.59424c0,1.16211-.34082,2.08057-1.02197,2.75488s-1.61426,1.01172-2.79932,1.01172ZM271.8668,27.28369c-.51025,0-.90674.17529-1.18945.52637s-.42383.84766-.42383,1.49023c0,1.34424.54248,2.0166,1.62695,2.0166,1.03467,0,1.55176-.69043,1.55176-2.07129,0-1.30811-.52197-1.96191-1.56543-1.96191Z" fill="#2f2f2f"/>
      <path d="M283.77451,32.80029h-2.15332v-3.88965c0-1.08447-.38721-1.62695-1.16211-1.62695-.37354,0-.68115.14355-.92285.43066s-.3623.65186-.3623,1.09375v3.99219h-2.16016v-7h2.16016v1.10742h.02734c.51514-.85205,1.26465-1.27832,2.24902-1.27832,1.54932,0,2.32422.96143,2.32422,2.88477v4.28613Z" fill="#2f2f2f"/>
      <path d="M291.36924,31.00928h4.15625v1.79102h-6.52148v-.73828c0-.50146.08447-.95117.25293-1.3501s.38037-.75635.63574-1.07324.53418-.59717.8374-.84082.59131-.46387.86475-.65967c.28711-.20508.53906-.40088.75537-.58789s.39893-.37256.54688-.55713.25879-.37158.33154-.56055.10938-.39062.10938-.60498c0-.41943-.11865-.73584-.35547-.9502s-.59912-.32129-1.08691-.32129c-.84326,0-1.6499.33496-2.41992,1.00488v-1.90039c.85205-.55127,1.81396-.82715,2.88477-.82715.49658,0,.94238.06494,1.33643.19482s.72803.31543,1.00146.55713.48193.53418.62549.87842.21533.72803.21533,1.15186c0,.45117-.06934.85205-.2085,1.20312s-.32373.66992-.55371.95703-.49561.55029-.79639.78955-.61279.4707-.93652.69385c-.21875.15479-.42969.30859-.63232.46143s-.38184.30322-.53662.45117-.27783.29297-.36914.43408-.13672.27588-.13672.40332Z" fill="#2f2f2f"/>
      <path d="M242.43223,51.82861h-.99805c-1.4126-1.61328-2.11914-3.60254-2.11914-5.96777,0-2.37451.70654-4.39551,2.11914-6.06348h1.01172c-1.43115,1.73193-2.14648,3.74854-2.14648,6.0498,0,2.2832.71094,4.27686,2.13281,5.98145Z" fill="#2f2f2f"/>
      <path d="M250.07627,40.83643h-2.83008v8.76367h-1.14844v-8.76367h-2.82324v-1.03906h6.80176v1.03906Z" fill="#2f2f2f"/>
      <path d="M255.41367,49.6001h-1.12109v-1.09375h-.02734c-.48779.83838-1.20557,1.25781-2.15332,1.25781-.69727,0-1.24316-.18457-1.63721-.55371s-.59131-.85889-.59131-1.46973c0-1.30811.77002-2.06885,2.31055-2.2832l2.09863-.29395c0-1.18945-.48096-1.78418-1.44238-1.78418-.84326,0-1.604.28711-2.2832.86133v-1.14844c.68799-.4375,1.48096-.65625,2.37891-.65625,1.64502,0,2.46777.87061,2.46777,2.61133v4.55273ZM254.29258,46.05908l-1.68848.23242c-.51953.07275-.91162.20166-1.17578.38623s-.39648.51172-.39648.98096c0,.3418.12207.62109.36572.8374s.56836.32471.97412.32471c.55615,0,1.01514-.19482,1.37744-.58447s.54346-.88281.54346-1.47998v-.69727Z" fill="#2f2f2f"/>
      <path d="M261.08506,43.73486c-.1958-.15039-.47852-.22559-.84766-.22559-.47852,0-.87842.22559-1.19971.67676s-.48193,1.06641-.48193,1.8457v3.56836h-1.12109v-7h1.12109v1.44238h.02734c.15967-.49219.40332-.87598.73145-1.15186s.69482-.41357,1.10059-.41357c.2915,0,.51514.03174.66992.0957v1.16211Z" fill="#2f2f2f"/>
      <path d="M268.2877,49.03955c0,2.57031-1.23047,3.85547-3.69141,3.85547-.86572,0-1.62256-.16406-2.26953-.49219v-1.12109c.78857.4375,1.54053.65625,2.25586.65625,1.72266,0,2.58398-.91602,2.58398-2.74805v-.76562h-.02734c-.5332.89307-1.33545,1.33984-2.40625,1.33984-.87061,0-1.57129-.31104-2.10205-.93311s-.79639-1.45703-.79639-2.50537c0-1.18945.28613-2.13525.85791-2.83691s1.35449-1.05273,2.34814-1.05273c.94336,0,1.64307.37842,2.09863,1.13477h.02734v-.9707h1.12109v6.43945ZM267.1666,46.43506v-1.03223c0-.55615-.18799-1.03223-.56396-1.42871s-.84424-.59473-1.40479-.59473c-.69287,0-1.23486.25195-1.62695.75537s-.58789,1.20898-.58789,2.11572c0,.7793.18799,1.40234.56396,1.86963s.87402.70068,1.49365.70068c.62891,0,1.14062-.22314,1.53467-.66992s.59131-1.01855.59131-1.71582Z" fill="#2f2f2f"/>
      <path d="M276.10898,46.38037h-4.94238c.01807.7793.22803,1.38086.62891,1.80469s.95264.63574,1.6543.63574c.78857,0,1.51318-.25977,2.17383-.7793v1.05273c-.61523.44678-1.42871.66992-2.44043.66992-.98877,0-1.76611-.31787-2.33105-.95361s-.84766-1.53027-.84766-2.68311c0-1.08936.30859-1.97656.92627-2.6626s1.38428-1.02881,2.30029-1.02881,1.62451.29639,2.12598.88867.75195,1.41504.75195,2.46777v.58789ZM274.96055,45.43018c-.00439-.64697-.16064-1.15088-.46826-1.51074s-.73486-.54004-1.28174-.54004c-.52881,0-.97754.18896-1.34668.56738s-.59717.87256-.68359,1.4834h3.78027Z" fill="#2f2f2f"/>
      <path d="M281.0333,49.53174c-.26416.146-.61279.21875-1.0459.21875-1.22607,0-1.83887-.68359-1.83887-2.05078v-4.14258h-1.20312v-.95703h1.20312v-1.70898l1.12109-.3623v2.07129h1.76367v.95703h-1.76367v3.94434c0,.46924.07959.8042.23926,1.00488s.42383.30078.79297.30078c.28271,0,.52637-.07764.73145-.23242v.95703Z" fill="#2f2f2f"/>
      <path d="M282.25791,51.82861h-.99805c1.42188-1.70459,2.13281-3.69824,2.13281-5.98145,0-2.30127-.71533-4.31787-2.14648-6.0498h1.01172c1.42188,1.66797,2.13281,3.68896,2.13281,6.06348,0,2.36523-.71094,4.35449-2.13281,5.96777Z" fill="#2f2f2f"/>
    </g>
    <g>
      <path d="M308.12754,222.33691l-3.62988,9.80273h-1.26465l-3.55469-9.80273h1.27832l2.71387,7.77246c.08643.25049.15283.54004.19824.86816h.02734c.03662-.27344.11182-.56738.22559-.88184l2.76855-7.75879h1.2373Z" fill="#2f2f2f"/>
      <path d="M310.03916,223.3623c-.20068,0-.37158-.06836-.5127-.20508s-.21191-.31006-.21191-.51953.0708-.38379.21191-.52295.31201-.2085.5127-.2085c.20508,0,.37939.06934.52295.2085s.21533.31348.21533.52295c0,.20068-.07178.37158-.21533.5127s-.31787.21191-.52295.21191ZM310.58604,232.13965h-1.12109v-7h1.12109v7Z" fill="#2f2f2f"/>
      <path d="M316.35508,226.27441c-.1958-.15039-.47852-.22559-.84766-.22559-.47852,0-.87842.22559-1.19971.67676s-.48193,1.06641-.48193,1.8457v3.56836h-1.12109v-7h1.12109v1.44238h.02734c.15967-.49219.40332-.87598.73145-1.15186s.69482-.41357,1.10059-.41357c.2915,0,.51514.03174.66992.0957v1.16211Z" fill="#2f2f2f"/>
      <path d="M321.27402,232.07129c-.26416.146-.61279.21875-1.0459.21875-1.22607,0-1.83887-.68359-1.83887-2.05078v-4.14258h-1.20312v-.95703h1.20312v-1.70898l1.12109-.3623v2.07129h1.76367v.95703h-1.76367v3.94434c0,.46924.07959.8042.23926,1.00488s.42383.30078.79297.30078c.28271,0,.52637-.07764.73145-.23242v.95703Z" fill="#2f2f2f"/>
      <path d="M328.3917,232.13965h-1.12109v-1.10742h-.02734c-.46484.84766-1.18506,1.27148-2.16016,1.27148-1.66797,0-2.50195-.99365-2.50195-2.98047v-4.18359h1.11426v4.00586c0,1.47656.56494,2.21484,1.69531,2.21484.54688,0,.99707-.20166,1.3501-.60498s.52979-.93066.52979-1.58252v-4.0332h1.12109v7Z" fill="#2f2f2f"/>
      <path d="M335.54746,232.13965h-1.12109v-1.09375h-.02734c-.48779.83838-1.20557,1.25781-2.15332,1.25781-.69727,0-1.24316-.18457-1.63721-.55371s-.59131-.85889-.59131-1.46973c0-1.30811.77002-2.06885,2.31055-2.2832l2.09863-.29395c0-1.18945-.48096-1.78418-1.44238-1.78418-.84326,0-1.604.28711-2.2832.86133v-1.14844c.68799-.4375,1.48096-.65625,2.37891-.65625,1.64502,0,2.46777.87061,2.46777,2.61133v4.55273ZM334.42637,228.59863l-1.68848.23242c-.51953.07275-.91162.20166-1.17578.38623s-.39648.51172-.39648.98096c0,.3418.12207.62109.36572.8374s.56836.32471.97412.32471c.55615,0,1.01514-.19482,1.37744-.58447s.54346-.88281.54346-1.47998v-.69727Z" fill="#2f2f2f"/>
      <path d="M338.68857,232.13965h-1.12109v-10.36328h1.12109v10.36328Z" fill="#2f2f2f"/>
      <path d="M352.8458,232.13965h-1.4082l-5.04492-7.81348c-.12744-.1958-.23242-.40088-.31445-.61523h-.04102c.03662.20947.05469.65869.05469,1.34668v7.08203h-1.14844v-9.80273h1.49023l4.9082,7.69043c.20508.31885.3374.5376.39648.65625h.02734c-.04541-.28271-.06836-.76318-.06836-1.44238v-6.9043h1.14844v9.80273Z" fill="#2f2f2f"/>
      <path d="M360.8248,228.91992h-4.94238c.01807.7793.22803,1.38086.62891,1.80469s.95264.63574,1.6543.63574c.78857,0,1.51318-.25977,2.17383-.7793v1.05273c-.61523.44678-1.42871.66992-2.44043.66992-.98877,0-1.76611-.31787-2.33105-.95361s-.84766-1.53027-.84766-2.68311c0-1.08936.30859-1.97656.92627-2.6626s1.38428-1.02881,2.30029-1.02881,1.62451.29639,2.12598.88867.75195,1.41504.75195,2.46777v.58789ZM359.67637,227.96973c-.00439-.64697-.16064-1.15088-.46826-1.51074s-.73486-.54004-1.28174-.54004c-.52881,0-.97754.18896-1.34668.56738s-.59717.87256-.68359,1.4834h3.78027Z" fill="#2f2f2f"/>
      <path d="M365.74863,232.07129c-.26416.146-.61279.21875-1.0459.21875-1.22607,0-1.83887-.68359-1.83887-2.05078v-4.14258h-1.20312v-.95703h1.20312v-1.70898l1.12109-.3623v2.07129h1.76367v.95703h-1.76367v3.94434c0,.46924.07959.8042.23926,1.00488s.42383.30078.79297.30078c.28271,0,.52637-.07764.73145-.23242v.95703Z" fill="#2f2f2f"/>
      <path d="M376.43955,225.13965l-2.09863,7h-1.16211l-1.44238-5.01074c-.05469-.19141-.09131-.40771-.10938-.64941h-.02734c-.01367.16406-.06152.37598-.14355.63574l-1.56543,5.02441h-1.12109l-2.11914-7h1.17578l1.44922,5.26367c.04541.15967.07764.36914.0957.62891h.05469c.01367-.20068.05469-.41455.12305-.64258l1.61328-5.25h1.02539l1.44922,5.27734c.04541.16846.07959.37842.10254.62891h.05469c.00928-.17773.04785-.38721.11621-.62891l1.42188-5.27734h1.10742Z" fill="#2f2f2f"/>
      <path d="M380.51426,232.30371c-1.03467,0-1.86035-.32715-2.47803-.98096s-.92627-1.521-.92627-2.60107c0-1.17578.32129-2.09424.96387-2.75488s1.51074-.99121,2.60449-.99121c1.04346,0,1.8584.32129,2.44385.96387s.87842,1.53369.87842,2.67285c0,1.1167-.31543,2.01074-.94678,2.68311s-1.47754,1.0083-2.53955,1.0083ZM380.59629,225.91895c-.72021,0-1.28955.24512-1.70898.73486s-.62891,1.16553-.62891,2.02686c0,.82959.21191,1.4834.63574,1.96191s.99121.71777,1.70215.71777c.72461,0,1.28174-.23486,1.67139-.7041s.58447-1.13721.58447-2.00293c0-.875-.19482-1.54932-.58447-2.02344s-.94678-.71094-1.67139-.71094Z" fill="#2f2f2f"/>
      <path d="M389.36631,226.27441c-.1958-.15039-.47852-.22559-.84766-.22559-.47852,0-.87842.22559-1.19971.67676s-.48193,1.06641-.48193,1.8457v3.56836h-1.12109v-7h1.12109v1.44238h.02734c.15967-.49219.40332-.87598.73145-1.15186s.69482-.41357,1.10059-.41357c.2915,0,.51514.03174.66992.0957v1.16211Z" fill="#2f2f2f"/>
      <path d="M396.42051,232.13965h-1.57227l-3.08984-3.36328h-.02734v3.36328h-1.12109v-10.36328h1.12109v6.56934h.02734l2.93945-3.20605h1.46973l-3.24707,3.37695,3.5,3.62305Z" fill="#2f2f2f"/>
    </g>
    <g>
      <path d="M467.94346,32.80029h-2.53613l-1.52441-2.52246c-.11377-.19141-.22314-.3623-.32812-.5127s-.21094-.2793-.31787-.38623-.21875-.18896-.33496-.24609-.24268-.08545-.37939-.08545h-.59473v3.75293h-2.20801v-9.80273h3.5c2.37891,0,3.56836.88867,3.56836,2.66602,0,.3418-.05225.65723-.15723.94678s-.25293.55029-.44434.78271-.42285.43311-.69385.60156-.57324.30078-.90576.39648v.02734c.146.04541.28711.11963.42383.22217s.26904.22217.39648.35889.24951.28369.36572.44092.22217.31104.31787.46143l1.85254,2.89844ZM461.92783,24.65186v2.72754h.95703c.47412,0,.85449-.13672,1.1416-.41016.2915-.27783.4375-.62207.4375-1.03223,0-.85693-.5127-1.28516-1.53809-1.28516h-.99805Z" fill="#2f2f2f"/>
      <path d="M474.76182,29.91553h-4.56641c.07275,1.01611.71338,1.52441,1.9209,1.52441.77002,0,1.44678-.18213,2.03027-.54688v1.55859c-.64697.34619-1.48779.51953-2.52246.51953-1.13037,0-2.00732-.31348-2.63184-.93994s-.93652-1.50049-.93652-2.62158c0-1.16211.3374-2.08252,1.01172-2.76172s1.50391-1.01855,2.48828-1.01855c1.021,0,1.81055.30322,2.36865.90918s.8374,1.42871.8374,2.46777v.90918ZM472.75889,28.58936c0-1.00244-.40576-1.50391-1.2168-1.50391-.34619,0-.646.14355-.89893.43066s-.40674.64502-.46143,1.07324h2.57715Z" fill="#2f2f2f"/>
      <path d="M483.02061,32.00049c0,1.29883-.37598,2.30469-1.12793,3.01807s-1.84131,1.06982-3.26758,1.06982c-.94336,0-1.69092-.13428-2.24219-.40332v-1.81836c.72021.41943,1.44678.62891,2.18066.62891.729,0,1.29443-.19238,1.69531-.57764s.60156-.9082.60156-1.56885v-.55371h-.02734c-.49219.78369-1.21924,1.17578-2.18066,1.17578-.89307,0-1.60205-.31445-2.12598-.94336s-.78613-1.47217-.78613-2.5293c0-1.18506.2915-2.12598.875-2.82324s1.35107-1.0459,2.30371-1.0459c.85205,0,1.49023.32812,1.91406.98438h.02734v-.81348h2.16016v6.2002ZM480.88779,29.43701v-.55371c0-.44189-.13086-.81934-.39307-1.13135s-.60254-.46826-1.02197-.46826c-.47852,0-.85449.18701-1.12793.56055s-.41016.8999-.41016,1.5791c0,.5835.12988,1.04492.38965,1.38428s.61523.50928,1.06641.50928c.44678,0,.80762-.17188,1.0835-.51611s.41357-.79883.41357-1.36377Z" fill="#2f2f2f"/>
      <path d="M485.87559,24.69287c-.36475,0-.66309-.1084-.89551-.32471s-.34863-.48193-.34863-.79639c0-.32373.11621-.58789.34863-.79297s.53076-.30762.89551-.30762c.36914,0,.66895.10254.89893.30762s.34521.46924.34521.79297c0,.32812-.11523.59717-.34521.80664s-.52979.31445-.89893.31445ZM486.94199,32.80029h-2.16016v-7h2.16016v7Z" fill="#2f2f2f"/>
      <path d="M492.05283,32.97119c-1.1665,0-2.08398-.32715-2.75146-.98096s-1.00146-1.5415-1.00146-2.6626c0-1.15771.34619-2.06348,1.03906-2.71729s1.62939-.98096,2.80957-.98096c1.16211,0,2.07373.32715,2.73438.98096s.99121,1.51855.99121,2.59424c0,1.16211-.34082,2.08057-1.02197,2.75488s-1.61426,1.01172-2.79932,1.01172ZM492.10752,27.28369c-.51025,0-.90674.17529-1.18945.52637s-.42383.84766-.42383,1.49023c0,1.34424.54248,2.0166,1.62695,2.0166,1.03467,0,1.55176-.69043,1.55176-2.07129,0-1.30811-.52197-1.96191-1.56543-1.96191Z" fill="#2f2f2f"/>
      <path d="M504.01523,32.80029h-2.15332v-3.88965c0-1.08447-.38721-1.62695-1.16211-1.62695-.37354,0-.68115.14355-.92285.43066s-.3623.65186-.3623,1.09375v3.99219h-2.16016v-7h2.16016v1.10742h.02734c.51514-.85205,1.26465-1.27832,2.24902-1.27832,1.54932,0,2.32422.96143,2.32422,2.88477v4.28613Z" fill="#2f2f2f"/>
      <path d="M509.47715,32.479v-1.87988c.65625.47852,1.42188.71777,2.29688.71777.55127,0,.98096-.11865,1.28857-.35547s.46143-.56738.46143-.99121c0-.4375-.19043-.7749-.5708-1.01172s-.90332-.35547-1.56885-.35547h-.90918v-1.6543h.84082c1.27588,0,1.91406-.42383,1.91406-1.27148,0-.79736-.48975-1.19629-1.46973-1.19629-.65625,0-1.29443.21191-1.91406.63574v-1.76367c.68799-.34619,1.49023-.51953,2.40625-.51953,1.00244,0,1.7832.22559,2.34131.67676s.8374,1.03662.8374,1.75684c0,1.28076-.64941,2.08252-1.94824,2.40625v.03418c.69287.08643,1.23975.33838,1.64062.75537s.60156.92871.60156,1.53467c0,.91602-.33496,1.64062-1.00488,2.17383s-1.59521.7998-2.77539.7998c-1.01172,0-1.83447-.16406-2.46777-.49219Z" fill="#2f2f2f"/>
      <path d="M462.67295,51.82861h-.99805c-1.4126-1.61328-2.11914-3.60254-2.11914-5.96777,0-2.37451.70654-4.39551,2.11914-6.06348h1.01172c-1.43115,1.73193-2.14648,3.74854-2.14648,6.0498,0,2.2832.71094,4.27686,2.13281,5.98145Z" fill="#2f2f2f"/>
      <path d="M470.31699,40.83643h-2.83008v8.76367h-1.14844v-8.76367h-2.82324v-1.03906h6.80176v1.03906Z" fill="#2f2f2f"/>
      <path d="M475.65439,49.6001h-1.12109v-1.09375h-.02734c-.48779.83838-1.20557,1.25781-2.15332,1.25781-.69727,0-1.24316-.18457-1.63721-.55371s-.59131-.85889-.59131-1.46973c0-1.30811.77002-2.06885,2.31055-2.2832l2.09863-.29395c0-1.18945-.48096-1.78418-1.44238-1.78418-.84326,0-1.604.28711-2.2832.86133v-1.14844c.68799-.4375,1.48096-.65625,2.37891-.65625,1.64502,0,2.46777.87061,2.46777,2.61133v4.55273ZM474.5333,46.05908l-1.68848.23242c-.51953.07275-.91162.20166-1.17578.38623s-.39648.51172-.39648.98096c0,.3418.12207.62109.36572.8374s.56836.32471.97412.32471c.55615,0,1.01514-.19482,1.37744-.58447s.54346-.88281.54346-1.47998v-.69727Z" fill="#2f2f2f"/>
      <path d="M481.32578,43.73486c-.1958-.15039-.47852-.22559-.84766-.22559-.47852,0-.87842.22559-1.19971.67676s-.48193,1.06641-.48193,1.8457v3.56836h-1.12109v-7h1.12109v1.44238h.02734c.15967-.49219.40332-.87598.73145-1.15186s.69482-.41357,1.10059-.41357c.2915,0,.51514.03174.66992.0957v1.16211Z" fill="#2f2f2f"/>
      <path d="M488.52842,49.03955c0,2.57031-1.23047,3.85547-3.69141,3.85547-.86572,0-1.62256-.16406-2.26953-.49219v-1.12109c.78857.4375,1.54053.65625,2.25586.65625,1.72266,0,2.58398-.91602,2.58398-2.74805v-.76562h-.02734c-.5332.89307-1.33545,1.33984-2.40625,1.33984-.87061,0-1.57129-.31104-2.10205-.93311s-.79639-1.45703-.79639-2.50537c0-1.18945.28613-2.13525.85791-2.83691s1.35449-1.05273,2.34814-1.05273c.94336,0,1.64307.37842,2.09863,1.13477h.02734v-.9707h1.12109v6.43945ZM487.40732,46.43506v-1.03223c0-.55615-.18799-1.03223-.56396-1.42871s-.84424-.59473-1.40479-.59473c-.69287,0-1.23486.25195-1.62695.75537s-.58789,1.20898-.58789,2.11572c0,.7793.18799,1.40234.56396,1.86963s.87402.70068,1.49365.70068c.62891,0,1.14062-.22314,1.53467-.66992s.59131-1.01855.59131-1.71582Z" fill="#2f2f2f"/>
      <path d="M496.34971,46.38037h-4.94238c.01807.7793.22803,1.38086.62891,1.80469s.95264.63574,1.6543.63574c.78857,0,1.51318-.25977,2.17383-.7793v1.05273c-.61523.44678-1.42871.66992-2.44043.66992-.98877,0-1.76611-.31787-2.33105-.95361s-.84766-1.53027-.84766-2.68311c0-1.08936.30859-1.97656.92627-2.6626s1.38428-1.02881,2.30029-1.02881,1.62451.29639,2.12598.88867.75195,1.41504.75195,2.46777v.58789ZM495.20127,45.43018c-.00439-.64697-.16064-1.15088-.46826-1.51074s-.73486-.54004-1.28174-.54004c-.52881,0-.97754.18896-1.34668.56738s-.59717.87256-.68359,1.4834h3.78027Z" fill="#2f2f2f"/>
      <path d="M501.27402,49.53174c-.26416.146-.61279.21875-1.0459.21875-1.22607,0-1.83887-.68359-1.83887-2.05078v-4.14258h-1.20312v-.95703h1.20312v-1.70898l1.12109-.3623v2.07129h1.76367v.95703h-1.76367v3.94434c0,.46924.07959.8042.23926,1.00488s.42383.30078.79297.30078c.28271,0,.52637-.07764.73145-.23242v.95703Z" fill="#2f2f2f"/>
      <path d="M502.49863,51.82861h-.99805c1.42188-1.70459,2.13281-3.69824,2.13281-5.98145,0-2.30127-.71533-4.31787-2.14648-6.0498h1.01172c1.42188,1.66797,2.13281,3.68896,2.13281,6.06348,0,2.36523-.71094,4.35449-2.13281,5.96777Z" fill="#2f2f2f"/>
    </g>
    <g>
      <path d="M528.36826,222.33691l-3.62988,9.80273h-1.26465l-3.55469-9.80273h1.27832l2.71387,7.77246c.08643.25049.15283.54004.19824.86816h.02734c.03662-.27344.11182-.56738.22559-.88184l2.76855-7.75879h1.2373Z" fill="#2f2f2f"/>
      <path d="M530.27988,223.3623c-.20068,0-.37158-.06836-.5127-.20508s-.21191-.31006-.21191-.51953.0708-.38379.21191-.52295.31201-.2085.5127-.2085c.20508,0,.37939.06934.52295.2085s.21533.31348.21533.52295c0,.20068-.07178.37158-.21533.5127s-.31787.21191-.52295.21191ZM530.82676,232.13965h-1.12109v-7h1.12109v7Z" fill="#2f2f2f"/>
      <path d="M536.5958,226.27441c-.1958-.15039-.47852-.22559-.84766-.22559-.47852,0-.87842.22559-1.19971.67676s-.48193,1.06641-.48193,1.8457v3.56836h-1.12109v-7h1.12109v1.44238h.02734c.15967-.49219.40332-.87598.73145-1.15186s.69482-.41357,1.10059-.41357c.2915,0,.51514.03174.66992.0957v1.16211Z" fill="#2f2f2f"/>
      <path d="M541.51475,232.07129c-.26416.146-.61279.21875-1.0459.21875-1.22607,0-1.83887-.68359-1.83887-2.05078v-4.14258h-1.20312v-.95703h1.20312v-1.70898l1.12109-.3623v2.07129h1.76367v.95703h-1.76367v3.94434c0,.46924.07959.8042.23926,1.00488s.42383.30078.79297.30078c.28271,0,.52637-.07764.73145-.23242v.95703Z" fill="#2f2f2f"/>
      <path d="M548.63242,232.13965h-1.12109v-1.10742h-.02734c-.46484.84766-1.18506,1.27148-2.16016,1.27148-1.66797,0-2.50195-.99365-2.50195-2.98047v-4.18359h1.11426v4.00586c0,1.47656.56494,2.21484,1.69531,2.21484.54688,0,.99707-.20166,1.3501-.60498s.52979-.93066.52979-1.58252v-4.0332h1.12109v7Z" fill="#2f2f2f"/>
      <path d="M555.78818,232.13965h-1.12109v-1.09375h-.02734c-.48779.83838-1.20557,1.25781-2.15332,1.25781-.69727,0-1.24316-.18457-1.63721-.55371s-.59131-.85889-.59131-1.46973c0-1.30811.77002-2.06885,2.31055-2.2832l2.09863-.29395c0-1.18945-.48096-1.78418-1.44238-1.78418-.84326,0-1.604.28711-2.2832.86133v-1.14844c.68799-.4375,1.48096-.65625,2.37891-.65625,1.64502,0,2.46777.87061,2.46777,2.61133v4.55273ZM554.66709,228.59863l-1.68848.23242c-.51953.07275-.91162.20166-1.17578.38623s-.39648.51172-.39648.98096c0,.3418.12207.62109.36572.8374s.56836.32471.97412.32471c.55615,0,1.01514-.19482,1.37744-.58447s.54346-.88281.54346-1.47998v-.69727Z" fill="#2f2f2f"/>
      <path d="M558.9293,232.13965h-1.12109v-10.36328h1.12109v10.36328Z" fill="#2f2f2f"/>
      <path d="M573.08652,232.13965h-1.4082l-5.04492-7.81348c-.12744-.1958-.23242-.40088-.31445-.61523h-.04102c.03662.20947.05469.65869.05469,1.34668v7.08203h-1.14844v-9.80273h1.49023l4.9082,7.69043c.20508.31885.3374.5376.39648.65625h.02734c-.04541-.28271-.06836-.76318-.06836-1.44238v-6.9043h1.14844v9.80273Z" fill="#2f2f2f"/>
      <path d="M581.06553,228.91992h-4.94238c.01807.7793.22803,1.38086.62891,1.80469s.95264.63574,1.6543.63574c.78857,0,1.51318-.25977,2.17383-.7793v1.05273c-.61523.44678-1.42871.66992-2.44043.66992-.98877,0-1.76611-.31787-2.33105-.95361s-.84766-1.53027-.84766-2.68311c0-1.08936.30859-1.97656.92627-2.6626s1.38428-1.02881,2.30029-1.02881,1.62451.29639,2.12598.88867.75195,1.41504.75195,2.46777v.58789ZM579.91709,227.96973c-.00439-.64697-.16064-1.15088-.46826-1.51074s-.73486-.54004-1.28174-.54004c-.52881,0-.97754.18896-1.34668.56738s-.59717.87256-.68359,1.4834h3.78027Z" fill="#2f2f2f"/>
      <path d="M585.98936,232.07129c-.26416.146-.61279.21875-1.0459.21875-1.22607,0-1.83887-.68359-1.83887-2.05078v-4.14258h-1.20312v-.95703h1.20312v-1.70898l1.12109-.3623v2.07129h1.76367v.95703h-1.76367v3.94434c0,.46924.07959.8042.23926,1.00488s.42383.30078.79297.30078c.28271,0,.52637-.07764.73145-.23242v.95703Z" fill="#2f2f2f"/>
      <path d="M596.68027,225.13965l-2.09863,7h-1.16211l-1.44238-5.01074c-.05469-.19141-.09131-.40771-.10938-.64941h-.02734c-.01367.16406-.06152.37598-.14355.63574l-1.56543,5.02441h-1.12109l-2.11914-7h1.17578l1.44922,5.26367c.04541.15967.07764.36914.0957.62891h.05469c.01367-.20068.05469-.41455.12305-.64258l1.61328-5.25h1.02539l1.44922,5.27734c.04541.16846.07959.37842.10254.62891h.05469c.00928-.17773.04785-.38721.11621-.62891l1.42188-5.27734h1.10742Z" fill="#2f2f2f"/>
      <path d="M600.75498,232.30371c-1.03467,0-1.86035-.32715-2.47803-.98096s-.92627-1.521-.92627-2.60107c0-1.17578.32129-2.09424.96387-2.75488s1.51074-.99121,2.60449-.99121c1.04346,0,1.8584.32129,2.44385.96387s.87842,1.53369.87842,2.67285c0,1.1167-.31543,2.01074-.94678,2.68311s-1.47754,1.0083-2.53955,1.0083ZM600.83701,225.91895c-.72021,0-1.28955.24512-1.70898.73486s-.62891,1.16553-.62891,2.02686c0,.82959.21191,1.4834.63574,1.96191s.99121.71777,1.70215.71777c.72461,0,1.28174-.23486,1.67139-.7041s.58447-1.13721.58447-2.00293c0-.875-.19482-1.54932-.58447-2.02344s-.94678-.71094-1.67139-.71094Z" fill="#2f2f2f"/>
      <path d="M609.60703,226.27441c-.1958-.15039-.47852-.22559-.84766-.22559-.47852,0-.87842.22559-1.19971.67676s-.48193,1.06641-.48193,1.8457v3.56836h-1.12109v-7h1.12109v1.44238h.02734c.15967-.49219.40332-.87598.73145-1.15186s.69482-.41357,1.10059-.41357c.2915,0,.51514.03174.66992.0957v1.16211Z" fill="#2f2f2f"/>
      <path d="M616.66123,232.13965h-1.57227l-3.08984-3.36328h-.02734v3.36328h-1.12109v-10.36328h1.12109v6.56934h.02734l2.93945-3.20605h1.46973l-3.24707,3.37695,3.5,3.62305Z" fill="#2f2f2f"/>
    </g>
  </g>
</svg>