<?xml version="1.0" encoding="UTF-8"?>
<svg xmlns="http://www.w3.org/2000/svg" width="827.2" height="268.4" xmlns:xlink="http://www.w3.org/1999/xlink" viewBox="0 0 827.2 268.4">
  <defs>
    <linearGradient id="Cool_gray_gradient_1" data-name="Cool gray gradient 1" x1="162.8" y1="134.2" x2="374" y2="134.2" gradientUnits="userSpaceOnUse">
      <stop offset="0" stop-color="#f5f5f4"/>
      <stop offset="1" stop-color="#ececea"/>
    </linearGradient>
    <linearGradient id="Cool_gray_gradient_1-2" data-name="Cool gray gradient 1" x1="382.8" x2="594" xlink:href="#Cool_gray_gradient_1"/>
    <linearGradient id="Cool_gray_gradient_1-3" data-name="Cool gray gradient 1" x1="602.8" x2="814" xlink:href="#Cool_gray_gradient_1"/>
    <linearGradient id="linear-gradient" x1="-238.28583" y1="572.68401" x2="-238.28583" y2="553.93038" gradientTransform="translate(324 -419.48401)" gradientUnits="userSpaceOnUse">
      <stop offset="0" stop-color="#32bedd"/>
      <stop offset="1" stop-color="#50e6ff"/>
    </linearGradient>
  </defs>
  <g isolation="isolate">
    <g id="Shapes">
      <rect width="827.2" height="268.4" fill="#fff"/>
      <g>
        <g mix-blend-mode="multiply" opacity=".8">
          <rect x="163.3" y="13.7" width="211.2" height="242" rx="8" ry="8" fill="#2b436f"/>
          <rect x="163.3" y="13.7" width="211.2" height="242" rx="8" ry="8" fill="#2b436f" opacity=".2"/>
        </g>
        <g>
          <rect x="162.8" y="13.2" width="211.2" height="242" rx="8" ry="8" fill="url(#Cool_gray_gradient_1)"/>
          <rect x="162.8" y="13.2" width="211.2" height="242" rx="8" ry="8" fill="#0078d4" opacity=".2"/>
        </g>
      </g>
      <g>
        <g mix-blend-mode="multiply" opacity=".8">
          <rect x="383.3" y="13.7" width="211.2" height="242" rx="8" ry="8" fill="#2b436f"/>
          <rect x="383.3" y="13.7" width="211.2" height="242" rx="8" ry="8" fill="#2b436f" opacity=".2"/>
        </g>
        <g>
          <rect x="382.8" y="13.2" width="211.2" height="242" rx="8" ry="8" fill="url(#Cool_gray_gradient_1-2)"/>
          <rect x="382.8" y="13.2" width="211.2" height="242" rx="8" ry="8" fill="#0078d4" opacity=".2"/>
        </g>
      </g>
      <g>
        <g mix-blend-mode="multiply" opacity=".8">
          <rect x="603.3" y="13.7" width="211.2" height="242" rx="8" ry="8" fill="#2b436f"/>
          <rect x="603.3" y="13.7" width="211.2" height="242" rx="8" ry="8" fill="#2b436f" opacity=".2"/>
        </g>
        <g>
          <rect x="602.8" y="13.2" width="211.2" height="242" rx="8" ry="8" fill="url(#Cool_gray_gradient_1-3)"/>
          <rect x="602.8" y="13.2" width="211.2" height="242" rx="8" ry="8" fill="#0078d4" opacity=".2"/>
        </g>
      </g>
      <g>
        <rect x="15.08758" y="57.2" width="798.91242" height="184.8" fill="#fff"/>
        <rect x="15.08758" y="57.2" width="798.91242" height="184.8" fill="#0d0061" opacity=".03"/>
        <rect x="15.08758" y="57.2" width="798.91242" height="184.8" fill="none" opacity=".5" stroke="#0d0061" stroke-width=".25"/>
      </g>
      <g>
        <rect x="158.4" y="70.4" width="655.6" height="158.4" fill="#fff"/>
        <rect x="158.4" y="70.4" width="655.6" height="158.4" fill="#0d0061" opacity=".14"/>
        <rect x="158.4" y="70.4" width="655.6" height="158.4" fill="none" opacity=".5" stroke="#0d0061" stroke-width=".25"/>
      </g>
      <g>
        <rect x="167.2" y="123.2" width="638.62484" height="96.8" fill="#fff"/>
        <rect x="167.2" y="123.2" width="638.62484" height="96.8" fill="#0d0061" opacity=".22"/>
        <rect x="167.2" y="123.2" width="638.62484" height="96.8" fill="none" opacity=".5" stroke="#0d0061" stroke-width=".25"/>
      </g>
      <g>
        <path d="M83.42663,138.26355l.025.00833-.025-.00833Z" fill="none"/>
        <path d="M83.42663,140.91026l.025.00833-.025-.00833Z" fill="none"/>
        <path d="M83.42663,130.32177l.025.00833-.025-.00833Z" fill="none"/>
        <path d="M83.42663,132.96847l.025.00833-.025-.00833Z" fill="none"/>
        <path d="M98.95019,147.32368c-.095-2.91004-2.27837-5.32508-5.16341-5.71342-.21-4.07339-3.64172-7.22844-7.71845-7.09677-3.24671-.07833-6.18842,1.89836-7.34511,4.93174-3.48505.42001-6.13842,3.32338-6.24509,6.8301.15334,3.96506,3.48672,7.0601,7.45177,6.9201h13.11185c3.22505-.05667,5.83342-2.6467,5.90842-5.87342v.00167Z" fill="url(#linear-gradient)"/>
        <g>
          <path d="M81.68661,149.86872l-3.24505-3.26005c-.06333-.04833-.07667-.13834-.02833-.20334.00833-.01167.01833-.02.02833-.02833l3.24505-3.24505c.07167-.065.18167-.05833.245.01333.025.02833.04167.065.045.10334v1.91169c-.00333.08834.065.16167.15334.165.01667,0,.03333,0,.05-.00667h4.20173c.08834.00833.15334.085.145.17334h0v2.01503c0,.08834-.07167.16-.16.16h-4.18673c-.08833,0-.16.07-.16.15834v1.92669c.03333.09167-.01667.19334-.10833.225s-.19334-.01667-.225-.10834h0Z" fill="#fff"/>
          <path d="M89.68339,143.13195l3.36005,3.36005-3.36005,3.37505c-.06.06333-.16167.06667-.225.00667-.03333-.03167-.05167-.07667-.05-.12334v-1.91169c0-.09667-.07833-.17334-.17334-.17334h-4.34506v-2.3467h4.34506c.095.00833.18-.06167.18834-.15834h0v-1.91336c.00333-.08834.07833-.15667.16667-.15167.035,0,.06833.015.095.03667h-.00167Z" fill="#fff"/>
        </g>
        <path d="M71.30646,146.322v-.08167c.035-1.14168.30667-2.25503.78668-3.27338-1.91336-.40834-3.11504-.99835-3.11504-1.65336v4.49506c0,.57334.91835,1.09502,2.42504,1.49002-.05-.32001-.08333-.64501-.09667-.97668Z" fill="#005ba1"/>
        <path d="M73.46816,140.91192c.65001-.71168,1.41835-1.29168,2.25837-1.73503-3.90339.27667-6.74843,1.12835-6.74843,2.1367,0,.65501,1.20168,1.24502,3.11338,1.65336.35167-.74501.81168-1.44002,1.37669-2.0567v.00167Z" fill="#198ab3"/>
        <g>
          <path d="M87.94003,133.49015v-.11834c0,.03833-.005.07667-.01167.115,0,0,.01167.00333.01167.00333Z" fill="#0078d4"/>
          <path d="M77.89822,138.39189c.51667-1.08835,1.25002-2.04003,2.1317-2.81837-.51167.02-1.03501.03167-1.57169.03167-5.23508,0-9.48014-1.00001-9.48014-2.23336v4.49673c0,.90668,2.3017,1.68669,5.60341,2.0367.97835-.74168,2.11003-1.26168,3.31838-1.51169l-.00167-.00167Z" fill="#0078d4"/>
        </g>
        <path d="M80.03158,135.57184c1.58669-1.40169,3.66005-2.23503,5.85175-2.23503.06,0,.12,0,.18.00167.08333-.00167.16667-.00333.25-.00333.55168,0,1.09002.05167,1.61336.15167.00833-.03833.01167-.07667.01167-.115,0-1.23168-4.24506-2.2317-9.48014-2.2317s-9.48014,1.00001-9.48014,2.2317,4.24506,2.2317,9.48014,2.2317c.53667,0,1.06168-.01167,1.57336-.03167Z" fill="#32bedd"/>
        <g>
          <path d="M78.42989,127.66506c-5.17674,0-9.38347-.97835-9.4718-2.1917h-.00833v4.4534c0,1.23335,4.24506,2.23337,9.48014,2.23337,5.12674,0,9.30013-.95835,9.4718-2.15503h0v-.17834h0v-4.39506c.00833,1.23168-4.23673,2.23337-9.4718,2.23337Z" fill="#5ea0ef"/>
          <ellipse cx="78.42989" cy="125.4317" rx="9.48014" ry="2.2317" fill="#9cebff"/>
        </g>
      </g>
      <g>
        <path d="M166.86661,105.59246c0,.10723.05707.20582.14874.25943l2.11176,1.22451,3.58879,2.07545c.13836.08129.31823.03632.39952-.10377h0l1.21068-2.10312c.07956-.14355.03286-.32342-.10896-.40817l-4.19932-2.42135c-.0934-.05189-.15047-.15047-.14874-.2577v-19.30509c0-.10723.05535-.20581.14874-.2577l4.19932-2.43692c.14009-.08475.18852-.26289.10896-.40644l-1.20549-2.10139c-.08129-.14182-.26116-.19198-.40298-.11242h0l-3.51788,2.04258-2.18441,1.26775c-.09167.05362-.14874.1522-.14874.2577v22.78665Z" fill="#949494"/>
        <path d="M174.32783,81.45158l-1.20722-2.10139c-.06053-.1055-.17987-.16431-.30094-.14528-.05189-.00173-.10377.01038-.14874.03632l-3.51442,2.03912-2.18441,1.26775c-.04324.02594-.07956.06053-.1055.10377l.03459.02075c-.02248.04151-.03459.08648-.03459.13317l3.00766,1.74683c-.00173-.10723.05535-.20581.14874-.2577l4.19586-2.43692c.14009-.08475.18852-.26289.10896-.40644Z" fill="#a3a3a3"/>
        <path d="M174.32783,106.95014l-1.21068,2.10139c-.06053.1055-.17987.16258-.30094.14528-.05189.00173-.10377-.01038-.14874-.03632l-3.51442-2.04085-2.18095-1.26602c-.04324-.02594-.07956-.06226-.1055-.1055l.03459-.01902c-.02248-.04151-.03459-.08821-.03459-.1349l3.00766-1.7451c0,.10723.05535.20582.14874.2577l4.19586,2.43519c.14182.08475.18852.26462.10896.40817Z" fill="#a3a3a3"/>
        <path d="M197.99827,82.80754c0-.10723-.05708-.20581-.14874-.25943l-2.11177-1.22451-3.59225-2.08236c-.13836-.08129-.31823-.03632-.39952.10377h0l-1.21068,2.10312c-.07956.14355-.03286.32342.10896.40817l4.19586,2.43519c.0934.05189.15047.15047.14874.2577v19.29817c0,.10723-.05534.20582-.14874.2577l-4.19586,2.43692c-.14009.08475-.18852.26289-.10896.40644l1.21068,2.10139c.08129.14182.26116.19198.40298.11242h0l3.51615-2.04085,2.18441-1.26775c.0934-.05362.15047-.1522.15047-.25943v-22.78665h-.00173Z" fill="#949494"/>
        <path d="M190.53359,106.94842l1.21068,2.10139c.06053.1055.17987.1643.30094.14528.05189.00173.10377-.01038.14874-.03632l3.51442-2.03913,2.18441-1.26775c.04324-.02594.07956-.06053.1055-.10377l-.03459-.02075c.02248-.04151.03286-.08648.03459-.13317l-3.00767-1.74683c.00173.10723-.05534.20582-.14874.2577l-4.19586,2.43692c-.14182.08302-.19198.26289-.11242.40644Z" fill="#a3a3a3"/>
        <path d="M190.53359,81.44985l1.21068-2.10139c.06053-.1055.17987-.16258.30094-.14528.05189-.00173.10377.01038.14874.03632l3.51442,2.04085,2.18441,1.26602c.04324.02594.07956.06226.1055.1055l-.03459.01902c.02248.04151.03459.08821.03459.1349l-3.01112,1.7451c0-.10723-.05534-.20581-.14874-.2577l-4.19586-2.43519c-.14182-.08475-.18852-.26462-.10896-.40817Z" fill="#a3a3a3"/>
        <g id="uuid-e763c83e-7d5f-4942-b2c3-e255794f6789">
          <path d="M186.77704,96.21837l.02075.00692-.02075-.00692Z" fill="none"/>
          <path d="M186.77704,98.39759l.02075.00692-.02075-.00692Z" fill="none"/>
          <path d="M186.77704,89.67726l.02075.00692-.02075-.00692Z" fill="none"/>
          <path d="M186.77704,91.85821l.02075.00692-.02075-.00692Z" fill="none"/>
          <g>
            <ellipse cx="182.68668" cy="98.73139" rx="7.80886" ry="1.8385" fill="#198ab3"/>
            <path d="M190.49554,102.34785v-3.61646h0c0,1.01524-3.49539,1.8385-7.80886,1.8385s-7.80886-.82326-7.80886-1.8385v3.70121c0,1.01524,3.49539,1.8385,7.80886,1.8385,4.2218,0,7.66012-.78867,7.80194-1.7745h0v-.14701h.00692v-.00173Z" fill="#005ba1"/>
          </g>
          <g>
            <ellipse cx="182.68668" cy="92.19028" rx="7.80886" ry="1.8385" fill="#32bedd"/>
            <path d="M190.49554,95.80847v-3.61819h0c0,1.01697-3.49539,1.8385-7.80886,1.8385s-7.80886-.82326-7.80886-1.8385v3.70294c0,1.01524,3.49539,1.8385,7.80886,1.8385,4.2218,0,7.66012-.78867,7.80194-1.7745h0v-.14701h.00692v-.00173Z" fill="#0078d4"/>
          </g>
          <g>
            <path d="M182.66247,87.4894c-4.26504,0-7.7293-.80596-7.80194-1.80564h-.00692v3.66835c0,1.01697,3.49539,1.8385,7.80886,1.8385,4.2218,0,7.66012-.78867,7.80194-1.7745h0v-.14874h0v-3.61819c.00692,1.01524-3.4902,1.8385-7.80194,1.8385v.00173Z" fill="#5ea0ef"/>
            <ellipse cx="182.66247" cy="85.64917" rx="7.80886" ry="1.8385" fill="#9cebff"/>
          </g>
        </g>
      </g>
      <g id="uuid-e763c83e-7d5f-4942-b2c3-e255794f6789-2" data-name="uuid-e763c83e-7d5f-4942-b2c3-e255794f6789">
        <path d="M192.81319,147.76703l.02637.00879-.02637-.00879Z" fill="none"/>
        <path d="M192.81319,150.53626l.02637.00879-.02637-.00879Z" fill="none"/>
        <path d="M192.81319,139.45494l.02637.00879-.02637-.00879Z" fill="none"/>
        <path d="M192.81319,142.22637l.02637.00879-.02637-.00879Z" fill="none"/>
        <g>
          <ellipse cx="187.61538" cy="150.96044" rx="9.92308" ry="2.33626" fill="#198ab3"/>
          <path d="M197.53846,155.55604v-4.5956h0c0,1.29011-4.44176,2.33626-9.92308,2.33626s-9.92308-1.04615-9.92308-2.33626v4.7033c0,1.29011,4.44176,2.33626,9.92308,2.33626,5.36483,0,9.73407-1.0022,9.91428-2.25494h0v-.18681h.00879v-.0022Z" fill="#005ba1"/>
        </g>
        <g>
          <ellipse cx="187.61538" cy="142.64835" rx="9.92308" ry="2.33626" fill="#32bedd"/>
          <path d="M197.53846,147.24615v-4.5978h0c0,1.29231-4.44176,2.33626-9.92308,2.33626s-9.92308-1.04615-9.92308-2.33626v4.70549c0,1.29011,4.44176,2.33626,9.92308,2.33626,5.36483,0,9.73407-1.0022,9.91428-2.25494h0v-.18681h.00879v-.0022Z" fill="#0078d4"/>
        </g>
        <g>
          <path d="M187.58462,136.67472c-5.41978,0-9.82198-1.02418-9.91429-2.29451h-.00879v4.66154c0,1.29231,4.44176,2.33626,9.92308,2.33626,5.36483,0,9.73407-1.0022,9.91428-2.25494h0v-.18901h0v-4.5978c.00879,1.29011-4.43516,2.33626-9.91428,2.33626v.0022Z" fill="#5ea0ef"/>
          <ellipse cx="187.58462" cy="134.33626" rx="9.92308" ry="2.33626" fill="#9cebff"/>
        </g>
      </g>
      <g>
        <rect x="204.35" y="171.6" width="127.6" height="30.8" fill="#fff"/>
        <rect x="204.35" y="171.6" width="127.6" height="30.8" fill="#fafafa"/>
        <rect x="204.35" y="171.6" width="127.6" height="30.8" fill="none" stroke="#d9dad5" stroke-width=".25"/>
      </g>
      <g>
        <rect x="424.6" y="171.6" width="127.6" height="30.8" fill="#fff"/>
        <rect x="424.6" y="171.6" width="127.6" height="30.8" fill="#fafafa"/>
        <rect x="424.6" y="171.6" width="127.6" height="30.8" fill="none" stroke="#d9dad5" stroke-width=".25"/>
      </g>
      <g>
        <rect x="644.6" y="171.6" width="127.6" height="30.8" fill="#fff"/>
        <rect x="644.6" y="171.6" width="127.6" height="30.8" fill="#fafafa"/>
        <rect x="644.6" y="171.6" width="127.6" height="30.8" fill="none" stroke="#d9dad5" stroke-width=".25"/>
      </g>
    </g>
    <g id="Text">
      <g>
        <path d="M216.68555,39.60029h-2.40625l-.69727-2.18066h-3.48633l-.69043,2.18066h-2.39258l3.56836-9.80273h2.61816l3.48633,9.80273ZM213.07617,35.72432l-1.05273-3.29492c-.07764-.24609-.13232-.54004-.16406-.88184h-.05469c-.02295.28711-.07959.57178-.1709.85449l-1.06641,3.32227h2.50879Z"/>
        <path d="M224.05469,32.60029l-2.60449,7h-2.46094l-2.48145-7h2.31055l1.2168,4.31348c.13672.48779.21631.90234.23926,1.24414h.02734c.03174-.32373.11621-.72461.25293-1.20312l1.24414-4.35449h2.25586Z"/>
        <path d="M230.58984,39.60029h-2.04395v-1.00488h-.02734c-.46924.78369-1.16455,1.17578-2.08496,1.17578-.6792,0-1.21338-.19238-1.60303-.57764s-.58447-.89893-.58447-1.5415c0-1.35791.8042-2.14209,2.41309-2.35156l1.90039-.25293c0-.76562-.41455-1.14844-1.24414-1.14844-.83398,0-1.62695.24854-2.37891.74512v-1.62695c.30078-.15479.71191-.2915,1.23389-.41016s.99707-.17773,1.42529-.17773c1.99609,0,2.99414.99561,2.99414,2.9873v4.18359ZM228.55957,36.75654v-.47168l-1.27148.16406c-.70166.09131-1.05273.40771-1.05273.9502,0,.24609.08545.44775.25635.60498s.40234.23584.69385.23584c.40576,0,.73584-.14014.99121-.42041s.38281-.63477.38281-1.06299Z"/>
        <path d="M233.39258,31.49287c-.36475,0-.66309-.1084-.89551-.32471s-.34863-.48193-.34863-.79639c0-.32373.11621-.58789.34863-.79297s.53076-.30762.89551-.30762c.36914,0,.66895.10254.89893.30762s.34521.46924.34521.79297c0,.32812-.11523.59717-.34521.80664s-.52979.31445-.89893.31445ZM234.45898,39.60029h-2.16016v-7h2.16016v7Z"/>
        <path d="M238.4375,39.60029h-2.16016v-10.36328h2.16016v10.36328Z"/>
        <path d="M246.08008,39.60029h-2.04395v-1.00488h-.02734c-.46924.78369-1.16455,1.17578-2.08496,1.17578-.6792,0-1.21338-.19238-1.60303-.57764s-.58447-.89893-.58447-1.5415c0-1.35791.8042-2.14209,2.41309-2.35156l1.90039-.25293c0-.76562-.41455-1.14844-1.24414-1.14844-.83398,0-1.62695.24854-2.37891.74512v-1.62695c.30078-.15479.71191-.2915,1.23389-.41016s.99707-.17773,1.42529-.17773c1.99609,0,2.99414.99561,2.99414,2.9873v4.18359ZM244.0498,36.75654v-.47168l-1.27148.16406c-.70166.09131-1.05273.40771-1.05273.9502,0,.24609.08545.44775.25635.60498s.40234.23584.69385.23584c.40576,0,.73584-.14014.99121-.42041s.38281-.63477.38281-1.06299Z"/>
        <path d="M249.97656,38.78682h-.02734v.81348h-2.16016v-10.36328h2.16016v4.41602h.02734c.5332-.81592,1.29199-1.22363,2.27637-1.22363.90234,0,1.59717.31006,2.08496.92969s.73145,1.46729.73145,2.54297c0,1.1665-.28467,2.10303-.85449,2.80957s-1.33057,1.05957-2.2832,1.05957c-.86133,0-1.51318-.32812-1.95508-.98438ZM249.91504,35.83369v.71777c0,.45117.12988.82471.38965,1.12109s.59229.44434.99805.44434c.49219,0,.87402-.19043,1.14502-.5708s.40674-.91943.40674-1.6167c0-.57861-.12402-1.03125-.37256-1.35693s-.60254-.48877-1.06299-.48877c-.43311,0-.79199.16162-1.07666.48535s-.42725.74512-.42725,1.26465Z"/>
        <path d="M257.56445,31.49287c-.36475,0-.66309-.1084-.89551-.32471s-.34863-.48193-.34863-.79639c0-.32373.11621-.58789.34863-.79297s.53076-.30762.89551-.30762c.36914,0,.66895.10254.89893.30762s.34521.46924.34521.79297c0,.32812-.11523.59717-.34521.80664s-.52979.31445-.89893.31445ZM258.63086,39.60029h-2.16016v-7h2.16016v7Z"/>
        <path d="M262.60938,39.60029h-2.16016v-10.36328h2.16016v10.36328Z"/>
        <path d="M265.52148,31.49287c-.36475,0-.66309-.1084-.89551-.32471s-.34863-.48193-.34863-.79639c0-.32373.11621-.58789.34863-.79297s.53076-.30762.89551-.30762c.36914,0,.66895.10254.89893.30762s.34521.46924.34521.79297c0,.32812-.11523.59717-.34521.80664s-.52979.31445-.89893.31445ZM266.58789,39.60029h-2.16016v-7h2.16016v7Z"/>
        <path d="M272.6377,39.51826c-.31885.16846-.7998.25293-1.44238.25293-1.52197,0-2.2832-.79053-2.2832-2.37207v-3.20605h-1.13477v-1.59277h1.13477v-1.51074l2.15332-.61523v2.12598h1.57227v1.59277h-1.57227v2.83008c0,.729.28955,1.09375.86816,1.09375.22803,0,.4624-.06592.7041-.19824v1.59961Z"/>
        <path d="M280.51953,32.60029l-2.84375,7.56055c-.68359,1.81836-1.71338,2.72754-3.08984,2.72754-.52393,0-.95459-.05908-1.29199-.17773v-1.72266c.28711.16846.59912.25293.93652.25293.55615,0,.94336-.26221,1.16211-.78613l.36914-.86816-2.84375-6.98633h2.39258l1.30566,4.25879c.08203.26416.146.57666.19141.93652h.02734c.04102-.26416.11621-.57178.22559-.92285l1.31934-4.27246h2.13965Z"/>
        <path d="M292.5166,39.60029h-7.89551v-1.27148l5.02441-6.7334h-4.66211v-1.79785h7.51953v1.2373l-4.91504,6.77441h4.92871v1.79102Z"/>
        <path d="M297.08301,39.77119c-1.1665,0-2.08398-.32715-2.75146-.98096s-1.00146-1.5415-1.00146-2.6626c0-1.15771.34619-2.06348,1.03906-2.71729s1.62939-.98096,2.80957-.98096c1.16211,0,2.07373.32715,2.73438.98096s.99121,1.51855.99121,2.59424c0,1.16211-.34082,2.08057-1.02197,2.75488s-1.61426,1.01172-2.79932,1.01172ZM297.1377,34.08369c-.51025,0-.90674.17529-1.18945.52637s-.42383.84766-.42383,1.49023c0,1.34424.54248,2.0166,1.62695,2.0166,1.03467,0,1.55176-.69043,1.55176-2.07129,0-1.30811-.52197-1.96191-1.56543-1.96191Z"/>
        <path d="M309.06641,39.60029h-2.15332v-3.88965c0-1.08447-.38721-1.62695-1.16211-1.62695-.37354,0-.68115.14355-.92285.43066s-.3623.65186-.3623,1.09375v3.99219h-2.16016v-7h2.16016v1.10742h.02734c.51514-.85205,1.26465-1.27832,2.24902-1.27832,1.54932,0,2.32422.96143,2.32422,2.88477v4.28613Z"/>
        <path d="M317.06445,36.71553h-4.56641c.07275,1.01611.71338,1.52441,1.9209,1.52441.77002,0,1.44678-.18213,2.03027-.54688v1.55859c-.64697.34619-1.48779.51953-2.52246.51953-1.13037,0-2.00732-.31348-2.63184-.93994s-.93652-1.50049-.93652-2.62158c0-1.16211.3374-2.08252,1.01172-2.76172s1.50391-1.01855,2.48828-1.01855c1.021,0,1.81055.30322,2.36865.90918s.8374,1.42871.8374,2.46777v.90918ZM315.06152,35.38936c0-1.00244-.40576-1.50391-1.2168-1.50391-.34619,0-.646.14355-.89893.43066s-.40674.64502-.46143,1.07324h2.57715Z"/>
        <path d="M326.99023,29.57881v10.02148h-2.15332v-7.58789c-.11865.10498-.25879.2041-.42041.29736s-.33398.17773-.51611.25293-.37158.13916-.56738.19141-.38965.08984-.58105.11279v-1.81836c.56055-.16406,1.08936-.37354,1.58594-.62891s.9458-.53564,1.34668-.84082h1.30566Z"/>
      </g>
      <g>
        <path d="M436.93604,39.60029h-2.40625l-.69727-2.18066h-3.48633l-.69043,2.18066h-2.39258l3.56836-9.80273h2.61816l3.48633,9.80273ZM433.32666,35.72432l-1.05273-3.29492c-.07764-.24609-.13232-.54004-.16406-.88184h-.05469c-.02295.28711-.07959.57178-.1709.85449l-1.06641,3.32227h2.50879Z"/>
        <path d="M444.30518,32.60029l-2.60449,7h-2.46094l-2.48145-7h2.31055l1.2168,4.31348c.13672.48779.21631.90234.23926,1.24414h.02734c.03174-.32373.11621-.72461.25293-1.20312l1.24414-4.35449h2.25586Z"/>
        <path d="M450.84033,39.60029h-2.04395v-1.00488h-.02734c-.46924.78369-1.16455,1.17578-2.08496,1.17578-.6792,0-1.21338-.19238-1.60303-.57764s-.58447-.89893-.58447-1.5415c0-1.35791.8042-2.14209,2.41309-2.35156l1.90039-.25293c0-.76562-.41455-1.14844-1.24414-1.14844-.83398,0-1.62695.24854-2.37891.74512v-1.62695c.30078-.15479.71191-.2915,1.23389-.41016s.99707-.17773,1.42529-.17773c1.99609,0,2.99414.99561,2.99414,2.9873v4.18359ZM448.81006,36.75654v-.47168l-1.27148.16406c-.70166.09131-1.05273.40771-1.05273.9502,0,.24609.08545.44775.25635.60498s.40234.23584.69385.23584c.40576,0,.73584-.14014.99121-.42041s.38281-.63477.38281-1.06299Z"/>
        <path d="M453.64307,31.49287c-.36475,0-.66309-.1084-.89551-.32471s-.34863-.48193-.34863-.79639c0-.32373.11621-.58789.34863-.79297s.53076-.30762.89551-.30762c.36914,0,.66895.10254.89893.30762s.34521.46924.34521.79297c0,.32812-.11523.59717-.34521.80664s-.52979.31445-.89893.31445ZM454.70947,39.60029h-2.16016v-7h2.16016v7Z"/>
        <path d="M458.68799,39.60029h-2.16016v-10.36328h2.16016v10.36328Z"/>
        <path d="M466.33057,39.60029h-2.04395v-1.00488h-.02734c-.46924.78369-1.16455,1.17578-2.08496,1.17578-.6792,0-1.21338-.19238-1.60303-.57764s-.58447-.89893-.58447-1.5415c0-1.35791.8042-2.14209,2.41309-2.35156l1.90039-.25293c0-.76562-.41455-1.14844-1.24414-1.14844-.83398,0-1.62695.24854-2.37891.74512v-1.62695c.30078-.15479.71191-.2915,1.23389-.41016s.99707-.17773,1.42529-.17773c1.99609,0,2.99414.99561,2.99414,2.9873v4.18359ZM464.30029,36.75654v-.47168l-1.27148.16406c-.70166.09131-1.05273.40771-1.05273.9502,0,.24609.08545.44775.25635.60498s.40234.23584.69385.23584c.40576,0,.73584-.14014.99121-.42041s.38281-.63477.38281-1.06299Z"/>
        <path d="M470.22705,38.78682h-.02734v.81348h-2.16016v-10.36328h2.16016v4.41602h.02734c.5332-.81592,1.29199-1.22363,2.27637-1.22363.90234,0,1.59717.31006,2.08496.92969s.73145,1.46729.73145,2.54297c0,1.1665-.28467,2.10303-.85449,2.80957s-1.33057,1.05957-2.2832,1.05957c-.86133,0-1.51318-.32812-1.95508-.98438ZM470.16553,35.83369v.71777c0,.45117.12988.82471.38965,1.12109s.59229.44434.99805.44434c.49219,0,.87402-.19043,1.14502-.5708s.40674-.91943.40674-1.6167c0-.57861-.12402-1.03125-.37256-1.35693s-.60254-.48877-1.06299-.48877c-.43311,0-.79199.16162-1.07666.48535s-.42725.74512-.42725,1.26465Z"/>
        <path d="M477.81494,31.49287c-.36475,0-.66309-.1084-.89551-.32471s-.34863-.48193-.34863-.79639c0-.32373.11621-.58789.34863-.79297s.53076-.30762.89551-.30762c.36914,0,.66895.10254.89893.30762s.34521.46924.34521.79297c0,.32812-.11523.59717-.34521.80664s-.52979.31445-.89893.31445ZM478.88135,39.60029h-2.16016v-7h2.16016v7Z"/>
        <path d="M482.85986,39.60029h-2.16016v-10.36328h2.16016v10.36328Z"/>
        <path d="M485.77197,31.49287c-.36475,0-.66309-.1084-.89551-.32471s-.34863-.48193-.34863-.79639c0-.32373.11621-.58789.34863-.79297s.53076-.30762.89551-.30762c.36914,0,.66895.10254.89893.30762s.34521.46924.34521.79297c0,.32812-.11523.59717-.34521.80664s-.52979.31445-.89893.31445ZM486.83838,39.60029h-2.16016v-7h2.16016v7Z"/>
        <path d="M492.88818,39.51826c-.31885.16846-.7998.25293-1.44238.25293-1.52197,0-2.2832-.79053-2.2832-2.37207v-3.20605h-1.13477v-1.59277h1.13477v-1.51074l2.15332-.61523v2.12598h1.57227v1.59277h-1.57227v2.83008c0,.729.28955,1.09375.86816,1.09375.22803,0,.4624-.06592.7041-.19824v1.59961Z"/>
        <path d="M500.77002,32.60029l-2.84375,7.56055c-.68359,1.81836-1.71338,2.72754-3.08984,2.72754-.52393,0-.95459-.05908-1.29199-.17773v-1.72266c.28711.16846.59912.25293.93652.25293.55615,0,.94336-.26221,1.16211-.78613l.36914-.86816-2.84375-6.98633h2.39258l1.30566,4.25879c.08203.26416.146.57666.19141.93652h.02734c.04102-.26416.11621-.57178.22559-.92285l1.31934-4.27246h2.13965Z"/>
        <path d="M512.76709,39.60029h-7.89551v-1.27148l5.02441-6.7334h-4.66211v-1.79785h7.51953v1.2373l-4.91504,6.77441h4.92871v1.79102Z"/>
        <path d="M517.3335,39.77119c-1.1665,0-2.08398-.32715-2.75146-.98096s-1.00146-1.5415-1.00146-2.6626c0-1.15771.34619-2.06348,1.03906-2.71729s1.62939-.98096,2.80957-.98096c1.16211,0,2.07373.32715,2.73438.98096s.99121,1.51855.99121,2.59424c0,1.16211-.34082,2.08057-1.02197,2.75488s-1.61426,1.01172-2.79932,1.01172ZM517.38818,34.08369c-.51025,0-.90674.17529-1.18945.52637s-.42383.84766-.42383,1.49023c0,1.34424.54248,2.0166,1.62695,2.0166,1.03467,0,1.55176-.69043,1.55176-2.07129,0-1.30811-.52197-1.96191-1.56543-1.96191Z"/>
        <path d="M529.31689,39.60029h-2.15332v-3.88965c0-1.08447-.38721-1.62695-1.16211-1.62695-.37354,0-.68115.14355-.92285.43066s-.3623.65186-.3623,1.09375v3.99219h-2.16016v-7h2.16016v1.10742h.02734c.51514-.85205,1.26465-1.27832,2.24902-1.27832,1.54932,0,2.32422.96143,2.32422,2.88477v4.28613Z"/>
        <path d="M537.31494,36.71553h-4.56641c.07275,1.01611.71338,1.52441,1.9209,1.52441.77002,0,1.44678-.18213,2.03027-.54688v1.55859c-.64697.34619-1.48779.51953-2.52246.51953-1.13037,0-2.00732-.31348-2.63184-.93994s-.93652-1.50049-.93652-2.62158c0-1.16211.3374-2.08252,1.01172-2.76172s1.50391-1.01855,2.48828-1.01855c1.021,0,1.81055.30322,2.36865.90918s.8374,1.42871.8374,2.46777v.90918ZM535.31201,35.38936c0-1.00244-.40576-1.50391-1.2168-1.50391-.34619,0-.646.14355-.89893.43066s-.40674.64502-.46143,1.07324h2.57715Z"/>
        <path d="M544.48584,37.80928h4.15625v1.79102h-6.52148v-.73828c0-.50146.08447-.95117.25293-1.3501s.38037-.75635.63574-1.07324.53418-.59717.8374-.84082.59131-.46387.86475-.65967c.28711-.20508.53906-.40088.75537-.58789s.39893-.37256.54688-.55713.25879-.37158.33154-.56055.10938-.39062.10938-.60498c0-.41943-.11865-.73584-.35547-.9502s-.59912-.32129-1.08691-.32129c-.84326,0-1.6499.33496-2.41992,1.00488v-1.90039c.85205-.55127,1.81396-.82715,2.88477-.82715.49658,0,.94238.06494,1.33643.19482s.72803.31543,1.00146.55713.48193.53418.62549.87842.21533.72803.21533,1.15186c0,.45117-.06934.85205-.2085,1.20312s-.32373.66992-.55371.95703-.49561.55029-.79639.78955-.61279.4707-.93652.69385c-.21875.15479-.42969.30859-.63232.46143s-.38184.30322-.53662.45117-.27783.29297-.36914.43408-.13672.27588-.13672.40332Z"/>
      </g>
      <g>
        <path d="M656.93555,39.60029h-2.40625l-.69727-2.18066h-3.48633l-.69043,2.18066h-2.39258l3.56836-9.80273h2.61816l3.48633,9.80273ZM653.32617,35.72432l-1.05273-3.29492c-.07715-.24609-.13184-.54004-.16406-.88184h-.05469c-.02246.28711-.0791.57178-.1709.85449l-1.06641,3.32227h2.50879Z"/>
        <path d="M664.30469,32.60029l-2.60449,7h-2.46094l-2.48145-7h2.31055l1.2168,4.31348c.13672.48779.2168.90234.23926,1.24414h.02734c.03223-.32373.11621-.72461.25293-1.20312l1.24414-4.35449h2.25586Z"/>
        <path d="M670.83984,39.60029h-2.04395v-1.00488h-.02734c-.46875.78369-1.16406,1.17578-2.08496,1.17578-.67871,0-1.21289-.19238-1.60254-.57764s-.58496-.89893-.58496-1.5415c0-1.35791.80469-2.14209,2.41309-2.35156l1.90039-.25293c0-.76562-.41406-1.14844-1.24414-1.14844-.83398,0-1.62695.24854-2.37891.74512v-1.62695c.30078-.15479.71191-.2915,1.23438-.41016.52148-.11865.99707-.17773,1.4248-.17773,1.99609,0,2.99414.99561,2.99414,2.9873v4.18359ZM668.80957,36.75654v-.47168l-1.27148.16406c-.70117.09131-1.05273.40771-1.05273.9502,0,.24609.08594.44775.25684.60498s.40234.23584.69336.23584c.40625,0,.73633-.14014.99121-.42041.25586-.28027.38281-.63477.38281-1.06299Z"/>
        <path d="M673.64258,31.49287c-.36426,0-.66309-.1084-.89551-.32471s-.34863-.48193-.34863-.79639c0-.32373.11621-.58789.34863-.79297s.53125-.30762.89551-.30762c.36914,0,.66895.10254.89941.30762.22949.20508.34473.46924.34473.79297,0,.32812-.11523.59717-.34473.80664-.23047.20947-.53027.31445-.89941.31445ZM674.70898,39.60029h-2.16016v-7h2.16016v7Z"/>
        <path d="M678.6875,39.60029h-2.16016v-10.36328h2.16016v10.36328Z"/>
        <path d="M686.33008,39.60029h-2.04395v-1.00488h-.02734c-.46875.78369-1.16406,1.17578-2.08496,1.17578-.67871,0-1.21289-.19238-1.60254-.57764s-.58496-.89893-.58496-1.5415c0-1.35791.80469-2.14209,2.41309-2.35156l1.90039-.25293c0-.76562-.41406-1.14844-1.24414-1.14844-.83398,0-1.62695.24854-2.37891.74512v-1.62695c.30078-.15479.71191-.2915,1.23438-.41016.52148-.11865.99707-.17773,1.4248-.17773,1.99609,0,2.99414.99561,2.99414,2.9873v4.18359ZM684.2998,36.75654v-.47168l-1.27148.16406c-.70117.09131-1.05273.40771-1.05273.9502,0,.24609.08594.44775.25684.60498s.40234.23584.69336.23584c.40625,0,.73633-.14014.99121-.42041.25586-.28027.38281-.63477.38281-1.06299Z"/>
        <path d="M690.22656,38.78682h-.02734v.81348h-2.16016v-10.36328h2.16016v4.41602h.02734c.5332-.81592,1.29199-1.22363,2.27637-1.22363.90234,0,1.59766.31006,2.08496.92969.48828.61963.73145,1.46729.73145,2.54297,0,1.1665-.28418,2.10303-.85449,2.80957-.56934.70654-1.33008,1.05957-2.2832,1.05957-.86133,0-1.5127-.32812-1.95508-.98438ZM690.16504,35.83369v.71777c0,.45117.12988.82471.38965,1.12109s.59277.44434.99805.44434c.49219,0,.87402-.19043,1.14551-.5708.27051-.38037.40625-.91943.40625-1.6167,0-.57861-.12402-1.03125-.37207-1.35693-.24902-.32568-.60254-.48877-1.06348-.48877-.43262,0-.79199.16162-1.07617.48535-.28516.32373-.42773.74512-.42773,1.26465Z"/>
        <path d="M697.81445,31.49287c-.36426,0-.66309-.1084-.89551-.32471s-.34863-.48193-.34863-.79639c0-.32373.11621-.58789.34863-.79297s.53125-.30762.89551-.30762c.36914,0,.66895.10254.89941.30762.22949.20508.34473.46924.34473.79297,0,.32812-.11523.59717-.34473.80664-.23047.20947-.53027.31445-.89941.31445ZM698.88086,39.60029h-2.16016v-7h2.16016v7Z"/>
        <path d="M702.85938,39.60029h-2.16016v-10.36328h2.16016v10.36328Z"/>
        <path d="M705.77148,31.49287c-.36426,0-.66309-.1084-.89551-.32471s-.34863-.48193-.34863-.79639c0-.32373.11621-.58789.34863-.79297s.53125-.30762.89551-.30762c.36914,0,.66895.10254.89941.30762.22949.20508.34473.46924.34473.79297,0,.32812-.11523.59717-.34473.80664-.23047.20947-.53027.31445-.89941.31445ZM706.83789,39.60029h-2.16016v-7h2.16016v7Z"/>
        <path d="M712.8877,39.51826c-.31836.16846-.7998.25293-1.44238.25293-1.52148,0-2.2832-.79053-2.2832-2.37207v-3.20605h-1.13477v-1.59277h1.13477v-1.51074l2.15332-.61523v2.12598h1.57227v1.59277h-1.57227v2.83008c0,.729.29004,1.09375.86816,1.09375.22852,0,.46289-.06592.7041-.19824v1.59961Z"/>
        <path d="M720.76953,32.60029l-2.84375,7.56055c-.68359,1.81836-1.71289,2.72754-3.08984,2.72754-.52344,0-.9541-.05908-1.29199-.17773v-1.72266c.28711.16846.59961.25293.93652.25293.55664,0,.94336-.26221,1.16211-.78613l.36914-.86816-2.84375-6.98633h2.39258l1.30566,4.25879c.08203.26416.14648.57666.19141.93652h.02734c.04102-.26416.11621-.57178.22559-.92285l1.31934-4.27246h2.13965Z"/>
        <path d="M732.7666,39.60029h-7.89551v-1.27148l5.02441-6.7334h-4.66211v-1.79785h7.51953v1.2373l-4.91504,6.77441h4.92871v1.79102Z"/>
        <path d="M737.33301,39.77119c-1.16602,0-2.08398-.32715-2.75098-.98096-.66797-.65381-1.00195-1.5415-1.00195-2.6626,0-1.15771.34668-2.06348,1.03906-2.71729.69336-.65381,1.62988-.98096,2.80957-.98096,1.16211,0,2.07422.32715,2.73438.98096.66113.65381.99121,1.51855.99121,2.59424,0,1.16211-.34082,2.08057-1.02148,2.75488-.68164.67432-1.61426,1.01172-2.7998,1.01172ZM737.3877,34.08369c-.50977,0-.90625.17529-1.18945.52637-.28223.35107-.42383.84766-.42383,1.49023,0,1.34424.54297,2.0166,1.62695,2.0166,1.03516,0,1.55176-.69043,1.55176-2.07129,0-1.30811-.52148-1.96191-1.56543-1.96191Z"/>
        <path d="M749.31641,39.60029h-2.15332v-3.88965c0-1.08447-.38672-1.62695-1.16211-1.62695-.37305,0-.68066.14355-.92285.43066-.24121.28711-.3623.65186-.3623,1.09375v3.99219h-2.16016v-7h2.16016v1.10742h.02734c.51562-.85205,1.26465-1.27832,2.24902-1.27832,1.5498,0,2.32422.96143,2.32422,2.88477v4.28613Z"/>
        <path d="M757.31445,36.71553h-4.56641c.07324,1.01611.71387,1.52441,1.9209,1.52441.77051,0,1.44727-.18213,2.03027-.54688v1.55859c-.64648.34619-1.4873.51953-2.52246.51953-1.12988,0-2.00684-.31348-2.63184-.93994-.62402-.62646-.93652-1.50049-.93652-2.62158,0-1.16211.33789-2.08252,1.01172-2.76172.6748-.6792,1.50391-1.01855,2.48828-1.01855,1.02148,0,1.81055.30322,2.36914.90918.55762.60596.83691,1.42871.83691,2.46777v.90918ZM755.31152,35.38936c0-1.00244-.40527-1.50391-1.2168-1.50391-.3457,0-.64551.14355-.89844.43066s-.40723.64502-.46191,1.07324h2.57715Z"/>
        <path d="M762.35254,39.279v-1.87988c.65625.47852,1.42188.71777,2.29688.71777.55176,0,.98145-.11865,1.28906-.35547s.46094-.56738.46094-.99121c0-.4375-.19043-.7749-.57031-1.01172-.38086-.23682-.90332-.35547-1.56934-.35547h-.90918v-1.6543h.84082c1.27637,0,1.91406-.42383,1.91406-1.27148,0-.79736-.48926-1.19629-1.46973-1.19629-.65625,0-1.29395.21191-1.91406.63574v-1.76367c.68848-.34619,1.49023-.51953,2.40625-.51953,1.00293,0,1.7832.22559,2.3418.67676.55762.45117.83691,1.03662.83691,1.75684,0,1.28076-.64941,2.08252-1.94824,2.40625v.03418c.69336.08643,1.24023.33838,1.64062.75537.40137.41699.60156.92871.60156,1.53467,0,.91602-.33496,1.64062-1.00488,2.17383s-1.59473.7998-2.77539.7998c-1.01172,0-1.83398-.16406-2.46777-.49219Z"/>
      </g>
      <g>
        <path d="M54.01514,173.30098h-5.87891v-9.80273h5.65332v1.79785h-3.44531v2.18066h3.20605v1.79102h-3.20605v2.24219h3.6709v1.79102Z" fill="#2f2f2f"/>
        <path d="M57.64062,173.30098h-2.16016v-10.36328h2.16016v10.36328Z" fill="#2f2f2f"/>
        <path d="M65.30566,173.30098h-2.04395v-1.00488h-.02734c-.46924.78369-1.16455,1.17578-2.08496,1.17578-.6792,0-1.21338-.19238-1.60303-.57764s-.58447-.89893-.58447-1.5415c0-1.35791.8042-2.14209,2.41309-2.35156l1.90039-.25293c0-.76562-.41455-1.14844-1.24414-1.14844-.83398,0-1.62695.24854-2.37891.74512v-1.62695c.30078-.15479.71191-.2915,1.23389-.41016s.99707-.17773,1.42529-.17773c1.99609,0,2.99414.99561,2.99414,2.9873v4.18359ZM63.27539,170.45723v-.47168l-1.27148.16406c-.70166.09131-1.05273.40771-1.05273.9502,0,.24609.08545.44775.25635.60498s.40234.23584.69385.23584c.40576,0,.73584-.14014.99121-.42041s.38281-.63477.38281-1.06299Z" fill="#2f2f2f"/>
        <path d="M66.67969,173.11641v-1.75c.35547.21436.70996.37354,1.06299.47852s.68701.15723,1.00146.15723c.38281,0,.68457-.05225.90576-.15723s.33154-.26416.33154-.47852c0-.13672-.05029-.25049-.15039-.3418s-.229-.1709-.38623-.23926-.3291-.12988-.51611-.18457-.3667-.11621-.54004-.18457c-.27783-.10498-.52295-.21777-.73486-.33838s-.38965-.26074-.5332-.42041-.25293-.34424-.32812-.55371-.11279-.45801-.11279-.74512c0-.39209.08545-.729.25635-1.01172s.39893-.51367.68359-.69385.61084-.31201.97754-.39648.74854-.12646,1.14502-.12646c.31006,0,.62451.02393.94336.07178s.6333.11719.94336.2085v1.66797c-.27344-.15967-.56641-.2793-.87842-.35889s-.61865-.11963-.91943-.11963c-.14111,0-.27441.0127-.3999.0376s-.23584.06152-.33154.10938-.1709.10938-.22559.18457-.08203.16064-.08203.25635c0,.12744.04102.23682.12305.32812s.18896.16992.32129.23584.2793.12549.44092.17773.32227.10596.48193.16064c.28711.1001.54688.20947.7793.32812s.43164.25732.59814.41699.29395.34619.38281.56055.1333.46924.1333.76562c0,.41455-.08984.76904-.27002,1.06299s-.41943.5332-.71777.71777-.64258.31885-1.03223.40332-.79395.12646-1.21338.12646c-.77002,0-1.4834-.11865-2.13965-.35547Z" fill="#2f2f2f"/>
        <path d="M77.48633,173.21895c-.31885.16846-.7998.25293-1.44238.25293-1.52197,0-2.2832-.79053-2.2832-2.37207v-3.20605h-1.13477v-1.59277h1.13477v-1.51074l2.15332-.61523v2.12598h1.57227v1.59277h-1.57227v2.83008c0,.729.28955,1.09375.86816,1.09375.22803,0,.4624-.06592.7041-.19824v1.59961Z" fill="#2f2f2f"/>
        <path d="M79.86426,165.19355c-.36475,0-.66309-.1084-.89551-.32471s-.34863-.48193-.34863-.79639c0-.32373.11621-.58789.34863-.79297s.53076-.30762.89551-.30762c.36914,0,.66895.10254.89893.30762s.34521.46924.34521.79297c0,.32812-.11523.59717-.34521.80664s-.52979.31445-.89893.31445ZM80.93066,173.30098h-2.16016v-7h2.16016v7Z" fill="#2f2f2f"/>
        <path d="M88.01025,173.04805c-.48779.28271-1.19189.42383-2.1123.42383-1.07568,0-1.9458-.32568-2.61133-.97754s-.99805-1.49268-.99805-2.52246c0-1.18945.35645-2.12695,1.06982-2.81299s1.66699-1.02881,2.86084-1.02881c.82471,0,1.42188.10938,1.79102.32812v1.83203c-.45117-.3374-.95459-.50586-1.51074-.50586-.61963,0-1.11084.18115-1.47314.54346s-.54346.8623-.54346,1.50049c0,.61963.17334,1.10645.51953,1.45947s.82275.52979,1.42871.52979c.5376,0,1.06396-.16846,1.5791-.50586v1.73633Z" fill="#2f2f2f"/>
        <path d="M93.04834,172.925v-2.1875c.39648.33252.82715.58203,1.29199.74854s.93408.24951,1.4082.24951c.27783,0,.52051-.0249.72803-.0752s.38037-.11963.51953-.2085.24268-.19385.31104-.31445.10254-.25195.10254-.39307c0-.19141-.05469-.3623-.16406-.5127s-.25879-.28955-.44775-.41699-.41357-.25049-.67334-.36914-.54004-.23926-.84082-.3623c-.76562-.31885-1.33643-.7085-1.7124-1.16895s-.56396-1.01611-.56396-1.66797c0-.51025.10254-.94922.30762-1.31592s.48438-.66895.8374-.90576.76221-.41113,1.22705-.52295.95703-.16748,1.47656-.16748c.51025,0,.96289.03076,1.35693.09229s.75781.15625,1.09033.28369v2.04395c-.16406-.11377-.34277-.21436-.53662-.30078s-.39307-.1582-.59814-.21533-.40918-.09912-.61182-.12646-.39551-.04102-.57764-.04102c-.25049,0-.47852.02393-.68359.07178s-.37842.11523-.51953.20166-.25049.19043-.32812.31104-.11621.25635-.11621.40674c0,.16406.04346.31104.12988.44092s.20947.25293.36914.36914.35303.22998.58105.3418.48535.22656.77246.34521c.39209.16406.74414.33838,1.05615.52295s.58008.39307.80322.62549.39404.49805.5127.79639.17773.646.17773,1.04248c0,.54688-.10352,1.00586-.31104,1.37744s-.48877.67236-.84424.90234-.76904.39551-1.24072.49561-.96973.15039-1.49365.15039c-.5376,0-1.04932-.04541-1.53467-.13672s-.90576-.22803-1.26123-.41016Z" fill="#2f2f2f"/>
        <path d="M109.84424,173.30098h-2.40625l-.69727-2.18066h-3.48633l-.69043,2.18066h-2.39258l3.56836-9.80273h2.61816l3.48633,9.80273ZM106.23486,169.425l-1.05273-3.29492c-.07764-.24609-.13232-.54004-.16406-.88184h-.05469c-.02295.28711-.07959.57178-.1709.85449l-1.06641,3.32227h2.50879Z" fill="#2f2f2f"/>
        <path d="M119.7627,173.30098h-2.22852l-4.04004-6.15918c-.23682-.35986-.40088-.63135-.49219-.81348h-.02734c.03662.34619.05469.875.05469,1.58594v5.38672h-2.08496v-9.80273h2.37891l3.88965,5.96777c.17773.26904.3418.53564.49219.7998h.02734c-.03662-.22803-.05469-.67676-.05469-1.34668v-5.4209h2.08496v9.80273Z" fill="#2f2f2f"/>
      </g>
      <g>
        <path d="M213.8833,87.45918l-3.37695,9.80273h-2.50195l-3.33594-9.80273h2.37891l2.04395,6.82227c.10938.36914.17529.69482.19824.97754h.04102c.03174-.30518.10254-.64014.21191-1.00488l2.03027-6.79492h2.31055Z" fill="#2f2f2f"/>
        <path d="M217.54346,97.43281c-1.1665,0-2.08398-.32715-2.75146-.98096s-1.00146-1.5415-1.00146-2.6626c0-1.15771.34619-2.06348,1.03906-2.71729s1.62939-.98096,2.80957-.98096c1.16211,0,2.07373.32715,2.73438.98096s.99121,1.51855.99121,2.59424c0,1.16211-.34082,2.08057-1.02197,2.75488s-1.61426,1.01172-2.79932,1.01172ZM217.59814,91.74531c-.51025,0-.90674.17529-1.18945.52637s-.42383.84766-.42383,1.49023c0,1.34424.54248,2.0166,1.62695,2.0166,1.03467,0,1.55176-.69043,1.55176-2.07129,0-1.30811-.52197-1.96191-1.56543-1.96191Z" fill="#2f2f2f"/>
        <path d="M224.92041,97.26191h-2.16016v-10.36328h2.16016v10.36328Z" fill="#2f2f2f"/>
        <path d="M233.37744,97.26191h-2.15332v-1.06641h-.03418c-.5332.82471-1.24658,1.2373-2.13965,1.2373-1.62256,0-2.43359-.98193-2.43359-2.94629v-4.22461h2.15332v4.0332c0,.98877.39209,1.4834,1.17578,1.4834.38721,0,.69727-.13574.92969-.40674s.34863-.63916.34863-1.104v-4.00586h2.15332v7Z" fill="#2f2f2f"/>
        <path d="M246.26074,97.26191h-2.15332v-3.99219c0-1.01611-.37354-1.52441-1.12109-1.52441-.35547,0-.64502.15283-.86816.45801s-.33496.68604-.33496,1.1416v3.91699h-2.16016v-4.0332c0-.98877-.3667-1.4834-1.10059-1.4834-.36914,0-.66406.146-.88525.4375s-.33154.68799-.33154,1.18945v3.88965h-2.16016v-7h2.16016v1.09375h.02734c.22314-.37354.53662-.67773.93994-.9126s.84424-.35205,1.32275-.35205c.98877,0,1.66553.43506,2.03027,1.30566.5332-.87061,1.31689-1.30566,2.35156-1.30566,1.52197,0,2.2832.93896,2.2832,2.81641v4.35449Z" fill="#2f2f2f"/>
        <path d="M254.28125,94.37715h-4.56641c.07275,1.01611.71338,1.52441,1.9209,1.52441.77002,0,1.44678-.18213,2.03027-.54688v1.55859c-.64697.34619-1.48779.51953-2.52246.51953-1.13037,0-2.00732-.31348-2.63184-.93994s-.93652-1.50049-.93652-2.62158c0-1.16211.3374-2.08252,1.01172-2.76172s1.50391-1.01855,2.48828-1.01855c1.021,0,1.81055.30322,2.36865.90918s.8374,1.42871.8374,2.46777v.90918ZM252.27832,93.05098c0-1.00244-.40576-1.50391-1.2168-1.50391-.34619,0-.646.14355-.89893.43066s-.40674.64502-.46143,1.07324h2.57715Z" fill="#2f2f2f"/>
        <path d="M266.29199,96.46211c0,1.29883-.37598,2.30469-1.12793,3.01807s-1.84131,1.06982-3.26758,1.06982c-.94336,0-1.69092-.13428-2.24219-.40332v-1.81836c.72021.41943,1.44678.62891,2.18066.62891.729,0,1.29443-.19238,1.69531-.57764s.60156-.9082.60156-1.56885v-.55371h-.02734c-.49219.78369-1.21924,1.17578-2.18066,1.17578-.89307,0-1.60205-.31445-2.12598-.94336s-.78613-1.47217-.78613-2.5293c0-1.18506.2915-2.12598.875-2.82324s1.35107-1.0459,2.30371-1.0459c.85205,0,1.49023.32812,1.91406.98438h.02734v-.81348h2.16016v6.2002ZM264.15918,93.89863v-.55371c0-.44189-.13086-.81934-.39307-1.13135s-.60254-.46826-1.02197-.46826c-.47852,0-.85449.18701-1.12793.56055s-.41016.8999-.41016,1.5791c0,.5835.12988,1.04492.38965,1.38428s.61523.50928,1.06641.50928c.44678,0,.80762-.17188,1.0835-.51611s.41357-.79883.41357-1.36377Z" fill="#2f2f2f"/>
        <path d="M272.61816,92.21016c-.25977-.14111-.56299-.21191-.90918-.21191-.46924,0-.83643.17188-1.10059.51611s-.39648.8125-.39648,1.40479v3.34277h-2.16016v-7h2.16016v1.29883h.02734c.3418-.94775.95703-1.42188,1.8457-1.42188.22803,0,.40576.02734.5332.08203v1.98926Z" fill="#2f2f2f"/>
        <path d="M277.04443,97.43281c-1.1665,0-2.08398-.32715-2.75146-.98096s-1.00146-1.5415-1.00146-2.6626c0-1.15771.34619-2.06348,1.03906-2.71729s1.62939-.98096,2.80957-.98096c1.16211,0,2.07373.32715,2.73438.98096s.99121,1.51855.99121,2.59424c0,1.16211-.34082,2.08057-1.02197,2.75488s-1.61426,1.01172-2.79932,1.01172ZM277.09912,91.74531c-.51025,0-.90674.17529-1.18945.52637s-.42383.84766-.42383,1.49023c0,1.34424.54248,2.0166,1.62695,2.0166,1.03467,0,1.55176-.69043,1.55176-2.07129,0-1.30811-.52197-1.96191-1.56543-1.96191Z" fill="#2f2f2f"/>
        <path d="M288.89893,97.26191h-2.15332v-1.06641h-.03418c-.5332.82471-1.24658,1.2373-2.13965,1.2373-1.62256,0-2.43359-.98193-2.43359-2.94629v-4.22461h2.15332v4.0332c0,.98877.39209,1.4834,1.17578,1.4834.38721,0,.69727-.13574.92969-.40674s.34863-.63916.34863-1.104v-4.00586h2.15332v7Z" fill="#2f2f2f"/>
        <path d="M292.85449,96.44844h-.02734v4.0332h-2.16016v-10.21973h2.16016v1.05273h.02734c.5332-.81592,1.28271-1.22363,2.24902-1.22363.90674,0,1.60742.31104,2.10205.93311s.7417,1.46875.7417,2.53955c0,1.1665-.28809,2.10303-.86475,2.80957s-1.34326,1.05957-2.30029,1.05957c-.84326,0-1.48584-.32812-1.92773-.98438ZM292.79297,93.57734v.56055c0,.48291.12744.87744.38281,1.18262s.59033.45801,1.00488.45801c.49219,0,.87402-.19043,1.14502-.5708s.40674-.91943.40674-1.6167c0-1.23047-.47852-1.8457-1.43555-1.8457-.44189,0-.80322.16748-1.0835.50244s-.42041.77832-.42041,1.32959Z" fill="#2f2f2f"/>
      </g>
      <g>
        <path d="M213.8833,139.79756l-3.37695,9.80273h-2.50195l-3.33594-9.80273h2.37891l2.04395,6.82227c.10938.36914.17529.69482.19824.97754h.04102c.03174-.30518.10254-.64014.21191-1.00488l2.03027-6.79492h2.31055Z" fill="#2f2f2f"/>
        <path d="M217.54346,149.77119c-1.1665,0-2.08398-.32715-2.75146-.98096s-1.00146-1.5415-1.00146-2.6626c0-1.15771.34619-2.06348,1.03906-2.71729s1.62939-.98096,2.80957-.98096c1.16211,0,2.07373.32715,2.73438.98096s.99121,1.51855.99121,2.59424c0,1.16211-.34082,2.08057-1.02197,2.75488s-1.61426,1.01172-2.79932,1.01172ZM217.59814,144.08369c-.51025,0-.90674.17529-1.18945.52637s-.42383.84766-.42383,1.49023c0,1.34424.54248,2.0166,1.62695,2.0166,1.03467,0,1.55176-.69043,1.55176-2.07129,0-1.30811-.52197-1.96191-1.56543-1.96191Z" fill="#2f2f2f"/>
        <path d="M224.92041,149.60029h-2.16016v-10.36328h2.16016v10.36328Z" fill="#2f2f2f"/>
        <path d="M233.37744,149.60029h-2.15332v-1.06641h-.03418c-.5332.82471-1.24658,1.2373-2.13965,1.2373-1.62256,0-2.43359-.98193-2.43359-2.94629v-4.22461h2.15332v4.0332c0,.98877.39209,1.4834,1.17578,1.4834.38721,0,.69727-.13574.92969-.40674s.34863-.63916.34863-1.104v-4.00586h2.15332v7Z" fill="#2f2f2f"/>
        <path d="M246.26074,149.60029h-2.15332v-3.99219c0-1.01611-.37354-1.52441-1.12109-1.52441-.35547,0-.64502.15283-.86816.45801s-.33496.68604-.33496,1.1416v3.91699h-2.16016v-4.0332c0-.98877-.3667-1.4834-1.10059-1.4834-.36914,0-.66406.146-.88525.4375s-.33154.68799-.33154,1.18945v3.88965h-2.16016v-7h2.16016v1.09375h.02734c.22314-.37354.53662-.67773.93994-.9126s.84424-.35205,1.32275-.35205c.98877,0,1.66553.43506,2.03027,1.30566.5332-.87061,1.31689-1.30566,2.35156-1.30566,1.52197,0,2.2832.93896,2.2832,2.81641v4.35449Z" fill="#2f2f2f"/>
        <path d="M254.28125,146.71553h-4.56641c.07275,1.01611.71338,1.52441,1.9209,1.52441.77002,0,1.44678-.18213,2.03027-.54688v1.55859c-.64697.34619-1.48779.51953-2.52246.51953-1.13037,0-2.00732-.31348-2.63184-.93994s-.93652-1.50049-.93652-2.62158c0-1.16211.3374-2.08252,1.01172-2.76172s1.50391-1.01855,2.48828-1.01855c1.021,0,1.81055.30322,2.36865.90918s.8374,1.42871.8374,2.46777v.90918ZM252.27832,145.38936c0-1.00244-.40576-1.50391-1.2168-1.50391-.34619,0-.646.14355-.89893.43066s-.40674.64502-.46143,1.07324h2.57715Z" fill="#2f2f2f"/>
      </g>
      <g>
        <path d="M232.95459,191.66133v-9.80273h2.70703c3.45459,0,5.18164,1.59277,5.18164,4.77832,0,1.51318-.47949,2.72852-1.43896,3.64697s-2.24316,1.37744-3.85205,1.37744h-2.59766ZM234.10303,182.89766v7.72461h1.46289c1.28516,0,2.28564-.34424,3.00098-1.03223s1.07324-1.66357,1.07324-2.92578c0-2.51123-1.33545-3.7666-4.00586-3.7666h-1.53125Z" fill="#2f2f2f"/>
        <path d="M247.47461,191.66133h-1.12109v-1.09375h-.02734c-.48779.83838-1.20557,1.25781-2.15332,1.25781-.69727,0-1.24316-.18457-1.63721-.55371s-.59131-.85889-.59131-1.46973c0-1.30811.77002-2.06885,2.31055-2.2832l2.09863-.29395c0-1.18945-.48096-1.78418-1.44238-1.78418-.84326,0-1.604.28711-2.2832.86133v-1.14844c.68799-.4375,1.48096-.65625,2.37891-.65625,1.64502,0,2.46777.87061,2.46777,2.61133v4.55273ZM246.35352,188.12031l-1.68848.23242c-.51953.07275-.91162.20166-1.17578.38623s-.39648.51172-.39648.98096c0,.3418.12207.62109.36572.8374s.56836.32471.97412.32471c.55615,0,1.01514-.19482,1.37744-.58447s.54346-.88281.54346-1.47998v-.69727Z" fill="#2f2f2f"/>
        <path d="M252.73291,191.59297c-.26416.146-.61279.21875-1.0459.21875-1.22607,0-1.83887-.68359-1.83887-2.05078v-4.14258h-1.20312v-.95703h1.20312v-1.70898l1.12109-.3623v2.07129h1.76367v.95703h-1.76367v3.94434c0,.46924.07959.8042.23926,1.00488s.42383.30078.79297.30078c.28271,0,.52637-.07764.73145-.23242v.95703Z" fill="#2f2f2f"/>
        <path d="M259.3501,191.66133h-1.12109v-1.09375h-.02734c-.48779.83838-1.20557,1.25781-2.15332,1.25781-.69727,0-1.24316-.18457-1.63721-.55371s-.59131-.85889-.59131-1.46973c0-1.30811.77002-2.06885,2.31055-2.2832l2.09863-.29395c0-1.18945-.48096-1.78418-1.44238-1.78418-.84326,0-1.604.28711-2.2832.86133v-1.14844c.68799-.4375,1.48096-.65625,2.37891-.65625,1.64502,0,2.46777.87061,2.46777,2.61133v4.55273ZM258.229,188.12031l-1.68848.23242c-.51953.07275-.91162.20166-1.17578.38623s-.39648.51172-.39648.98096c0,.3418.12207.62109.36572.8374s.56836.32471.97412.32471c.55615,0,1.01514-.19482,1.37744-.58447s.54346-.88281.54346-1.47998v-.69727Z" fill="#2f2f2f"/>
        <path d="M268.94775,185.79609c-.1958-.15039-.47852-.22559-.84766-.22559-.47852,0-.87842.22559-1.19971.67676s-.48193,1.06641-.48193,1.8457v3.56836h-1.12109v-7h1.12109v1.44238h.02734c.15967-.49219.40332-.87598.73145-1.15186s.69482-.41357,1.10059-.41357c.2915,0,.51514.03174.66992.0957v1.16211Z" fill="#2f2f2f"/>
        <path d="M275.79053,188.4416h-4.94238c.01807.7793.22803,1.38086.62891,1.80469s.95264.63574,1.6543.63574c.78857,0,1.51318-.25977,2.17383-.7793v1.05273c-.61523.44678-1.42871.66992-2.44043.66992-.98877,0-1.76611-.31787-2.33105-.95361s-.84766-1.53027-.84766-2.68311c0-1.08936.30859-1.97656.92627-2.6626s1.38428-1.02881,2.30029-1.02881,1.62451.29639,2.12598.88867.75195,1.41504.75195,2.46777v.58789ZM274.64209,187.49141c-.00439-.64697-.16064-1.15088-.46826-1.51074s-.73486-.54004-1.28174-.54004c-.52881,0-.97754.18896-1.34668.56738s-.59717.87256-.68359,1.4834h3.78027Z" fill="#2f2f2f"/>
        <path d="M278.62158,190.64961h-.02734v4.23145h-1.12109v-10.21973h1.12109v1.23047h.02734c.55127-.92969,1.35791-1.39453,2.41992-1.39453.90234,0,1.60645.31348,2.1123.93994s.75879,1.46631.75879,2.51904c0,1.17139-.28467,2.10889-.85449,2.81299s-1.34912,1.05615-2.33789,1.05615c-.90674,0-1.60645-.39209-2.09863-1.17578ZM278.59424,187.82637v.97754c0,.57861.18799,1.06982.56396,1.47314s.85352.60498,1.43213.60498c.6792,0,1.21094-.25977,1.59619-.7793s.57764-1.2417.57764-2.16699c0-.7793-.18018-1.39014-.54004-1.83203s-.84766-.66309-1.46289-.66309c-.65186,0-1.17578.22656-1.57227.68018s-.59473,1.02197-.59473,1.70557Z" fill="#2f2f2f"/>
        <path d="M286.76318,191.66133h-1.12109v-10.36328h1.12109v10.36328Z" fill="#2f2f2f"/>
        <path d="M289.4502,182.88398c-.20068,0-.37158-.06836-.5127-.20508s-.21191-.31006-.21191-.51953.0708-.38379.21191-.52295.31201-.2085.5127-.2085c.20508,0,.37939.06934.52295.2085s.21533.31348.21533.52295c0,.20068-.07178.37158-.21533.5127s-.31787.21191-.52295.21191ZM289.99707,191.66133h-1.12109v-7h1.12109v7Z" fill="#2f2f2f"/>
        <path d="M296.90918,191.34004c-.5376.32373-1.17578.48535-1.91406.48535-.99805,0-1.80371-.32471-2.4165-.97412s-.91943-1.49121-.91943-2.52588c0-1.15283.33057-2.0791.99121-2.77881s1.54248-1.04932,2.64551-1.04932c.61523,0,1.15771.11377,1.62695.3418v1.14844c-.51953-.36475-1.07568-.54688-1.66797-.54688-.71533,0-1.30225.25635-1.76025.76904s-.68701,1.18604-.68701,2.02002c0,.82031.21533,1.46729.646,1.94141s1.0083.71094,1.73291.71094c.61084,0,1.18506-.20264,1.72266-.6084v1.06641Z" fill="#2f2f2f"/>
        <path d="M303.65332,191.66133h-1.12109v-1.09375h-.02734c-.48779.83838-1.20557,1.25781-2.15332,1.25781-.69727,0-1.24316-.18457-1.63721-.55371s-.59131-.85889-.59131-1.46973c0-1.30811.77002-2.06885,2.31055-2.2832l2.09863-.29395c0-1.18945-.48096-1.78418-1.44238-1.78418-.84326,0-1.604.28711-2.2832.86133v-1.14844c.68799-.4375,1.48096-.65625,2.37891-.65625,1.64502,0,2.46777.87061,2.46777,2.61133v4.55273ZM302.53223,188.12031l-1.68848.23242c-.51953.07275-.91162.20166-1.17578.38623s-.39648.51172-.39648.98096c0,.3418.12207.62109.36572.8374s.56836.32471.97412.32471c.55615,0,1.01514-.19482,1.37744-.58447s.54346-.88281.54346-1.47998v-.69727Z" fill="#2f2f2f"/>
      </g>
      <g>
        <path d="M453.2041,191.66133v-9.80273h2.70703c3.45459,0,5.18164,1.59277,5.18164,4.77832,0,1.51318-.47949,2.72852-1.43896,3.64697s-2.24316,1.37744-3.85205,1.37744h-2.59766ZM454.35254,182.89766v7.72461h1.46289c1.28516,0,2.28564-.34424,3.00098-1.03223s1.07324-1.66357,1.07324-2.92578c0-2.51123-1.33545-3.7666-4.00586-3.7666h-1.53125Z" fill="#2f2f2f"/>
        <path d="M467.72412,191.66133h-1.12109v-1.09375h-.02734c-.48779.83838-1.20557,1.25781-2.15332,1.25781-.69727,0-1.24316-.18457-1.63721-.55371s-.59131-.85889-.59131-1.46973c0-1.30811.77002-2.06885,2.31055-2.2832l2.09863-.29395c0-1.18945-.48096-1.78418-1.44238-1.78418-.84326,0-1.604.28711-2.2832.86133v-1.14844c.68799-.4375,1.48096-.65625,2.37891-.65625,1.64502,0,2.46777.87061,2.46777,2.61133v4.55273ZM466.60303,188.12031l-1.68848.23242c-.51953.07275-.91162.20166-1.17578.38623s-.39648.51172-.39648.98096c0,.3418.12207.62109.36572.8374s.56836.32471.97412.32471c.55615,0,1.01514-.19482,1.37744-.58447s.54346-.88281.54346-1.47998v-.69727Z" fill="#2f2f2f"/>
        <path d="M472.98242,191.59297c-.26416.146-.61279.21875-1.0459.21875-1.22607,0-1.83887-.68359-1.83887-2.05078v-4.14258h-1.20312v-.95703h1.20312v-1.70898l1.12109-.3623v2.07129h1.76367v.95703h-1.76367v3.94434c0,.46924.07959.8042.23926,1.00488s.42383.30078.79297.30078c.28271,0,.52637-.07764.73145-.23242v.95703Z" fill="#2f2f2f"/>
        <path d="M479.59961,191.66133h-1.12109v-1.09375h-.02734c-.48779.83838-1.20557,1.25781-2.15332,1.25781-.69727,0-1.24316-.18457-1.63721-.55371s-.59131-.85889-.59131-1.46973c0-1.30811.77002-2.06885,2.31055-2.2832l2.09863-.29395c0-1.18945-.48096-1.78418-1.44238-1.78418-.84326,0-1.604.28711-2.2832.86133v-1.14844c.68799-.4375,1.48096-.65625,2.37891-.65625,1.64502,0,2.46777.87061,2.46777,2.61133v4.55273ZM478.47852,188.12031l-1.68848.23242c-.51953.07275-.91162.20166-1.17578.38623s-.39648.51172-.39648.98096c0,.3418.12207.62109.36572.8374s.56836.32471.97412.32471c.55615,0,1.01514-.19482,1.37744-.58447s.54346-.88281.54346-1.47998v-.69727Z" fill="#2f2f2f"/>
        <path d="M489.19727,185.79609c-.1958-.15039-.47852-.22559-.84766-.22559-.47852,0-.87842.22559-1.19971.67676s-.48193,1.06641-.48193,1.8457v3.56836h-1.12109v-7h1.12109v1.44238h.02734c.15967-.49219.40332-.87598.73145-1.15186s.69482-.41357,1.10059-.41357c.2915,0,.51514.03174.66992.0957v1.16211Z" fill="#2f2f2f"/>
        <path d="M496.04004,188.4416h-4.94238c.01807.7793.22803,1.38086.62891,1.80469s.95264.63574,1.6543.63574c.78857,0,1.51318-.25977,2.17383-.7793v1.05273c-.61523.44678-1.42871.66992-2.44043.66992-.98877,0-1.76611-.31787-2.33105-.95361s-.84766-1.53027-.84766-2.68311c0-1.08936.30859-1.97656.92627-2.6626s1.38428-1.02881,2.30029-1.02881,1.62451.29639,2.12598.88867.75195,1.41504.75195,2.46777v.58789ZM494.8916,187.49141c-.00439-.64697-.16064-1.15088-.46826-1.51074s-.73486-.54004-1.28174-.54004c-.52881,0-.97754.18896-1.34668.56738s-.59717.87256-.68359,1.4834h3.78027Z" fill="#2f2f2f"/>
        <path d="M498.87109,190.64961h-.02734v4.23145h-1.12109v-10.21973h1.12109v1.23047h.02734c.55127-.92969,1.35791-1.39453,2.41992-1.39453.90234,0,1.60645.31348,2.1123.93994s.75879,1.46631.75879,2.51904c0,1.17139-.28467,2.10889-.85449,2.81299s-1.34912,1.05615-2.33789,1.05615c-.90674,0-1.60645-.39209-2.09863-1.17578ZM498.84375,187.82637v.97754c0,.57861.18799,1.06982.56396,1.47314s.85352.60498,1.43213.60498c.6792,0,1.21094-.25977,1.59619-.7793s.57764-1.2417.57764-2.16699c0-.7793-.18018-1.39014-.54004-1.83203s-.84766-.66309-1.46289-.66309c-.65186,0-1.17578.22656-1.57227.68018s-.59473,1.02197-.59473,1.70557Z" fill="#2f2f2f"/>
        <path d="M507.0127,191.66133h-1.12109v-10.36328h1.12109v10.36328Z" fill="#2f2f2f"/>
        <path d="M509.69971,182.88398c-.20068,0-.37158-.06836-.5127-.20508s-.21191-.31006-.21191-.51953.0708-.38379.21191-.52295.31201-.2085.5127-.2085c.20508,0,.37939.06934.52295.2085s.21533.31348.21533.52295c0,.20068-.07178.37158-.21533.5127s-.31787.21191-.52295.21191ZM510.24658,191.66133h-1.12109v-7h1.12109v7Z" fill="#2f2f2f"/>
        <path d="M517.15869,191.34004c-.5376.32373-1.17578.48535-1.91406.48535-.99805,0-1.80371-.32471-2.4165-.97412s-.91943-1.49121-.91943-2.52588c0-1.15283.33057-2.0791.99121-2.77881s1.54248-1.04932,2.64551-1.04932c.61523,0,1.15771.11377,1.62695.3418v1.14844c-.51953-.36475-1.07568-.54688-1.66797-.54688-.71533,0-1.30225.25635-1.76025.76904s-.68701,1.18604-.68701,2.02002c0,.82031.21533,1.46729.646,1.94141s1.0083.71094,1.73291.71094c.61084,0,1.18506-.20264,1.72266-.6084v1.06641Z" fill="#2f2f2f"/>
        <path d="M523.90283,191.66133h-1.12109v-1.09375h-.02734c-.48779.83838-1.20557,1.25781-2.15332,1.25781-.69727,0-1.24316-.18457-1.63721-.55371s-.59131-.85889-.59131-1.46973c0-1.30811.77002-2.06885,2.31055-2.2832l2.09863-.29395c0-1.18945-.48096-1.78418-1.44238-1.78418-.84326,0-1.604.28711-2.2832.86133v-1.14844c.68799-.4375,1.48096-.65625,2.37891-.65625,1.64502,0,2.46777.87061,2.46777,2.61133v4.55273ZM522.78174,188.12031l-1.68848.23242c-.51953.07275-.91162.20166-1.17578.38623s-.39648.51172-.39648.98096c0,.3418.12207.62109.36572.8374s.56836.32471.97412.32471c.55615,0,1.01514-.19482,1.37744-.58447s.54346-.88281.54346-1.47998v-.69727Z" fill="#2f2f2f"/>
      </g>
      <g>
        <path d="M673.2041,191.66133v-9.80273h2.70703c3.45459,0,5.18164,1.59277,5.18164,4.77832,0,1.51318-.47949,2.72852-1.43896,3.64697s-2.24316,1.37744-3.85205,1.37744h-2.59766ZM674.35254,182.89766v7.72461h1.46289c1.28516,0,2.28564-.34424,3.00098-1.03223s1.07324-1.66357,1.07324-2.92578c0-2.51123-1.33545-3.7666-4.00586-3.7666h-1.53125Z" fill="#2f2f2f"/>
        <path d="M687.72412,191.66133h-1.12109v-1.09375h-.02734c-.48779.83838-1.20557,1.25781-2.15332,1.25781-.69727,0-1.24316-.18457-1.63721-.55371s-.59131-.85889-.59131-1.46973c0-1.30811.77002-2.06885,2.31055-2.2832l2.09863-.29395c0-1.18945-.48096-1.78418-1.44238-1.78418-.84326,0-1.604.28711-2.2832.86133v-1.14844c.68799-.4375,1.48096-.65625,2.37891-.65625,1.64502,0,2.46777.87061,2.46777,2.61133v4.55273ZM686.60303,188.12031l-1.68848.23242c-.51953.07275-.91162.20166-1.17578.38623s-.39648.51172-.39648.98096c0,.3418.12207.62109.36572.8374s.56836.32471.97412.32471c.55615,0,1.01514-.19482,1.37744-.58447s.54346-.88281.54346-1.47998v-.69727Z" fill="#2f2f2f"/>
        <path d="M692.98242,191.59297c-.26416.146-.61279.21875-1.0459.21875-1.22607,0-1.83887-.68359-1.83887-2.05078v-4.14258h-1.20312v-.95703h1.20312v-1.70898l1.12109-.3623v2.07129h1.76367v.95703h-1.76367v3.94434c0,.46924.07959.8042.23926,1.00488s.42383.30078.79297.30078c.28271,0,.52637-.07764.73145-.23242v.95703Z" fill="#2f2f2f"/>
        <path d="M699.59961,191.66133h-1.12109v-1.09375h-.02734c-.48779.83838-1.20557,1.25781-2.15332,1.25781-.69727,0-1.24316-.18457-1.63721-.55371s-.59131-.85889-.59131-1.46973c0-1.30811.77002-2.06885,2.31055-2.2832l2.09863-.29395c0-1.18945-.48096-1.78418-1.44238-1.78418-.84326,0-1.604.28711-2.2832.86133v-1.14844c.68799-.4375,1.48096-.65625,2.37891-.65625,1.64502,0,2.46777.87061,2.46777,2.61133v4.55273ZM698.47852,188.12031l-1.68848.23242c-.51953.07275-.91162.20166-1.17578.38623s-.39648.51172-.39648.98096c0,.3418.12207.62109.36572.8374s.56836.32471.97412.32471c.55615,0,1.01514-.19482,1.37744-.58447s.54346-.88281.54346-1.47998v-.69727Z" fill="#2f2f2f"/>
        <path d="M709.19727,185.79609c-.1958-.15039-.47852-.22559-.84766-.22559-.47852,0-.87842.22559-1.19971.67676s-.48193,1.06641-.48193,1.8457v3.56836h-1.12109v-7h1.12109v1.44238h.02734c.15967-.49219.40332-.87598.73145-1.15186s.69482-.41357,1.10059-.41357c.2915,0,.51514.03174.66992.0957v1.16211Z" fill="#2f2f2f"/>
        <path d="M716.04004,188.4416h-4.94238c.01807.7793.22803,1.38086.62891,1.80469s.95264.63574,1.6543.63574c.78857,0,1.51318-.25977,2.17383-.7793v1.05273c-.61523.44678-1.42871.66992-2.44043.66992-.98877,0-1.76611-.31787-2.33105-.95361s-.84766-1.53027-.84766-2.68311c0-1.08936.30859-1.97656.92627-2.6626s1.38428-1.02881,2.30029-1.02881,1.62451.29639,2.12598.88867.75195,1.41504.75195,2.46777v.58789ZM714.8916,187.49141c-.00439-.64697-.16064-1.15088-.46826-1.51074s-.73486-.54004-1.28174-.54004c-.52881,0-.97754.18896-1.34668.56738s-.59717.87256-.68359,1.4834h3.78027Z" fill="#2f2f2f"/>
        <path d="M718.87109,190.64961h-.02734v4.23145h-1.12109v-10.21973h1.12109v1.23047h.02734c.55127-.92969,1.35791-1.39453,2.41992-1.39453.90234,0,1.60645.31348,2.1123.93994s.75879,1.46631.75879,2.51904c0,1.17139-.28467,2.10889-.85449,2.81299s-1.34912,1.05615-2.33789,1.05615c-.90674,0-1.60645-.39209-2.09863-1.17578ZM718.84375,187.82637v.97754c0,.57861.18799,1.06982.56396,1.47314s.85352.60498,1.43213.60498c.6792,0,1.21094-.25977,1.59619-.7793s.57764-1.2417.57764-2.16699c0-.7793-.18018-1.39014-.54004-1.83203s-.84766-.66309-1.46289-.66309c-.65186,0-1.17578.22656-1.57227.68018s-.59473,1.02197-.59473,1.70557Z" fill="#2f2f2f"/>
        <path d="M727.0127,191.66133h-1.12109v-10.36328h1.12109v10.36328Z" fill="#2f2f2f"/>
        <path d="M729.69971,182.88398c-.20068,0-.37158-.06836-.5127-.20508s-.21191-.31006-.21191-.51953.0708-.38379.21191-.52295.31201-.2085.5127-.2085c.20508,0,.37939.06934.52295.2085s.21533.31348.21533.52295c0,.20068-.07178.37158-.21533.5127s-.31787.21191-.52295.21191ZM730.24658,191.66133h-1.12109v-7h1.12109v7Z" fill="#2f2f2f"/>
        <path d="M737.15869,191.34004c-.5376.32373-1.17578.48535-1.91406.48535-.99805,0-1.80371-.32471-2.4165-.97412s-.91943-1.49121-.91943-2.52588c0-1.15283.33057-2.0791.99121-2.77881s1.54248-1.04932,2.64551-1.04932c.61523,0,1.15771.11377,1.62695.3418v1.14844c-.51953-.36475-1.07568-.54688-1.66797-.54688-.71533,0-1.30225.25635-1.76025.76904s-.68701,1.18604-.68701,2.02002c0,.82031.21533,1.46729.646,1.94141s1.0083.71094,1.73291.71094c.61084,0,1.18506-.20264,1.72266-.6084v1.06641Z" fill="#2f2f2f"/>
        <path d="M743.90283,191.66133h-1.12109v-1.09375h-.02734c-.48779.83838-1.20557,1.25781-2.15332,1.25781-.69727,0-1.24316-.18457-1.63721-.55371s-.59131-.85889-.59131-1.46973c0-1.30811.77002-2.06885,2.31055-2.2832l2.09863-.29395c0-1.18945-.48096-1.78418-1.44238-1.78418-.84326,0-1.604.28711-2.2832.86133v-1.14844c.68799-.4375,1.48096-.65625,2.37891-.65625,1.64502,0,2.46777.87061,2.46777,2.61133v4.55273ZM742.78174,188.12031l-1.68848.23242c-.51953.07275-.91162.20166-1.17578.38623s-.39648.51172-.39648.98096c0,.3418.12207.62109.36572.8374s.56836.32471.97412.32471c.55615,0,1.01514-.19482,1.37744-.58447s.54346-.88281.54346-1.47998v-.69727Z" fill="#2f2f2f"/>
      </g>
    </g>
  </g>
</svg>