<?xml version="1.0" encoding="UTF-8"?>
<svg xmlns="http://www.w3.org/2000/svg" width="496.83225" height="206.72342" xmlns:xlink="http://www.w3.org/1999/xlink" viewBox="0 0 496.83225 206.72342">
  <defs>
    <linearGradient id="Cool_gray_gradient_1" data-name="Cool gray gradient 1" x1="170.72414" y1="102.7301" x2="323.75169" y2="102.7301" gradientUnits="userSpaceOnUse">
      <stop offset="0" stop-color="#f5f5f4"/>
      <stop offset="1" stop-color="#ececea"/>
    </linearGradient>
    <linearGradient id="Cool_gray_gradient_1-2" data-name="Cool gray gradient 1" x1="334.00439" x2="487.03194" xlink:href="#Cool_gray_gradient_1"/>
    <linearGradient id="Cool_gray_gradient_1-3" data-name="Cool gray gradient 1" x1="8.18728" x2="161.21483" xlink:href="#Cool_gray_gradient_1"/>
    <linearGradient id="linear-gradient" x1="-486.45392" y1="167.00967" x2="-473.28555" y2="152.68926" gradientTransform="translate(564 396.92022) scale(1 -1.59)" gradientUnits="userSpaceOnUse">
      <stop offset="0" stop-color="#0078d4"/>
      <stop offset=".02" stop-color="#0d7ed8"/>
      <stop offset=".08" stop-color="#2b8ae0"/>
      <stop offset=".15" stop-color="#4194e7"/>
      <stop offset=".22" stop-color="#519beb"/>
      <stop offset=".29" stop-color="#5b9fee"/>
      <stop offset=".4" stop-color="#5ea0ef"/>
      <stop offset=".55" stop-color="#5b9fee"/>
      <stop offset=".68" stop-color="#509aeb"/>
      <stop offset=".8" stop-color="#3f92e6"/>
      <stop offset=".91" stop-color="#2688df"/>
      <stop offset=".99" stop-color="#127fd9"/>
    </linearGradient>
    <linearGradient id="linear-gradient-2" x1="-479.29894" y1="1028.83895" x2="-479.29894" y2="1049.0434" gradientTransform="translate(564 1101.2434) scale(1 -1)" gradientUnits="userSpaceOnUse">
      <stop offset="0" stop-color="#0078d4"/>
      <stop offset=".82" stop-color="#5ea0ef"/>
    </linearGradient>
    <linearGradient id="linear-gradient-3" x1="-479.29894" y1="1021.0434" x2="-479.29894" y2="1028.83895" gradientTransform="translate(564 1101.2434) scale(1 -1)" gradientUnits="userSpaceOnUse">
      <stop offset=".15" stop-color="#ccc"/>
      <stop offset="1" stop-color="#707070"/>
    </linearGradient>
    <linearGradient id="linear-gradient-4" x1="-323.91706" y1="167.00967" x2="-310.74869" y2="152.68926" xlink:href="#linear-gradient"/>
    <linearGradient id="linear-gradient-5" x1="-316.76209" x2="-316.76209" xlink:href="#linear-gradient-2"/>
    <linearGradient id="linear-gradient-6" x1="-316.76208" x2="-316.76208" xlink:href="#linear-gradient-3"/>
    <linearGradient id="linear-gradient-7" x1="-160.63681" x2="-147.46844" y2="152.68926" xlink:href="#linear-gradient"/>
    <linearGradient id="linear-gradient-8" x1="-153.48184" x2="-153.48184" xlink:href="#linear-gradient-2"/>
    <linearGradient id="linear-gradient-9" x1="-153.48184" x2="-153.48184" xlink:href="#linear-gradient-3"/>
  </defs>
  <g isolation="isolate">
    <g id="Shapes">
      <rect width="496.83225" height="206.72342" fill="#fff"/>
      <g>
        <g mix-blend-mode="multiply" opacity=".65">
          <rect x="171.72414" y="9.06019" width="153.02755" height="189.33981" rx="8" ry="8" fill="#2b436f"/>
          <rect x="171.72414" y="9.06019" width="153.02755" height="189.33981" rx="8" ry="8" fill="#2b436f" opacity=".4"/>
        </g>
        <g>
          <rect x="170.72414" y="8.06019" width="153.02755" height="189.33981" rx="8" ry="8" fill="url(#Cool_gray_gradient_1)"/>
          <rect x="170.72414" y="8.06019" width="153.02755" height="189.33981" rx="8" ry="8" fill="#8ec8e7" opacity=".4"/>
        </g>
      </g>
      <g>
        <g mix-blend-mode="multiply" opacity=".65">
          <rect x="335.00439" y="9.06019" width="153.02755" height="189.33981" rx="8" ry="8" fill="#2b436f"/>
          <rect x="335.00439" y="9.06019" width="153.02755" height="189.33981" rx="8" ry="8" fill="#2b436f" opacity=".4"/>
        </g>
        <g>
          <rect x="334.00439" y="8.06019" width="153.02755" height="189.33981" rx="8" ry="8" fill="url(#Cool_gray_gradient_1-2)"/>
          <rect x="334.00439" y="8.06019" width="153.02755" height="189.33981" rx="8" ry="8" fill="#8ec8e7" opacity=".4"/>
        </g>
      </g>
      <g>
        <g mix-blend-mode="multiply" opacity=".65">
          <rect x="9.18728" y="9.06019" width="153.02755" height="189.33981" rx="8" ry="8" fill="#2b436f"/>
          <rect x="9.18728" y="9.06019" width="153.02755" height="189.33981" rx="8" ry="8" fill="#2b436f" opacity=".4"/>
        </g>
        <g>
          <rect x="8.18728" y="8.06019" width="153.02755" height="189.33981" rx="8" ry="8" fill="url(#Cool_gray_gradient_1-3)"/>
          <rect x="8.18728" y="8.06019" width="153.02755" height="189.33981" rx="8" ry="8" fill="#8ec8e7" opacity=".4"/>
        </g>
      </g>
      <g>
        <ellipse cx="84.66561" cy="155.7902" rx="13.29243" ry="5.45876" fill="#76bc2d"/>
        <ellipse cx="85.00235" cy="155.73703" rx="4.41309" ry="1.20518" fill="#5e9624"/>
        <ellipse cx="84.66561" cy="143.68522" rx="13.29243" ry="5.45876" fill="url(#linear-gradient)"/>
        <ellipse cx="85.00235" cy="143.61433" rx="4.41309" ry="1.20518" fill="#005ba1"/>
        <path d="M84.7365,161.14262c7.35515,0,13.29243-2.44581,13.29243-5.45876h0v3.22563h0c-.24812,2.92433-6.0968,5.31697-13.29243,5.31697s-13.29243-2.44581-13.29243-5.45876v-3.08384c-.07089,3.01295,5.88412,5.45876,13.29243,5.45876Z" fill="#5e9624"/>
        <path d="M84.7365,149.01992c7.35515,0,13.29243-2.44581,13.29243-5.45876h0v3.22563h0c-.24812,2.92433-6.0968,5.31697-13.29243,5.31697s-13.29243-2.44581-13.29243-5.45876v-3.08384c-.07089,3.01295,5.88412,5.45876,13.29243,5.45876Z" fill="#0078d4"/>
      </g>
      <g>
        <rect x="69.54772" y="52.2" width="30.30667" height="20.20445" rx="1.01022" ry="1.01022" fill="url(#linear-gradient-2)"/>
        <polygon points="89.75217 59.35574 89.75217 65.23187 84.70106 68.19519 84.70106 62.30222 89.75217 59.35574" fill="#50e6ff"/>
        <polygon points="89.75217 59.35574 84.70106 62.31906 79.64994 59.35574 84.70106 56.40926 89.75217 59.35574" fill="#c3f1ff"/>
        <polygon points="84.70106 62.31906 84.70106 68.19519 79.64994 65.23187 79.64994 59.35574 84.70106 62.31906" fill="#9cebff"/>
        <polygon points="79.64994 65.23187 84.70106 62.30222 84.70106 68.19519 79.64994 65.23187" fill="#c3f1ff"/>
        <polygon points="89.75217 65.23187 84.70106 62.30222 84.70106 68.19519 89.75217 65.23187" fill="#9cebff"/>
        <path d="M90.77923,78.5163c-2.99699-.47144-3.11485-2.62658-3.11485-6.11185h-5.94347c0,3.48527-.10102,5.64041-3.09802,6.11185-.8569.09482-1.50373.82159-1.4985,1.6837h15.15334c.00523-.86211-.6416-1.58889-1.4985-1.6837Z" fill="url(#linear-gradient-3)"/>
      </g>
      <g>
        <line x1="84.70105" y1="131.4" x2="84.70105" y2="109.03663" fill="none" stroke="#3c3c41" stroke-miterlimit="10" stroke-width=".75"/>
        <polygon points="87.50586 109.85731 84.70105 105 81.89624 109.85731 87.50586 109.85731" fill="#3c3c41"/>
      </g>
      <g>
        <ellipse cx="247.20247" cy="155.7902" rx="13.29243" ry="5.45876" fill="#76bc2d"/>
        <ellipse cx="247.53921" cy="155.73703" rx="4.41309" ry="1.20518" fill="#5e9624"/>
        <ellipse cx="247.20247" cy="143.68522" rx="13.29243" ry="5.45876" fill="url(#linear-gradient-4)"/>
        <ellipse cx="247.53921" cy="143.61433" rx="4.41309" ry="1.20518" fill="#005ba1"/>
        <path d="M247.27336,161.14262c7.35515,0,13.29243-2.44581,13.29243-5.45876h0v3.22563h0c-.24812,2.92433-6.0968,5.31697-13.29243,5.31697s-13.29243-2.44581-13.29243-5.45876v-3.08384c-.07089,3.01295,5.88412,5.45876,13.29243,5.45876Z" fill="#5e9624"/>
        <path d="M247.27336,149.01992c7.35515,0,13.29243-2.44581,13.29243-5.45876h0v3.22563h0c-.24812,2.92433-6.0968,5.31697-13.29243,5.31697s-13.29243-2.44581-13.29243-5.45876v-3.08384c-.07089,3.01295,5.88412,5.45876,13.29243,5.45876Z" fill="#0078d4"/>
      </g>
      <g>
        <rect x="232.08458" y="52.2" width="30.30667" height="20.20445" rx="1.01022" ry="1.01022" fill="url(#linear-gradient-5)"/>
        <polygon points="252.28903 59.35574 252.28903 65.23187 247.23792 68.19519 247.23792 62.30222 252.28903 59.35574" fill="#50e6ff"/>
        <polygon points="252.28903 59.35574 247.23792 62.31906 242.1868 59.35574 247.23792 56.40926 252.28903 59.35574" fill="#c3f1ff"/>
        <polygon points="247.23792 62.31906 247.23792 68.19519 242.1868 65.23187 242.1868 59.35574 247.23792 62.31906" fill="#9cebff"/>
        <polygon points="242.1868 65.23187 247.23792 62.30222 247.23792 68.19519 242.1868 65.23187" fill="#c3f1ff"/>
        <polygon points="252.28903 65.23187 247.23792 62.30222 247.23792 68.19519 252.28903 65.23187" fill="#9cebff"/>
        <path d="M253.31609,78.5163c-2.99699-.47144-3.11485-2.62658-3.11485-6.11185h-5.94347c0,3.48527-.10102,5.64041-3.09802,6.11185-.8569.09482-1.50373.82159-1.4985,1.6837h15.15334c.00523-.86211-.6416-1.58889-1.4985-1.6837Z" fill="url(#linear-gradient-6)"/>
      </g>
      <g>
        <line x1="247.23791" y1="131.4" x2="247.23791" y2="109.03663" fill="none" stroke="#3c3c41" stroke-miterlimit="10" stroke-width=".75"/>
        <polygon points="250.04272 109.85731 247.23791 105 244.4331 109.85731 250.04272 109.85731" fill="#3c3c41"/>
      </g>
      <g>
        <ellipse cx="410.48272" cy="155.7902" rx="13.29243" ry="5.45876" fill="#76bc2d"/>
        <ellipse cx="410.81946" cy="155.73703" rx="4.41309" ry="1.20518" fill="#5e9624"/>
        <ellipse cx="410.48272" cy="143.68522" rx="13.29243" ry="5.45876" fill="url(#linear-gradient-7)"/>
        <ellipse cx="410.81946" cy="143.61433" rx="4.41309" ry="1.20518" fill="#005ba1"/>
        <path d="M410.55361,161.14262c7.35515,0,13.29243-2.44581,13.29243-5.45876h0v3.22563h0c-.24812,2.92433-6.0968,5.31697-13.29243,5.31697s-13.29243-2.44581-13.29243-5.45876v-3.08384c-.07089,3.01295,5.88412,5.45876,13.29243,5.45876Z" fill="#5e9624"/>
        <path d="M410.55361,149.01992c7.35515,0,13.29243-2.44581,13.29243-5.45876h0v3.22563h0c-.24812,2.92433-6.0968,5.31697-13.29243,5.31697s-13.29243-2.44581-13.29243-5.45876v-3.08384c-.07089,3.01295,5.88412,5.45876,13.29243,5.45876Z" fill="#0078d4"/>
      </g>
      <g>
        <rect x="395.36483" y="52.2" width="30.30667" height="20.20445" rx="1.01022" ry="1.01022" fill="url(#linear-gradient-8)"/>
        <polygon points="415.56928 59.35574 415.56928 65.23187 410.51816 68.19519 410.51816 62.30222 415.56928 59.35574" fill="#50e6ff"/>
        <polygon points="415.56928 59.35574 410.51816 62.31906 405.46705 59.35574 410.51816 56.40926 415.56928 59.35574" fill="#c3f1ff"/>
        <polygon points="410.51816 62.31906 410.51816 68.19519 405.46705 65.23187 405.46705 59.35574 410.51816 62.31906" fill="#9cebff"/>
        <polygon points="405.46705 65.23187 410.51816 62.30222 410.51816 68.19519 405.46705 65.23187" fill="#c3f1ff"/>
        <polygon points="415.56928 65.23187 410.51816 62.30222 410.51816 68.19519 415.56928 65.23187" fill="#9cebff"/>
        <path d="M416.59634,78.5163c-2.99699-.47144-3.11485-2.62658-3.11485-6.11185h-5.94347c0,3.48527-.10102,5.64041-3.09802,6.11185-.8569.09482-1.50373.82159-1.4985,1.6837h15.15334c.00523-.86211-.6416-1.58889-1.4985-1.6837Z" fill="url(#linear-gradient-9)"/>
      </g>
      <g>
        <line x1="410.51816" y1="131.4" x2="410.51816" y2="109.03663" fill="none" stroke="#3c3c41" stroke-miterlimit="10" stroke-width=".75"/>
        <polygon points="413.32297 109.85731 410.51816 105 407.71335 109.85731 413.32297 109.85731" fill="#3c3c41"/>
      </g>
    </g>
    <g id="Text">
      <g>
        <path d="M73.09948,182.19982v-9.80273h2.70703c3.4541,0,5.18164,1.59277,5.18164,4.77832,0,1.51318-.47949,2.72852-1.43945,3.64697-.95898.91846-2.24316,1.37744-3.85156,1.37744h-2.59766ZM74.24792,173.43615v7.72461h1.46289c1.28516,0,2.28516-.34424,3.00098-1.03223s1.07324-1.66357,1.07324-2.92578c0-2.51123-1.33496-3.7666-4.00586-3.7666h-1.53125Z" fill="#2f2f2f"/>
        <path d="M83.27526,173.42248c-.2002,0-.37109-.06836-.5127-.20508s-.21191-.31006-.21191-.51953.07031-.38379.21191-.52295.3125-.2085.5127-.2085c.20508,0,.37891.06934.52344.2085.14258.13916.21484.31348.21484.52295,0,.20068-.07227.37158-.21484.5127-.14453.14111-.31836.21191-.52344.21191ZM83.82214,182.19982h-1.12109v-7h1.12109v7Z" fill="#2f2f2f"/>
        <path d="M85.53893,181.94689v-1.20312c.61035.45117,1.2832.67676,2.0166.67676.98438,0,1.47656-.32812,1.47656-.98438,0-.18701-.04199-.34521-.12598-.4751-.08496-.12988-.19922-.24512-.3418-.34521-.14453-.1001-.3125-.19043-.50586-.27002-.19434-.07959-.40234-.16309-.62598-.24951-.30957-.12305-.58203-.24707-.81738-.37256-.23438-.12549-.42969-.2666-.58789-.42383-.15625-.15723-.27539-.33594-.35547-.53662-.0791-.20068-.11914-.43506-.11914-.7041,0-.32812.0752-.61865.22559-.87158s.35059-.46484.60156-.63574.53613-.2998.8584-.38623c.32031-.08643.65234-.12988.99414-.12988.60645,0,1.14844.10498,1.62695.31445v1.13477c-.51465-.3374-1.10742-.50586-1.77734-.50586-.20996,0-.39844.02393-.56738.07178s-.31348.11523-.43457.20166c-.12012.08643-.21387.19043-.2793.31104-.06641.12061-.09961.25391-.09961.3999,0,.18213.0332.33496.09961.45801.06543.12305.16211.23242.29004.32812s.28223.18213.46484.25977.38965.16162.62207.25293c.30957.11865.58789.24023.83398.36572s.45605.2666.62891.42383.30664.33838.40039.54346c.09277.20508.13965.44873.13965.73145,0,.34619-.07617.64697-.22949.90234-.15234.25537-.35645.46729-.61133.63574s-.54883.29395-.88184.37598-.68164.12305-1.0459.12305c-.71973,0-1.34473-.13916-1.87305-.41699Z" fill="#2f2f2f"/>
        <path d="M97.57507,182.19982h-1.57227l-3.08984-3.36328h-.02734v3.36328h-1.12109v-10.36328h1.12109v6.56934h.02734l2.93945-3.20605h1.46973l-3.24707,3.37695,3.5,3.62305Z" fill="#2f2f2f"/>
      </g>
      <g>
        <path d="M33.16247,32.62951h-2.40625l-.69727-2.18066h-3.48633l-.69043,2.18066h-2.39258l3.56836-9.80273h2.61816l3.48633,9.80273ZM29.55309,28.75354l-1.05273-3.29492c-.07764-.24609-.13232-.54004-.16406-.88184h-.05469c-.02295.28711-.07959.57178-.1709.85449l-1.06641,3.32227h2.50879Z" fill="#2f2f2f"/>
        <path d="M40.52722,25.62951l-2.60449,7h-2.46094l-2.48145-7h2.31055l1.2168,4.31348c.13672.48779.21631.90234.23926,1.24414h.02734c.03174-.32373.11621-.72461.25293-1.20312l1.24414-4.35449h2.25586Z" fill="#2f2f2f"/>
        <path d="M47.18298,32.62951h-2.04395v-1.00488h-.02734c-.46924.78369-1.16455,1.17578-2.08496,1.17578-.6792,0-1.21338-.19238-1.60303-.57764s-.58447-.89893-.58447-1.5415c0-1.35791.8042-2.14209,2.41309-2.35156l1.90039-.25293c0-.76562-.41455-1.14844-1.24414-1.14844-.83398,0-1.62695.24854-2.37891.74512v-1.62695c.30078-.15479.71191-.2915,1.23389-.41016s.99707-.17773,1.42529-.17773c1.99609,0,2.99414.99561,2.99414,2.9873v4.18359ZM45.1527,29.78576v-.47168l-1.27148.16406c-.70166.09131-1.05273.40771-1.05273.9502,0,.24609.08545.44775.25635.60498s.40234.23584.69385.23584c.40576,0,.73584-.14014.99121-.42041s.38281-.63477.38281-1.06299Z" fill="#2f2f2f"/>
        <path d="M49.95349,24.52209c-.36475,0-.66309-.1084-.89551-.32471s-.34863-.48193-.34863-.79639c0-.32373.11621-.58789.34863-.79297s.53076-.30762.89551-.30762c.36914,0,.66895.10254.89893.30762s.34521.46924.34521.79297c0,.32812-.11523.59717-.34521.80664s-.52979.31445-.89893.31445ZM51.01989,32.62951h-2.16016v-7h2.16016v7Z" fill="#2f2f2f"/>
        <path d="M54.95495,32.62951h-2.16016v-10.36328h2.16016v10.36328Z" fill="#2f2f2f"/>
        <path d="M62.61999,32.62951h-2.04395v-1.00488h-.02734c-.46924.78369-1.16455,1.17578-2.08496,1.17578-.6792,0-1.21338-.19238-1.60303-.57764s-.58447-.89893-.58447-1.5415c0-1.35791.8042-2.14209,2.41309-2.35156l1.90039-.25293c0-.76562-.41455-1.14844-1.24414-1.14844-.83398,0-1.62695.24854-2.37891.74512v-1.62695c.30078-.15479.71191-.2915,1.23389-.41016s.99707-.17773,1.42529-.17773c1.99609,0,2.99414.99561,2.99414,2.9873v4.18359ZM60.58972,29.78576v-.47168l-1.27148.16406c-.70166.09131-1.05273.40771-1.05273.9502,0,.24609.08545.44775.25635.60498s.40234.23584.69385.23584c.40576,0,.73584-.14014.99121-.42041s.38281-.63477.38281-1.06299Z" fill="#2f2f2f"/>
        <path d="M66.50378,31.81604h-.02734v.81348h-2.16016v-10.36328h2.16016v4.41602h.02734c.5332-.81592,1.29199-1.22363,2.27637-1.22363.90234,0,1.59717.31006,2.08496.92969s.73145,1.46729.73145,2.54297c0,1.1665-.28467,2.10303-.85449,2.80957s-1.33057,1.05957-2.2832,1.05957c-.86133,0-1.51318-.32812-1.95508-.98438ZM66.44226,28.86291v.71777c0,.45117.12988.82471.38965,1.12109s.59229.44434.99805.44434c.49219,0,.87402-.19043,1.14502-.5708s.40674-.91943.40674-1.6167c0-.57861-.12402-1.03125-.37256-1.35693s-.60254-.48877-1.06299-.48877c-.43311,0-.79199.16162-1.07666.48535s-.42725.74512-.42725,1.26465Z" fill="#2f2f2f"/>
        <path d="M74.09167,24.52209c-.36475,0-.66309-.1084-.89551-.32471s-.34863-.48193-.34863-.79639c0-.32373.11621-.58789.34863-.79297s.53076-.30762.89551-.30762c.36914,0,.66895.10254.89893.30762s.34521.46924.34521.79297c0,.32812-.11523.59717-.34521.80664s-.52979.31445-.89893.31445ZM75.15808,32.62951h-2.16016v-7h2.16016v7Z" fill="#2f2f2f"/>
        <path d="M79.09362,32.62951h-2.16016v-10.36328h2.16016v10.36328Z" fill="#2f2f2f"/>
        <path d="M81.96227,24.52209c-.36475,0-.66309-.1084-.89551-.32471s-.34863-.48193-.34863-.79639c0-.32373.11621-.58789.34863-.79297s.53076-.30762.89551-.30762c.36914,0,.66895.10254.89893.30762s.34521.46924.34521.79297c0,.32812-.11523.59717-.34521.80664s-.52979.31445-.89893.31445ZM83.02868,32.62951h-2.16016v-7h2.16016v7Z" fill="#2f2f2f"/>
        <path d="M88.96472,32.54748c-.31885.16846-.7998.25293-1.44238.25293-1.52197,0-2.2832-.79053-2.2832-2.37207v-3.20605h-1.13477v-1.59277h1.13477v-1.51074l2.15332-.61523v2.12598h1.57227v1.59277h-1.57227v2.83008c0,.729.28955,1.09375.86816,1.09375.22803,0,.4624-.06592.7041-.19824v1.59961Z" fill="#2f2f2f"/>
        <path d="M97.18981,25.62951l-2.84375,7.56055c-.68359,1.81836-1.71338,2.72754-3.08984,2.72754-.52393,0-.95459-.05908-1.29199-.17773v-1.72266c.28711.16846.59912.25293.93652.25293.55615,0,.94336-.26221,1.16211-.78613l.36914-.86816-2.84375-6.98633h2.39258l1.30566,4.25879c.08203.26416.146.57666.19141.93652h.02734c.04102-.26416.11621-.57178.22559-.92285l1.31934-4.27246h2.13965Z" fill="#2f2f2f"/>
        <path d="M109.18688,32.62951h-7.89551v-1.27148l5.02441-6.7334h-4.66211v-1.79785h7.51953v1.2373l-4.91504,6.77441h4.92871v1.79102Z" fill="#2f2f2f"/>
        <path d="M113.70544,32.80041c-1.1665,0-2.08398-.32715-2.75146-.98096s-1.00146-1.5415-1.00146-2.6626c0-1.15771.34619-2.06348,1.03906-2.71729s1.62939-.98096,2.80957-.98096c1.16211,0,2.07373.32715,2.73438.98096s.99121,1.51855.99121,2.59424c0,1.16211-.34082,2.08057-1.02197,2.75488s-1.61426,1.01172-2.79932,1.01172ZM113.76013,27.11291c-.51025,0-.90674.17529-1.18945.52637s-.42383.84766-.42383,1.49023c0,1.34424.54248,2.0166,1.62695,2.0166,1.03467,0,1.55176-.69043,1.55176-2.07129,0-1.30811-.52197-1.96191-1.56543-1.96191Z" fill="#2f2f2f"/>
        <path d="M125.66784,32.62951h-2.15332v-3.88965c0-1.08447-.38721-1.62695-1.16211-1.62695-.37354,0-.68115.14355-.92285.43066s-.3623.65186-.3623,1.09375v3.99219h-2.16016v-7h2.16016v1.10742h.02734c.51514-.85205,1.26465-1.27832,2.24902-1.27832,1.54932,0,2.32422.96143,2.32422,2.88477v4.28613Z" fill="#2f2f2f"/>
        <path d="M133.68981,29.74475h-4.56641c.07275,1.01611.71338,1.52441,1.9209,1.52441.77002,0,1.44678-.18213,2.03027-.54688v1.55859c-.64697.34619-1.48779.51953-2.52246.51953-1.13037,0-2.00732-.31348-2.63184-.93994s-.93652-1.50049-.93652-2.62158c0-1.16211.3374-2.08252,1.01172-2.76172s1.50391-1.01855,2.48828-1.01855c1.021,0,1.81055.30322,2.36865.90918s.8374,1.42871.8374,2.46777v.90918ZM131.68688,28.41857c0-1.00244-.40576-1.50391-1.2168-1.50391-.34619,0-.646.14355-.89893.43066s-.40674.64502-.46143,1.07324h2.57715Z" fill="#2f2f2f"/>
        <path d="M143.61559,22.60803v10.02148h-2.15332v-7.58789c-.11865.10498-.25879.2041-.42041.29736s-.33398.17773-.51611.25293-.37158.13916-.56738.19141-.38965.08984-.58105.11279v-1.81836c.56055-.16406,1.08936-.37354,1.58594-.62891s.9458-.53564,1.34668-.84082h1.30566Z" fill="#2f2f2f"/>
      </g>
      <g>
        <path d="M195.69909,32.62951h-2.40625l-.69727-2.18066h-3.48633l-.69043,2.18066h-2.39258l3.56836-9.80273h2.61816l3.48633,9.80273ZM192.08972,28.75354l-1.05273-3.29492c-.07764-.24609-.13232-.54004-.16406-.88184h-.05469c-.02295.28711-.07959.57178-.1709.85449l-1.06641,3.32227h2.50879Z" fill="#2f2f2f"/>
        <path d="M203.06384,25.62951l-2.60449,7h-2.46094l-2.48145-7h2.31055l1.2168,4.31348c.13672.48779.21631.90234.23926,1.24414h.02734c.03174-.32373.11621-.72461.25293-1.20312l1.24414-4.35449h2.25586Z" fill="#2f2f2f"/>
        <path d="M209.7196,32.62951h-2.04395v-1.00488h-.02734c-.46924.78369-1.16455,1.17578-2.08496,1.17578-.6792,0-1.21338-.19238-1.60303-.57764s-.58447-.89893-.58447-1.5415c0-1.35791.8042-2.14209,2.41309-2.35156l1.90039-.25293c0-.76562-.41455-1.14844-1.24414-1.14844-.83398,0-1.62695.24854-2.37891.74512v-1.62695c.30078-.15479.71191-.2915,1.23389-.41016s.99707-.17773,1.42529-.17773c1.99609,0,2.99414.99561,2.99414,2.9873v4.18359ZM207.68933,29.78576v-.47168l-1.27148.16406c-.70166.09131-1.05273.40771-1.05273.9502,0,.24609.08545.44775.25635.60498s.40234.23584.69385.23584c.40576,0,.73584-.14014.99121-.42041s.38281-.63477.38281-1.06299Z" fill="#2f2f2f"/>
        <path d="M212.49011,24.52209c-.36475,0-.66309-.1084-.89551-.32471s-.34863-.48193-.34863-.79639c0-.32373.11621-.58789.34863-.79297s.53076-.30762.89551-.30762c.36914,0,.66895.10254.89893.30762s.34521.46924.34521.79297c0,.32812-.11523.59717-.34521.80664s-.52979.31445-.89893.31445ZM213.55651,32.62951h-2.16016v-7h2.16016v7Z" fill="#2f2f2f"/>
        <path d="M217.49157,32.62951h-2.16016v-10.36328h2.16016v10.36328Z" fill="#2f2f2f"/>
        <path d="M225.15661,32.62951h-2.04395v-1.00488h-.02734c-.46924.78369-1.16455,1.17578-2.08496,1.17578-.6792,0-1.21338-.19238-1.60303-.57764s-.58447-.89893-.58447-1.5415c0-1.35791.8042-2.14209,2.41309-2.35156l1.90039-.25293c0-.76562-.41455-1.14844-1.24414-1.14844-.83398,0-1.62695.24854-2.37891.74512v-1.62695c.30078-.15479.71191-.2915,1.23389-.41016s.99707-.17773,1.42529-.17773c1.99609,0,2.99414.99561,2.99414,2.9873v4.18359ZM223.12634,29.78576v-.47168l-1.27148.16406c-.70166.09131-1.05273.40771-1.05273.9502,0,.24609.08545.44775.25635.60498s.40234.23584.69385.23584c.40576,0,.73584-.14014.99121-.42041s.38281-.63477.38281-1.06299Z" fill="#2f2f2f"/>
        <path d="M229.0404,31.81604h-.02734v.81348h-2.16016v-10.36328h2.16016v4.41602h.02734c.5332-.81592,1.29199-1.22363,2.27637-1.22363.90234,0,1.59717.31006,2.08496.92969s.73145,1.46729.73145,2.54297c0,1.1665-.28467,2.10303-.85449,2.80957s-1.33057,1.05957-2.2832,1.05957c-.86133,0-1.51318-.32812-1.95508-.98438ZM228.97888,28.86291v.71777c0,.45117.12988.82471.38965,1.12109s.59229.44434.99805.44434c.49219,0,.87402-.19043,1.14502-.5708s.40674-.91943.40674-1.6167c0-.57861-.12402-1.03125-.37256-1.35693s-.60254-.48877-1.06299-.48877c-.43311,0-.79199.16162-1.07666.48535s-.42725.74512-.42725,1.26465Z" fill="#2f2f2f"/>
        <path d="M236.62829,24.52209c-.36475,0-.66309-.1084-.89551-.32471s-.34863-.48193-.34863-.79639c0-.32373.11621-.58789.34863-.79297s.53076-.30762.89551-.30762c.36914,0,.66895.10254.89893.30762s.34521.46924.34521.79297c0,.32812-.11523.59717-.34521.80664s-.52979.31445-.89893.31445ZM237.6947,32.62951h-2.16016v-7h2.16016v7Z" fill="#2f2f2f"/>
        <path d="M241.63024,32.62951h-2.16016v-10.36328h2.16016v10.36328Z" fill="#2f2f2f"/>
        <path d="M244.4989,24.52209c-.36475,0-.66309-.1084-.89551-.32471s-.34863-.48193-.34863-.79639c0-.32373.11621-.58789.34863-.79297s.53076-.30762.89551-.30762c.36914,0,.66895.10254.89893.30762s.34521.46924.34521.79297c0,.32812-.11523.59717-.34521.80664s-.52979.31445-.89893.31445ZM245.5653,32.62951h-2.16016v-7h2.16016v7Z" fill="#2f2f2f"/>
        <path d="M251.50134,32.54748c-.31885.16846-.7998.25293-1.44238.25293-1.52197,0-2.2832-.79053-2.2832-2.37207v-3.20605h-1.13477v-1.59277h1.13477v-1.51074l2.15332-.61523v2.12598h1.57227v1.59277h-1.57227v2.83008c0,.729.28955,1.09375.86816,1.09375.22803,0,.4624-.06592.7041-.19824v1.59961Z" fill="#2f2f2f"/>
        <path d="M259.72643,25.62951l-2.84375,7.56055c-.68359,1.81836-1.71338,2.72754-3.08984,2.72754-.52393,0-.95459-.05908-1.29199-.17773v-1.72266c.28711.16846.59912.25293.93652.25293.55615,0,.94336-.26221,1.16211-.78613l.36914-.86816-2.84375-6.98633h2.39258l1.30566,4.25879c.08203.26416.146.57666.19141.93652h.02734c.04102-.26416.11621-.57178.22559-.92285l1.31934-4.27246h2.13965Z" fill="#2f2f2f"/>
        <path d="M271.72351,32.62951h-7.89551v-1.27148l5.02441-6.7334h-4.66211v-1.79785h7.51953v1.2373l-4.91504,6.77441h4.92871v1.79102Z" fill="#2f2f2f"/>
        <path d="M276.24206,32.80041c-1.1665,0-2.08398-.32715-2.75146-.98096s-1.00146-1.5415-1.00146-2.6626c0-1.15771.34619-2.06348,1.03906-2.71729s1.62939-.98096,2.80957-.98096c1.16211,0,2.07373.32715,2.73438.98096s.99121,1.51855.99121,2.59424c0,1.16211-.34082,2.08057-1.02197,2.75488s-1.61426,1.01172-2.79932,1.01172ZM276.29675,27.11291c-.51025,0-.90674.17529-1.18945.52637s-.42383.84766-.42383,1.49023c0,1.34424.54248,2.0166,1.62695,2.0166,1.03467,0,1.55176-.69043,1.55176-2.07129,0-1.30811-.52197-1.96191-1.56543-1.96191Z" fill="#2f2f2f"/>
        <path d="M288.20446,32.62951h-2.15332v-3.88965c0-1.08447-.38721-1.62695-1.16211-1.62695-.37354,0-.68115.14355-.92285.43066s-.3623.65186-.3623,1.09375v3.99219h-2.16016v-7h2.16016v1.10742h.02734c.51514-.85205,1.26465-1.27832,2.24902-1.27832,1.54932,0,2.32422.96143,2.32422,2.88477v4.28613Z" fill="#2f2f2f"/>
        <path d="M296.22643,29.74475h-4.56641c.07275,1.01611.71338,1.52441,1.9209,1.52441.77002,0,1.44678-.18213,2.03027-.54688v1.55859c-.64697.34619-1.48779.51953-2.52246.51953-1.13037,0-2.00732-.31348-2.63184-.93994s-.93652-1.50049-.93652-2.62158c0-1.16211.3374-2.08252,1.01172-2.76172s1.50391-1.01855,2.48828-1.01855c1.021,0,1.81055.30322,2.36865.90918s.8374,1.42871.8374,2.46777v.90918ZM294.22351,28.41857c0-1.00244-.40576-1.50391-1.2168-1.50391-.34619,0-.646.14355-.89893.43066s-.40674.64502-.46143,1.07324h2.57715Z" fill="#2f2f2f"/>
        <path d="M303.39733,30.8385h4.15625v1.79102h-6.52148v-.73828c0-.50146.08447-.95117.25293-1.3501s.38037-.75635.63574-1.07324.53418-.59717.8374-.84082.59131-.46387.86475-.65967c.28711-.20508.53906-.40088.75537-.58789s.39893-.37256.54688-.55713.25879-.37158.33154-.56055.10938-.39062.10938-.60498c0-.41943-.11865-.73584-.35547-.9502s-.59912-.32129-1.08691-.32129c-.84326,0-1.6499.33496-2.41992,1.00488v-1.90039c.85205-.55127,1.81396-.82715,2.88477-.82715.49658,0,.94238.06494,1.33643.19482s.72803.31543,1.00146.55713.48193.53418.62549.87842.21533.72803.21533,1.15186c0,.45117-.06934.85205-.2085,1.20312s-.32373.66992-.55371.95703-.49561.55029-.79639.78955-.61279.4707-.93652.69385c-.21875.15479-.42969.30859-.63232.46143s-.38184.30322-.53662.45117-.27783.29297-.36914.43408-.13672.27588-.13672.40332Z" fill="#2f2f2f"/>
      </g>
      <g>
        <path d="M358.97985,32.62951h-2.40625l-.69727-2.18066h-3.48633l-.69043,2.18066h-2.39258l3.56836-9.80273h2.61816l3.48633,9.80273ZM355.37048,28.75354l-1.05273-3.29492c-.07764-.24609-.13232-.54004-.16406-.88184h-.05469c-.02295.28711-.07959.57178-.1709.85449l-1.06641,3.32227h2.50879Z" fill="#2f2f2f"/>
        <path d="M366.3446,25.62951l-2.60449,7h-2.46094l-2.48145-7h2.31055l1.2168,4.31348c.13672.48779.21631.90234.23926,1.24414h.02734c.03174-.32373.11621-.72461.25293-1.20312l1.24414-4.35449h2.25586Z" fill="#2f2f2f"/>
        <path d="M373.00036,32.62951h-2.04395v-1.00488h-.02734c-.46924.78369-1.16455,1.17578-2.08496,1.17578-.6792,0-1.21338-.19238-1.60303-.57764s-.58447-.89893-.58447-1.5415c0-1.35791.8042-2.14209,2.41309-2.35156l1.90039-.25293c0-.76562-.41455-1.14844-1.24414-1.14844-.83398,0-1.62695.24854-2.37891.74512v-1.62695c.30078-.15479.71191-.2915,1.23389-.41016s.99707-.17773,1.42529-.17773c1.99609,0,2.99414.99561,2.99414,2.9873v4.18359ZM370.97009,29.78576v-.47168l-1.27148.16406c-.70166.09131-1.05273.40771-1.05273.9502,0,.24609.08545.44775.25635.60498s.40234.23584.69385.23584c.40576,0,.73584-.14014.99121-.42041s.38281-.63477.38281-1.06299Z" fill="#2f2f2f"/>
        <path d="M375.77087,24.52209c-.36475,0-.66309-.1084-.89551-.32471s-.34863-.48193-.34863-.79639c0-.32373.11621-.58789.34863-.79297s.53076-.30762.89551-.30762c.36914,0,.66895.10254.89893.30762s.34521.46924.34521.79297c0,.32812-.11523.59717-.34521.80664s-.52979.31445-.89893.31445ZM376.83727,32.62951h-2.16016v-7h2.16016v7Z" fill="#2f2f2f"/>
        <path d="M380.77233,32.62951h-2.16016v-10.36328h2.16016v10.36328Z" fill="#2f2f2f"/>
        <path d="M388.43737,32.62951h-2.04395v-1.00488h-.02734c-.46924.78369-1.16455,1.17578-2.08496,1.17578-.6792,0-1.21338-.19238-1.60303-.57764s-.58447-.89893-.58447-1.5415c0-1.35791.8042-2.14209,2.41309-2.35156l1.90039-.25293c0-.76562-.41455-1.14844-1.24414-1.14844-.83398,0-1.62695.24854-2.37891.74512v-1.62695c.30078-.15479.71191-.2915,1.23389-.41016s.99707-.17773,1.42529-.17773c1.99609,0,2.99414.99561,2.99414,2.9873v4.18359ZM386.4071,29.78576v-.47168l-1.27148.16406c-.70166.09131-1.05273.40771-1.05273.9502,0,.24609.08545.44775.25635.60498s.40234.23584.69385.23584c.40576,0,.73584-.14014.99121-.42041s.38281-.63477.38281-1.06299Z" fill="#2f2f2f"/>
        <path d="M392.32116,31.81604h-.02734v.81348h-2.16016v-10.36328h2.16016v4.41602h.02734c.5332-.81592,1.29199-1.22363,2.27637-1.22363.90234,0,1.59717.31006,2.08496.92969s.73145,1.46729.73145,2.54297c0,1.1665-.28467,2.10303-.85449,2.80957s-1.33057,1.05957-2.2832,1.05957c-.86133,0-1.51318-.32812-1.95508-.98438ZM392.25964,28.86291v.71777c0,.45117.12988.82471.38965,1.12109s.59229.44434.99805.44434c.49219,0,.87402-.19043,1.14502-.5708s.40674-.91943.40674-1.6167c0-.57861-.12402-1.03125-.37256-1.35693s-.60254-.48877-1.06299-.48877c-.43311,0-.79199.16162-1.07666.48535s-.42725.74512-.42725,1.26465Z" fill="#2f2f2f"/>
        <path d="M399.90905,24.52209c-.36475,0-.66309-.1084-.89551-.32471s-.34863-.48193-.34863-.79639c0-.32373.11621-.58789.34863-.79297s.53076-.30762.89551-.30762c.36914,0,.66895.10254.89893.30762s.34521.46924.34521.79297c0,.32812-.11523.59717-.34521.80664s-.52979.31445-.89893.31445ZM400.97546,32.62951h-2.16016v-7h2.16016v7Z" fill="#2f2f2f"/>
        <path d="M404.91101,32.62951h-2.16016v-10.36328h2.16016v10.36328Z" fill="#2f2f2f"/>
        <path d="M407.77966,24.52209c-.36475,0-.66309-.1084-.89551-.32471s-.34863-.48193-.34863-.79639c0-.32373.11621-.58789.34863-.79297s.53076-.30762.89551-.30762c.36914,0,.66895.10254.89893.30762s.34521.46924.34521.79297c0,.32812-.11523.59717-.34521.80664s-.52979.31445-.89893.31445ZM408.84606,32.62951h-2.16016v-7h2.16016v7Z" fill="#2f2f2f"/>
        <path d="M414.7821,32.54748c-.31885.16846-.7998.25293-1.44238.25293-1.52197,0-2.2832-.79053-2.2832-2.37207v-3.20605h-1.13477v-1.59277h1.13477v-1.51074l2.15332-.61523v2.12598h1.57227v1.59277h-1.57227v2.83008c0,.729.28955,1.09375.86816,1.09375.22803,0,.4624-.06592.7041-.19824v1.59961Z" fill="#2f2f2f"/>
        <path d="M423.0072,25.62951l-2.84375,7.56055c-.68359,1.81836-1.71338,2.72754-3.08984,2.72754-.52393,0-.95459-.05908-1.29199-.17773v-1.72266c.28711.16846.59912.25293.93652.25293.55615,0,.94336-.26221,1.16211-.78613l.36914-.86816-2.84375-6.98633h2.39258l1.30566,4.25879c.08203.26416.146.57666.19141.93652h.02734c.04102-.26416.11621-.57178.22559-.92285l1.31934-4.27246h2.13965Z" fill="#2f2f2f"/>
        <path d="M435.00427,32.62951h-7.89551v-1.27148l5.02441-6.7334h-4.66211v-1.79785h7.51953v1.2373l-4.91504,6.77441h4.92871v1.79102Z" fill="#2f2f2f"/>
        <path d="M439.52282,32.80041c-1.1665,0-2.08398-.32715-2.75146-.98096s-1.00146-1.5415-1.00146-2.6626c0-1.15771.34619-2.06348,1.03906-2.71729s1.62939-.98096,2.80957-.98096c1.16211,0,2.07373.32715,2.73438.98096s.99121,1.51855.99121,2.59424c0,1.16211-.34082,2.08057-1.02197,2.75488s-1.61426,1.01172-2.79932,1.01172ZM439.57751,27.11291c-.51025,0-.90674.17529-1.18945.52637s-.42383.84766-.42383,1.49023c0,1.34424.54248,2.0166,1.62695,2.0166,1.03467,0,1.55176-.69043,1.55176-2.07129,0-1.30811-.52197-1.96191-1.56543-1.96191Z" fill="#2f2f2f"/>
        <path d="M451.48522,32.62951h-2.15332v-3.88965c0-1.08447-.38721-1.62695-1.16211-1.62695-.37354,0-.68115.14355-.92285.43066s-.3623.65186-.3623,1.09375v3.99219h-2.16016v-7h2.16016v1.10742h.02734c.51514-.85205,1.26465-1.27832,2.24902-1.27832,1.54932,0,2.32422.96143,2.32422,2.88477v4.28613Z" fill="#2f2f2f"/>
        <path d="M459.5072,29.74475h-4.56641c.07275,1.01611.71338,1.52441,1.9209,1.52441.77002,0,1.44678-.18213,2.03027-.54688v1.55859c-.64697.34619-1.48779.51953-2.52246.51953-1.13037,0-2.00732-.31348-2.63184-.93994s-.93652-1.50049-.93652-2.62158c0-1.16211.3374-2.08252,1.01172-2.76172s1.50391-1.01855,2.48828-1.01855c1.021,0,1.81055.30322,2.36865.90918s.8374,1.42871.8374,2.46777v.90918ZM457.50427,28.41857c0-1.00244-.40576-1.50391-1.2168-1.50391-.34619,0-.646.14355-.89893.43066s-.40674.64502-.46143,1.07324h2.57715Z" fill="#2f2f2f"/>
        <path d="M464.54528,32.30822v-1.87988c.65625.47852,1.42188.71777,2.29688.71777.55127,0,.98096-.11865,1.28857-.35547s.46143-.56738.46143-.99121c0-.4375-.19043-.7749-.5708-1.01172s-.90332-.35547-1.56885-.35547h-.90918v-1.6543h.84082c1.27588,0,1.91406-.42383,1.91406-1.27148,0-.79736-.48975-1.19629-1.46973-1.19629-.65625,0-1.29443.21191-1.91406.63574v-1.76367c.68799-.34619,1.49023-.51953,2.40625-.51953,1.00244,0,1.7832.22559,2.34131.67676s.8374,1.03662.8374,1.75684c0,1.28076-.64941,2.08252-1.94824,2.40625v.03418c.69287.08643,1.23975.33838,1.64062.75537s.60156.92871.60156,1.53467c0,.91602-.33496,1.64062-1.00488,2.17383s-1.59521.7998-2.77539.7998c-1.01172,0-1.83447-.16406-2.46777-.49219Z" fill="#2f2f2f"/>
      </g>
      <g>
        <rect x="27.50106" y="85.24412" width="114.4" height="15.35588" fill="none"/>
        <path d="M45.43395,87.3424l-3.62988,9.80273h-1.26465l-3.55469-9.80273h1.27832l2.71387,7.77246c.08643.25049.15283.54004.19824.86816h.02734c.03662-.27344.11182-.56738.22559-.88184l2.76855-7.75879h1.2373Z" fill="#2f2f2f"/>
        <path d="M47.34558,88.36779c-.20068,0-.37158-.06836-.5127-.20508s-.21191-.31006-.21191-.51953.0708-.38379.21191-.52295.31201-.2085.5127-.2085c.20508,0,.37939.06934.52295.2085s.21533.31348.21533.52295c0,.20068-.07178.37158-.21533.5127s-.31787.21191-.52295.21191ZM47.89245,97.14514h-1.12109v-7h1.12109v7Z" fill="#2f2f2f"/>
        <path d="M53.66149,91.2799c-.1958-.15039-.47852-.22559-.84766-.22559-.47852,0-.87842.22559-1.19971.67676s-.48193,1.06641-.48193,1.8457v3.56836h-1.12109v-7h1.12109v1.44238h.02734c.15967-.49219.40332-.87598.73145-1.15186s.69482-.41357,1.10059-.41357c.2915,0,.51514.03174.66992.0957v1.16211Z" fill="#2f2f2f"/>
        <path d="M58.58044,97.07678c-.26416.146-.61279.21875-1.0459.21875-1.22607,0-1.83887-.68359-1.83887-2.05078v-4.14258h-1.20312v-.95703h1.20312v-1.70898l1.12109-.3623v2.07129h1.76367v.95703h-1.76367v3.94434c0,.46924.07959.8042.23926,1.00488s.42383.30078.79297.30078c.28271,0,.52637-.07764.73145-.23242v.95703Z" fill="#2f2f2f"/>
        <path d="M65.69811,97.14514h-1.12109v-1.10742h-.02734c-.46484.84766-1.18506,1.27148-2.16016,1.27148-1.66797,0-2.50195-.99365-2.50195-2.98047v-4.18359h1.11426v4.00586c0,1.47656.56494,2.21484,1.69531,2.21484.54688,0,.99707-.20166,1.3501-.60498s.52979-.93066.52979-1.58252v-4.0332h1.12109v7Z" fill="#2f2f2f"/>
        <path d="M72.85388,97.14514h-1.12109v-1.09375h-.02734c-.48779.83838-1.20557,1.25781-2.15332,1.25781-.69727,0-1.24316-.18457-1.63721-.55371s-.59131-.85889-.59131-1.46973c0-1.30811.77002-2.06885,2.31055-2.2832l2.09863-.29395c0-1.18945-.48096-1.78418-1.44238-1.78418-.84326,0-1.604.28711-2.2832.86133v-1.14844c.68799-.4375,1.48096-.65625,2.37891-.65625,1.64502,0,2.46777.87061,2.46777,2.61133v4.55273ZM71.73278,93.60412l-1.68848.23242c-.51953.07275-.91162.20166-1.17578.38623s-.39648.51172-.39648.98096c0,.3418.12207.62109.36572.8374s.56836.32471.97412.32471c.55615,0,1.01514-.19482,1.37744-.58447s.54346-.88281.54346-1.47998v-.69727Z" fill="#2f2f2f"/>
        <path d="M75.99499,97.14514h-1.12109v-10.36328h1.12109v10.36328Z" fill="#2f2f2f"/>
        <path d="M92.03893,97.14514h-1.12109v-4.01953c0-.7749-.11963-1.33545-.35889-1.68164s-.6416-.51953-1.20654-.51953c-.47852,0-.88525.21875-1.22021.65625s-.50244.96143-.50244,1.57227v3.99219h-1.12109v-4.15625c0-1.37646-.53076-2.06445-1.59277-2.06445-.49219,0-.89795.20605-1.2168.61865s-.47852.94922-.47852,1.60986v3.99219h-1.12109v-7h1.12109v1.10742h.02734c.49658-.84766,1.22119-1.27148,2.17383-1.27148.47852,0,.89551.1333,1.25098.3999s.59912.61621.73145,1.04932c.51953-.96631,1.29443-1.44922,2.32422-1.44922,1.54053,0,2.31055.9502,2.31055,2.85059v4.31348Z" fill="#2f2f2f"/>
        <path d="M99.0736,97.14514h-1.12109v-1.09375h-.02734c-.48779.83838-1.20557,1.25781-2.15332,1.25781-.69727,0-1.24316-.18457-1.63721-.55371s-.59131-.85889-.59131-1.46973c0-1.30811.77002-2.06885,2.31055-2.2832l2.09863-.29395c0-1.18945-.48096-1.78418-1.44238-1.78418-.84326,0-1.604.28711-2.2832.86133v-1.14844c.68799-.4375,1.48096-.65625,2.37891-.65625,1.64502,0,2.46777.87061,2.46777,2.61133v4.55273ZM97.95251,93.60412l-1.68848.23242c-.51953.07275-.91162.20166-1.17578.38623s-.39648.51172-.39648.98096c0,.3418.12207.62109.36572.8374s.56836.32471.97412.32471c.55615,0,1.01514-.19482,1.37744-.58447s.54346-.88281.54346-1.47998v-.69727Z" fill="#2f2f2f"/>
        <path d="M105.91686,96.82385c-.5376.32373-1.17578.48535-1.91406.48535-.99805,0-1.80371-.32471-2.4165-.97412s-.91943-1.49121-.91943-2.52588c0-1.15283.33057-2.0791.99121-2.77881s1.54248-1.04932,2.64551-1.04932c.61523,0,1.15771.11377,1.62695.3418v1.14844c-.51953-.36475-1.07568-.54688-1.66797-.54688-.71533,0-1.30225.25635-1.76025.76904s-.68701,1.18604-.68701,2.02002c0,.82031.21533,1.46729.646,1.94141s1.0083.71094,1.73291.71094c.61084,0,1.18506-.20264,1.72266-.6084v1.06641Z" fill="#2f2f2f"/>
        <path d="M113.21569,97.14514h-1.12109v-4.0332c0-1.4585-.54248-2.1875-1.62695-2.1875-.54688,0-1.00732.21094-1.38086.63232s-.56055.96289-.56055,1.62354v3.96484h-1.12109v-10.36328h1.12109v4.52539h.02734c.5376-.88428,1.30322-1.32617,2.29688-1.32617,1.57666,0,2.36523.9502,2.36523,2.85059v4.31348Z" fill="#2f2f2f"/>
        <path d="M115.79968,88.36779c-.20068,0-.37158-.06836-.5127-.20508s-.21191-.31006-.21191-.51953.0708-.38379.21191-.52295.31201-.2085.5127-.2085c.20508,0,.37939.06934.52295.2085s.21533.31348.21533.52295c0,.20068-.07178.37158-.21533.5127s-.31787.21191-.52295.21191ZM116.34655,97.14514h-1.12109v-7h1.12109v7Z" fill="#2f2f2f"/>
        <path d="M124.27575,97.14514h-1.12109v-3.99219c0-1.48584-.54248-2.22852-1.62695-2.22852-.56055,0-1.02441.21094-1.39111.63232s-.55029.95361-.55029,1.59619v3.99219h-1.12109v-7h1.12109v1.16211h.02734c.52881-.88428,1.29443-1.32617,2.29688-1.32617.76562,0,1.35107.24707,1.75684.7417s.6084,1.20898.6084,2.14307v4.2793Z" fill="#2f2f2f"/>
        <path d="M131.97888,93.92541h-4.94238c.01807.7793.22803,1.38086.62891,1.80469s.95264.63574,1.6543.63574c.78857,0,1.51318-.25977,2.17383-.7793v1.05273c-.61523.44678-1.42871.66992-2.44043.66992-.98877,0-1.76611-.31787-2.33105-.95361s-.84766-1.53027-.84766-2.68311c0-1.08936.30859-1.97656.92627-2.6626s1.38428-1.02881,2.30029-1.02881,1.62451.29639,2.12598.88867.75195,1.41504.75195,2.46777v.58789ZM130.83044,92.97522c-.00439-.64697-.16064-1.15088-.46826-1.51074s-.73486-.54004-1.28174-.54004c-.52881,0-.97754.18896-1.34668.56738s-.59717.87256-.68359,1.4834h3.78027Z" fill="#2f2f2f"/>
      </g>
      <g>
        <path d="M235.6361,182.19982v-9.80273h2.70703c3.4541,0,5.18164,1.59277,5.18164,4.77832,0,1.51318-.47949,2.72852-1.43945,3.64697-.95898.91846-2.24316,1.37744-3.85156,1.37744h-2.59766ZM236.78454,173.43615v7.72461h1.46289c1.28516,0,2.28516-.34424,3.00098-1.03223s1.07324-1.66357,1.07324-2.92578c0-2.51123-1.33496-3.7666-4.00586-3.7666h-1.53125Z" fill="#2f2f2f"/>
        <path d="M245.81188,173.42248c-.2002,0-.37109-.06836-.5127-.20508s-.21191-.31006-.21191-.51953.07031-.38379.21191-.52295.3125-.2085.5127-.2085c.20508,0,.37891.06934.52344.2085.14258.13916.21484.31348.21484.52295,0,.20068-.07227.37158-.21484.5127-.14453.14111-.31836.21191-.52344.21191ZM246.35876,182.19982h-1.12109v-7h1.12109v7Z" fill="#2f2f2f"/>
        <path d="M248.07556,181.94689v-1.20312c.61035.45117,1.2832.67676,2.0166.67676.98438,0,1.47656-.32812,1.47656-.98438,0-.18701-.04199-.34521-.12598-.4751-.08496-.12988-.19922-.24512-.3418-.34521-.14453-.1001-.3125-.19043-.50586-.27002-.19434-.07959-.40234-.16309-.62598-.24951-.30957-.12305-.58203-.24707-.81738-.37256-.23438-.12549-.42969-.2666-.58789-.42383-.15625-.15723-.27539-.33594-.35547-.53662-.0791-.20068-.11914-.43506-.11914-.7041,0-.32812.0752-.61865.22559-.87158s.35059-.46484.60156-.63574.53613-.2998.8584-.38623c.32031-.08643.65234-.12988.99414-.12988.60645,0,1.14844.10498,1.62695.31445v1.13477c-.51465-.3374-1.10742-.50586-1.77734-.50586-.20996,0-.39844.02393-.56738.07178s-.31348.11523-.43457.20166c-.12012.08643-.21387.19043-.2793.31104-.06641.12061-.09961.25391-.09961.3999,0,.18213.0332.33496.09961.45801.06543.12305.16211.23242.29004.32812s.28223.18213.46484.25977.38965.16162.62207.25293c.30957.11865.58789.24023.83398.36572s.45605.2666.62891.42383.30664.33838.40039.54346c.09277.20508.13965.44873.13965.73145,0,.34619-.07617.64697-.22949.90234-.15234.25537-.35645.46729-.61133.63574s-.54883.29395-.88184.37598-.68164.12305-1.0459.12305c-.71973,0-1.34473-.13916-1.87305-.41699Z" fill="#2f2f2f"/>
        <path d="M260.11169,182.19982h-1.57227l-3.08984-3.36328h-.02734v3.36328h-1.12109v-10.36328h1.12109v6.56934h.02734l2.93945-3.20605h1.46973l-3.24707,3.37695,3.5,3.62305Z" fill="#2f2f2f"/>
      </g>
      <g>
        <rect x="190.03791" y="85.24412" width="114.4" height="15.35588" fill="none"/>
        <path d="M207.97106,87.3424l-3.62988,9.80273h-1.26465l-3.55469-9.80273h1.27832l2.71387,7.77246c.08643.25049.15283.54004.19824.86816h.02734c.03662-.27344.11182-.56738.22559-.88184l2.76855-7.75879h1.2373Z" fill="#2f2f2f"/>
        <path d="M209.88268,88.36779c-.20068,0-.37158-.06836-.5127-.20508s-.21191-.31006-.21191-.51953.0708-.38379.21191-.52295.31201-.2085.5127-.2085c.20508,0,.37939.06934.52295.2085s.21533.31348.21533.52295c0,.20068-.07178.37158-.21533.5127s-.31787.21191-.52295.21191ZM210.42956,97.14514h-1.12109v-7h1.12109v7Z" fill="#2f2f2f"/>
        <path d="M216.1986,91.2799c-.1958-.15039-.47852-.22559-.84766-.22559-.47852,0-.87842.22559-1.19971.67676s-.48193,1.06641-.48193,1.8457v3.56836h-1.12109v-7h1.12109v1.44238h.02734c.15967-.49219.40332-.87598.73145-1.15186s.69482-.41357,1.10059-.41357c.2915,0,.51514.03174.66992.0957v1.16211Z" fill="#2f2f2f"/>
        <path d="M221.11755,97.07678c-.26416.146-.61279.21875-1.0459.21875-1.22607,0-1.83887-.68359-1.83887-2.05078v-4.14258h-1.20312v-.95703h1.20312v-1.70898l1.12109-.3623v2.07129h1.76367v.95703h-1.76367v3.94434c0,.46924.07959.8042.23926,1.00488s.42383.30078.79297.30078c.28271,0,.52637-.07764.73145-.23242v.95703Z" fill="#2f2f2f"/>
        <path d="M228.23522,97.14514h-1.12109v-1.10742h-.02734c-.46484.84766-1.18506,1.27148-2.16016,1.27148-1.66797,0-2.50195-.99365-2.50195-2.98047v-4.18359h1.11426v4.00586c0,1.47656.56494,2.21484,1.69531,2.21484.54688,0,.99707-.20166,1.3501-.60498s.52979-.93066.52979-1.58252v-4.0332h1.12109v7Z" fill="#2f2f2f"/>
        <path d="M235.39099,97.14514h-1.12109v-1.09375h-.02734c-.48779.83838-1.20557,1.25781-2.15332,1.25781-.69727,0-1.24316-.18457-1.63721-.55371s-.59131-.85889-.59131-1.46973c0-1.30811.77002-2.06885,2.31055-2.2832l2.09863-.29395c0-1.18945-.48096-1.78418-1.44238-1.78418-.84326,0-1.604.28711-2.2832.86133v-1.14844c.68799-.4375,1.48096-.65625,2.37891-.65625,1.64502,0,2.46777.87061,2.46777,2.61133v4.55273ZM234.26989,93.60412l-1.68848.23242c-.51953.07275-.91162.20166-1.17578.38623s-.39648.51172-.39648.98096c0,.3418.12207.62109.36572.8374s.56836.32471.97412.32471c.55615,0,1.01514-.19482,1.37744-.58447s.54346-.88281.54346-1.47998v-.69727Z" fill="#2f2f2f"/>
        <path d="M238.5321,97.14514h-1.12109v-10.36328h1.12109v10.36328Z" fill="#2f2f2f"/>
        <path d="M254.57604,97.14514h-1.12109v-4.01953c0-.7749-.11963-1.33545-.35889-1.68164s-.6416-.51953-1.20654-.51953c-.47852,0-.88525.21875-1.22021.65625s-.50244.96143-.50244,1.57227v3.99219h-1.12109v-4.15625c0-1.37646-.53076-2.06445-1.59277-2.06445-.49219,0-.89795.20605-1.2168.61865s-.47852.94922-.47852,1.60986v3.99219h-1.12109v-7h1.12109v1.10742h.02734c.49658-.84766,1.22119-1.27148,2.17383-1.27148.47852,0,.89551.1333,1.25098.3999s.59912.61621.73145,1.04932c.51953-.96631,1.29443-1.44922,2.32422-1.44922,1.54053,0,2.31055.9502,2.31055,2.85059v4.31348Z" fill="#2f2f2f"/>
        <path d="M261.61071,97.14514h-1.12109v-1.09375h-.02734c-.48779.83838-1.20557,1.25781-2.15332,1.25781-.69727,0-1.24316-.18457-1.63721-.55371s-.59131-.85889-.59131-1.46973c0-1.30811.77002-2.06885,2.31055-2.2832l2.09863-.29395c0-1.18945-.48096-1.78418-1.44238-1.78418-.84326,0-1.604.28711-2.2832.86133v-1.14844c.68799-.4375,1.48096-.65625,2.37891-.65625,1.64502,0,2.46777.87061,2.46777,2.61133v4.55273ZM260.48962,93.60412l-1.68848.23242c-.51953.07275-.91162.20166-1.17578.38623s-.39648.51172-.39648.98096c0,.3418.12207.62109.36572.8374s.56836.32471.97412.32471c.55615,0,1.01514-.19482,1.37744-.58447s.54346-.88281.54346-1.47998v-.69727Z" fill="#2f2f2f"/>
        <path d="M268.45397,96.82385c-.5376.32373-1.17578.48535-1.91406.48535-.99805,0-1.80371-.32471-2.4165-.97412s-.91943-1.49121-.91943-2.52588c0-1.15283.33057-2.0791.99121-2.77881s1.54248-1.04932,2.64551-1.04932c.61523,0,1.15771.11377,1.62695.3418v1.14844c-.51953-.36475-1.07568-.54688-1.66797-.54688-.71533,0-1.30225.25635-1.76025.76904s-.68701,1.18604-.68701,2.02002c0,.82031.21533,1.46729.646,1.94141s1.0083.71094,1.73291.71094c.61084,0,1.18506-.20264,1.72266-.6084v1.06641Z" fill="#2f2f2f"/>
        <path d="M275.7528,97.14514h-1.12109v-4.0332c0-1.4585-.54248-2.1875-1.62695-2.1875-.54688,0-1.00732.21094-1.38086.63232s-.56055.96289-.56055,1.62354v3.96484h-1.12109v-10.36328h1.12109v4.52539h.02734c.5376-.88428,1.30322-1.32617,2.29688-1.32617,1.57666,0,2.36523.9502,2.36523,2.85059v4.31348Z" fill="#2f2f2f"/>
        <path d="M278.33679,88.36779c-.20068,0-.37158-.06836-.5127-.20508s-.21191-.31006-.21191-.51953.0708-.38379.21191-.52295.31201-.2085.5127-.2085c.20508,0,.37939.06934.52295.2085s.21533.31348.21533.52295c0,.20068-.07178.37158-.21533.5127s-.31787.21191-.52295.21191ZM278.88366,97.14514h-1.12109v-7h1.12109v7Z" fill="#2f2f2f"/>
        <path d="M286.81286,97.14514h-1.12109v-3.99219c0-1.48584-.54248-2.22852-1.62695-2.22852-.56055,0-1.02441.21094-1.39111.63232s-.55029.95361-.55029,1.59619v3.99219h-1.12109v-7h1.12109v1.16211h.02734c.52881-.88428,1.29443-1.32617,2.29688-1.32617.76562,0,1.35107.24707,1.75684.7417s.6084,1.20898.6084,2.14307v4.2793Z" fill="#2f2f2f"/>
        <path d="M294.51599,93.92541h-4.94238c.01807.7793.22803,1.38086.62891,1.80469s.95264.63574,1.6543.63574c.78857,0,1.51318-.25977,2.17383-.7793v1.05273c-.61523.44678-1.42871.66992-2.44043.66992-.98877,0-1.76611-.31787-2.33105-.95361s-.84766-1.53027-.84766-2.68311c0-1.08936.30859-1.97656.92627-2.6626s1.38428-1.02881,2.30029-1.02881,1.62451.29639,2.12598.88867.75195,1.41504.75195,2.46777v.58789ZM293.36755,92.97522c-.00439-.64697-.16064-1.15088-.46826-1.51074s-.73486-.54004-1.28174-.54004c-.52881,0-.97754.18896-1.34668.56738s-.59717.87256-.68359,1.4834h3.78027Z" fill="#2f2f2f"/>
      </g>
      <g>
        <path d="M398.91589,182.19982v-9.80273h2.70703c3.4541,0,5.18164,1.59277,5.18164,4.77832,0,1.51318-.47949,2.72852-1.43945,3.64697-.95898.91846-2.24316,1.37744-3.85156,1.37744h-2.59766ZM400.06433,173.43615v7.72461h1.46289c1.28516,0,2.28516-.34424,3.00098-1.03223s1.07324-1.66357,1.07324-2.92578c0-2.51123-1.33496-3.7666-4.00586-3.7666h-1.53125Z" fill="#2f2f2f"/>
        <path d="M409.09167,173.42248c-.2002,0-.37109-.06836-.5127-.20508s-.21191-.31006-.21191-.51953.07031-.38379.21191-.52295.3125-.2085.5127-.2085c.20508,0,.37891.06934.52344.2085.14258.13916.21484.31348.21484.52295,0,.20068-.07227.37158-.21484.5127-.14453.14111-.31836.21191-.52344.21191ZM409.63854,182.19982h-1.12109v-7h1.12109v7Z" fill="#2f2f2f"/>
        <path d="M411.35534,181.94689v-1.20312c.61035.45117,1.2832.67676,2.0166.67676.98438,0,1.47656-.32812,1.47656-.98438,0-.18701-.04199-.34521-.12598-.4751-.08496-.12988-.19922-.24512-.3418-.34521-.14453-.1001-.3125-.19043-.50586-.27002-.19434-.07959-.40234-.16309-.62598-.24951-.30957-.12305-.58203-.24707-.81738-.37256-.23438-.12549-.42969-.2666-.58789-.42383-.15625-.15723-.27539-.33594-.35547-.53662-.0791-.20068-.11914-.43506-.11914-.7041,0-.32812.0752-.61865.22559-.87158s.35059-.46484.60156-.63574.53613-.2998.8584-.38623c.32031-.08643.65234-.12988.99414-.12988.60645,0,1.14844.10498,1.62695.31445v1.13477c-.51465-.3374-1.10742-.50586-1.77734-.50586-.20996,0-.39844.02393-.56738.07178s-.31348.11523-.43457.20166c-.12012.08643-.21387.19043-.2793.31104-.06641.12061-.09961.25391-.09961.3999,0,.18213.0332.33496.09961.45801.06543.12305.16211.23242.29004.32812s.28223.18213.46484.25977.38965.16162.62207.25293c.30957.11865.58789.24023.83398.36572s.45605.2666.62891.42383.30664.33838.40039.54346c.09277.20508.13965.44873.13965.73145,0,.34619-.07617.64697-.22949.90234-.15234.25537-.35645.46729-.61133.63574s-.54883.29395-.88184.37598-.68164.12305-1.0459.12305c-.71973,0-1.34473-.13916-1.87305-.41699Z" fill="#2f2f2f"/>
        <path d="M423.39147,182.19982h-1.57227l-3.08984-3.36328h-.02734v3.36328h-1.12109v-10.36328h1.12109v6.56934h.02734l2.93945-3.20605h1.46973l-3.24707,3.37695,3.5,3.62305Z" fill="#2f2f2f"/>
      </g>
      <g>
        <rect x="353.31816" y="85.24412" width="114.4" height="15.35588" fill="none"/>
        <path d="M371.25134,87.3424l-3.62988,9.80273h-1.26465l-3.55469-9.80273h1.27832l2.71387,7.77246c.08643.25049.15283.54004.19824.86816h.02734c.03662-.27344.11182-.56738.22559-.88184l2.76855-7.75879h1.2373Z" fill="#2f2f2f"/>
        <path d="M373.16296,88.36779c-.20068,0-.37158-.06836-.5127-.20508s-.21191-.31006-.21191-.51953.0708-.38379.21191-.52295.31201-.2085.5127-.2085c.20508,0,.37939.06934.52295.2085s.21533.31348.21533.52295c0,.20068-.07178.37158-.21533.5127s-.31787.21191-.52295.21191ZM373.70983,97.14514h-1.12109v-7h1.12109v7Z" fill="#2f2f2f"/>
        <path d="M379.47888,91.2799c-.1958-.15039-.47852-.22559-.84766-.22559-.47852,0-.87842.22559-1.19971.67676s-.48193,1.06641-.48193,1.8457v3.56836h-1.12109v-7h1.12109v1.44238h.02734c.15967-.49219.40332-.87598.73145-1.15186s.69482-.41357,1.10059-.41357c.2915,0,.51514.03174.66992.0957v1.16211Z" fill="#2f2f2f"/>
        <path d="M384.39782,97.07678c-.26416.146-.61279.21875-1.0459.21875-1.22607,0-1.83887-.68359-1.83887-2.05078v-4.14258h-1.20312v-.95703h1.20312v-1.70898l1.12109-.3623v2.07129h1.76367v.95703h-1.76367v3.94434c0,.46924.07959.8042.23926,1.00488s.42383.30078.79297.30078c.28271,0,.52637-.07764.73145-.23242v.95703Z" fill="#2f2f2f"/>
        <path d="M391.5155,97.14514h-1.12109v-1.10742h-.02734c-.46484.84766-1.18506,1.27148-2.16016,1.27148-1.66797,0-2.50195-.99365-2.50195-2.98047v-4.18359h1.11426v4.00586c0,1.47656.56494,2.21484,1.69531,2.21484.54688,0,.99707-.20166,1.3501-.60498s.52979-.93066.52979-1.58252v-4.0332h1.12109v7Z" fill="#2f2f2f"/>
        <path d="M398.67126,97.14514h-1.12109v-1.09375h-.02734c-.48779.83838-1.20557,1.25781-2.15332,1.25781-.69727,0-1.24316-.18457-1.63721-.55371s-.59131-.85889-.59131-1.46973c0-1.30811.77002-2.06885,2.31055-2.2832l2.09863-.29395c0-1.18945-.48096-1.78418-1.44238-1.78418-.84326,0-1.604.28711-2.2832.86133v-1.14844c.68799-.4375,1.48096-.65625,2.37891-.65625,1.64502,0,2.46777.87061,2.46777,2.61133v4.55273ZM397.55017,93.60412l-1.68848.23242c-.51953.07275-.91162.20166-1.17578.38623s-.39648.51172-.39648.98096c0,.3418.12207.62109.36572.8374s.56836.32471.97412.32471c.55615,0,1.01514-.19482,1.37744-.58447s.54346-.88281.54346-1.47998v-.69727Z" fill="#2f2f2f"/>
        <path d="M401.81237,97.14514h-1.12109v-10.36328h1.12109v10.36328Z" fill="#2f2f2f"/>
        <path d="M417.85632,97.14514h-1.12109v-4.01953c0-.7749-.11963-1.33545-.35889-1.68164s-.6416-.51953-1.20654-.51953c-.47852,0-.88525.21875-1.22021.65625s-.50244.96143-.50244,1.57227v3.99219h-1.12109v-4.15625c0-1.37646-.53076-2.06445-1.59277-2.06445-.49219,0-.89795.20605-1.2168.61865s-.47852.94922-.47852,1.60986v3.99219h-1.12109v-7h1.12109v1.10742h.02734c.49658-.84766,1.22119-1.27148,2.17383-1.27148.47852,0,.89551.1333,1.25098.3999s.59912.61621.73145,1.04932c.51953-.96631,1.29443-1.44922,2.32422-1.44922,1.54053,0,2.31055.9502,2.31055,2.85059v4.31348Z" fill="#2f2f2f"/>
        <path d="M424.89099,97.14514h-1.12109v-1.09375h-.02734c-.48779.83838-1.20557,1.25781-2.15332,1.25781-.69727,0-1.24316-.18457-1.63721-.55371s-.59131-.85889-.59131-1.46973c0-1.30811.77002-2.06885,2.31055-2.2832l2.09863-.29395c0-1.18945-.48096-1.78418-1.44238-1.78418-.84326,0-1.604.28711-2.2832.86133v-1.14844c.68799-.4375,1.48096-.65625,2.37891-.65625,1.64502,0,2.46777.87061,2.46777,2.61133v4.55273ZM423.76989,93.60412l-1.68848.23242c-.51953.07275-.91162.20166-1.17578.38623s-.39648.51172-.39648.98096c0,.3418.12207.62109.36572.8374s.56836.32471.97412.32471c.55615,0,1.01514-.19482,1.37744-.58447s.54346-.88281.54346-1.47998v-.69727Z" fill="#2f2f2f"/>
        <path d="M431.73425,96.82385c-.5376.32373-1.17578.48535-1.91406.48535-.99805,0-1.80371-.32471-2.4165-.97412s-.91943-1.49121-.91943-2.52588c0-1.15283.33057-2.0791.99121-2.77881s1.54248-1.04932,2.64551-1.04932c.61523,0,1.15771.11377,1.62695.3418v1.14844c-.51953-.36475-1.07568-.54688-1.66797-.54688-.71533,0-1.30225.25635-1.76025.76904s-.68701,1.18604-.68701,2.02002c0,.82031.21533,1.46729.646,1.94141s1.0083.71094,1.73291.71094c.61084,0,1.18506-.20264,1.72266-.6084v1.06641Z" fill="#2f2f2f"/>
        <path d="M439.03308,97.14514h-1.12109v-4.0332c0-1.4585-.54248-2.1875-1.62695-2.1875-.54688,0-1.00732.21094-1.38086.63232s-.56055.96289-.56055,1.62354v3.96484h-1.12109v-10.36328h1.12109v4.52539h.02734c.5376-.88428,1.30322-1.32617,2.29688-1.32617,1.57666,0,2.36523.9502,2.36523,2.85059v4.31348Z" fill="#2f2f2f"/>
        <path d="M441.61706,88.36779c-.20068,0-.37158-.06836-.5127-.20508s-.21191-.31006-.21191-.51953.0708-.38379.21191-.52295.31201-.2085.5127-.2085c.20508,0,.37939.06934.52295.2085s.21533.31348.21533.52295c0,.20068-.07178.37158-.21533.5127s-.31787.21191-.52295.21191ZM442.16393,97.14514h-1.12109v-7h1.12109v7Z" fill="#2f2f2f"/>
        <path d="M450.09313,97.14514h-1.12109v-3.99219c0-1.48584-.54248-2.22852-1.62695-2.22852-.56055,0-1.02441.21094-1.39111.63232s-.55029.95361-.55029,1.59619v3.99219h-1.12109v-7h1.12109v1.16211h.02734c.52881-.88428,1.29443-1.32617,2.29688-1.32617.76562,0,1.35107.24707,1.75684.7417s.6084,1.20898.6084,2.14307v4.2793Z" fill="#2f2f2f"/>
        <path d="M457.79626,93.92541h-4.94238c.01807.7793.22803,1.38086.62891,1.80469s.95264.63574,1.6543.63574c.78857,0,1.51318-.25977,2.17383-.7793v1.05273c-.61523.44678-1.42871.66992-2.44043.66992-.98877,0-1.76611-.31787-2.33105-.95361s-.84766-1.53027-.84766-2.68311c0-1.08936.30859-1.97656.92627-2.6626s1.38428-1.02881,2.30029-1.02881,1.62451.29639,2.12598.88867.75195,1.41504.75195,2.46777v.58789ZM456.64782,92.97522c-.00439-.64697-.16064-1.15088-.46826-1.51074s-.73486-.54004-1.28174-.54004c-.52881,0-.97754.18896-1.34668.56738s-.59717.87256-.68359,1.4834h3.78027Z" fill="#2f2f2f"/>
      </g>
    </g>
  </g>
</svg>