<?xml version="1.0" encoding="UTF-8"?>
<svg xmlns="http://www.w3.org/2000/svg" width="721.6" height="184.8" xmlns:xlink="http://www.w3.org/1999/xlink" viewBox="0 0 721.6 184.8">
  <defs>
    <filter id="drop-shadow-2" filterUnits="userSpaceOnUse">
      <feOffset dx="1" dy="1"/>
      <feGaussianBlur result="blur" stdDeviation="0"/>
      <feFlood flood-color="#000" flood-opacity=".23"/>
      <feComposite in2="blur" operator="in"/>
      <feComposite in="SourceGraphic"/>
    </filter>
    <linearGradient id="Cool_gray_gradient_1" data-name="Cool gray gradient 1" x1="107.30573" y1="92.4" x2="303.6" y2="92.4" gradientUnits="userSpaceOnUse">
      <stop offset="0" stop-color="#f5f5f4"/>
      <stop offset="1" stop-color="#ececea"/>
    </linearGradient>
    <linearGradient id="Cool_gray_gradient_1-2" data-name="Cool gray gradient 1" x1="311.90573" x2="508.2" xlink:href="#Cool_gray_gradient_1"/>
    <linearGradient id="Cool_gray_gradient_1-3" data-name="Cool gray gradient 1" x1="516.50573" x2="712.8" xlink:href="#Cool_gray_gradient_1"/>
    <filter id="drop-shadow-2-1" x="9.80323" y="45.86391" width="293.92177" height="109.00182" filterUnits="userSpaceOnUse">
      <feOffset dx="1" dy="1"/>
      <feGaussianBlur result="blur-2" stdDeviation="0"/>
      <feFlood flood-color="#000" flood-opacity=".23"/>
      <feComposite in2="blur-2" operator="in"/>
      <feComposite in="SourceGraphic"/>
    </filter>
    <linearGradient id="linear-gradient" x1="-434.90437" y1="1983.36221" x2="-416.90301" y2="1983.36221" gradientTransform="translate(562.8109 2092.89398) rotate(.147) scale(1 -1)" gradientUnits="userSpaceOnUse">
      <stop offset="0" stop-color="#005ba1"/>
      <stop offset=".068" stop-color="#0060a9"/>
      <stop offset=".356" stop-color="#0071c8"/>
      <stop offset=".517" stop-color="#0078d4"/>
      <stop offset=".642" stop-color="#0074cd"/>
      <stop offset=".82" stop-color="#006abb"/>
      <stop offset="1" stop-color="#005ba1"/>
    </linearGradient>
    <linearGradient id="linear-gradient-2" x1="-373.79312" y1="1983.519" x2="-355.79177" y2="1983.519" xlink:href="#linear-gradient"/>
    <linearGradient id="linear-gradient-3" x1="-312.68188" y1="1983.67579" x2="-294.68052" y2="1983.67579" xlink:href="#linear-gradient"/>
    <linearGradient id="linear-gradient-4" x1="-513.40348" y1="1013.72661" x2="-500.23511" y2="999.40619" gradientTransform="translate(564 1684.17371) scale(1 -1.59)" gradientUnits="userSpaceOnUse">
      <stop offset="0" stop-color="#0078d4"/>
      <stop offset=".02" stop-color="#0d7ed8"/>
      <stop offset=".08" stop-color="#2b8ae0"/>
      <stop offset=".15" stop-color="#4194e7"/>
      <stop offset=".22" stop-color="#519beb"/>
      <stop offset=".29" stop-color="#5b9fee"/>
      <stop offset=".4" stop-color="#5ea0ef"/>
      <stop offset=".55" stop-color="#5b9fee"/>
      <stop offset=".68" stop-color="#509aeb"/>
      <stop offset=".8" stop-color="#3f92e6"/>
      <stop offset=".91" stop-color="#2688df"/>
      <stop offset=".99" stop-color="#127fd9"/>
    </linearGradient>
  </defs>
  <g isolation="isolate">
    <g id="Shapes">
      <rect width="721.6" height="184.8" fill="#fff"/>
      <g>
        <g mix-blend-mode="multiply" opacity=".65">
          <rect x="108.30573" y="9.8" width="196.29427" height="167.2" rx="8" ry="8" fill="#2b436f"/>
          <rect x="108.30573" y="9.8" width="196.29427" height="167.2" rx="8" ry="8" fill="#2b436f" opacity=".4"/>
        </g>
        <g>
          <rect x="107.30573" y="8.8" width="196.29427" height="167.2" rx="8" ry="8" fill="url(#Cool_gray_gradient_1)"/>
          <rect x="107.30573" y="8.8" width="196.29427" height="167.2" rx="8" ry="8" fill="#8ec8e7" opacity=".4"/>
        </g>
      </g>
      <g>
        <g mix-blend-mode="multiply" opacity=".65">
          <rect x="312.90573" y="9.8" width="196.29427" height="167.2" rx="8" ry="8" fill="#2b436f"/>
          <rect x="312.90573" y="9.8" width="196.29427" height="167.2" rx="8" ry="8" fill="#2b436f" opacity=".4"/>
        </g>
        <g>
          <rect x="311.90573" y="8.8" width="196.29427" height="167.2" rx="8" ry="8" fill="url(#Cool_gray_gradient_1-2)"/>
          <rect x="311.90573" y="8.8" width="196.29427" height="167.2" rx="8" ry="8" fill="#8ec8e7" opacity=".4"/>
        </g>
      </g>
      <g>
        <g mix-blend-mode="multiply" opacity=".65">
          <rect x="517.50573" y="9.8" width="196.29427" height="167.2" rx="8" ry="8" fill="#2b436f"/>
          <rect x="517.50573" y="9.8" width="196.29427" height="167.2" rx="8" ry="8" fill="#2b436f" opacity=".4"/>
        </g>
        <g>
          <rect x="516.50573" y="8.8" width="196.29427" height="167.2" rx="8" ry="8" fill="url(#Cool_gray_gradient_1-3)"/>
          <rect x="516.50573" y="8.8" width="196.29427" height="167.2" rx="8" ry="8" fill="#8ec8e7" opacity=".4"/>
        </g>
      </g>
      <rect x="9.92823" y="45.98891" width="293.67177" height="108.75182" fill="#fff" filter="url(#drop-shadow-2-1)" stroke="#8e8278" stroke-width=".25"/>
      <g id="bdd66f0d-1091-4867-9f64-cdf433204a8a">
        <g>
          <path d="M142.01412,101.35807c-4.97108-.01271-8.99623-1.4909-8.992-3.30229l-.04518,17.44326c0,1.79586,3.95315,3.26417,8.86917,3.30088h.12283c4.97108.01271,9.0047-1.44431,9.00894-3.2557l.04518-17.44326c-.00423,1.8128-4.03785,3.26981-9.00894,3.25711Z" fill="url(#linear-gradient)"/>
          <path d="M151.02305,98.10237c0,1.80998-4.03786,3.26841-9.00894,3.2557s-8.99623-1.4909-8.992-3.30229,4.03644-3.2684,9.00894-3.2557c4.97249.01271,8.99623,1.4909,8.992,3.30229" fill="#e6e6e6"/>
          <path d="M148.918,97.8313c0,1.15206-3.09475,2.07681-6.90389,2.06693s-6.89401-.95017-6.89118-2.10223,3.09475-2.07681,6.9053-2.06693c3.81055.00988,6.89683.95017,6.894,2.10223" fill="#50e6ff"/>
          <path d="M142.02118,98.29438c-1.8528-.04839-3.7006.21408-5.46664.77651,1.75952.5905,3.60835.87045,5.46381.82734,1.85475.05233,3.70448-.21806,5.46664-.7991-1.76345-.57192-3.61035-.84394-5.46381-.80475Z" fill="#198ab3"/>
        </g>
      </g>
      <g id="bdd66f0d-1091-4867-9f64-cdf433204a8a-2" data-name="bdd66f0d-1091-4867-9f64-cdf433204a8a">
        <g>
          <path d="M203.12576,101.35807c-4.97108-.01271-8.99623-1.4909-8.992-3.30229l-.04518,17.44326c0,1.79586,3.95315,3.26417,8.86917,3.30088h.12283c4.97108.01271,9.0047-1.44431,9.00894-3.2557l.04518-17.44326c-.00423,1.8128-4.03785,3.26981-9.00894,3.25711Z" fill="url(#linear-gradient-2)"/>
          <path d="M212.1347,98.10237c0,1.80998-4.03786,3.26841-9.00894,3.2557s-8.99623-1.4909-8.992-3.30229,4.03644-3.2684,9.00894-3.2557c4.97249.01271,8.99623,1.4909,8.992,3.30229" fill="#e6e6e6"/>
          <path d="M210.02965,97.8313c0,1.15206-3.09475,2.07681-6.90389,2.06693s-6.89401-.95017-6.89118-2.10223,3.09475-2.07681,6.9053-2.06693c3.81055.00988,6.89683.95017,6.894,2.10223" fill="#50e6ff"/>
          <path d="M203.13282,98.29438c-1.8528-.04839-3.7006.21408-5.46664.77651,1.75952.5905,3.60835.87045,5.46381.82734,1.85475.05233,3.70448-.21806,5.46664-.7991-1.76345-.57192-3.61035-.84394-5.46381-.80475Z" fill="#198ab3"/>
        </g>
      </g>
      <g id="bdd66f0d-1091-4867-9f64-cdf433204a8a-3" data-name="bdd66f0d-1091-4867-9f64-cdf433204a8a">
        <g>
          <path d="M264.23741,101.35807c-4.97108-.01271-8.99623-1.4909-8.992-3.30229l-.04518,17.44326c0,1.79586,3.95315,3.26417,8.86917,3.30088h.12283c4.97108.01271,9.0047-1.44431,9.00894-3.2557l.04518-17.44326c-.00423,1.8128-4.03785,3.26981-9.00894,3.25711Z" fill="url(#linear-gradient-3)"/>
          <path d="M273.24635,98.10237c0,1.80998-4.03786,3.26841-9.00894,3.2557s-8.99623-1.4909-8.992-3.30229,4.03644-3.2684,9.00894-3.2557c4.97249.01271,8.99623,1.4909,8.992,3.30229" fill="#e6e6e6"/>
          <path d="M271.14129,97.8313c0,1.15206-3.09475,2.07681-6.90389,2.06693s-6.89401-.95017-6.89118-2.10223,3.09475-2.07681,6.9053-2.06693c3.81055.00988,6.89683.95017,6.894,2.10223" fill="#50e6ff"/>
          <path d="M264.24447,98.29438c-1.8528-.04839-3.7006.21408-5.46664.77651,1.75952.5905,3.60835.87045,5.46381.82734,1.85475.05233,3.70448-.21806,5.46664-.7991-1.76345-.57192-3.61035-.84394-5.46381-.80475Z" fill="#198ab3"/>
        </g>
      </g>
      <g>
        <ellipse cx="57.71604" cy="96.76374" rx="13.29243" ry="5.45876" fill="#76bc2d"/>
        <ellipse cx="58.05278" cy="96.71057" rx="4.41309" ry="1.20518" fill="#5e9624"/>
        <ellipse cx="57.71604" cy="84.65876" rx="13.29243" ry="5.45876" fill="url(#linear-gradient-4)"/>
        <ellipse cx="58.05278" cy="84.58787" rx="4.41309" ry="1.20518" fill="#005ba1"/>
        <path d="M57.78694,102.11616c7.35515,0,13.29243-2.44581,13.29243-5.45876h0v3.22563h0c-.24812,2.92433-6.0968,5.31697-13.29243,5.31697s-13.29243-2.44581-13.29243-5.45876v-3.08384c-.07089,3.01295,5.88412,5.45876,13.29243,5.45876Z" fill="#5e9624"/>
        <path d="M57.78694,89.99346c7.35515,0,13.29243-2.44581,13.29243-5.45876h0v3.22563h0c-.24812,2.92433-6.0968,5.31697-13.29243,5.31697s-13.29243-2.44581-13.29243-5.45876v-3.08384c-.07089,3.01295,5.88412,5.45876,13.29243,5.45876Z" fill="#0078d4"/>
      </g>
    </g>
    <g id="Text">
      <g>
        <path d="M44.61803,123.08047v-9.80273h3.47266c3.48145,0,5.22266,1.59277,5.22266,4.77832,0,1.52686-.47461,2.74561-1.42578,3.65723-.94922.91162-2.21582,1.36719-3.79688,1.36719h-3.47266ZM46.82604,115.07559v6.21387h1.09375c.95703,0,1.70801-.28711,2.25293-.86133.54395-.57422.81641-1.35596.81641-2.34473,0-.93408-.26953-1.66895-.81055-2.20459-.53906-.53564-1.29688-.80322-2.27246-.80322h-1.08008Z" fill="#2f2f2f"/>
        <path d="M55.81139,114.97305c-.36426,0-.66309-.1084-.89551-.32471s-.34863-.48193-.34863-.79639c0-.32373.11621-.58789.34863-.79297s.53125-.30762.89551-.30762c.36914,0,.66895.10254.89941.30762.22949.20508.34473.46924.34473.79297,0,.32812-.11523.59717-.34473.80664-.23047.20947-.53027.31445-.89941.31445ZM56.8778,123.08047h-2.16016v-7h2.16016v7Z" fill="#2f2f2f"/>
        <path d="M58.31628,122.8959v-1.75c.35547.21436.70996.37354,1.0625.47852.35352.10498.6875.15723,1.00195.15723.38281,0,.68457-.05225.90625-.15723.2207-.10498.33105-.26416.33105-.47852,0-.13672-.0498-.25049-.15039-.3418s-.22949-.1709-.38574-.23926c-.1582-.06836-.33008-.12988-.5166-.18457s-.36719-.11621-.54004-.18457c-.27832-.10498-.52344-.21777-.73438-.33838-.21289-.12061-.39062-.26074-.5332-.42041-.14453-.15967-.25391-.34424-.32812-.55371-.07617-.20947-.11328-.45801-.11328-.74512,0-.39209.08594-.729.25586-1.01172.17188-.28271.39941-.51367.68359-.69385.28516-.18018.61133-.31201.97852-.39648.36621-.08447.74805-.12646,1.14453-.12646.30957,0,.62402.02393.94336.07178s.63379.11719.94336.2085v1.66797c-.27344-.15967-.56641-.2793-.87891-.35889-.31152-.07959-.61816-.11963-.91895-.11963-.1416,0-.27441.0127-.39941.0376-.12598.0249-.23633.06152-.33203.10938s-.1709.10938-.22559.18457-.08203.16064-.08203.25635c0,.12744.04102.23682.12305.32812s.18945.16992.32129.23584.2793.12549.44141.17773c.16113.05225.32227.10596.48145.16064.28711.1001.54688.20947.7793.32812s.43164.25732.59863.41699c.16602.15967.29297.34619.38281.56055.08789.21436.13281.46924.13281.76562,0,.41455-.08984.76904-.26953,1.06299-.18066.29395-.41992.5332-.71875.71777-.29785.18457-.64258.31885-1.03125.40332-.39062.08447-.79492.12646-1.21387.12646-.77051,0-1.4834-.11865-2.13965-.35547Z" fill="#2f2f2f"/>
        <path d="M72.00573,123.08047h-2.59082l-2.23535-3.47266h-.02734v3.47266h-2.16016v-10.36328h2.16016v6.59668h.02734l2.08496-3.2334h2.56348l-2.50879,3.28809,2.68652,3.71191Z" fill="#2f2f2f"/>
      </g>
      <g>
        <path d="M189.05456,85.17568h-1.36719l-1.64062-2.74805c-.15039-.25586-.2959-.47266-.4375-.65332-.1416-.17969-.28613-.32715-.43359-.44043-.14844-.11426-.30859-.19727-.47852-.25-.17188-.05176-.36426-.07812-.57812-.07812h-.94336v4.16992h-1.14844v-9.80273h2.92578c.42871,0,.82422.05371,1.18555.16016.36328.10742.67773.27051.94336.48926.26758.21875.47559.49121.62598.81641.15039.32617.22559.70801.22559,1.14551,0,.3418-.05078.65527-.1543.93945-.10156.28516-.24805.53906-.4375.7627-.18848.22266-.41602.41309-.68359.57031-.26562.15723-.56543.2793-.89844.36621v.02734c.16406.07227.30664.15625.42773.24902.12012.09375.23535.2041.34473.33203.10938.12695.21777.27246.3252.43359.10645.16211.22656.34961.3584.56445l1.83887,2.94629ZM183.17565,76.41201v3.55469h1.55859c.28711,0,.55273-.04395.79688-.12988.24316-.08691.4541-.21094.63184-.37305.17773-.16113.31641-.35938.41699-.59473.10059-.23438.15039-.49805.15039-.78906,0-.52441-.16992-.93359-.50977-1.22754-.33887-.29395-.83008-.44043-1.47266-.44043h-1.57227Z" fill="#2f2f2f"/>
        <path d="M195.66686,81.95596h-4.94238c.01855.7793.22754,1.38086.62891,1.80469s.95215.63574,1.6543.63574c.78809,0,1.5127-.25977,2.17383-.7793v1.05273c-.61523.44629-1.42871.66992-2.44043.66992-.98926,0-1.76562-.31836-2.33105-.9541s-.84766-1.53027-.84766-2.68262c0-1.08984.30859-1.97656.92578-2.66309.61816-.68555,1.38477-1.02832,2.30078-1.02832s1.625.2959,2.12598.88867c.50098.5918.75195,1.41504.75195,2.46777v.58789ZM194.51842,81.00576c-.00488-.64746-.16113-1.15137-.46777-1.51074-.30859-.36035-.73535-.54004-1.28223-.54004-.52832,0-.97754.18848-1.34668.56738-.36914.37793-.59668.87207-.68359,1.4834h3.78027Z" fill="#2f2f2f"/>
        <path d="M198.49792,84.16396h-.02734v4.23145h-1.12109v-10.21973h1.12109v1.23047h.02734c.55176-.92969,1.3584-1.39453,2.41992-1.39453.90234,0,1.60645.31348,2.1123.93945.50586.62695.75879,1.4668.75879,2.51953,0,1.1709-.28516,2.1084-.85449,2.8125s-1.34863,1.05664-2.33789,1.05664c-.90723,0-1.60645-.39258-2.09863-1.17578ZM198.47057,81.34072v.97754c0,.57812.1875,1.06934.56445,1.47266.375.40332.85254.60547,1.43164.60547.67871,0,1.21094-.25977,1.5957-.7793.38574-.51953.57812-1.24219.57812-2.16699,0-.7793-.17969-1.39062-.54004-1.83203-.36035-.44238-.84766-.66309-1.46289-.66309-.65137,0-1.17578.22656-1.57227.67969-.39648.4541-.59473,1.02246-.59473,1.70605Z" fill="#2f2f2f"/>
        <path d="M206.63952,85.17568h-1.12109v-10.36328h1.12109v10.36328Z" fill="#2f2f2f"/>
        <path d="M209.32604,76.39834c-.2002,0-.37109-.06836-.5127-.20508s-.21191-.31055-.21191-.51953c0-.20996.07031-.38379.21191-.52344.1416-.13867.3125-.20801.5127-.20801.20508,0,.37891.06934.52344.20801.14258.13965.21484.31348.21484.52344,0,.2002-.07227.37109-.21484.5127-.14453.14062-.31836.21191-.52344.21191ZM209.87292,85.17568h-1.12109v-7h1.12109v7Z" fill="#2f2f2f"/>
        <path d="M216.786,84.85439c-.53809.32324-1.17578.48535-1.91406.48535-.99805,0-1.80371-.3252-2.41602-.97461-.61328-.64941-.91992-1.49121-.91992-2.52539,0-1.15332.33008-2.0791.99121-2.7793.66113-.69922,1.54297-1.04883,2.64551-1.04883.61523,0,1.15723.11328,1.62695.3418v1.14844c-.51953-.36523-1.0752-.54688-1.66797-.54688-.71582,0-1.30273.25586-1.75977.76855-.45898.5127-.6875,1.18652-.6875,2.02051,0,.82031.21484,1.4668.64648,1.94141.42969.47363,1.00781.71094,1.73242.71094.61035,0,1.18457-.20312,1.72266-.6084v1.06641Z" fill="#2f2f2f"/>
        <path d="M223.52917,85.17568h-1.12109v-1.09375h-.02734c-.4873.83789-1.20508,1.25781-2.15332,1.25781-.69727,0-1.24316-.18457-1.63672-.55371-.39453-.36914-.5918-.85938-.5918-1.46973,0-1.30859.77051-2.06934,2.31055-2.2832l2.09863-.29395c0-1.18945-.48047-1.78418-1.44238-1.78418-.84277,0-1.60449.28711-2.2832.86133v-1.14844c.68848-.4375,1.48145-.65625,2.37891-.65625,1.64551,0,2.46777.87012,2.46777,2.61133v4.55273ZM222.40807,81.63467l-1.68848.23242c-.51953.07227-.91113.20117-1.17578.38574s-.39648.51172-.39648.98145c0,.3418.12207.62109.36523.83691.24414.2168.56934.3252.97461.3252.55566,0,1.01562-.19531,1.37695-.58496.36328-.38965.54395-.88281.54395-1.47949v-.69727Z" fill="#2f2f2f"/>
      </g>
      <g>
        <path d="M250.65319,85.17568h-1.36719l-1.64062-2.74805c-.15039-.25586-.2959-.47266-.4375-.65332-.1416-.17969-.28613-.32715-.43359-.44043-.14844-.11426-.30859-.19727-.47852-.25-.17188-.05176-.36426-.07812-.57812-.07812h-.94336v4.16992h-1.14844v-9.80273h2.92578c.42871,0,.82422.05371,1.18555.16016.36328.10742.67773.27051.94336.48926.26758.21875.47559.49121.62598.81641.15039.32617.22559.70801.22559,1.14551,0,.3418-.05078.65527-.1543.93945-.10156.28516-.24805.53906-.4375.7627-.18848.22266-.41602.41309-.68359.57031-.26562.15723-.56543.2793-.89844.36621v.02734c.16406.07227.30664.15625.42773.24902.12012.09375.23535.2041.34473.33203.10938.12695.21777.27246.3252.43359.10645.16211.22656.34961.3584.56445l1.83887,2.94629ZM244.77428,76.41201v3.55469h1.55859c.28711,0,.55273-.04395.79688-.12988.24316-.08691.4541-.21094.63184-.37305.17773-.16113.31641-.35938.41699-.59473.10059-.23438.15039-.49805.15039-.78906,0-.52441-.16992-.93359-.50977-1.22754-.33887-.29395-.83008-.44043-1.47266-.44043h-1.57227Z" fill="#2f2f2f"/>
        <path d="M257.2655,81.95596h-4.94238c.01855.7793.22754,1.38086.62891,1.80469s.95215.63574,1.6543.63574c.78809,0,1.5127-.25977,2.17383-.7793v1.05273c-.61523.44629-1.42871.66992-2.44043.66992-.98926,0-1.76562-.31836-2.33105-.9541s-.84766-1.53027-.84766-2.68262c0-1.08984.30859-1.97656.92578-2.66309.61816-.68555,1.38477-1.02832,2.30078-1.02832s1.625.2959,2.12598.88867c.50098.5918.75195,1.41504.75195,2.46777v.58789ZM256.11706,81.00576c-.00488-.64746-.16113-1.15137-.46777-1.51074-.30859-.36035-.73535-.54004-1.28223-.54004-.52832,0-.97754.18848-1.34668.56738-.36914.37793-.59668.87207-.68359,1.4834h3.78027Z" fill="#2f2f2f"/>
        <path d="M260.09655,84.16396h-.02734v4.23145h-1.12109v-10.21973h1.12109v1.23047h.02734c.55176-.92969,1.3584-1.39453,2.41992-1.39453.90234,0,1.60645.31348,2.1123.93945.50586.62695.75879,1.4668.75879,2.51953,0,1.1709-.28516,2.1084-.85449,2.8125s-1.34863,1.05664-2.33789,1.05664c-.90723,0-1.60645-.39258-2.09863-1.17578ZM260.06921,81.34072v.97754c0,.57812.1875,1.06934.56445,1.47266.375.40332.85254.60547,1.43164.60547.67871,0,1.21094-.25977,1.5957-.7793.38574-.51953.57812-1.24219.57812-2.16699,0-.7793-.17969-1.39062-.54004-1.83203-.36035-.44238-.84766-.66309-1.46289-.66309-.65137,0-1.17578.22656-1.57227.67969-.39648.4541-.59473,1.02246-.59473,1.70605Z" fill="#2f2f2f"/>
        <path d="M268.23815,85.17568h-1.12109v-10.36328h1.12109v10.36328Z" fill="#2f2f2f"/>
        <path d="M270.92467,76.39834c-.2002,0-.37109-.06836-.5127-.20508s-.21191-.31055-.21191-.51953c0-.20996.07031-.38379.21191-.52344.1416-.13867.3125-.20801.5127-.20801.20508,0,.37891.06934.52344.20801.14258.13965.21484.31348.21484.52344,0,.2002-.07227.37109-.21484.5127-.14453.14062-.31836.21191-.52344.21191ZM271.47155,85.17568h-1.12109v-7h1.12109v7Z" fill="#2f2f2f"/>
        <path d="M278.38464,84.85439c-.53809.32324-1.17578.48535-1.91406.48535-.99805,0-1.80371-.3252-2.41602-.97461-.61328-.64941-.91992-1.49121-.91992-2.52539,0-1.15332.33008-2.0791.99121-2.7793.66113-.69922,1.54297-1.04883,2.64551-1.04883.61523,0,1.15723.11328,1.62695.3418v1.14844c-.51953-.36523-1.0752-.54688-1.66797-.54688-.71582,0-1.30273.25586-1.75977.76855-.45898.5127-.6875,1.18652-.6875,2.02051,0,.82031.21484,1.4668.64648,1.94141.42969.47363,1.00781.71094,1.73242.71094.61035,0,1.18457-.20312,1.72266-.6084v1.06641Z" fill="#2f2f2f"/>
        <path d="M285.1278,85.17568h-1.12109v-1.09375h-.02734c-.4873.83789-1.20508,1.25781-2.15332,1.25781-.69727,0-1.24316-.18457-1.63672-.55371-.39453-.36914-.5918-.85938-.5918-1.46973,0-1.30859.77051-2.06934,2.31055-2.2832l2.09863-.29395c0-1.18945-.48047-1.78418-1.44238-1.78418-.84277,0-1.60449.28711-2.2832.86133v-1.14844c.68848-.4375,1.48145-.65625,2.37891-.65625,1.64551,0,2.46777.87012,2.46777,2.61133v4.55273ZM284.00671,81.63467l-1.68848.23242c-.51953.07227-.91113.20117-1.17578.38574s-.39648.51172-.39648.98145c0,.3418.12207.62109.36523.83691.24414.2168.56934.3252.97461.3252.55566,0,1.01562-.19531,1.37695-.58496.36328-.38965.54395-.88281.54395-1.47949v-.69727Z" fill="#2f2f2f"/>
      </g>
      <g>
        <path d="M128.43053,85.17568h-1.36719l-1.64062-2.74805c-.15039-.25586-.2959-.47266-.4375-.65332-.1416-.17969-.28613-.32715-.43359-.44043-.14844-.11426-.30859-.19727-.47852-.25-.17188-.05176-.36426-.07812-.57812-.07812h-.94336v4.16992h-1.14844v-9.80273h2.92578c.42871,0,.82422.05371,1.18555.16016.36328.10742.67773.27051.94336.48926.26758.21875.47559.49121.62598.81641.15039.32617.22559.70801.22559,1.14551,0,.3418-.05078.65527-.1543.93945-.10156.28516-.24805.53906-.4375.7627-.18848.22266-.41602.41309-.68359.57031-.26562.15723-.56543.2793-.89844.36621v.02734c.16406.07227.30664.15625.42773.24902.12012.09375.23535.2041.34473.33203.10938.12695.21777.27246.3252.43359.10645.16211.22656.34961.3584.56445l1.83887,2.94629ZM122.55163,76.41201v3.55469h1.55859c.28711,0,.55273-.04395.79688-.12988.24316-.08691.4541-.21094.63184-.37305.17773-.16113.31641-.35938.41699-.59473.10059-.23438.15039-.49805.15039-.78906,0-.52441-.16992-.93359-.50977-1.22754-.33887-.29395-.83008-.44043-1.47266-.44043h-1.57227Z" fill="#2f2f2f"/>
        <path d="M135.04284,81.95596h-4.94238c.01855.7793.22754,1.38086.62891,1.80469s.95215.63574,1.6543.63574c.78809,0,1.5127-.25977,2.17383-.7793v1.05273c-.61523.44629-1.42871.66992-2.44043.66992-.98926,0-1.76562-.31836-2.33105-.9541s-.84766-1.53027-.84766-2.68262c0-1.08984.30859-1.97656.92578-2.66309.61816-.68555,1.38477-1.02832,2.30078-1.02832s1.625.2959,2.12598.88867c.50098.5918.75195,1.41504.75195,2.46777v.58789ZM133.8944,81.00576c-.00488-.64746-.16113-1.15137-.46777-1.51074-.30859-.36035-.73535-.54004-1.28223-.54004-.52832,0-.97754.18848-1.34668.56738-.36914.37793-.59668.87207-.68359,1.4834h3.78027Z" fill="#2f2f2f"/>
        <path d="M137.87389,84.16396h-.02734v4.23145h-1.12109v-10.21973h1.12109v1.23047h.02734c.55176-.92969,1.3584-1.39453,2.41992-1.39453.90234,0,1.60645.31348,2.1123.93945.50586.62695.75879,1.4668.75879,2.51953,0,1.1709-.28516,2.1084-.85449,2.8125s-1.34863,1.05664-2.33789,1.05664c-.90723,0-1.60645-.39258-2.09863-1.17578ZM137.84655,81.34072v.97754c0,.57812.1875,1.06934.56445,1.47266.375.40332.85254.60547,1.43164.60547.67871,0,1.21094-.25977,1.5957-.7793.38574-.51953.57812-1.24219.57812-2.16699,0-.7793-.17969-1.39062-.54004-1.83203-.36035-.44238-.84766-.66309-1.46289-.66309-.65137,0-1.17578.22656-1.57227.67969-.39648.4541-.59473,1.02246-.59473,1.70605Z" fill="#2f2f2f"/>
        <path d="M146.0155,85.17568h-1.12109v-10.36328h1.12109v10.36328Z" fill="#2f2f2f"/>
        <path d="M148.70202,76.39834c-.2002,0-.37109-.06836-.5127-.20508s-.21191-.31055-.21191-.51953c0-.20996.07031-.38379.21191-.52344.1416-.13867.3125-.20801.5127-.20801.20508,0,.37891.06934.52344.20801.14258.13965.21484.31348.21484.52344,0,.2002-.07227.37109-.21484.5127-.14453.14062-.31836.21191-.52344.21191ZM149.24889,85.17568h-1.12109v-7h1.12109v7Z" fill="#2f2f2f"/>
        <path d="M156.16198,84.85439c-.53809.32324-1.17578.48535-1.91406.48535-.99805,0-1.80371-.3252-2.41602-.97461-.61328-.64941-.91992-1.49121-.91992-2.52539,0-1.15332.33008-2.0791.99121-2.7793.66113-.69922,1.54297-1.04883,2.64551-1.04883.61523,0,1.15723.11328,1.62695.3418v1.14844c-.51953-.36523-1.0752-.54688-1.66797-.54688-.71582,0-1.30273.25586-1.75977.76855-.45898.5127-.6875,1.18652-.6875,2.02051,0,.82031.21484,1.4668.64648,1.94141.42969.47363,1.00781.71094,1.73242.71094.61035,0,1.18457-.20312,1.72266-.6084v1.06641Z" fill="#2f2f2f"/>
        <path d="M162.90514,85.17568h-1.12109v-1.09375h-.02734c-.4873.83789-1.20508,1.25781-2.15332,1.25781-.69727,0-1.24316-.18457-1.63672-.55371-.39453-.36914-.5918-.85938-.5918-1.46973,0-1.30859.77051-2.06934,2.31055-2.2832l2.09863-.29395c0-1.18945-.48047-1.78418-1.44238-1.78418-.84277,0-1.60449.28711-2.2832.86133v-1.14844c.68848-.4375,1.48145-.65625,2.37891-.65625,1.64551,0,2.46777.87012,2.46777,2.61133v4.55273ZM161.78405,81.63467l-1.68848.23242c-.51953.07227-.91113.20117-1.17578.38574s-.39648.51172-.39648.98145c0,.3418.12207.62109.36523.83691.24414.2168.56934.3252.97461.3252.55566,0,1.01562-.19531,1.37695-.58496.36328-.38965.54395-.88281.54395-1.47949v-.69727Z" fill="#2f2f2f"/>
      </g>
      <g>
        <path d="M153.91393,33.36904h-2.40625l-.69727-2.18066h-3.48633l-.69043,2.18066h-2.39258l3.56836-9.80273h2.61816l3.48633,9.80273ZM150.30456,29.49307l-1.05273-3.29492c-.07764-.24609-.13232-.54004-.16406-.88184h-.05469c-.02295.28711-.07959.57178-.1709.85449l-1.06641,3.32227h2.50879Z" fill="#2f2f2f"/>
        <path d="M161.27868,26.36904l-2.60449,7h-2.46094l-2.48145-7h2.31055l1.2168,4.31348c.13672.48779.21631.90234.23926,1.24414h.02734c.03174-.32373.11621-.72461.25293-1.20312l1.24414-4.35449h2.25586Z" fill="#2f2f2f"/>
        <path d="M167.93444,33.36904h-2.04395v-1.00488h-.02734c-.46924.78369-1.16455,1.17578-2.08496,1.17578-.6792,0-1.21338-.19238-1.60303-.57764s-.58447-.89893-.58447-1.5415c0-1.35791.8042-2.14209,2.41309-2.35156l1.90039-.25293c0-.76562-.41455-1.14844-1.24414-1.14844-.83398,0-1.62695.24854-2.37891.74512v-1.62695c.30078-.15479.71191-.2915,1.23389-.41016s.99707-.17773,1.42529-.17773c1.99609,0,2.99414.99561,2.99414,2.9873v4.18359ZM165.90417,30.52529v-.47168l-1.27148.16406c-.70166.09131-1.05273.40771-1.05273.9502,0,.24609.08545.44775.25635.60498s.40234.23584.69385.23584c.40576,0,.73584-.14014.99121-.42041s.38281-.63477.38281-1.06299Z" fill="#2f2f2f"/>
        <path d="M170.70495,25.26162c-.36475,0-.66309-.1084-.89551-.32471s-.34863-.48193-.34863-.79639c0-.32373.11621-.58789.34863-.79297s.53076-.30762.89551-.30762c.36914,0,.66895.10254.89893.30762s.34521.46924.34521.79297c0,.32812-.11523.59717-.34521.80664s-.52979.31445-.89893.31445ZM171.77135,33.36904h-2.16016v-7h2.16016v7Z" fill="#2f2f2f"/>
        <path d="M175.70641,33.36904h-2.16016v-10.36328h2.16016v10.36328Z" fill="#2f2f2f"/>
        <path d="M183.37145,33.36904h-2.04395v-1.00488h-.02734c-.46924.78369-1.16455,1.17578-2.08496,1.17578-.6792,0-1.21338-.19238-1.60303-.57764s-.58447-.89893-.58447-1.5415c0-1.35791.8042-2.14209,2.41309-2.35156l1.90039-.25293c0-.76562-.41455-1.14844-1.24414-1.14844-.83398,0-1.62695.24854-2.37891.74512v-1.62695c.30078-.15479.71191-.2915,1.23389-.41016s.99707-.17773,1.42529-.17773c1.99609,0,2.99414.99561,2.99414,2.9873v4.18359ZM181.34118,30.52529v-.47168l-1.27148.16406c-.70166.09131-1.05273.40771-1.05273.9502,0,.24609.08545.44775.25635.60498s.40234.23584.69385.23584c.40576,0,.73584-.14014.99121-.42041s.38281-.63477.38281-1.06299Z" fill="#2f2f2f"/>
        <path d="M187.25524,32.55557h-.02734v.81348h-2.16016v-10.36328h2.16016v4.41602h.02734c.5332-.81592,1.29199-1.22363,2.27637-1.22363.90234,0,1.59717.31006,2.08496.92969s.73145,1.46729.73145,2.54297c0,1.1665-.28467,2.10303-.85449,2.80957s-1.33057,1.05957-2.2832,1.05957c-.86133,0-1.51318-.32812-1.95508-.98438ZM187.19372,29.60244v.71777c0,.45117.12988.82471.38965,1.12109s.59229.44434.99805.44434c.49219,0,.87402-.19043,1.14502-.5708s.40674-.91943.40674-1.6167c0-.57861-.12402-1.03125-.37256-1.35693s-.60254-.48877-1.06299-.48877c-.43311,0-.79199.16162-1.07666.48535s-.42725.74512-.42725,1.26465Z" fill="#2f2f2f"/>
        <path d="M194.84313,25.26162c-.36475,0-.66309-.1084-.89551-.32471s-.34863-.48193-.34863-.79639c0-.32373.11621-.58789.34863-.79297s.53076-.30762.89551-.30762c.36914,0,.66895.10254.89893.30762s.34521.46924.34521.79297c0,.32812-.11523.59717-.34521.80664s-.52979.31445-.89893.31445ZM195.90954,33.36904h-2.16016v-7h2.16016v7Z" fill="#2f2f2f"/>
        <path d="M199.84509,33.36904h-2.16016v-10.36328h2.16016v10.36328Z" fill="#2f2f2f"/>
        <path d="M202.71374,25.26162c-.36475,0-.66309-.1084-.89551-.32471s-.34863-.48193-.34863-.79639c0-.32373.11621-.58789.34863-.79297s.53076-.30762.89551-.30762c.36914,0,.66895.10254.89893.30762s.34521.46924.34521.79297c0,.32812-.11523.59717-.34521.80664s-.52979.31445-.89893.31445ZM203.78014,33.36904h-2.16016v-7h2.16016v7Z" fill="#2f2f2f"/>
        <path d="M209.71618,33.28701c-.31885.16846-.7998.25293-1.44238.25293-1.52197,0-2.2832-.79053-2.2832-2.37207v-3.20605h-1.13477v-1.59277h1.13477v-1.51074l2.15332-.61523v2.12598h1.57227v1.59277h-1.57227v2.83008c0,.729.28955,1.09375.86816,1.09375.22803,0,.4624-.06592.7041-.19824v1.59961Z" fill="#2f2f2f"/>
        <path d="M217.94128,26.36904l-2.84375,7.56055c-.68359,1.81836-1.71338,2.72754-3.08984,2.72754-.52393,0-.95459-.05908-1.29199-.17773v-1.72266c.28711.16846.59912.25293.93652.25293.55615,0,.94336-.26221,1.16211-.78613l.36914-.86816-2.84375-6.98633h2.39258l1.30566,4.25879c.08203.26416.146.57666.19141.93652h.02734c.04102-.26416.11621-.57178.22559-.92285l1.31934-4.27246h2.13965Z" fill="#2f2f2f"/>
        <path d="M229.93835,33.36904h-7.89551v-1.27148l5.02441-6.7334h-4.66211v-1.79785h7.51953v1.2373l-4.91504,6.77441h4.92871v1.79102Z" fill="#2f2f2f"/>
        <path d="M234.4569,33.53994c-1.1665,0-2.08398-.32715-2.75146-.98096s-1.00146-1.5415-1.00146-2.6626c0-1.15771.34619-2.06348,1.03906-2.71729s1.62939-.98096,2.80957-.98096c1.16211,0,2.07373.32715,2.73438.98096s.99121,1.51855.99121,2.59424c0,1.16211-.34082,2.08057-1.02197,2.75488s-1.61426,1.01172-2.79932,1.01172ZM234.51159,27.85244c-.51025,0-.90674.17529-1.18945.52637s-.42383.84766-.42383,1.49023c0,1.34424.54248,2.0166,1.62695,2.0166,1.03467,0,1.55176-.69043,1.55176-2.07129,0-1.30811-.52197-1.96191-1.56543-1.96191Z" fill="#2f2f2f"/>
        <path d="M246.4193,33.36904h-2.15332v-3.88965c0-1.08447-.38721-1.62695-1.16211-1.62695-.37354,0-.68115.14355-.92285.43066s-.3623.65186-.3623,1.09375v3.99219h-2.16016v-7h2.16016v1.10742h.02734c.51514-.85205,1.26465-1.27832,2.24902-1.27832,1.54932,0,2.32422.96143,2.32422,2.88477v4.28613Z" fill="#2f2f2f"/>
        <path d="M254.44128,30.48428h-4.56641c.07275,1.01611.71338,1.52441,1.9209,1.52441.77002,0,1.44678-.18213,2.03027-.54688v1.55859c-.64697.34619-1.48779.51953-2.52246.51953-1.13037,0-2.00732-.31348-2.63184-.93994s-.93652-1.50049-.93652-2.62158c0-1.16211.3374-2.08252,1.01172-2.76172s1.50391-1.01855,2.48828-1.01855c1.021,0,1.81055.30322,2.36865.90918s.8374,1.42871.8374,2.46777v.90918ZM252.43835,29.15811c0-1.00244-.40576-1.50391-1.2168-1.50391-.34619,0-.646.14355-.89893.43066s-.40674.64502-.46143,1.07324h2.57715Z" fill="#2f2f2f"/>
        <path d="M264.36706,23.34756v10.02148h-2.15332v-7.58789c-.11865.10498-.25879.2041-.42041.29736s-.33398.17773-.51611.25293-.37158.13916-.56738.19141-.38965.08984-.58105.11279v-1.81836c.56055-.16406,1.08936-.37354,1.58594-.62891s.9458-.53564,1.34668-.84082h1.30566Z" fill="#2f2f2f"/>
      </g>
      <g>
        <path d="M357.66149,33.36904h-2.40625l-.69727-2.18066h-3.48633l-.69043,2.18066h-2.39258l3.56836-9.80273h2.61816l3.48633,9.80273ZM354.05212,29.49307l-1.05273-3.29492c-.07764-.24609-.13232-.54004-.16406-.88184h-.05469c-.02295.28711-.07959.57178-.1709.85449l-1.06641,3.32227h2.50879Z" fill="#2f2f2f"/>
        <path d="M365.02624,26.36904l-2.60449,7h-2.46094l-2.48145-7h2.31055l1.2168,4.31348c.13672.48779.21631.90234.23926,1.24414h.02734c.03174-.32373.11621-.72461.25293-1.20312l1.24414-4.35449h2.25586Z" fill="#2f2f2f"/>
        <path d="M371.682,33.36904h-2.04395v-1.00488h-.02734c-.46924.78369-1.16455,1.17578-2.08496,1.17578-.6792,0-1.21338-.19238-1.60303-.57764s-.58447-.89893-.58447-1.5415c0-1.35791.8042-2.14209,2.41309-2.35156l1.90039-.25293c0-.76562-.41455-1.14844-1.24414-1.14844-.83398,0-1.62695.24854-2.37891.74512v-1.62695c.30078-.15479.71191-.2915,1.23389-.41016s.99707-.17773,1.42529-.17773c1.99609,0,2.99414.99561,2.99414,2.9873v4.18359ZM369.65173,30.52529v-.47168l-1.27148.16406c-.70166.09131-1.05273.40771-1.05273.9502,0,.24609.08545.44775.25635.60498s.40234.23584.69385.23584c.40576,0,.73584-.14014.99121-.42041s.38281-.63477.38281-1.06299Z" fill="#2f2f2f"/>
        <path d="M374.45251,25.26162c-.36475,0-.66309-.1084-.89551-.32471s-.34863-.48193-.34863-.79639c0-.32373.11621-.58789.34863-.79297s.53076-.30762.89551-.30762c.36914,0,.66895.10254.89893.30762s.34521.46924.34521.79297c0,.32812-.11523.59717-.34521.80664s-.52979.31445-.89893.31445ZM375.51891,33.36904h-2.16016v-7h2.16016v7Z" fill="#2f2f2f"/>
        <path d="M379.45397,33.36904h-2.16016v-10.36328h2.16016v10.36328Z" fill="#2f2f2f"/>
        <path d="M387.11901,33.36904h-2.04395v-1.00488h-.02734c-.46924.78369-1.16455,1.17578-2.08496,1.17578-.6792,0-1.21338-.19238-1.60303-.57764s-.58447-.89893-.58447-1.5415c0-1.35791.8042-2.14209,2.41309-2.35156l1.90039-.25293c0-.76562-.41455-1.14844-1.24414-1.14844-.83398,0-1.62695.24854-2.37891.74512v-1.62695c.30078-.15479.71191-.2915,1.23389-.41016s.99707-.17773,1.42529-.17773c1.99609,0,2.99414.99561,2.99414,2.9873v4.18359ZM385.08874,30.52529v-.47168l-1.27148.16406c-.70166.09131-1.05273.40771-1.05273.9502,0,.24609.08545.44775.25635.60498s.40234.23584.69385.23584c.40576,0,.73584-.14014.99121-.42041s.38281-.63477.38281-1.06299Z" fill="#2f2f2f"/>
        <path d="M391.0028,32.55557h-.02734v.81348h-2.16016v-10.36328h2.16016v4.41602h.02734c.5332-.81592,1.29199-1.22363,2.27637-1.22363.90234,0,1.59717.31006,2.08496.92969s.73145,1.46729.73145,2.54297c0,1.1665-.28467,2.10303-.85449,2.80957s-1.33057,1.05957-2.2832,1.05957c-.86133,0-1.51318-.32812-1.95508-.98438ZM390.94128,29.60244v.71777c0,.45117.12988.82471.38965,1.12109s.59229.44434.99805.44434c.49219,0,.87402-.19043,1.14502-.5708s.40674-.91943.40674-1.6167c0-.57861-.12402-1.03125-.37256-1.35693s-.60254-.48877-1.06299-.48877c-.43311,0-.79199.16162-1.07666.48535s-.42725.74512-.42725,1.26465Z" fill="#2f2f2f"/>
        <path d="M398.59069,25.26162c-.36475,0-.66309-.1084-.89551-.32471s-.34863-.48193-.34863-.79639c0-.32373.11621-.58789.34863-.79297s.53076-.30762.89551-.30762c.36914,0,.66895.10254.89893.30762s.34521.46924.34521.79297c0,.32812-.11523.59717-.34521.80664s-.52979.31445-.89893.31445ZM399.6571,33.36904h-2.16016v-7h2.16016v7Z" fill="#2f2f2f"/>
        <path d="M403.59264,33.36904h-2.16016v-10.36328h2.16016v10.36328Z" fill="#2f2f2f"/>
        <path d="M406.4613,25.26162c-.36475,0-.66309-.1084-.89551-.32471s-.34863-.48193-.34863-.79639c0-.32373.11621-.58789.34863-.79297s.53076-.30762.89551-.30762c.36914,0,.66895.10254.89893.30762s.34521.46924.34521.79297c0,.32812-.11523.59717-.34521.80664s-.52979.31445-.89893.31445ZM407.5277,33.36904h-2.16016v-7h2.16016v7Z" fill="#2f2f2f"/>
        <path d="M413.46374,33.28701c-.31885.16846-.7998.25293-1.44238.25293-1.52197,0-2.2832-.79053-2.2832-2.37207v-3.20605h-1.13477v-1.59277h1.13477v-1.51074l2.15332-.61523v2.12598h1.57227v1.59277h-1.57227v2.83008c0,.729.28955,1.09375.86816,1.09375.22803,0,.4624-.06592.7041-.19824v1.59961Z" fill="#2f2f2f"/>
        <path d="M421.68884,26.36904l-2.84375,7.56055c-.68359,1.81836-1.71338,2.72754-3.08984,2.72754-.52393,0-.95459-.05908-1.29199-.17773v-1.72266c.28711.16846.59912.25293.93652.25293.55615,0,.94336-.26221,1.16211-.78613l.36914-.86816-2.84375-6.98633h2.39258l1.30566,4.25879c.08203.26416.146.57666.19141.93652h.02734c.04102-.26416.11621-.57178.22559-.92285l1.31934-4.27246h2.13965Z" fill="#2f2f2f"/>
        <path d="M433.68591,33.36904h-7.89551v-1.27148l5.02441-6.7334h-4.66211v-1.79785h7.51953v1.2373l-4.91504,6.77441h4.92871v1.79102Z" fill="#2f2f2f"/>
        <path d="M438.20446,33.53994c-1.1665,0-2.08398-.32715-2.75146-.98096s-1.00146-1.5415-1.00146-2.6626c0-1.15771.34619-2.06348,1.03906-2.71729s1.62939-.98096,2.80957-.98096c1.16211,0,2.07373.32715,2.73438.98096s.99121,1.51855.99121,2.59424c0,1.16211-.34082,2.08057-1.02197,2.75488s-1.61426,1.01172-2.79932,1.01172ZM438.25915,27.85244c-.51025,0-.90674.17529-1.18945.52637s-.42383.84766-.42383,1.49023c0,1.34424.54248,2.0166,1.62695,2.0166,1.03467,0,1.55176-.69043,1.55176-2.07129,0-1.30811-.52197-1.96191-1.56543-1.96191Z" fill="#2f2f2f"/>
        <path d="M450.16686,33.36904h-2.15332v-3.88965c0-1.08447-.38721-1.62695-1.16211-1.62695-.37354,0-.68115.14355-.92285.43066s-.3623.65186-.3623,1.09375v3.99219h-2.16016v-7h2.16016v1.10742h.02734c.51514-.85205,1.26465-1.27832,2.24902-1.27832,1.54932,0,2.32422.96143,2.32422,2.88477v4.28613Z" fill="#2f2f2f"/>
        <path d="M458.18884,30.48428h-4.56641c.07275,1.01611.71338,1.52441,1.9209,1.52441.77002,0,1.44678-.18213,2.03027-.54688v1.55859c-.64697.34619-1.48779.51953-2.52246.51953-1.13037,0-2.00732-.31348-2.63184-.93994s-.93652-1.50049-.93652-2.62158c0-1.16211.3374-2.08252,1.01172-2.76172s1.50391-1.01855,2.48828-1.01855c1.021,0,1.81055.30322,2.36865.90918s.8374,1.42871.8374,2.46777v.90918ZM456.18591,29.15811c0-1.00244-.40576-1.50391-1.2168-1.50391-.34619,0-.646.14355-.89893.43066s-.40674.64502-.46143,1.07324h2.57715Z" fill="#2f2f2f"/>
        <path d="M465.35973,31.57803h4.15625v1.79102h-6.52148v-.73828c0-.50146.08447-.95117.25293-1.3501s.38037-.75635.63574-1.07324.53418-.59717.8374-.84082.59131-.46387.86475-.65967c.28711-.20508.53906-.40088.75537-.58789s.39893-.37256.54688-.55713.25879-.37158.33154-.56055.10938-.39062.10938-.60498c0-.41943-.11865-.73584-.35547-.9502s-.59912-.32129-1.08691-.32129c-.84326,0-1.6499.33496-2.41992,1.00488v-1.90039c.85205-.55127,1.81396-.82715,2.88477-.82715.49658,0,.94238.06494,1.33643.19482s.72803.31543,1.00146.55713.48193.53418.62549.87842.21533.72803.21533,1.15186c0,.45117-.06934.85205-.2085,1.20312s-.32373.66992-.55371.95703-.49561.55029-.79639.78955-.61279.4707-.93652.69385c-.21875.15479-.42969.30859-.63232.46143s-.38184.30322-.53662.45117-.27783.29297-.36914.43408-.13672.27588-.13672.40332Z" fill="#2f2f2f"/>
      </g>
      <g>
        <path d="M563.11364,33.36904h-2.40625l-.69727-2.18066h-3.48633l-.69043,2.18066h-2.39258l3.56836-9.80273h2.61816l3.48633,9.80273ZM559.50426,29.49307l-1.05273-3.29492c-.07764-.24609-.13232-.54004-.16406-.88184h-.05469c-.02295.28711-.07959.57178-.1709.85449l-1.06641,3.32227h2.50879Z" fill="#2f2f2f"/>
        <path d="M570.47839,26.36904l-2.60449,7h-2.46094l-2.48145-7h2.31055l1.2168,4.31348c.13672.48779.21631.90234.23926,1.24414h.02734c.03174-.32373.11621-.72461.25293-1.20312l1.24414-4.35449h2.25586Z" fill="#2f2f2f"/>
        <path d="M577.13415,33.36904h-2.04395v-1.00488h-.02734c-.46924.78369-1.16455,1.17578-2.08496,1.17578-.6792,0-1.21338-.19238-1.60303-.57764s-.58447-.89893-.58447-1.5415c0-1.35791.8042-2.14209,2.41309-2.35156l1.90039-.25293c0-.76562-.41455-1.14844-1.24414-1.14844-.83398,0-1.62695.24854-2.37891.74512v-1.62695c.30078-.15479.71191-.2915,1.23389-.41016s.99707-.17773,1.42529-.17773c1.99609,0,2.99414.99561,2.99414,2.9873v4.18359ZM575.10387,30.52529v-.47168l-1.27148.16406c-.70166.09131-1.05273.40771-1.05273.9502,0,.24609.08545.44775.25635.60498s.40234.23584.69385.23584c.40576,0,.73584-.14014.99121-.42041s.38281-.63477.38281-1.06299Z" fill="#2f2f2f"/>
        <path d="M579.90466,25.26162c-.36475,0-.66309-.1084-.89551-.32471s-.34863-.48193-.34863-.79639c0-.32373.11621-.58789.34863-.79297s.53076-.30762.89551-.30762c.36914,0,.66895.10254.89893.30762s.34521.46924.34521.79297c0,.32812-.11523.59717-.34521.80664s-.52979.31445-.89893.31445ZM580.97106,33.36904h-2.16016v-7h2.16016v7Z" fill="#2f2f2f"/>
        <path d="M584.90612,33.36904h-2.16016v-10.36328h2.16016v10.36328Z" fill="#2f2f2f"/>
        <path d="M592.57116,33.36904h-2.04395v-1.00488h-.02734c-.46924.78369-1.16455,1.17578-2.08496,1.17578-.6792,0-1.21338-.19238-1.60303-.57764s-.58447-.89893-.58447-1.5415c0-1.35791.8042-2.14209,2.41309-2.35156l1.90039-.25293c0-.76562-.41455-1.14844-1.24414-1.14844-.83398,0-1.62695.24854-2.37891.74512v-1.62695c.30078-.15479.71191-.2915,1.23389-.41016s.99707-.17773,1.42529-.17773c1.99609,0,2.99414.99561,2.99414,2.9873v4.18359ZM590.54089,30.52529v-.47168l-1.27148.16406c-.70166.09131-1.05273.40771-1.05273.9502,0,.24609.08545.44775.25635.60498s.40234.23584.69385.23584c.40576,0,.73584-.14014.99121-.42041s.38281-.63477.38281-1.06299Z" fill="#2f2f2f"/>
        <path d="M596.45495,32.55557h-.02734v.81348h-2.16016v-10.36328h2.16016v4.41602h.02734c.5332-.81592,1.29199-1.22363,2.27637-1.22363.90234,0,1.59717.31006,2.08496.92969s.73145,1.46729.73145,2.54297c0,1.1665-.28467,2.10303-.85449,2.80957s-1.33057,1.05957-2.2832,1.05957c-.86133,0-1.51318-.32812-1.95508-.98438ZM596.39342,29.60244v.71777c0,.45117.12988.82471.38965,1.12109s.59229.44434.99805.44434c.49219,0,.87402-.19043,1.14502-.5708s.40674-.91943.40674-1.6167c0-.57861-.12402-1.03125-.37256-1.35693s-.60254-.48877-1.06299-.48877c-.43311,0-.79199.16162-1.07666.48535s-.42725.74512-.42725,1.26465Z" fill="#2f2f2f"/>
        <path d="M604.04284,25.26162c-.36475,0-.66309-.1084-.89551-.32471s-.34863-.48193-.34863-.79639c0-.32373.11621-.58789.34863-.79297s.53076-.30762.89551-.30762c.36914,0,.66895.10254.89893.30762s.34521.46924.34521.79297c0,.32812-.11523.59717-.34521.80664s-.52979.31445-.89893.31445ZM605.10925,33.36904h-2.16016v-7h2.16016v7Z" fill="#2f2f2f"/>
        <path d="M609.04479,33.36904h-2.16016v-10.36328h2.16016v10.36328Z" fill="#2f2f2f"/>
        <path d="M611.91344,25.26162c-.36475,0-.66309-.1084-.89551-.32471s-.34863-.48193-.34863-.79639c0-.32373.11621-.58789.34863-.79297s.53076-.30762.89551-.30762c.36914,0,.66895.10254.89893.30762s.34521.46924.34521.79297c0,.32812-.11523.59717-.34521.80664s-.52979.31445-.89893.31445ZM612.97985,33.36904h-2.16016v-7h2.16016v7Z" fill="#2f2f2f"/>
        <path d="M618.91589,33.28701c-.31885.16846-.7998.25293-1.44238.25293-1.52197,0-2.2832-.79053-2.2832-2.37207v-3.20605h-1.13477v-1.59277h1.13477v-1.51074l2.15332-.61523v2.12598h1.57227v1.59277h-1.57227v2.83008c0,.729.28955,1.09375.86816,1.09375.22803,0,.4624-.06592.7041-.19824v1.59961Z" fill="#2f2f2f"/>
        <path d="M627.14098,26.36904l-2.84375,7.56055c-.68359,1.81836-1.71338,2.72754-3.08984,2.72754-.52393,0-.95459-.05908-1.29199-.17773v-1.72266c.28711.16846.59912.25293.93652.25293.55615,0,.94336-.26221,1.16211-.78613l.36914-.86816-2.84375-6.98633h2.39258l1.30566,4.25879c.08203.26416.146.57666.19141.93652h.02734c.04102-.26416.11621-.57178.22559-.92285l1.31934-4.27246h2.13965Z" fill="#2f2f2f"/>
        <path d="M639.13805,33.36904h-7.89551v-1.27148l5.02441-6.7334h-4.66211v-1.79785h7.51953v1.2373l-4.91504,6.77441h4.92871v1.79102Z" fill="#2f2f2f"/>
        <path d="M643.65661,33.53994c-1.1665,0-2.08398-.32715-2.75146-.98096s-1.00146-1.5415-1.00146-2.6626c0-1.15771.34619-2.06348,1.03906-2.71729s1.62939-.98096,2.80957-.98096c1.16211,0,2.07373.32715,2.73438.98096s.99121,1.51855.99121,2.59424c0,1.16211-.34082,2.08057-1.02197,2.75488s-1.61426,1.01172-2.79932,1.01172ZM643.7113,27.85244c-.51025,0-.90674.17529-1.18945.52637s-.42383.84766-.42383,1.49023c0,1.34424.54248,2.0166,1.62695,2.0166,1.03467,0,1.55176-.69043,1.55176-2.07129,0-1.30811-.52197-1.96191-1.56543-1.96191Z" fill="#2f2f2f"/>
        <path d="M655.61901,33.36904h-2.15332v-3.88965c0-1.08447-.38721-1.62695-1.16211-1.62695-.37354,0-.68115.14355-.92285.43066s-.3623.65186-.3623,1.09375v3.99219h-2.16016v-7h2.16016v1.10742h.02734c.51514-.85205,1.26465-1.27832,2.24902-1.27832,1.54932,0,2.32422.96143,2.32422,2.88477v4.28613Z" fill="#2f2f2f"/>
        <path d="M663.64098,30.48428h-4.56641c.07275,1.01611.71338,1.52441,1.9209,1.52441.77002,0,1.44678-.18213,2.03027-.54688v1.55859c-.64697.34619-1.48779.51953-2.52246.51953-1.13037,0-2.00732-.31348-2.63184-.93994s-.93652-1.50049-.93652-2.62158c0-1.16211.3374-2.08252,1.01172-2.76172s1.50391-1.01855,2.48828-1.01855c1.021,0,1.81055.30322,2.36865.90918s.8374,1.42871.8374,2.46777v.90918ZM661.63805,29.15811c0-1.00244-.40576-1.50391-1.2168-1.50391-.34619,0-.646.14355-.89893.43066s-.40674.64502-.46143,1.07324h2.57715Z" fill="#2f2f2f"/>
        <path d="M668.67907,33.04775v-1.87988c.65625.47852,1.42188.71777,2.29688.71777.55127,0,.98096-.11865,1.28857-.35547s.46143-.56738.46143-.99121c0-.4375-.19043-.7749-.5708-1.01172s-.90332-.35547-1.56885-.35547h-.90918v-1.6543h.84082c1.27588,0,1.91406-.42383,1.91406-1.27148,0-.79736-.48975-1.19629-1.46973-1.19629-.65625,0-1.29443.21191-1.91406.63574v-1.76367c.68799-.34619,1.49023-.51953,2.40625-.51953,1.00244,0,1.7832.22559,2.34131.67676s.8374,1.03662.8374,1.75684c0,1.28076-.64941,2.08252-1.94824,2.40625v.03418c.69287.08643,1.23975.33838,1.64062.75537s.60156.92871.60156,1.53467c0,.91602-.33496,1.64062-1.00488,2.17383s-1.59521.7998-2.77539.7998c-1.01172,0-1.83447-.16406-2.46777-.49219Z" fill="#2f2f2f"/>
      </g>
    </g>
  </g>
</svg>