<?xml version="1.0" encoding="UTF-8"?>
<svg xmlns="http://www.w3.org/2000/svg" width="632.99068" height="266.58312" xmlns:xlink="http://www.w3.org/1999/xlink" viewBox="0 0 632.99068 266.58312">
  <defs>
    <linearGradient id="Cool_gray_gradient_1" data-name="Cool gray gradient 1" x1="217.69475" y1="132.68639" x2="415.61496" y2="132.68639" gradientUnits="userSpaceOnUse">
      <stop offset="0" stop-color="#f5f5f4"/>
      <stop offset="1" stop-color="#ececea"/>
    </linearGradient>
    <linearGradient id="Cool_gray_gradient_1-2" data-name="Cool gray gradient 1" x1="10.81496" x2="208.73518" xlink:href="#Cool_gray_gradient_1"/>
    <linearGradient id="Cool_gray_gradient_1-3" data-name="Cool gray gradient 1" x1="424.49475" x2="622.41496" xlink:href="#Cool_gray_gradient_1"/>
    <linearGradient id="linear-gradient" x1="-339.73998" y1="1735.79521" x2="-339.73998" y2="1761.52199" gradientTransform="translate(564 1839.97278) scale(1 -1)" gradientUnits="userSpaceOnUse">
      <stop offset="0" stop-color="#949494"/>
      <stop offset=".53" stop-color="#a2a2a2"/>
      <stop offset="1" stop-color="#b3b3b3"/>
    </linearGradient>
    <linearGradient id="linear-gradient-2" x1="-334.32578" y1="1741.10318" x2="-324.57578" y2="1741.10318" gradientTransform="translate(564 1839.97278) scale(1 -1)" gradientUnits="userSpaceOnUse">
      <stop offset="0" stop-color="#005ba1"/>
      <stop offset=".07" stop-color="#0060a9"/>
      <stop offset=".36" stop-color="#0071c8"/>
      <stop offset=".52" stop-color="#0078d4"/>
      <stop offset=".64" stop-color="#0074cd"/>
      <stop offset=".82" stop-color="#006abb"/>
      <stop offset="1" stop-color="#005ba1"/>
    </linearGradient>
    <linearGradient id="linear-gradient-3" x1="240.33718" y1="1387.37173" x2="240.33718" y2="1402.3377" gradientTransform="translate(0 1605.97278) scale(1 -1)" gradientUnits="userSpaceOnUse">
      <stop offset="0" stop-color="#0078d4"/>
      <stop offset=".16" stop-color="#1380da"/>
      <stop offset=".53" stop-color="#3c91e5"/>
      <stop offset=".82" stop-color="#559cec"/>
      <stop offset="1" stop-color="#5ea0ef"/>
    </linearGradient>
    <linearGradient id="linear-gradient-4" x1="234.08344" y1="1378.38639" x2="234.08344" y2="1393.78212" gradientTransform="translate(0 1605.97278) scale(1 -1)" gradientUnits="userSpaceOnUse">
      <stop offset="0" stop-color="#198ab3"/>
      <stop offset=".13" stop-color="#21a0c7"/>
      <stop offset=".31" stop-color="#28b7db"/>
      <stop offset=".5" stop-color="#2ec7ea"/>
      <stop offset=".72" stop-color="#31d1f2"/>
      <stop offset="1" stop-color="#32d4f5"/>
    </linearGradient>
    <linearGradient id="linear-gradient-5" x1="240.96226" y1="1423.14918" x2="240.96226" y2="1437.58639" gradientTransform="translate(0 1605.97278) scale(1 -1)" gradientUnits="userSpaceOnUse">
      <stop offset="0" stop-color="#0078d4"/>
      <stop offset=".149" stop-color="#1882db"/>
      <stop offset=".373" stop-color="#378fe4"/>
      <stop offset=".594" stop-color="#4c99ea"/>
      <stop offset=".806" stop-color="#5a9eee"/>
      <stop offset="1" stop-color="#5ea0ef"/>
    </linearGradient>
    <linearGradient id="linear-gradient-6" x1="233.08011" y1="1413.58639" x2="233.08011" y2="1428.02624" gradientTransform="translate(0 1605.97278) scale(1 -1)" gradientUnits="userSpaceOnUse">
      <stop offset="0" stop-color="#32bedd"/>
      <stop offset="1" stop-color="#50e6ff"/>
    </linearGradient>
  </defs>
  <g isolation="isolate">
    <g id="Shapes">
      <rect width="632.99068" height="266.58312" fill="#fff"/>
      <g>
        <g mix-blend-mode="multiply" opacity=".65">
          <rect x="218.69475" y="10.98639" width="197.92021" height="245.4" rx="8" ry="8" fill="#2b436f"/>
          <rect x="218.69475" y="10.98639" width="197.92021" height="245.4" rx="8" ry="8" fill="#2b436f" opacity=".6"/>
        </g>
        <g>
          <rect x="217.69475" y="9.98639" width="197.92021" height="245.4" rx="8" ry="8" fill="url(#Cool_gray_gradient_1)"/>
          <rect x="217.69475" y="9.98639" width="197.92021" height="245.4" rx="8" ry="8" fill="#8ec8e7" opacity=".6"/>
        </g>
      </g>
      <g>
        <g mix-blend-mode="multiply" opacity=".65">
          <rect x="11.81496" y="10.98639" width="197.92021" height="245.4" rx="8" ry="8" fill="#2b436f"/>
          <rect x="11.81496" y="10.98639" width="197.92021" height="245.4" rx="8" ry="8" fill="#2b436f" opacity=".6"/>
        </g>
        <g>
          <rect x="10.81496" y="9.98639" width="197.92021" height="245.4" rx="8" ry="8" fill="url(#Cool_gray_gradient_1-2)"/>
          <rect x="10.81496" y="9.98639" width="197.92021" height="245.4" rx="8" ry="8" fill="#8ec8e7" opacity=".6"/>
        </g>
      </g>
      <g>
        <g mix-blend-mode="multiply" opacity=".65">
          <rect x="425.49475" y="10.98639" width="197.92021" height="245.4" rx="8" ry="8" fill="#2b436f"/>
          <rect x="425.49475" y="10.98639" width="197.92021" height="245.4" rx="8" ry="8" fill="#2b436f" opacity=".6"/>
        </g>
        <g>
          <rect x="424.49475" y="9.98639" width="197.92021" height="245.4" rx="8" ry="8" fill="url(#Cool_gray_gradient_1-3)"/>
          <rect x="424.49475" y="9.98639" width="197.92021" height="245.4" rx="8" ry="8" fill="#8ec8e7" opacity=".6"/>
        </g>
      </g>
      <g>
        <rect x="10.81496" y="62.32199" width="611.6" height="58.25762" fill="#fff"/>
        <rect x="10.81496" y="62.32199" width="611.6" height="58.25762" fill="#53b1e0" opacity=".1"/>
        <rect x="10.81496" y="62.32199" width="611.6" height="58.25762" fill="none" stroke="#53b1e0" stroke-width=".25"/>
      </g>
      <g>
        <rect x="10.81496" y="155.18639" width="611.6" height="83.6" fill="#fff"/>
        <rect x="10.81496" y="155.18639" width="611.6" height="83.6" fill="#53b1e0" opacity=".1"/>
        <rect x="10.81496" y="155.18639" width="611.6" height="83.6" fill="none" stroke="#53b1e0" stroke-width=".25"/>
      </g>
      <g id="a55981fb-ccb2-4f5b-acf6-743ff717cb3a">
        <g>
          <path d="M231.10179,92.31645c-1.1482-.02974-2.29318.13457-3.38668.48598,1.09208.35887,2.23747.52836,3.38668.50117,1.14936.02962,2.29516-.13994,3.38668-.50117-1.0929-.35401-2.23833-.51837-3.38668-.48598Z" fill="#198ab3"/>
          <g>
            <path d="M231.81558,103.31178c.00007.47809-.38743.86571-.86552.86579-.00511,0-.01021-.00004-.01532-.00013h-13.36449c-.46962.00846-.85719-.36538-.86565-.835-.00018-.01022-.00018-.02043,0-.03065v-24.01051c.00828-.47215.39344-.85054.86565-.85047h13.36449c.48061-.00007.87256.38512.88084.86565v23.99533Z" fill="url(#linear-gradient)"/>
            <path d="M218.95226,87.47182c-.00015-.89412.71585-1.62363,1.60981-1.64019h7.50234c.90585,0,1.64019.73434,1.64019,1.64019h0c.00839.90581-.71912,1.64692-1.62493,1.6553-.00509.00005-.01017.00007-.01526.00007h-7.50234c-.89991-.01663-1.6183-.75535-1.60981-1.65537Z" fill="#003067"/>
            <path d="M218.95226,82.59682c-.00015-.89412.71585-1.62363,1.60981-1.64019h7.50234c.90585,0,1.64019.73434,1.64019,1.64019h0c0,.90585-.73434,1.64019-1.64019,1.64019h-7.50234c-.89397-.01656-1.60997-.74607-1.60981-1.64019Z" fill="#003067"/>
            <circle cx="220.63801" cy="82.59682" r="1.10864" fill="#50e6ff"/>
            <circle cx="220.63801" cy="87.47182" r="1.10864" fill="#50e6ff"/>
          </g>
          <path d="M234.54922,95.06528c-2.68808,0-4.875-.80491-4.875-1.77687v9.4007c0,.95677,2.15654,1.74649,4.81425,1.76168h0c2.70327,0,4.875-.78972,4.875-1.76168v-9.4007c.06075.97196-2.11098,1.77687-4.81425,1.77687Z" fill="url(#linear-gradient-2)"/>
          <path d="M239.42422,93.28841c0,.97196-2.17173,1.77687-4.875,1.77687s-4.875-.80491-4.875-1.77687,2.18692-1.76168,4.875-1.76168,4.875.78972,4.875,1.76168" fill="#e6e6e6"/>
          <path d="M238.2852,93.15173c0,.62266-1.67056,1.12383-3.73598,1.12383s-3.73598-.50117-3.73598-1.12383,1.67056-1.12383,3.73598-1.12383,3.73598.50117,3.73598,1.12383" fill="#50e6ff"/>
          <path d="M235.17189,90.93444l3.23481-3.23481c.06718-.06324.07038-.16896.00714-.23614-.03324-.03531-.08018-.05444-.12863-.05241h-1.88318c0-3.90304-2.08061-7.79089-5.83178-7.79089,2.08544,2.03952,3.19207,4.87802,3.03738,7.79089h-1.79206c-.09218-.00386-.17004.06774-.1739.15992-.00203.04845.01709.09539.05241.12863l3.23481,3.23481c.06918.06188.17381.06188.24299,0Z" fill="#50e6ff"/>
        </g>
      </g>
      <g>
        <path d="M26.29865,139.857l-5.74219,8.49023h5.60547v1.03906h-7.32129v-.32129l5.69434-8.44238h-5.23633v-1.03906h7v.27344Z" fill="#2f2f2f"/>
        <path d="M34.91193,149.38629h-1.36719l-1.64062-2.74805c-.15039-.25537-.29639-.47266-.4375-.65283s-.28613-.32715-.43408-.44092-.30762-.19727-.47852-.24951-.36328-.07861-.57764-.07861h-.94336v4.16992h-1.14844v-9.80273h2.92578c.42822,0,.82373.05371,1.18604.16064s.67676.27002.94336.48877.4751.49121.62549.81689.22559.70752.22559,1.14502c0,.3418-.05127.65527-.15381.93994s-.24854.53906-.4375.76221-.41699.41357-.68359.5708-.56641.2793-.89893.36572v.02734c.16406.07275.30664.15625.42725.24951s.23584.2041.34521.33154.21777.27246.32471.43408.22656.34961.35889.56396l1.83887,2.94629ZM29.03303,140.62262v3.55469h1.55859c.28711,0,.55273-.04346.79639-.12988s.45459-.21094.63232-.37256.31689-.35986.41699-.59473.15039-.49805.15039-.78955c0-.52393-.16992-.93311-.50928-1.22705s-.83057-.44092-1.47314-.44092h-1.57227Z" fill="#2f2f2f"/>
        <path d="M35.80061,148.98981v-1.35352c.15479.13672.34082.25977.55713.36914s.44434.20166.68359.27686.47949.1333.72119.17432.46484.06152.66992.06152c.70654,0,1.23389-.13086,1.58252-.39307s.52295-.63916.52295-1.13135c0-.26416-.05811-.49463-.17432-.69043s-.27686-.375-.48193-.53662-.44775-.31689-.72803-.46484-.58203-.3042-.90576-.46826c-.3418-.17334-.66064-.34863-.95703-.52637s-.55371-.37354-.77246-.58789-.39062-.45703-.51611-.72803-.18799-.58887-.18799-.95361c0-.44678.09814-.83496.29395-1.16553s.45361-.60254.77246-.81689.68262-.37354,1.09033-.47852.82373-.15723,1.24756-.15723c.96631,0,1.67041.11621,2.1123.34863v1.29199c-.57861-.40088-1.32178-.60156-2.22852-.60156-.25049,0-.50146.02637-.75195.07861s-.47412.1377-.66992.25635-.35547.271-.47852.45801-.18457.41455-.18457.68359c0,.25049.04688.46729.14014.64941s.23145.34863.41357.49902.4043.29639.6665.4375.56396.29639.90576.46484c.35107.17334.68359.35547.99805.54688s.59033.40332.82715.63574.4248.48975.56396.77246.2085.60596.2085.9707c0,.48291-.09473.89209-.28369,1.22705s-.44434.60742-.76562.81689-.69141.36133-1.11084.45459-.86133.14014-1.32617.14014c-.15479,0-.34619-.0127-.57422-.0376s-.46045-.06152-.69727-.10938-.46143-.10693-.67334-.17773-.38184-.14941-.50928-.23584Z" fill="#2f2f2f"/>
      </g>
      <g>
        <path d="M250.89326,213.91458c-.04758-2.342-1.79611-4.29931-4.11794-4.60964-.14144-3.26524-2.87928-5.81143-6.14619-5.71595-2.61749-.04042-4.97332,1.58154-5.86961,4.04112-2.78164.33386-4.8994,2.65425-4.97841,5.45474.08291,3.17272,2.72211,5.67751,5.89484,5.59461.0172-.00045.0344-.00098.0516-.00158h10.40242c2.62027-.025,4.7383-2.14302,4.76329-4.76329Z" fill="url(#linear-gradient-3)"/>
        <path d="M245.34632,209.79664l-2.81188-2.73505c-.30731-.30731-.56852-.19975-.56852.27658v1.22924c.00019.18669-.151.3382-.33769.33839-.00524,0-.01048-.00011-.01571-.00035-1.81313,0-6.86836.47633-7.05275,7.39079,0,.19518.15823.3534.35341.3534h1.79776c.19518.00074.354-.15689.35474-.35207.00004-.0107-.00041-.0214-.00134-.03207-.49787-2.28864.95383-4.54755,3.24247-5.04543.44886-.09764.9106-.12172,1.36717-.07127.19518,0,.3534.15823.3534.35341v1.13704c0,.56852.18439.66071.56852.27658l2.75042-2.5353c.16124-.10999.20278-.32987.09279-.4911-.02487-.03645-.05634-.06792-.09279-.09278Z" fill="#fff"/>
        <path d="M244.93146,222.76509c-.06947-2.38667-1.85873-4.37113-4.2255-4.68647-.14152-3.36474-2.96446-5.98898-6.33057-5.88497-2.67921-.04805-5.09562,1.60399-6.02326,4.11794-2.85478.34098-5.03051,2.71925-5.1167,5.59303.12436,3.25629,2.86492,5.79522,6.12122,5.67086.00832-.00032.01665-.00065.02497-.00101h10.41779c.08635.01588.17487.01588.26121,0,2.65284-.03224,4.80493-2.15718,4.87085-4.80939Z" fill="url(#linear-gradient-4)"/>
      </g>
      <g id="bca2981c-4161-411d-8c69-c657beb9ef65">
        <g>
          <path d="M251.14294,178.29908c-.06823-2.24037-1.74958-4.10139-3.97156-4.39595-.13634-3.15365-2.78324-5.61138-5.93833-5.51394-2.51176-.04619-4.77866,1.49936-5.65329,3.85437-2.67743.32503-4.71611,2.55681-4.79817,5.25265.11849,3.05053,2.68151,5.43088,5.73247,5.32391.17102,0,.33888,0,.50515-.02217h9.28439c.08304-.00156.16554-.0138.24545-.03642,2.47931-.01706,4.50489-1.98469,4.59389-4.46246Z" fill="url(#linear-gradient-5)"/>
          <path d="M238.38582,183.5549l.0285.65559.64926.0871c1.83595.24408,3.21965,1.79049,3.25896,3.64218-.02571,2.07295-1.7022,3.74593-3.7752,3.76728h-9.9764c-2.60119.08948-4.78241-1.94667-4.87189-4.54787-.00026-.00743-.00049-.01485-.00071-.02228.07689-2.2802,1.80594-4.16325,4.07132-4.43396l.47507-.05859.15836-.45131c.74155-2.04455,2.69963-3.39256,4.87418-3.35555h.03484c2.69639-.07874,4.95626,2.02243,5.07371,4.71741Z" fill="#fff"/>
          <path d="M244.3479,175.09872l-2.5131-2.43551c-.27396-.27396-.50515-.17736-.50515.24703v1.09424c-.00046.04088-.00907.08126-.02534.11877-.03233.07439-.09436.13183-.17102.15836-.03795.0141-.07831.02056-.11877.019-1.61523,0-6.11886.42439-6.28196,6.58284,0,.17491.1418.31671.31671.31671h1.59939c.04363-.00015.08676-.00932.12668-.02692.03995-.01754.07601-.04284.1061-.07443.029-.03299.05156-.07113.06651-.11243.01404-.04121.01943-.08488.01584-.12827-.44275-2.03922.85145-4.05126,2.89067-4.494.39856-.08653.8085-.10797,1.2139-.06347.17491,0,.31671.1418.31671.31671v1.01189c0,.50674.15836.58908.50674.24703l2.4561-2.25656c.04288-.02883.07774-.06805.10135-.11402.04788-.09178.04788-.20117,0-.29296-.02399-.04569-.05878-.08484-.10135-.11402Z" fill="#fff"/>
          <path d="M228.47751,192.38639c-2.96952.0005-5.40189-2.35893-5.49177-5.32708v-.04909c.08631-2.66991,2.10809-4.87732,4.76017-5.19723.85794-2.35164,3.11075-3.90223,5.6137-3.86388,3.12497-.09298,5.74437,2.34294,5.87816,5.46643h0c2.21553.2951,3.88607,2.15984,3.93672,4.39437v.02692c-.02749,2.5005-2.05059,4.51937-4.55114,4.54164h-9.95265c-.06493.00792-.12985.00792-.19319.00792ZM224.55346,187.03873c.08076,2.16586,1.89892,3.85794,4.06499,3.78311h9.99699c1.64377-.02047,2.97158-1.34757,2.99292-2.99134-.04623-1.45291-1.13705-2.65897-2.57803-2.8504l-1.30168-.17419-.05542-1.31118c-.09523-2.26974-1.99688-4.04155-4.26768-3.97631h-.05067c-1.84389-.03845-3.50765,1.10128-4.13783,2.83456l-.32938.90421-.95013.11402c-1.87687.22311-3.31232,1.77879-3.38406,3.66751Z" fill="url(#linear-gradient-6)"/>
        </g>
      </g>
    </g>
    <g id="Text">
      <g>
        <path d="M257.15656,97.98639h-2.40625l-.69727-2.18066h-3.48633l-.69043,2.18066h-2.39258l3.56836-9.80273h2.61816l3.48633,9.80273ZM253.54719,94.11042l-1.05273-3.29492c-.07764-.24609-.13232-.54004-.16406-.88184h-.05469c-.02295.28711-.07959.57178-.1709.85449l-1.06641,3.32227h2.50879Z" fill="#2f2f2f"/>
        <path d="M264.06233,97.98639h-6.28223v-.89551l3.51367-4.51172h-3.16504v-1.59277h5.90625v1.06641l-3.3291,4.34082h3.35645v1.59277Z" fill="#2f2f2f"/>
        <path d="M271.94367,97.98639h-2.15332v-1.06641h-.03418c-.5332.82471-1.24609,1.2373-2.13965,1.2373-1.62207,0-2.43359-.98193-2.43359-2.94629v-4.22461h2.15332v4.0332c0,.98877.39258,1.4834,1.17578,1.4834.3877,0,.69727-.13574.92969-.40674s.34863-.63916.34863-1.104v-4.00586h2.15332v7Z" fill="#2f2f2f"/>
        <path d="M278.27863,92.93463c-.25977-.14111-.56348-.21191-.90918-.21191-.46973,0-.83691.17188-1.10059.51611-.26465.34424-.39648.8125-.39648,1.40479v3.34277h-2.16016v-7h2.16016v1.29883h.02734c.3418-.94775.95703-1.42188,1.8457-1.42188.22754,0,.40527.02734.5332.08203v1.98926Z" fill="#2f2f2f"/>
        <path d="M285.6507,95.10163h-4.56641c.07324,1.01611.71387,1.52441,1.9209,1.52441.77051,0,1.44727-.18213,2.03027-.54688v1.55859c-.64648.34619-1.4873.51953-2.52246.51953-1.12988,0-2.00684-.31348-2.63184-.93994-.62402-.62646-.93652-1.50049-.93652-2.62158,0-1.16211.33789-2.08252,1.01172-2.76172.6748-.6792,1.50391-1.01855,2.48828-1.01855,1.02148,0,1.81055.30322,2.36914.90918.55762.60596.83691,1.42871.83691,2.46777v.90918ZM283.64777,93.77545c0-1.00244-.40527-1.50391-1.2168-1.50391-.3457,0-.64551.14355-.89844.43066s-.40723.64502-.46191,1.07324h2.57715Z" fill="#2f2f2f"/>
        <path d="M291.01008,97.98639v-9.80273h3.56836c1.09375,0,1.93457.20068,2.52246.60156s.88184.96631.88184,1.69531c0,.52881-.17871.99121-.53613,1.3877-.3584.39648-.81445.67236-1.37109.82715v.02734c.69727.08643,1.25488.34424,1.67188.77246s.625.9502.625,1.56543c0,.89795-.32129,1.60986-.96387,2.13623s-1.51953.78955-2.63184.78955h-3.7666ZM293.21809,89.81061v2.32422h.9707c.45605,0,.81445-.11035,1.07715-.33154.26172-.22119.39258-.52539.39258-.9126,0-.72021-.53711-1.08008-1.61328-1.08008h-.82715ZM293.21809,93.77545v2.58398h1.19629c.51074,0,.91016-.11865,1.2002-.35547.28906-.23682.43359-.56055.43359-.9707,0-.39209-.14258-.69971-.42676-.92285-.28516-.22314-.68262-.33496-1.19336-.33496h-1.20996Z" fill="#2f2f2f"/>
        <path d="M305.64875,97.98639h-2.04395v-1.00488h-.02734c-.46973.78369-1.16504,1.17578-2.08496,1.17578-.67969,0-1.21387-.19238-1.60352-.57764s-.58398-.89893-.58398-1.5415c0-1.35791.80371-2.14209,2.41309-2.35156l1.90039-.25293c0-.76562-.41504-1.14844-1.24414-1.14844-.83398,0-1.62695.24854-2.37891.74512v-1.62695c.30078-.15479.71191-.2915,1.2334-.41016.52246-.11865.99707-.17773,1.42578-.17773,1.99609,0,2.99414.99561,2.99414,2.9873v4.18359ZM303.61848,95.14264v-.47168l-1.27148.16406c-.70215.09131-1.05273.40771-1.05273.9502,0,.24609.08496.44775.25586.60498s.40234.23584.69434.23584c.40527,0,.73535-.14014.99121-.42041.25488-.28027.38281-.63477.38281-1.06299Z" fill="#2f2f2f"/>
        <path d="M312.66242,97.73346c-.48828.28271-1.19238.42383-2.1123.42383-1.07617,0-1.94629-.32568-2.61133-.97754-.66602-.65186-.99805-1.49268-.99805-2.52246,0-1.18945.35645-2.12695,1.06934-2.81299.71387-.68604,1.66699-1.02881,2.86133-1.02881.82422,0,1.42188.10938,1.79102.32812v1.83203c-.45117-.3374-.95508-.50586-1.51074-.50586-.62012,0-1.11133.18115-1.47363.54346s-.54297.8623-.54297,1.50049c0,.61963.17285,1.10645.51953,1.45947.3457.35303.82227.52979,1.42871.52979.53711,0,1.06348-.16846,1.5791-.50586v1.73633Z" fill="#2f2f2f"/>
        <path d="M321.1927,97.98639h-2.59082l-2.23535-3.47266h-.02734v3.47266h-2.16016v-10.36328h2.16016v6.59668h.02734l2.08496-3.2334h2.56348l-2.50879,3.28809,2.68652,3.71191Z" fill="#2f2f2f"/>
        <path d="M328.69953,97.98639h-2.15332v-1.06641h-.03418c-.5332.82471-1.24609,1.2373-2.13965,1.2373-1.62207,0-2.43359-.98193-2.43359-2.94629v-4.22461h2.15332v4.0332c0,.98877.39258,1.4834,1.17578,1.4834.3877,0,.69727-.13574.92969-.40674s.34863-.63916.34863-1.104v-4.00586h2.15332v7Z" fill="#2f2f2f"/>
        <path d="M332.65559,97.17292h-.02734v4.0332h-2.16016v-10.21973h2.16016v1.05273h.02734c.5332-.81592,1.28223-1.22363,2.24902-1.22363.90625,0,1.60742.31104,2.10156.93311.49512.62207.74219,1.46875.74219,2.53955,0,1.1665-.28809,2.10303-.86523,2.80957-.57617.70654-1.34277,1.05957-2.2998,1.05957-.84375,0-1.48633-.32812-1.92773-.98438ZM332.59406,94.30182v.56055c0,.48291.12695.87744.38281,1.18262.25488.30518.58984.45801,1.00488.45801.49219,0,.87402-.19043,1.14453-.5708.27148-.38037.40723-.91943.40723-1.6167,0-1.23047-.47852-1.8457-1.43555-1.8457-.44238,0-.80371.16748-1.08398.50244s-.41992.77832-.41992,1.32959Z" fill="#2f2f2f"/>
        <path d="M348.31672,97.73346c-.48828.28271-1.19238.42383-2.1123.42383-1.07617,0-1.94629-.32568-2.61133-.97754-.66602-.65186-.99805-1.49268-.99805-2.52246,0-1.18945.35645-2.12695,1.06934-2.81299.71387-.68604,1.66699-1.02881,2.86133-1.02881.82422,0,1.42188.10938,1.79102.32812v1.83203c-.45117-.3374-.95508-.50586-1.51074-.50586-.62012,0-1.11133.18115-1.47363.54346s-.54297.8623-.54297,1.50049c0,.61963.17285,1.10645.51953,1.45947.3457.35303.82227.52979,1.42871.52979.53711,0,1.06348-.16846,1.5791-.50586v1.73633Z" fill="#2f2f2f"/>
        <path d="M353.04621,98.15729c-1.16602,0-2.08398-.32715-2.75098-.98096-.66797-.65381-1.00195-1.5415-1.00195-2.6626,0-1.15771.34668-2.06348,1.03906-2.71729.69336-.65381,1.62988-.98096,2.80957-.98096,1.16211,0,2.07422.32715,2.73438.98096.66113.65381.99121,1.51855.99121,2.59424,0,1.16211-.34082,2.08057-1.02148,2.75488-.68164.67432-1.61426,1.01172-2.7998,1.01172ZM353.1009,92.46979c-.50977,0-.90625.17529-1.18945.52637-.28223.35107-.42383.84766-.42383,1.49023,0,1.34424.54297,2.0166,1.62695,2.0166,1.03516,0,1.55176-.69043,1.55176-2.07129,0-1.30811-.52148-1.96191-1.56543-1.96191Z" fill="#2f2f2f"/>
        <path d="M362.81477,92.93463c-.25977-.14111-.56348-.21191-.90918-.21191-.46973,0-.83691.17188-1.10059.51611-.26465.34424-.39648.8125-.39648,1.40479v3.34277h-2.16016v-7h2.16016v1.29883h.02734c.3418-.94775.95703-1.42188,1.8457-1.42188.22754,0,.40527.02734.5332.08203v1.98926Z" fill="#2f2f2f"/>
        <path d="M370.18684,95.10163h-4.56641c.07227,1.01611.71289,1.52441,1.9209,1.52441.76953,0,1.44629-.18213,2.03027-.54688v1.55859c-.64746.34619-1.48828.51953-2.52246.51953-1.13086,0-2.00781-.31348-2.63184-.93994-.625-.62646-.93652-1.50049-.93652-2.62158,0-1.16211.33691-2.08252,1.01172-2.76172.67383-.6792,1.50391-1.01855,2.48828-1.01855,1.02051,0,1.81055.30322,2.36816.90918.55859.60596.83789,1.42871.83789,2.46777v.90918ZM368.18391,93.77545c0-1.00244-.40625-1.50391-1.2168-1.50391-.34668,0-.64648.14355-.89941.43066s-.40625.64502-.46094,1.07324h2.57715Z" fill="#2f2f2f"/>
        <path d="M374.87629,97.80182v-1.75c.35547.21436.70996.37354,1.0625.47852.35352.10498.6875.15723,1.00195.15723.38281,0,.68457-.05225.90527-.15723.22168-.10498.33203-.26416.33203-.47852,0-.13672-.05078-.25049-.15039-.3418-.10059-.09131-.22949-.1709-.38672-.23926s-.3291-.12988-.51562-.18457c-.1875-.05469-.36719-.11621-.54004-.18457-.27832-.10498-.52344-.21777-.73535-.33838s-.38965-.26074-.5332-.42041-.25293-.34424-.32812-.55371-.1123-.45801-.1123-.74512c0-.39209.08496-.729.25586-1.01172s.39941-.51367.68359-.69385c.28516-.18018.61133-.31201.97754-.39648.36719-.08447.74902-.12646,1.14551-.12646.30957,0,.62402.02393.94336.07178.31836.04785.63281.11719.94336.2085v1.66797c-.27344-.15967-.56641-.2793-.87891-.35889-.31152-.07959-.61816-.11963-.91895-.11963-.1416,0-.27441.0127-.40039.0376-.125.0249-.23535.06152-.33105.10938s-.1709.10938-.22559.18457-.08203.16064-.08203.25635c0,.12744.04102.23682.12305.32812s.18848.16992.32129.23584c.13184.06592.2793.12549.44043.17773.16211.05225.32227.10596.48242.16064.28711.1001.54688.20947.7793.32812s.43164.25732.59766.41699c.16699.15967.29395.34619.38281.56055s.13379.46924.13379.76562c0,.41455-.08984.76904-.27051,1.06299-.17969.29395-.41895.5332-.71777.71777-.29785.18457-.64258.31885-1.03223.40332s-.79395.12646-1.21289.12646c-.77051,0-1.4834-.11865-2.13965-.35547Z" fill="#2f2f2f"/>
        <path d="M387.82551,95.10163h-4.56641c.07324,1.01611.71387,1.52441,1.9209,1.52441.77051,0,1.44727-.18213,2.03027-.54688v1.55859c-.64648.34619-1.4873.51953-2.52246.51953-1.12988,0-2.00684-.31348-2.63184-.93994-.62402-.62646-.93652-1.50049-.93652-2.62158,0-1.16211.33789-2.08252,1.01172-2.76172.6748-.6792,1.50391-1.01855,2.48828-1.01855,1.02148,0,1.81055.30322,2.36914.90918.55762.60596.83691,1.42871.83691,2.46777v.90918ZM385.82258,93.77545c0-1.00244-.40527-1.50391-1.2168-1.50391-.3457,0-.64551.14355-.89844.43066s-.40723.64502-.46191,1.07324h2.57715Z" fill="#2f2f2f"/>
        <path d="M393.75715,92.93463c-.25977-.14111-.5625-.21191-.90918-.21191-.46875,0-.83594.17188-1.10059.51611-.26367.34424-.39648.8125-.39648,1.40479v3.34277h-2.16016v-7h2.16016v1.29883h.02734c.3418-.94775.95703-1.42188,1.8457-1.42188.22852,0,.40625.02734.5332.08203v1.98926Z" fill="#2f2f2f"/>
        <path d="M401.85578,90.98639l-2.60449,7h-2.46094l-2.48145-7h2.31055l1.2168,4.31348c.13672.48779.21582.90234.23926,1.24414h.02734c.03125-.32373.11621-.72461.25293-1.20312l1.24414-4.35449h2.25586Z" fill="#2f2f2f"/>
        <path d="M403.90168,89.87897c-.36523,0-.66309-.1084-.89551-.32471s-.34863-.48193-.34863-.79639c0-.32373.11621-.58789.34863-.79297s.53027-.30762.89551-.30762c.36914,0,.66895.10254.89844.30762.23047.20508.3457.46924.3457.79297,0,.32812-.11523.59717-.3457.80664-.22949.20947-.5293.31445-.89844.31445ZM404.96809,97.98639h-2.16016v-7h2.16016v7Z" fill="#2f2f2f"/>
        <path d="M412.04817,97.73346c-.48828.28271-1.19238.42383-2.1123.42383-1.07617,0-1.94629-.32568-2.61133-.97754-.66602-.65186-.99805-1.49268-.99805-2.52246,0-1.18945.35645-2.12695,1.06934-2.81299.71387-.68604,1.66699-1.02881,2.86133-1.02881.82422,0,1.42188.10938,1.79102.32812v1.83203c-.45117-.3374-.95508-.50586-1.51074-.50586-.62012,0-1.11133.18115-1.47363.54346s-.54297.8623-.54297,1.50049c0,.61963.17285,1.10645.51953,1.45947.3457.35303.82227.52979,1.42871.52979.53711,0,1.06348-.16846,1.5791-.50586v1.73633Z" fill="#2f2f2f"/>
        <path d="M419.76301,95.10163h-4.56641c.07227,1.01611.71289,1.52441,1.9209,1.52441.76953,0,1.44629-.18213,2.03027-.54688v1.55859c-.64746.34619-1.48828.51953-2.52246.51953-1.13086,0-2.00781-.31348-2.63184-.93994-.625-.62646-.93652-1.50049-.93652-2.62158,0-1.16211.33691-2.08252,1.01172-2.76172.67383-.6792,1.50391-1.01855,2.48828-1.01855,1.02051,0,1.81055.30322,2.36816.90918.55859.60596.83789,1.42871.83789,2.46777v.90918ZM417.76008,93.77545c0-1.00244-.40625-1.50391-1.2168-1.50391-.34668,0-.64648.14355-.89941.43066s-.40625.64502-.46094,1.07324h2.57715Z" fill="#2f2f2f"/>
      </g>
      <g>
        <path d="M257.53645,185.98639v-9.80273h3.56836c1.09375,0,1.93457.20068,2.52246.60156s.88184.96631.88184,1.69531c0,.52881-.17871.99121-.53662,1.3877s-.81445.67236-1.37061.82715v.02734c.69727.08643,1.25439.34424,1.67139.77246.4165.42822.62549.9502.62549,1.56543,0,.89795-.32129,1.60986-.96387,2.13623s-1.52002.78955-2.63184.78955h-3.7666ZM259.74445,177.81061v2.32422h.9707c.45557,0,.81445-.11035,1.07666-.33154s.39307-.52539.39307-.9126c0-.72021-.5376-1.08008-1.61328-1.08008h-.82715ZM259.74445,181.77545v2.58398h1.19629c.51025,0,.91016-.11865,1.19971-.35547s.43408-.56055.43408-.9707c0-.39209-.14258-.69971-.42725-.92285s-.68262-.33496-1.19287-.33496h-1.20996Z" fill="#2f2f2f"/>
        <path d="M272.17414,185.98639h-2.04395v-1.00488h-.02734c-.46875.78369-1.16406,1.17578-2.08496,1.17578-.67871,0-1.21289-.19238-1.60254-.57764s-.58496-.89893-.58496-1.5415c0-1.35791.80469-2.14209,2.41309-2.35156l1.90039-.25293c0-.76562-.41406-1.14844-1.24414-1.14844-.83398,0-1.62695.24854-2.37891.74512v-1.62695c.30078-.15479.71191-.2915,1.23438-.41016.52148-.11865.99707-.17773,1.4248-.17773,1.99609,0,2.99414.99561,2.99414,2.9873v4.18359ZM270.14387,183.14264v-.47168l-1.27148.16406c-.70117.09131-1.05273.40771-1.05273.9502,0,.24609.08594.44775.25684.60498s.40234.23584.69336.23584c.40625,0,.73633-.14014.99121-.42041.25586-.28027.38281-.63477.38281-1.06299Z" fill="#2f2f2f"/>
        <path d="M279.18781,185.73346c-.4873.28271-1.19141.42383-2.1123.42383-1.0752,0-1.94531-.32568-2.61133-.97754-.66504-.65186-.99805-1.49268-.99805-2.52246,0-1.18945.35645-2.12695,1.07031-2.81299.71289-.68604,1.66699-1.02881,2.86035-1.02881.8252,0,1.42188.10938,1.79102.32812v1.83203c-.45117-.3374-.9541-.50586-1.51074-.50586-.61914,0-1.11035.18115-1.47266.54346s-.54395.8623-.54395,1.50049c0,.61963.17383,1.10645.51953,1.45947.34668.35303.82324.52979,1.42871.52979.53809,0,1.06445-.16846,1.5791-.50586v1.73633Z" fill="#2f2f2f"/>
        <path d="M287.71906,185.98639h-2.59082l-2.23535-3.47266h-.02734v3.47266h-2.16016v-10.36328h2.16016v6.59668h.02734l2.08496-3.2334h2.56348l-2.50879,3.28809,2.68652,3.71191Z" fill="#2f2f2f"/>
        <path d="M295.2259,185.98639h-2.15332v-1.06641h-.03418c-.5332.82471-1.24609,1.2373-2.13965,1.2373-1.62207,0-2.43359-.98193-2.43359-2.94629v-4.22461h2.15332v4.0332c0,.98877.39258,1.4834,1.17578,1.4834.3877,0,.69727-.13574.92969-.40674s.34863-.63916.34863-1.104v-4.00586h2.15332v7Z" fill="#2f2f2f"/>
        <path d="M299.18098,185.17292h-.02734v4.0332h-2.16016v-10.21973h2.16016v1.05273h.02734c.5332-.81592,1.2832-1.22363,2.24902-1.22363.90723,0,1.60742.31104,2.10254.93311.49414.62207.74121,1.46875.74121,2.53955,0,1.1665-.28809,2.10303-.86426,2.80957-.57715.70654-1.34375,1.05957-2.30078,1.05957-.84277,0-1.48535-.32812-1.92773-.98438ZM299.11945,182.30182v.56055c0,.48291.12793.87744.38281,1.18262.25586.30518.59082.45801,1.00488.45801.49219,0,.87402-.19043,1.14551-.5708.27051-.38037.40625-.91943.40625-1.6167,0-1.23047-.47852-1.8457-1.43555-1.8457-.44141,0-.80273.16748-1.08301.50244s-.4209.77832-.4209,1.32959Z" fill="#2f2f2f"/>
        <path d="M316.20246,178.98639l-2.60449,7h-2.46094l-2.48145-7h2.31055l1.2168,4.31348c.13672.48779.2168.90234.23926,1.24414h.02734c.03223-.32373.11621-.72461.25293-1.20312l1.24414-4.35449h2.25586Z" fill="#2f2f2f"/>
        <path d="M322.85871,185.98639h-2.04395v-1.00488h-.02734c-.46875.78369-1.16406,1.17578-2.08496,1.17578-.67871,0-1.21289-.19238-1.60254-.57764s-.58496-.89893-.58496-1.5415c0-1.35791.80469-2.14209,2.41309-2.35156l1.90039-.25293c0-.76562-.41406-1.14844-1.24414-1.14844-.83398,0-1.62695.24854-2.37891.74512v-1.62695c.30078-.15479.71191-.2915,1.23438-.41016.52148-.11865.99707-.17773,1.4248-.17773,1.99609,0,2.99414.99561,2.99414,2.9873v4.18359ZM320.82844,183.14264v-.47168l-1.27148.16406c-.70117.09131-1.05273.40771-1.05273.9502,0,.24609.08594.44775.25684.60498s.40234.23584.69336.23584c.40625,0,.73633-.14014.99121-.42041.25586-.28027.38281-.63477.38281-1.06299Z" fill="#2f2f2f"/>
        <path d="M331.21125,185.98639h-2.15332v-1.06641h-.03418c-.5332.82471-1.24707,1.2373-2.13965,1.2373-1.62305,0-2.43359-.98193-2.43359-2.94629v-4.22461h2.15332v4.0332c0,.98877.3916,1.4834,1.17578,1.4834.38672,0,.69727-.13574.92969-.40674s.34863-.63916.34863-1.104v-4.00586h2.15332v7Z" fill="#2f2f2f"/>
        <path d="M335.13899,185.98639h-2.16016v-10.36328h2.16016v10.36328Z" fill="#2f2f2f"/>
        <path d="M341.1302,185.90436c-.31934.16846-.7998.25293-1.44238.25293-1.52246,0-2.2832-.79053-2.2832-2.37207v-3.20605h-1.13477v-1.59277h1.13477v-1.51074l2.15332-.61523v2.12598h1.57227v1.59277h-1.57227v2.83008c0,.729.28906,1.09375.86816,1.09375.22754,0,.46191-.06592.7041-.19824v1.59961Z" fill="#2f2f2f"/>
      </g>
      <g>
        <path d="M265.76008,221.1861h-2.53613l-1.52441-2.52246c-.11377-.19141-.22314-.3623-.32812-.5127s-.21094-.2793-.31787-.38623-.21875-.18896-.33496-.24609-.24268-.08545-.37939-.08545h-.59473v3.75293h-2.20801v-9.80273h3.5c2.37891,0,3.56836.88867,3.56836,2.66602,0,.3418-.05273.65723-.15723.94678-.10498.28955-.25293.55029-.44434.78271s-.42285.43311-.69385.60156-.57324.30078-.90576.39648v.02734c.146.04541.28711.11963.42383.22217s.26904.22217.39648.35889.24951.28369.36572.44092.22217.31104.31787.46143l1.85254,2.89844ZM259.74445,213.03766v2.72754h.95703c.47412,0,.85449-.13672,1.1416-.41016.2915-.27783.4375-.62207.4375-1.03223,0-.85693-.5127-1.28516-1.53809-1.28516h-.99805Z" fill="#2f2f2f"/>
        <path d="M272.57844,218.30133h-4.56641c.07227,1.01611.71289,1.52441,1.9209,1.52441.76953,0,1.44629-.18213,2.03027-.54688v1.55859c-.64746.34619-1.48828.51953-2.52246.51953-1.13086,0-2.00781-.31348-2.63184-.93994-.625-.62646-.93652-1.50049-.93652-2.62158,0-1.16211.33691-2.08252,1.01172-2.76172.67383-.6792,1.50391-1.01855,2.48828-1.01855,1.02051,0,1.81055.30322,2.36816.90918.55859.60596.83789,1.42871.83789,2.46777v.90918ZM270.57551,216.97516c0-1.00244-.40625-1.50391-1.2168-1.50391-.34668,0-.64648.14355-.89941.43066s-.40625.64502-.46094,1.07324h2.57715Z" fill="#2f2f2f"/>
        <path d="M279.24934,220.93317c-.48828.28271-1.19238.42383-2.1123.42383-1.07617,0-1.94629-.32568-2.61133-.97754-.66602-.65186-.99805-1.49268-.99805-2.52246,0-1.18945.35645-2.12695,1.06934-2.81299.71387-.68604,1.66699-1.02881,2.86133-1.02881.82422,0,1.42188.10938,1.79102.32812v1.83203c-.45117-.3374-.95508-.50586-1.51074-.50586-.62012,0-1.11133.18115-1.47363.54346s-.54297.8623-.54297,1.50049c0,.61963.17285,1.10645.51953,1.45947.3457.35303.82227.52979,1.42871.52979.53711,0,1.06348-.16846,1.5791-.50586v1.73633Z" fill="#2f2f2f"/>
        <path d="M283.97883,221.357c-1.16602,0-2.08398-.32715-2.75098-.98096-.66797-.65381-1.00195-1.5415-1.00195-2.6626,0-1.15771.34668-2.06348,1.03906-2.71729.69336-.65381,1.62988-.98096,2.80957-.98096,1.16211,0,2.07422.32715,2.73438.98096.66113.65381.99121,1.51855.99121,2.59424,0,1.16211-.34082,2.08057-1.02148,2.75488-.68164.67432-1.61426,1.01172-2.7998,1.01172ZM284.03352,215.6695c-.50977,0-.90625.17529-1.18945.52637-.28223.35107-.42383.84766-.42383,1.49023,0,1.34424.54297,2.0166,1.62695,2.0166,1.03516,0,1.55176-.69043,1.55176-2.07129,0-1.30811-.52148-1.96191-1.56543-1.96191Z" fill="#2f2f2f"/>
        <path d="M295.66828,214.1861l-2.60449,7h-2.46094l-2.48145-7h2.31055l1.2168,4.31348c.13672.48779.21582.90234.23926,1.24414h.02734c.03125-.32373.11621-.72461.25293-1.20312l1.24414-4.35449h2.25586Z" fill="#2f2f2f"/>
        <path d="M302.65559,218.30133h-4.56641c.07324,1.01611.71387,1.52441,1.9209,1.52441.77051,0,1.44727-.18213,2.03027-.54688v1.55859c-.64648.34619-1.4873.51953-2.52246.51953-1.12988,0-2.00684-.31348-2.63184-.93994-.62402-.62646-.93652-1.50049-.93652-2.62158,0-1.16211.33789-2.08252,1.01172-2.76172.6748-.6792,1.50391-1.01855,2.48828-1.01855,1.02148,0,1.81055.30322,2.36914.90918.55762.60596.83691,1.42871.83691,2.46777v.90918ZM300.65266,216.97516c0-1.00244-.40527-1.50391-1.2168-1.50391-.3457,0-.64551.14355-.89844.43066s-.40723.64502-.46191,1.07324h2.57715Z" fill="#2f2f2f"/>
        <path d="M308.58723,216.13434c-.25977-.14111-.56348-.21191-.90918-.21191-.46973,0-.83691.17188-1.10059.51611-.26465.34424-.39648.8125-.39648,1.40479v3.34277h-2.16016v-7h2.16016v1.29883h.02734c.3418-.94775.95703-1.42188,1.8457-1.42188.22754,0,.40527.02734.5332.08203v1.98926Z" fill="#2f2f2f"/>
        <path d="M316.70637,214.1861l-2.84375,7.56055c-.68359,1.81836-1.71289,2.72754-3.08984,2.72754-.52344,0-.9541-.05908-1.29199-.17773v-1.72266c.28711.16846.59961.25293.93652.25293.55664,0,.94336-.26221,1.16211-.78613l.36914-.86816-2.84375-6.98633h2.39258l1.30566,4.25879c.08203.26416.14648.57666.19141.93652h.02734c.04102-.26416.11621-.57178.22559-.92285l1.31934-4.27246h2.13965Z" fill="#2f2f2f"/>
        <path d="M321.19758,220.81012v-2.1875c.39648.33252.82715.58203,1.29199.74854s.93457.24951,1.4082.24951c.27832,0,.52051-.0249.72852-.0752.20703-.05029.37988-.11963.51953-.2085.13867-.08887.24219-.19385.31055-.31445s.10254-.25195.10254-.39307c0-.19141-.05469-.3623-.16406-.5127s-.25879-.28955-.44727-.41699c-.18945-.12744-.41406-.25049-.67383-.36914s-.54004-.23926-.84082-.3623c-.76562-.31885-1.33594-.7085-1.71191-1.16895s-.56445-1.01611-.56445-1.66797c0-.51025.10254-.94922.30762-1.31592s.48438-.66895.83789-.90576c.35254-.23682.76172-.41113,1.22656-.52295s.95703-.16748,1.47656-.16748c.51074,0,.96289.03076,1.35742.09229.39355.06152.75781.15625,1.08984.28369v2.04395c-.16406-.11377-.34277-.21436-.53613-.30078-.19434-.08643-.39355-.1582-.59863-.21533s-.40918-.09912-.61133-.12646c-.20312-.02734-.39551-.04102-.57812-.04102-.25,0-.47852.02393-.68359.07178s-.37793.11523-.51953.20166c-.14062.08643-.25.19043-.32812.31104-.07715.12061-.11621.25635-.11621.40674,0,.16406.04395.31104.12988.44092.08691.12988.20996.25293.36914.36914.16016.11621.35352.22998.58105.3418.22852.11182.48535.22656.77246.34521.39258.16406.74414.33838,1.05664.52295.31152.18457.58008.39307.80273.62549.22363.23242.39453.49805.5127.79639.11914.29834.17773.646.17773,1.04248,0,.54688-.10352,1.00586-.31055,1.37744-.20801.37158-.48926.67236-.84473.90234s-.76855.39551-1.24023.49561-.96973.15039-1.49414.15039c-.53711,0-1.04883-.04541-1.53418-.13672s-.90625-.22803-1.26172-.41016Z" fill="#2f2f2f"/>
        <path d="M335.57356,218.30133h-4.56641c.07324,1.01611.71387,1.52441,1.9209,1.52441.77051,0,1.44727-.18213,2.03027-.54688v1.55859c-.64648.34619-1.4873.51953-2.52246.51953-1.12988,0-2.00684-.31348-2.63184-.93994-.62402-.62646-.93652-1.50049-.93652-2.62158,0-1.16211.33789-2.08252,1.01172-2.76172.6748-.6792,1.50391-1.01855,2.48828-1.01855,1.02148,0,1.81055.30322,2.36914.90918.55762.60596.83691,1.42871.83691,2.46777v.90918ZM333.57063,216.97516c0-1.00244-.40527-1.50391-1.2168-1.50391-.3457,0-.64551.14355-.89844.43066s-.40723.64502-.46191,1.07324h2.57715Z" fill="#2f2f2f"/>
        <path d="M341.5052,216.13434c-.25977-.14111-.56348-.21191-.90918-.21191-.46973,0-.83691.17188-1.10059.51611-.26465.34424-.39648.8125-.39648,1.40479v3.34277h-2.16016v-7h2.16016v1.29883h.02734c.3418-.94775.95703-1.42188,1.8457-1.42188.22754,0,.40527.02734.5332.08203v1.98926Z" fill="#2f2f2f"/>
        <path d="M349.60383,214.1861l-2.60449,7h-2.46094l-2.48145-7h2.31055l1.2168,4.31348c.13672.48779.21582.90234.23926,1.24414h.02734c.03125-.32373.11621-.72461.25293-1.20312l1.24414-4.35449h2.25586Z" fill="#2f2f2f"/>
        <path d="M351.64973,213.07868c-.36523,0-.66309-.1084-.89551-.32471s-.34863-.48193-.34863-.79639c0-.32373.11621-.58789.34863-.79297s.53027-.30762.89551-.30762c.36914,0,.66895.10254.89844.30762.23047.20508.3457.46924.3457.79297,0,.32812-.11523.59717-.3457.80664-.22949.20947-.5293.31445-.89844.31445ZM352.71613,221.1861h-2.16016v-7h2.16016v7Z" fill="#2f2f2f"/>
        <path d="M359.79524,220.93317c-.4873.28271-1.19141.42383-2.1123.42383-1.0752,0-1.94531-.32568-2.61133-.97754-.66504-.65186-.99805-1.49268-.99805-2.52246,0-1.18945.35645-2.12695,1.07031-2.81299.71289-.68604,1.66699-1.02881,2.86035-1.02881.8252,0,1.42188.10938,1.79102.32812v1.83203c-.45117-.3374-.9541-.50586-1.51074-.50586-.61914,0-1.11035.18115-1.47266.54346s-.54395.8623-.54395,1.50049c0,.61963.17383,1.10645.51953,1.45947.34668.35303.82324.52979,1.42871.52979.53809,0,1.06445-.16846,1.5791-.50586v1.73633Z" fill="#2f2f2f"/>
        <path d="M367.51106,218.30133h-4.56641c.07227,1.01611.71289,1.52441,1.9209,1.52441.76953,0,1.44629-.18213,2.03027-.54688v1.55859c-.64746.34619-1.48828.51953-2.52246.51953-1.13086,0-2.00781-.31348-2.63184-.93994-.625-.62646-.93652-1.50049-.93652-2.62158,0-1.16211.33691-2.08252,1.01172-2.76172.67383-.6792,1.50391-1.01855,2.48828-1.01855,1.02051,0,1.81055.30322,2.36816.90918.55859.60596.83789,1.42871.83789,2.46777v.90918ZM365.50813,216.97516c0-1.00244-.40625-1.50391-1.2168-1.50391-.34668,0-.64648.14355-.89941.43066s-.40625.64502-.46094,1.07324h2.57715Z" fill="#2f2f2f"/>
        <path d="M368.49934,221.00153v-1.75c.35547.21436.70996.37354,1.0625.47852.35352.10498.6875.15723,1.00195.15723.38281,0,.68457-.05225.90527-.15723.22168-.10498.33203-.26416.33203-.47852,0-.13672-.05078-.25049-.15039-.3418-.10059-.09131-.22949-.1709-.38672-.23926s-.3291-.12988-.51562-.18457c-.1875-.05469-.36719-.11621-.54004-.18457-.27832-.10498-.52344-.21777-.73535-.33838s-.38965-.26074-.5332-.42041-.25293-.34424-.32812-.55371-.1123-.45801-.1123-.74512c0-.39209.08496-.729.25586-1.01172s.39941-.51367.68359-.69385c.28516-.18018.61133-.31201.97754-.39648.36719-.08447.74902-.12646,1.14551-.12646.30957,0,.62402.02393.94336.07178.31836.04785.63281.11719.94336.2085v1.66797c-.27344-.15967-.56641-.2793-.87891-.35889-.31152-.07959-.61816-.11963-.91895-.11963-.1416,0-.27441.0127-.40039.0376-.125.0249-.23535.06152-.33105.10938s-.1709.10938-.22559.18457-.08203.16064-.08203.25635c0,.12744.04102.23682.12305.32812s.18848.16992.32129.23584c.13184.06592.2793.12549.44043.17773.16211.05225.32227.10596.48242.16064.28711.1001.54688.20947.7793.32812s.43164.25732.59766.41699c.16699.15967.29395.34619.38281.56055s.13379.46924.13379.76562c0,.41455-.08984.76904-.27051,1.06299-.17969.29395-.41895.5332-.71777.71777-.29785.18457-.64258.31885-1.03223.40332s-.79395.12646-1.21289.12646c-.77051,0-1.4834-.11865-2.13965-.35547Z" fill="#2f2f2f"/>
        <path d="M385.64387,214.1861l-2.60449,7h-2.46094l-2.48145-7h2.31055l1.2168,4.31348c.13672.48779.21582.90234.23926,1.24414h.02734c.03125-.32373.11621-.72461.25293-1.20312l1.24414-4.35449h2.25586Z" fill="#2f2f2f"/>
        <path d="M392.29914,221.1861h-2.04395v-1.00488h-.02734c-.46875.78369-1.16406,1.17578-2.08496,1.17578-.67871,0-1.21289-.19238-1.60254-.57764s-.58496-.89893-.58496-1.5415c0-1.35791.80469-2.14209,2.41309-2.35156l1.90039-.25293c0-.76562-.41406-1.14844-1.24414-1.14844-.83398,0-1.62695.24854-2.37891.74512v-1.62695c.30078-.15479.71191-.2915,1.23438-.41016.52148-.11865.99707-.17773,1.4248-.17773,1.99609,0,2.99414.99561,2.99414,2.9873v4.18359ZM390.26887,218.34235v-.47168l-1.27148.16406c-.70117.09131-1.05273.40771-1.05273.9502,0,.24609.08594.44775.25684.60498s.40234.23584.69336.23584c.40625,0,.73633-.14014.99121-.42041.25586-.28027.38281-.63477.38281-1.06299Z" fill="#2f2f2f"/>
        <path d="M400.65168,221.1861h-2.15332v-1.06641h-.03418c-.5332.82471-1.24707,1.2373-2.13965,1.2373-1.62305,0-2.43359-.98193-2.43359-2.94629v-4.22461h2.15332v4.0332c0,.98877.3916,1.4834,1.17578,1.4834.38672,0,.69727-.13574.92969-.40674s.34863-.63916.34863-1.104v-4.00586h2.15332v7Z" fill="#2f2f2f"/>
        <path d="M404.57942,221.1861h-2.16016v-10.36328h2.16016v10.36328Z" fill="#2f2f2f"/>
        <path d="M410.57063,221.10407c-.31934.16846-.7998.25293-1.44238.25293-1.52246,0-2.2832-.79053-2.2832-2.37207v-3.20605h-1.13477v-1.59277h1.13477v-1.51074l2.15332-.61523v2.12598h1.57227v1.59277h-1.57227v2.83008c0,.729.28906,1.09375.86816,1.09375.22754,0,.46191-.06592.7041-.19824v1.59961Z" fill="#2f2f2f"/>
      </g>
      <g>
        <path d="M265.11652,33.12897h-2.40674l-.69727-2.18066h-3.48633l-.69043,2.18066h-2.39258l3.56836-9.80273h2.61816l3.48682,9.80273ZM261.50666,29.25299l-1.05273-3.29492c-.07764-.24609-.13232-.54004-.16406-.88184h-.05469c-.02295.28711-.07959.57178-.1709.85449l-1.06641,3.32227h2.50879Z" fill="#2f2f2f"/>
        <path d="M272.48078,26.12897l-2.60449,7h-2.46094l-2.48145-7h2.31055l1.2168,4.31348c.13672.48779.2168.90234.23926,1.24414h.02734c.03223-.32373.11621-.72461.25293-1.20312l1.24414-4.35449h2.25586Z" fill="#2f2f2f"/>
        <path d="M279.13703,33.12897h-2.04395v-1.00488h-.02734c-.46973.78369-1.16504,1.17578-2.08496,1.17578-.67969,0-1.21387-.19238-1.60352-.57764s-.58398-.89893-.58398-1.5415c0-1.35791.80371-2.14209,2.41309-2.35156l1.90039-.25293c0-.76562-.41504-1.14844-1.24414-1.14844-.83398,0-1.62695.24854-2.37891.74512v-1.62695c.30078-.15479.71191-.2915,1.2334-.41016.52246-.11865.99707-.17773,1.42578-.17773,1.99609,0,2.99414.99561,2.99414,2.9873v4.18359ZM277.10676,30.28522v-.47168l-1.27148.16406c-.70215.09131-1.05273.40771-1.05273.9502,0,.24609.08496.44775.25586.60498s.40234.23584.69434.23584c.40527,0,.73535-.14014.99121-.42041.25488-.28027.38281-.63477.38281-1.06299Z" fill="#2f2f2f"/>
        <path d="M281.90754,25.02155c-.36523,0-.66309-.1084-.89551-.32471s-.34863-.48193-.34863-.79639c0-.32373.11621-.58789.34863-.79297s.53027-.30762.89551-.30762c.36914,0,.66895.10254.89844.30762.23047.20508.3457.46924.3457.79297,0,.32812-.11523.59717-.3457.80664-.22949.20947-.5293.31445-.89844.31445ZM282.97395,33.12897h-2.16016v-7h2.16016v7Z" fill="#2f2f2f"/>
        <path d="M286.90852,33.12897h-2.16016v-10.36328h2.16016v10.36328Z" fill="#2f2f2f"/>
        <path d="M294.57356,33.12897h-2.04395v-1.00488h-.02734c-.46875.78369-1.16406,1.17578-2.08496,1.17578-.67871,0-1.21289-.19238-1.60254-.57764s-.58496-.89893-.58496-1.5415c0-1.35791.80469-2.14209,2.41309-2.35156l1.90039-.25293c0-.76562-.41406-1.14844-1.24414-1.14844-.83398,0-1.62695.24854-2.37891.74512v-1.62695c.30078-.15479.71191-.2915,1.23438-.41016.52148-.11865.99707-.17773,1.4248-.17773,1.99609,0,2.99414.99561,2.99414,2.9873v4.18359ZM292.54328,30.28522v-.47168l-1.27148.16406c-.70117.09131-1.05273.40771-1.05273.9502,0,.24609.08594.44775.25684.60498s.40234.23584.69336.23584c.40625,0,.73633-.14014.99121-.42041.25586-.28027.38281-.63477.38281-1.06299Z" fill="#2f2f2f"/>
        <path d="M298.45734,32.31549h-.02734v.81348h-2.16016v-10.36328h2.16016v4.41602h.02734c.5332-.81592,1.29199-1.22363,2.27637-1.22363.90234,0,1.59766.31006,2.08496.92969.48828.61963.73145,1.46729.73145,2.54297,0,1.1665-.28418,2.10303-.85449,2.80957-.56934.70654-1.33008,1.05957-2.2832,1.05957-.86133,0-1.5127-.32812-1.95508-.98438ZM298.39582,29.36237v.71777c0,.45117.12988.82471.38965,1.12109s.59277.44434.99805.44434c.49219,0,.87402-.19043,1.14551-.5708.27051-.38037.40625-.91943.40625-1.6167,0-.57861-.12402-1.03125-.37207-1.35693-.24902-.32568-.60254-.48877-1.06348-.48877-.43262,0-.79199.16162-1.07617.48535-.28516.32373-.42773.74512-.42773,1.26465Z" fill="#2f2f2f"/>
        <path d="M306.04524,25.02155c-.36426,0-.66309-.1084-.89551-.32471s-.34863-.48193-.34863-.79639c0-.32373.11621-.58789.34863-.79297s.53125-.30762.89551-.30762c.36914,0,.66895.10254.89941.30762.22949.20508.34473.46924.34473.79297,0,.32812-.11523.59717-.34473.80664-.23047.20947-.53027.31445-.89941.31445ZM307.11164,33.12897h-2.16016v-7h2.16016v7Z" fill="#2f2f2f"/>
        <path d="M311.04719,33.12897h-2.16016v-10.36328h2.16016v10.36328Z" fill="#2f2f2f"/>
        <path d="M313.91633,25.02155c-.36523,0-.66309-.1084-.89551-.32471s-.34863-.48193-.34863-.79639c0-.32373.11621-.58789.34863-.79297s.53027-.30762.89551-.30762c.36914,0,.66895.10254.89844.30762.23047.20508.3457.46924.3457.79297,0,.32812-.11523.59717-.3457.80664-.22949.20947-.5293.31445-.89844.31445ZM314.98274,33.12897h-2.16016v-7h2.16016v7Z" fill="#2f2f2f"/>
        <path d="M320.91828,33.04694c-.31836.16846-.7998.25293-1.44238.25293-1.52148,0-2.2832-.79053-2.2832-2.37207v-3.20605h-1.13477v-1.59277h1.13477v-1.51074l2.15332-.61523v2.12598h1.57227v1.59277h-1.57227v2.83008c0,.729.29004,1.09375.86816,1.09375.22852,0,.46289-.06592.7041-.19824v1.59961Z" fill="#2f2f2f"/>
        <path d="M329.14387,26.12897l-2.84375,7.56055c-.68359,1.81836-1.71387,2.72754-3.08984,2.72754-.52441,0-.95508-.05908-1.29199-.17773v-1.72266c.28711.16846.59863.25293.93652.25293.55566,0,.94336-.26221,1.16211-.78613l.36914-.86816-2.84375-6.98633h2.39258l1.30566,4.25879c.08203.26416.14551.57666.19141.93652h.02734c.04102-.26416.11621-.57178.22559-.92285l1.31934-4.27246h2.13965Z" fill="#2f2f2f"/>
        <path d="M341.14094,33.12897h-7.89551v-1.27148l5.02441-6.7334h-4.66211v-1.79785h7.51953v1.2373l-4.91504,6.77441h4.92871v1.79102Z" fill="#2f2f2f"/>
        <path d="M345.65949,33.29987c-1.16699,0-2.08398-.32715-2.75195-.98096-.66699-.65381-1.00098-1.5415-1.00098-2.6626,0-1.15771.3457-2.06348,1.03906-2.71729.69238-.65381,1.62891-.98096,2.80957-.98096,1.16211,0,2.07324.32715,2.73438.98096.66016.65381.99121,1.51855.99121,2.59424,0,1.16211-.34082,2.08057-1.02246,2.75488-.68066.67432-1.61426,1.01172-2.79883,1.01172ZM345.71418,27.61237c-.51074,0-.90723.17529-1.18945.52637-.2832.35107-.42383.84766-.42383,1.49023,0,1.34424.54199,2.0166,1.62695,2.0166,1.03418,0,1.55176-.69043,1.55176-2.07129,0-1.30811-.52246-1.96191-1.56543-1.96191Z" fill="#2f2f2f"/>
        <path d="M357.62141,33.12897h-2.15332v-3.88965c0-1.08447-.38672-1.62695-1.16211-1.62695-.37305,0-.68066.14355-.92285.43066-.24121.28711-.3623.65186-.3623,1.09375v3.99219h-2.16016v-7h2.16016v1.10742h.02734c.51562-.85205,1.26465-1.27832,2.24902-1.27832,1.5498,0,2.32422.96143,2.32422,2.88477v4.28613Z" fill="#2f2f2f"/>
        <path d="M365.64387,30.2442h-4.56641c.07227,1.01611.71289,1.52441,1.9209,1.52441.76953,0,1.44629-.18213,2.03027-.54688v1.55859c-.64746.34619-1.48828.51953-2.52246.51953-1.13086,0-2.00781-.31348-2.63184-.93994-.625-.62646-.93652-1.50049-.93652-2.62158,0-1.16211.33691-2.08252,1.01172-2.76172.67383-.6792,1.50391-1.01855,2.48828-1.01855,1.02051,0,1.81055.30322,2.36816.90918.55859.60596.83789,1.42871.83789,2.46777v.90918ZM363.64094,28.91803c0-1.00244-.40625-1.50391-1.2168-1.50391-.34668,0-.64648.14355-.89941.43066s-.40625.64502-.46094,1.07324h2.57715Z" fill="#2f2f2f"/>
        <path d="M372.81477,31.33795h4.15625v1.79102h-6.52148v-.73828c0-.50146.08398-.95117.25293-1.3501.16797-.39893.37988-.75635.63574-1.07324.25488-.31689.53418-.59717.83691-.84082.30371-.24365.5918-.46387.86523-.65967.28711-.20508.53906-.40088.75488-.58789.2168-.18701.39941-.37256.54688-.55713.14844-.18457.25879-.37158.33203-.56055.07227-.18896.10938-.39062.10938-.60498,0-.41943-.11914-.73584-.35547-.9502-.2373-.21436-.59961-.32129-1.08691-.32129-.84375,0-1.65039.33496-2.41992,1.00488v-1.90039c.85156-.55127,1.81348-.82715,2.88477-.82715.49609,0,.94238.06494,1.33594.19482.39453.12988.72852.31543,1.00195.55713s.48145.53418.625.87842.21582.72803.21582,1.15186c0,.45117-.06934.85205-.20898,1.20312-.13867.35107-.32324.66992-.55371.95703-.22949.28711-.49512.55029-.7959.78955s-.61328.4707-.93652.69385c-.21875.15479-.42969.30859-.63281.46143-.20215.15283-.38184.30322-.53613.45117-.15527.14795-.27832.29297-.36914.43408-.0918.14111-.13672.27588-.13672.40332Z" fill="#2f2f2f"/>
      </g>
      <g>
        <path d="M58.23664,33.12897h-2.40625l-.69727-2.18066h-3.48633l-.69043,2.18066h-2.39258l3.56836-9.80273h2.61816l3.48633,9.80273ZM54.62727,29.25299l-1.05273-3.29492c-.07764-.24609-.13232-.54004-.16406-.88184h-.05469c-.02295.28711-.07959.57178-.1709.85449l-1.06641,3.32227h2.50879Z" fill="#2f2f2f"/>
        <path d="M65.60139,26.12897l-2.60449,7h-2.46094l-2.48145-7h2.31055l1.2168,4.31348c.13672.48779.21631.90234.23926,1.24414h.02734c.03174-.32373.11621-.72461.25293-1.20312l1.24414-4.35449h2.25586Z" fill="#2f2f2f"/>
        <path d="M72.25715,33.12897h-2.04395v-1.00488h-.02734c-.46924.78369-1.16455,1.17578-2.08496,1.17578-.6792,0-1.21338-.19238-1.60303-.57764s-.58447-.89893-.58447-1.5415c0-1.35791.8042-2.14209,2.41309-2.35156l1.90039-.25293c0-.76562-.41455-1.14844-1.24414-1.14844-.83398,0-1.62695.24854-2.37891.74512v-1.62695c.30078-.15479.71191-.2915,1.23389-.41016s.99707-.17773,1.42529-.17773c1.99609,0,2.99414.99561,2.99414,2.9873v4.18359ZM70.22688,30.28522v-.47168l-1.27148.16406c-.70166.09131-1.05273.40771-1.05273.9502,0,.24609.08545.44775.25635.60498s.40234.23584.69385.23584c.40576,0,.73584-.14014.99121-.42041s.38281-.63477.38281-1.06299Z" fill="#2f2f2f"/>
        <path d="M75.02766,25.02155c-.36475,0-.66309-.1084-.89551-.32471s-.34863-.48193-.34863-.79639c0-.32373.11621-.58789.34863-.79297s.53076-.30762.89551-.30762c.36914,0,.66895.10254.89893.30762s.34521.46924.34521.79297c0,.32812-.11523.59717-.34521.80664s-.52979.31445-.89893.31445ZM76.09406,33.12897h-2.16016v-7h2.16016v7Z" fill="#2f2f2f"/>
        <path d="M80.02912,33.12897h-2.16016v-10.36328h2.16016v10.36328Z" fill="#2f2f2f"/>
        <path d="M87.69416,33.12897h-2.04395v-1.00488h-.02734c-.46924.78369-1.16455,1.17578-2.08496,1.17578-.6792,0-1.21338-.19238-1.60303-.57764s-.58447-.89893-.58447-1.5415c0-1.35791.8042-2.14209,2.41309-2.35156l1.90039-.25293c0-.76562-.41455-1.14844-1.24414-1.14844-.83398,0-1.62695.24854-2.37891.74512v-1.62695c.30078-.15479.71191-.2915,1.23389-.41016s.99707-.17773,1.42529-.17773c1.99609,0,2.99414.99561,2.99414,2.9873v4.18359ZM85.66389,30.28522v-.47168l-1.27148.16406c-.70166.09131-1.05273.40771-1.05273.9502,0,.24609.08545.44775.25635.60498s.40234.23584.69385.23584c.40576,0,.73584-.14014.99121-.42041s.38281-.63477.38281-1.06299Z" fill="#2f2f2f"/>
        <path d="M91.57795,32.31549h-.02734v.81348h-2.16016v-10.36328h2.16016v4.41602h.02734c.5332-.81592,1.29199-1.22363,2.27637-1.22363.90234,0,1.59717.31006,2.08496.92969s.73145,1.46729.73145,2.54297c0,1.1665-.28467,2.10303-.85449,2.80957s-1.33057,1.05957-2.2832,1.05957c-.86133,0-1.51318-.32812-1.95508-.98438ZM91.51643,29.36237v.71777c0,.45117.12988.82471.38965,1.12109s.59229.44434.99805.44434c.49219,0,.87402-.19043,1.14502-.5708s.40674-.91943.40674-1.6167c0-.57861-.12402-1.03125-.37256-1.35693s-.60254-.48877-1.06299-.48877c-.43311,0-.79199.16162-1.07666.48535s-.42725.74512-.42725,1.26465Z" fill="#2f2f2f"/>
        <path d="M99.16584,25.02155c-.36475,0-.66309-.1084-.89551-.32471s-.34863-.48193-.34863-.79639c0-.32373.11621-.58789.34863-.79297s.53076-.30762.89551-.30762c.36914,0,.66895.10254.89893.30762s.34521.46924.34521.79297c0,.32812-.11523.59717-.34521.80664s-.52979.31445-.89893.31445ZM100.23225,33.12897h-2.16016v-7h2.16016v7Z" fill="#2f2f2f"/>
        <path d="M104.16779,33.12897h-2.16016v-10.36328h2.16016v10.36328Z" fill="#2f2f2f"/>
        <path d="M107.03645,25.02155c-.36475,0-.66309-.1084-.89551-.32471s-.34863-.48193-.34863-.79639c0-.32373.11621-.58789.34863-.79297s.53076-.30762.89551-.30762c.36914,0,.66895.10254.89893.30762s.34521.46924.34521.79297c0,.32812-.11523.59717-.34521.80664s-.52979.31445-.89893.31445ZM108.10285,33.12897h-2.16016v-7h2.16016v7Z" fill="#2f2f2f"/>
        <path d="M114.03889,33.04694c-.31885.16846-.7998.25293-1.44238.25293-1.52197,0-2.2832-.79053-2.2832-2.37207v-3.20605h-1.13477v-1.59277h1.13477v-1.51074l2.15332-.61523v2.12598h1.57227v1.59277h-1.57227v2.83008c0,.729.28955,1.09375.86816,1.09375.22803,0,.4624-.06592.7041-.19824v1.59961Z" fill="#2f2f2f"/>
        <path d="M122.26399,26.12897l-2.84375,7.56055c-.68359,1.81836-1.71338,2.72754-3.08984,2.72754-.52393,0-.95459-.05908-1.29199-.17773v-1.72266c.28711.16846.59912.25293.93652.25293.55615,0,.94336-.26221,1.16211-.78613l.36914-.86816-2.84375-6.98633h2.39258l1.30566,4.25879c.08203.26416.146.57666.19141.93652h.02734c.04102-.26416.11621-.57178.22559-.92285l1.31934-4.27246h2.13965Z" fill="#2f2f2f"/>
        <path d="M134.26106,33.12897h-7.89551v-1.27148l5.02441-6.7334h-4.66211v-1.79785h7.51953v1.2373l-4.91504,6.77441h4.92871v1.79102Z" fill="#2f2f2f"/>
        <path d="M138.77961,33.29987c-1.1665,0-2.08398-.32715-2.75146-.98096s-1.00146-1.5415-1.00146-2.6626c0-1.15771.34619-2.06348,1.03906-2.71729s1.62939-.98096,2.80957-.98096c1.16211,0,2.07373.32715,2.73438.98096s.99121,1.51855.99121,2.59424c0,1.16211-.34082,2.08057-1.02197,2.75488s-1.61426,1.01172-2.79932,1.01172ZM138.8343,27.61237c-.51025,0-.90674.17529-1.18945.52637s-.42383.84766-.42383,1.49023c0,1.34424.54248,2.0166,1.62695,2.0166,1.03467,0,1.55176-.69043,1.55176-2.07129,0-1.30811-.52197-1.96191-1.56543-1.96191Z" fill="#2f2f2f"/>
        <path d="M150.74201,33.12897h-2.15332v-3.88965c0-1.08447-.38721-1.62695-1.16211-1.62695-.37354,0-.68115.14355-.92285.43066s-.3623.65186-.3623,1.09375v3.99219h-2.16016v-7h2.16016v1.10742h.02734c.51514-.85205,1.26465-1.27832,2.24902-1.27832,1.54932,0,2.32422.96143,2.32422,2.88477v4.28613Z" fill="#2f2f2f"/>
        <path d="M158.76399,30.2442h-4.56641c.07275,1.01611.71338,1.52441,1.9209,1.52441.77002,0,1.44678-.18213,2.03027-.54688v1.55859c-.64697.34619-1.48779.51953-2.52246.51953-1.13037,0-2.00732-.31348-2.63184-.93994s-.93652-1.50049-.93652-2.62158c0-1.16211.3374-2.08252,1.01172-2.76172s1.50391-1.01855,2.48828-1.01855c1.021,0,1.81055.30322,2.36865.90918s.8374,1.42871.8374,2.46777v.90918ZM156.76106,28.91803c0-1.00244-.40576-1.50391-1.2168-1.50391-.34619,0-.646.14355-.89893.43066s-.40674.64502-.46143,1.07324h2.57715Z" fill="#2f2f2f"/>
        <path d="M168.68977,23.10749v10.02148h-2.15332v-7.58789c-.11865.10498-.25879.2041-.42041.29736s-.33398.17773-.51611.25293-.37158.13916-.56738.19141-.38965.08984-.58105.11279v-1.81836c.56055-.16406,1.08936-.37354,1.58594-.62891s.9458-.53564,1.34668-.84082h1.30566Z" fill="#2f2f2f"/>
      </g>
      <g>
        <path d="M471.91633,33.12897h-2.40625l-.69727-2.18066h-3.48633l-.69043,2.18066h-2.39258l3.56836-9.80273h2.61816l3.48633,9.80273ZM468.30695,29.25299l-1.05273-3.29492c-.07715-.24609-.13184-.54004-.16406-.88184h-.05469c-.02246.28711-.0791.57178-.1709.85449l-1.06641,3.32227h2.50879Z" fill="#2f2f2f"/>
        <path d="M479.28156,26.12897l-2.60449,7h-2.46094l-2.48145-7h2.31055l1.2168,4.31348c.13672.48779.21582.90234.23926,1.24414h.02734c.03125-.32373.11621-.72461.25293-1.20312l1.24414-4.35449h2.25586Z" fill="#2f2f2f"/>
        <path d="M485.93684,33.12897h-2.04395v-1.00488h-.02734c-.46875.78369-1.16406,1.17578-2.08496,1.17578-.67871,0-1.21289-.19238-1.60254-.57764s-.58496-.89893-.58496-1.5415c0-1.35791.80469-2.14209,2.41309-2.35156l1.90039-.25293c0-.76562-.41406-1.14844-1.24414-1.14844-.83398,0-1.62695.24854-2.37891.74512v-1.62695c.30078-.15479.71191-.2915,1.23438-.41016.52148-.11865.99707-.17773,1.4248-.17773,1.99609,0,2.99414.99561,2.99414,2.9873v4.18359ZM483.90656,30.28522v-.47168l-1.27148.16406c-.70117.09131-1.05273.40771-1.05273.9502,0,.24609.08594.44775.25684.60498s.40234.23584.69336.23584c.40625,0,.73633-.14014.99121-.42041.25586-.28027.38281-.63477.38281-1.06299Z" fill="#2f2f2f"/>
        <path d="M488.70734,25.02155c-.36426,0-.66309-.1084-.89551-.32471s-.34863-.48193-.34863-.79639c0-.32373.11621-.58789.34863-.79297s.53125-.30762.89551-.30762c.36914,0,.66895.10254.89941.30762.22949.20508.34473.46924.34473.79297,0,.32812-.11523.59717-.34473.80664-.23047.20947-.53027.31445-.89941.31445ZM489.77375,33.12897h-2.16016v-7h2.16016v7Z" fill="#2f2f2f"/>
        <path d="M493.7093,33.12897h-2.16016v-10.36328h2.16016v10.36328Z" fill="#2f2f2f"/>
        <path d="M501.37434,33.12897h-2.04395v-1.00488h-.02734c-.46973.78369-1.16504,1.17578-2.08496,1.17578-.67969,0-1.21387-.19238-1.60352-.57764s-.58398-.89893-.58398-1.5415c0-1.35791.80371-2.14209,2.41309-2.35156l1.90039-.25293c0-.76562-.41504-1.14844-1.24414-1.14844-.83398,0-1.62695.24854-2.37891.74512v-1.62695c.30078-.15479.71191-.2915,1.2334-.41016.52246-.11865.99707-.17773,1.42578-.17773,1.99609,0,2.99414.99561,2.99414,2.9873v4.18359ZM499.34406,30.28522v-.47168l-1.27148.16406c-.70215.09131-1.05273.40771-1.05273.9502,0,.24609.08496.44775.25586.60498s.40234.23584.69434.23584c.40527,0,.73535-.14014.99121-.42041.25488-.28027.38281-.63477.38281-1.06299Z" fill="#2f2f2f"/>
        <path d="M505.25813,32.31549h-.02734v.81348h-2.16016v-10.36328h2.16016v4.41602h.02734c.5332-.81592,1.29199-1.22363,2.27637-1.22363.90234,0,1.59668.31006,2.08496.92969.4873.61963.73145,1.46729.73145,2.54297,0,1.1665-.28516,2.10303-.85449,2.80957-.57031.70654-1.33105,1.05957-2.2832,1.05957-.86133,0-1.51367-.32812-1.95508-.98438ZM505.1966,29.36237v.71777c0,.45117.12988.82471.38965,1.12109s.5918.44434.99805.44434c.49219,0,.87402-.19043,1.14453-.5708.27148-.38037.40723-.91943.40723-1.6167,0-.57861-.12402-1.03125-.37305-1.35693-.24805-.32568-.60254-.48877-1.0625-.48877-.43359,0-.79199.16162-1.07715.48535-.28418.32373-.42676.74512-.42676,1.26465Z" fill="#2f2f2f"/>
        <path d="M512.84602,25.02155c-.36523,0-.66309-.1084-.89551-.32471s-.34863-.48193-.34863-.79639c0-.32373.11621-.58789.34863-.79297s.53027-.30762.89551-.30762c.36914,0,.66895.10254.89844.30762.23047.20508.3457.46924.3457.79297,0,.32812-.11523.59717-.3457.80664-.22949.20947-.5293.31445-.89844.31445ZM513.91242,33.12897h-2.16016v-7h2.16016v7Z" fill="#2f2f2f"/>
        <path d="M517.84797,33.12897h-2.16016v-10.36328h2.16016v10.36328Z" fill="#2f2f2f"/>
        <path d="M520.71613,25.02155c-.36426,0-.66309-.1084-.89551-.32471s-.34863-.48193-.34863-.79639c0-.32373.11621-.58789.34863-.79297s.53125-.30762.89551-.30762c.36914,0,.66895.10254.89941.30762.22949.20508.34473.46924.34473.79297,0,.32812-.11523.59717-.34473.80664-.23047.20947-.53027.31445-.89941.31445ZM521.78254,33.12897h-2.16016v-7h2.16016v7Z" fill="#2f2f2f"/>
        <path d="M527.71906,33.04694c-.31934.16846-.7998.25293-1.44238.25293-1.52246,0-2.2832-.79053-2.2832-2.37207v-3.20605h-1.13477v-1.59277h1.13477v-1.51074l2.15332-.61523v2.12598h1.57227v1.59277h-1.57227v2.83008c0,.729.28906,1.09375.86816,1.09375.22754,0,.46191-.06592.7041-.19824v1.59961Z" fill="#2f2f2f"/>
        <path d="M535.94367,26.12897l-2.84375,7.56055c-.68359,1.81836-1.71289,2.72754-3.08984,2.72754-.52344,0-.9541-.05908-1.29199-.17773v-1.72266c.28711.16846.59961.25293.93652.25293.55664,0,.94336-.26221,1.16211-.78613l.36914-.86816-2.84375-6.98633h2.39258l1.30566,4.25879c.08203.26416.14648.57666.19141.93652h.02734c.04102-.26416.11621-.57178.22559-.92285l1.31934-4.27246h2.13965Z" fill="#2f2f2f"/>
        <path d="M547.94074,33.12897h-7.89551v-1.27148l5.02441-6.7334h-4.66211v-1.79785h7.51953v1.2373l-4.91504,6.77441h4.92871v1.79102Z" fill="#2f2f2f"/>
        <path d="M552.4593,33.29987c-1.16602,0-2.08398-.32715-2.75098-.98096-.66797-.65381-1.00195-1.5415-1.00195-2.6626,0-1.15771.34668-2.06348,1.03906-2.71729.69336-.65381,1.62988-.98096,2.80957-.98096,1.16211,0,2.07422.32715,2.73438.98096.66113.65381.99121,1.51855.99121,2.59424,0,1.16211-.34082,2.08057-1.02148,2.75488-.68164.67432-1.61426,1.01172-2.7998,1.01172ZM552.51399,27.61237c-.50977,0-.90625.17529-1.18945.52637-.28223.35107-.42383.84766-.42383,1.49023,0,1.34424.54297,2.0166,1.62695,2.0166,1.03516,0,1.55176-.69043,1.55176-2.07129,0-1.30811-.52148-1.96191-1.56543-1.96191Z" fill="#2f2f2f"/>
        <path d="M564.42219,33.12897h-2.15332v-3.88965c0-1.08447-.3877-1.62695-1.16211-1.62695-.37402,0-.68164.14355-.92285.43066-.24219.28711-.3623.65186-.3623,1.09375v3.99219h-2.16016v-7h2.16016v1.10742h.02734c.51465-.85205,1.26465-1.27832,2.24902-1.27832,1.54883,0,2.32422.96143,2.32422,2.88477v4.28613Z" fill="#2f2f2f"/>
        <path d="M572.44367,30.2442h-4.56641c.07324,1.01611.71387,1.52441,1.9209,1.52441.77051,0,1.44727-.18213,2.03027-.54688v1.55859c-.64648.34619-1.4873.51953-2.52246.51953-1.12988,0-2.00684-.31348-2.63184-.93994-.62402-.62646-.93652-1.50049-.93652-2.62158,0-1.16211.33789-2.08252,1.01172-2.76172.6748-.6792,1.50391-1.01855,2.48828-1.01855,1.02148,0,1.81055.30322,2.36914.90918.55762.60596.83691,1.42871.83691,2.46777v.90918ZM570.44074,28.91803c0-1.00244-.40527-1.50391-1.2168-1.50391-.3457,0-.64551.14355-.89844.43066s-.40723.64502-.46191,1.07324h2.57715Z" fill="#2f2f2f"/>
        <path d="M577.48176,32.80768v-1.87988c.65625.47852,1.42188.71777,2.29688.71777.55176,0,.98145-.11865,1.28906-.35547s.46094-.56738.46094-.99121c0-.4375-.19043-.7749-.57031-1.01172-.38086-.23682-.90332-.35547-1.56934-.35547h-.90918v-1.6543h.84082c1.27637,0,1.91406-.42383,1.91406-1.27148,0-.79736-.48926-1.19629-1.46973-1.19629-.65625,0-1.29395.21191-1.91406.63574v-1.76367c.68848-.34619,1.49023-.51953,2.40625-.51953,1.00293,0,1.7832.22559,2.3418.67676.55762.45117.83691,1.03662.83691,1.75684,0,1.28076-.64941,2.08252-1.94824,2.40625v.03418c.69336.08643,1.24023.33838,1.64062.75537.40137.41699.60156.92871.60156,1.53467,0,.91602-.33496,1.64062-1.00488,2.17383s-1.59473.7998-2.77539.7998c-1.01172,0-1.83398-.16406-2.46777-.49219Z" fill="#2f2f2f"/>
      </g>
    </g>
  </g>
</svg>