<?xml version="1.0" encoding="UTF-8"?>
<svg xmlns="http://www.w3.org/2000/svg" width="632.99068" height="221.59673" xmlns:xlink="http://www.w3.org/1999/xlink" viewBox="0 0 632.99068 221.59673">
  <defs>
    <linearGradient id="Cool_gray_gradient_1" data-name="Cool gray gradient 1" x1="217.69475" y1="110.1932" x2="415.61496" y2="110.1932" gradientUnits="userSpaceOnUse">
      <stop offset="0" stop-color="#f5f5f4"/>
      <stop offset="1" stop-color="#ececea"/>
    </linearGradient>
    <linearGradient id="Cool_gray_gradient_1-2" data-name="Cool gray gradient 1" x1="10.81496" x2="208.73518" xlink:href="#Cool_gray_gradient_1"/>
    <linearGradient id="Cool_gray_gradient_1-3" data-name="Cool gray gradient 1" x1="424.49475" x2="622.41496" xlink:href="#Cool_gray_gradient_1"/>
    <linearGradient id="linear-gradient" x1="-353.20138" y1="1764.83529" x2="-353.20138" y2="1740.99796" gradientTransform="translate(564 1846.4) scale(1 -1)" gradientUnits="userSpaceOnUse">
      <stop offset=".18" stop-color="#5ea0ef"/>
      <stop offset="1" stop-color="#0078d4"/>
    </linearGradient>
    <linearGradient id="linear-gradient-2" x1="-369.20932" y1="1674.8" x2="-369.20932" y2="1692.53529" gradientTransform="translate(564 1846.4) scale(1 -1)" gradientUnits="userSpaceOnUse">
      <stop offset="0" stop-color="#32bedd"/>
      <stop offset=".18" stop-color="#32caea"/>
      <stop offset=".41" stop-color="#32d2f2"/>
      <stop offset=".78" stop-color="#32d4f5"/>
    </linearGradient>
  </defs>
  <g isolation="isolate">
    <g id="Shapes">
      <rect width="632.99068" height="221.59673" fill="#fff"/>
      <g>
        <g mix-blend-mode="multiply" opacity=".65">
          <rect x="218.69475" y="10.98639" width="197.92021" height="200.41361" rx="8" ry="8" fill="#2b436f"/>
          <rect x="218.69475" y="10.98639" width="197.92021" height="200.41361" rx="8" ry="8" fill="#2b436f" opacity=".6"/>
        </g>
        <g>
          <rect x="217.69475" y="9.98639" width="197.92021" height="200.41361" rx="8" ry="8" fill="url(#Cool_gray_gradient_1)"/>
          <rect x="217.69475" y="9.98639" width="197.92021" height="200.41361" rx="8" ry="8" fill="#8ec8e7" opacity=".6"/>
        </g>
      </g>
      <g>
        <g mix-blend-mode="multiply" opacity=".65">
          <rect x="11.81496" y="10.98639" width="197.92021" height="200.41361" rx="8" ry="8" fill="#2b436f"/>
          <rect x="11.81496" y="10.98639" width="197.92021" height="200.41361" rx="8" ry="8" fill="#2b436f" opacity=".6"/>
        </g>
        <g>
          <rect x="10.81496" y="9.98639" width="197.92021" height="200.41361" rx="8" ry="8" fill="url(#Cool_gray_gradient_1-2)"/>
          <rect x="10.81496" y="9.98639" width="197.92021" height="200.41361" rx="8" ry="8" fill="#8ec8e7" opacity=".6"/>
        </g>
      </g>
      <g>
        <g mix-blend-mode="multiply" opacity=".65">
          <rect x="425.49475" y="10.98639" width="197.92021" height="200.41361" rx="8" ry="8" fill="#2b436f"/>
          <rect x="425.49475" y="10.98639" width="197.92021" height="200.41361" rx="8" ry="8" fill="#2b436f" opacity=".6"/>
        </g>
        <g>
          <rect x="424.49475" y="9.98639" width="197.92021" height="200.41361" rx="8" ry="8" fill="url(#Cool_gray_gradient_1-3)"/>
          <rect x="424.49475" y="9.98639" width="197.92021" height="200.41361" rx="8" ry="8" fill="#8ec8e7" opacity=".6"/>
        </g>
      </g>
      <g>
        <rect x="10.81496" y="66" width="611.6" height="52.8" fill="#fff"/>
        <rect x="10.81496" y="66" width="611.6" height="52.8" fill="#53b1e0" opacity=".1"/>
        <rect x="10.81496" y="66" width="611.6" height="52.8" fill="none" stroke="#53b1e0" stroke-width=".25"/>
      </g>
      <g>
        <rect x="10.81496" y="132" width="611.6" height="52.8" fill="#fff"/>
        <rect x="10.81496" y="132" width="611.6" height="52.8" fill="#53b1e0" opacity=".1"/>
        <rect x="10.81496" y="132" width="611.6" height="52.8" fill="none" stroke="#53b1e0" stroke-width=".25"/>
      </g>
      <g>
        <path d="M221.43116,91.73497c0,6.99205-8.45114,12.62615-10.28583,13.76741-.21282.13016-.48061.13016-.69343,0-1.83469-1.14127-10.28583-6.77536-10.28583-13.76741v-8.4078c-.00009-.36144.28873-.65668.65009-.66453,6.57311-.17336,5.05624-3.06264,9.98246-3.06264s3.40935,2.88928,9.98246,3.06264c.36136.00786.65017.30309.65009.66453v8.4078Z" fill="#0078d4"/>
        <path d="M220.54993,91.8072c0,6.4142-7.74327,11.55712-9.4335,12.62615-.19584.11661-.43981.11661-.63564,0-1.69023-1.04014-9.4335-6.21195-9.4335-12.62615v-7.71437c-.00009-.32954.26286-.5989.5923-.60675,6.02415-.15891,4.63729-2.8026,9.15901-2.8026s3.13487,2.64369,9.15901,2.8026c.32944.00785.5924.27721.5923.60675v7.71437Z" fill="url(#linear-gradient)"/>
        <path d="M214.84361,97.68688c0,.38297-.31046.69343-.69343.69343h-6.70313c-.38297,0-.69343-.31046-.69343-.69343v-12.39501c-.00798-.38289.29594-.69974.67883-.70772.00486-.0001.00973-.00015.0146-.00015h6.70313c.38297-.00008.69349.31031.69358.69328,0,.00487-.00005.00973-.00015.0146v12.39501Z" fill="#e6e6e6"/>
        <path d="M207.90934,86.8232c0-.47871.38807-.86678.86678-.86678h4.04499c.47871,0,.86678.38807.86678.86678h0c.00798.47865-.37357.87313-.85222.88111-.00486.00008-.00971.00012-.01457.00012h-4.04499c-.47871.00007-.86684-.38795-.8669-.86666,0-.00486.00004-.00971.00012-.01457Z" fill="#003067"/>
        <circle cx="208.81946" cy="86.80875" r=".5923" fill="#50e6ff"/>
        <path d="M207.90934,89.56801c-.00006-.4811.38574-.87334.86678-.88123h4.04499c.48104.00789.86685.40013.86678.88123h0c.00798.47865-.37357.87313-.85222.88111-.00486.00008-.00971.00012-.01457.00012h-4.04499c-.47871.00007-.86684-.38795-.8669-.86666,0-.00486.00004-.00971.00012-.01457Z" fill="#003067"/>
        <circle cx="208.81946" cy="89.56801" r=".5923" fill="#50e6ff"/>
      </g>
      <g>
        <path d="M179.79068,153.86471h30v16.72941c0,.55553-.45035,1.00588-1.00588,1.00588h-27.98824c-.55553,0-1.00588-.45035-1.00588-1.00588v-16.72941Z" fill="url(#linear-gradient-2)"/>
        <path d="M180.79656,147.47647h27.98824c.55553,0,1.00588.45035,1.00588,1.00588v5.38235h-30v-5.4c.00963-.54863.45717-.98832,1.00588-.98824Z" fill="#767676"/>
        <circle cx="201.53186" cy="161.62941" r="2.43529" fill="#f2f2f2"/>
        <circle cx="194.89657" cy="161.62941" r="2.43529" fill="#f2f2f2"/>
        <circle cx="188.04951" cy="161.62941" r="2.43529" fill="#f2f2f2"/>
        <rect x="183.83186" y="149.38235" width="21.93529" height="2.57647" rx=".49412" ry=".49412" fill="#f2f2f2"/>
      </g>
    </g>
    <g id="Text">
      <g>
        <path d="M229.31187,97.98662v-9.80273h3.47266c3.48193,0,5.22266,1.59277,5.22266,4.77832,0,1.52686-.4751,2.74561-1.42529,3.65723s-2.21582,1.36719-3.79736,1.36719h-3.47266ZM231.51988,89.98174v6.21387h1.09375c.95703,0,1.70801-.28711,2.25244-.86133s.81689-1.35596.81689-2.34473c0-.93408-.27002-1.66895-.81006-2.20459s-1.29785-.80322-2.27295-.80322h-1.08008Z" fill="#2f2f2f"/>
        <path d="M239.57555,97.98662v-9.80273h3.47266c3.48193,0,5.22266,1.59277,5.22266,4.77832,0,1.52686-.4751,2.74561-1.42529,3.65723s-2.21582,1.36719-3.79736,1.36719h-3.47266ZM241.78355,89.98174v6.21387h1.09375c.95703,0,1.70801-.28711,2.25244-.86133s.81689-1.35596.81689-2.34473c0-.93408-.27002-1.66895-.81006-2.20459s-1.29785-.80322-2.27295-.80322h-1.08008Z" fill="#2f2f2f"/>
        <path d="M253.01451,98.15752c-1.1665,0-2.08398-.32715-2.75146-.98096s-1.00146-1.5415-1.00146-2.6626c0-1.15771.34619-2.06348,1.03906-2.71729s1.62939-.98096,2.80957-.98096c1.16211,0,2.07373.32715,2.73438.98096s.99121,1.51855.99121,2.59424c0,1.16211-.34082,2.08057-1.02197,2.75488s-1.61426,1.01172-2.79932,1.01172ZM253.0692,92.47002c-.51025,0-.90674.17529-1.18945.52637s-.42383.84766-.42383,1.49023c0,1.34424.54248,2.0166,1.62695,2.0166,1.03467,0,1.55176-.69043,1.55176-2.07129,0-1.30811-.52197-1.96191-1.56543-1.96191Z" fill="#2f2f2f"/>
        <path d="M257.93492,97.61064v-2.1875c.39648.33252.82715.58203,1.29199.74854s.93408.24951,1.4082.24951c.27783,0,.52051-.0249.72803-.0752s.38037-.11963.51953-.2085.24268-.19385.31104-.31445.10254-.25195.10254-.39307c0-.19141-.05469-.3623-.16406-.5127s-.25879-.28955-.44775-.41699-.41357-.25049-.67334-.36914-.54004-.23926-.84082-.3623c-.76562-.31885-1.33643-.7085-1.7124-1.16895s-.56396-1.01611-.56396-1.66797c0-.51025.10254-.94922.30762-1.31592s.48438-.66895.8374-.90576.76221-.41113,1.22705-.52295.95703-.16748,1.47656-.16748c.51025,0,.96289.03076,1.35693.09229s.75781.15625,1.09033.28369v2.04395c-.16406-.11377-.34277-.21436-.53662-.30078s-.39307-.1582-.59814-.21533-.40918-.09912-.61182-.12646-.39551-.04102-.57764-.04102c-.25049,0-.47852.02393-.68359.07178s-.37842.11523-.51953.20166-.25049.19043-.32812.31104-.11621.25635-.11621.40674c0,.16406.04346.31104.12988.44092s.20947.25293.36914.36914.35303.22998.58105.3418.48535.22656.77246.34521c.39209.16406.74414.33838,1.05615.52295s.58008.39307.80322.62549.39404.49805.5127.79639.17773.646.17773,1.04248c0,.54688-.10352,1.00586-.31104,1.37744s-.48877.67236-.84424.90234-.76904.39551-1.24072.49561-.96973.15039-1.49365.15039c-.5376,0-1.04932-.04541-1.53467-.13672s-.90576-.22803-1.26123-.41016Z" fill="#2f2f2f"/>
        <path d="M278.91441,97.98662h-2.22852l-4.04004-6.15918c-.23682-.35986-.40088-.63135-.49219-.81348h-.02734c.03662.34619.05469.875.05469,1.58594v5.38672h-2.08496v-9.80273h2.37891l3.88965,5.96777c.17773.26904.3418.53564.49219.7998h.02734c-.03662-.22803-.05469-.67676-.05469-1.34668v-5.4209h2.08496v9.80273Z" fill="#2f2f2f"/>
        <path d="M287.19469,95.10186h-4.56641c.07275,1.01611.71338,1.52441,1.9209,1.52441.77002,0,1.44678-.18213,2.03027-.54688v1.55859c-.64697.34619-1.48779.51953-2.52246.51953-1.13037,0-2.00732-.31348-2.63184-.93994s-.93652-1.50049-.93652-2.62158c0-1.16211.3374-2.08252,1.01172-2.76172s1.50391-1.01855,2.48828-1.01855c1.021,0,1.81055.30322,2.36865.90918s.8374,1.42871.8374,2.46777v.90918ZM285.19176,93.77568c0-1.00244-.40576-1.50391-1.2168-1.50391-.34619,0-.646.14355-.89893.43066s-.40674.64502-.46143,1.07324h2.57715Z" fill="#2f2f2f"/>
        <path d="M292.76012,97.90459c-.31885.16846-.7998.25293-1.44238.25293-1.52197,0-2.2832-.79053-2.2832-2.37207v-3.20605h-1.13477v-1.59277h1.13477v-1.51074l2.15332-.61523v2.12598h1.57227v1.59277h-1.57227v2.83008c0,.729.28955,1.09375.86816,1.09375.22803,0,.4624-.06592.7041-.19824v1.59961Z" fill="#2f2f2f"/>
        <path d="M304.39488,90.98662l-2.0166,7h-2.26953l-1.03223-4.10156c-.06836-.27344-.10693-.57178-.11621-.89551h-.04102c-.03174.35547-.07764.64502-.13672.86816l-1.10742,4.12891h-2.24219l-1.97559-7h2.20117l.96387,4.56641c.04541.21436.07959.47412.10254.7793h.04102c.02295-.31885.06396-.58789.12305-.80664l1.20312-4.53906h2.05762l1.08008,4.56641c.02734.11377.05908.37842.0957.79297h.04785c.02295-.26416.05908-.52881.10938-.79297l.90918-4.56641h2.00293Z" fill="#2f2f2f"/>
        <path d="M308.58824,98.15752c-1.1665,0-2.08398-.32715-2.75146-.98096s-1.00146-1.5415-1.00146-2.6626c0-1.15771.34619-2.06348,1.03906-2.71729s1.62939-.98096,2.80957-.98096c1.16211,0,2.07373.32715,2.73438.98096s.99121,1.51855.99121,2.59424c0,1.16211-.34082,2.08057-1.02197,2.75488s-1.61426,1.01172-2.79932,1.01172ZM308.64293,92.47002c-.51025,0-.90674.17529-1.18945.52637s-.42383.84766-.42383,1.49023c0,1.34424.54248,2.0166,1.62695,2.0166,1.03467,0,1.55176-.69043,1.55176-2.07129,0-1.30811-.52197-1.96191-1.56543-1.96191Z" fill="#2f2f2f"/>
        <path d="M318.35631,92.93486c-.25977-.14111-.56299-.21191-.90918-.21191-.46924,0-.83643.17188-1.10059.51611s-.39648.8125-.39648,1.40479v3.34277h-2.16016v-7h2.16016v1.29883h.02734c.3418-.94775.95703-1.42188,1.8457-1.42188.22803,0,.40576.02734.5332.08203v1.98926Z" fill="#2f2f2f"/>
        <path d="M326.3607,97.98662h-2.59082l-2.23535-3.47266h-.02734v3.47266h-2.16016v-10.36328h2.16016v6.59668h.02734l2.08496-3.2334h2.56348l-2.50879,3.28809,2.68652,3.71191Z" fill="#2f2f2f"/>
        <path d="M333.4564,94.60967v3.37695h-2.20801v-9.80273h3.45898c2.47021,0,3.70508,1.0415,3.70508,3.12402,0,.98438-.35449,1.78076-1.06299,2.38916s-1.65527.9126-2.84033.9126h-1.05273ZM333.4564,89.8792v3.05566h.86816c1.17578,0,1.76367-.51514,1.76367-1.54492,0-1.00732-.58789-1.51074-1.76367-1.51074h-.86816Z" fill="#2f2f2f"/>
        <path d="M344.08189,92.93486c-.25977-.14111-.56299-.21191-.90918-.21191-.46924,0-.83643.17188-1.10059.51611s-.39648.8125-.39648,1.40479v3.34277h-2.16016v-7h2.16016v1.29883h.02734c.3418-.94775.95703-1.42188,1.8457-1.42188.22803,0,.40576.02734.5332.08203v1.98926Z" fill="#2f2f2f"/>
        <path d="M348.50816,98.15752c-1.1665,0-2.08398-.32715-2.75146-.98096s-1.00146-1.5415-1.00146-2.6626c0-1.15771.34619-2.06348,1.03906-2.71729s1.62939-.98096,2.80957-.98096c1.16211,0,2.07373.32715,2.73438.98096s.99121,1.51855.99121,2.59424c0,1.16211-.34082,2.08057-1.02197,2.75488s-1.61426,1.01172-2.79932,1.01172ZM348.56285,92.47002c-.51025,0-.90674.17529-1.18945.52637s-.42383.84766-.42383,1.49023c0,1.34424.54248,2.0166,1.62695,2.0166,1.03467,0,1.55176-.69043,1.55176-2.07129,0-1.30811-.52197-1.96191-1.56543-1.96191Z" fill="#2f2f2f"/>
        <path d="M357.90514,97.90459c-.31885.16846-.7998.25293-1.44238.25293-1.52197,0-2.2832-.79053-2.2832-2.37207v-3.20605h-1.13477v-1.59277h1.13477v-1.51074l2.15332-.61523v2.12598h1.57227v1.59277h-1.57227v2.83008c0,.729.28955,1.09375.86816,1.09375.22803,0,.4624-.06592.7041-.19824v1.59961Z" fill="#2f2f2f"/>
        <path d="M365.39146,95.10186h-4.56641c.07275,1.01611.71338,1.52441,1.9209,1.52441.77002,0,1.44678-.18213,2.03027-.54688v1.55859c-.64697.34619-1.48779.51953-2.52246.51953-1.13037,0-2.00732-.31348-2.63184-.93994s-.93652-1.50049-.93652-2.62158c0-1.16211.3374-2.08252,1.01172-2.76172s1.50391-1.01855,2.48828-1.01855c1.021,0,1.81055.30322,2.36865.90918s.8374,1.42871.8374,2.46777v.90918ZM363.38853,93.77568c0-1.00244-.40576-1.50391-1.2168-1.50391-.34619,0-.646.14355-.89893.43066s-.40674.64502-.46143,1.07324h2.57715Z" fill="#2f2f2f"/>
        <path d="M372.06236,97.73369c-.48779.28271-1.19189.42383-2.1123.42383-1.07568,0-1.9458-.32568-2.61133-.97754s-.99805-1.49268-.99805-2.52246c0-1.18945.35645-2.12695,1.06982-2.81299s1.66699-1.02881,2.86084-1.02881c.82471,0,1.42188.10938,1.79102.32812v1.83203c-.45117-.3374-.95459-.50586-1.51074-.50586-.61963,0-1.11084.18115-1.47314.54346s-.54346.8623-.54346,1.50049c0,.61963.17334,1.10645.51953,1.45947s.82275.52979,1.42871.52979c.5376,0,1.06396-.16846,1.5791-.50586v1.73633Z" fill="#2f2f2f"/>
        <path d="M377.7899,97.90459c-.31885.16846-.7998.25293-1.44238.25293-1.52197,0-2.2832-.79053-2.2832-2.37207v-3.20605h-1.13477v-1.59277h1.13477v-1.51074l2.15332-.61523v2.12598h1.57227v1.59277h-1.57227v2.83008c0,.729.28955,1.09375.86816,1.09375.22803,0,.4624-.06592.7041-.19824v1.59961Z" fill="#2f2f2f"/>
        <path d="M380.16783,89.8792c-.36475,0-.66309-.1084-.89551-.32471s-.34863-.48193-.34863-.79639c0-.32373.11621-.58789.34863-.79297s.53076-.30762.89551-.30762c.36914,0,.66895.10254.89893.30762s.34521.46924.34521.79297c0,.32812-.11523.59717-.34521.80664s-.52979.31445-.89893.31445ZM381.23424,97.98662h-2.16016v-7h2.16016v7Z" fill="#2f2f2f"/>
        <path d="M386.34508,98.15752c-1.1665,0-2.08398-.32715-2.75146-.98096s-1.00146-1.5415-1.00146-2.6626c0-1.15771.34619-2.06348,1.03906-2.71729s1.62939-.98096,2.80957-.98096c1.16211,0,2.07373.32715,2.73438.98096s.99121,1.51855.99121,2.59424c0,1.16211-.34082,2.08057-1.02197,2.75488s-1.61426,1.01172-2.79932,1.01172ZM386.39976,92.47002c-.51025,0-.90674.17529-1.18945.52637s-.42383.84766-.42383,1.49023c0,1.34424.54248,2.0166,1.62695,2.0166,1.03467,0,1.55176-.69043,1.55176-2.07129,0-1.30811-.52197-1.96191-1.56543-1.96191Z" fill="#2f2f2f"/>
        <path d="M398.30748,97.98662h-2.15332v-3.88965c0-1.08447-.38721-1.62695-1.16211-1.62695-.37354,0-.68115.14355-.92285.43066s-.3623.65186-.3623,1.09375v3.99219h-2.16016v-7h2.16016v1.10742h.02734c.51514-.85205,1.26465-1.27832,2.24902-1.27832,1.54932,0,2.32422.96143,2.32422,2.88477v4.28613Z" fill="#2f2f2f"/>
        <path d="M406.06627,97.17314h-.02734v4.0332h-2.16016v-10.21973h2.16016v1.05273h.02734c.5332-.81592,1.28271-1.22363,2.24902-1.22363.90674,0,1.60742.31104,2.10205.93311s.7417,1.46875.7417,2.53955c0,1.1665-.28809,2.10303-.86475,2.80957s-1.34326,1.05957-2.30029,1.05957c-.84326,0-1.48584-.32812-1.92773-.98438ZM406.00474,94.30205v.56055c0,.48291.12744.87744.38281,1.18262s.59033.45801,1.00488.45801c.49219,0,.87402-.19043,1.14502-.5708s.40674-.91943.40674-1.6167c0-1.23047-.47852-1.8457-1.43555-1.8457-.44189,0-.80322.16748-1.0835.50244s-.42041.77832-.42041,1.32959Z" fill="#2f2f2f"/>
        <path d="M414.7484,97.98662h-2.16016v-10.36328h2.16016v10.36328Z" fill="#2f2f2f"/>
        <path d="M422.41344,97.98662h-2.04395v-1.00488h-.02734c-.46924.78369-1.16455,1.17578-2.08496,1.17578-.6792,0-1.21338-.19238-1.60303-.57764s-.58447-.89893-.58447-1.5415c0-1.35791.8042-2.14209,2.41309-2.35156l1.90039-.25293c0-.76562-.41455-1.14844-1.24414-1.14844-.83398,0-1.62695.24854-2.37891.74512v-1.62695c.30078-.15479.71191-.2915,1.23389-.41016s.99707-.17773,1.42529-.17773c1.99609,0,2.99414.99561,2.99414,2.9873v4.18359ZM420.38316,95.14287v-.47168l-1.27148.16406c-.70166.09131-1.05273.40771-1.05273.9502,0,.24609.08545.44775.25635.60498s.40234.23584.69385.23584c.40576,0,.73584-.14014.99121-.42041s.38281-.63477.38281-1.06299Z" fill="#2f2f2f"/>
        <path d="M430.87047,97.98662h-2.15332v-3.88965c0-1.08447-.38721-1.62695-1.16211-1.62695-.37354,0-.68115.14355-.92285.43066s-.3623.65186-.3623,1.09375v3.99219h-2.16016v-7h2.16016v1.10742h.02734c.51514-.85205,1.26465-1.27832,2.24902-1.27832,1.54932,0,2.32422.96143,2.32422,2.88477v4.28613Z" fill="#2f2f2f"/>
      </g>
      <g>
        <path d="M223.54478,162.50811v3.37695h-2.20801v-9.80273h3.45898c2.46973,0,3.70508,1.0415,3.70508,3.12402,0,.98438-.35449,1.78076-1.06348,2.38916-.70801.6084-1.65527.9126-2.83984.9126h-1.05273ZM223.54478,157.77764v3.05566h.86816c1.17578,0,1.76367-.51514,1.76367-1.54492,0-1.00732-.58789-1.51074-1.76367-1.51074h-.86816Z" fill="#2f2f2f"/>
        <path d="M236.30455,165.88506h-2.15332v-1.06641h-.03418c-.5332.82471-1.24707,1.2373-2.13965,1.2373-1.62305,0-2.43359-.98193-2.43359-2.94629v-4.22461h2.15332v4.0332c0,.98877.3916,1.4834,1.17578,1.4834.38672,0,.69727-.13574.92969-.40674s.34863-.63916.34863-1.104v-4.00586h2.15332v7Z" fill="#2f2f2f"/>
        <path d="M240.25963,165.07158h-.02734v.81348h-2.16016v-10.36328h2.16016v4.41602h.02734c.5332-.81592,1.29199-1.22363,2.27637-1.22363.90234,0,1.59766.31006,2.08496.92969.48828.61963.73145,1.46729.73145,2.54297,0,1.1665-.28418,2.10303-.85449,2.80957-.56934.70654-1.33008,1.05957-2.2832,1.05957-.86133,0-1.5127-.32812-1.95508-.98438ZM240.1981,162.11846v.71777c0,.45117.12988.82471.38965,1.12109s.59277.44434.99805.44434c.49219,0,.87402-.19043,1.14551-.5708.27051-.38037.40625-.91943.40625-1.6167,0-.57861-.12402-1.03125-.37207-1.35693-.24902-.32568-.60254-.48877-1.06348-.48877-.43262,0-.79199.16162-1.07617.48535-.28516.32373-.42773.74512-.42773,1.26465Z" fill="#2f2f2f"/>
        <path d="M248.94224,165.88506h-2.16016v-10.36328h2.16016v10.36328Z" fill="#2f2f2f"/>
        <path d="M251.81041,157.77764c-.36426,0-.66309-.1084-.89551-.32471s-.34863-.48193-.34863-.79639c0-.32373.11621-.58789.34863-.79297s.53125-.30762.89551-.30762c.36914,0,.66895.10254.89941.30762.22949.20508.34473.46924.34473.79297,0,.32812-.11523.59717-.34473.80664-.23047.20947-.53027.31445-.89941.31445ZM252.87682,165.88506h-2.16016v-7h2.16016v7Z" fill="#2f2f2f"/>
        <path d="M259.95689,165.63213c-.48828.28271-1.19238.42383-2.1123.42383-1.07617,0-1.94629-.32568-2.61133-.97754-.66602-.65186-.99805-1.49268-.99805-2.52246,0-1.18945.35645-2.12695,1.06934-2.81299.71387-.68604,1.66699-1.02881,2.86133-1.02881.82422,0,1.42188.10938,1.79102.32812v1.83203c-.45117-.3374-.95508-.50586-1.51074-.50586-.62012,0-1.11133.18115-1.47363.54346s-.54297.8623-.54297,1.50049c0,.61963.17285,1.10645.51953,1.45947.3457.35303.82227.52979,1.42871.52979.53711,0,1.06348-.16846,1.5791-.50586v1.73633Z" fill="#2f2f2f"/>
        <path d="M267.65416,165.88506h-2.20801v-9.80273h2.20801v9.80273Z" fill="#2f2f2f"/>
        <path d="M271.9774,162.50811v3.37695h-2.20801v-9.80273h3.45898c2.46973,0,3.70508,1.0415,3.70508,3.12402,0,.98438-.35449,1.78076-1.06348,2.38916-.70801.6084-1.65527.9126-2.83984.9126h-1.05273ZM271.9774,157.77764v3.05566h.86816c1.17578,0,1.76367-.51514,1.76367-1.54492,0-1.00732-.58789-1.51074-1.76367-1.51074h-.86816Z" fill="#2f2f2f"/>
        <path d="M287.84361,165.88506h-2.04395v-1.00488h-.02734c-.46973.78369-1.16504,1.17578-2.08496,1.17578-.67969,0-1.21387-.19238-1.60352-.57764s-.58398-.89893-.58398-1.5415c0-1.35791.80371-2.14209,2.41309-2.35156l1.90039-.25293c0-.76562-.41504-1.14844-1.24414-1.14844-.83398,0-1.62695.24854-2.37891.74512v-1.62695c.30078-.15479.71191-.2915,1.2334-.41016.52246-.11865.99707-.17773,1.42578-.17773,1.99609,0,2.99414.99561,2.99414,2.9873v4.18359ZM285.81334,163.04131v-.47168l-1.27148.16406c-.70215.09131-1.05273.40771-1.05273.9502,0,.24609.08496.44775.25586.60498s.40234.23584.69434.23584c.40527,0,.73535-.14014.99121-.42041.25488-.28027.38281-.63477.38281-1.06299Z" fill="#2f2f2f"/>
        <path d="M296.42467,165.88506h-2.16016v-.96387h-.02734c-.49219.75635-1.21484,1.13477-2.16699,1.13477-.875,0-1.5791-.30859-2.1123-.92627s-.7998-1.47998-.7998-2.5874c0-1.15771.29395-2.08496.88184-2.78223s1.35742-1.0459,2.31055-1.0459c.90234,0,1.53125.32373,1.88672.9707h.02734v-4.16309h2.16016v10.36328ZM294.30553,162.48076v-.52637c0-.45557-.13281-.83398-.39648-1.13477-.26465-.30078-.6084-.45117-1.03223-.45117-.47852,0-.85254.18799-1.12109.56396-.26953.37598-.40332.89209-.40332,1.54834,0,.61523.12988,1.08936.38965,1.42188s.61914.49902,1.08008.49902c.4375,0,.79395-.17529,1.06934-.52637.27637-.35107.41406-.81592.41406-1.39453Z" fill="#2f2f2f"/>
        <path d="M305.10728,165.88506h-2.16016v-.96387h-.02734c-.49219.75635-1.21387,1.13477-2.16699,1.13477-.875,0-1.5791-.30859-2.1123-.92627s-.7998-1.47998-.7998-2.5874c0-1.15771.29395-2.08496.88184-2.78223s1.3584-1.0459,2.31055-1.0459c.90234,0,1.53125.32373,1.88672.9707h.02734v-4.16309h2.16016v10.36328ZM302.98814,162.48076v-.52637c0-.45557-.13184-.83398-.39648-1.13477-.26367-.30078-.6084-.45117-1.03223-.45117-.47852,0-.85156.18799-1.12109.56396-.26855.37598-.40332.89209-.40332,1.54834,0,.61523.12988,1.08936.38965,1.42188s.62012.49902,1.08008.49902c.4375,0,.79395-.17529,1.07031-.52637.27539-.35107.41309-.81592.41309-1.39453Z" fill="#2f2f2f"/>
        <path d="M311.44029,160.8333c-.25977-.14111-.5625-.21191-.90918-.21191-.46875,0-.83594.17188-1.10059.51611-.26367.34424-.39648.8125-.39648,1.40479v3.34277h-2.16016v-7h2.16016v1.29883h.02734c.3418-.94775.95703-1.42188,1.8457-1.42188.22852,0,.40625.02734.5332.08203v1.98926Z" fill="#2f2f2f"/>
        <path d="M318.81334,163.00029h-4.56641c.07227,1.01611.71289,1.52441,1.9209,1.52441.76953,0,1.44629-.18213,2.03027-.54688v1.55859c-.64746.34619-1.48828.51953-2.52246.51953-1.13086,0-2.00781-.31348-2.63184-.93994-.625-.62646-.93652-1.50049-.93652-2.62158,0-1.16211.33691-2.08252,1.01172-2.76172.67383-.6792,1.50391-1.01855,2.48828-1.01855,1.02051,0,1.81055.30322,2.36816.90918.55859.60596.83789,1.42871.83789,2.46777v.90918ZM316.81041,161.67412c0-1.00244-.40625-1.50391-1.2168-1.50391-.34668,0-.64648.14355-.89941.43066s-.40625.64502-.46094,1.07324h2.57715Z" fill="#2f2f2f"/>
        <path d="M319.80162,165.70049v-1.75c.35547.21436.70996.37354,1.0625.47852.35352.10498.6875.15723,1.00195.15723.38281,0,.68457-.05225.90527-.15723.22168-.10498.33203-.26416.33203-.47852,0-.13672-.05078-.25049-.15039-.3418-.10059-.09131-.22949-.1709-.38672-.23926s-.3291-.12988-.51562-.18457c-.1875-.05469-.36719-.11621-.54004-.18457-.27832-.10498-.52344-.21777-.73535-.33838s-.38965-.26074-.5332-.42041-.25293-.34424-.32812-.55371-.1123-.45801-.1123-.74512c0-.39209.08496-.729.25586-1.01172s.39941-.51367.68359-.69385c.28516-.18018.61133-.31201.97754-.39648.36719-.08447.74902-.12646,1.14551-.12646.30957,0,.62402.02393.94336.07178.31836.04785.63281.11719.94336.2085v1.66797c-.27344-.15967-.56641-.2793-.87891-.35889-.31152-.07959-.61816-.11963-.91895-.11963-.1416,0-.27441.0127-.40039.0376-.125.0249-.23535.06152-.33105.10938s-.1709.10938-.22559.18457-.08203.16064-.08203.25635c0,.12744.04102.23682.12305.32812s.18848.16992.32129.23584c.13184.06592.2793.12549.44043.17773.16211.05225.32227.10596.48242.16064.28711.1001.54688.20947.7793.32812s.43164.25732.59766.41699c.16699.15967.29395.34619.38281.56055s.13379.46924.13379.76562c0,.41455-.08984.76904-.27051,1.06299-.17969.29395-.41895.5332-.71777.71777-.29785.18457-.64258.31885-1.03223.40332s-.79395.12646-1.21289.12646c-.77051,0-1.4834-.11865-2.13965-.35547Z" fill="#2f2f2f"/>
        <path d="M326.11412,165.70049v-1.75c.35547.21436.70996.37354,1.06348.47852.35254.10498.68652.15723,1.00098.15723.38281,0,.68457-.05225.90625-.15723.2207-.10498.33105-.26416.33105-.47852,0-.13672-.0498-.25049-.15039-.3418-.09961-.09131-.22852-.1709-.38574-.23926s-.3291-.12988-.5166-.18457c-.18652-.05469-.36621-.11621-.54004-.18457-.27734-.10498-.52246-.21777-.73438-.33838s-.38965-.26074-.5332-.42041-.25293-.34424-.32812-.55371-.11328-.45801-.11328-.74512c0-.39209.08594-.729.25684-1.01172s.39844-.51367.68359-.69385c.28418-.18018.61035-.31201.97754-.39648.36621-.08447.74805-.12646,1.14453-.12646.31055,0,.625.02393.94336.07178.31934.04785.63379.11719.94336.2085v1.66797c-.27344-.15967-.56641-.2793-.87793-.35889-.3125-.07959-.61914-.11963-.91992-.11963-.14062,0-.27441.0127-.39941.0376-.12598.0249-.23633.06152-.33203.10938s-.1709.10938-.22559.18457-.08203.16064-.08203.25635c0,.12744.04102.23682.12305.32812s.18945.16992.32129.23584c.13281.06592.2793.12549.44141.17773.16113.05225.32227.10596.48145.16064.28711.1001.54688.20947.7793.32812s.43164.25732.59863.41699c.16602.15967.29395.34619.38281.56055s.13281.46924.13281.76562c0,.41455-.08984.76904-.26953,1.06299-.18066.29395-.41992.5332-.71777.71777-.29883.18457-.64258.31885-1.03223.40332s-.79395.12646-1.21387.12646c-.76953,0-1.4834-.11865-2.13965-.35547Z" fill="#2f2f2f"/>
        <path d="M340.73619,168.11357h-1.76367c-1.47168-1.62256-2.20801-3.61621-2.20801-5.98145,0-2.2832.73633-4.2998,2.20801-6.0498h1.75c-1.38086,1.83203-2.07129,3.84863-2.07129,6.0498s.69531,4.19482,2.08496,5.98145Z" fill="#2f2f2f"/>
        <path d="M347.04576,165.88506h-6.28223v-.89551l3.51367-4.51172h-3.16504v-1.59277h5.90625v1.06641l-3.3291,4.34082h3.35645v1.59277Z" fill="#2f2f2f"/>
        <path d="M351.5067,166.05596c-1.16602,0-2.08398-.32715-2.75098-.98096-.66797-.65381-1.00195-1.5415-1.00195-2.6626,0-1.15771.34668-2.06348,1.03906-2.71729.69336-.65381,1.62988-.98096,2.80957-.98096,1.16211,0,2.07422.32715,2.73438.98096.66113.65381.99121,1.51855.99121,2.59424,0,1.16211-.34082,2.08057-1.02148,2.75488-.68164.67432-1.61426,1.01172-2.7998,1.01172ZM351.56139,160.36846c-.50977,0-.90625.17529-1.18945.52637-.28223.35107-.42383.84766-.42383,1.49023,0,1.34424.54297,2.0166,1.62695,2.0166,1.03516,0,1.55176-.69043,1.55176-2.07129,0-1.30811-.52148-1.96191-1.56543-1.96191Z" fill="#2f2f2f"/>
        <path d="M363.46959,165.88506h-2.15332v-3.88965c0-1.08447-.3877-1.62695-1.16211-1.62695-.37402,0-.68164.14355-.92285.43066-.24219.28711-.3623.65186-.3623,1.09375v3.99219h-2.16016v-7h2.16016v1.10742h.02734c.51465-.85205,1.26465-1.27832,2.24902-1.27832,1.54883,0,2.32422.96143,2.32422,2.88477v4.28613Z" fill="#2f2f2f"/>
        <path d="M371.49107,163.00029h-4.56641c.07324,1.01611.71387,1.52441,1.9209,1.52441.77051,0,1.44727-.18213,2.03027-.54688v1.55859c-.64648.34619-1.4873.51953-2.52246.51953-1.12988,0-2.00684-.31348-2.63184-.93994-.62402-.62646-.93652-1.50049-.93652-2.62158,0-1.16211.33789-2.08252,1.01172-2.76172.6748-.6792,1.50391-1.01855,2.48828-1.01855,1.02148,0,1.81055.30322,2.36914.90918.55762.60596.83691,1.42871.83691,2.46777v.90918ZM369.48814,161.67412c0-1.00244-.40527-1.50391-1.2168-1.50391-.3457,0-.64551.14355-.89844.43066s-.40723.64502-.46191,1.07324h2.57715Z" fill="#2f2f2f"/>
        <path d="M376.64732,162.90459h-3.73926v-1.51074h3.73926v1.51074Z" fill="#2f2f2f"/>
        <path d="M382.92271,160.8333c-.25977-.14111-.5625-.21191-.90918-.21191-.46875,0-.83594.17188-1.10059.51611-.26367.34424-.39648.8125-.39648,1.40479v3.34277h-2.16016v-7h2.16016v1.29883h.02734c.3418-.94775.95703-1.42188,1.8457-1.42188.22852,0,.40625.02734.5332.08203v1.98926Z" fill="#2f2f2f"/>
        <path d="M390.29576,163.00029h-4.56641c.07227,1.01611.71289,1.52441,1.9209,1.52441.76953,0,1.44629-.18213,2.03027-.54688v1.55859c-.64746.34619-1.48828.51953-2.52246.51953-1.13086,0-2.00781-.31348-2.63184-.93994-.625-.62646-.93652-1.50049-.93652-2.62158,0-1.16211.33691-2.08252,1.01172-2.76172.67383-.6792,1.50391-1.01855,2.48828-1.01855,1.02051,0,1.81055.30322,2.36816.90918.55859.60596.83789,1.42871.83789,2.46777v.90918ZM388.29283,161.67412c0-1.00244-.40625-1.50391-1.2168-1.50391-.34668,0-.64648.14355-.89941.43066s-.40625.64502-.46094,1.07324h2.57715Z" fill="#2f2f2f"/>
        <path d="M398.54088,165.88506h-2.16016v-.96387h-.02734c-.49219.75635-1.21484,1.13477-2.16699,1.13477-.875,0-1.5791-.30859-2.1123-.92627s-.7998-1.47998-.7998-2.5874c0-1.15771.29395-2.08496.88184-2.78223s1.35742-1.0459,2.31055-1.0459c.90234,0,1.53125.32373,1.88672.9707h.02734v-4.16309h2.16016v10.36328ZM396.42174,162.48076v-.52637c0-.45557-.13281-.83398-.39648-1.13477-.26465-.30078-.6084-.45117-1.03223-.45117-.47852,0-.85254.18799-1.12109.56396-.26953.37598-.40332.89209-.40332,1.54834,0,.61523.12988,1.08936.38965,1.42188s.61914.49902,1.08008.49902c.4375,0,.79395-.17529,1.06934-.52637.27637-.35107.41406-.81592.41406-1.39453Z" fill="#2f2f2f"/>
        <path d="M406.99791,165.88506h-2.15332v-1.06641h-.03418c-.5332.82471-1.24609,1.2373-2.13965,1.2373-1.62207,0-2.43359-.98193-2.43359-2.94629v-4.22461h2.15332v4.0332c0,.98877.39258,1.4834,1.17578,1.4834.3877,0,.69727-.13574.92969-.40674s.34863-.63916.34863-1.104v-4.00586h2.15332v7Z" fill="#2f2f2f"/>
        <path d="M415.52623,165.88506h-2.15332v-3.88965c0-1.08447-.38672-1.62695-1.16211-1.62695-.37305,0-.68066.14355-.92285.43066-.24121.28711-.3623.65186-.3623,1.09375v3.99219h-2.16016v-7h2.16016v1.10742h.02734c.51562-.85205,1.26465-1.27832,2.24902-1.27832,1.5498,0,2.32422.96143,2.32422,2.88477v4.28613Z" fill="#2f2f2f"/>
        <path d="M424.10924,165.88506h-2.16016v-.96387h-.02734c-.49219.75635-1.21484,1.13477-2.16699,1.13477-.875,0-1.5791-.30859-2.1123-.92627s-.7998-1.47998-.7998-2.5874c0-1.15771.29395-2.08496.88184-2.78223s1.35742-1.0459,2.31055-1.0459c.90234,0,1.53125.32373,1.88672.9707h.02734v-4.16309h2.16016v10.36328ZM421.9901,162.48076v-.52637c0-.45557-.13281-.83398-.39648-1.13477-.26465-.30078-.6084-.45117-1.03223-.45117-.47852,0-.85254.18799-1.12109.56396-.26953.37598-.40332.89209-.40332,1.54834,0,.61523.12988,1.08936.38965,1.42188s.61914.49902,1.08008.49902c.4375,0,.79395-.17529,1.06934-.52637.27637-.35107.41406-.81592.41406-1.39453Z" fill="#2f2f2f"/>
        <path d="M431.75767,165.88506h-2.04395v-1.00488h-.02734c-.46973.78369-1.16504,1.17578-2.08496,1.17578-.67969,0-1.21387-.19238-1.60352-.57764s-.58398-.89893-.58398-1.5415c0-1.35791.80371-2.14209,2.41309-2.35156l1.90039-.25293c0-.76562-.41504-1.14844-1.24414-1.14844-.83398,0-1.62695.24854-2.37891.74512v-1.62695c.30078-.15479.71191-.2915,1.2334-.41016.52246-.11865.99707-.17773,1.42578-.17773,1.99609,0,2.99414.99561,2.99414,2.9873v4.18359ZM429.7274,163.04131v-.47168l-1.27148.16406c-.70215.09131-1.05273.40771-1.05273.9502,0,.24609.08496.44775.25586.60498s.40234.23584.69434.23584c.40527,0,.73535-.14014.99121-.42041.25488-.28027.38281-.63477.38281-1.06299Z" fill="#2f2f2f"/>
        <path d="M440.21471,165.88506h-2.15332v-3.88965c0-1.08447-.3877-1.62695-1.16211-1.62695-.37402,0-.68164.14355-.92285.43066-.24219.28711-.3623.65186-.3623,1.09375v3.99219h-2.16016v-7h2.16016v1.10742h.02734c.51465-.85205,1.26465-1.27832,2.24902-1.27832,1.54883,0,2.32422.96143,2.32422,2.88477v4.28613Z" fill="#2f2f2f"/>
        <path d="M446.06334,165.80303c-.31836.16846-.7998.25293-1.44238.25293-1.52148,0-2.2832-.79053-2.2832-2.37207v-3.20605h-1.13477v-1.59277h1.13477v-1.51074l2.15332-.61523v2.12598h1.57227v1.59277h-1.57227v2.83008c0,.729.29004,1.09375.86816,1.09375.22852,0,.46289-.06592.7041-.19824v1.59961Z" fill="#2f2f2f"/>
        <path d="M447.88463,168.11357h-1.75c1.39453-1.77734,2.0918-3.771,2.0918-5.98145,0-2.19189-.69727-4.2085-2.0918-6.0498h1.76367c1.47656,1.75439,2.21484,3.771,2.21484,6.0498,0,2.34717-.74219,4.34082-2.22852,5.98145Z" fill="#2f2f2f"/>
      </g>
      <g>
        <path d="M265.11656,33.12871h-2.40625l-.69727-2.18066h-3.48633l-.69043,2.18066h-2.39258l3.56836-9.80273h2.61816l3.48633,9.80273ZM261.50719,29.25273l-1.05273-3.29492c-.07764-.24609-.13232-.54004-.16406-.88184h-.05469c-.02295.28711-.07959.57178-.1709.85449l-1.06641,3.32227h2.50879Z" fill="#2f2f2f"/>
        <path d="M272.48131,26.12871l-2.60449,7h-2.46094l-2.48145-7h2.31055l1.2168,4.31348c.13672.48779.21631.90234.23926,1.24414h.02734c.03174-.32373.11621-.72461.25293-1.20312l1.24414-4.35449h2.25586Z" fill="#2f2f2f"/>
        <path d="M279.13707,33.12871h-2.04395v-1.00488h-.02734c-.46924.78369-1.16455,1.17578-2.08496,1.17578-.6792,0-1.21338-.19238-1.60303-.57764s-.58447-.89893-.58447-1.5415c0-1.35791.8042-2.14209,2.41309-2.35156l1.90039-.25293c0-.76562-.41455-1.14844-1.24414-1.14844-.83398,0-1.62695.24854-2.37891.74512v-1.62695c.30078-.15479.71191-.2915,1.23389-.41016s.99707-.17773,1.42529-.17773c1.99609,0,2.99414.99561,2.99414,2.9873v4.18359ZM277.1068,30.28496v-.47168l-1.27148.16406c-.70166.09131-1.05273.40771-1.05273.9502,0,.24609.08545.44775.25635.60498s.40234.23584.69385.23584c.40576,0,.73584-.14014.99121-.42041s.38281-.63477.38281-1.06299Z" fill="#2f2f2f"/>
        <path d="M281.90758,25.02129c-.36475,0-.66309-.1084-.89551-.32471s-.34863-.48193-.34863-.79639c0-.32373.11621-.58789.34863-.79297s.53076-.30762.89551-.30762c.36914,0,.66895.10254.89893.30762s.34521.46924.34521.79297c0,.32812-.11523.59717-.34521.80664s-.52979.31445-.89893.31445ZM282.97398,33.12871h-2.16016v-7h2.16016v7Z" fill="#2f2f2f"/>
        <path d="M286.90904,33.12871h-2.16016v-10.36328h2.16016v10.36328Z" fill="#2f2f2f"/>
        <path d="M294.57408,33.12871h-2.04395v-1.00488h-.02734c-.46924.78369-1.16455,1.17578-2.08496,1.17578-.6792,0-1.21338-.19238-1.60303-.57764s-.58447-.89893-.58447-1.5415c0-1.35791.8042-2.14209,2.41309-2.35156l1.90039-.25293c0-.76562-.41455-1.14844-1.24414-1.14844-.83398,0-1.62695.24854-2.37891.74512v-1.62695c.30078-.15479.71191-.2915,1.23389-.41016s.99707-.17773,1.42529-.17773c1.99609,0,2.99414.99561,2.99414,2.9873v4.18359ZM292.54381,30.28496v-.47168l-1.27148.16406c-.70166.09131-1.05273.40771-1.05273.9502,0,.24609.08545.44775.25635.60498s.40234.23584.69385.23584c.40576,0,.73584-.14014.99121-.42041s.38281-.63477.38281-1.06299Z" fill="#2f2f2f"/>
        <path d="M298.45787,32.31523h-.02734v.81348h-2.16016v-10.36328h2.16016v4.41602h.02734c.5332-.81592,1.29199-1.22363,2.27637-1.22363.90234,0,1.59717.31006,2.08496.92969s.73145,1.46729.73145,2.54297c0,1.1665-.28467,2.10303-.85449,2.80957s-1.33057,1.05957-2.2832,1.05957c-.86133,0-1.51318-.32812-1.95508-.98438ZM298.39635,29.36211v.71777c0,.45117.12988.82471.38965,1.12109s.59229.44434.99805.44434c.49219,0,.87402-.19043,1.14502-.5708s.40674-.91943.40674-1.6167c0-.57861-.12402-1.03125-.37256-1.35693s-.60254-.48877-1.06299-.48877c-.43311,0-.79199.16162-1.07666.48535s-.42725.74512-.42725,1.26465Z" fill="#2f2f2f"/>
        <path d="M306.04576,25.02129c-.36475,0-.66309-.1084-.89551-.32471s-.34863-.48193-.34863-.79639c0-.32373.11621-.58789.34863-.79297s.53076-.30762.89551-.30762c.36914,0,.66895.10254.89893.30762s.34521.46924.34521.79297c0,.32812-.11523.59717-.34521.80664s-.52979.31445-.89893.31445ZM307.11217,33.12871h-2.16016v-7h2.16016v7Z" fill="#2f2f2f"/>
        <path d="M311.04771,33.12871h-2.16016v-10.36328h2.16016v10.36328Z" fill="#2f2f2f"/>
        <path d="M313.91637,25.02129c-.36475,0-.66309-.1084-.89551-.32471s-.34863-.48193-.34863-.79639c0-.32373.11621-.58789.34863-.79297s.53076-.30762.89551-.30762c.36914,0,.66895.10254.89893.30762s.34521.46924.34521.79297c0,.32812-.11523.59717-.34521.80664s-.52979.31445-.89893.31445ZM314.98277,33.12871h-2.16016v-7h2.16016v7Z" fill="#2f2f2f"/>
        <path d="M320.91881,33.04668c-.31885.16846-.7998.25293-1.44238.25293-1.52197,0-2.2832-.79053-2.2832-2.37207v-3.20605h-1.13477v-1.59277h1.13477v-1.51074l2.15332-.61523v2.12598h1.57227v1.59277h-1.57227v2.83008c0,.729.28955,1.09375.86816,1.09375.22803,0,.4624-.06592.7041-.19824v1.59961Z" fill="#2f2f2f"/>
        <path d="M329.1439,26.12871l-2.84375,7.56055c-.68359,1.81836-1.71338,2.72754-3.08984,2.72754-.52393,0-.95459-.05908-1.29199-.17773v-1.72266c.28711.16846.59912.25293.93652.25293.55615,0,.94336-.26221,1.16211-.78613l.36914-.86816-2.84375-6.98633h2.39258l1.30566,4.25879c.08203.26416.146.57666.19141.93652h.02734c.04102-.26416.11621-.57178.22559-.92285l1.31934-4.27246h2.13965Z" fill="#2f2f2f"/>
        <path d="M341.14098,33.12871h-7.89551v-1.27148l5.02441-6.7334h-4.66211v-1.79785h7.51953v1.2373l-4.91504,6.77441h4.92871v1.79102Z" fill="#2f2f2f"/>
        <path d="M345.65953,33.29961c-1.1665,0-2.08398-.32715-2.75146-.98096s-1.00146-1.5415-1.00146-2.6626c0-1.15771.34619-2.06348,1.03906-2.71729s1.62939-.98096,2.80957-.98096c1.16211,0,2.07373.32715,2.73438.98096s.99121,1.51855.99121,2.59424c0,1.16211-.34082,2.08057-1.02197,2.75488s-1.61426,1.01172-2.79932,1.01172ZM345.71422,27.61211c-.51025,0-.90674.17529-1.18945.52637s-.42383.84766-.42383,1.49023c0,1.34424.54248,2.0166,1.62695,2.0166,1.03467,0,1.55176-.69043,1.55176-2.07129,0-1.30811-.52197-1.96191-1.56543-1.96191Z" fill="#2f2f2f"/>
        <path d="M357.62193,33.12871h-2.15332v-3.88965c0-1.08447-.38721-1.62695-1.16211-1.62695-.37354,0-.68115.14355-.92285.43066s-.3623.65186-.3623,1.09375v3.99219h-2.16016v-7h2.16016v1.10742h.02734c.51514-.85205,1.26465-1.27832,2.24902-1.27832,1.54932,0,2.32422.96143,2.32422,2.88477v4.28613Z" fill="#2f2f2f"/>
        <path d="M365.6439,30.24395h-4.56641c.07275,1.01611.71338,1.52441,1.9209,1.52441.77002,0,1.44678-.18213,2.03027-.54688v1.55859c-.64697.34619-1.48779.51953-2.52246.51953-1.13037,0-2.00732-.31348-2.63184-.93994s-.93652-1.50049-.93652-2.62158c0-1.16211.3374-2.08252,1.01172-2.76172s1.50391-1.01855,2.48828-1.01855c1.021,0,1.81055.30322,2.36865.90918s.8374,1.42871.8374,2.46777v.90918ZM363.64098,28.91777c0-1.00244-.40576-1.50391-1.2168-1.50391-.34619,0-.646.14355-.89893.43066s-.40674.64502-.46143,1.07324h2.57715Z" fill="#2f2f2f"/>
        <path d="M372.8148,31.3377h4.15625v1.79102h-6.52148v-.73828c0-.50146.08447-.95117.25293-1.3501s.38037-.75635.63574-1.07324.53418-.59717.8374-.84082.59131-.46387.86475-.65967c.28711-.20508.53906-.40088.75537-.58789s.39893-.37256.54688-.55713.25879-.37158.33154-.56055.10938-.39062.10938-.60498c0-.41943-.11865-.73584-.35547-.9502s-.59912-.32129-1.08691-.32129c-.84326,0-1.6499.33496-2.41992,1.00488v-1.90039c.85205-.55127,1.81396-.82715,2.88477-.82715.49658,0,.94238.06494,1.33643.19482s.72803.31543,1.00146.55713.48193.53418.62549.87842.21533.72803.21533,1.15186c0,.45117-.06934.85205-.2085,1.20312s-.32373.66992-.55371.95703-.49561.55029-.79639.78955-.61279.4707-.93652.69385c-.21875.15479-.42969.30859-.63232.46143s-.38184.30322-.53662.45117-.27783.29297-.36914.43408-.13672.27588-.13672.40332Z" fill="#2f2f2f"/>
      </g>
      <g>
        <path d="M58.23717,33.12871h-2.40625l-.69727-2.18066h-3.48633l-.69043,2.18066h-2.39258l3.56836-9.80273h2.61816l3.48633,9.80273ZM54.62779,29.25273l-1.05273-3.29492c-.07764-.24609-.13232-.54004-.16406-.88184h-.05469c-.02295.28711-.07959.57178-.1709.85449l-1.06641,3.32227h2.50879Z" fill="#2f2f2f"/>
        <path d="M65.60191,26.12871l-2.60449,7h-2.46094l-2.48145-7h2.31055l1.2168,4.31348c.13672.48779.21631.90234.23926,1.24414h.02734c.03174-.32373.11621-.72461.25293-1.20312l1.24414-4.35449h2.25586Z" fill="#2f2f2f"/>
        <path d="M72.25767,33.12871h-2.04395v-1.00488h-.02734c-.46924.78369-1.16455,1.17578-2.08496,1.17578-.6792,0-1.21338-.19238-1.60303-.57764s-.58447-.89893-.58447-1.5415c0-1.35791.8042-2.14209,2.41309-2.35156l1.90039-.25293c0-.76562-.41455-1.14844-1.24414-1.14844-.83398,0-1.62695.24854-2.37891.74512v-1.62695c.30078-.15479.71191-.2915,1.23389-.41016s.99707-.17773,1.42529-.17773c1.99609,0,2.99414.99561,2.99414,2.9873v4.18359ZM70.2274,30.28496v-.47168l-1.27148.16406c-.70166.09131-1.05273.40771-1.05273.9502,0,.24609.08545.44775.25635.60498s.40234.23584.69385.23584c.40576,0,.73584-.14014.99121-.42041s.38281-.63477.38281-1.06299Z" fill="#2f2f2f"/>
        <path d="M75.02818,25.02129c-.36475,0-.66309-.1084-.89551-.32471s-.34863-.48193-.34863-.79639c0-.32373.11621-.58789.34863-.79297s.53076-.30762.89551-.30762c.36914,0,.66895.10254.89893.30762s.34521.46924.34521.79297c0,.32812-.11523.59717-.34521.80664s-.52979.31445-.89893.31445ZM76.09459,33.12871h-2.16016v-7h2.16016v7Z" fill="#2f2f2f"/>
        <path d="M80.02965,33.12871h-2.16016v-10.36328h2.16016v10.36328Z" fill="#2f2f2f"/>
        <path d="M87.69469,33.12871h-2.04395v-1.00488h-.02734c-.46924.78369-1.16455,1.17578-2.08496,1.17578-.6792,0-1.21338-.19238-1.60303-.57764s-.58447-.89893-.58447-1.5415c0-1.35791.8042-2.14209,2.41309-2.35156l1.90039-.25293c0-.76562-.41455-1.14844-1.24414-1.14844-.83398,0-1.62695.24854-2.37891.74512v-1.62695c.30078-.15479.71191-.2915,1.23389-.41016s.99707-.17773,1.42529-.17773c1.99609,0,2.99414.99561,2.99414,2.9873v4.18359ZM85.66441,30.28496v-.47168l-1.27148.16406c-.70166.09131-1.05273.40771-1.05273.9502,0,.24609.08545.44775.25635.60498s.40234.23584.69385.23584c.40576,0,.73584-.14014.99121-.42041s.38281-.63477.38281-1.06299Z" fill="#2f2f2f"/>
        <path d="M91.57848,32.31523h-.02734v.81348h-2.16016v-10.36328h2.16016v4.41602h.02734c.5332-.81592,1.29199-1.22363,2.27637-1.22363.90234,0,1.59717.31006,2.08496.92969s.73145,1.46729.73145,2.54297c0,1.1665-.28467,2.10303-.85449,2.80957s-1.33057,1.05957-2.2832,1.05957c-.86133,0-1.51318-.32812-1.95508-.98438ZM91.51695,29.36211v.71777c0,.45117.12988.82471.38965,1.12109s.59229.44434.99805.44434c.49219,0,.87402-.19043,1.14502-.5708s.40674-.91943.40674-1.6167c0-.57861-.12402-1.03125-.37256-1.35693s-.60254-.48877-1.06299-.48877c-.43311,0-.79199.16162-1.07666.48535s-.42725.74512-.42725,1.26465Z" fill="#2f2f2f"/>
        <path d="M99.16637,25.02129c-.36475,0-.66309-.1084-.89551-.32471s-.34863-.48193-.34863-.79639c0-.32373.11621-.58789.34863-.79297s.53076-.30762.89551-.30762c.36914,0,.66895.10254.89893.30762s.34521.46924.34521.79297c0,.32812-.11523.59717-.34521.80664s-.52979.31445-.89893.31445ZM100.23277,33.12871h-2.16016v-7h2.16016v7Z" fill="#2f2f2f"/>
        <path d="M104.16832,33.12871h-2.16016v-10.36328h2.16016v10.36328Z" fill="#2f2f2f"/>
        <path d="M107.03697,25.02129c-.36475,0-.66309-.1084-.89551-.32471s-.34863-.48193-.34863-.79639c0-.32373.11621-.58789.34863-.79297s.53076-.30762.89551-.30762c.36914,0,.66895.10254.89893.30762s.34521.46924.34521.79297c0,.32812-.11523.59717-.34521.80664s-.52979.31445-.89893.31445ZM108.10338,33.12871h-2.16016v-7h2.16016v7Z" fill="#2f2f2f"/>
        <path d="M114.03941,33.04668c-.31885.16846-.7998.25293-1.44238.25293-1.52197,0-2.2832-.79053-2.2832-2.37207v-3.20605h-1.13477v-1.59277h1.13477v-1.51074l2.15332-.61523v2.12598h1.57227v1.59277h-1.57227v2.83008c0,.729.28955,1.09375.86816,1.09375.22803,0,.4624-.06592.7041-.19824v1.59961Z" fill="#2f2f2f"/>
        <path d="M122.26451,26.12871l-2.84375,7.56055c-.68359,1.81836-1.71338,2.72754-3.08984,2.72754-.52393,0-.95459-.05908-1.29199-.17773v-1.72266c.28711.16846.59912.25293.93652.25293.55615,0,.94336-.26221,1.16211-.78613l.36914-.86816-2.84375-6.98633h2.39258l1.30566,4.25879c.08203.26416.146.57666.19141.93652h.02734c.04102-.26416.11621-.57178.22559-.92285l1.31934-4.27246h2.13965Z" fill="#2f2f2f"/>
        <path d="M134.26158,33.12871h-7.89551v-1.27148l5.02441-6.7334h-4.66211v-1.79785h7.51953v1.2373l-4.91504,6.77441h4.92871v1.79102Z" fill="#2f2f2f"/>
        <path d="M138.78014,33.29961c-1.1665,0-2.08398-.32715-2.75146-.98096s-1.00146-1.5415-1.00146-2.6626c0-1.15771.34619-2.06348,1.03906-2.71729s1.62939-.98096,2.80957-.98096c1.16211,0,2.07373.32715,2.73438.98096s.99121,1.51855.99121,2.59424c0,1.16211-.34082,2.08057-1.02197,2.75488s-1.61426,1.01172-2.79932,1.01172ZM138.83482,27.61211c-.51025,0-.90674.17529-1.18945.52637s-.42383.84766-.42383,1.49023c0,1.34424.54248,2.0166,1.62695,2.0166,1.03467,0,1.55176-.69043,1.55176-2.07129,0-1.30811-.52197-1.96191-1.56543-1.96191Z" fill="#2f2f2f"/>
        <path d="M150.74254,33.12871h-2.15332v-3.88965c0-1.08447-.38721-1.62695-1.16211-1.62695-.37354,0-.68115.14355-.92285.43066s-.3623.65186-.3623,1.09375v3.99219h-2.16016v-7h2.16016v1.10742h.02734c.51514-.85205,1.26465-1.27832,2.24902-1.27832,1.54932,0,2.32422.96143,2.32422,2.88477v4.28613Z" fill="#2f2f2f"/>
        <path d="M158.76451,30.24395h-4.56641c.07275,1.01611.71338,1.52441,1.9209,1.52441.77002,0,1.44678-.18213,2.03027-.54688v1.55859c-.64697.34619-1.48779.51953-2.52246.51953-1.13037,0-2.00732-.31348-2.63184-.93994s-.93652-1.50049-.93652-2.62158c0-1.16211.3374-2.08252,1.01172-2.76172s1.50391-1.01855,2.48828-1.01855c1.021,0,1.81055.30322,2.36865.90918s.8374,1.42871.8374,2.46777v.90918ZM156.76158,28.91777c0-1.00244-.40576-1.50391-1.2168-1.50391-.34619,0-.646.14355-.89893.43066s-.40674.64502-.46143,1.07324h2.57715Z" fill="#2f2f2f"/>
        <path d="M168.69029,23.10723v10.02148h-2.15332v-7.58789c-.11865.10498-.25879.2041-.42041.29736s-.33398.17773-.51611.25293-.37158.13916-.56738.19141-.38965.08984-.58105.11279v-1.81836c.56055-.16406,1.08936-.37354,1.58594-.62891s.9458-.53564,1.34668-.84082h1.30566Z" fill="#2f2f2f"/>
      </g>
      <g>
        <path d="M471.91685,33.12871h-2.40625l-.69727-2.18066h-3.48633l-.69043,2.18066h-2.39258l3.56836-9.80273h2.61816l3.48633,9.80273ZM468.30748,29.25273l-1.05273-3.29492c-.07812-.24609-.13281-.54004-.16406-.88184h-.05469c-.02344.28711-.08008.57178-.1709.85449l-1.06641,3.32227h2.50879Z" fill="#2f2f2f"/>
        <path d="M479.28111,26.12871l-2.60449,7h-2.46094l-2.48145-7h2.31055l1.2168,4.31348c.13672.48779.2168.90234.23926,1.24414h.02734c.03223-.32373.11621-.72461.25293-1.20312l1.24414-4.35449h2.25586Z" fill="#2f2f2f"/>
        <path d="M485.93736,33.12871h-2.04395v-1.00488h-.02734c-.46973.78369-1.16504,1.17578-2.08496,1.17578-.67969,0-1.21387-.19238-1.60352-.57764s-.58398-.89893-.58398-1.5415c0-1.35791.80371-2.14209,2.41309-2.35156l1.90039-.25293c0-.76562-.41504-1.14844-1.24414-1.14844-.83398,0-1.62695.24854-2.37891.74512v-1.62695c.30078-.15479.71191-.2915,1.2334-.41016.52246-.11865.99707-.17773,1.42578-.17773,1.99609,0,2.99414.99561,2.99414,2.9873v4.18359ZM483.90709,30.28496v-.47168l-1.27148.16406c-.70215.09131-1.05273.40771-1.05273.9502,0,.24609.08496.44775.25586.60498s.40234.23584.69434.23584c.40527,0,.73535-.14014.99121-.42041.25488-.28027.38281-.63477.38281-1.06299Z" fill="#2f2f2f"/>
        <path d="M488.70787,25.02129c-.36523,0-.66309-.1084-.89551-.32471s-.34863-.48193-.34863-.79639c0-.32373.11621-.58789.34863-.79297s.53027-.30762.89551-.30762c.36914,0,.66895.10254.89844.30762.23047.20508.3457.46924.3457.79297,0,.32812-.11523.59717-.3457.80664-.22949.20947-.5293.31445-.89844.31445ZM489.77428,33.12871h-2.16016v-7h2.16016v7Z" fill="#2f2f2f"/>
        <path d="M493.70885,33.12871h-2.16016v-10.36328h2.16016v10.36328Z" fill="#2f2f2f"/>
        <path d="M501.37389,33.12871h-2.04395v-1.00488h-.02734c-.46875.78369-1.16406,1.17578-2.08496,1.17578-.67871,0-1.21289-.19238-1.60254-.57764s-.58496-.89893-.58496-1.5415c0-1.35791.80469-2.14209,2.41309-2.35156l1.90039-.25293c0-.76562-.41406-1.14844-1.24414-1.14844-.83398,0-1.62695.24854-2.37891.74512v-1.62695c.30078-.15479.71191-.2915,1.23438-.41016.52148-.11865.99707-.17773,1.4248-.17773,1.99609,0,2.99414.99561,2.99414,2.9873v4.18359ZM499.34361,30.28496v-.47168l-1.27148.16406c-.70117.09131-1.05273.40771-1.05273.9502,0,.24609.08594.44775.25684.60498s.40234.23584.69336.23584c.40625,0,.73633-.14014.99121-.42041.25586-.28027.38281-.63477.38281-1.06299Z" fill="#2f2f2f"/>
        <path d="M505.25767,32.31523h-.02734v.81348h-2.16016v-10.36328h2.16016v4.41602h.02734c.5332-.81592,1.29199-1.22363,2.27637-1.22363.90234,0,1.59766.31006,2.08496.92969.48828.61963.73145,1.46729.73145,2.54297,0,1.1665-.28418,2.10303-.85449,2.80957-.56934.70654-1.33008,1.05957-2.2832,1.05957-.86133,0-1.5127-.32812-1.95508-.98438ZM505.19615,29.36211v.71777c0,.45117.12988.82471.38965,1.12109s.59277.44434.99805.44434c.49219,0,.87402-.19043,1.14551-.5708.27051-.38037.40625-.91943.40625-1.6167,0-.57861-.12402-1.03125-.37207-1.35693-.24902-.32568-.60254-.48877-1.06348-.48877-.43262,0-.79199.16162-1.07617.48535-.28516.32373-.42773.74512-.42773,1.26465Z" fill="#2f2f2f"/>
        <path d="M512.84557,25.02129c-.36426,0-.66309-.1084-.89551-.32471s-.34863-.48193-.34863-.79639c0-.32373.11621-.58789.34863-.79297s.53125-.30762.89551-.30762c.36914,0,.66895.10254.89941.30762.22949.20508.34473.46924.34473.79297,0,.32812-.11523.59717-.34473.80664-.23047.20947-.53027.31445-.89941.31445ZM513.91197,33.12871h-2.16016v-7h2.16016v7Z" fill="#2f2f2f"/>
        <path d="M517.84752,33.12871h-2.16016v-10.36328h2.16016v10.36328Z" fill="#2f2f2f"/>
        <path d="M520.71666,25.02129c-.36523,0-.66309-.1084-.89551-.32471s-.34863-.48193-.34863-.79639c0-.32373.11621-.58789.34863-.79297s.53027-.30762.89551-.30762c.36914,0,.66895.10254.89844.30762.23047.20508.3457.46924.3457.79297,0,.32812-.11523.59717-.3457.80664-.22949.20947-.5293.31445-.89844.31445ZM521.78307,33.12871h-2.16016v-7h2.16016v7Z" fill="#2f2f2f"/>
        <path d="M527.71861,33.04668c-.31836.16846-.7998.25293-1.44238.25293-1.52148,0-2.2832-.79053-2.2832-2.37207v-3.20605h-1.13477v-1.59277h1.13477v-1.51074l2.15332-.61523v2.12598h1.57227v1.59277h-1.57227v2.83008c0,.729.29004,1.09375.86816,1.09375.22852,0,.46289-.06592.7041-.19824v1.59961Z" fill="#2f2f2f"/>
        <path d="M535.9442,26.12871l-2.84375,7.56055c-.68359,1.81836-1.71387,2.72754-3.08984,2.72754-.52441,0-.95508-.05908-1.29199-.17773v-1.72266c.28711.16846.59863.25293.93652.25293.55566,0,.94336-.26221,1.16211-.78613l.36914-.86816-2.84375-6.98633h2.39258l1.30566,4.25879c.08203.26416.14551.57666.19141.93652h.02734c.04102-.26416.11621-.57178.22559-.92285l1.31934-4.27246h2.13965Z" fill="#2f2f2f"/>
        <path d="M547.94127,33.12871h-7.89551v-1.27148l5.02441-6.7334h-4.66211v-1.79785h7.51953v1.2373l-4.91504,6.77441h4.92871v1.79102Z" fill="#2f2f2f"/>
        <path d="M552.45982,33.29961c-1.16699,0-2.08398-.32715-2.75195-.98096-.66699-.65381-1.00098-1.5415-1.00098-2.6626,0-1.15771.3457-2.06348,1.03906-2.71729.69238-.65381,1.62891-.98096,2.80957-.98096,1.16211,0,2.07324.32715,2.73438.98096.66016.65381.99121,1.51855.99121,2.59424,0,1.16211-.34082,2.08057-1.02246,2.75488-.68066.67432-1.61426,1.01172-2.79883,1.01172ZM552.51451,27.61211c-.51074,0-.90723.17529-1.18945.52637-.2832.35107-.42383.84766-.42383,1.49023,0,1.34424.54199,2.0166,1.62695,2.0166,1.03418,0,1.55176-.69043,1.55176-2.07129,0-1.30811-.52246-1.96191-1.56543-1.96191Z" fill="#2f2f2f"/>
        <path d="M564.42174,33.12871h-2.15332v-3.88965c0-1.08447-.38672-1.62695-1.16211-1.62695-.37305,0-.68066.14355-.92285.43066-.24121.28711-.3623.65186-.3623,1.09375v3.99219h-2.16016v-7h2.16016v1.10742h.02734c.51562-.85205,1.26465-1.27832,2.24902-1.27832,1.5498,0,2.32422.96143,2.32422,2.88477v4.28613Z" fill="#2f2f2f"/>
        <path d="M572.4442,30.24395h-4.56641c.07227,1.01611.71289,1.52441,1.9209,1.52441.76953,0,1.44629-.18213,2.03027-.54688v1.55859c-.64746.34619-1.48828.51953-2.52246.51953-1.13086,0-2.00781-.31348-2.63184-.93994-.625-.62646-.93652-1.50049-.93652-2.62158,0-1.16211.33691-2.08252,1.01172-2.76172.67383-.6792,1.50391-1.01855,2.48828-1.01855,1.02051,0,1.81055.30322,2.36816.90918.55859.60596.83789,1.42871.83789,2.46777v.90918ZM570.44127,28.91777c0-1.00244-.40625-1.50391-1.2168-1.50391-.34668,0-.64648.14355-.89941.43066s-.40625.64502-.46094,1.07324h2.57715Z" fill="#2f2f2f"/>
        <path d="M577.48228,32.80742v-1.87988c.65625.47852,1.42188.71777,2.29688.71777.55078,0,.98047-.11865,1.28809-.35547s.46191-.56738.46191-.99121c0-.4375-.19043-.7749-.57129-1.01172-.37988-.23682-.90332-.35547-1.56836-.35547h-.90918v-1.6543h.84082c1.27539,0,1.91406-.42383,1.91406-1.27148,0-.79736-.49023-1.19629-1.46973-1.19629-.65625,0-1.29492.21191-1.91406.63574v-1.76367c.6875-.34619,1.49023-.51953,2.40625-.51953,1.00195,0,1.7832.22559,2.34082.67676.55859.45117.83789,1.03662.83789,1.75684,0,1.28076-.64941,2.08252-1.94824,2.40625v.03418c.69238.08643,1.23926.33838,1.64062.75537.40039.41699.60156.92871.60156,1.53467,0,.91602-.33496,1.64062-1.00488,2.17383s-1.5957.7998-2.77539.7998c-1.01172,0-1.83496-.16406-2.46777-.49219Z" fill="#2f2f2f"/>
      </g>
    </g>
  </g>
</svg>