<?xml version="1.0" encoding="UTF-8"?>
<svg xmlns="http://www.w3.org/2000/svg" width="422.4" height="233.2" xmlns:xlink="http://www.w3.org/1999/xlink" viewBox="0 0 422.4 233.2">
  <defs>
    <linearGradient id="linear-gradient" x1="-550.77306" y1="2084.52888" x2="-532.67119" y2="2084.52888" gradientTransform="translate(564.39799 2109.87118) scale(1 -1)" gradientUnits="userSpaceOnUse">
      <stop offset="0" stop-color="#005ba1"/>
      <stop offset=".07" stop-color="#0060a9"/>
      <stop offset=".36" stop-color="#0071c8"/>
      <stop offset=".52" stop-color="#0078d4"/>
      <stop offset=".64" stop-color="#0074cd"/>
      <stop offset=".82" stop-color="#006abb"/>
      <stop offset="1" stop-color="#005ba1"/>
    </linearGradient>
    <linearGradient id="linear-gradient-2" x1="-229.6" y1="2004.52478" x2="-229.6" y2="2020.39971" gradientTransform="translate(564 2110.4) scale(1 -1)" gradientUnits="userSpaceOnUse">
      <stop offset="0" stop-color="#0078d4"/>
      <stop offset=".82" stop-color="#5ea0ef"/>
    </linearGradient>
    <linearGradient id="linear-gradient-3" x1="-229.6" y1="1998.39971" x2="-229.6" y2="2004.52478" gradientTransform="translate(564 2110.4) scale(1 -1)" gradientUnits="userSpaceOnUse">
      <stop offset=".15" stop-color="#ccc"/>
      <stop offset="1" stop-color="#707070"/>
    </linearGradient>
    <linearGradient id="linear-gradient-4" x1="-235.65421" y1="981.11675" x2="-224.51174" y2="968.99948" gradientTransform="translate(564 1703.77804) scale(1 -1.59)" gradientUnits="userSpaceOnUse">
      <stop offset="0" stop-color="#0078d4"/>
      <stop offset=".02" stop-color="#0d7ed8"/>
      <stop offset=".08" stop-color="#2b8ae0"/>
      <stop offset=".15" stop-color="#4194e7"/>
      <stop offset=".22" stop-color="#519beb"/>
      <stop offset=".29" stop-color="#5b9fee"/>
      <stop offset=".4" stop-color="#5ea0ef"/>
      <stop offset=".55" stop-color="#5b9fee"/>
      <stop offset=".68" stop-color="#509aeb"/>
      <stop offset=".8" stop-color="#3f92e6"/>
      <stop offset=".91" stop-color="#2688df"/>
      <stop offset=".99" stop-color="#127fd9"/>
    </linearGradient>
    <linearGradient id="linear-gradient-5" x1="-471.6" x2="-471.6" xlink:href="#linear-gradient-2"/>
    <linearGradient id="linear-gradient-6" x1="-471.6" x2="-471.6" xlink:href="#linear-gradient-3"/>
    <linearGradient id="linear-gradient-7" x1="-477.65421" y1="981.11675" x2="-466.51174" y2="968.99948" xlink:href="#linear-gradient-4"/>
  </defs>
  <g id="Shapes">
    <rect width="422.4" height="233.2" fill="#fff"/>
    <g>
      <path d="M48.48838,23.88701h-2.40625l-.69727-2.18066h-3.48633l-.69043,2.18066h-2.39258l3.56836-9.80273h2.61816l3.48633,9.80273ZM44.879,20.01104l-1.05273-3.29492c-.07764-.24609-.13232-.54004-.16406-.88184h-.05469c-.02295.28711-.07959.57178-.1709.85449l-1.06641,3.32227h2.50879Z" fill="#2f2f2f"/>
      <path d="M55.39414,23.88701h-6.28223v-.89551l3.51367-4.51172h-3.16504v-1.59277h5.90625v1.06641l-3.3291,4.34082h3.35645v1.59277Z" fill="#2f2f2f"/>
      <path d="M63.27598,23.88701h-2.15332v-1.06641h-.03418c-.5332.82471-1.24658,1.2373-2.13965,1.2373-1.62256,0-2.43359-.98193-2.43359-2.94629v-4.22461h2.15332v4.0332c0,.98877.39209,1.4834,1.17578,1.4834.38721,0,.69727-.13574.92969-.40674s.34863-.63916.34863-1.104v-4.00586h2.15332v7Z" fill="#2f2f2f"/>
      <path d="M69.61045,18.83525c-.25977-.14111-.56299-.21191-.90918-.21191-.46924,0-.83643.17188-1.10059.51611s-.39648.8125-.39648,1.40479v3.34277h-2.16016v-7h2.16016v1.29883h.02734c.3418-.94775.95703-1.42188,1.8457-1.42188.22803,0,.40576.02734.5332.08203v1.98926Z" fill="#2f2f2f"/>
      <path d="M76.98301,21.00225h-4.56641c.07275,1.01611.71338,1.52441,1.9209,1.52441.77002,0,1.44678-.18213,2.03027-.54688v1.55859c-.64697.34619-1.48779.51953-2.52246.51953-1.13037,0-2.00732-.31348-2.63184-.93994s-.93652-1.50049-.93652-2.62158c0-1.16211.3374-2.08252,1.01172-2.76172s1.50391-1.01855,2.48828-1.01855c1.021,0,1.81055.30322,2.36865.90918s.8374,1.42871.8374,2.46777v.90918ZM74.98008,19.67607c0-1.00244-.40576-1.50391-1.2168-1.50391-.34619,0-.646.14355-.89893.43066s-.40674.64502-.46143,1.07324h2.57715Z" fill="#2f2f2f"/>
      <path d="M82.34238,23.88701v-9.80273h3.47266c3.48193,0,5.22266,1.59277,5.22266,4.77832,0,1.52686-.4751,2.74561-1.42529,3.65723s-2.21582,1.36719-3.79736,1.36719h-3.47266ZM84.55039,15.88213v6.21387h1.09375c.95703,0,1.70801-.28711,2.25244-.86133s.81689-1.35596.81689-2.34473c0-.93408-.27002-1.66895-.81006-2.20459s-1.29785-.80322-2.27295-.80322h-1.08008Z" fill="#2f2f2f"/>
      <path d="M98.25156,23.88701h-2.04395v-1.00488h-.02734c-.46924.78369-1.16455,1.17578-2.08496,1.17578-.6792,0-1.21338-.19238-1.60303-.57764s-.58447-.89893-.58447-1.5415c0-1.35791.8042-2.14209,2.41309-2.35156l1.90039-.25293c0-.76562-.41455-1.14844-1.24414-1.14844-.83398,0-1.62695.24854-2.37891.74512v-1.62695c.30078-.15479.71191-.2915,1.23389-.41016s.99707-.17773,1.42529-.17773c1.99609,0,2.99414.99561,2.99414,2.9873v4.18359ZM96.22129,21.04326v-.47168l-1.27148.16406c-.70166.09131-1.05273.40771-1.05273.9502,0,.24609.08545.44775.25635.60498s.40234.23584.69385.23584c.40576,0,.73584-.14014.99121-.42041s.38281-.63477.38281-1.06299Z" fill="#2f2f2f"/>
      <path d="M104.08018,23.80498c-.31885.16846-.7998.25293-1.44238.25293-1.52197,0-2.2832-.79053-2.2832-2.37207v-3.20605h-1.13477v-1.59277h1.13477v-1.51074l2.15332-.61523v2.12598h1.57227v1.59277h-1.57227v2.83008c0,.729.28955,1.09375.86816,1.09375.22803,0,.4624-.06592.7041-.19824v1.59961Z" fill="#2f2f2f"/>
      <path d="M111.26084,23.88701h-2.04395v-1.00488h-.02734c-.46924.78369-1.16455,1.17578-2.08496,1.17578-.6792,0-1.21338-.19238-1.60303-.57764s-.58447-.89893-.58447-1.5415c0-1.35791.8042-2.14209,2.41309-2.35156l1.90039-.25293c0-.76562-.41455-1.14844-1.24414-1.14844-.83398,0-1.62695.24854-2.37891.74512v-1.62695c.30078-.15479.71191-.2915,1.23389-.41016s.99707-.17773,1.42529-.17773c1.99609,0,2.99414.99561,2.99414,2.9873v4.18359ZM109.23057,21.04326v-.47168l-1.27148.16406c-.70166.09131-1.05273.40771-1.05273.9502,0,.24609.08545.44775.25635.60498s.40234.23584.69385.23584c.40576,0,.73584-.14014.99121-.42041s.38281-.63477.38281-1.06299Z" fill="#2f2f2f"/>
      <path d="M115.14512,23.07354h-.02734v.81348h-2.16016v-10.36328h2.16016v4.41602h.02734c.5332-.81592,1.29199-1.22363,2.27637-1.22363.90234,0,1.59717.31006,2.08496.92969s.73145,1.46729.73145,2.54297c0,1.1665-.28467,2.10303-.85449,2.80957s-1.33057,1.05957-2.2832,1.05957c-.86133,0-1.51318-.32812-1.95508-.98438ZM115.08359,20.12041v.71777c0,.45117.12988.82471.38965,1.12109s.59229.44434.99805.44434c.49219,0,.87402-.19043,1.14502-.5708s.40674-.91943.40674-1.6167c0-.57861-.12402-1.03125-.37256-1.35693s-.60254-.48877-1.06299-.48877c-.43311,0-.79199.16162-1.07666.48535s-.42725.74512-.42725,1.26465Z" fill="#2f2f2f"/>
      <path d="M127.47031,23.88701h-2.04395v-1.00488h-.02734c-.46924.78369-1.16455,1.17578-2.08496,1.17578-.6792,0-1.21338-.19238-1.60303-.57764s-.58447-.89893-.58447-1.5415c0-1.35791.8042-2.14209,2.41309-2.35156l1.90039-.25293c0-.76562-.41455-1.14844-1.24414-1.14844-.83398,0-1.62695.24854-2.37891.74512v-1.62695c.30078-.15479.71191-.2915,1.23389-.41016s.99707-.17773,1.42529-.17773c1.99609,0,2.99414.99561,2.99414,2.9873v4.18359ZM125.44004,21.04326v-.47168l-1.27148.16406c-.70166.09131-1.05273.40771-1.05273.9502,0,.24609.08545.44775.25635.60498s.40234.23584.69385.23584c.40576,0,.73584-.14014.99121-.42041s.38281-.63477.38281-1.06299Z" fill="#2f2f2f"/>
      <path d="M128.84434,23.70244v-1.75c.35547.21436.70996.37354,1.06299.47852s.68701.15723,1.00146.15723c.38281,0,.68457-.05225.90576-.15723s.33154-.26416.33154-.47852c0-.13672-.05029-.25049-.15039-.3418s-.229-.1709-.38623-.23926-.3291-.12988-.51611-.18457-.3667-.11621-.54004-.18457c-.27783-.10498-.52295-.21777-.73486-.33838s-.38965-.26074-.5332-.42041-.25293-.34424-.32812-.55371-.11279-.45801-.11279-.74512c0-.39209.08545-.729.25635-1.01172s.39893-.51367.68359-.69385.61084-.31201.97754-.39648.74854-.12646,1.14502-.12646c.31006,0,.62451.02393.94336.07178s.6333.11719.94336.2085v1.66797c-.27344-.15967-.56641-.2793-.87842-.35889s-.61865-.11963-.91943-.11963c-.14111,0-.27441.0127-.3999.0376s-.23584.06152-.33154.10938-.1709.10938-.22559.18457-.08203.16064-.08203.25635c0,.12744.04102.23682.12305.32812s.18896.16992.32129.23584.2793.12549.44092.17773.32227.10596.48193.16064c.28711.1001.54688.20947.7793.32812s.43164.25732.59814.41699.29395.34619.38281.56055.1333.46924.1333.76562c0,.41455-.08984.76904-.27002,1.06299s-.41943.5332-.71777.71777-.64258.31885-1.03223.40332-.79395.12646-1.21338.12646c-.77002,0-1.4834-.11865-2.13965-.35547Z" fill="#2f2f2f"/>
      <path d="M141.79404,21.00225h-4.56641c.07275,1.01611.71338,1.52441,1.9209,1.52441.77002,0,1.44678-.18213,2.03027-.54688v1.55859c-.64697.34619-1.48779.51953-2.52246.51953-1.13037,0-2.00732-.31348-2.63184-.93994s-.93652-1.50049-.93652-2.62158c0-1.16211.3374-2.08252,1.01172-2.76172s1.50391-1.01855,2.48828-1.01855c1.021,0,1.81055.30322,2.36865.90918s.8374,1.42871.8374,2.46777v.90918ZM139.79111,19.67607c0-1.00244-.40576-1.50391-1.2168-1.50391-.34619,0-.646.14355-.89893.43066s-.40674.64502-.46143,1.07324h2.57715Z" fill="#2f2f2f"/>
      <path d="M151.50791,15.17803c-.27783-.10938-.54443-.16406-.7998-.16406-.69287,0-1.03906.37598-1.03906,1.12793v.74512h1.59961v1.59277h-1.59961v5.40723h-2.15332v-5.40723h-1.17578v-1.59277h1.17578v-.86816c0-.79736.25977-1.43994.7793-1.92773s1.22607-.73145,2.11914-.73145c.4375,0,.80225.04541,1.09375.13672v1.68164Z" fill="#2f2f2f"/>
      <path d="M155.65488,24.05791c-1.1665,0-2.08398-.32715-2.75146-.98096s-1.00146-1.5415-1.00146-2.6626c0-1.15771.34619-2.06348,1.03906-2.71729s1.62939-.98096,2.80957-.98096c1.16211,0,2.07373.32715,2.73438.98096s.99121,1.51855.99121,2.59424c0,1.16211-.34082,2.08057-1.02197,2.75488s-1.61426,1.01172-2.79932,1.01172ZM155.70957,18.37041c-.51025,0-.90674.17529-1.18945.52637s-.42383.84766-.42383,1.49023c0,1.34424.54248,2.0166,1.62695,2.0166,1.03467,0,1.55176-.69043,1.55176-2.07129,0-1.30811-.52197-1.96191-1.56543-1.96191Z" fill="#2f2f2f"/>
      <path d="M165.42295,18.83525c-.25977-.14111-.56299-.21191-.90918-.21191-.46924,0-.83643.17188-1.10059.51611s-.39648.8125-.39648,1.40479v3.34277h-2.16016v-7h2.16016v1.29883h.02734c.3418-.94775.95703-1.42188,1.8457-1.42188.22803,0,.40576.02734.5332.08203v1.98926Z" fill="#2f2f2f"/>
      <path d="M172.71006,20.51006v3.37695h-2.20801v-9.80273h3.45898c2.47021,0,3.70508,1.0415,3.70508,3.12402,0,.98438-.35449,1.78076-1.06299,2.38916s-1.65527.9126-2.84033.9126h-1.05273ZM172.71006,15.77959v3.05566h.86816c1.17578,0,1.76367-.51514,1.76367-1.54492,0-1.00732-.58789-1.51074-1.76367-1.51074h-.86816Z" fill="#2f2f2f"/>
      <path d="M182.04111,24.05791c-1.1665,0-2.08398-.32715-2.75146-.98096s-1.00146-1.5415-1.00146-2.6626c0-1.15771.34619-2.06348,1.03906-2.71729s1.62939-.98096,2.80957-.98096c1.16211,0,2.07373.32715,2.73438.98096s.99121,1.51855.99121,2.59424c0,1.16211-.34082,2.08057-1.02197,2.75488s-1.61426,1.01172-2.79932,1.01172ZM182.0958,18.37041c-.51025,0-.90674.17529-1.18945.52637s-.42383.84766-.42383,1.49023c0,1.34424.54248,2.0166,1.62695,2.0166,1.03467,0,1.55176-.69043,1.55176-2.07129,0-1.30811-.52197-1.96191-1.56543-1.96191Z" fill="#2f2f2f"/>
      <path d="M186.84873,23.70244v-1.75c.35547.21436.70996.37354,1.06299.47852s.68701.15723,1.00146.15723c.38281,0,.68457-.05225.90576-.15723s.33154-.26416.33154-.47852c0-.13672-.05029-.25049-.15039-.3418s-.229-.1709-.38623-.23926-.3291-.12988-.51611-.18457-.3667-.11621-.54004-.18457c-.27783-.10498-.52295-.21777-.73486-.33838s-.38965-.26074-.5332-.42041-.25293-.34424-.32812-.55371-.11279-.45801-.11279-.74512c0-.39209.08545-.729.25635-1.01172s.39893-.51367.68359-.69385.61084-.31201.97754-.39648.74854-.12646,1.14502-.12646c.31006,0,.62451.02393.94336.07178s.6333.11719.94336.2085v1.66797c-.27344-.15967-.56641-.2793-.87842-.35889s-.61865-.11963-.91943-.11963c-.14111,0-.27441.0127-.3999.0376s-.23584.06152-.33154.10938-.1709.10938-.22559.18457-.08203.16064-.08203.25635c0,.12744.04102.23682.12305.32812s.18896.16992.32129.23584.2793.12549.44092.17773.32227.10596.48193.16064c.28711.1001.54688.20947.7793.32812s.43164.25732.59814.41699.29395.34619.38281.56055.1333.46924.1333.76562c0,.41455-.08984.76904-.27002,1.06299s-.41943.5332-.71777.71777-.64258.31885-1.03223.40332-.79395.12646-1.21338.12646c-.77002,0-1.4834-.11865-2.13965-.35547Z" fill="#2f2f2f"/>
      <path d="M197.65537,23.80498c-.31885.16846-.7998.25293-1.44238.25293-1.52197,0-2.2832-.79053-2.2832-2.37207v-3.20605h-1.13477v-1.59277h1.13477v-1.51074l2.15332-.61523v2.12598h1.57227v1.59277h-1.57227v2.83008c0,.729.28955,1.09375.86816,1.09375.22803,0,.4624-.06592.7041-.19824v1.59961Z" fill="#2f2f2f"/>
      <path d="M205.75107,23.08721c0,1.29883-.37598,2.30469-1.12793,3.01807s-1.84131,1.06982-3.26758,1.06982c-.94336,0-1.69092-.13428-2.24219-.40332v-1.81836c.72021.41943,1.44678.62891,2.18066.62891.729,0,1.29443-.19238,1.69531-.57764s.60156-.9082.60156-1.56885v-.55371h-.02734c-.49219.78369-1.21924,1.17578-2.18066,1.17578-.89307,0-1.60205-.31445-2.12598-.94336s-.78613-1.47217-.78613-2.5293c0-1.18506.2915-2.12598.875-2.82324s1.35107-1.0459,2.30371-1.0459c.85205,0,1.49023.32812,1.91406.98438h.02734v-.81348h2.16016v6.2002ZM203.61826,20.52373v-.55371c0-.44189-.13086-.81934-.39307-1.13135s-.60254-.46826-1.02197-.46826c-.47852,0-.85449.18701-1.12793.56055s-.41016.8999-.41016,1.5791c0,.5835.12988,1.04492.38965,1.38428s.61523.50928,1.06641.50928c.44678,0,.80762-.17188,1.0835-.51611s.41357-.79883.41357-1.36377Z" fill="#2f2f2f"/>
      <path d="M212.07773,18.83525c-.25977-.14111-.5625-.21191-.91016-.21191-.46875,0-.83594.17188-1.09961.51611-.26562.34424-.39648.8125-.39648,1.40479v3.34277h-2.16064v-7h2.16064v1.29883h.02734c.3418-.94775.95703-1.42188,1.8457-1.42188.22656,0,.4043.02734.5332.08203v1.98926Z" fill="#2f2f2f"/>
      <path d="M219.4498,21.00225h-4.56641c.07324,1.01611.71289,1.52441,1.9209,1.52441.77051,0,1.44727-.18213,2.03027-.54688v1.55859c-.64746.34619-1.48828.51953-2.52246.51953-1.12988,0-2.00781-.31348-2.63184-.93994s-.93652-1.50049-.93652-2.62158c0-1.16211.33691-2.08252,1.01172-2.76172s1.50391-1.01855,2.48828-1.01855c1.02051,0,1.81055.30322,2.36914.90918.55762.60596.83691,1.42871.83691,2.46777v.90918ZM217.44687,19.67607c0-1.00244-.40527-1.50391-1.2168-1.50391-.34668,0-.64648.14355-.89844.43066-.25391.28711-.40723.64502-.46191,1.07324h2.57715Z" fill="#2f2f2f"/>
      <path d="M220.52598,23.51104v-2.1875c.39648.33252.82715.58203,1.29199.74854s.93457.24951,1.4082.24951c.27832,0,.52051-.0249.72754-.0752.20801-.05029.38086-.11963.51953-.2085.13965-.08887.24316-.19385.31152-.31445s.10254-.25195.10254-.39307c0-.19141-.05469-.3623-.16406-.5127s-.25879-.28955-.44727-.41699c-.18945-.12744-.41406-.25049-.67383-.36914s-.54004-.23926-.84082-.3623c-.76562-.31885-1.33691-.7085-1.71191-1.16895-.37695-.46045-.56445-1.01611-.56445-1.66797,0-.51025.10254-.94922.30762-1.31592s.48438-.66895.83691-.90576c.35352-.23682.7627-.41113,1.22754-.52295s.95703-.16748,1.47656-.16748c.51074,0,.96289.03076,1.35645.09229.39453.06152.75781.15625,1.09082.28369v2.04395c-.16406-.11377-.34277-.21436-.53613-.30078-.19434-.08643-.39355-.1582-.59863-.21533s-.40918-.09912-.6123-.12646c-.20215-.02734-.39453-.04102-.57715-.04102-.25098,0-.47852.02393-.68359.07178s-.37793.11523-.51953.20166-.25098.19043-.32812.31104-.11621.25635-.11621.40674c0,.16406.04297.31104.12988.44092s.20996.25293.36914.36914.35352.22998.58105.3418.48535.22656.77246.34521c.3916.16406.74414.33838,1.05566.52295.3125.18457.58008.39307.80371.62549s.39453.49805.5127.79639.17773.646.17773,1.04248c0,.54688-.10352,1.00586-.31055,1.37744-.20801.37158-.48926.67236-.84473.90234s-.76855.39551-1.24121.49561c-.4707.1001-.96875.15039-1.49316.15039-.53809,0-1.0498-.04541-1.53418-.13672-.48633-.09131-.90625-.22803-1.26172-.41016Z" fill="#2f2f2f"/>
      <path d="M232.88633,24.05791c-1.40332,0-2.54785-.45557-3.43164-1.36719-.88379-.92041-1.32617-2.1123-1.32617-3.5752,0-1.54492.44922-2.79834,1.34668-3.75977.89355-.95703,2.08301-1.43555,3.56836-1.43555,1.39941,0,2.5293.45801,3.39062,1.37402.86621.91162,1.29883,2.11914,1.29883,3.62305,0,1.53564-.44922,2.77783-1.34668,3.72559-.03223.03174-.06152.0625-.08887.09229s-.05664.05811-.08887.08545l2.48145,2.38574h-3.08984l-1.29883-1.31934c-.42871.11377-.90039.1709-1.41504.1709ZM232.98203,15.82061c-.77051,0-1.38574.2915-1.8457.875-.45605.57861-.68359,1.34668-.68359,2.30371,0,.9707.22754,1.73877.68359,2.30371s1.05273.84766,1.79102.84766c.76074,0,1.36523-.27344,1.81152-.82031.44629-.55615.66992-1.31934.66992-2.29004,0-1.01172-.2168-1.80225-.64941-2.37207-.42871-.56494-1.02051-.84766-1.77734-.84766Z" fill="#2f2f2f"/>
      <path d="M245.15098,23.88701h-5.83789v-9.80273h2.20801v8.01172h3.62988v1.79102Z" fill="#2f2f2f"/>
      <path d="M249.6627,23.70244v-1.75c.35547.21436.70996.37354,1.0625.47852.35352.10498.6875.15723,1.00195.15723.38281,0,.68457-.05225.90625-.15723.2207-.10498.33105-.26416.33105-.47852,0-.13672-.0498-.25049-.15039-.3418s-.22949-.1709-.38574-.23926c-.1582-.06836-.33008-.12988-.5166-.18457s-.36719-.11621-.54004-.18457c-.27832-.10498-.52344-.21777-.73438-.33838-.21289-.12061-.39062-.26074-.5332-.42041-.14453-.15967-.25391-.34424-.32812-.55371-.07617-.20947-.11328-.45801-.11328-.74512,0-.39209.08594-.729.25586-1.01172.17188-.28271.39941-.51367.68359-.69385.28516-.18018.61133-.31201.97852-.39648.36621-.08447.74805-.12646,1.14453-.12646.30957,0,.62402.02393.94336.07178s.63379.11719.94336.2085v1.66797c-.27344-.15967-.56641-.2793-.87891-.35889-.31152-.07959-.61816-.11963-.91895-.11963-.1416,0-.27441.0127-.39941.0376-.12598.0249-.23633.06152-.33203.10938s-.1709.10938-.22559.18457-.08203.16064-.08203.25635c0,.12744.04102.23682.12305.32812s.18945.16992.32129.23584.2793.12549.44141.17773c.16113.05225.32227.10596.48145.16064.28711.1001.54688.20947.7793.32812s.43164.25732.59863.41699c.16602.15967.29297.34619.38281.56055.08789.21436.13281.46924.13281.76562,0,.41455-.08984.76904-.26953,1.06299-.18066.29395-.41992.5332-.71875.71777-.29785.18457-.64258.31885-1.03125.40332-.39062.08447-.79492.12646-1.21387.12646-.77051,0-1.4834-.11865-2.13965-.35547Z" fill="#2f2f2f"/>
      <path d="M262.61191,21.00225h-4.56641c.07324,1.01611.71289,1.52441,1.9209,1.52441.77051,0,1.44727-.18213,2.03027-.54688v1.55859c-.64746.34619-1.48828.51953-2.52246.51953-1.12988,0-2.00781-.31348-2.63184-.93994s-.93652-1.50049-.93652-2.62158c0-1.16211.33691-2.08252,1.01172-2.76172s1.50391-1.01855,2.48828-1.01855c1.02051,0,1.81055.30322,2.36914.90918.55762.60596.83691,1.42871.83691,2.46777v.90918ZM260.60898,19.67607c0-1.00244-.40527-1.50391-1.2168-1.50391-.34668,0-.64648.14355-.89844.43066-.25391.28711-.40723.64502-.46191,1.07324h2.57715Z" fill="#2f2f2f"/>
      <path d="M268.54355,18.83525c-.25977-.14111-.5625-.21191-.90918-.21191-.46973,0-.83594.17188-1.10059.51611s-.39648.8125-.39648,1.40479v3.34277h-2.16016v-7h2.16016v1.29883h.02734c.3418-.94775.95703-1.42188,1.8457-1.42188.22754,0,.40527.02734.5332.08203v1.98926Z" fill="#2f2f2f"/>
      <path d="M276.64121,16.88701l-2.60449,7h-2.46094l-2.48145-7h2.31055l1.2168,4.31348c.13672.48779.2168.90234.23926,1.24414h.02734c.03223-.32373.11621-.72461.25293-1.20312l1.24414-4.35449h2.25586Z" fill="#2f2f2f"/>
      <path d="M283.62949,21.00225h-4.56641c.07324,1.01611.71289,1.52441,1.9209,1.52441.77051,0,1.44727-.18213,2.03027-.54688v1.55859c-.64746.34619-1.48828.51953-2.52246.51953-1.12988,0-2.00781-.31348-2.63184-.93994s-.93652-1.50049-.93652-2.62158c0-1.16211.33691-2.08252,1.01172-2.76172s1.50391-1.01855,2.48828-1.01855c1.02051,0,1.81055.30322,2.36914.90918.55762.60596.83691,1.42871.83691,2.46777v.90918ZM281.62656,19.67607c0-1.00244-.40527-1.50391-1.2168-1.50391-.34668,0-.64648.14355-.89844.43066-.25391.28711-.40723.64502-.46191,1.07324h2.57715Z" fill="#2f2f2f"/>
      <path d="M289.56113,18.83525c-.25977-.14111-.5625-.21191-.90918-.21191-.46973,0-.83594.17188-1.10059.51611s-.39648.8125-.39648,1.40479v3.34277h-2.16016v-7h2.16016v1.29883h.02734c.3418-.94775.95703-1.42188,1.8457-1.42188.22754,0,.40527.02734.5332.08203v1.98926Z" fill="#2f2f2f"/>
    </g>
    <g>
      <rect x="13.2" y="30.8" width="400.4" height="193.6" fill="#fff"/>
      <rect x="13.2" y="30.8" width="400.4" height="193.6" fill="#53b1e0" opacity=".1"/>
      <rect x="13.2" y="30.8" width="400.4" height="193.6" fill="none" stroke="#53b1e0" stroke-width=".25"/>
    </g>
    <g>
      <path d="M22.31176,18.35059c-4.99765,0-9.04941-1.41176-9.04941-3.27529v17.44941c0,1.79294,3.98118,3.24706,8.92235,3.27529h.12706c4.99765,0,9.04941-1.41176,9.04941-3.27529V15.07529c0,1.80706-4.05176,3.27529-9.04941,3.27529Z" fill="url(#linear-gradient)"/>
      <path d="M31.36118,15.07529c0,1.80706-4.05176,3.27529-9.04941,3.27529s-9.04941-1.41176-9.04941-3.27529,4.05176-3.27529,9.04941-3.27529,9.04941,1.41176,9.04941,3.27529" fill="#e8e8e8"/>
      <path d="M29.24353,14.80706c0,1.15765-3.10588,2.08941-6.93176,2.08941s-6.94588-.93176-6.94588-2.07529,3.10588-2.08941,6.94588-2.08941,6.93176.93176,6.93176,2.07529" fill="#50e6ff"/>
      <path d="M22.31176,15.32941c-1.86768-.04642-3.72961.22571-5.50588.80471,1.77801.56791,3.64045.82579,5.50588.76235,1.86408.04528,3.72197-.23173,5.49177-.81882-1.77671-.55097-3.63242-.80381-5.49177-.74824Z" fill="#198ab3"/>
      <path d="M26.54706,23.8v.59294c-.05602.29385-.09373.59089-.11294.88941,0,.16941,0,.42353.07059.64941s0,.38118,0,.50823c-.00562.42919-.1276.8488-.35294,1.21412-.00269.03289-.00269.06594,0,.09882l.14118.16941c.63573-1.05387,1.13839-2.18247,1.49647-3.36h0c.39529-1.34118.43765-2.30118.12706-2.71059-.90992-1.11758-2.39322-1.59356-3.78353-1.21412.47958.23884.91423.55885,1.28471.94588.65829.55762,1.06519,1.35615,1.12941,2.21647ZM26.10941,23.91294c-.37505-.0916-.77046-.04655-1.11529.12706-.40941.25412-.28235.77647,0,1.41176.14088.4094.30587.8101.49412,1.2l.12706.22588h0c.07059.11294.11294.21176.15529.28235l.11294.18353c.16522-.27766.25297-.59455.25412-.91765.00897-.15516.00897-.31072,0-.46588,0-.24,0-.50823-.07059-.69176.01911-.32659.05682-.65182.11294-.97412-.04235-.1553-.02823-.31059-.01412-.42353l-.05647.04235ZM25.68588,24.49176c-.07093.06843-.15854.1171-.25412.14118h0c-.06512.01414-.13252.01414-.19765,0-.07264-.06932-.10913-.16835-.09882-.26824h0c0-.09882.15529-.18353.33882-.21176h.26823s.12706,0,.12706.11294c-.01535.07603-.06129.1424-.12706.18353l-.05647.04235ZM19.0647,25.74824v-.24c.00681-.07986.00681-.16014,0-.24-.04248-.46963-.04248-.94214,0-1.41176.08405-.53156.22607-1.05231.42353-1.55294.16653-.49978.44683-.95406.81882-1.32706-.61852-.18479-1.26035-.27988-1.90588-.28235-.54911-.02392-1.092.12414-1.55294.42353-.71648.64793-1.05199,1.61719-.88941,2.56941.13597,1.07386.3723,2.13261.70588,3.16235.48,1.60941,1.03059,2.59765,1.51059,2.75294h0c.21176.07059.43765,0,.66353-.29647.39529-.48.76235-.88941.97412-1.12941-.63974-.64998-.90096-1.5829-.69177-2.47059l-.05647.04235ZM19.43176,26.31294c-.00607.26608.0224.53183.08471.79059.08592.22653.21007.43664.36706.62118.13912.14988.30722.26995.49412.35294.17504.07113.36168.10941.55059.11294,0-.24.19765-.53647.32471-.84706.11871-.27016.21779-.54853.29647-.83294.04394-.52143.04394-1.04563,0-1.56706,0-.12706,0-.26823-.08471-.42353-.01196-.1425-.07165-.27681-.16941-.38118h0c-.11106-.10682-.24688-.18443-.39529-.22588h-.28235c-.23504.02902-.46386.09576-.67765.19765-.1586.07518-.30984.16498-.45176.26823v1.01647h0c.00617.07045.00617.14131,0,.21176v.55059h0l-.05647.15529ZM20.36353,24.42118h0c.12856-.04108.26673-.04108.39529,0,.09351.01309.18417.04172.26824.08471.12706,0,.14118.15529.12706.19765h0c-.0408.07398-.09893.13695-.16941.18353-.0304-.01535-.05884-.03431-.08471-.05647h0c-.20282-.03352-.36177-.19248-.39529-.39529l-.14118-.01412ZM21.40823,28.65647c-.06863.00799-.13292.03766-.18353.08471l-.19765.24c-.24.29647-.33882.39529-1.03059.53647-.13292.0128-.25982.06161-.36706.14118.0995.07712.21545.13026.33882.15529.33055.10589.68592.10589,1.01647,0,.1996-.09634.38489-.21987.55059-.36706.13703-.11324.23566-.26612.28235-.43765.01209-.14595-.03936-.29002-.14118-.39529-.06032-.04694-.14125-.05773-.21176-.02823l-.05647.07059ZM27.91647,28.65647c-.51475.19022-1.08054.19022-1.59529,0-.06412-.02152-.13352-.02152-.19765,0-.10216.03307-.18795.10372-.24.19765-.02085.14514-.02085.29251,0,.43765.51965.11685,1.06288.06747,1.55294-.14118.25819-.10865.48948-.27248.67765-.48l-.19765-.01412ZM24.52823,25.63529c-.19765-.57882-.48-1.41176.25412-1.92.38212-.21265.82576-.28742,1.25647-.21176-.18467-.59826-.49244-1.15128-.90353-1.62353l-.14118-.14118-.08471-.08471h0c-.02459-.03166-.05304-.06012-.08471-.08471h0c-.27937-.24988-.59923-.45038-.94588-.59294-.49363-.21601-1.02836-.32199-1.56706-.31059-.33705-.02681-.67566.0264-.98824.15529-.14557.03889-.28732.09087-.42353.15529-.48283.35427-.84705.84646-1.04471,1.41176-.13988.46102-.23908.93342-.29647,1.41176.42449-.25461.91869-.36828,1.41176-.32471.65287.05212,1.13987.62363,1.08774,1.2765-.00022.00274-.00045.00547-.00068.00821.05237.5965.05237,1.19644,0,1.79294-.08229.30531-.19094.6029-.32471.88941-.08471.24-.19765.49412-.25412.69176.1987-.01272.39352.05905.53647.19765.19665.19685.29503.47128.26823.74823h.02824v.33882c-.10488,1.15933.01007,2.32803.33882,3.44471.08052.13068.19861.23401.33882.29647.13007.08651.28154.13537.43765.14118.51731.04699,1.03031-.12742,1.41176-.48.24216-.25254.38718-.58259.40941-.93176.09882-.63529.31059-2.4.33882-2.82353h0c-.02496-.21531.01956-.43296.12706-.62118.09126-.14773.22377-.26551.38118-.33882-.6673-.74368-1.1807-1.61215-1.51059-2.5553l-.05647.08471Z" fill="#f2f2f2"/>
    </g>
    <rect x="268.4" y="70.3999" width="132" height="140.8001" fill="#fff" stroke="#4e4f4f" stroke-width=".25"/>
    <g>
      <rect x="322.49381" y="90.00029" width="23.81239" height="15.87492" rx=".79375" ry=".79375" fill="url(#linear-gradient-2)"/>
      <polygon points="338.36873 95.62266 338.36873 100.23962 334.4 102.56794 334.4 97.93776 338.36873 95.62266" fill="#50e6ff"/>
      <polygon points="338.36873 95.62266 334.4 97.95098 330.43127 95.62266 334.4 93.30757 338.36873 95.62266" fill="#c3f1ff"/>
      <polygon points="334.4 97.95098 334.4 102.56794 330.43127 100.23962 330.43127 95.62266 334.4 97.95098" fill="#9cebff"/>
      <polygon points="330.43127 100.23962 334.4 97.93776 334.4 102.56794 330.43127 100.23962" fill="#c3f1ff"/>
      <polygon points="338.36873 100.23962 334.4 97.93776 334.4 102.56794 338.36873 100.23962" fill="#9cebff"/>
      <path d="M339.17571,110.67738c-2.35478-.37041-2.44738-2.06374-2.44738-4.80216h-4.66987c0,2.73842-.07937,4.43175-2.43416,4.80216-.67328.0745-1.1815.64554-1.17739,1.32291h11.90619c.00411-.67737-.50412-1.24841-1.17739-1.32291Z" fill="url(#linear-gradient-3)"/>
    </g>
    <g>
      <ellipse cx="334.37001" cy="164.46152" rx="11.24744" ry="4.61895" fill="#76bc2d"/>
      <ellipse cx="334.65494" cy="164.41654" rx="3.73415" ry="1.01977" fill="#5e9624"/>
      <ellipse cx="334.37001" cy="154.21885" rx="11.24744" ry="4.61895" fill="url(#linear-gradient-4)"/>
      <ellipse cx="334.65494" cy="154.15887" rx="3.73415" ry="1.01977" fill="#005ba1"/>
      <path d="M334.42999,168.9905c6.22358,0,11.24744-2.06953,11.24744-4.61895h0v2.72938h0c-.20995,2.47444-5.15883,4.49898-11.24744,4.49898s-11.24744-2.06953-11.24744-4.61895v-2.60941c-.05999,2.54942,4.97887,4.61895,11.24744,4.61895Z" fill="#5e9624"/>
      <path d="M334.42999,158.73283c6.22358,0,11.24744-2.06953,11.24744-4.61895h0v2.72938h0c-.20995,2.47444-5.15883,4.49898-11.24744,4.49898s-11.24744-2.06953-11.24744-4.61895v-2.60941c-.05999,2.54942,4.97887,4.61895,11.24744,4.61895Z" fill="#0078d4"/>
    </g>
    <rect x="26.4" y="70.3999" width="132" height="140.8001" fill="#fff" stroke="#4e4f4f" stroke-width=".25"/>
    <g>
      <rect x="80.49381" y="90.00029" width="23.81239" height="15.87492" rx=".79375" ry=".79375" fill="url(#linear-gradient-5)"/>
      <polygon points="96.36873 95.62266 96.36873 100.23962 92.4 102.56794 92.4 97.93776 96.36873 95.62266" fill="#50e6ff"/>
      <polygon points="96.36873 95.62266 92.4 97.95098 88.43127 95.62266 92.4 93.30757 96.36873 95.62266" fill="#c3f1ff"/>
      <polygon points="92.4 97.95098 92.4 102.56794 88.43127 100.23962 88.43127 95.62266 92.4 97.95098" fill="#9cebff"/>
      <polygon points="88.43127 100.23962 92.4 97.93776 92.4 102.56794 88.43127 100.23962" fill="#c3f1ff"/>
      <polygon points="96.36873 100.23962 92.4 97.93776 92.4 102.56794 96.36873 100.23962" fill="#9cebff"/>
      <path d="M97.17571,110.67738c-2.35478-.37041-2.44738-2.06374-2.44738-4.80216h-4.66987c0,2.73842-.07937,4.43175-2.43416,4.80216-.67328.0745-1.1815.64554-1.17739,1.32291h11.90619c.00411-.67737-.50412-1.24841-1.17739-1.32291Z" fill="url(#linear-gradient-6)"/>
    </g>
    <g>
      <ellipse cx="92.37001" cy="164.46152" rx="11.24744" ry="4.61895" fill="#76bc2d"/>
      <ellipse cx="92.65494" cy="164.41654" rx="3.73415" ry="1.01977" fill="#5e9624"/>
      <ellipse cx="92.37001" cy="154.21885" rx="11.24744" ry="4.61895" fill="url(#linear-gradient-7)"/>
      <ellipse cx="92.65494" cy="154.15887" rx="3.73415" ry="1.01977" fill="#005ba1"/>
      <path d="M92.42999,168.9905c6.22358,0,11.24744-2.06953,11.24744-4.61895h0v2.72938h0c-.20995,2.47444-5.15883,4.49898-11.24744,4.49898s-11.24744-2.06953-11.24744-4.61895v-2.60941c-.05999,2.54942,4.97887,4.61895,11.24744,4.61895Z" fill="#5e9624"/>
      <path d="M92.42999,158.73283c6.22358,0,11.24744-2.06953,11.24744-4.61895h0v2.72938h0c-.20995,2.47444-5.15883,4.49898-11.24744,4.49898s-11.24744-2.06953-11.24744-4.61895v-2.60941c-.05999,2.54942,4.97887,4.61895,11.24744,4.61895Z" fill="#0078d4"/>
    </g>
    <g>
      <line x1="158.4" y1="127.6" x2="264.36336" y2="127.6" fill="none" stroke="#3c3c41" stroke-miterlimit="10" stroke-width=".75"/>
      <polygon points="263.54268 130.40481 268.4 127.6 263.54268 124.79519 263.54268 130.40481" fill="#3c3c41"/>
    </g>
  </g>
  <g id="Text">
    <g>
      <rect x="158.4" y="135.69875" width="110" height="34.45703" fill="none"/>
      <path d="M183.13437,147.20342v-1.35352c.15479.13672.34082.25977.55713.36914s.44434.20166.68359.27686.47949.1333.72119.17432.46484.06152.66992.06152c.70654,0,1.23389-.13086,1.58252-.39307s.52295-.63916.52295-1.13135c0-.26416-.05811-.49463-.17432-.69043s-.27686-.375-.48193-.53662-.44775-.31689-.72803-.46484-.58203-.3042-.90576-.46826c-.3418-.17334-.66064-.34863-.95703-.52637s-.55371-.37354-.77246-.58789-.39062-.45703-.51611-.72803-.18799-.58887-.18799-.95361c0-.44678.09814-.83496.29395-1.16553s.45361-.60254.77246-.81689.68262-.37354,1.09033-.47852.82373-.15723,1.24756-.15723c.96631,0,1.67041.11621,2.1123.34863v1.29199c-.57861-.40088-1.32178-.60156-2.22852-.60156-.25049,0-.50146.02637-.75195.07861s-.47412.1377-.66992.25635-.35547.271-.47852.45801-.18457.41455-.18457.68359c0,.25049.04688.46729.14014.64941s.23145.34863.41357.49902.4043.29639.6665.4375.56396.29639.90576.46484c.35107.17334.68359.35547.99805.54688s.59033.40332.82715.63574.4248.48975.56396.77246.2085.60596.2085.9707c0,.48291-.09473.89209-.28369,1.22705s-.44434.60742-.76562.81689-.69141.36133-1.11084.45459-.86133.14014-1.32617.14014c-.15479,0-.34619-.0127-.57422-.0376s-.46045-.06152-.69727-.10938-.46143-.10693-.67334-.17773-.38184-.14941-.50928-.23584Z" fill="#2f2f2f"/>
      <path d="M193.7457,147.53154c-.26416.146-.61279.21875-1.0459.21875-1.22607,0-1.83887-.68359-1.83887-2.05078v-4.14258h-1.20312v-.95703h1.20312v-1.70898l1.12109-.3623v2.07129h1.76367v.95703h-1.76367v3.94434c0,.46924.07959.8042.23926,1.00488s.42383.30078.79297.30078c.28271,0,.52637-.07764.73145-.23242v.95703Z" fill="#2f2f2f"/>
      <path d="M198.77695,141.73467c-.1958-.15039-.47852-.22559-.84766-.22559-.47852,0-.87842.22559-1.19971.67676s-.48193,1.06641-.48193,1.8457v3.56836h-1.12109v-7h1.12109v1.44238h.02734c.15967-.49219.40332-.87598.73145-1.15186s.69482-.41357,1.10059-.41357c.2915,0,.51514.03174.66992.0957v1.16211Z" fill="#2f2f2f"/>
      <path d="M205.61973,144.38018h-4.94238c.01807.7793.22803,1.38086.62891,1.80469s.95264.63574,1.6543.63574c.78857,0,1.51318-.25977,2.17383-.7793v1.05273c-.61523.44678-1.42871.66992-2.44043.66992-.98877,0-1.76611-.31787-2.33105-.95361s-.84766-1.53027-.84766-2.68311c0-1.08936.30859-1.97656.92627-2.6626s1.38428-1.02881,2.30029-1.02881,1.62451.29639,2.12598.88867.75195,1.41504.75195,2.46777v.58789ZM204.47129,143.42998c-.00439-.64697-.16064-1.15088-.46826-1.51074s-.73486-.54004-1.28174-.54004c-.52881,0-.97754.18896-1.34668.56738s-.59717.87256-.68359,1.4834h3.78027Z" fill="#2f2f2f"/>
      <path d="M212.25889,147.5999h-1.12109v-1.09375h-.02734c-.48779.83838-1.20557,1.25781-2.15332,1.25781-.69727,0-1.24316-.18457-1.63721-.55371s-.59131-.85889-.59131-1.46973c0-1.30811.77002-2.06885,2.31055-2.2832l2.09863-.29395c0-1.18945-.48096-1.78418-1.44238-1.78418-.84326,0-1.604.28711-2.2832.86133v-1.14844c.68799-.4375,1.48096-.65625,2.37891-.65625,1.64502,0,2.46777.87061,2.46777,2.61133v4.55273ZM211.13779,144.05889l-1.68848.23242c-.51953.07275-.91162.20166-1.17578.38623s-.39648.51172-.39648.98096c0,.3418.12207.62109.36572.8374s.56836.32471.97412.32471c.55615,0,1.01514-.19482,1.37744-.58447s.54346-.88281.54346-1.47998v-.69727Z" fill="#2f2f2f"/>
      <path d="M224.21934,147.5999h-1.12109v-4.01953c0-.7749-.11963-1.33545-.35889-1.68164s-.6416-.51953-1.20654-.51953c-.47852,0-.88525.21875-1.22021.65625s-.50244.96143-.50244,1.57227v3.99219h-1.12109v-4.15625c0-1.37646-.53076-2.06445-1.59277-2.06445-.49219,0-.89795.20605-1.2168.61865s-.47852.94922-.47852,1.60986v3.99219h-1.12109v-7h1.12109v1.10742h.02734c.49658-.84766,1.22119-1.27148,2.17383-1.27148.47852,0,.89551.1333,1.25098.3999s.59912.61621.73145,1.04932c.51953-.96631,1.29443-1.44922,2.32422-1.44922,1.54053,0,2.31055.9502,2.31055,2.85059v4.31348Z" fill="#2f2f2f"/>
      <path d="M226.80771,138.82256c-.20068,0-.37158-.06836-.5127-.20508s-.21191-.31006-.21191-.51953.0708-.38379.21191-.52295.31201-.2085.5127-.2085c.20508,0,.37939.06934.52295.2085s.21533.31348.21533.52295c0,.20068-.07178.37158-.21533.5127s-.31787.21191-.52295.21191ZM227.35459,147.5999h-1.12109v-7h1.12109v7Z" fill="#2f2f2f"/>
      <path d="M235.2833,147.5999h-1.12109v-3.99219c0-1.48584-.54248-2.22852-1.62695-2.22852-.56055,0-1.02441.21094-1.39111.63232s-.55029.95361-.55029,1.59619v3.99219h-1.12109v-7h1.12109v1.16211h.02734c.52881-.88428,1.29443-1.32617,2.29688-1.32617.76562,0,1.35107.24707,1.75684.7417s.6084,1.20898.6084,2.14307v4.2793Z" fill="#2f2f2f"/>
      <path d="M243.35801,147.03936c0,2.57031-1.23047,3.85547-3.69141,3.85547-.86572,0-1.62256-.16406-2.26953-.49219v-1.12109c.78857.4375,1.54053.65625,2.25586.65625,1.72266,0,2.58398-.91602,2.58398-2.74805v-.76562h-.02734c-.5332.89307-1.33545,1.33984-2.40625,1.33984-.87061,0-1.57129-.31104-2.10205-.93311s-.79639-1.45703-.79639-2.50537c0-1.18945.28613-2.13525.85791-2.83691s1.35449-1.05273,2.34814-1.05273c.94336,0,1.64307.37842,2.09863,1.13477h.02734v-.9707h1.12109v6.43945ZM242.23691,144.43486v-1.03223c0-.55615-.18799-1.03223-.56396-1.42871s-.84424-.59473-1.40479-.59473c-.69287,0-1.23486.25195-1.62695.75537s-.58789,1.20898-.58789,2.11572c0,.7793.18799,1.40234.56396,1.86963s.87402.70068,1.49365.70068c.62891,0,1.14062-.22314,1.53467-.66992s.59131-1.01855.59131-1.71582Z" fill="#2f2f2f"/>
      <path d="M186.01768,158.53447c-.1958-.15039-.47852-.22559-.84766-.22559-.47852,0-.87842.22559-1.19971.67676s-.48193,1.06641-.48193,1.8457v3.56836h-1.12109v-7h1.12109v1.44238h.02734c.15967-.49219.40332-.87598.73145-1.15186s.69482-.41357,1.10059-.41357c.2915,0,.51514.03174.66992.0957v1.16211Z" fill="#2f2f2f"/>
      <path d="M192.86045,161.17998h-4.94238c.01807.7793.22803,1.38086.62891,1.80469s.95264.63574,1.6543.63574c.78857,0,1.51318-.25977,2.17383-.7793v1.05273c-.61523.44678-1.42871.66992-2.44043.66992-.98877,0-1.76611-.31787-2.33105-.95361s-.84766-1.53027-.84766-2.68311c0-1.08936.30859-1.97656.92627-2.6626s1.38428-1.02881,2.30029-1.02881,1.62451.29639,2.12598.88867.75195,1.41504.75195,2.46777v.58789ZM191.71201,160.22979c-.00439-.64697-.16064-1.15088-.46826-1.51074s-.73486-.54004-1.28174-.54004c-.52881,0-.97754.18896-1.34668.56738s-.59717.87256-.68359,1.4834h3.78027Z" fill="#2f2f2f"/>
      <path d="M195.6915,163.38799h-.02734v4.23145h-1.12109v-10.21973h1.12109v1.23047h.02734c.55127-.92969,1.35791-1.39453,2.41992-1.39453.90234,0,1.60645.31348,2.1123.93994s.75879,1.46631.75879,2.51904c0,1.17139-.28467,2.10889-.85449,2.81299s-1.34912,1.05615-2.33789,1.05615c-.90674,0-1.60645-.39209-2.09863-1.17578ZM195.66416,160.56475v.97754c0,.57861.18799,1.06982.56396,1.47314s.85352.60498,1.43213.60498c.6792,0,1.21094-.25977,1.59619-.7793s.57764-1.2417.57764-2.16699c0-.7793-.18018-1.39014-.54004-1.83203s-.84766-.66309-1.46289-.66309c-.65186,0-1.17578.22656-1.57227.68018s-.59473,1.02197-.59473,1.70557Z" fill="#2f2f2f"/>
      <path d="M203.83311,164.39971h-1.12109v-10.36328h1.12109v10.36328Z" fill="#2f2f2f"/>
      <path d="M206.52012,155.62236c-.20068,0-.37158-.06836-.5127-.20508s-.21191-.31006-.21191-.51953.0708-.38379.21191-.52295.31201-.2085.5127-.2085c.20508,0,.37939.06934.52295.2085s.21533.31348.21533.52295c0,.20068-.07178.37158-.21533.5127s-.31787.21191-.52295.21191ZM207.06699,164.39971h-1.12109v-7h1.12109v7Z" fill="#2f2f2f"/>
      <path d="M213.9791,164.07842c-.5376.32373-1.17578.48535-1.91406.48535-.99805,0-1.80371-.32471-2.4165-.97412s-.91943-1.49121-.91943-2.52588c0-1.15283.33057-2.0791.99121-2.77881s1.54248-1.04932,2.64551-1.04932c.61523,0,1.15771.11377,1.62695.3418v1.14844c-.51953-.36475-1.07568-.54688-1.66797-.54688-.71533,0-1.30225.25635-1.76025.76904s-.68701,1.18604-.68701,2.02002c0,.82031.21533,1.46729.646,1.94141s1.0083.71094,1.73291.71094c.61084,0,1.18506-.20264,1.72266-.6084v1.06641Z" fill="#2f2f2f"/>
      <path d="M220.72324,164.39971h-1.12109v-1.09375h-.02734c-.48779.83838-1.20557,1.25781-2.15332,1.25781-.69727,0-1.24316-.18457-1.63721-.55371s-.59131-.85889-.59131-1.46973c0-1.30811.77002-2.06885,2.31055-2.2832l2.09863-.29395c0-1.18945-.48096-1.78418-1.44238-1.78418-.84326,0-1.604.28711-2.2832.86133v-1.14844c.68799-.4375,1.48096-.65625,2.37891-.65625,1.64502,0,2.46777.87061,2.46777,2.61133v4.55273ZM219.60215,160.85869l-1.68848.23242c-.51953.07275-.91162.20166-1.17578.38623s-.39648.51172-.39648.98096c0,.3418.12207.62109.36572.8374s.56836.32471.97412.32471c.55615,0,1.01514-.19482,1.37744-.58447s.54346-.88281.54346-1.47998v-.69727Z" fill="#2f2f2f"/>
      <path d="M225.98154,164.33135c-.26416.146-.61279.21875-1.0459.21875-1.22607,0-1.83887-.68359-1.83887-2.05078v-4.14258h-1.20312v-.95703h1.20312v-1.70898l1.12109-.3623v2.07129h1.76367v.95703h-1.76367v3.94434c0,.46924.07959.8042.23926,1.00488s.42383.30078.79297.30078c.28271,0,.52637-.07764.73145-.23242v.95703Z" fill="#2f2f2f"/>
      <path d="M227.93662,155.62236c-.20068,0-.37158-.06836-.5127-.20508s-.21191-.31006-.21191-.51953.0708-.38379.21191-.52295.31201-.2085.5127-.2085c.20508,0,.37939.06934.52295.2085s.21533.31348.21533.52295c0,.20068-.07178.37158-.21533.5127s-.31787.21191-.52295.21191ZM228.4835,164.39971h-1.12109v-7h1.12109v7Z" fill="#2f2f2f"/>
      <path d="M233.57822,164.56377c-1.03467,0-1.86035-.32715-2.47803-.98096s-.92627-1.521-.92627-2.60107c0-1.17578.32129-2.09424.96387-2.75488s1.51074-.99121,2.60449-.99121c1.04346,0,1.8584.32129,2.44385.96387s.87842,1.53369.87842,2.67285c0,1.1167-.31543,2.01074-.94678,2.68311s-1.47754,1.0083-2.53955,1.0083ZM233.66025,158.179c-.72021,0-1.28955.24512-1.70898.73486s-.62891,1.16553-.62891,2.02686c0,.82959.21191,1.4834.63574,1.96191s.99121.71777,1.70215.71777c.72461,0,1.28174-.23486,1.67139-.7041s.58447-1.13721.58447-2.00293c0-.875-.19482-1.54932-.58447-2.02344s-.94678-.71094-1.67139-.71094Z" fill="#2f2f2f"/>
      <path d="M244.59043,164.39971h-1.12109v-3.99219c0-1.48584-.54248-2.22852-1.62695-2.22852-.56055,0-1.02441.21094-1.39111.63232s-.55029.95361-.55029,1.59619v3.99219h-1.12109v-7h1.12109v1.16211h.02734c.52881-.88428,1.29443-1.32617,2.29688-1.32617.76562,0,1.35107.24707,1.75684.7417s.6084,1.20898.6084,2.14307v4.2793Z" fill="#2f2f2f"/>
    </g>
    <g>
      <path d="M289.74424,61.20342v-1.35352c.15479.13672.34082.25977.55713.36914s.44434.20166.68359.27686.47949.1333.72119.17432.46484.06152.66992.06152c.70654,0,1.23389-.13086,1.58252-.39307s.52295-.63916.52295-1.13135c0-.26416-.05811-.49463-.17432-.69043s-.27686-.375-.48193-.53662-.44775-.31689-.72803-.46484-.58203-.3042-.90576-.46826c-.3418-.17334-.66064-.34863-.95703-.52637s-.55371-.37354-.77246-.58789-.39062-.45703-.51611-.72803-.18799-.58887-.18799-.95361c0-.44678.09814-.83496.29395-1.16553s.45361-.60254.77246-.81689.68262-.37354,1.09033-.47852.82373-.15723,1.24756-.15723c.96631,0,1.67041.11621,2.1123.34863v1.29199c-.57861-.40088-1.32178-.60156-2.22852-.60156-.25049,0-.50146.02637-.75195.07861s-.47412.1377-.66992.25635-.35547.271-.47852.45801-.18457.41455-.18457.68359c0,.25049.04688.46729.14014.64941s.23145.34863.41357.49902.4043.29639.6665.4375.56396.29639.90576.46484c.35107.17334.68359.35547.99805.54688s.59033.40332.82715.63574.4248.48975.56396.77246.2085.60596.2085.9707c0,.48291-.09473.89209-.28369,1.22705s-.44434.60742-.76562.81689-.69141.36133-1.11084.45459-.86133.14014-1.32617.14014c-.15479,0-.34619-.0127-.57422-.0376s-.46045-.06152-.69727-.10938-.46143-.10693-.67334-.17773-.38184-.14941-.50928-.23584Z" fill="#2f2f2f"/>
      <path d="M300.35557,61.53154c-.26416.146-.61279.21875-1.0459.21875-1.22607,0-1.83887-.68359-1.83887-2.05078v-4.14258h-1.20312v-.95703h1.20312v-1.70898l1.12109-.3623v2.07129h1.76367v.95703h-1.76367v3.94434c0,.46924.07959.8042.23926,1.00488s.42383.30078.79297.30078c.28271,0,.52637-.07764.73145-.23242v.95703Z" fill="#2f2f2f"/>
      <path d="M306.97275,61.5999h-1.12109v-1.09375h-.02734c-.48779.83838-1.20557,1.25781-2.15332,1.25781-.69727,0-1.24316-.18457-1.63721-.55371s-.59131-.85889-.59131-1.46973c0-1.30811.77002-2.06885,2.31055-2.2832l2.09863-.29395c0-1.18945-.48096-1.78418-1.44238-1.78418-.84326,0-1.604.28711-2.2832.86133v-1.14844c.68799-.4375,1.48096-.65625,2.37891-.65625,1.64502,0,2.46777.87061,2.46777,2.61133v4.55273ZM305.85166,58.05889l-1.68848.23242c-.51953.07275-.91162.20166-1.17578.38623s-.39648.51172-.39648.98096c0,.3418.12207.62109.36572.8374s.56836.32471.97412.32471c.55615,0,1.01514-.19482,1.37744-.58447s.54346-.88281.54346-1.47998v-.69727Z" fill="#2f2f2f"/>
      <path d="M314.8043,61.5999h-1.12109v-3.99219c0-1.48584-.54248-2.22852-1.62695-2.22852-.56055,0-1.02441.21094-1.39111.63232s-.55029.95361-.55029,1.59619v3.99219h-1.12109v-7h1.12109v1.16211h.02734c.52881-.88428,1.29443-1.32617,2.29688-1.32617.76562,0,1.35107.24707,1.75684.7417s.6084,1.20898.6084,2.14307v4.2793Z" fill="#2f2f2f"/>
      <path d="M322.879,61.5999h-1.12109v-1.18945h-.02734c-.51953.90234-1.32178,1.35352-2.40625,1.35352-.87939,0-1.58252-.31348-2.10889-.93994s-.78955-1.47998-.78955-2.56006c0-1.15771.2915-2.08496.875-2.78223s1.36035-1.0459,2.33105-1.0459c.96143,0,1.66113.37842,2.09863,1.13477h.02734v-4.33398h1.12109v10.36328ZM321.75791,58.43486v-1.03223c0-.56494-.18701-1.04346-.56055-1.43555s-.84766-.58789-1.42188-.58789c-.68359,0-1.22119.25049-1.61328.75195s-.58789,1.19385-.58789,2.07812c0,.80664.18799,1.44336.56396,1.91064s.88086.70068,1.51416.70068c.62451,0,1.13135-.22559,1.521-.67676s.58447-1.021.58447-1.70898Z" fill="#2f2f2f"/>
      <path d="M326.13437,60.58818h-.02734v1.01172h-1.12109v-10.36328h1.12109v4.59375h.02734c.55127-.92969,1.35791-1.39453,2.41992-1.39453.89795,0,1.60059.31348,2.10889.93994s.76221,1.46631.76221,2.51904c0,1.17139-.28467,2.10889-.85449,2.81299s-1.34912,1.05615-2.33789,1.05615c-.92529,0-1.62451-.39209-2.09863-1.17578ZM326.10703,57.76494v.97754c0,.57861.18799,1.06982.56396,1.47314s.85352.60498,1.43213.60498c.6792,0,1.21094-.25977,1.59619-.7793s.57764-1.2417.57764-2.16699c0-.7793-.18018-1.39014-.54004-1.83203s-.84766-.66309-1.46289-.66309c-.65186,0-1.17578.22656-1.57227.68018s-.59473,1.02197-.59473,1.70557Z" fill="#2f2f2f"/>
      <path d="M338.65049,54.5999l-3.21973,8.12109c-.57422,1.44922-1.38086,2.17383-2.41992,2.17383-.2915,0-.53564-.02979-.73145-.08887v-1.00488c.2417.08203.4624.12305.66309.12305.56494,0,.98877-.3374,1.27148-1.01172l.56055-1.32617-2.73438-6.98633h1.24414l1.89355,5.38672c.02295.06836.0708.24609.14355.5332h.04102c.02295-.10938.06836-.28271.13672-.51953l1.98926-5.40039h1.16211Z" fill="#2f2f2f"/>
      <path d="M343.26475,61.34697v-1.20312c.61084.45117,1.28271.67676,2.0166.67676.98438,0,1.47656-.32812,1.47656-.98438,0-.18701-.04199-.34521-.12646-.4751s-.19824-.24512-.3418-.34521-.31201-.19043-.50586-.27002-.40234-.16309-.62549-.24951c-.31006-.12305-.58203-.24707-.81689-.37256s-.43066-.2666-.58789-.42383-.27588-.33594-.35547-.53662-.11963-.43506-.11963-.7041c0-.32812.0752-.61865.22559-.87158s.35107-.46484.60156-.63574.53662-.2998.85791-.38623.65283-.12988.99463-.12988c.60596,0,1.14844.10498,1.62695.31445v1.13477c-.51514-.3374-1.10742-.50586-1.77734-.50586-.20947,0-.39893.02393-.56738.07178s-.31348.11523-.43408.20166-.21436.19043-.28027.31104-.09912.25391-.09912.3999c0,.18213.0332.33496.09912.45801s.16309.23242.29053.32812.28271.18213.46484.25977.38965.16162.62207.25293c.31006.11865.58789.24023.83398.36572s.45557.2666.62891.42383.30664.33838.3999.54346.14014.44873.14014.73145c0,.34619-.07617.64697-.229.90234s-.35645.46729-.61182.63574-.54932.29395-.88184.37598-.68115.12305-1.0459.12305c-.72021,0-1.34424-.13916-1.87305-.41699Z" fill="#2f2f2f"/>
      <path d="M355.21982,58.38018h-4.94238c.01807.7793.22803,1.38086.62891,1.80469s.95264.63574,1.6543.63574c.78857,0,1.51318-.25977,2.17383-.7793v1.05273c-.61523.44678-1.42871.66992-2.44043.66992-.98877,0-1.76611-.31787-2.33105-.95361s-.84766-1.53027-.84766-2.68311c0-1.08936.30859-1.97656.92627-2.6626s1.38428-1.02881,2.30029-1.02881,1.62451.29639,2.12598.88867.75195,1.41504.75195,2.46777v.58789ZM354.07139,57.42998c-.00439-.64697-.16064-1.15088-.46826-1.51074s-.73486-.54004-1.28174-.54004c-.52881,0-.97754.18896-1.34668.56738s-.59717.87256-.68359,1.4834h3.78027Z" fill="#2f2f2f"/>
      <path d="M360.55332,55.73467c-.1958-.15039-.47852-.22559-.84766-.22559-.47852,0-.87842.22559-1.19971.67676s-.48193,1.06641-.48193,1.8457v3.56836h-1.12109v-7h1.12109v1.44238h.02734c.15967-.49219.40332-.87598.73145-1.15186s.69482-.41357,1.10059-.41357c.2915,0,.51514.03174.66992.0957v1.16211Z" fill="#2f2f2f"/>
      <path d="M367.82578,54.5999l-2.78906,7h-1.10059l-2.65234-7h1.23047l1.77734,5.08594c.13232.37354.21436.69971.24609.97754h.02734c.04541-.35107.11865-.66748.21875-.9502l1.85938-5.11328h1.18262Z" fill="#2f2f2f"/>
      <path d="M374.46738,58.38018h-4.94238c.01807.7793.22803,1.38086.62891,1.80469s.95264.63574,1.6543.63574c.78857,0,1.51318-.25977,2.17383-.7793v1.05273c-.61523.44678-1.42871.66992-2.44043.66992-.98877,0-1.76611-.31787-2.33105-.95361s-.84766-1.53027-.84766-2.68311c0-1.08936.30859-1.97656.92627-2.6626s1.38428-1.02881,2.30029-1.02881,1.62451.29639,2.12598.88867.75195,1.41504.75195,2.46777v.58789ZM373.31895,57.42998c-.00439-.64697-.16064-1.15088-.46826-1.51074s-.73486-.54004-1.28174-.54004c-.52881,0-.97754.18896-1.34668.56738s-.59717.87256-.68359,1.4834h3.78027Z" fill="#2f2f2f"/>
      <path d="M379.80039,55.73467c-.1958-.15039-.47852-.22559-.84766-.22559-.47852,0-.87842.22559-1.19971.67676s-.48193,1.06641-.48193,1.8457v3.56836h-1.12109v-7h1.12109v1.44238h.02734c.15967-.49219.40332-.87598.73145-1.15186s.69482-.41357,1.10059-.41357c.2915,0,.51514.03174.66992.0957v1.16211Z" fill="#2f2f2f"/>
    </g>
    <g>
      <path d="M294.89072,122.19756l-3.62988,9.80273h-1.26465l-3.55469-9.80273h1.27832l2.71387,7.77246c.08643.25049.15283.54004.19824.86816h.02734c.03662-.27344.11182-.56738.22559-.88184l2.76855-7.75879h1.2373Z" fill="#2f2f2f"/>
      <path d="M296.80234,123.22295c-.20068,0-.37158-.06836-.5127-.20508s-.21191-.31006-.21191-.51953.0708-.38379.21191-.52295.31201-.2085.5127-.2085c.20508,0,.37939.06934.52295.2085s.21533.31348.21533.52295c0,.20068-.07178.37158-.21533.5127s-.31787.21191-.52295.21191ZM297.34922,132.00029h-1.12109v-7h1.12109v7Z" fill="#2f2f2f"/>
      <path d="M303.11826,126.13506c-.1958-.15039-.47852-.22559-.84766-.22559-.47852,0-.87842.22559-1.19971.67676s-.48193,1.06641-.48193,1.8457v3.56836h-1.12109v-7h1.12109v1.44238h.02734c.15967-.49219.40332-.87598.73145-1.15186s.69482-.41357,1.10059-.41357c.2915,0,.51514.03174.66992.0957v1.16211Z" fill="#2f2f2f"/>
      <path d="M308.03721,131.93193c-.26416.146-.61279.21875-1.0459.21875-1.22607,0-1.83887-.68359-1.83887-2.05078v-4.14258h-1.20312v-.95703h1.20312v-1.70898l1.12109-.3623v2.07129h1.76367v.95703h-1.76367v3.94434c0,.46924.07959.8042.23926,1.00488s.42383.30078.79297.30078c.28271,0,.52637-.07764.73145-.23242v.95703Z" fill="#2f2f2f"/>
      <path d="M315.15488,132.00029h-1.12109v-1.10742h-.02734c-.46484.84766-1.18506,1.27148-2.16016,1.27148-1.66797,0-2.50195-.99365-2.50195-2.98047v-4.18359h1.11426v4.00586c0,1.47656.56494,2.21484,1.69531,2.21484.54688,0,.99707-.20166,1.3501-.60498s.52979-.93066.52979-1.58252v-4.0332h1.12109v7Z" fill="#2f2f2f"/>
      <path d="M322.31064,132.00029h-1.12109v-1.09375h-.02734c-.48779.83838-1.20557,1.25781-2.15332,1.25781-.69727,0-1.24316-.18457-1.63721-.55371s-.59131-.85889-.59131-1.46973c0-1.30811.77002-2.06885,2.31055-2.2832l2.09863-.29395c0-1.18945-.48096-1.78418-1.44238-1.78418-.84326,0-1.604.28711-2.2832.86133v-1.14844c.68799-.4375,1.48096-.65625,2.37891-.65625,1.64502,0,2.46777.87061,2.46777,2.61133v4.55273ZM321.18955,128.45928l-1.68848.23242c-.51953.07275-.91162.20166-1.17578.38623s-.39648.51172-.39648.98096c0,.3418.12207.62109.36572.8374s.56836.32471.97412.32471c.55615,0,1.01514-.19482,1.37744-.58447s.54346-.88281.54346-1.47998v-.69727Z" fill="#2f2f2f"/>
      <path d="M325.45176,132.00029h-1.12109v-10.36328h1.12109v10.36328Z" fill="#2f2f2f"/>
      <path d="M341.70078,132.00029h-1.1416v-6.57617c0-.51953.03174-1.15527.0957-1.90723h-.02734c-.10938.44189-.20752.75879-.29395.9502l-3.34961,7.5332h-.56055l-3.34277-7.47852c-.0957-.21875-.19385-.55371-.29395-1.00488h-.02734c.03662.39209.05469,1.03223.05469,1.9209v6.5625h-1.10742v-9.80273h1.51758l3.00781,6.83594c.23242.52393.38281.91602.45117,1.17578h.04102c.1958-.5376.35303-.93896.47168-1.20312l3.06934-6.80859h1.43555v9.80273Z" fill="#2f2f2f"/>
      <path d="M349.01523,132.00029h-1.12109v-1.09375h-.02734c-.48779.83838-1.20557,1.25781-2.15332,1.25781-.69727,0-1.24316-.18457-1.63721-.55371s-.59131-.85889-.59131-1.46973c0-1.30811.77002-2.06885,2.31055-2.2832l2.09863-.29395c0-1.18945-.48096-1.78418-1.44238-1.78418-.84326,0-1.604.28711-2.2832.86133v-1.14844c.68799-.4375,1.48096-.65625,2.37891-.65625,1.64502,0,2.46777.87061,2.46777,2.61133v4.55273ZM347.89414,128.45928l-1.68848.23242c-.51953.07275-.91162.20166-1.17578.38623s-.39648.51172-.39648.98096c0,.3418.12207.62109.36572.8374s.56836.32471.97412.32471c.55615,0,1.01514-.19482,1.37744-.58447s.54346-.88281.54346-1.47998v-.69727Z" fill="#2f2f2f"/>
      <path d="M355.8585,131.679c-.5376.32373-1.17578.48535-1.91406.48535-.99805,0-1.80371-.32471-2.4165-.97412s-.91943-1.49121-.91943-2.52588c0-1.15283.33057-2.0791.99121-2.77881s1.54248-1.04932,2.64551-1.04932c.61523,0,1.15771.11377,1.62695.3418v1.14844c-.51953-.36475-1.07568-.54688-1.66797-.54688-.71533,0-1.30225.25635-1.76025.76904s-.68701,1.18604-.68701,2.02002c0,.82031.21533,1.46729.646,1.94141s1.0083.71094,1.73291.71094c.61084,0,1.18506-.20264,1.72266-.6084v1.06641Z" fill="#2f2f2f"/>
      <path d="M363.15684,132.00029h-1.12109v-4.0332c0-1.4585-.54248-2.1875-1.62695-2.1875-.54688,0-1.00732.21094-1.38086.63232s-.56055.96289-.56055,1.62354v3.96484h-1.12109v-10.36328h1.12109v4.52539h.02734c.5376-.88428,1.30322-1.32617,2.29688-1.32617,1.57666,0,2.36523.9502,2.36523,2.85059v4.31348Z" fill="#2f2f2f"/>
      <path d="M365.74131,123.22295c-.20068,0-.37158-.06836-.5127-.20508s-.21191-.31006-.21191-.51953.0708-.38379.21191-.52295.31201-.2085.5127-.2085c.20508,0,.37939.06934.52295.2085s.21533.31348.21533.52295c0,.20068-.07178.37158-.21533.5127s-.31787.21191-.52295.21191ZM366.28818,132.00029h-1.12109v-7h1.12109v7Z" fill="#2f2f2f"/>
      <path d="M374.21689,132.00029h-1.12109v-3.99219c0-1.48584-.54248-2.22852-1.62695-2.22852-.56055,0-1.02441.21094-1.39111.63232s-.55029.95361-.55029,1.59619v3.99219h-1.12109v-7h1.12109v1.16211h.02734c.52881-.88428,1.29443-1.32617,2.29688-1.32617.76562,0,1.35107.24707,1.75684.7417s.6084,1.20898.6084,2.14307v4.2793Z" fill="#2f2f2f"/>
      <path d="M381.92051,128.78057h-4.94238c.01807.7793.22803,1.38086.62891,1.80469s.95264.63574,1.6543.63574c.78857,0,1.51318-.25977,2.17383-.7793v1.05273c-.61523.44678-1.42871.66992-2.44043.66992-.98877,0-1.76611-.31787-2.33105-.95361s-.84766-1.53027-.84766-2.68311c0-1.08936.30859-1.97656.92627-2.6626s1.38428-1.02881,2.30029-1.02881,1.62451.29639,2.12598.88867.75195,1.41504.75195,2.46777v.58789ZM380.77207,127.83037c-.00439-.64697-.16064-1.15088-.46826-1.51074s-.73486-.54004-1.28174-.54004c-.52881,0-.97754.18896-1.34668.56738s-.59717.87256-.68359,1.4834h3.78027Z" fill="#2f2f2f"/>
    </g>
    <g>
      <path d="M322.79795,191.4002v-9.80273h2.70703c3.45459,0,5.18164,1.59277,5.18164,4.77832,0,1.51318-.47949,2.72852-1.43896,3.64697s-2.24316,1.37744-3.85205,1.37744h-2.59766ZM323.94639,182.63652v7.72461h1.46289c1.28516,0,2.28564-.34424,3.00098-1.03223s1.07324-1.66357,1.07324-2.92578c0-2.51123-1.33545-3.7666-4.00586-3.7666h-1.53125Z" fill="#2f2f2f"/>
      <path d="M332.97373,182.62285c-.20068,0-.37158-.06836-.5127-.20508s-.21191-.31006-.21191-.51953.0708-.38379.21191-.52295.31201-.2085.5127-.2085c.20508,0,.37939.06934.52295.2085s.21533.31348.21533.52295c0,.20068-.07178.37158-.21533.5127s-.31787.21191-.52295.21191ZM333.52061,191.4002h-1.12109v-7h1.12109v7Z" fill="#2f2f2f"/>
      <path d="M335.2374,191.14727v-1.20312c.61084.45117,1.28271.67676,2.0166.67676.98438,0,1.47656-.32812,1.47656-.98438,0-.18701-.04199-.34521-.12646-.4751s-.19824-.24512-.3418-.34521-.31201-.19043-.50586-.27002-.40234-.16309-.62549-.24951c-.31006-.12305-.58203-.24707-.81689-.37256s-.43066-.2666-.58789-.42383-.27588-.33594-.35547-.53662-.11963-.43506-.11963-.7041c0-.32812.0752-.61865.22559-.87158s.35107-.46484.60156-.63574.53662-.2998.85791-.38623.65283-.12988.99463-.12988c.60596,0,1.14844.10498,1.62695.31445v1.13477c-.51514-.3374-1.10742-.50586-1.77734-.50586-.20947,0-.39893.02393-.56738.07178s-.31348.11523-.43408.20166-.21436.19043-.28027.31104-.09912.25391-.09912.3999c0,.18213.0332.33496.09912.45801s.16309.23242.29053.32812.28271.18213.46484.25977.38965.16162.62207.25293c.31006.11865.58789.24023.83398.36572s.45557.2666.62891.42383.30664.33838.3999.54346.14014.44873.14014.73145c0,.34619-.07617.64697-.229.90234s-.35645.46729-.61182.63574-.54932.29395-.88184.37598-.68115.12305-1.0459.12305c-.72021,0-1.34424-.13916-1.87305-.41699Z" fill="#2f2f2f"/>
      <path d="M347.27354,191.4002h-1.57227l-3.08984-3.36328h-.02734v3.36328h-1.12109v-10.36328h1.12109v6.56934h.02734l2.93945-3.20605h1.46973l-3.24707,3.37695,3.5,3.62305Z" fill="#2f2f2f"/>
    </g>
    <g>
      <path d="M50.77988,57.89482v3.70508h-1.14844v-9.80273h2.69336c1.04834,0,1.86035.25537,2.43701.76562s.86475,1.23047.86475,2.16016-.32031,1.69092-.96045,2.2832-1.50488.88867-2.59424.88867h-1.29199ZM50.77988,52.83623v4.01953h1.20312c.79297,0,1.39795-.18115,1.81494-.54346s.62549-.87402.62549-1.53467c0-1.29443-.76562-1.94141-2.29688-1.94141h-1.34668Z" fill="#2f2f2f"/>
      <path d="M60.75645,55.73467c-.1958-.15039-.47852-.22559-.84766-.22559-.47852,0-.87842.22559-1.19971.67676s-.48193,1.06641-.48193,1.8457v3.56836h-1.12109v-7h1.12109v1.44238h.02734c.15967-.49219.40332-.87598.73145-1.15186s.69482-.41357,1.10059-.41357c.2915,0,.51514.03174.66992.0957v1.16211Z" fill="#2f2f2f"/>
      <path d="M62.57432,52.82256c-.20068,0-.37158-.06836-.5127-.20508s-.21191-.31006-.21191-.51953.0708-.38379.21191-.52295.31201-.2085.5127-.2085c.20508,0,.37939.06934.52295.2085s.21533.31348.21533.52295c0,.20068-.07178.37158-.21533.5127s-.31787.21191-.52295.21191ZM63.12119,61.5999h-1.12109v-7h1.12109v7Z" fill="#2f2f2f"/>
      <path d="M75.17881,61.5999h-1.12109v-4.01953c0-.7749-.11963-1.33545-.35889-1.68164s-.6416-.51953-1.20654-.51953c-.47852,0-.88525.21875-1.22021.65625s-.50244.96143-.50244,1.57227v3.99219h-1.12109v-4.15625c0-1.37646-.53076-2.06445-1.59277-2.06445-.49219,0-.89795.20605-1.2168.61865s-.47852.94922-.47852,1.60986v3.99219h-1.12109v-7h1.12109v1.10742h.02734c.49658-.84766,1.22119-1.27148,2.17383-1.27148.47852,0,.89551.1333,1.25098.3999s.59912.61621.73145,1.04932c.51953-.96631,1.29443-1.44922,2.32422-1.44922,1.54053,0,2.31055.9502,2.31055,2.85059v4.31348Z" fill="#2f2f2f"/>
      <path d="M82.21348,61.5999h-1.12109v-1.09375h-.02734c-.48779.83838-1.20557,1.25781-2.15332,1.25781-.69727,0-1.24316-.18457-1.63721-.55371s-.59131-.85889-.59131-1.46973c0-1.30811.77002-2.06885,2.31055-2.2832l2.09863-.29395c0-1.18945-.48096-1.78418-1.44238-1.78418-.84326,0-1.604.28711-2.2832.86133v-1.14844c.68799-.4375,1.48096-.65625,2.37891-.65625,1.64502,0,2.46777.87061,2.46777,2.61133v4.55273ZM81.09238,58.05889l-1.68848.23242c-.51953.07275-.91162.20166-1.17578.38623s-.39648.51172-.39648.98096c0,.3418.12207.62109.36572.8374s.56836.32471.97412.32471c.55615,0,1.01514-.19482,1.37744-.58447s.54346-.88281.54346-1.47998v-.69727Z" fill="#2f2f2f"/>
      <path d="M87.88096,55.73467c-.1958-.15039-.47852-.22559-.84766-.22559-.47852,0-.87842.22559-1.19971.67676s-.48193,1.06641-.48193,1.8457v3.56836h-1.12109v-7h1.12109v1.44238h.02734c.15967-.49219.40332-.87598.73145-1.15186s.69482-.41357,1.10059-.41357c.2915,0,.51514.03174.66992.0957v1.16211Z" fill="#2f2f2f"/>
      <path d="M95.22227,54.5999l-3.21973,8.12109c-.57422,1.44922-1.38086,2.17383-2.41992,2.17383-.2915,0-.53564-.02979-.73145-.08887v-1.00488c.2417.08203.4624.12305.66309.12305.56494,0,.98877-.3374,1.27148-1.01172l.56055-1.32617-2.73438-6.98633h1.24414l1.89355,5.38672c.02295.06836.0708.24609.14355.5332h.04102c.02295-.10938.06836-.28271.13672-.51953l1.98926-5.40039h1.16211Z" fill="#2f2f2f"/>
      <path d="M99.83652,61.34697v-1.20312c.61084.45117,1.28271.67676,2.0166.67676.98438,0,1.47656-.32812,1.47656-.98438,0-.18701-.04199-.34521-.12646-.4751s-.19824-.24512-.3418-.34521-.31201-.19043-.50586-.27002-.40234-.16309-.62549-.24951c-.31006-.12305-.58203-.24707-.81689-.37256s-.43066-.2666-.58789-.42383-.27588-.33594-.35547-.53662-.11963-.43506-.11963-.7041c0-.32812.0752-.61865.22559-.87158s.35107-.46484.60156-.63574.53662-.2998.85791-.38623.65283-.12988.99463-.12988c.60596,0,1.14844.10498,1.62695.31445v1.13477c-.51514-.3374-1.10742-.50586-1.77734-.50586-.20947,0-.39893.02393-.56738.07178s-.31348.11523-.43408.20166-.21436.19043-.28027.31104-.09912.25391-.09912.3999c0,.18213.0332.33496.09912.45801s.16309.23242.29053.32812.28271.18213.46484.25977.38965.16162.62207.25293c.31006.11865.58789.24023.83398.36572s.45557.2666.62891.42383.30664.33838.3999.54346.14014.44873.14014.73145c0,.34619-.07617.64697-.229.90234s-.35645.46729-.61182.63574-.54932.29395-.88184.37598-.68115.12305-1.0459.12305c-.72021,0-1.34424-.13916-1.87305-.41699Z" fill="#2f2f2f"/>
      <path d="M111.7916,58.38018h-4.94238c.01807.7793.22803,1.38086.62891,1.80469s.95264.63574,1.6543.63574c.78857,0,1.51318-.25977,2.17383-.7793v1.05273c-.61523.44678-1.42871.66992-2.44043.66992-.98877,0-1.76611-.31787-2.33105-.95361s-.84766-1.53027-.84766-2.68311c0-1.08936.30859-1.97656.92627-2.6626s1.38428-1.02881,2.30029-1.02881,1.62451.29639,2.12598.88867.75195,1.41504.75195,2.46777v.58789ZM110.64316,57.42998c-.00439-.64697-.16064-1.15088-.46826-1.51074s-.73486-.54004-1.28174-.54004c-.52881,0-.97754.18896-1.34668.56738s-.59717.87256-.68359,1.4834h3.78027Z" fill="#2f2f2f"/>
      <path d="M117.12461,55.73467c-.1958-.15039-.47852-.22559-.84766-.22559-.47852,0-.87842.22559-1.19971.67676s-.48193,1.06641-.48193,1.8457v3.56836h-1.12109v-7h1.12109v1.44238h.02734c.15967-.49219.40332-.87598.73145-1.15186s.69482-.41357,1.10059-.41357c.2915,0,.51514.03174.66992.0957v1.16211Z" fill="#2f2f2f"/>
      <path d="M124.39756,54.5999l-2.78906,7h-1.10059l-2.65234-7h1.23047l1.77734,5.08594c.13232.37354.21436.69971.24609.97754h.02734c.04541-.35107.11865-.66748.21875-.9502l1.85938-5.11328h1.18262Z" fill="#2f2f2f"/>
      <path d="M131.03916,58.38018h-4.94238c.01807.7793.22803,1.38086.62891,1.80469s.95264.63574,1.6543.63574c.78857,0,1.51318-.25977,2.17383-.7793v1.05273c-.61523.44678-1.42871.66992-2.44043.66992-.98877,0-1.76611-.31787-2.33105-.95361s-.84766-1.53027-.84766-2.68311c0-1.08936.30859-1.97656.92627-2.6626s1.38428-1.02881,2.30029-1.02881,1.62451.29639,2.12598.88867.75195,1.41504.75195,2.46777v.58789ZM129.89072,57.42998c-.00439-.64697-.16064-1.15088-.46826-1.51074s-.73486-.54004-1.28174-.54004c-.52881,0-.97754.18896-1.34668.56738s-.59717.87256-.68359,1.4834h3.78027Z" fill="#2f2f2f"/>
      <path d="M136.37217,55.73467c-.1958-.15039-.47852-.22559-.84766-.22559-.47852,0-.87842.22559-1.19971.67676s-.48193,1.06641-.48193,1.8457v3.56836h-1.12109v-7h1.12109v1.44238h.02734c.15967-.49219.40332-.87598.73145-1.15186s.69482-.41357,1.10059-.41357c.2915,0,.51514.03174.66992.0957v1.16211Z" fill="#2f2f2f"/>
    </g>
    <g>
      <path d="M52.89072,122.19756l-3.62988,9.80273h-1.26465l-3.55469-9.80273h1.27832l2.71387,7.77246c.08643.25049.15283.54004.19824.86816h.02734c.03662-.27344.11182-.56738.22559-.88184l2.76855-7.75879h1.2373Z" fill="#2f2f2f"/>
      <path d="M54.80234,123.22295c-.20068,0-.37158-.06836-.5127-.20508s-.21191-.31006-.21191-.51953.0708-.38379.21191-.52295.31201-.2085.5127-.2085c.20508,0,.37939.06934.52295.2085s.21533.31348.21533.52295c0,.20068-.07178.37158-.21533.5127s-.31787.21191-.52295.21191ZM55.34922,132.00029h-1.12109v-7h1.12109v7Z" fill="#2f2f2f"/>
      <path d="M61.11826,126.13506c-.1958-.15039-.47852-.22559-.84766-.22559-.47852,0-.87842.22559-1.19971.67676s-.48193,1.06641-.48193,1.8457v3.56836h-1.12109v-7h1.12109v1.44238h.02734c.15967-.49219.40332-.87598.73145-1.15186s.69482-.41357,1.10059-.41357c.2915,0,.51514.03174.66992.0957v1.16211Z" fill="#2f2f2f"/>
      <path d="M66.03721,131.93193c-.26416.146-.61279.21875-1.0459.21875-1.22607,0-1.83887-.68359-1.83887-2.05078v-4.14258h-1.20312v-.95703h1.20312v-1.70898l1.12109-.3623v2.07129h1.76367v.95703h-1.76367v3.94434c0,.46924.07959.8042.23926,1.00488s.42383.30078.79297.30078c.28271,0,.52637-.07764.73145-.23242v.95703Z" fill="#2f2f2f"/>
      <path d="M73.15488,132.00029h-1.12109v-1.10742h-.02734c-.46484.84766-1.18506,1.27148-2.16016,1.27148-1.66797,0-2.50195-.99365-2.50195-2.98047v-4.18359h1.11426v4.00586c0,1.47656.56494,2.21484,1.69531,2.21484.54688,0,.99707-.20166,1.3501-.60498s.52979-.93066.52979-1.58252v-4.0332h1.12109v7Z" fill="#2f2f2f"/>
      <path d="M80.31064,132.00029h-1.12109v-1.09375h-.02734c-.48779.83838-1.20557,1.25781-2.15332,1.25781-.69727,0-1.24316-.18457-1.63721-.55371s-.59131-.85889-.59131-1.46973c0-1.30811.77002-2.06885,2.31055-2.2832l2.09863-.29395c0-1.18945-.48096-1.78418-1.44238-1.78418-.84326,0-1.604.28711-2.2832.86133v-1.14844c.68799-.4375,1.48096-.65625,2.37891-.65625,1.64502,0,2.46777.87061,2.46777,2.61133v4.55273ZM79.18955,128.45928l-1.68848.23242c-.51953.07275-.91162.20166-1.17578.38623s-.39648.51172-.39648.98096c0,.3418.12207.62109.36572.8374s.56836.32471.97412.32471c.55615,0,1.01514-.19482,1.37744-.58447s.54346-.88281.54346-1.47998v-.69727Z" fill="#2f2f2f"/>
      <path d="M83.45176,132.00029h-1.12109v-10.36328h1.12109v10.36328Z" fill="#2f2f2f"/>
      <path d="M99.70078,132.00029h-1.1416v-6.57617c0-.51953.03174-1.15527.0957-1.90723h-.02734c-.10938.44189-.20752.75879-.29395.9502l-3.34961,7.5332h-.56055l-3.34277-7.47852c-.0957-.21875-.19385-.55371-.29395-1.00488h-.02734c.03662.39209.05469,1.03223.05469,1.9209v6.5625h-1.10742v-9.80273h1.51758l3.00781,6.83594c.23242.52393.38281.91602.45117,1.17578h.04102c.1958-.5376.35303-.93896.47168-1.20312l3.06934-6.80859h1.43555v9.80273Z" fill="#2f2f2f"/>
      <path d="M107.01523,132.00029h-1.12109v-1.09375h-.02734c-.48779.83838-1.20557,1.25781-2.15332,1.25781-.69727,0-1.24316-.18457-1.63721-.55371s-.59131-.85889-.59131-1.46973c0-1.30811.77002-2.06885,2.31055-2.2832l2.09863-.29395c0-1.18945-.48096-1.78418-1.44238-1.78418-.84326,0-1.604.28711-2.2832.86133v-1.14844c.68799-.4375,1.48096-.65625,2.37891-.65625,1.64502,0,2.46777.87061,2.46777,2.61133v4.55273ZM105.89414,128.45928l-1.68848.23242c-.51953.07275-.91162.20166-1.17578.38623s-.39648.51172-.39648.98096c0,.3418.12207.62109.36572.8374s.56836.32471.97412.32471c.55615,0,1.01514-.19482,1.37744-.58447s.54346-.88281.54346-1.47998v-.69727Z" fill="#2f2f2f"/>
      <path d="M113.8585,131.679c-.5376.32373-1.17578.48535-1.91406.48535-.99805,0-1.80371-.32471-2.4165-.97412s-.91943-1.49121-.91943-2.52588c0-1.15283.33057-2.0791.99121-2.77881s1.54248-1.04932,2.64551-1.04932c.61523,0,1.15771.11377,1.62695.3418v1.14844c-.51953-.36475-1.07568-.54688-1.66797-.54688-.71533,0-1.30225.25635-1.76025.76904s-.68701,1.18604-.68701,2.02002c0,.82031.21533,1.46729.646,1.94141s1.0083.71094,1.73291.71094c.61084,0,1.18506-.20264,1.72266-.6084v1.06641Z" fill="#2f2f2f"/>
      <path d="M121.15684,132.00029h-1.12109v-4.0332c0-1.4585-.54248-2.1875-1.62695-2.1875-.54688,0-1.00732.21094-1.38086.63232s-.56055.96289-.56055,1.62354v3.96484h-1.12109v-10.36328h1.12109v4.52539h.02734c.5376-.88428,1.30322-1.32617,2.29688-1.32617,1.57666,0,2.36523.9502,2.36523,2.85059v4.31348Z" fill="#2f2f2f"/>
      <path d="M123.74131,123.22295c-.20068,0-.37158-.06836-.5127-.20508s-.21191-.31006-.21191-.51953.0708-.38379.21191-.52295.31201-.2085.5127-.2085c.20508,0,.37939.06934.52295.2085s.21533.31348.21533.52295c0,.20068-.07178.37158-.21533.5127s-.31787.21191-.52295.21191ZM124.28818,132.00029h-1.12109v-7h1.12109v7Z" fill="#2f2f2f"/>
      <path d="M132.21689,132.00029h-1.12109v-3.99219c0-1.48584-.54248-2.22852-1.62695-2.22852-.56055,0-1.02441.21094-1.39111.63232s-.55029.95361-.55029,1.59619v3.99219h-1.12109v-7h1.12109v1.16211h.02734c.52881-.88428,1.29443-1.32617,2.29688-1.32617.76562,0,1.35107.24707,1.75684.7417s.6084,1.20898.6084,2.14307v4.2793Z" fill="#2f2f2f"/>
      <path d="M139.92051,128.78057h-4.94238c.01807.7793.22803,1.38086.62891,1.80469s.95264.63574,1.6543.63574c.78857,0,1.51318-.25977,2.17383-.7793v1.05273c-.61523.44678-1.42871.66992-2.44043.66992-.98877,0-1.76611-.31787-2.33105-.95361s-.84766-1.53027-.84766-2.68311c0-1.08936.30859-1.97656.92627-2.6626s1.38428-1.02881,2.30029-1.02881,1.62451.29639,2.12598.88867.75195,1.41504.75195,2.46777v.58789ZM138.77207,127.83037c-.00439-.64697-.16064-1.15088-.46826-1.51074s-.73486-.54004-1.28174-.54004c-.52881,0-.97754.18896-1.34668.56738s-.59717.87256-.68359,1.4834h3.78027Z" fill="#2f2f2f"/>
    </g>
    <g>
      <path d="M80.79795,191.4002v-9.80273h2.70703c3.45459,0,5.18164,1.59277,5.18164,4.77832,0,1.51318-.47949,2.72852-1.43896,3.64697s-2.24316,1.37744-3.85205,1.37744h-2.59766ZM81.94639,182.63652v7.72461h1.46289c1.28516,0,2.28564-.34424,3.00098-1.03223s1.07324-1.66357,1.07324-2.92578c0-2.51123-1.33545-3.7666-4.00586-3.7666h-1.53125Z" fill="#2f2f2f"/>
      <path d="M90.97373,182.62285c-.20068,0-.37158-.06836-.5127-.20508s-.21191-.31006-.21191-.51953.0708-.38379.21191-.52295.31201-.2085.5127-.2085c.20508,0,.37939.06934.52295.2085s.21533.31348.21533.52295c0,.20068-.07178.37158-.21533.5127s-.31787.21191-.52295.21191ZM91.52061,191.4002h-1.12109v-7h1.12109v7Z" fill="#2f2f2f"/>
      <path d="M93.2374,191.14727v-1.20312c.61084.45117,1.28271.67676,2.0166.67676.98438,0,1.47656-.32812,1.47656-.98438,0-.18701-.04199-.34521-.12646-.4751s-.19824-.24512-.3418-.34521-.31201-.19043-.50586-.27002-.40234-.16309-.62549-.24951c-.31006-.12305-.58203-.24707-.81689-.37256s-.43066-.2666-.58789-.42383-.27588-.33594-.35547-.53662-.11963-.43506-.11963-.7041c0-.32812.0752-.61865.22559-.87158s.35107-.46484.60156-.63574.53662-.2998.85791-.38623.65283-.12988.99463-.12988c.60596,0,1.14844.10498,1.62695.31445v1.13477c-.51514-.3374-1.10742-.50586-1.77734-.50586-.20947,0-.39893.02393-.56738.07178s-.31348.11523-.43408.20166-.21436.19043-.28027.31104-.09912.25391-.09912.3999c0,.18213.0332.33496.09912.45801s.16309.23242.29053.32812.28271.18213.46484.25977.38965.16162.62207.25293c.31006.11865.58789.24023.83398.36572s.45557.2666.62891.42383.30664.33838.3999.54346.14014.44873.14014.73145c0,.34619-.07617.64697-.229.90234s-.35645.46729-.61182.63574-.54932.29395-.88184.37598-.68115.12305-1.0459.12305c-.72021,0-1.34424-.13916-1.87305-.41699Z" fill="#2f2f2f"/>
      <path d="M105.27354,191.4002h-1.57227l-3.08984-3.36328h-.02734v3.36328h-1.12109v-10.36328h1.12109v6.56934h.02734l2.93945-3.20605h1.46973l-3.24707,3.37695,3.5,3.62305Z" fill="#2f2f2f"/>
    </g>
  </g>
</svg>