<?xml version="1.0" encoding="UTF-8"?>
<svg xmlns="http://www.w3.org/2000/svg" width="632.99068" height="334.17985" xmlns:xlink="http://www.w3.org/1999/xlink" viewBox="0 0 632.99068 334.17985">
  <defs>
    <filter id="drop-shadow-2" filterUnits="userSpaceOnUse">
      <feOffset dx=".5" dy=".5"/>
      <feGaussianBlur result="blur" stdDeviation="0"/>
      <feFlood flood-color="#4e4f4f" flood-opacity=".8"/>
      <feComposite in2="blur" operator="in"/>
      <feComposite in="SourceGraphic"/>
    </filter>
    <linearGradient id="Cool_gray_gradient_1" data-name="Cool gray gradient 1" x1="217.69475" y1="166.48476" x2="415.61496" y2="166.48476" gradientUnits="userSpaceOnUse">
      <stop offset="0" stop-color="#f5f5f4"/>
      <stop offset="1" stop-color="#ececea"/>
    </linearGradient>
    <linearGradient id="Cool_gray_gradient_1-2" data-name="Cool gray gradient 1" x1="10.81496" x2="208.73518" xlink:href="#Cool_gray_gradient_1"/>
    <linearGradient id="Cool_gray_gradient_1-3" data-name="Cool gray gradient 1" x1="424.49475" x2="622.41496" xlink:href="#Cool_gray_gradient_1"/>
    <linearGradient id="linear-gradient" x1="212.82842" y1="1773.56192" x2="212.82842" y2="1788.52789" gradientTransform="translate(0 1867.1597) scale(1 -1)" gradientUnits="userSpaceOnUse">
      <stop offset="0" stop-color="#0078d4"/>
      <stop offset=".16" stop-color="#1380da"/>
      <stop offset=".53" stop-color="#3c91e5"/>
      <stop offset=".82" stop-color="#559cec"/>
      <stop offset="1" stop-color="#5ea0ef"/>
    </linearGradient>
    <linearGradient id="linear-gradient-2" x1="206.57468" y1="1764.57658" x2="206.57468" y2="1779.97231" gradientTransform="translate(0 1867.1597) scale(1 -1)" gradientUnits="userSpaceOnUse">
      <stop offset="0" stop-color="#198ab3"/>
      <stop offset=".13" stop-color="#21a0c7"/>
      <stop offset=".31" stop-color="#28b7db"/>
      <stop offset=".5" stop-color="#2ec7ea"/>
      <stop offset=".72" stop-color="#31d1f2"/>
      <stop offset="1" stop-color="#32d4f5"/>
    </linearGradient>
    <linearGradient id="linear-gradient-3" x1="239.22842" y1="1713.69727" x2="239.22842" y2="1728.66323" xlink:href="#linear-gradient"/>
    <linearGradient id="linear-gradient-4" x1="232.97468" y1="1704.71193" x2="232.97468" y2="1720.10766" xlink:href="#linear-gradient-2"/>
    <linearGradient id="linear-gradient-5" x1="220.47979" y1="1644.57658" x2="220.47979" y2="1660.75069" gradientTransform="translate(0 1867.1597) scale(1 -1)" gradientUnits="userSpaceOnUse">
      <stop offset="0" stop-color="#b3b4b4"/>
      <stop offset=".26" stop-color="#c2c1c0"/>
      <stop offset="1" stop-color="#e6e6e6"/>
    </linearGradient>
    <filter id="drop-shadow-2-1" x="39.6" y="248.98312" width="141.3" height="57.7" filterUnits="userSpaceOnUse">
      <feOffset dx=".5" dy=".5"/>
      <feGaussianBlur result="blur-2" stdDeviation="0"/>
      <feFlood flood-color="#4e4f4f" flood-opacity=".8"/>
      <feComposite in2="blur-2" operator="in"/>
      <feComposite in="SourceGraphic"/>
    </filter>
    <linearGradient id="linear-gradient-6" x1="-469.41143" y1="1818.25848" x2="-469.41143" y2="1835.57658" gradientTransform="translate(564 2101.1597) scale(1 -1)" gradientUnits="userSpaceOnUse">
      <stop offset="0" stop-color="#0078d4"/>
      <stop offset=".82" stop-color="#5ea0ef"/>
    </linearGradient>
    <linearGradient id="linear-gradient-7" x1="-469.41143" y1="1811.57658" x2="-469.41143" y2="1818.25848" gradientTransform="translate(564 2101.1597) scale(1 -1)" gradientUnits="userSpaceOnUse">
      <stop offset=".15" stop-color="#ccc"/>
      <stop offset="1" stop-color="#707070"/>
    </linearGradient>
  </defs>
  <g isolation="isolate">
    <g id="Shapes">
      <rect width="632.99068" height="334.17985" fill="#fff"/>
      <g>
        <g mix-blend-mode="multiply" opacity=".65">
          <rect x="218.69475" y="10.98639" width="197.92021" height="312.99673" rx="8" ry="8" fill="#2b436f"/>
          <rect x="218.69475" y="10.98639" width="197.92021" height="312.99673" rx="8" ry="8" fill="#2b436f" opacity=".6"/>
        </g>
        <g>
          <rect x="217.69475" y="9.98639" width="197.92021" height="312.99673" rx="8" ry="8" fill="url(#Cool_gray_gradient_1)"/>
          <rect x="217.69475" y="9.98639" width="197.92021" height="312.99673" rx="8" ry="8" fill="#8ec8e7" opacity=".6"/>
        </g>
      </g>
      <g>
        <g mix-blend-mode="multiply" opacity=".65">
          <rect x="11.81496" y="10.98639" width="197.92021" height="312.99673" rx="8" ry="8" fill="#2b436f"/>
          <rect x="11.81496" y="10.98639" width="197.92021" height="312.99673" rx="8" ry="8" fill="#2b436f" opacity=".6"/>
        </g>
        <g>
          <rect x="10.81496" y="9.98639" width="197.92021" height="312.99673" rx="8" ry="8" fill="url(#Cool_gray_gradient_1-2)"/>
          <rect x="10.81496" y="9.98639" width="197.92021" height="312.99673" rx="8" ry="8" fill="#8ec8e7" opacity=".6"/>
        </g>
      </g>
      <g>
        <g mix-blend-mode="multiply" opacity=".65">
          <rect x="425.49475" y="10.98639" width="197.92021" height="312.99673" rx="8" ry="8" fill="#2b436f"/>
          <rect x="425.49475" y="10.98639" width="197.92021" height="312.99673" rx="8" ry="8" fill="#2b436f" opacity=".6"/>
        </g>
        <g>
          <rect x="424.49475" y="9.98639" width="197.92021" height="312.99673" rx="8" ry="8" fill="url(#Cool_gray_gradient_1-3)"/>
          <rect x="424.49475" y="9.98639" width="197.92021" height="312.99673" rx="8" ry="8" fill="#8ec8e7" opacity=".6"/>
        </g>
      </g>
      <g>
        <rect x="10.81496" y="65.91847" width="611.6" height="51.06465" fill="#fff"/>
        <rect x="10.81496" y="65.91847" width="611.6" height="51.06465" fill="#53b1e0" opacity=".1"/>
        <rect x="10.81496" y="65.91847" width="611.6" height="51.06465" fill="none" stroke="#53b1e0" stroke-width=".25"/>
      </g>
      <g>
        <path d="M223.3845,88.91131c-.04758-2.342-1.79611-4.29931-4.11794-4.60964-.14144-3.26524-2.87928-5.81143-6.14619-5.71595-2.61749-.04042-4.97332,1.58154-5.86961,4.04112-2.78164.33386-4.8994,2.65425-4.97841,5.45474.08291,3.17272,2.72211,5.67751,5.89484,5.59461.0172-.00045.0344-.00098.0516-.00158h10.40242c2.62027-.025,4.7383-2.14302,4.76329-4.76329Z" fill="url(#linear-gradient)"/>
        <path d="M217.83756,84.79337l-2.81188-2.73505c-.30731-.30731-.56852-.19975-.56852.27658v1.22924c.00019.18669-.151.3382-.33769.33839-.00524,0-.01048-.00011-.01571-.00035-1.81313,0-6.86836.47633-7.05275,7.39079,0,.19518.15823.3534.35341.3534h1.79776c.19518.00074.354-.15689.35474-.35207.00004-.0107-.00041-.0214-.00134-.03207-.49787-2.28864.95383-4.54755,3.24247-5.04543.44886-.09764.9106-.12172,1.36717-.07127.19518,0,.3534.15823.3534.35341v1.13704c0,.56852.18439.66071.56852.27658l2.75042-2.5353c.16124-.10999.20278-.32987.09279-.4911-.02487-.03645-.05634-.06792-.09279-.09278Z" fill="#fff"/>
        <path d="M217.4227,97.76182c-.06947-2.38667-1.85873-4.37113-4.2255-4.68647-.14152-3.36474-2.96446-5.98898-6.33057-5.88497-2.67921-.04805-5.09562,1.60399-6.02326,4.11794-2.85478.34098-5.03051,2.71925-5.1167,5.59303.12436,3.25629,2.86492,5.79522,6.12122,5.67086.00832-.00032.01665-.00065.02497-.00101h10.41779c.08635.01588.17487.01588.26121,0,2.65284-.03224,4.80493-2.15718,4.87085-4.80939Z" fill="url(#linear-gradient-2)"/>
      </g>
      <g>
        <rect x="10.81496" y="125.78312" width="611.6" height="51.06465" fill="#fff"/>
        <rect x="10.81496" y="125.78312" width="611.6" height="51.06465" fill="#53b1e0" opacity=".1"/>
        <rect x="10.81496" y="125.78312" width="611.6" height="51.06465" fill="none" stroke="#53b1e0" stroke-width=".25"/>
      </g>
      <g>
        <rect x="10.81496" y="184.71847" width="611.6" height="51.06465" fill="#fff"/>
        <rect x="10.81496" y="184.71847" width="611.6" height="51.06465" fill="#53b1e0" opacity=".1"/>
        <rect x="10.81496" y="184.71847" width="611.6" height="51.06465" fill="none" stroke="#53b1e0" stroke-width=".25"/>
      </g>
      <g>
        <path d="M249.7845,148.77596c-.04758-2.342-1.79611-4.29931-4.11794-4.60964-.14144-3.26524-2.87928-5.81143-6.14619-5.71595-2.61749-.04042-4.97332,1.58154-5.86961,4.04112-2.78164.33386-4.8994,2.65425-4.97841,5.45474.08291,3.17272,2.72211,5.67751,5.89484,5.59461.0172-.00045.0344-.00098.0516-.00158h10.40242c2.62027-.025,4.7383-2.14302,4.76329-4.76329Z" fill="url(#linear-gradient-3)"/>
        <path d="M244.23756,144.65802l-2.81188-2.73505c-.30731-.30731-.56852-.19975-.56852.27658v1.22924c.00019.18669-.151.3382-.33769.33839-.00524,0-.01048-.00011-.01571-.00035-1.81313,0-6.86836.47633-7.05275,7.39079,0,.19518.15823.3534.35341.3534h1.79776c.19518.00074.354-.15689.35474-.35207.00004-.0107-.00041-.0214-.00134-.03207-.49787-2.28864.95383-4.54755,3.24247-5.04543.44886-.09764.9106-.12172,1.36717-.07127.19518,0,.3534.15823.3534.35341v1.13704c0,.56852.18439.66071.56852.27658l2.75042-2.5353c.16124-.10999.20278-.32987.09279-.4911-.02487-.03645-.05634-.06792-.09279-.09278Z" fill="#fff"/>
        <path d="M243.8227,157.62647c-.06947-2.38667-1.85873-4.37113-4.2255-4.68647-.14152-3.36474-2.96446-5.98898-6.33057-5.88497-2.67921-.04805-5.09562,1.60399-6.02326,4.11794-2.85478.34098-5.03051,2.71925-5.1167,5.59303.12436,3.25629,2.86492,5.79522,6.12122,5.67086.00832-.00032.01665-.00065.02497-.00101h10.41779c.08635.01588.17487.01588.26121,0,2.65284-.03224,4.80493-2.15718,4.87085-4.80939Z" fill="url(#linear-gradient-4)"/>
      </g>
      <g>
        <path d="M206.8002,206.40902h27.35918v15.25677c0,.50663-.41071.91734-.91734.91734h-25.52451c-.50663,0-.91734-.41071-.91734-.91734v-15.25677Z" fill="url(#linear-gradient-5)"/>
        <path d="M207.71753,200.58312h25.52451c.50663,0,.91734.41071.91734.91734v4.90856h-27.35918v-4.92465c.00878-.50034.41692-.90132.91734-.90124Z" fill="#40beaf"/>
        <path d="M210.51783,208.17932h19.90783c.23368.00866.4186.20069.41843.43453v2.25311c.00016.23384-.18476.42587-.41843.43453h-19.90783c-.23368-.00866-.4186-.20069-.41843-.43453v-2.25311c-.00016-.23384.18476-.42587.41843-.43453Z" fill="#fff"/>
        <path d="M210.53392,212.66944h19.90783c.23368.00866.4186.20069.41843.43453v2.2692c.00016.23384-.18476.42587-.41843.43453h-19.90783c-.23368-.00866-.4186-.20069-.41843-.43453v-2.18874c-.04449-.23582.11062-.46306.34644-.50755.02375-.00448.04783-.00697.07199-.00745Z" fill="#40beaf"/>
        <path d="M210.53392,217.20785h19.90783c.23368.00866.4186.20069.41843.43453v2.2692c.00016.23384-.18476.42587-.41843.43453h-19.90783c-.23368-.00866-.4186-.20069-.41843-.43453v-2.2692c-.00016-.23384.18476-.42587.41843-.43453Z" fill="#258378"/>
      </g>
      <rect x="39.6" y="248.98312" width="140.8" height="57.2" fill="#fff" filter="url(#drop-shadow-2-1)"/>
      <g>
        <rect x="81.6" y="265.58312" width="25.97715" height="17.3181" rx=".8659" ry=".8659" fill="url(#linear-gradient-6)"/>
        <polygon points="98.9181 271.71662 98.9181 276.7533 94.58857 279.29328 94.58857 274.24217 98.9181 271.71662" fill="#50e6ff"/>
        <polygon points="98.9181 271.71662 94.58857 274.2566 90.25905 271.71662 94.58857 269.19106 98.9181 271.71662" fill="#c3f1ff"/>
        <polygon points="94.58857 274.2566 94.58857 279.29328 90.25905 276.7533 90.25905 271.71662 94.58857 274.2566" fill="#9cebff"/>
        <polygon points="90.25905 276.7533 94.58857 274.24217 94.58857 279.29328 90.25905 276.7533" fill="#c3f1ff"/>
        <polygon points="98.9181 276.7533 94.58857 274.24217 94.58857 279.29328 98.9181 276.7533" fill="#9cebff"/>
        <path d="M99.79844,288.13995c-2.56885-.40409-2.66987-2.25135-2.66987-5.23873h-5.09441c0,2.98737-.08659,4.83464-2.65544,5.23873-.73448.08127-1.28891.70422-1.28443,1.44317h12.98857c.00448-.73895-.54994-1.3619-1.28443-1.44317Z" fill="url(#linear-gradient-7)"/>
      </g>
      <g>
        <path d="M124.37249,271.38063l-3.62988,9.80273h-1.26465l-3.55469-9.80273h1.27832l2.71387,7.77246c.08643.25.15283.54004.19824.86816h.02734c.03662-.27344.11182-.56738.22559-.88184l2.76855-7.75879h1.2373Z" fill="#2f2f2f"/>
        <path d="M135.69915,281.18337h-1.1416v-6.57617c0-.51953.03174-1.15527.0957-1.90723h-.02734c-.10938.44141-.20752.75879-.29395.9502l-3.34961,7.5332h-.56055l-3.34277-7.47852c-.0957-.21875-.19385-.55371-.29395-1.00488h-.02734c.03662.3916.05469,1.03223.05469,1.9209v6.5625h-1.10742v-9.80273h1.51758l3.00781,6.83594c.23242.52344.38281.91602.45117,1.17578h.04102c.1958-.53809.35303-.93945.47168-1.20312l3.06934-6.80859h1.43555v9.80273Z" fill="#2f2f2f"/>
      </g>
    </g>
    <g id="Text">
      <g>
        <path d="M229.46966,97.61061v-2.1875c.39648.33252.82715.58203,1.29199.74854s.93408.24951,1.4082.24951c.27783,0,.52051-.0249.72803-.0752s.38037-.11963.51953-.2085.24268-.19385.31104-.31445.10254-.25195.10254-.39307c0-.19141-.05469-.3623-.16406-.5127s-.25879-.28955-.44775-.41699-.41357-.25049-.67334-.36914-.54004-.23926-.84082-.3623c-.76562-.31885-1.33643-.7085-1.7124-1.16895s-.56396-1.01611-.56396-1.66797c0-.51025.10254-.94922.30762-1.31592s.48438-.66895.8374-.90576.76221-.41113,1.22705-.52295.95703-.16748,1.47656-.16748c.51025,0,.96289.03076,1.35693.09229s.75781.15625,1.09033.28369v2.04395c-.16406-.11377-.34277-.21436-.53662-.30078s-.39307-.1582-.59814-.21533-.40918-.09912-.61182-.12646-.39551-.04102-.57764-.04102c-.25049,0-.47852.02393-.68359.07178s-.37842.11523-.51953.20166-.25049.19043-.32812.31104-.11621.25635-.11621.40674c0,.16406.04346.31104.12988.44092s.20947.25293.36914.36914.35303.22998.58105.3418.48535.22656.77246.34521c.39209.16406.74414.33838,1.05615.52295s.58008.39307.80322.62549.39404.49805.5127.79639.17773.646.17773,1.04248c0,.54688-.10352,1.00586-.31104,1.37744s-.48877.67236-.84424.90234-.76904.39551-1.24072.49561-.96973.15039-1.49365.15039c-.5376,0-1.04932-.04541-1.53467-.13672s-.90576-.22803-1.26123-.41016Z" fill="#2f2f2f"/>
        <path d="M238.61517,89.87917c-.36475,0-.66309-.1084-.89551-.32471s-.34863-.48193-.34863-.79639c0-.32373.11621-.58789.34863-.79297s.53076-.30762.89551-.30762c.36914,0,.66895.10254.89893.30762s.34521.46924.34521.79297c0,.32812-.11523.59717-.34521.80664s-.52979.31445-.89893.31445ZM239.68157,97.98659h-2.16016v-7h2.16016v7Z" fill="#2f2f2f"/>
        <path d="M245.6181,97.90456c-.31885.16846-.7998.25293-1.44238.25293-1.52197,0-2.2832-.79053-2.2832-2.37207v-3.20605h-1.13477v-1.59277h1.13477v-1.51074l2.15332-.61523v2.12598h1.57227v1.59277h-1.57227v2.83008c0,.729.28955,1.09375.86816,1.09375.22803,0,.4624-.06592.7041-.19824v1.59961Z" fill="#2f2f2f"/>
        <path d="M253.10442,95.10182h-4.56641c.07275,1.01611.71338,1.52441,1.9209,1.52441.77002,0,1.44678-.18213,2.03027-.54688v1.55859c-.64697.34619-1.48779.51953-2.52246.51953-1.13037,0-2.00732-.31348-2.63184-.93994s-.93652-1.50049-.93652-2.62158c0-1.16211.3374-2.08252,1.01172-2.76172s1.50391-1.01855,2.48828-1.01855c1.021,0,1.81055.30322,2.36865.90918s.8374,1.42871.8374,2.46777v.90918ZM251.10149,93.77565c0-1.00244-.40576-1.50391-1.2168-1.50391-.34619,0-.646.14355-.89893.43066s-.40674.64502-.46143,1.07324h2.57715Z" fill="#2f2f2f"/>
        <path d="M266.68743,97.98659h-2.53613l-1.52441-2.52246c-.11377-.19141-.22314-.3623-.32812-.5127s-.21094-.2793-.31787-.38623-.21875-.18896-.33496-.24609-.24268-.08545-.37939-.08545h-.59473v3.75293h-2.20801v-9.80273h3.5c2.37891,0,3.56836.88867,3.56836,2.66602,0,.3418-.05225.65723-.15723.94678s-.25293.55029-.44434.78271-.42285.43311-.69385.60156-.57324.30078-.90576.39648v.02734c.146.04541.28711.11963.42383.22217s.26904.22217.39648.35889.24951.28369.36572.44092.22217.31104.31787.46143l1.85254,2.89844ZM260.67181,89.83815v2.72754h.95703c.47412,0,.85449-.13672,1.1416-.41016.2915-.27783.4375-.62207.4375-1.03223,0-.85693-.5127-1.28516-1.53809-1.28516h-.99805Z" fill="#2f2f2f"/>
        <path d="M273.50579,95.10182h-4.56641c.07275,1.01611.71338,1.52441,1.9209,1.52441.77002,0,1.44678-.18213,2.03027-.54688v1.55859c-.64697.34619-1.48779.51953-2.52246.51953-1.13037,0-2.00732-.31348-2.63184-.93994s-.93652-1.50049-.93652-2.62158c0-1.16211.3374-2.08252,1.01172-2.76172s1.50391-1.01855,2.48828-1.01855c1.021,0,1.81055.30322,2.36865.90918s.8374,1.42871.8374,2.46777v.90918ZM271.50286,93.77565c0-1.00244-.40576-1.50391-1.2168-1.50391-.34619,0-.646.14355-.89893.43066s-.40674.64502-.46143,1.07324h2.57715Z" fill="#2f2f2f"/>
        <path d="M280.17669,97.73366c-.48779.28271-1.19189.42383-2.1123.42383-1.07568,0-1.9458-.32568-2.61133-.97754s-.99805-1.49268-.99805-2.52246c0-1.18945.35645-2.12695,1.06982-2.81299s1.66699-1.02881,2.86084-1.02881c.82471,0,1.42188.10938,1.79102.32812v1.83203c-.45117-.3374-.95459-.50586-1.51074-.50586-.61963,0-1.11084.18115-1.47314.54346s-.54346.8623-.54346,1.50049c0,.61963.17334,1.10645.51953,1.45947s.82275.52979,1.42871.52979c.5376,0,1.06396-.16846,1.5791-.50586v1.73633Z" fill="#2f2f2f"/>
        <path d="M284.90667,98.15749c-1.1665,0-2.08398-.32715-2.75146-.98096s-1.00146-1.5415-1.00146-2.6626c0-1.15771.34619-2.06348,1.03906-2.71729s1.62939-.98096,2.80957-.98096c1.16211,0,2.07373.32715,2.73438.98096s.99121,1.51855.99121,2.59424c0,1.16211-.34082,2.08057-1.02197,2.75488s-1.61426,1.01172-2.79932,1.01172ZM284.96136,92.46999c-.51025,0-.90674.17529-1.18945.52637s-.42383.84766-.42383,1.49023c0,1.34424.54248,2.0166,1.62695,2.0166,1.03467,0,1.55176-.69043,1.55176-2.07129,0-1.30811-.52197-1.96191-1.56543-1.96191Z" fill="#2f2f2f"/>
        <path d="M296.59563,90.98659l-2.60449,7h-2.46094l-2.48145-7h2.31055l1.2168,4.31348c.13672.48779.21631.90234.23926,1.24414h.02734c.03174-.32373.11621-.72461.25293-1.20312l1.24414-4.35449h2.25586Z" fill="#2f2f2f"/>
        <path d="M303.58343,95.10182h-4.56641c.07275,1.01611.71338,1.52441,1.9209,1.52441.77002,0,1.44678-.18213,2.03027-.54688v1.55859c-.64697.34619-1.48779.51953-2.52246.51953-1.13037,0-2.00732-.31348-2.63184-.93994s-.93652-1.50049-.93652-2.62158c0-1.16211.3374-2.08252,1.01172-2.76172s1.50391-1.01855,2.48828-1.01855c1.021,0,1.81055.30322,2.36865.90918s.8374,1.42871.8374,2.46777v.90918ZM301.5805,93.77565c0-1.00244-.40576-1.50391-1.2168-1.50391-.34619,0-.646.14355-.89893.43066s-.40674.64502-.46143,1.07324h2.57715Z" fill="#2f2f2f"/>
        <path d="M309.51458,92.93483c-.25977-.14111-.56299-.21191-.90918-.21191-.46924,0-.83643.17188-1.10059.51611s-.39648.8125-.39648,1.40479v3.34277h-2.16016v-7h2.16016v1.29883h.02734c.3418-.94775.95703-1.42188,1.8457-1.42188.22803,0,.40576.02734.5332.08203v1.98926Z" fill="#2f2f2f"/>
        <path d="M317.63421,90.98659l-2.84375,7.56055c-.68359,1.81836-1.71338,2.72754-3.08984,2.72754-.52393,0-.95459-.05908-1.29199-.17773v-1.72266c.28711.16846.59912.25293.93652.25293.55615,0,.94336-.26221,1.16211-.78613l.36914-.86816-2.84375-6.98633h2.39258l1.30566,4.25879c.08203.26416.146.57666.19141.93652h.02734c.04102-.26416.11621-.57178.22559-.92285l1.31934-4.27246h2.13965Z" fill="#2f2f2f"/>
        <path d="M327.66936,97.73366c-.48779.28271-1.19189.42383-2.1123.42383-1.07568,0-1.9458-.32568-2.61133-.97754s-.99805-1.49268-.99805-2.52246c0-1.18945.35645-2.12695,1.06982-2.81299s1.66699-1.02881,2.86084-1.02881c.82471,0,1.42188.10938,1.79102.32812v1.83203c-.45117-.3374-.95459-.50586-1.51074-.50586-.61963,0-1.11084.18115-1.47314.54346s-.54346.8623-.54346,1.50049c0,.61963.17334,1.10645.51953,1.45947s.82275.52979,1.42871.52979c.5376,0,1.06396-.16846,1.5791-.50586v1.73633Z" fill="#2f2f2f"/>
        <path d="M332.39935,98.15749c-1.1665,0-2.08398-.32715-2.75146-.98096s-1.00146-1.5415-1.00146-2.6626c0-1.15771.34619-2.06348,1.03906-2.71729s1.62939-.98096,2.80957-.98096c1.16211,0,2.07373.32715,2.73438.98096s.99121,1.51855.99121,2.59424c0,1.16211-.34082,2.08057-1.02197,2.75488s-1.61426,1.01172-2.79932,1.01172ZM332.45403,92.46999c-.51025,0-.90674.17529-1.18945.52637s-.42383.84766-.42383,1.49023c0,1.34424.54248,2.0166,1.62695,2.0166,1.03467,0,1.55176-.69043,1.55176-2.07129,0-1.30811-.52197-1.96191-1.56543-1.96191Z" fill="#2f2f2f"/>
        <path d="M342.16741,92.93483c-.25977-.14111-.56299-.21191-.90918-.21191-.46924,0-.83643.17188-1.10059.51611s-.39648.8125-.39648,1.40479v3.34277h-2.16016v-7h2.16016v1.29883h.02734c.3418-.94775.95703-1.42188,1.8457-1.42188.22803,0,.40576.02734.5332.08203v1.98926Z" fill="#2f2f2f"/>
        <path d="M349.53948,95.10182h-4.56641c.07275,1.01611.71338,1.52441,1.9209,1.52441.77002,0,1.44678-.18213,2.03027-.54688v1.55859c-.64697.34619-1.48779.51953-2.52246.51953-1.13037,0-2.00732-.31348-2.63184-.93994s-.93652-1.50049-.93652-2.62158c0-1.16211.3374-2.08252,1.01172-2.76172s1.50391-1.01855,2.48828-1.01855c1.021,0,1.81055.30322,2.36865.90918s.8374,1.42871.8374,2.46777v.90918ZM347.53655,93.77565c0-1.00244-.40576-1.50391-1.2168-1.50391-.34619,0-.646.14355-.89893.43066s-.40674.64502-.46143,1.07324h2.57715Z" fill="#2f2f2f"/>
        <path d="M359.99163,97.73366c-.48779.28271-1.19189.42383-2.1123.42383-1.07568,0-1.9458-.32568-2.61133-.97754s-.99805-1.49268-.99805-2.52246c0-1.18945.35645-2.12695,1.06982-2.81299s1.66699-1.02881,2.86084-1.02881c.82471,0,1.42188.10938,1.79102.32812v1.83203c-.45117-.3374-.95459-.50586-1.51074-.50586-.61963,0-1.11084.18115-1.47314.54346s-.54346.8623-.54346,1.50049c0,.61963.17334,1.10645.51953,1.45947s.82275.52979,1.42871.52979c.5376,0,1.06396-.16846,1.5791-.50586v1.73633Z" fill="#2f2f2f"/>
        <path d="M364.72161,98.15749c-1.1665,0-2.08398-.32715-2.75146-.98096s-1.00146-1.5415-1.00146-2.6626c0-1.15771.34619-2.06348,1.03906-2.71729s1.62939-.98096,2.80957-.98096c1.16211,0,2.07373.32715,2.73438.98096s.99121,1.51855.99121,2.59424c0,1.16211-.34082,2.08057-1.02197,2.75488s-1.61426,1.01172-2.79932,1.01172ZM364.7763,92.46999c-.51025,0-.90674.17529-1.18945.52637s-.42383.84766-.42383,1.49023c0,1.34424.54248,2.0166,1.62695,2.0166,1.03467,0,1.55176-.69043,1.55176-2.07129,0-1.30811-.52197-1.96191-1.56543-1.96191Z" fill="#2f2f2f"/>
        <path d="M381.03851,97.98659h-2.15332v-3.99219c0-1.01611-.37354-1.52441-1.12109-1.52441-.35547,0-.64502.15283-.86816.45801s-.33496.68604-.33496,1.1416v3.91699h-2.16016v-4.0332c0-.98877-.3667-1.4834-1.10059-1.4834-.36914,0-.66406.146-.88525.4375s-.33154.68799-.33154,1.18945v3.88965h-2.16016v-7h2.16016v1.09375h.02734c.22314-.37354.53662-.67773.93994-.9126s.84424-.35205,1.32275-.35205c.98877,0,1.66553.43506,2.03027,1.30566.5332-.87061,1.31689-1.30566,2.35156-1.30566,1.52197,0,2.2832.93896,2.2832,2.81641v4.35449Z" fill="#2f2f2f"/>
        <path d="M384.92229,97.17311h-.02734v4.0332h-2.16016v-10.21973h2.16016v1.05273h.02734c.5332-.81592,1.28271-1.22363,2.24902-1.22363.90674,0,1.60742.31104,2.10205.93311s.7417,1.46875.7417,2.53955c0,1.1665-.28809,2.10303-.86475,2.80957s-1.34326,1.05957-2.30029,1.05957c-.84326,0-1.48584-.32812-1.92773-.98438ZM384.86077,94.30202v.56055c0,.48291.12744.87744.38281,1.18262s.59033.45801,1.00488.45801c.49219,0,.87402-.19043,1.14502-.5708s.40674-.91943.40674-1.6167c0-1.23047-.47852-1.8457-1.43555-1.8457-.44189,0-.80322.16748-1.0835.50244s-.42041.77832-.42041,1.32959Z" fill="#2f2f2f"/>
        <path d="M394.79876,98.15749c-1.1665,0-2.08398-.32715-2.75146-.98096s-1.00146-1.5415-1.00146-2.6626c0-1.15771.34619-2.06348,1.03906-2.71729s1.62939-.98096,2.80957-.98096c1.16211,0,2.07373.32715,2.73438.98096s.99121,1.51855.99121,2.59424c0,1.16211-.34082,2.08057-1.02197,2.75488s-1.61426,1.01172-2.79932,1.01172ZM394.85345,92.46999c-.51025,0-.90674.17529-1.18945.52637s-.42383.84766-.42383,1.49023c0,1.34424.54248,2.0166,1.62695,2.0166,1.03467,0,1.55176-.69043,1.55176-2.07129,0-1.30811-.52197-1.96191-1.56543-1.96191Z" fill="#2f2f2f"/>
        <path d="M406.76116,97.98659h-2.15332v-3.88965c0-1.08447-.38721-1.62695-1.16211-1.62695-.37354,0-.68115.14355-.92285.43066s-.3623.65186-.3623,1.09375v3.99219h-2.16016v-7h2.16016v1.10742h.02734c.51514-.85205,1.26465-1.27832,2.24902-1.27832,1.54932,0,2.32422.96143,2.32422,2.88477v4.28613Z" fill="#2f2f2f"/>
        <path d="M414.78313,95.10182h-4.56641c.07275,1.01611.71338,1.52441,1.9209,1.52441.77002,0,1.44678-.18213,2.03027-.54688v1.55859c-.64697.34619-1.48779.51953-2.52246.51953-1.13037,0-2.00732-.31348-2.63184-.93994s-.93652-1.50049-.93652-2.62158c0-1.16211.3374-2.08252,1.01172-2.76172s1.50391-1.01855,2.48828-1.01855c1.021,0,1.81055.30322,2.36865.90918s.8374,1.42871.8374,2.46777v.90918ZM412.7802,93.77565c0-1.00244-.40576-1.50391-1.2168-1.50391-.34619,0-.646.14355-.89893.43066s-.40674.64502-.46143,1.07324h2.57715Z" fill="#2f2f2f"/>
        <path d="M422.90862,97.98659h-2.15332v-3.88965c0-1.08447-.38721-1.62695-1.16211-1.62695-.37354,0-.68115.14355-.92285.43066s-.3623.65186-.3623,1.09375v3.99219h-2.16016v-7h2.16016v1.10742h.02734c.51514-.85205,1.26465-1.27832,2.24902-1.27832,1.54932,0,2.32422.96143,2.32422,2.88477v4.28613Z" fill="#2f2f2f"/>
        <path d="M428.75823,97.90456c-.31885.16846-.7998.25293-1.44238.25293-1.52197,0-2.2832-.79053-2.2832-2.37207v-3.20605h-1.13477v-1.59277h1.13477v-1.51074l2.15332-.61523v2.12598h1.57227v1.59277h-1.57227v2.83008c0,.729.28955,1.09375.86816,1.09375.22803,0,.4624-.06592.7041-.19824v1.59961Z" fill="#2f2f2f"/>
        <path d="M429.73968,97.80202v-1.75c.35547.21436.70996.37354,1.06299.47852s.68701.15723,1.00146.15723c.38281,0,.68457-.05225.90576-.15723s.33154-.26416.33154-.47852c0-.13672-.05029-.25049-.15039-.3418s-.229-.1709-.38623-.23926-.3291-.12988-.51611-.18457-.3667-.11621-.54004-.18457c-.27783-.10498-.52295-.21777-.73486-.33838s-.38965-.26074-.5332-.42041-.25293-.34424-.32812-.55371-.11279-.45801-.11279-.74512c0-.39209.08545-.729.25635-1.01172s.39893-.51367.68359-.69385.61084-.31201.97754-.39648.74854-.12646,1.14502-.12646c.31006,0,.62451.02393.94336.07178s.6333.11719.94336.2085v1.66797c-.27344-.15967-.56641-.2793-.87842-.35889s-.61865-.11963-.91943-.11963c-.14111,0-.27441.0127-.3999.0376s-.23584.06152-.33154.10938-.1709.10938-.22559.18457-.08203.16064-.08203.25635c0,.12744.04102.23682.12305.32812s.18896.16992.32129.23584.2793.12549.44092.17773.32227.10596.48193.16064c.28711.1001.54688.20947.7793.32812s.43164.25732.59814.41699.29395.34619.38281.56055.1333.46924.1333.76562c0,.41455-.08984.76904-.27002,1.06299s-.41943.5332-.71777.71777-.64258.31885-1.03223.40332-.79395.12646-1.21338.12646c-.77002,0-1.4834-.11865-2.13965-.35547Z" fill="#2f2f2f"/>
      </g>
      <g>
        <path d="M264.54436,157.85085h-2.53613l-1.52441-2.52246c-.11377-.19141-.22314-.3623-.32812-.5127s-.21094-.2793-.31787-.38623-.21875-.18896-.33496-.24609-.24268-.08545-.37939-.08545h-.59473v3.75293h-2.20801v-9.80273h3.5c2.37891,0,3.56836.88867,3.56836,2.66602,0,.3418-.05225.65723-.15723.94678s-.25293.55029-.44434.78271-.42285.43311-.69385.60156-.57324.30078-.90576.39648v.02734c.146.04541.28711.11963.42383.22217s.26904.22217.39648.35889.24951.28369.36572.44092.22217.31104.31787.46143l1.85254,2.89844ZM258.52874,149.70241v2.72754h.95703c.47412,0,.85449-.13672,1.1416-.41016.2915-.27783.4375-.62207.4375-1.03223,0-.85693-.5127-1.28516-1.53809-1.28516h-.99805Z" fill="#2f2f2f"/>
        <path d="M271.36272,154.96608h-4.56641c.07275,1.01611.71338,1.52441,1.9209,1.52441.77002,0,1.44678-.18213,2.03027-.54688v1.55859c-.64697.34619-1.48779.51953-2.52246.51953-1.13037,0-2.00732-.31348-2.63184-.93994s-.93652-1.50049-.93652-2.62158c0-1.16211.3374-2.08252,1.01172-2.76172s1.50391-1.01855,2.48828-1.01855c1.021,0,1.81055.30322,2.36865.90918s.8374,1.42871.8374,2.46777v.90918ZM269.35979,153.63991c0-1.00244-.40576-1.50391-1.2168-1.50391-.34619,0-.646.14355-.89893.43066s-.40674.64502-.46143,1.07324h2.57715Z" fill="#2f2f2f"/>
        <path d="M278.03362,157.59792c-.48779.28271-1.19189.42383-2.1123.42383-1.07568,0-1.9458-.32568-2.61133-.97754s-.99805-1.49268-.99805-2.52246c0-1.18945.35645-2.12695,1.06982-2.81299s1.66699-1.02881,2.86084-1.02881c.82471,0,1.42188.10938,1.79102.32812v1.83203c-.45117-.3374-.95459-.50586-1.51074-.50586-.61963,0-1.11084.18115-1.47314.54346s-.54346.8623-.54346,1.50049c0,.61963.17334,1.10645.51953,1.45947s.82275.52979,1.42871.52979c.5376,0,1.06396-.16846,1.5791-.50586v1.73633Z" fill="#2f2f2f"/>
        <path d="M282.7636,158.02175c-1.1665,0-2.08398-.32715-2.75146-.98096s-1.00146-1.5415-1.00146-2.6626c0-1.15771.34619-2.06348,1.03906-2.71729s1.62939-.98096,2.80957-.98096c1.16211,0,2.07373.32715,2.73438.98096s.99121,1.51855.99121,2.59424c0,1.16211-.34082,2.08057-1.02197,2.75488s-1.61426,1.01172-2.79932,1.01172ZM282.81829,152.33425c-.51025,0-.90674.17529-1.18945.52637s-.42383.84766-.42383,1.49023c0,1.34424.54248,2.0166,1.62695,2.0166,1.03467,0,1.55176-.69043,1.55176-2.07129,0-1.30811-.52197-1.96191-1.56543-1.96191Z" fill="#2f2f2f"/>
        <path d="M294.45257,150.85085l-2.60449,7h-2.46094l-2.48145-7h2.31055l1.2168,4.31348c.13672.48779.21631.90234.23926,1.24414h.02734c.03174-.32373.11621-.72461.25293-1.20312l1.24414-4.35449h2.25586Z" fill="#2f2f2f"/>
        <path d="M301.44036,154.96608h-4.56641c.07275,1.01611.71338,1.52441,1.9209,1.52441.77002,0,1.44678-.18213,2.03027-.54688v1.55859c-.64697.34619-1.48779.51953-2.52246.51953-1.13037,0-2.00732-.31348-2.63184-.93994s-.93652-1.50049-.93652-2.62158c0-1.16211.3374-2.08252,1.01172-2.76172s1.50391-1.01855,2.48828-1.01855c1.021,0,1.81055.30322,2.36865.90918s.8374,1.42871.8374,2.46777v.90918ZM299.43743,153.63991c0-1.00244-.40576-1.50391-1.2168-1.50391-.34619,0-.646.14355-.89893.43066s-.40674.64502-.46143,1.07324h2.57715Z" fill="#2f2f2f"/>
        <path d="M307.37151,152.79909c-.25977-.14111-.56299-.21191-.90918-.21191-.46924,0-.83643.17188-1.10059.51611s-.39648.8125-.39648,1.40479v3.34277h-2.16016v-7h2.16016v1.29883h.02734c.3418-.94775.95703-1.42188,1.8457-1.42188.22803,0,.40576.02734.5332.08203v1.98926Z" fill="#2f2f2f"/>
        <path d="M315.49114,150.85085l-2.84375,7.56055c-.68359,1.81836-1.71338,2.72754-3.08984,2.72754-.52393,0-.95459-.05908-1.29199-.17773v-1.72266c.28711.16846.59912.25293.93652.25293.55615,0,.94336-.26221,1.16211-.78613l.36914-.86816-2.84375-6.98633h2.39258l1.30566,4.25879c.08203.26416.146.57666.19141.93652h.02734c.04102-.26416.11621-.57178.22559-.92285l1.31934-4.27246h2.13965Z" fill="#2f2f2f"/>
        <path d="M319.98235,157.47487v-2.1875c.39648.33252.82715.58203,1.29199.74854s.93408.24951,1.4082.24951c.27783,0,.52051-.0249.72803-.0752s.38037-.11963.51953-.2085.24268-.19385.31104-.31445.10254-.25195.10254-.39307c0-.19141-.05469-.3623-.16406-.5127s-.25879-.28955-.44775-.41699-.41357-.25049-.67334-.36914-.54004-.23926-.84082-.3623c-.76562-.31885-1.33643-.7085-1.7124-1.16895s-.56396-1.01611-.56396-1.66797c0-.51025.10254-.94922.30762-1.31592s.48438-.66895.8374-.90576.76221-.41113,1.22705-.52295.95703-.16748,1.47656-.16748c.51025,0,.96289.03076,1.35693.09229s.75781.15625,1.09033.28369v2.04395c-.16406-.11377-.34277-.21436-.53662-.30078s-.39307-.1582-.59814-.21533-.40918-.09912-.61182-.12646-.39551-.04102-.57764-.04102c-.25049,0-.47852.02393-.68359.07178s-.37842.11523-.51953.20166-.25049.19043-.32812.31104-.11621.25635-.11621.40674c0,.16406.04346.31104.12988.44092s.20947.25293.36914.36914.35303.22998.58105.3418.48535.22656.77246.34521c.39209.16406.74414.33838,1.05615.52295s.58008.39307.80322.62549.39404.49805.5127.79639.17773.646.17773,1.04248c0,.54688-.10352,1.00586-.31104,1.37744s-.48877.67236-.84424.90234-.76904.39551-1.24072.49561-.96973.15039-1.49365.15039c-.5376,0-1.04932-.04541-1.53467-.13672s-.90576-.22803-1.26123-.41016Z" fill="#2f2f2f"/>
        <path d="M334.35833,154.96608h-4.56641c.07275,1.01611.71338,1.52441,1.9209,1.52441.77002,0,1.44678-.18213,2.03027-.54688v1.55859c-.64697.34619-1.48779.51953-2.52246.51953-1.13037,0-2.00732-.31348-2.63184-.93994s-.93652-1.50049-.93652-2.62158c0-1.16211.3374-2.08252,1.01172-2.76172s1.50391-1.01855,2.48828-1.01855c1.021,0,1.81055.30322,2.36865.90918s.8374,1.42871.8374,2.46777v.90918ZM332.3554,153.63991c0-1.00244-.40576-1.50391-1.2168-1.50391-.34619,0-.646.14355-.89893.43066s-.40674.64502-.46143,1.07324h2.57715Z" fill="#2f2f2f"/>
        <path d="M340.28948,152.79909c-.25977-.14111-.56299-.21191-.90918-.21191-.46924,0-.83643.17188-1.10059.51611s-.39648.8125-.39648,1.40479v3.34277h-2.16016v-7h2.16016v1.29883h.02734c.3418-.94775.95703-1.42188,1.8457-1.42188.22803,0,.40576.02734.5332.08203v1.98926Z" fill="#2f2f2f"/>
        <path d="M348.38811,150.85085l-2.60449,7h-2.46094l-2.48145-7h2.31055l1.2168,4.31348c.13672.48779.21631.90234.23926,1.24414h.02734c.03174-.32373.11621-.72461.25293-1.20312l1.24414-4.35449h2.25586Z" fill="#2f2f2f"/>
        <path d="M350.43401,149.74343c-.36475,0-.66309-.1084-.89551-.32471s-.34863-.48193-.34863-.79639c0-.32373.11621-.58789.34863-.79297s.53076-.30762.89551-.30762c.36914,0,.66895.10254.89893.30762s.34521.46924.34521.79297c0,.32812-.11523.59717-.34521.80664s-.52979.31445-.89893.31445ZM351.50042,157.85085h-2.16016v-7h2.16016v7Z" fill="#2f2f2f"/>
        <path d="M358.58001,157.59792c-.48779.28271-1.19189.42383-2.1123.42383-1.07568,0-1.9458-.32568-2.61133-.97754s-.99805-1.49268-.99805-2.52246c0-1.18945.35645-2.12695,1.06982-2.81299s1.66699-1.02881,2.86084-1.02881c.82471,0,1.42188.10938,1.79102.32812v1.83203c-.45117-.3374-.95459-.50586-1.51074-.50586-.61963,0-1.11084.18115-1.47314.54346s-.54346.8623-.54346,1.50049c0,.61963.17334,1.10645.51953,1.45947s.82275.52979,1.42871.52979c.5376,0,1.06396-.16846,1.5791-.50586v1.73633Z" fill="#2f2f2f"/>
        <path d="M366.29534,154.96608h-4.56641c.07275,1.01611.71338,1.52441,1.9209,1.52441.77002,0,1.44678-.18213,2.03027-.54688v1.55859c-.64697.34619-1.48779.51953-2.52246.51953-1.13037,0-2.00732-.31348-2.63184-.93994s-.93652-1.50049-.93652-2.62158c0-1.16211.3374-2.08252,1.01172-2.76172s1.50391-1.01855,2.48828-1.01855c1.021,0,1.81055.30322,2.36865.90918s.8374,1.42871.8374,2.46777v.90918ZM364.29241,153.63991c0-1.00244-.40576-1.50391-1.2168-1.50391-.34619,0-.646.14355-.89893.43066s-.40674.64502-.46143,1.07324h2.57715Z" fill="#2f2f2f"/>
        <path d="M367.28362,157.66628v-1.75c.35547.21436.70996.37354,1.06299.47852s.68701.15723,1.00146.15723c.38281,0,.68457-.05225.90576-.15723s.33154-.26416.33154-.47852c0-.13672-.05029-.25049-.15039-.3418s-.229-.1709-.38623-.23926-.3291-.12988-.51611-.18457-.3667-.11621-.54004-.18457c-.27783-.10498-.52295-.21777-.73486-.33838s-.38965-.26074-.5332-.42041-.25293-.34424-.32812-.55371-.11279-.45801-.11279-.74512c0-.39209.08545-.729.25635-1.01172s.39893-.51367.68359-.69385.61084-.31201.97754-.39648.74854-.12646,1.14502-.12646c.31006,0,.62451.02393.94336.07178s.6333.11719.94336.2085v1.66797c-.27344-.15967-.56641-.2793-.87842-.35889s-.61865-.11963-.91943-.11963c-.14111,0-.27441.0127-.3999.0376s-.23584.06152-.33154.10938-.1709.10938-.22559.18457-.08203.16064-.08203.25635c0,.12744.04102.23682.12305.32812s.18896.16992.32129.23584.2793.12549.44092.17773.32227.10596.48193.16064c.28711.1001.54688.20947.7793.32812s.43164.25732.59814.41699.29395.34619.38281.56055.1333.46924.1333.76562c0,.41455-.08984.76904-.27002,1.06299s-.41943.5332-.71777.71777-.64258.31885-1.03223.40332-.79395.12646-1.21338.12646c-.77002,0-1.4834-.11865-2.13965-.35547Z" fill="#2f2f2f"/>
        <path d="M384.42815,150.85085l-2.60449,7h-2.46094l-2.48145-7h2.31055l1.2168,4.31348c.13672.48779.21631.90234.23926,1.24414h.02734c.03174-.32373.11621-.72461.25293-1.20312l1.24414-4.35449h2.25586Z" fill="#2f2f2f"/>
        <path d="M391.08392,157.85085h-2.04395v-1.00488h-.02734c-.46924.78369-1.16455,1.17578-2.08496,1.17578-.6792,0-1.21338-.19238-1.60303-.57764s-.58447-.89893-.58447-1.5415c0-1.35791.8042-2.14209,2.41309-2.35156l1.90039-.25293c0-.76562-.41455-1.14844-1.24414-1.14844-.83398,0-1.62695.24854-2.37891.74512v-1.62695c.30078-.15479.71191-.2915,1.23389-.41016s.99707-.17773,1.42529-.17773c1.99609,0,2.99414.99561,2.99414,2.9873v4.18359ZM389.05364,155.0071v-.47168l-1.27148.16406c-.70166.09131-1.05273.40771-1.05273.9502,0,.24609.08545.44775.25635.60498s.40234.23584.69385.23584c.40576,0,.73584-.14014.99121-.42041s.38281-.63477.38281-1.06299Z" fill="#2f2f2f"/>
        <path d="M399.43597,157.85085h-2.15332v-1.06641h-.03418c-.5332.82471-1.24658,1.2373-2.13965,1.2373-1.62256,0-2.43359-.98193-2.43359-2.94629v-4.22461h2.15332v4.0332c0,.98877.39209,1.4834,1.17578,1.4834.38721,0,.69727-.13574.92969-.40674s.34863-.63916.34863-1.104v-4.00586h2.15332v7Z" fill="#2f2f2f"/>
        <path d="M403.36419,157.85085h-2.16016v-10.36328h2.16016v10.36328Z" fill="#2f2f2f"/>
        <path d="M409.35491,157.76882c-.31885.16846-.7998.25293-1.44238.25293-1.52197,0-2.2832-.79053-2.2832-2.37207v-3.20605h-1.13477v-1.59277h1.13477v-1.51074l2.15332-.61523v2.12598h1.57227v1.59277h-1.57227v2.83008c0,.729.28955,1.09375.86816,1.09375.22803,0,.4624-.06592.7041-.19824v1.59961Z" fill="#2f2f2f"/>
      </g>
      <g>
        <path d="M250.14837,216.43776c-.71533.34619-1.6499.51953-2.80273.51953-1.50391,0-2.68652-.44189-3.54785-1.32617s-1.29199-2.06201-1.29199-3.53418c0-1.56787.48438-2.83936,1.45264-3.81445s2.2251-1.46289,3.77002-1.46289c.95703,0,1.76367.12061,2.41992.3623v2.12598c-.65625-.39209-1.40381-.58789-2.24219-.58789-.92041,0-1.66357.28955-2.22852.86816s-.84766,1.36279-.84766,2.35156c0,.94775.2666,1.70312.7998,2.26611s1.25098.84424,2.15332.84424c.86133,0,1.6499-.20947,2.36523-.62891v2.0166Z" fill="#2f2f2f"/>
        <path d="M257.47649,216.78639h-2.04395v-1.00488h-.02734c-.46924.78369-1.16455,1.17578-2.08496,1.17578-.6792,0-1.21338-.19238-1.60303-.57764s-.58447-.89893-.58447-1.5415c0-1.35791.8042-2.14209,2.41309-2.35156l1.90039-.25293c0-.76562-.41455-1.14844-1.24414-1.14844-.83398,0-1.62695.24854-2.37891.74512v-1.62695c.30078-.15479.71191-.2915,1.23389-.41016s.99707-.17773,1.42529-.17773c1.99609,0,2.99414.99561,2.99414,2.9873v4.18359ZM255.44622,213.94264v-.47168l-1.27148.16406c-.70166.09131-1.05273.40771-1.05273.9502,0,.24609.08545.44775.25635.60498s.40234.23584.69385.23584c.40576,0,.73584-.14014.99121-.42041s.38281-.63477.38281-1.06299Z" fill="#2f2f2f"/>
        <path d="M264.49017,216.53347c-.48779.28271-1.19189.42383-2.1123.42383-1.07568,0-1.9458-.32568-2.61133-.97754s-.99805-1.49268-.99805-2.52246c0-1.18945.35645-2.12695,1.06982-2.81299s1.66699-1.02881,2.86084-1.02881c.82471,0,1.42188.10938,1.79102.32812v1.83203c-.45117-.3374-.95459-.50586-1.51074-.50586-.61963,0-1.11084.18115-1.47314.54346s-.54346.8623-.54346,1.50049c0,.61963.17334,1.10645.51953,1.45947s.82275.52979,1.42871.52979c.5376,0,1.06396-.16846,1.5791-.50586v1.73633Z" fill="#2f2f2f"/>
        <path d="M272.72747,216.78639h-2.15332v-3.97852c0-1.02539-.37354-1.53809-1.12109-1.53809-.38281,0-.69287.14355-.92969.43066s-.35547.65186-.35547,1.09375v3.99219h-2.16016v-10.36328h2.16016v4.40234h.02734c.52881-.80664,1.24658-1.20996,2.15332-1.20996,1.58594,0,2.37891.95703,2.37891,2.87109v4.2998Z" fill="#2f2f2f"/>
        <path d="M280.74798,213.90163h-4.56641c.07275,1.01611.71338,1.52441,1.9209,1.52441.77002,0,1.44678-.18213,2.03027-.54688v1.55859c-.64697.34619-1.48779.51953-2.52246.51953-1.13037,0-2.00732-.31348-2.63184-.93994s-.93652-1.50049-.93652-2.62158c0-1.16211.3374-2.08252,1.01172-2.76172s1.50391-1.01855,2.48828-1.01855c1.021,0,1.81055.30322,2.36865.90918s.8374,1.42871.8374,2.46777v.90918ZM278.74505,212.57546c0-1.00244-.40576-1.50391-1.2168-1.50391-.34619,0-.646.14355-.89893.43066s-.40674.64502-.46143,1.07324h2.57715Z" fill="#2f2f2f"/>
        <path d="M285.43743,216.60182v-1.75c.35547.21436.70996.37354,1.06299.47852s.68701.15723,1.00146.15723c.38281,0,.68457-.05225.90576-.15723s.33154-.26416.33154-.47852c0-.13672-.05029-.25049-.15039-.3418s-.229-.1709-.38623-.23926-.3291-.12988-.51611-.18457-.3667-.11621-.54004-.18457c-.27783-.10498-.52295-.21777-.73486-.33838s-.38965-.26074-.5332-.42041-.25293-.34424-.32812-.55371-.11279-.45801-.11279-.74512c0-.39209.08545-.729.25635-1.01172s.39893-.51367.68359-.69385.61084-.31201.97754-.39648.74854-.12646,1.14502-.12646c.31006,0,.62451.02393.94336.07178s.6333.11719.94336.2085v1.66797c-.27344-.15967-.56641-.2793-.87842-.35889s-.61865-.11963-.91943-.11963c-.14111,0-.27441.0127-.3999.0376s-.23584.06152-.33154.10938-.1709.10938-.22559.18457-.08203.16064-.08203.25635c0,.12744.04102.23682.12305.32812s.18896.16992.32129.23584.2793.12549.44092.17773.32227.10596.48193.16064c.28711.1001.54688.20947.7793.32812s.43164.25732.59814.41699.29395.34619.38281.56055.1333.46924.1333.76562c0,.41455-.08984.76904-.27002,1.06299s-.41943.5332-.71777.71777-.64258.31885-1.03223.40332-.79395.12646-1.21338.12646c-.77002,0-1.4834-.11865-2.13965-.35547Z" fill="#2f2f2f"/>
        <path d="M296.24407,216.70436c-.31885.16846-.7998.25293-1.44238.25293-1.52197,0-2.2832-.79053-2.2832-2.37207v-3.20605h-1.13477v-1.59277h1.13477v-1.51074l2.15332-.61523v2.12598h1.57227v1.59277h-1.57227v2.83008c0,.729.28955,1.09375.86816,1.09375.22803,0,.4624-.06592.7041-.19824v1.59961Z" fill="#2f2f2f"/>
        <path d="M300.77679,216.95729c-1.1665,0-2.08398-.32715-2.75146-.98096s-1.00146-1.5415-1.00146-2.6626c0-1.15771.34619-2.06348,1.03906-2.71729s1.62939-.98096,2.80957-.98096c1.16211,0,2.07373.32715,2.73438.98096s.99121,1.51855.99121,2.59424c0,1.16211-.34082,2.08057-1.02197,2.75488s-1.61426,1.01172-2.79932,1.01172ZM300.83147,211.26979c-.51025,0-.90674.17529-1.18945.52637s-.42383.84766-.42383,1.49023c0,1.34424.54248,2.0166,1.62695,2.0166,1.03467,0,1.55176-.69043,1.55176-2.07129,0-1.30811-.52197-1.96191-1.56543-1.96191Z" fill="#2f2f2f"/>
        <path d="M310.54632,211.73464c-.25977-.14111-.56299-.21191-.90918-.21191-.46924,0-.83643.17188-1.10059.51611s-.39648.8125-.39648,1.40479v3.34277h-2.16016v-7h2.16016v1.29883h.02734c.3418-.94775.95703-1.42188,1.8457-1.42188.22803,0,.40576.02734.5332.08203v1.98926Z" fill="#2f2f2f"/>
        <path d="M317.27044,216.78639h-2.04395v-1.00488h-.02734c-.46924.78369-1.16455,1.17578-2.08496,1.17578-.6792,0-1.21338-.19238-1.60303-.57764s-.58447-.89893-.58447-1.5415c0-1.35791.8042-2.14209,2.41309-2.35156l1.90039-.25293c0-.76562-.41455-1.14844-1.24414-1.14844-.83398,0-1.62695.24854-2.37891.74512v-1.62695c.30078-.15479.71191-.2915,1.23389-.41016s.99707-.17773,1.42529-.17773c1.99609,0,2.99414.99561,2.99414,2.9873v4.18359ZM315.24017,213.94264v-.47168l-1.27148.16406c-.70166.09131-1.05273.40771-1.05273.9502,0,.24609.08545.44775.25635.60498s.40234.23584.69385.23584c.40576,0,.73584-.14014.99121-.42041s.38281-.63477.38281-1.06299Z" fill="#2f2f2f"/>
        <path d="M325.86517,215.98659c0,1.29883-.37598,2.30469-1.12793,3.01807s-1.84131,1.06982-3.26758,1.06982c-.94336,0-1.69092-.13428-2.24219-.40332v-1.81836c.72021.41943,1.44678.62891,2.18066.62891.729,0,1.29443-.19238,1.69531-.57764s.60156-.9082.60156-1.56885v-.55371h-.02734c-.49219.78369-1.21924,1.17578-2.18066,1.17578-.89307,0-1.60205-.31445-2.12598-.94336s-.78613-1.47217-.78613-2.5293c0-1.18506.2915-2.12598.875-2.82324s1.35107-1.0459,2.30371-1.0459c.85205,0,1.49023.32812,1.91406.98438h.02734v-.81348h2.16016v6.2002ZM323.73235,213.42311v-.55371c0-.44189-.13086-.81934-.39307-1.13135s-.60254-.46826-1.02197-.46826c-.47852,0-.85449.18701-1.12793.56055s-.41016.8999-.41016,1.5791c0,.5835.12988,1.04492.38965,1.38428s.61523.50928,1.06641.50928c.44678,0,.80762-.17188,1.0835-.51611s.41357-.79883.41357-1.36377Z" fill="#2f2f2f"/>
        <path d="M333.95892,213.90163h-4.56641c.07275,1.01611.71338,1.52441,1.9209,1.52441.77002,0,1.44678-.18213,2.03027-.54688v1.55859c-.64697.34619-1.48779.51953-2.52246.51953-1.13037,0-2.00732-.31348-2.63184-.93994s-.93652-1.50049-.93652-2.62158c0-1.16211.3374-2.08252,1.01172-2.76172s1.50391-1.01855,2.48828-1.01855c1.021,0,1.81055.30322,2.36865.90918s.8374,1.42871.8374,2.46777v.90918ZM331.95599,212.57546c0-1.00244-.40576-1.50391-1.2168-1.50391-.34619,0-.646.14355-.89893.43066s-.40674.64502-.46143,1.07324h2.57715Z" fill="#2f2f2f"/>
        <path d="M344.9306,216.78639h-2.04395v-1.00488h-.02734c-.46924.78369-1.16455,1.17578-2.08496,1.17578-.6792,0-1.21338-.19238-1.60303-.57764s-.58447-.89893-.58447-1.5415c0-1.35791.8042-2.14209,2.41309-2.35156l1.90039-.25293c0-.76562-.41455-1.14844-1.24414-1.14844-.83398,0-1.62695.24854-2.37891.74512v-1.62695c.30078-.15479.71191-.2915,1.23389-.41016s.99707-.17773,1.42529-.17773c1.99609,0,2.99414.99561,2.99414,2.9873v4.18359ZM342.90032,213.94264v-.47168l-1.27148.16406c-.70166.09131-1.05273.40771-1.05273.9502,0,.24609.08545.44775.25635.60498s.40234.23584.69385.23584c.40576,0,.73584-.14014.99121-.42041s.38281-.63477.38281-1.06299Z" fill="#2f2f2f"/>
        <path d="M351.94427,216.53347c-.48779.28271-1.19189.42383-2.1123.42383-1.07568,0-1.9458-.32568-2.61133-.97754s-.99805-1.49268-.99805-2.52246c0-1.18945.35645-2.12695,1.06982-2.81299s1.66699-1.02881,2.86084-1.02881c.82471,0,1.42188.10938,1.79102.32812v1.83203c-.45117-.3374-.95459-.50586-1.51074-.50586-.61963,0-1.11084.18115-1.47314.54346s-.54346.8623-.54346,1.50049c0,.61963.17334,1.10645.51953,1.45947s.82275.52979,1.42871.52979c.5376,0,1.06396-.16846,1.5791-.50586v1.73633Z" fill="#2f2f2f"/>
        <path d="M358.643,216.53347c-.48779.28271-1.19189.42383-2.1123.42383-1.07568,0-1.9458-.32568-2.61133-.97754s-.99805-1.49268-.99805-2.52246c0-1.18945.35645-2.12695,1.06982-2.81299s1.66699-1.02881,2.86084-1.02881c.82471,0,1.42188.10938,1.79102.32812v1.83203c-.45117-.3374-.95459-.50586-1.51074-.50586-.61963,0-1.11084.18115-1.47314.54346s-.54346.8623-.54346,1.50049c0,.61963.17334,1.10645.51953,1.45947s.82275.52979,1.42871.52979c.5376,0,1.06396-.16846,1.5791-.50586v1.73633Z" fill="#2f2f2f"/>
        <path d="M363.37298,216.95729c-1.1665,0-2.08398-.32715-2.75146-.98096s-1.00146-1.5415-1.00146-2.6626c0-1.15771.34619-2.06348,1.03906-2.71729s1.62939-.98096,2.80957-.98096c1.16211,0,2.07373.32715,2.73438.98096s.99121,1.51855.99121,2.59424c0,1.16211-.34082,2.08057-1.02197,2.75488s-1.61426,1.01172-2.79932,1.01172ZM363.42767,211.26979c-.51025,0-.90674.17529-1.18945.52637s-.42383.84766-.42383,1.49023c0,1.34424.54248,2.0166,1.62695,2.0166,1.03467,0,1.55176-.69043,1.55176-2.07129,0-1.30811-.52197-1.96191-1.56543-1.96191Z" fill="#2f2f2f"/>
        <path d="M375.22601,216.78639h-2.15332v-1.06641h-.03418c-.5332.82471-1.24658,1.2373-2.13965,1.2373-1.62256,0-2.43359-.98193-2.43359-2.94629v-4.22461h2.15332v4.0332c0,.98877.39209,1.4834,1.17578,1.4834.38721,0,.69727-.13574.92969-.40674s.34863-.63916.34863-1.104v-4.00586h2.15332v7Z" fill="#2f2f2f"/>
        <path d="M383.75481,216.78639h-2.15332v-3.88965c0-1.08447-.38721-1.62695-1.16211-1.62695-.37354,0-.68115.14355-.92285.43066s-.3623.65186-.3623,1.09375v3.99219h-2.16016v-7h2.16016v1.10742h.02734c.51514-.85205,1.26465-1.27832,2.24902-1.27832,1.54932,0,2.32422.96143,2.32422,2.88477v4.28613Z" fill="#2f2f2f"/>
        <path d="M389.60393,216.70436c-.31885.16846-.7998.25293-1.44238.25293-1.52197,0-2.2832-.79053-2.2832-2.37207v-3.20605h-1.13477v-1.59277h1.13477v-1.51074l2.15332-.61523v2.12598h1.57227v1.59277h-1.57227v2.83008c0,.729.28955,1.09375.86816,1.09375.22803,0,.4624-.06592.7041-.19824v1.59961Z" fill="#2f2f2f"/>
        <path d="M398.82561,219.01491h-1.76367c-1.47217-1.62256-2.20801-3.61621-2.20801-5.98145,0-2.2832.73584-4.2998,2.20801-6.0498h1.75c-1.38086,1.83203-2.07129,3.84863-2.07129,6.0498s.69482,4.19482,2.08496,5.98145Z" fill="#2f2f2f"/>
        <path d="M407.22991,216.78639h-7.89551v-1.27148l5.02441-6.7334h-4.66211v-1.79785h7.51953v1.2373l-4.91504,6.77441h4.92871v1.79102Z" fill="#2f2f2f"/>
        <path d="M416.92376,216.78639h-2.53613l-1.52441-2.52246c-.11377-.19141-.22314-.3623-.32812-.5127s-.21094-.2793-.31787-.38623-.21875-.18896-.33496-.24609-.24268-.08545-.37939-.08545h-.59473v3.75293h-2.20801v-9.80273h3.5c2.37891,0,3.56836.88867,3.56836,2.66602,0,.3418-.05225.65723-.15723.94678s-.25293.55029-.44434.78271-.42285.43311-.69385.60156-.57324.30078-.90576.39648v.02734c.146.04541.28711.11963.42383.22217s.26904.22217.39648.35889.24951.28369.36572.44092.22217.31104.31787.46143l1.85254,2.89844ZM410.90813,208.63796v2.72754h.95703c.47412,0,.85449-.13672,1.1416-.41016.2915-.27783.4375-.62207.4375-1.03223,0-.85693-.5127-1.28516-1.53809-1.28516h-.99805Z" fill="#2f2f2f"/>
        <path d="M417.61565,216.41042v-2.1875c.39648.33252.82715.58203,1.29199.74854s.93408.24951,1.4082.24951c.27783,0,.52051-.0249.72803-.0752s.38037-.11963.51953-.2085.24268-.19385.31104-.31445.10254-.25195.10254-.39307c0-.19141-.05469-.3623-.16406-.5127s-.25879-.28955-.44775-.41699-.41357-.25049-.67334-.36914-.54004-.23926-.84082-.3623c-.76562-.31885-1.33643-.7085-1.7124-1.16895s-.56396-1.01611-.56396-1.66797c0-.51025.10254-.94922.30762-1.31592s.48438-.66895.8374-.90576.76221-.41113,1.22705-.52295.95703-.16748,1.47656-.16748c.51025,0,.96289.03076,1.35693.09229s.75781.15625,1.09033.28369v2.04395c-.16406-.11377-.34277-.21436-.53662-.30078s-.39307-.1582-.59814-.21533-.40918-.09912-.61182-.12646-.39551-.04102-.57764-.04102c-.25049,0-.47852.02393-.68359.07178s-.37842.11523-.51953.20166-.25049.19043-.32812.31104-.11621.25635-.11621.40674c0,.16406.04346.31104.12988.44092s.20947.25293.36914.36914.35303.22998.58105.3418.48535.22656.77246.34521c.39209.16406.74414.33838,1.05615.52295s.58008.39307.80322.62549.39404.49805.5127.79639.17773.646.17773,1.04248c0,.54688-.10352,1.00586-.31104,1.37744s-.48877.67236-.84424.90234-.76904.39551-1.24072.49561-.96973.15039-1.49365.15039c-.5376,0-1.04932-.04541-1.53467-.13672s-.90576-.22803-1.26123-.41016Z" fill="#2f2f2f"/>
        <path d="M426.64104,219.01491h-1.75c1.39453-1.77734,2.0918-3.771,2.0918-5.98145,0-2.19189-.69727-4.2085-2.0918-6.0498h1.76367c1.47656,1.75439,2.21484,3.771,2.21484,6.0498,0,2.34717-.74268,4.34082-2.22852,5.98145Z" fill="#2f2f2f"/>
      </g>
      <g>
        <path d="M265.11614,33.12917h-2.40625l-.69727-2.18066h-3.48633l-.69043,2.18066h-2.39258l3.56836-9.80273h2.61816l3.48633,9.80273ZM261.50677,29.25319l-1.05273-3.29492c-.07764-.24609-.13232-.54004-.16406-.88184h-.05469c-.02295.28711-.07959.57178-.1709.85449l-1.06641,3.32227h2.50879Z" fill="#2f2f2f"/>
        <path d="M272.48089,26.12917l-2.60449,7h-2.46094l-2.48145-7h2.31055l1.2168,4.31348c.13672.48779.21631.90234.23926,1.24414h.02734c.03174-.32373.11621-.72461.25293-1.20312l1.24414-4.35449h2.25586Z" fill="#2f2f2f"/>
        <path d="M279.13665,33.12917h-2.04395v-1.00488h-.02734c-.46924.78369-1.16455,1.17578-2.08496,1.17578-.6792,0-1.21338-.19238-1.60303-.57764s-.58447-.89893-.58447-1.5415c0-1.35791.8042-2.14209,2.41309-2.35156l1.90039-.25293c0-.76562-.41455-1.14844-1.24414-1.14844-.83398,0-1.62695.24854-2.37891.74512v-1.62695c.30078-.15479.71191-.2915,1.23389-.41016s.99707-.17773,1.42529-.17773c1.99609,0,2.99414.99561,2.99414,2.9873v4.18359ZM277.10638,30.28542v-.47168l-1.27148.16406c-.70166.09131-1.05273.40771-1.05273.9502,0,.24609.08545.44775.25635.60498s.40234.23584.69385.23584c.40576,0,.73584-.14014.99121-.42041s.38281-.63477.38281-1.06299Z" fill="#2f2f2f"/>
        <path d="M281.90716,25.02175c-.36475,0-.66309-.1084-.89551-.32471s-.34863-.48193-.34863-.79639c0-.32373.11621-.58789.34863-.79297s.53076-.30762.89551-.30762c.36914,0,.66895.10254.89893.30762s.34521.46924.34521.79297c0,.32812-.11523.59717-.34521.80664s-.52979.31445-.89893.31445ZM282.97356,33.12917h-2.16016v-7h2.16016v7Z" fill="#2f2f2f"/>
        <path d="M286.90862,33.12917h-2.16016v-10.36328h2.16016v10.36328Z" fill="#2f2f2f"/>
        <path d="M294.57366,33.12917h-2.04395v-1.00488h-.02734c-.46924.78369-1.16455,1.17578-2.08496,1.17578-.6792,0-1.21338-.19238-1.60303-.57764s-.58447-.89893-.58447-1.5415c0-1.35791.8042-2.14209,2.41309-2.35156l1.90039-.25293c0-.76562-.41455-1.14844-1.24414-1.14844-.83398,0-1.62695.24854-2.37891.74512v-1.62695c.30078-.15479.71191-.2915,1.23389-.41016s.99707-.17773,1.42529-.17773c1.99609,0,2.99414.99561,2.99414,2.9873v4.18359ZM292.54339,30.28542v-.47168l-1.27148.16406c-.70166.09131-1.05273.40771-1.05273.9502,0,.24609.08545.44775.25635.60498s.40234.23584.69385.23584c.40576,0,.73584-.14014.99121-.42041s.38281-.63477.38281-1.06299Z" fill="#2f2f2f"/>
        <path d="M298.45745,32.31569h-.02734v.81348h-2.16016v-10.36328h2.16016v4.41602h.02734c.5332-.81592,1.29199-1.22363,2.27637-1.22363.90234,0,1.59717.31006,2.08496.92969s.73145,1.46729.73145,2.54297c0,1.1665-.28467,2.10303-.85449,2.80957s-1.33057,1.05957-2.2832,1.05957c-.86133,0-1.51318-.32812-1.95508-.98438ZM298.39593,29.36257v.71777c0,.45117.12988.82471.38965,1.12109s.59229.44434.99805.44434c.49219,0,.87402-.19043,1.14502-.5708s.40674-.91943.40674-1.6167c0-.57861-.12402-1.03125-.37256-1.35693s-.60254-.48877-1.06299-.48877c-.43311,0-.79199.16162-1.07666.48535s-.42725.74512-.42725,1.26465Z" fill="#2f2f2f"/>
        <path d="M306.04534,25.02175c-.36475,0-.66309-.1084-.89551-.32471s-.34863-.48193-.34863-.79639c0-.32373.11621-.58789.34863-.79297s.53076-.30762.89551-.30762c.36914,0,.66895.10254.89893.30762s.34521.46924.34521.79297c0,.32812-.11523.59717-.34521.80664s-.52979.31445-.89893.31445ZM307.11175,33.12917h-2.16016v-7h2.16016v7Z" fill="#2f2f2f"/>
        <path d="M311.04729,33.12917h-2.16016v-10.36328h2.16016v10.36328Z" fill="#2f2f2f"/>
        <path d="M313.91595,25.02175c-.36475,0-.66309-.1084-.89551-.32471s-.34863-.48193-.34863-.79639c0-.32373.11621-.58789.34863-.79297s.53076-.30762.89551-.30762c.36914,0,.66895.10254.89893.30762s.34521.46924.34521.79297c0,.32812-.11523.59717-.34521.80664s-.52979.31445-.89893.31445ZM314.98235,33.12917h-2.16016v-7h2.16016v7Z" fill="#2f2f2f"/>
        <path d="M320.91839,33.04714c-.31885.16846-.7998.25293-1.44238.25293-1.52197,0-2.2832-.79053-2.2832-2.37207v-3.20605h-1.13477v-1.59277h1.13477v-1.51074l2.15332-.61523v2.12598h1.57227v1.59277h-1.57227v2.83008c0,.729.28955,1.09375.86816,1.09375.22803,0,.4624-.06592.7041-.19824v1.59961Z" fill="#2f2f2f"/>
        <path d="M329.14349,26.12917l-2.84375,7.56055c-.68359,1.81836-1.71338,2.72754-3.08984,2.72754-.52393,0-.95459-.05908-1.29199-.17773v-1.72266c.28711.16846.59912.25293.93652.25293.55615,0,.94336-.26221,1.16211-.78613l.36914-.86816-2.84375-6.98633h2.39258l1.30566,4.25879c.08203.26416.146.57666.19141.93652h.02734c.04102-.26416.11621-.57178.22559-.92285l1.31934-4.27246h2.13965Z" fill="#2f2f2f"/>
        <path d="M341.14056,33.12917h-7.89551v-1.27148l5.02441-6.7334h-4.66211v-1.79785h7.51953v1.2373l-4.91504,6.77441h4.92871v1.79102Z" fill="#2f2f2f"/>
        <path d="M345.65911,33.30007c-1.1665,0-2.08398-.32715-2.75146-.98096s-1.00146-1.5415-1.00146-2.6626c0-1.15771.34619-2.06348,1.03906-2.71729s1.62939-.98096,2.80957-.98096c1.16211,0,2.07373.32715,2.73438.98096s.99121,1.51855.99121,2.59424c0,1.16211-.34082,2.08057-1.02197,2.75488s-1.61426,1.01172-2.79932,1.01172ZM345.7138,27.61257c-.51025,0-.90674.17529-1.18945.52637s-.42383.84766-.42383,1.49023c0,1.34424.54248,2.0166,1.62695,2.0166,1.03467,0,1.55176-.69043,1.55176-2.07129,0-1.30811-.52197-1.96191-1.56543-1.96191Z" fill="#2f2f2f"/>
        <path d="M357.62151,33.12917h-2.15332v-3.88965c0-1.08447-.38721-1.62695-1.16211-1.62695-.37354,0-.68115.14355-.92285.43066s-.3623.65186-.3623,1.09375v3.99219h-2.16016v-7h2.16016v1.10742h.02734c.51514-.85205,1.26465-1.27832,2.24902-1.27832,1.54932,0,2.32422.96143,2.32422,2.88477v4.28613Z" fill="#2f2f2f"/>
        <path d="M365.64349,30.2444h-4.56641c.07275,1.01611.71338,1.52441,1.9209,1.52441.77002,0,1.44678-.18213,2.03027-.54688v1.55859c-.64697.34619-1.48779.51953-2.52246.51953-1.13037,0-2.00732-.31348-2.63184-.93994s-.93652-1.50049-.93652-2.62158c0-1.16211.3374-2.08252,1.01172-2.76172s1.50391-1.01855,2.48828-1.01855c1.021,0,1.81055.30322,2.36865.90918s.8374,1.42871.8374,2.46777v.90918ZM363.64056,28.91823c0-1.00244-.40576-1.50391-1.2168-1.50391-.34619,0-.646.14355-.89893.43066s-.40674.64502-.46143,1.07324h2.57715Z" fill="#2f2f2f"/>
        <path d="M372.81438,31.33815h4.15625v1.79102h-6.52148v-.73828c0-.50146.08447-.95117.25293-1.3501s.38037-.75635.63574-1.07324.53418-.59717.8374-.84082.59131-.46387.86475-.65967c.28711-.20508.53906-.40088.75537-.58789s.39893-.37256.54688-.55713.25879-.37158.33154-.56055.10938-.39062.10938-.60498c0-.41943-.11865-.73584-.35547-.9502s-.59912-.32129-1.08691-.32129c-.84326,0-1.6499.33496-2.41992,1.00488v-1.90039c.85205-.55127,1.81396-.82715,2.88477-.82715.49658,0,.94238.06494,1.33643.19482s.72803.31543,1.00146.55713.48193.53418.62549.87842.21533.72803.21533,1.15186c0,.45117-.06934.85205-.2085,1.20312s-.32373.66992-.55371.95703-.49561.55029-.79639.78955-.61279.4707-.93652.69385c-.21875.15479-.42969.30859-.63232.46143s-.38184.30322-.53662.45117-.27783.29297-.36914.43408-.13672.27588-.13672.40332Z" fill="#2f2f2f"/>
      </g>
      <g>
        <path d="M58.23675,33.12917h-2.40625l-.69727-2.18066h-3.48633l-.69043,2.18066h-2.39258l3.56836-9.80273h2.61816l3.48633,9.80273ZM54.62737,29.25319l-1.05273-3.29492c-.07764-.24609-.13232-.54004-.16406-.88184h-.05469c-.02295.28711-.07959.57178-.1709.85449l-1.06641,3.32227h2.50879Z" fill="#2f2f2f"/>
        <path d="M65.60149,26.12917l-2.60449,7h-2.46094l-2.48145-7h2.31055l1.2168,4.31348c.13672.48779.21631.90234.23926,1.24414h.02734c.03174-.32373.11621-.72461.25293-1.20312l1.24414-4.35449h2.25586Z" fill="#2f2f2f"/>
        <path d="M72.25726,33.12917h-2.04395v-1.00488h-.02734c-.46924.78369-1.16455,1.17578-2.08496,1.17578-.6792,0-1.21338-.19238-1.60303-.57764s-.58447-.89893-.58447-1.5415c0-1.35791.8042-2.14209,2.41309-2.35156l1.90039-.25293c0-.76562-.41455-1.14844-1.24414-1.14844-.83398,0-1.62695.24854-2.37891.74512v-1.62695c.30078-.15479.71191-.2915,1.23389-.41016s.99707-.17773,1.42529-.17773c1.99609,0,2.99414.99561,2.99414,2.9873v4.18359ZM70.22698,30.28542v-.47168l-1.27148.16406c-.70166.09131-1.05273.40771-1.05273.9502,0,.24609.08545.44775.25635.60498s.40234.23584.69385.23584c.40576,0,.73584-.14014.99121-.42041s.38281-.63477.38281-1.06299Z" fill="#2f2f2f"/>
        <path d="M75.02776,25.02175c-.36475,0-.66309-.1084-.89551-.32471s-.34863-.48193-.34863-.79639c0-.32373.11621-.58789.34863-.79297s.53076-.30762.89551-.30762c.36914,0,.66895.10254.89893.30762s.34521.46924.34521.79297c0,.32812-.11523.59717-.34521.80664s-.52979.31445-.89893.31445ZM76.09417,33.12917h-2.16016v-7h2.16016v7Z" fill="#2f2f2f"/>
        <path d="M80.02923,33.12917h-2.16016v-10.36328h2.16016v10.36328Z" fill="#2f2f2f"/>
        <path d="M87.69427,33.12917h-2.04395v-1.00488h-.02734c-.46924.78369-1.16455,1.17578-2.08496,1.17578-.6792,0-1.21338-.19238-1.60303-.57764s-.58447-.89893-.58447-1.5415c0-1.35791.8042-2.14209,2.41309-2.35156l1.90039-.25293c0-.76562-.41455-1.14844-1.24414-1.14844-.83398,0-1.62695.24854-2.37891.74512v-1.62695c.30078-.15479.71191-.2915,1.23389-.41016s.99707-.17773,1.42529-.17773c1.99609,0,2.99414.99561,2.99414,2.9873v4.18359ZM85.66399,30.28542v-.47168l-1.27148.16406c-.70166.09131-1.05273.40771-1.05273.9502,0,.24609.08545.44775.25635.60498s.40234.23584.69385.23584c.40576,0,.73584-.14014.99121-.42041s.38281-.63477.38281-1.06299Z" fill="#2f2f2f"/>
        <path d="M91.57806,32.31569h-.02734v.81348h-2.16016v-10.36328h2.16016v4.41602h.02734c.5332-.81592,1.29199-1.22363,2.27637-1.22363.90234,0,1.59717.31006,2.08496.92969s.73145,1.46729.73145,2.54297c0,1.1665-.28467,2.10303-.85449,2.80957s-1.33057,1.05957-2.2832,1.05957c-.86133,0-1.51318-.32812-1.95508-.98438ZM91.51653,29.36257v.71777c0,.45117.12988.82471.38965,1.12109s.59229.44434.99805.44434c.49219,0,.87402-.19043,1.14502-.5708s.40674-.91943.40674-1.6167c0-.57861-.12402-1.03125-.37256-1.35693s-.60254-.48877-1.06299-.48877c-.43311,0-.79199.16162-1.07666.48535s-.42725.74512-.42725,1.26465Z" fill="#2f2f2f"/>
        <path d="M99.16595,25.02175c-.36475,0-.66309-.1084-.89551-.32471s-.34863-.48193-.34863-.79639c0-.32373.11621-.58789.34863-.79297s.53076-.30762.89551-.30762c.36914,0,.66895.10254.89893.30762s.34521.46924.34521.79297c0,.32812-.11523.59717-.34521.80664s-.52979.31445-.89893.31445ZM100.23235,33.12917h-2.16016v-7h2.16016v7Z" fill="#2f2f2f"/>
        <path d="M104.1679,33.12917h-2.16016v-10.36328h2.16016v10.36328Z" fill="#2f2f2f"/>
        <path d="M107.03655,25.02175c-.36475,0-.66309-.1084-.89551-.32471s-.34863-.48193-.34863-.79639c0-.32373.11621-.58789.34863-.79297s.53076-.30762.89551-.30762c.36914,0,.66895.10254.89893.30762s.34521.46924.34521.79297c0,.32812-.11523.59717-.34521.80664s-.52979.31445-.89893.31445ZM108.10296,33.12917h-2.16016v-7h2.16016v7Z" fill="#2f2f2f"/>
        <path d="M114.03899,33.04714c-.31885.16846-.7998.25293-1.44238.25293-1.52197,0-2.2832-.79053-2.2832-2.37207v-3.20605h-1.13477v-1.59277h1.13477v-1.51074l2.15332-.61523v2.12598h1.57227v1.59277h-1.57227v2.83008c0,.729.28955,1.09375.86816,1.09375.22803,0,.4624-.06592.7041-.19824v1.59961Z" fill="#2f2f2f"/>
        <path d="M122.26409,26.12917l-2.84375,7.56055c-.68359,1.81836-1.71338,2.72754-3.08984,2.72754-.52393,0-.95459-.05908-1.29199-.17773v-1.72266c.28711.16846.59912.25293.93652.25293.55615,0,.94336-.26221,1.16211-.78613l.36914-.86816-2.84375-6.98633h2.39258l1.30566,4.25879c.08203.26416.146.57666.19141.93652h.02734c.04102-.26416.11621-.57178.22559-.92285l1.31934-4.27246h2.13965Z" fill="#2f2f2f"/>
        <path d="M134.26116,33.12917h-7.89551v-1.27148l5.02441-6.7334h-4.66211v-1.79785h7.51953v1.2373l-4.91504,6.77441h4.92871v1.79102Z" fill="#2f2f2f"/>
        <path d="M138.77972,33.30007c-1.1665,0-2.08398-.32715-2.75146-.98096s-1.00146-1.5415-1.00146-2.6626c0-1.15771.34619-2.06348,1.03906-2.71729s1.62939-.98096,2.80957-.98096c1.16211,0,2.07373.32715,2.73438.98096s.99121,1.51855.99121,2.59424c0,1.16211-.34082,2.08057-1.02197,2.75488s-1.61426,1.01172-2.79932,1.01172ZM138.8344,27.61257c-.51025,0-.90674.17529-1.18945.52637s-.42383.84766-.42383,1.49023c0,1.34424.54248,2.0166,1.62695,2.0166,1.03467,0,1.55176-.69043,1.55176-2.07129,0-1.30811-.52197-1.96191-1.56543-1.96191Z" fill="#2f2f2f"/>
        <path d="M150.74212,33.12917h-2.15332v-3.88965c0-1.08447-.38721-1.62695-1.16211-1.62695-.37354,0-.68115.14355-.92285.43066s-.3623.65186-.3623,1.09375v3.99219h-2.16016v-7h2.16016v1.10742h.02734c.51514-.85205,1.26465-1.27832,2.24902-1.27832,1.54932,0,2.32422.96143,2.32422,2.88477v4.28613Z" fill="#2f2f2f"/>
        <path d="M158.76409,30.2444h-4.56641c.07275,1.01611.71338,1.52441,1.9209,1.52441.77002,0,1.44678-.18213,2.03027-.54688v1.55859c-.64697.34619-1.48779.51953-2.52246.51953-1.13037,0-2.00732-.31348-2.63184-.93994s-.93652-1.50049-.93652-2.62158c0-1.16211.3374-2.08252,1.01172-2.76172s1.50391-1.01855,2.48828-1.01855c1.021,0,1.81055.30322,2.36865.90918s.8374,1.42871.8374,2.46777v.90918ZM156.76116,28.91823c0-1.00244-.40576-1.50391-1.2168-1.50391-.34619,0-.646.14355-.89893.43066s-.40674.64502-.46143,1.07324h2.57715Z" fill="#2f2f2f"/>
        <path d="M168.68987,23.10768v10.02148h-2.15332v-7.58789c-.11865.10498-.25879.2041-.42041.29736s-.33398.17773-.51611.25293-.37158.13916-.56738.19141-.38965.08984-.58105.11279v-1.81836c.56055-.16406,1.08936-.37354,1.58594-.62891s.9458-.53564,1.34668-.84082h1.30566Z" fill="#2f2f2f"/>
      </g>
      <g>
        <path d="M471.91643,33.12917h-2.40625l-.69727-2.18066h-3.48633l-.69043,2.18066h-2.39258l3.56836-9.80273h2.61816l3.48633,9.80273ZM468.30706,29.25319l-1.05273-3.29492c-.07764-.24609-.13232-.54004-.16406-.88184h-.05469c-.02295.28711-.07959.57178-.1709.85449l-1.06641,3.32227h2.50879Z" fill="#2f2f2f"/>
        <path d="M479.28118,26.12917l-2.60449,7h-2.46094l-2.48145-7h2.31055l1.2168,4.31348c.13672.48779.21631.90234.23926,1.24414h.02734c.03174-.32373.11621-.72461.25293-1.20312l1.24414-4.35449h2.25586Z" fill="#2f2f2f"/>
        <path d="M485.93694,33.12917h-2.04395v-1.00488h-.02734c-.46924.78369-1.16455,1.17578-2.08496,1.17578-.6792,0-1.21338-.19238-1.60303-.57764s-.58447-.89893-.58447-1.5415c0-1.35791.8042-2.14209,2.41309-2.35156l1.90039-.25293c0-.76562-.41455-1.14844-1.24414-1.14844-.83398,0-1.62695.24854-2.37891.74512v-1.62695c.30078-.15479.71191-.2915,1.23389-.41016s.99707-.17773,1.42529-.17773c1.99609,0,2.99414.99561,2.99414,2.9873v4.18359ZM483.90667,30.28542v-.47168l-1.27148.16406c-.70166.09131-1.05273.40771-1.05273.9502,0,.24609.08545.44775.25635.60498s.40234.23584.69385.23584c.40576,0,.73584-.14014.99121-.42041s.38281-.63477.38281-1.06299Z" fill="#2f2f2f"/>
        <path d="M488.70745,25.02175c-.36475,0-.66309-.1084-.89551-.32471s-.34863-.48193-.34863-.79639c0-.32373.11621-.58789.34863-.79297s.53076-.30762.89551-.30762c.36914,0,.66895.10254.89893.30762s.34521.46924.34521.79297c0,.32812-.11523.59717-.34521.80664s-.52979.31445-.89893.31445ZM489.77386,33.12917h-2.16016v-7h2.16016v7Z" fill="#2f2f2f"/>
        <path d="M493.70892,33.12917h-2.16016v-10.36328h2.16016v10.36328Z" fill="#2f2f2f"/>
        <path d="M501.37395,33.12917h-2.04395v-1.00488h-.02734c-.46924.78369-1.16455,1.17578-2.08496,1.17578-.6792,0-1.21338-.19238-1.60303-.57764s-.58447-.89893-.58447-1.5415c0-1.35791.8042-2.14209,2.41309-2.35156l1.90039-.25293c0-.76562-.41455-1.14844-1.24414-1.14844-.83398,0-1.62695.24854-2.37891.74512v-1.62695c.30078-.15479.71191-.2915,1.23389-.41016s.99707-.17773,1.42529-.17773c1.99609,0,2.99414.99561,2.99414,2.9873v4.18359ZM499.34368,30.28542v-.47168l-1.27148.16406c-.70166.09131-1.05273.40771-1.05273.9502,0,.24609.08545.44775.25635.60498s.40234.23584.69385.23584c.40576,0,.73584-.14014.99121-.42041s.38281-.63477.38281-1.06299Z" fill="#2f2f2f"/>
        <path d="M505.25774,32.31569h-.02734v.81348h-2.16016v-10.36328h2.16016v4.41602h.02734c.5332-.81592,1.29199-1.22363,2.27637-1.22363.90234,0,1.59717.31006,2.08496.92969s.73145,1.46729.73145,2.54297c0,1.1665-.28467,2.10303-.85449,2.80957s-1.33057,1.05957-2.2832,1.05957c-.86133,0-1.51318-.32812-1.95508-.98438ZM505.19622,29.36257v.71777c0,.45117.12988.82471.38965,1.12109s.59229.44434.99805.44434c.49219,0,.87402-.19043,1.14502-.5708s.40674-.91943.40674-1.6167c0-.57861-.12402-1.03125-.37256-1.35693s-.60254-.48877-1.06299-.48877c-.43311,0-.79199.16162-1.07666.48535s-.42725.74512-.42725,1.26465Z" fill="#2f2f2f"/>
        <path d="M512.84563,25.02175c-.36475,0-.66309-.1084-.89551-.32471s-.34863-.48193-.34863-.79639c0-.32373.11621-.58789.34863-.79297s.53076-.30762.89551-.30762c.36914,0,.66895.10254.89893.30762s.34521.46924.34521.79297c0,.32812-.11523.59717-.34521.80664s-.52979.31445-.89893.31445ZM513.91204,33.12917h-2.16016v-7h2.16016v7Z" fill="#2f2f2f"/>
        <path d="M517.84759,33.12917h-2.16016v-10.36328h2.16016v10.36328Z" fill="#2f2f2f"/>
        <path d="M520.71624,25.02175c-.36475,0-.66309-.1084-.89551-.32471s-.34863-.48193-.34863-.79639c0-.32373.11621-.58789.34863-.79297s.53076-.30762.89551-.30762c.36914,0,.66895.10254.89893.30762s.34521.46924.34521.79297c0,.32812-.11523.59717-.34521.80664s-.52979.31445-.89893.31445ZM521.78265,33.12917h-2.16016v-7h2.16016v7Z" fill="#2f2f2f"/>
        <path d="M527.71868,33.04714c-.31885.16846-.7998.25293-1.44238.25293-1.52197,0-2.2832-.79053-2.2832-2.37207v-3.20605h-1.13477v-1.59277h1.13477v-1.51074l2.15332-.61523v2.12598h1.57227v1.59277h-1.57227v2.83008c0,.729.28955,1.09375.86816,1.09375.22803,0,.4624-.06592.7041-.19824v1.59961Z" fill="#2f2f2f"/>
        <path d="M535.94378,26.12917l-2.84375,7.56055c-.68359,1.81836-1.71338,2.72754-3.08984,2.72754-.52393,0-.95459-.05908-1.29199-.17773v-1.72266c.28711.16846.59912.25293.93652.25293.55615,0,.94336-.26221,1.16211-.78613l.36914-.86816-2.84375-6.98633h2.39258l1.30566,4.25879c.08203.26416.146.57666.19141.93652h.02734c.04102-.26416.11621-.57178.22559-.92285l1.31934-4.27246h2.13965Z" fill="#2f2f2f"/>
        <path d="M547.94085,33.12917h-7.89551v-1.27148l5.02441-6.7334h-4.66211v-1.79785h7.51953v1.2373l-4.91504,6.77441h4.92871v1.79102Z" fill="#2f2f2f"/>
        <path d="M552.4594,33.30007c-1.1665,0-2.08398-.32715-2.75146-.98096s-1.00146-1.5415-1.00146-2.6626c0-1.15771.34619-2.06348,1.03906-2.71729s1.62939-.98096,2.80957-.98096c1.16211,0,2.07373.32715,2.73438.98096s.99121,1.51855.99121,2.59424c0,1.16211-.34082,2.08057-1.02197,2.75488s-1.61426,1.01172-2.79932,1.01172ZM552.51409,27.61257c-.51025,0-.90674.17529-1.18945.52637s-.42383.84766-.42383,1.49023c0,1.34424.54248,2.0166,1.62695,2.0166,1.03467,0,1.55176-.69043,1.55176-2.07129,0-1.30811-.52197-1.96191-1.56543-1.96191Z" fill="#2f2f2f"/>
        <path d="M564.42181,33.12917h-2.15332v-3.88965c0-1.08447-.38721-1.62695-1.16211-1.62695-.37354,0-.68115.14355-.92285.43066s-.3623.65186-.3623,1.09375v3.99219h-2.16016v-7h2.16016v1.10742h.02734c.51514-.85205,1.26465-1.27832,2.24902-1.27832,1.54932,0,2.32422.96143,2.32422,2.88477v4.28613Z" fill="#2f2f2f"/>
        <path d="M572.44378,30.2444h-4.56641c.07275,1.01611.71338,1.52441,1.9209,1.52441.77002,0,1.44678-.18213,2.03027-.54688v1.55859c-.64697.34619-1.48779.51953-2.52246.51953-1.13037,0-2.00732-.31348-2.63184-.93994s-.93652-1.50049-.93652-2.62158c0-1.16211.3374-2.08252,1.01172-2.76172s1.50391-1.01855,2.48828-1.01855c1.021,0,1.81055.30322,2.36865.90918s.8374,1.42871.8374,2.46777v.90918ZM570.44085,28.91823c0-1.00244-.40576-1.50391-1.2168-1.50391-.34619,0-.646.14355-.89893.43066s-.40674.64502-.46143,1.07324h2.57715Z" fill="#2f2f2f"/>
        <path d="M577.48186,32.80788v-1.87988c.65625.47852,1.42188.71777,2.29688.71777.55127,0,.98096-.11865,1.28857-.35547s.46143-.56738.46143-.99121c0-.4375-.19043-.7749-.5708-1.01172s-.90332-.35547-1.56885-.35547h-.90918v-1.6543h.84082c1.27588,0,1.91406-.42383,1.91406-1.27148,0-.79736-.48975-1.19629-1.46973-1.19629-.65625,0-1.29443.21191-1.91406.63574v-1.76367c.68799-.34619,1.49023-.51953,2.40625-.51953,1.00244,0,1.7832.22559,2.34131.67676s.8374,1.03662.8374,1.75684c0,1.28076-.64941,2.08252-1.94824,2.40625v.03418c.69287.08643,1.23975.33838,1.64062.75537s.60156.92871.60156,1.53467c0,.91602-.33496,1.64062-1.00488,2.17383s-1.59521.7998-2.77539.7998c-1.01172,0-1.83447-.16406-2.46777-.49219Z" fill="#2f2f2f"/>
      </g>
    </g>
  </g>
</svg>