<?xml version="1.0" encoding="UTF-8"?>
<svg xmlns="http://www.w3.org/2000/svg" width="492.36877" height="253.82728" xmlns:xlink="http://www.w3.org/1999/xlink" viewBox="0 0 492.36877 253.82728">
  <defs>
    <symbol id="Failed" viewBox="0 0 22 22">
      <g>
        <circle cx="11" cy="11" r="11" fill="#a4262c"/>
        <path d="M17.45425,6.501l-1.95525-1.95525-4.499,4.499-4.499-4.499-1.95525,1.95525,4.499,4.499-4.499,4.499,1.95525,1.95525,4.499-4.499,4.499,4.499,1.95525-1.95525-4.499-4.499,4.499-4.499Z" fill="#fff"/>
      </g>
    </symbol>
    <symbol id="success" viewBox="0 0 22 22">
      <g>
        <circle cx="11" cy="11" r="11" fill="#57a300"/>
        <path d="M4.88537,11.40013c-.10175-.10863-.154-.25163-.1485-.40013.0055-.14988.06875-.28738.17875-.3905l1.14813-1.0615c.1045-.09487.23787-.14712.37675-.14712.154,0,.3025.06462.407.17738l2.937,3.1515,5.23463-6.70312c.10587-.13613.26537-.21588.43862-.21588.12375,0,.24063.03987.33962.1155l1.24575.96112c.23788.176.28875.51837.11.76175l-6.6935,8.57037c-.25988.33275-.75625.35475-1.045.04537l-4.52925-4.86475Z" fill="#fff"/>
      </g>
    </symbol>
    <filter id="drop-shadow-1" filterUnits="userSpaceOnUse">
      <feOffset dx=".5" dy=".5"/>
      <feGaussianBlur result="blur" stdDeviation="0"/>
      <feFlood flood-color="#4e4f4f" flood-opacity=".8"/>
      <feComposite in2="blur" operator="in"/>
      <feComposite in="SourceGraphic"/>
    </filter>
    <filter id="drop-shadow-1-1" x="326.12546" y="58.42743" width="141.3" height="167.7" filterUnits="userSpaceOnUse">
      <feOffset dx=".5" dy=".5"/>
      <feGaussianBlur result="blur-2" stdDeviation="0"/>
      <feFlood flood-color="#4e4f4f" flood-opacity=".8"/>
      <feComposite in2="blur-2" operator="in"/>
      <feComposite in="SourceGraphic"/>
    </filter>
    <linearGradient id="linear-gradient" x1="-167.47454" y1="1225.10933" x2="-167.47454" y2="1242.42743" gradientTransform="translate(564 1320.85485) scale(1 -1)" gradientUnits="userSpaceOnUse">
      <stop offset="0" stop-color="#0078d4"/>
      <stop offset=".82" stop-color="#5ea0ef"/>
    </linearGradient>
    <linearGradient id="linear-gradient-2" x1="-167.47454" y1="1218.42743" x2="-167.47454" y2="1225.10933" gradientTransform="translate(564 1320.85485) scale(1 -1)" gradientUnits="userSpaceOnUse">
      <stop offset=".15" stop-color="#ccc"/>
      <stop offset="1" stop-color="#707070"/>
    </linearGradient>
    <filter id="drop-shadow-3" x="24.02154" y="58.42743" width="141.3" height="167.7" filterUnits="userSpaceOnUse">
      <feOffset dx=".5" dy=".5"/>
      <feGaussianBlur result="blur-3" stdDeviation="0"/>
      <feFlood flood-color="#4e4f4f" flood-opacity=".8"/>
      <feComposite in2="blur-3" operator="in"/>
      <feComposite in="SourceGraphic"/>
    </filter>
    <linearGradient id="linear-gradient-3" x1="-469.57846" y1="1196.10933" x2="-469.57846" y2="1213.42743" xlink:href="#linear-gradient"/>
    <linearGradient id="linear-gradient-4" x1="-469.57846" y1="1189.42743" x2="-469.57846" y2="1196.10933" xlink:href="#linear-gradient-2"/>
    <linearGradient id="linear-gradient-5" x1="251.34414" y1="982.61277" x2="251.34414" y2="997.57873" gradientTransform="translate(0 1086.85485) scale(1 -1)" gradientUnits="userSpaceOnUse">
      <stop offset="0" stop-color="#0078d4"/>
      <stop offset=".16" stop-color="#1380da"/>
      <stop offset=".53" stop-color="#3c91e5"/>
      <stop offset=".82" stop-color="#559cec"/>
      <stop offset="1" stop-color="#5ea0ef"/>
    </linearGradient>
    <linearGradient id="linear-gradient-6" x1="245.0904" y1="973.62743" x2="245.0904" y2="989.02315" gradientTransform="translate(0 1086.85485) scale(1 -1)" gradientUnits="userSpaceOnUse">
      <stop offset="0" stop-color="#198ab3"/>
      <stop offset=".13" stop-color="#21a0c7"/>
      <stop offset=".31" stop-color="#28b7db"/>
      <stop offset=".5" stop-color="#2ec7ea"/>
      <stop offset=".72" stop-color="#31d1f2"/>
      <stop offset="1" stop-color="#32d4f5"/>
    </linearGradient>
    <linearGradient id="linear-gradient-7" x1="404.54447" y1="918.81277" x2="404.54447" y2="933.77873" xlink:href="#linear-gradient-5"/>
    <linearGradient id="linear-gradient-8" x1="398.29072" y1="909.82743" x2="398.29072" y2="925.22315" xlink:href="#linear-gradient-6"/>
  </defs>
  <g isolation="isolate">
    <g id="Shapes">
      <rect width="492.36877" height="253.82728" fill="#fff"/>
      <g>
        <g mix-blend-mode="multiply" opacity=".8">
          <rect x="313.14869" y="45.40435" width="166.97677" height="193.42308" fill="#8e8278"/>
          <rect x="313.14869" y="45.40435" width="166.97677" height="193.42308" fill="#8e8278" opacity=".9"/>
        </g>
        <g>
          <rect x="312.92546" y="45.22743" width="166.97677" height="193.42308" fill="#fff"/>
          <rect x="312.92546" y="45.22743" width="166.97677" height="193.42308" fill="#e1ddd8" opacity=".9"/>
        </g>
      </g>
      <rect x="326.12546" y="58.42743" width="140.8" height="167.2" fill="#fff" filter="url(#drop-shadow-1-1)"/>
      <g>
        <rect x="383.53688" y="78.42743" width="25.97715" height="17.3181" rx=".8659" ry=".8659" fill="url(#linear-gradient)"/>
        <polygon points="400.85498 84.56092 400.85498 89.5976 396.52546 92.13759 396.52546 87.08648 400.85498 84.56092" fill="#50e6ff"/>
        <polygon points="400.85498 84.56092 396.52546 87.10091 392.19593 84.56092 396.52546 82.03536 400.85498 84.56092" fill="#c3f1ff"/>
        <polygon points="396.52546 87.10091 396.52546 92.13759 392.19593 89.5976 392.19593 84.56092 396.52546 87.10091" fill="#9cebff"/>
        <polygon points="392.19593 89.5976 396.52546 87.08648 396.52546 92.13759 392.19593 89.5976" fill="#c3f1ff"/>
        <polygon points="400.85498 89.5976 396.52546 87.08648 396.52546 92.13759 400.85498 89.5976" fill="#9cebff"/>
        <path d="M401.73532,100.98425c-2.56885-.40409-2.66987-2.25135-2.66987-5.23873h-5.09441c0,2.98737-.08659,4.83464-2.65544,5.23873-.73448.08127-1.28891.70422-1.28443,1.44317h12.98857c.00448-.73895-.54994-1.3619-1.28443-1.44317Z" fill="url(#linear-gradient-2)"/>
      </g>
      <g>
        <path d="M384.40634,111.26385h-2.83008v8.76367h-1.14844v-8.76367h-2.82324v-1.03906h6.80176v1.03906Z" fill="#2f2f2f"/>
        <path d="M389.74423,120.02752h-1.12109v-1.09375h-.02734c-.48828.83838-1.20605,1.25781-2.15332,1.25781-.69727,0-1.24316-.18457-1.6377-.55371-.39355-.36914-.59082-.85889-.59082-1.46973,0-1.30811.76953-2.06885,2.31055-2.2832l2.09863-.29395c0-1.18945-.48145-1.78418-1.44238-1.78418-.84375,0-1.60449.28711-2.2832.86133v-1.14844c.6875-.4375,1.48047-.65625,2.37891-.65625,1.64453,0,2.46777.87061,2.46777,2.61133v4.55273ZM388.62314,116.48651l-1.68848.23242c-.51953.07275-.91211.20166-1.17578.38623-.26465.18457-.39648.51172-.39648.98096,0,.3418.12207.62109.36523.8374.24414.21631.56836.32471.97461.32471.55566,0,1.01465-.19482,1.37695-.58447s.54395-.88281.54395-1.47998v-.69727Z" fill="#2f2f2f"/>
        <path d="M395.41513,114.16229c-.19531-.15039-.47852-.22559-.84766-.22559-.47852,0-.87793.22559-1.19922.67676s-.48242,1.06641-.48242,1.8457v3.56836h-1.12109v-7h1.12109v1.44238h.02734c.16016-.49219.40332-.87598.73145-1.15186s.69531-.41357,1.10059-.41357c.29199,0,.51562.03174.66992.0957v1.16211Z" fill="#2f2f2f"/>
        <path d="M402.61826,119.46698c0,2.57031-1.23047,3.85547-3.69141,3.85547-.86621,0-1.62305-.16406-2.26953-.49219v-1.12109c.78809.4375,1.54004.65625,2.25586.65625,1.72266,0,2.58398-.91602,2.58398-2.74805v-.76562h-.02734c-.5332.89307-1.33594,1.33984-2.40625,1.33984-.87109,0-1.57129-.31104-2.10254-.93311-.53027-.62207-.7959-1.45703-.7959-2.50537,0-1.18945.28613-2.13525.85742-2.83691.57227-.70166,1.35449-1.05273,2.34863-1.05273.94336,0,1.64258.37842,2.09863,1.13477h.02734v-.9707h1.12109v6.43945ZM401.49716,116.86248v-1.03223c0-.55615-.18848-1.03223-.56445-1.42871s-.84375-.59473-1.4043-.59473c-.69336,0-1.23535.25195-1.62695.75537-.39258.50342-.58789,1.20898-.58789,2.11572,0,.7793.1875,1.40234.56348,1.86963s.87402.70068,1.49414.70068c.62891,0,1.14062-.22314,1.53418-.66992.39453-.44678.5918-1.01855.5918-1.71582Z" fill="#2f2f2f"/>
        <path d="M410.43955,116.8078h-4.94238c.01758.7793.22754,1.38086.62891,1.80469.40039.42383.95215.63574,1.6543.63574.78809,0,1.5127-.25977,2.17383-.7793v1.05273c-.61523.44678-1.42871.66992-2.44043.66992-.98926,0-1.7666-.31787-2.33105-.95361-.56543-.63574-.84766-1.53027-.84766-2.68311,0-1.08936.30859-1.97656.92578-2.6626.61816-.68604,1.38477-1.02881,2.30078-1.02881s1.62402.29639,2.12598.88867c.50098.59229.75195,1.41504.75195,2.46777v.58789ZM409.29111,115.8576c-.00488-.64697-.16113-1.15088-.46875-1.51074s-.73438-.54004-1.28125-.54004c-.5293,0-.97754.18896-1.34668.56738s-.59766.87256-.68359,1.4834h3.78027Z" fill="#2f2f2f"/>
        <path d="M415.36338,119.95916c-.26367.146-.6123.21875-1.0459.21875-1.22559,0-1.83887-.68359-1.83887-2.05078v-4.14258h-1.20312v-.95703h1.20312v-1.70898l1.12109-.3623v2.07129h1.76367v.95703h-1.76367v3.94434c0,.46924.08008.8042.23926,1.00488.16016.20068.42383.30078.79297.30078.2832,0,.52637-.07764.73145-.23242v.95703Z" fill="#2f2f2f"/>
      </g>
      <g>
        <path d="M357.01621,127.8244l-3.62988,9.80273h-1.26465l-3.55469-9.80273h1.27832l2.71387,7.77246c.08643.25049.15283.54004.19824.86816h.02734c.03662-.27344.11182-.56738.22559-.88184l2.76855-7.75879h1.2373Z" fill="#2f2f2f"/>
        <path d="M358.92783,128.84979c-.20068,0-.37158-.06836-.5127-.20508s-.21191-.31006-.21191-.51953.0708-.38379.21191-.52295.31201-.2085.5127-.2085c.20508,0,.37939.06934.52295.2085s.21533.31348.21533.52295c0,.20068-.07178.37158-.21533.5127s-.31787.21191-.52295.21191ZM359.4747,137.62713h-1.12109v-7h1.12109v7Z" fill="#2f2f2f"/>
        <path d="M365.24375,131.7619c-.1958-.15039-.47852-.22559-.84766-.22559-.47852,0-.87842.22559-1.19971.67676s-.48193,1.06641-.48193,1.8457v3.56836h-1.12109v-7h1.12109v1.44238h.02734c.15967-.49219.40332-.87598.73145-1.15186s.69482-.41357,1.10059-.41357c.2915,0,.51514.03174.66992.0957v1.16211Z" fill="#2f2f2f"/>
        <path d="M370.16269,137.55877c-.26416.146-.61279.21875-1.0459.21875-1.22607,0-1.83887-.68359-1.83887-2.05078v-4.14258h-1.20312v-.95703h1.20312v-1.70898l1.12109-.3623v2.07129h1.76367v.95703h-1.76367v3.94434c0,.46924.07959.8042.23926,1.00488s.42383.30078.79297.30078c.28271,0,.52637-.07764.73145-.23242v.95703Z" fill="#2f2f2f"/>
        <path d="M377.28037,137.62713h-1.12109v-1.10742h-.02734c-.46484.84766-1.18506,1.27148-2.16016,1.27148-1.66797,0-2.50195-.99365-2.50195-2.98047v-4.18359h1.11426v4.00586c0,1.47656.56494,2.21484,1.69531,2.21484.54688,0,.99707-.20166,1.3501-.60498s.52979-.93066.52979-1.58252v-4.0332h1.12109v7Z" fill="#2f2f2f"/>
        <path d="M384.43613,137.62713h-1.12109v-1.09375h-.02734c-.48779.83838-1.20557,1.25781-2.15332,1.25781-.69727,0-1.24316-.18457-1.63721-.55371s-.59131-.85889-.59131-1.46973c0-1.30811.77002-2.06885,2.31055-2.2832l2.09863-.29395c0-1.18945-.48096-1.78418-1.44238-1.78418-.84326,0-1.604.28711-2.2832.86133v-1.14844c.68799-.4375,1.48096-.65625,2.37891-.65625,1.64502,0,2.46777.87061,2.46777,2.61133v4.55273ZM383.31504,134.08612l-1.68848.23242c-.51953.07275-.91162.20166-1.17578.38623s-.39648.51172-.39648.98096c0,.3418.12207.62109.36572.8374s.56836.32471.97412.32471c.55615,0,1.01514-.19482,1.37744-.58447s.54346-.88281.54346-1.47998v-.69727Z" fill="#2f2f2f"/>
        <path d="M387.57724,137.62713h-1.12109v-10.36328h1.12109v10.36328Z" fill="#2f2f2f"/>
        <path d="M403.82627,137.62713h-1.1416v-6.57617c0-.51953.03174-1.15527.0957-1.90723h-.02734c-.10938.44189-.20752.75879-.29395.9502l-3.34961,7.5332h-.56055l-3.34277-7.47852c-.0957-.21875-.19385-.55371-.29395-1.00488h-.02734c.03662.39209.05469,1.03223.05469,1.9209v6.5625h-1.10742v-9.80273h1.51758l3.00781,6.83594c.23242.52393.38281.91602.45117,1.17578h.04102c.1958-.5376.35303-.93896.47168-1.20312l3.06934-6.80859h1.43555v9.80273Z" fill="#2f2f2f"/>
        <path d="M411.14072,137.62713h-1.12109v-1.09375h-.02734c-.48779.83838-1.20557,1.25781-2.15332,1.25781-.69727,0-1.24316-.18457-1.63721-.55371s-.59131-.85889-.59131-1.46973c0-1.30811.77002-2.06885,2.31055-2.2832l2.09863-.29395c0-1.18945-.48096-1.78418-1.44238-1.78418-.84326,0-1.604.28711-2.2832.86133v-1.14844c.68799-.4375,1.48096-.65625,2.37891-.65625,1.64502,0,2.46777.87061,2.46777,2.61133v4.55273ZM410.01963,134.08612l-1.68848.23242c-.51953.07275-.91162.20166-1.17578.38623s-.39648.51172-.39648.98096c0,.3418.12207.62109.36572.8374s.56836.32471.97412.32471c.55615,0,1.01514-.19482,1.37744-.58447s.54346-.88281.54346-1.47998v-.69727Z" fill="#2f2f2f"/>
        <path d="M417.98398,137.30584c-.5376.32373-1.17578.48535-1.91406.48535-.99805,0-1.80371-.32471-2.4165-.97412s-.91943-1.49121-.91943-2.52588c0-1.15283.33057-2.0791.99121-2.77881s1.54248-1.04932,2.64551-1.04932c.61523,0,1.15771.11377,1.62695.3418v1.14844c-.51953-.36475-1.07568-.54688-1.66797-.54688-.71533,0-1.30225.25635-1.76025.76904s-.68701,1.18604-.68701,2.02002c0,.82031.21533,1.46729.646,1.94141s1.0083.71094,1.73291.71094c.61084,0,1.18506-.20264,1.72266-.6084v1.06641Z" fill="#2f2f2f"/>
        <path d="M425.28232,137.62713h-1.12109v-4.0332c0-1.4585-.54248-2.1875-1.62695-2.1875-.54688,0-1.00732.21094-1.38086.63232s-.56055.96289-.56055,1.62354v3.96484h-1.12109v-10.36328h1.12109v4.52539h.02734c.5376-.88428,1.30322-1.32617,2.29688-1.32617,1.57666,0,2.36523.9502,2.36523,2.85059v4.31348Z" fill="#2f2f2f"/>
        <path d="M427.86679,128.84979c-.20068,0-.37158-.06836-.5127-.20508s-.21191-.31006-.21191-.51953.0708-.38379.21191-.52295.31201-.2085.5127-.2085c.20508,0,.37939.06934.52295.2085s.21533.31348.21533.52295c0,.20068-.07178.37158-.21533.5127s-.31787.21191-.52295.21191ZM428.41367,137.62713h-1.12109v-7h1.12109v7Z" fill="#2f2f2f"/>
        <path d="M436.34238,137.62713h-1.12109v-3.99219c0-1.48584-.54248-2.22852-1.62695-2.22852-.56055,0-1.02441.21094-1.39111.63232s-.55029.95361-.55029,1.59619v3.99219h-1.12109v-7h1.12109v1.16211h.02734c.52881-.88428,1.29443-1.32617,2.29688-1.32617.76562,0,1.35107.24707,1.75684.7417s.6084,1.20898.6084,2.14307v4.2793Z" fill="#2f2f2f"/>
        <path d="M444.04599,134.40741h-4.94238c.01807.7793.22803,1.38086.62891,1.80469s.95264.63574,1.6543.63574c.78857,0,1.51318-.25977,2.17383-.7793v1.05273c-.61523.44678-1.42871.66992-2.44043.66992-.98877,0-1.76611-.31787-2.33105-.95361s-.84766-1.53027-.84766-2.68311c0-1.08936.30859-1.97656.92627-2.6626s1.38428-1.02881,2.30029-1.02881,1.62451.29639,2.12598.88867.75195,1.41504.75195,2.46777v.58789ZM442.89756,133.45721c-.00439-.64697-.16064-1.15088-.46826-1.51074s-.73486-.54004-1.28174-.54004c-.52881,0-.97754.18896-1.34668.56738s-.59717.87256-.68359,1.4834h3.78027Z" fill="#2f2f2f"/>
      </g>
      <g>
        <g mix-blend-mode="multiply" opacity=".8">
          <rect x="11.04477" y="45.40435" width="166.97677" height="193.42308" fill="#8e8278"/>
          <rect x="11.04477" y="45.40435" width="166.97677" height="193.42308" fill="#8e8278" opacity=".9"/>
        </g>
        <g>
          <rect x="10.82154" y="45.22743" width="166.97677" height="193.42308" fill="#fff"/>
          <rect x="10.82154" y="45.22743" width="166.97677" height="193.42308" fill="#e1ddd8" opacity=".9"/>
        </g>
      </g>
      <g>
        <line x1="163.89997" y1="105.62743" x2="322.84198" y2="105.62743" fill="none" stroke="#3c3c41" stroke-miterlimit="10" stroke-width=".75"/>
        <polygon points="322.0213 108.43224 326.8786 105.62743 322.0213 102.82262 322.0213 108.43224" fill="#3c3c41"/>
      </g>
      <rect x="24.02154" y="58.42743" width="140.8" height="167.2" fill="#fff" filter="url(#drop-shadow-3)"/>
      <g>
        <rect x="81.43296" y="107.42743" width="25.97715" height="17.3181" rx=".8659" ry=".8659" fill="url(#linear-gradient-3)"/>
        <polygon points="98.75106 113.56092 98.75106 118.5976 94.42154 121.13759 94.42154 116.08648 98.75106 113.56092" fill="#50e6ff"/>
        <polygon points="98.75106 113.56092 94.42154 116.10091 90.09201 113.56092 94.42154 111.03536 98.75106 113.56092" fill="#c3f1ff"/>
        <polygon points="94.42154 116.10091 94.42154 121.13759 90.09201 118.5976 90.09201 113.56092 94.42154 116.10091" fill="#9cebff"/>
        <polygon points="90.09201 118.5976 94.42154 116.08648 94.42154 121.13759 90.09201 118.5976" fill="#c3f1ff"/>
        <polygon points="98.75106 118.5976 94.42154 116.08648 94.42154 121.13759 98.75106 118.5976" fill="#9cebff"/>
        <path d="M99.6314,129.98425c-2.56885-.40409-2.66987-2.25135-2.66987-5.23873h-5.09441c0,2.98737-.08659,4.83464-2.65544,5.23873-.73448.08127-1.28891.70422-1.28443,1.44317h12.98857c.00448-.73895-.54994-1.3619-1.28443-1.44317Z" fill="url(#linear-gradient-4)"/>
      </g>
      <g>
        <path d="M74.35312,148.63104v-1.35352c.15479.13672.34082.25977.55713.36914s.44434.20166.68359.27686.47949.1333.72119.17432.46484.06152.66992.06152c.70654,0,1.23389-.13086,1.58252-.39307s.52295-.63916.52295-1.13135c0-.26416-.05811-.49463-.17432-.69043s-.27686-.375-.48193-.53662-.44775-.31689-.72803-.46484-.58203-.3042-.90576-.46826c-.3418-.17334-.66064-.34863-.95703-.52637s-.55371-.37354-.77246-.58789-.39062-.45703-.51611-.72803-.18799-.58887-.18799-.95361c0-.44678.09814-.83496.29395-1.16553s.45361-.60254.77246-.81689.68262-.37354,1.09033-.47852.82373-.15723,1.24756-.15723c.96631,0,1.67041.11621,2.1123.34863v1.29199c-.57861-.40088-1.32178-.60156-2.22852-.60156-.25049,0-.50146.02637-.75195.07861s-.47412.1377-.66992.25635-.35547.271-.47852.45801-.18457.41455-.18457.68359c0,.25049.04688.46729.14014.64941s.23145.34863.41357.49902.4043.29639.6665.4375.56396.29639.90576.46484c.35107.17334.68359.35547.99805.54688s.59033.40332.82715.63574.4248.48975.56396.77246.2085.60596.2085.9707c0,.48291-.09473.89209-.28369,1.22705s-.44434.60742-.76562.81689-.69141.36133-1.11084.45459-.86133.14014-1.32617.14014c-.15479,0-.34619-.0127-.57422-.0376s-.46045-.06152-.69727-.10938-.46143-.10693-.67334-.17773-.38184-.14941-.50928-.23584Z" fill="#2f2f2f"/>
        <path d="M84.97519,149.19159c-1.03467,0-1.86035-.32715-2.47803-.98096s-.92627-1.521-.92627-2.60107c0-1.17578.32129-2.09424.96387-2.75488s1.51074-.99121,2.60449-.99121c1.04346,0,1.8584.32129,2.44385.96387s.87842,1.53369.87842,2.67285c0,1.1167-.31543,2.01074-.94678,2.68311s-1.47754,1.0083-2.53955,1.0083ZM85.05722,142.80682c-.72021,0-1.28955.24512-1.70898.73486s-.62891,1.16553-.62891,2.02686c0,.82959.21191,1.4834.63574,1.96191s.99121.71777,1.70215.71777c.72461,0,1.28174-.23486,1.67139-.7041s.58447-1.13721.58447-2.00293c0-.875-.19482-1.54932-.58447-2.02344s-.94678-.71094-1.67139-.71094Z" fill="#2f2f2f"/>
        <path d="M95.8707,149.02752h-1.12109v-1.10742h-.02734c-.46484.84766-1.18506,1.27148-2.16016,1.27148-1.66797,0-2.50195-.99365-2.50195-2.98047v-4.18359h1.11426v4.00586c0,1.47656.56494,2.21484,1.69531,2.21484.54688,0,.99707-.20166,1.3501-.60498s.52979-.93066.52979-1.58252v-4.0332h1.12109v7Z" fill="#2f2f2f"/>
        <path d="M101.62802,143.16229c-.1958-.15039-.47852-.22559-.84766-.22559-.47852,0-.87842.22559-1.19971.67676s-.48193,1.06641-.48193,1.8457v3.56836h-1.12109v-7h1.12109v1.44238h.02734c.15967-.49219.40332-.87598.73145-1.15186s.69482-.41357,1.10059-.41357c.2915,0,.51514.03174.66992.0957v1.16211Z" fill="#2f2f2f"/>
        <path d="M107.58554,148.70623c-.5376.32373-1.17578.48535-1.91406.48535-.99805,0-1.80371-.32471-2.4165-.97412s-.91943-1.49121-.91943-2.52588c0-1.15283.33057-2.0791.99121-2.77881s1.54248-1.04932,2.64551-1.04932c.61523,0,1.15771.11377,1.62695.3418v1.14844c-.51953-.36475-1.07568-.54688-1.66797-.54688-.71533,0-1.30225.25635-1.76025.76904s-.68701,1.18604-.68701,2.02002c0,.82031.21533,1.46729.646,1.94141s1.0083.71094,1.73291.71094c.61084,0,1.18506-.20264,1.72266-.6084v1.06641Z" fill="#2f2f2f"/>
        <path d="M114.75595,145.8078h-4.94238c.01807.7793.22803,1.38086.62891,1.80469s.95264.63574,1.6543.63574c.78857,0,1.51318-.25977,2.17383-.7793v1.05273c-.61523.44678-1.42871.66992-2.44043.66992-.98877,0-1.76611-.31787-2.33105-.95361s-.84766-1.53027-.84766-2.68311c0-1.08936.30859-1.97656.92627-2.6626s1.38428-1.02881,2.30029-1.02881,1.62451.29639,2.12598.88867.75195,1.41504.75195,2.46777v.58789ZM113.60752,144.8576c-.00439-.64697-.16064-1.15088-.46826-1.51074s-.73486-.54004-1.28174-.54004c-.52881,0-.97754.18896-1.34668.56738s-.59717.87256-.68359,1.4834h3.78027Z" fill="#2f2f2f"/>
      </g>
      <g>
        <path d="M54.9122,156.8244l-3.62988,9.80273h-1.26465l-3.55469-9.80273h1.27832l2.71387,7.77246c.08643.25049.15283.54004.19824.86816h.02734c.03662-.27344.11182-.56738.22559-.88184l2.76855-7.75879h1.2373Z" fill="#2f2f2f"/>
        <path d="M56.82382,157.84979c-.20068,0-.37158-.06836-.5127-.20508s-.21191-.31006-.21191-.51953.0708-.38379.21191-.52295.31201-.2085.5127-.2085c.20508,0,.37939.06934.52295.2085s.21533.31348.21533.52295c0,.20068-.07178.37158-.21533.5127s-.31787.21191-.52295.21191ZM57.3707,166.62713h-1.12109v-7h1.12109v7Z" fill="#2f2f2f"/>
        <path d="M63.13974,160.7619c-.1958-.15039-.47852-.22559-.84766-.22559-.47852,0-.87842.22559-1.19971.67676s-.48193,1.06641-.48193,1.8457v3.56836h-1.12109v-7h1.12109v1.44238h.02734c.15967-.49219.40332-.87598.73145-1.15186s.69482-.41357,1.10059-.41357c.2915,0,.51514.03174.66992.0957v1.16211Z" fill="#2f2f2f"/>
        <path d="M68.05869,166.55877c-.26416.146-.61279.21875-1.0459.21875-1.22607,0-1.83887-.68359-1.83887-2.05078v-4.14258h-1.20312v-.95703h1.20312v-1.70898l1.12109-.3623v2.07129h1.76367v.95703h-1.76367v3.94434c0,.46924.07959.8042.23926,1.00488s.42383.30078.79297.30078c.28271,0,.52637-.07764.73145-.23242v.95703Z" fill="#2f2f2f"/>
        <path d="M75.17636,166.62713h-1.12109v-1.10742h-.02734c-.46484.84766-1.18506,1.27148-2.16016,1.27148-1.66797,0-2.50195-.99365-2.50195-2.98047v-4.18359h1.11426v4.00586c0,1.47656.56494,2.21484,1.69531,2.21484.54688,0,.99707-.20166,1.3501-.60498s.52979-.93066.52979-1.58252v-4.0332h1.12109v7Z" fill="#2f2f2f"/>
        <path d="M82.33213,166.62713h-1.12109v-1.09375h-.02734c-.48779.83838-1.20557,1.25781-2.15332,1.25781-.69727,0-1.24316-.18457-1.63721-.55371s-.59131-.85889-.59131-1.46973c0-1.30811.77002-2.06885,2.31055-2.2832l2.09863-.29395c0-1.18945-.48096-1.78418-1.44238-1.78418-.84326,0-1.604.28711-2.2832.86133v-1.14844c.68799-.4375,1.48096-.65625,2.37891-.65625,1.64502,0,2.46777.87061,2.46777,2.61133v4.55273ZM81.21103,163.08612l-1.68848.23242c-.51953.07275-.91162.20166-1.17578.38623s-.39648.51172-.39648.98096c0,.3418.12207.62109.36572.8374s.56836.32471.97412.32471c.55615,0,1.01514-.19482,1.37744-.58447s.54346-.88281.54346-1.47998v-.69727Z" fill="#2f2f2f"/>
        <path d="M85.47324,166.62713h-1.12109v-10.36328h1.12109v10.36328Z" fill="#2f2f2f"/>
        <path d="M101.72226,166.62713h-1.1416v-6.57617c0-.51953.03174-1.15527.0957-1.90723h-.02734c-.10938.44189-.20752.75879-.29395.9502l-3.34961,7.5332h-.56055l-3.34277-7.47852c-.0957-.21875-.19385-.55371-.29395-1.00488h-.02734c.03662.39209.05469,1.03223.05469,1.9209v6.5625h-1.10742v-9.80273h1.51758l3.00781,6.83594c.23242.52393.38281.91602.45117,1.17578h.04102c.1958-.5376.35303-.93896.47168-1.20312l3.06934-6.80859h1.43555v9.80273Z" fill="#2f2f2f"/>
        <path d="M109.03672,166.62713h-1.12109v-1.09375h-.02734c-.48779.83838-1.20557,1.25781-2.15332,1.25781-.69727,0-1.24316-.18457-1.63721-.55371s-.59131-.85889-.59131-1.46973c0-1.30811.77002-2.06885,2.31055-2.2832l2.09863-.29395c0-1.18945-.48096-1.78418-1.44238-1.78418-.84326,0-1.604.28711-2.2832.86133v-1.14844c.68799-.4375,1.48096-.65625,2.37891-.65625,1.64502,0,2.46777.87061,2.46777,2.61133v4.55273ZM107.91562,163.08612l-1.68848.23242c-.51953.07275-.91162.20166-1.17578.38623s-.39648.51172-.39648.98096c0,.3418.12207.62109.36572.8374s.56836.32471.97412.32471c.55615,0,1.01514-.19482,1.37744-.58447s.54346-.88281.54346-1.47998v-.69727Z" fill="#2f2f2f"/>
        <path d="M115.87998,166.30584c-.5376.32373-1.17578.48535-1.91406.48535-.99805,0-1.80371-.32471-2.4165-.97412s-.91943-1.49121-.91943-2.52588c0-1.15283.33057-2.0791.99121-2.77881s1.54248-1.04932,2.64551-1.04932c.61523,0,1.15771.11377,1.62695.3418v1.14844c-.51953-.36475-1.07568-.54688-1.66797-.54688-.71533,0-1.30225.25635-1.76025.76904s-.68701,1.18604-.68701,2.02002c0,.82031.21533,1.46729.646,1.94141s1.0083.71094,1.73291.71094c.61084,0,1.18506-.20264,1.72266-.6084v1.06641Z" fill="#2f2f2f"/>
        <path d="M123.17832,166.62713h-1.12109v-4.0332c0-1.4585-.54248-2.1875-1.62695-2.1875-.54688,0-1.00732.21094-1.38086.63232s-.56055.96289-.56055,1.62354v3.96484h-1.12109v-10.36328h1.12109v4.52539h.02734c.5376-.88428,1.30322-1.32617,2.29688-1.32617,1.57666,0,2.36523.9502,2.36523,2.85059v4.31348Z" fill="#2f2f2f"/>
        <path d="M125.76279,157.84979c-.20068,0-.37158-.06836-.5127-.20508s-.21191-.31006-.21191-.51953.0708-.38379.21191-.52295.31201-.2085.5127-.2085c.20508,0,.37939.06934.52295.2085s.21533.31348.21533.52295c0,.20068-.07178.37158-.21533.5127s-.31787.21191-.52295.21191ZM126.30966,166.62713h-1.12109v-7h1.12109v7Z" fill="#2f2f2f"/>
        <path d="M134.23838,166.62713h-1.12109v-3.99219c0-1.48584-.54248-2.22852-1.62695-2.22852-.56055,0-1.02441.21094-1.39111.63232s-.55029.95361-.55029,1.59619v3.99219h-1.12109v-7h1.12109v1.16211h.02734c.52881-.88428,1.29443-1.32617,2.29688-1.32617.76562,0,1.35107.24707,1.75684.7417s.6084,1.20898.6084,2.14307v4.2793Z" fill="#2f2f2f"/>
        <path d="M141.94199,163.40741h-4.94238c.01807.7793.22803,1.38086.62891,1.80469s.95264.63574,1.6543.63574c.78857,0,1.51318-.25977,2.17383-.7793v1.05273c-.61523.44678-1.42871.66992-2.44043.66992-.98877,0-1.76611-.31787-2.33105-.95361s-.84766-1.53027-.84766-2.68311c0-1.08936.30859-1.97656.92627-2.6626s1.38428-1.02881,2.30029-1.02881,1.62451.29639,2.12598.88867.75195,1.41504.75195,2.46777v.58789ZM140.79355,162.45721c-.00439-.64697-.16064-1.15088-.46826-1.51074s-.73486-.54004-1.28174-.54004c-.52881,0-.97754.18896-1.34668.56738s-.59717.87256-.68359,1.4834h3.78027Z" fill="#2f2f2f"/>
      </g>
      <use width="22" height="22" transform="translate(87.42154 36.42743) scale(.63636)" xlink:href="#Failed"/>
      <use width="22" height="22" transform="translate(65.07861 108.62743) scale(.63636)" xlink:href="#Failed"/>
      <g>
        <g>
          <path d="M261.90021,99.55562c-.04758-2.342-1.79611-4.29931-4.11794-4.60964-.14144-3.26524-2.87928-5.81143-6.14619-5.71595-2.61749-.04042-4.97332,1.58154-5.86961,4.04112-2.78164.33386-4.8994,2.65425-4.97841,5.45474.08291,3.17272,2.72211,5.67751,5.89484,5.59461.0172-.00045.0344-.00098.0516-.00158h10.40242c2.62027-.025,4.7383-2.14302,4.76329-4.76329Z" fill="url(#linear-gradient-5)"/>
          <path d="M256.35328,95.43767l-2.81188-2.73505c-.30731-.30731-.56852-.19975-.56852.27658v1.22924c.00019.18669-.151.3382-.33769.33839-.00524,0-.01048-.00011-.01571-.00035-1.81313,0-6.86836.47633-7.05275,7.39079,0,.19518.15823.3534.35341.3534h1.79776c.19518.00074.354-.15689.35474-.35207.00004-.0107-.00041-.0214-.00134-.03207-.49787-2.28864.95383-4.54755,3.24247-5.04543.44886-.09764.9106-.12172,1.36717-.07127.19518,0,.3534.15823.3534.35341v1.13704c0,.56852.18439.66071.56852.27658l2.75042-2.5353c.16124-.10999.20278-.32987.09279-.4911-.02487-.03645-.05634-.06792-.09279-.09278Z" fill="#fff"/>
          <path d="M255.93841,108.40613c-.06947-2.38667-1.85873-4.37113-4.2255-4.68647-.14152-3.36474-2.96446-5.98898-6.33057-5.88497-2.67921-.04805-5.09562,1.60399-6.02326,4.11794-2.85478.34098-5.03051,2.71925-5.1167,5.59303.12436,3.25629,2.86492,5.79522,6.12122,5.67086.00832-.00032.01665-.00065.02497-.00101h10.41779c.08635.01588.17487.01588.26121,0,2.65284-.03224,4.80493-2.15718,4.87085-4.80939Z" fill="url(#linear-gradient-6)"/>
        </g>
        <use width="22" height="22" transform="translate(218.27861 99.82743) scale(.63636)" xlink:href="#Failed"/>
      </g>
      <use width="22" height="22" transform="translate(366.07861 80.42743) scale(.63636)" xlink:href="#success"/>
      <g>
        <path d="M415.10054,163.35562c-.04758-2.342-1.79611-4.29931-4.11794-4.60964-.14144-3.26524-2.87928-5.81143-6.14619-5.71595-2.61749-.04042-4.97332,1.58154-5.86961,4.04112-2.78164.33386-4.8994,2.65425-4.97841,5.45474.08291,3.17272,2.72211,5.67751,5.89484,5.59461.0172-.00045.0344-.00098.0516-.00158h10.40242c2.62027-.025,4.7383-2.14302,4.76329-4.76329Z" fill="url(#linear-gradient-7)"/>
        <path d="M409.55361,159.23767l-2.81188-2.73505c-.30731-.30731-.56852-.19975-.56852.27658v1.22924c.00019.18669-.151.3382-.33769.33839-.00524,0-.01048-.00011-.01571-.00035-1.81313,0-6.86836.47633-7.05275,7.39079,0,.19518.15823.3534.35341.3534h1.79776c.19518.00074.354-.15689.35474-.35207.00004-.0107-.00041-.0214-.00134-.03207-.49787-2.28864.95383-4.54755,3.24247-5.04543.44886-.09764.9106-.12172,1.36717-.07127.19518,0,.3534.15823.3534.35341v1.13704c0,.56852.18439.66071.56852.27658l2.75042-2.5353c.16124-.10999.20278-.32987.09279-.4911-.02487-.03645-.05634-.06792-.09279-.09278Z" fill="#fff"/>
        <path d="M409.13874,172.20613c-.06947-2.38667-1.85873-4.37113-4.2255-4.68647-.14152-3.36474-2.96446-5.98898-6.33057-5.88497-2.67921-.04805-5.09562,1.60399-6.02326,4.11794-2.85478.34098-5.03051,2.71925-5.1167,5.59303.12436,3.25629,2.86492,5.79522,6.12122,5.67086.00832-.00032.01665-.00065.02497-.00101h10.41779c.08635.01588.17487.01588.26121,0,2.65284-.03224,4.80493-2.15718,4.87085-4.80939Z" fill="url(#linear-gradient-8)"/>
      </g>
      <use width="22" height="22" transform="translate(372.27861 163.22743) scale(.63636)" xlink:href="#success"/>
    </g>
    <g id="Text">
      <g>
        <rect x="10.07861" y="10.02743" width="57.18205" height="35.32447" fill="none"/>
        <path d="M10.74912,21.55291v-2.1875c.39648.33252.82715.58203,1.29199.74854s.93408.24951,1.4082.24951c.27783,0,.52051-.0249.72803-.0752s.38037-.11963.51953-.2085.24268-.19385.31104-.31445.10254-.25195.10254-.39307c0-.19141-.05469-.3623-.16406-.5127s-.25879-.28955-.44775-.41699-.41357-.25049-.67334-.36914-.54004-.23926-.84082-.3623c-.76562-.31885-1.33643-.7085-1.7124-1.16895s-.56396-1.01611-.56396-1.66797c0-.51025.10254-.94922.30762-1.31592s.48438-.66895.8374-.90576.76221-.41113,1.22705-.52295.95703-.16748,1.47656-.16748c.51025,0,.96289.03076,1.35693.09229s.75781.15625,1.09033.28369v2.04395c-.16406-.11377-.34277-.21436-.53662-.30078s-.39307-.1582-.59814-.21533-.40918-.09912-.61182-.12646-.39551-.04102-.57764-.04102c-.25049,0-.47852.02393-.68359.07178s-.37842.11523-.51953.20166-.25049.19043-.32812.31104-.11621.25635-.11621.40674c0,.16406.04346.31104.12988.44092s.20947.25293.36914.36914.35303.22998.58105.3418.48535.22656.77246.34521c.39209.16406.74414.33838,1.05615.52295s.58008.39307.80322.62549.39404.49805.5127.79639.17773.646.17773,1.04248c0,.54688-.10352,1.00586-.31104,1.37744s-.48877.67236-.84424.90234-.76904.39551-1.24072.49561-.96973.15039-1.49365.15039c-.5376,0-1.04932-.04541-1.53467-.13672s-.90576-.22803-1.26123-.41016Z" fill="#2f2f2f"/>
        <path d="M22.17197,22.09979c-1.1665,0-2.08398-.32715-2.75146-.98096s-1.00146-1.5415-1.00146-2.6626c0-1.15771.34619-2.06348,1.03906-2.71729s1.62939-.98096,2.80957-.98096c1.16211,0,2.07373.32715,2.73438.98096s.99121,1.51855.99121,2.59424c0,1.16211-.34082,2.08057-1.02197,2.75488s-1.61426,1.01172-2.79932,1.01172ZM22.22666,16.41229c-.51025,0-.90674.17529-1.18945.52637s-.42383.84766-.42383,1.49023c0,1.34424.54248,2.0166,1.62695,2.0166,1.03467,0,1.55176-.69043,1.55176-2.07129,0-1.30811-.52197-1.96191-1.56543-1.96191Z" fill="#2f2f2f"/>
        <path d="M34.02646,21.92889h-2.15332v-1.06641h-.03418c-.5332.82471-1.24658,1.2373-2.13965,1.2373-1.62256,0-2.43359-.98193-2.43359-2.94629v-4.22461h2.15332v4.0332c0,.98877.39209,1.4834,1.17578,1.4834.38721,0,.69727-.13574.92969-.40674s.34863-.63916.34863-1.104v-4.00586h2.15332v7Z" fill="#2f2f2f"/>
        <path d="M40.36093,16.87713c-.25977-.14111-.56299-.21191-.90918-.21191-.46924,0-.83643.17188-1.10059.51611s-.39648.8125-.39648,1.40479v3.34277h-2.16016v-7h2.16016v1.29883h.02734c.3418-.94775.95703-1.42188,1.8457-1.42188.22803,0,.40576.02734.5332.08203v1.98926Z" fill="#2f2f2f"/>
        <path d="M46.73496,21.67596c-.48779.28271-1.19189.42383-2.1123.42383-1.07568,0-1.9458-.32568-2.61133-.97754s-.99805-1.49268-.99805-2.52246c0-1.18945.35645-2.12695,1.06982-2.81299s1.66699-1.02881,2.86084-1.02881c.82471,0,1.42188.10938,1.79102.32812v1.83203c-.45117-.3374-.95459-.50586-1.51074-.50586-.61963,0-1.11084.18115-1.47314.54346s-.54346.8623-.54346,1.50049c0,.61963.17334,1.10645.51953,1.45947s.82275.52979,1.42871.52979c.5376,0,1.06396-.16846,1.5791-.50586v1.73633Z" fill="#2f2f2f"/>
        <path d="M54.4498,19.04413h-4.56641c.07275,1.01611.71338,1.52441,1.9209,1.52441.77002,0,1.44678-.18213,2.03027-.54688v1.55859c-.64697.34619-1.48779.51953-2.52246.51953-1.13037,0-2.00732-.31348-2.63184-.93994s-.93652-1.50049-.93652-2.62158c0-1.16211.3374-2.08252,1.01172-2.76172s1.50391-1.01855,2.48828-1.01855c1.021,0,1.81055.30322,2.36865.90918s.8374,1.42871.8374,2.46777v.90918ZM52.44687,17.71795c0-1.00244-.40576-1.50391-1.2168-1.50391-.34619,0-.646.14355-.89893.43066s-.40674.64502-.46143,1.07324h2.57715Z" fill="#2f2f2f"/>
        <path d="M14.86435,32.86346c-.1958-.15039-.47852-.22559-.84766-.22559-.47852,0-.87842.22559-1.19971.67676s-.48193,1.06641-.48193,1.8457v3.56836h-1.12109v-7h1.12109v1.44238h.02734c.15967-.49219.40332-.87598.73145-1.15186s.69482-.41357,1.10059-.41357c.2915,0,.51514.03174.66992.0957v1.16211Z" fill="#2f2f2f"/>
        <path d="M21.70713,35.50897h-4.94238c.01807.7793.22803,1.38086.62891,1.80469s.95264.63574,1.6543.63574c.78857,0,1.51318-.25977,2.17383-.7793v1.05273c-.61523.44678-1.42871.66992-2.44043.66992-.98877,0-1.76611-.31787-2.33105-.95361s-.84766-1.53027-.84766-2.68311c0-1.08936.30859-1.97656.92627-2.6626s1.38428-1.02881,2.30029-1.02881,1.62451.29639,2.12598.88867.75195,1.41504.75195,2.46777v.58789ZM20.55869,34.55877c-.00439-.64697-.16064-1.15088-.46826-1.51074s-.73486-.54004-1.28174-.54004c-.52881,0-.97754.18896-1.34668.56738s-.59717.87256-.68359,1.4834h3.78027Z" fill="#2f2f2f"/>
        <path d="M29.40781,38.16815c0,2.57031-1.23047,3.85547-3.69141,3.85547-.86572,0-1.62256-.16406-2.26953-.49219v-1.12109c.78857.4375,1.54053.65625,2.25586.65625,1.72266,0,2.58398-.91602,2.58398-2.74805v-.76562h-.02734c-.5332.89307-1.33545,1.33984-2.40625,1.33984-.87061,0-1.57129-.31104-2.10205-.93311s-.79639-1.45703-.79639-2.50537c0-1.18945.28613-2.13525.85791-2.83691s1.35449-1.05273,2.34814-1.05273c.94336,0,1.64307.37842,2.09863,1.13477h.02734v-.9707h1.12109v6.43945ZM28.28672,35.56366v-1.03223c0-.55615-.18799-1.03223-.56396-1.42871s-.84424-.59473-1.40479-.59473c-.69287,0-1.23486.25195-1.62695.75537s-.58789,1.20898-.58789,2.11572c0,.7793.18799,1.40234.56396,1.86963s.87402.70068,1.49365.70068c.62891,0,1.14062-.22314,1.53467-.66992s.59131-1.01855.59131-1.71582Z" fill="#2f2f2f"/>
        <path d="M32.09775,29.95135c-.20068,0-.37158-.06836-.5127-.20508s-.21191-.31006-.21191-.51953.0708-.38379.21191-.52295.31201-.2085.5127-.2085c.20508,0,.37939.06934.52295.2085s.21533.31348.21533.52295c0,.20068-.07178.37158-.21533.5127s-.31787.21191-.52295.21191ZM32.64463,38.7287h-1.12109v-7h1.12109v7Z" fill="#2f2f2f"/>
        <path d="M37.73886,38.89276c-1.03467,0-1.86035-.32715-2.47803-.98096s-.92627-1.521-.92627-2.60107c0-1.17578.32129-2.09424.96387-2.75488s1.51074-.99121,2.60449-.99121c1.04346,0,1.8584.32129,2.44385.96387s.87842,1.53369.87842,2.67285c0,1.1167-.31543,2.01074-.94678,2.68311s-1.47754,1.0083-2.53955,1.0083ZM37.8209,32.50799c-.72021,0-1.28955.24512-1.70898.73486s-.62891,1.16553-.62891,2.02686c0,.82959.21191,1.4834.63574,1.96191s.99121.71777,1.70215.71777c.72461,0,1.28174-.23486,1.67139-.7041s.58447-1.13721.58447-2.00293c0-.875-.19482-1.54932-.58447-2.02344s-.94678-.71094-1.67139-.71094Z" fill="#2f2f2f"/>
        <path d="M48.75107,38.7287h-1.12109v-3.99219c0-1.48584-.54248-2.22852-1.62695-2.22852-.56055,0-1.02441.21094-1.39111.63232s-.55029.95361-.55029,1.59619v3.99219h-1.12109v-7h1.12109v1.16211h.02734c.52881-.88428,1.29443-1.32617,2.29688-1.32617.76562,0,1.35107.24707,1.75684.7417s.6084,1.20898.6084,2.14307v4.2793Z" fill="#2f2f2f"/>
      </g>
      <g>
        <rect x="425.87861" y="10.02743" width="52.8" height="38.04051" fill="none"/>
        <path d="M444.54404,13.92401h-2.7959v8.00488h-2.21484v-8.00488h-2.78223v-1.79785h7.79297v1.79785Z" fill="#2f2f2f"/>
        <path d="M450.4957,21.92889h-2.04395v-1.00488h-.02734c-.46924.78369-1.16455,1.17578-2.08496,1.17578-.6792,0-1.21338-.19238-1.60303-.57764s-.58447-.89893-.58447-1.5415c0-1.35791.8042-2.14209,2.41309-2.35156l1.90039-.25293c0-.76562-.41455-1.14844-1.24414-1.14844-.83398,0-1.62695.24854-2.37891.74512v-1.62695c.30078-.15479.71191-.2915,1.23389-.41016s.99707-.17773,1.42529-.17773c1.99609,0,2.99414.99561,2.99414,2.9873v4.18359ZM448.46543,19.08514v-.47168l-1.27148.16406c-.70166.09131-1.05273.40771-1.05273.9502,0,.24609.08545.44775.25635.60498s.40234.23584.69385.23584c.40576,0,.73584-.14014.99121-.42041s.38281-.63477.38281-1.06299Z" fill="#2f2f2f"/>
        <path d="M456.7584,16.87713c-.25977-.14111-.56299-.21191-.90918-.21191-.46924,0-.83643.17188-1.10059.51611s-.39648.8125-.39648,1.40479v3.34277h-2.16016v-7h2.16016v1.29883h.02734c.3418-.94775.95703-1.42188,1.8457-1.42188.22803,0,.40576.02734.5332.08203v1.98926Z" fill="#2f2f2f"/>
        <path d="M464.71201,21.12909c0,1.29883-.37598,2.30469-1.12793,3.01807s-1.84131,1.06982-3.26758,1.06982c-.94336,0-1.69092-.13428-2.24219-.40332v-1.81836c.72021.41943,1.44678.62891,2.18066.62891.729,0,1.29443-.19238,1.69531-.57764s.60156-.9082.60156-1.56885v-.55371h-.02734c-.49219.78369-1.21924,1.17578-2.18066,1.17578-.89307,0-1.60205-.31445-2.12598-.94336s-.78613-1.47217-.78613-2.5293c0-1.18506.2915-2.12598.875-2.82324s1.35107-1.0459,2.30371-1.0459c.85205,0,1.49023.32812,1.91406.98438h.02734v-.81348h2.16016v6.2002ZM462.5792,18.56561v-.55371c0-.44189-.13086-.81934-.39307-1.13135s-.60254-.46826-1.02197-.46826c-.47852,0-.85449.18701-1.12793.56055s-.41016.8999-.41016,1.5791c0,.5835.12988,1.04492.38965,1.38428s.61523.50928,1.06641.50928c.44678,0,.80762-.17188,1.0835-.51611s.41357-.79883.41357-1.36377Z" fill="#2f2f2f"/>
        <path d="M472.80576,19.04413h-4.56641c.07275,1.01611.71338,1.52441,1.9209,1.52441.77002,0,1.44678-.18213,2.03027-.54688v1.55859c-.64697.34619-1.48779.51953-2.52246.51953-1.13037,0-2.00732-.31348-2.63184-.93994s-.93652-1.50049-.93652-2.62158c0-1.16211.3374-2.08252,1.01172-2.76172s1.50391-1.01855,2.48828-1.01855c1.021,0,1.81055.30322,2.36865.90918s.8374,1.42871.8374,2.46777v.90918ZM470.80283,17.71795c0-1.00244-.40576-1.50391-1.2168-1.50391-.34619,0-.646.14355-.89893.43066s-.40674.64502-.46143,1.07324h2.57715Z" fill="#2f2f2f"/>
        <path d="M478.37119,21.84686c-.31885.16846-.7998.25293-1.44238.25293-1.52197,0-2.2832-.79053-2.2832-2.37207v-3.20605h-1.13477v-1.59277h1.13477v-1.51074l2.15332-.61523v2.12598h1.57227v1.59277h-1.57227v2.83008c0,.729.28955,1.09375.86816,1.09375.22803,0,.4624-.06592.7041-.19824v1.59961Z" fill="#2f2f2f"/>
        <path d="M443.81455,32.86346c-.1958-.15039-.47852-.22559-.84766-.22559-.47852,0-.87842.22559-1.19971.67676s-.48193,1.06641-.48193,1.8457v3.56836h-1.12109v-7h1.12109v1.44238h.02734c.15967-.49219.40332-.87598.73145-1.15186s.69482-.41357,1.10059-.41357c.2915,0,.51514.03174.66992.0957v1.16211Z" fill="#2f2f2f"/>
        <path d="M450.65732,35.50897h-4.94238c.01807.7793.22803,1.38086.62891,1.80469s.95264.63574,1.6543.63574c.78857,0,1.51318-.25977,2.17383-.7793v1.05273c-.61523.44678-1.42871.66992-2.44043.66992-.98877,0-1.76611-.31787-2.33105-.95361s-.84766-1.53027-.84766-2.68311c0-1.08936.30859-1.97656.92627-2.6626s1.38428-1.02881,2.30029-1.02881,1.62451.29639,2.12598.88867.75195,1.41504.75195,2.46777v.58789ZM449.50888,34.55877c-.00439-.64697-.16064-1.15088-.46826-1.51074s-.73486-.54004-1.28174-.54004c-.52881,0-.97754.18896-1.34668.56738s-.59717.87256-.68359,1.4834h3.78027Z" fill="#2f2f2f"/>
        <path d="M458.358,38.16815c0,2.57031-1.23047,3.85547-3.69141,3.85547-.86572,0-1.62256-.16406-2.26953-.49219v-1.12109c.78857.4375,1.54053.65625,2.25586.65625,1.72266,0,2.58398-.91602,2.58398-2.74805v-.76562h-.02734c-.5332.89307-1.33545,1.33984-2.40625,1.33984-.87061,0-1.57129-.31104-2.10205-.93311s-.79639-1.45703-.79639-2.50537c0-1.18945.28613-2.13525.85791-2.83691s1.35449-1.05273,2.34814-1.05273c.94336,0,1.64307.37842,2.09863,1.13477h.02734v-.9707h1.12109v6.43945ZM457.23691,35.56366v-1.03223c0-.55615-.18799-1.03223-.56396-1.42871s-.84424-.59473-1.40479-.59473c-.69287,0-1.23486.25195-1.62695.75537s-.58789,1.20898-.58789,2.11572c0,.7793.18799,1.40234.56396,1.86963s.87402.70068,1.49365.70068c.62891,0,1.14062-.22314,1.53467-.66992s.59131-1.01855.59131-1.71582Z" fill="#2f2f2f"/>
        <path d="M461.04795,29.95135c-.20068,0-.37158-.06836-.5127-.20508s-.21191-.31006-.21191-.51953.0708-.38379.21191-.52295.31201-.2085.5127-.2085c.20508,0,.37939.06934.52295.2085s.21533.31348.21533.52295c0,.20068-.07178.37158-.21533.5127s-.31787.21191-.52295.21191ZM461.59482,38.7287h-1.12109v-7h1.12109v7Z" fill="#2f2f2f"/>
        <path d="M466.68906,38.89276c-1.03467,0-1.86035-.32715-2.47803-.98096s-.92627-1.521-.92627-2.60107c0-1.17578.32129-2.09424.96387-2.75488s1.51074-.99121,2.60449-.99121c1.04346,0,1.8584.32129,2.44385.96387s.87842,1.53369.87842,2.67285c0,1.1167-.31543,2.01074-.94678,2.68311s-1.47754,1.0083-2.53955,1.0083ZM466.77109,32.50799c-.72021,0-1.28955.24512-1.70898.73486s-.62891,1.16553-.62891,2.02686c0,.82959.21191,1.4834.63574,1.96191s.99121.71777,1.70215.71777c.72461,0,1.28174-.23486,1.67139-.7041s.58447-1.13721.58447-2.00293c0-.875-.19482-1.54932-.58447-2.02344s-.94678-.71094-1.67139-.71094Z" fill="#2f2f2f"/>
        <path d="M477.70127,38.7287h-1.12109v-3.99219c0-1.48584-.54248-2.22852-1.62695-2.22852-.56055,0-1.02441.21094-1.39111.63232s-.55029.95361-.55029,1.59619v3.99219h-1.12109v-7h1.12109v1.16211h.02734c.52881-.88428,1.29443-1.32617,2.29688-1.32617.76562,0,1.35107.24707,1.75684.7417s.6084,1.20898.6084,2.14307v4.2793Z" fill="#2f2f2f"/>
      </g>
      <g>
        <rect x="193.82147" y="121.62743" width="102.25714" height="33.6" fill="none"/>
        <path d="M204.6832,131.59442v-1.35352c.15527.13672.34082.25977.55762.36914.21582.10938.44336.20166.68359.27686.23828.0752.47949.1333.7207.17432s.46484.06152.66992.06152c.70605,0,1.23438-.13086,1.58203-.39307.34961-.26221.52344-.63916.52344-1.13135,0-.26416-.05859-.49463-.17383-.69043-.11719-.1958-.27734-.375-.48242-.53662s-.44727-.31689-.72852-.46484c-.2793-.14795-.58203-.3042-.90527-.46826-.3418-.17334-.66113-.34863-.95703-.52637s-.55371-.37354-.77246-.58789-.39062-.45703-.51562-.72803c-.12598-.271-.18848-.58887-.18848-.95361,0-.44678.09766-.83496.29395-1.16553s.45312-.60254.77246-.81689.68262-.37354,1.09082-.47852c.40723-.10498.82324-.15723,1.24707-.15723.96582,0,1.66992.11621,2.1123.34863v1.29199c-.5791-.40088-1.32129-.60156-2.22852-.60156-.25098,0-.50098.02637-.75195.07861s-.47363.1377-.66992.25635-.35547.271-.47852.45801-.18457.41455-.18457.68359c0,.25049.04688.46729.13965.64941.09375.18213.23145.34863.41406.49902s.4043.29639.66602.4375c.2627.14111.56445.29639.90625.46484.35059.17334.68359.35547.99805.54688s.58984.40332.82715.63574.4248.48975.56348.77246c.13965.28271.20898.60596.20898.9707,0,.48291-.09473.89209-.2832,1.22705-.18945.33496-.44531.60742-.76562.81689-.32227.20947-.69238.36133-1.11133.45459s-.86133.14014-1.32617.14014c-.15527,0-.34668-.0127-.57422-.0376s-.45996-.06152-.69727-.10938-.46094-.10693-.67383-.17773c-.21094-.0708-.38086-.14941-.50879-.23584Z" fill="#2f2f2f"/>
        <path d="M212.79257,123.21356c-.2002,0-.37109-.06836-.5127-.20508s-.21191-.31006-.21191-.51953.07031-.38379.21191-.52295.3125-.2085.5127-.2085c.20508,0,.37891.06934.52344.2085.14258.13916.21484.31348.21484.52295,0,.20068-.07227.37158-.21484.5127-.14453.14111-.31836.21191-.52344.21191ZM213.33945,131.9909h-1.12109v-7h1.12109v7Z" fill="#2f2f2f"/>
        <path d="M218.78769,131.92254c-.26465.146-.61328.21875-1.0459.21875-1.22559,0-1.83887-.68359-1.83887-2.05078v-4.14258h-1.20312v-.95703h1.20312v-1.70898l1.12109-.3623v2.07129h1.76367v.95703h-1.76367v3.94434c0,.46924.08008.8042.23926,1.00488s.42383.30078.79297.30078c.28223,0,.52637-.07764.73145-.23242v.95703Z" fill="#2f2f2f"/>
        <path d="M225.77988,128.77118h-4.94238c.01855.7793.22754,1.38086.62891,1.80469s.95215.63574,1.6543.63574c.78809,0,1.5127-.25977,2.17383-.7793v1.05273c-.61523.44678-1.42871.66992-2.44043.66992-.98926,0-1.76562-.31787-2.33105-.95361s-.84766-1.53027-.84766-2.68311c0-1.08936.30859-1.97656.92578-2.6626.61816-.68604,1.38477-1.02881,2.30078-1.02881s1.625.29639,2.12598.88867.75195,1.41504.75195,2.46777v.58789ZM224.63144,127.82098c-.00488-.64697-.16113-1.15088-.46777-1.51074-.30859-.35986-.73535-.54004-1.28223-.54004-.52832,0-.97754.18896-1.34668.56738s-.59668.87256-.68359,1.4834h3.78027Z" fill="#2f2f2f"/>
        <path d="M238.48789,131.9909h-1.36719l-1.64062-2.74805c-.15039-.25537-.2959-.47266-.4375-.65283s-.28613-.32715-.43359-.44092c-.14844-.11377-.30859-.19727-.47852-.24951-.17188-.05225-.36426-.07861-.57812-.07861h-.94336v4.16992h-1.14844v-9.80273h2.92578c.42871,0,.82422.05371,1.18555.16064.36328.10693.67773.27002.94336.48877.26758.21875.47559.49121.62598.81689s.22559.70752.22559,1.14502c0,.3418-.05078.65527-.1543.93994-.10156.28467-.24805.53906-.4375.76221-.18848.22314-.41602.41357-.68359.5708-.26562.15723-.56543.2793-.89844.36572v.02734c.16406.07275.30664.15625.42773.24951.12012.09326.23535.2041.34473.33154s.21777.27246.3252.43408c.10645.16162.22656.34961.3584.56396l1.83887,2.94629ZM232.60898,123.22723v3.55469h1.55859c.28711,0,.55273-.04346.79688-.12988.24316-.08643.4541-.21094.63184-.37256s.31641-.35986.41699-.59473.15039-.49805.15039-.78955c0-.52393-.16992-.93311-.50977-1.22705-.33887-.29395-.83008-.44092-1.47266-.44092h-1.57227Z" fill="#2f2f2f"/>
        <path d="M245.10019,128.77118h-4.94238c.01855.7793.22754,1.38086.62891,1.80469s.95215.63574,1.6543.63574c.78809,0,1.5127-.25977,2.17383-.7793v1.05273c-.61523.44678-1.42871.66992-2.44043.66992-.98926,0-1.76562-.31787-2.33105-.95361s-.84766-1.53027-.84766-2.68311c0-1.08936.30859-1.97656.92578-2.6626.61816-.68604,1.38477-1.02881,2.30078-1.02881s1.625.29639,2.12598.88867.75195,1.41504.75195,2.46777v.58789ZM243.95175,127.82098c-.00488-.64697-.16113-1.15088-.46777-1.51074-.30859-.35986-.73535-.54004-1.28223-.54004-.52832,0-.97754.18896-1.34668.56738s-.59668.87256-.68359,1.4834h3.78027Z" fill="#2f2f2f"/>
        <path d="M251.59824,131.66961c-.53809.32373-1.17578.48535-1.91406.48535-.99805,0-1.80371-.32471-2.41602-.97412-.61328-.64941-.91992-1.49121-.91992-2.52588,0-1.15283.33008-2.0791.99121-2.77881s1.54297-1.04932,2.64551-1.04932c.61523,0,1.15723.11377,1.62695.3418v1.14844c-.51953-.36475-1.0752-.54688-1.66797-.54688-.71582,0-1.30273.25635-1.75977.76904-.45898.5127-.6875,1.18604-.6875,2.02002,0,.82031.21484,1.46729.64648,1.94141.42969.47412,1.00781.71094,1.73242.71094.61035,0,1.18457-.20264,1.72266-.6084v1.06641Z" fill="#2f2f2f"/>
        <path d="M256.03867,132.15497c-1.03418,0-1.86035-.32715-2.47852-.98096-.61719-.65381-.92578-1.521-.92578-2.60107,0-1.17578.32129-2.09424.96387-2.75488s1.51074-.99121,2.60449-.99121c1.04395,0,1.8584.32129,2.44336.96387.58594.64258.87891,1.53369.87891,2.67285,0,1.1167-.31543,2.01074-.94727,2.68311-.63086.67236-1.47754,1.0083-2.53906,1.0083ZM256.1207,125.7702c-.71973,0-1.29004.24512-1.70898.73486s-.62891,1.16553-.62891,2.02686c0,.82959.21191,1.4834.63574,1.96191s.99121.71777,1.70215.71777c.72461,0,1.28125-.23486,1.67188-.7041.38867-.46924.58398-1.13721.58398-2.00293,0-.875-.19531-1.54932-.58398-2.02344-.39062-.47412-.94727-.71094-1.67188-.71094Z" fill="#2f2f2f"/>
        <path d="M266.66074,124.9909l-2.78906,7h-1.10059l-2.65234-7h1.23047l1.77734,5.08594c.13184.37354.21387.69971.24609.97754h.02734c.0459-.35107.11816-.66748.21875-.9502l1.85938-5.11328h1.18262Z" fill="#2f2f2f"/>
        <path d="M273.30234,128.77118h-4.94238c.01855.7793.22754,1.38086.62891,1.80469s.95215.63574,1.6543.63574c.78809,0,1.5127-.25977,2.17383-.7793v1.05273c-.61523.44678-1.42871.66992-2.44043.66992-.98926,0-1.76562-.31787-2.33105-.95361s-.84766-1.53027-.84766-2.68311c0-1.08936.30859-1.97656.92578-2.6626.61816-.68604,1.38477-1.02881,2.30078-1.02881s1.625.29639,2.12598.88867.75195,1.41504.75195,2.46777v.58789ZM272.1539,127.82098c-.00488-.64697-.16113-1.15088-.46777-1.51074-.30859-.35986-.73535-.54004-1.28223-.54004-.52832,0-.97754.18896-1.34668.56738s-.59668.87256-.68359,1.4834h3.78027Z" fill="#2f2f2f"/>
        <path d="M278.63535,126.12567c-.19629-.15039-.47852-.22559-.84766-.22559-.47852,0-.87891.22559-1.19922.67676-.32227.45117-.48242,1.06641-.48242,1.8457v3.56836h-1.12109v-7h1.12109v1.44238h.02734c.15918-.49219.40332-.87598.73145-1.15186s.69531-.41357,1.10059-.41357c.29199,0,.51465.03174.66992.0957v1.16211Z" fill="#2f2f2f"/>
        <path d="M285.97617,124.9909l-3.21973,8.12109c-.57422,1.44922-1.38086,2.17383-2.41992,2.17383-.29199,0-.53516-.02979-.73145-.08887v-1.00488c.24121.08203.46289.12305.66309.12305.56543,0,.98926-.3374,1.27148-1.01172l.56055-1.32617-2.73438-6.98633h1.24414l1.89355,5.38672c.02246.06836.07031.24609.14355.5332h.04102c.02246-.10938.06836-.28271.13672-.51953l1.98926-5.40039h1.16211Z" fill="#2f2f2f"/>
        <path d="M217.56797,142.92547c-.19629-.15039-.47852-.22559-.84766-.22559-.47852,0-.87891.22559-1.19922.67676-.32227.45117-.48242,1.06641-.48242,1.8457v3.56836h-1.12109v-7h1.12109v1.44238h.02734c.15918-.49219.40332-.87598.73145-1.15186s.69531-.41357,1.10059-.41357c.29199,0,.51465.03174.66992.0957v1.16211Z" fill="#2f2f2f"/>
        <path d="M224.41074,145.57098h-4.94238c.01855.7793.22754,1.38086.62891,1.80469s.95215.63574,1.6543.63574c.78809,0,1.5127-.25977,2.17383-.7793v1.05273c-.61523.44678-1.42871.66992-2.44043.66992-.98926,0-1.76562-.31787-2.33105-.95361s-.84766-1.53027-.84766-2.68311c0-1.08936.30859-1.97656.92578-2.6626.61816-.68604,1.38477-1.02881,2.30078-1.02881s1.625.29639,2.12598.88867.75195,1.41504.75195,2.46777v.58789ZM223.2623,144.62079c-.00488-.64697-.16113-1.15088-.46777-1.51074-.30859-.35986-.73535-.54004-1.28223-.54004-.52832,0-.97754.18896-1.34668.56738s-.59668.87256-.68359,1.4834h3.78027Z" fill="#2f2f2f"/>
        <path d="M227.24179,147.77899h-.02734v4.23145h-1.12109v-10.21973h1.12109v1.23047h.02734c.55176-.92969,1.3584-1.39453,2.41992-1.39453.90234,0,1.60645.31348,2.1123.93994s.75879,1.46631.75879,2.51904c0,1.17139-.28516,2.10889-.85449,2.81299s-1.34863,1.05615-2.33789,1.05615c-.90723,0-1.60645-.39209-2.09863-1.17578ZM227.21445,144.95575v.97754c0,.57861.1875,1.06982.56445,1.47314.375.40332.85254.60498,1.43164.60498.67871,0,1.21094-.25977,1.5957-.7793.38574-.51953.57812-1.2417.57812-2.16699,0-.7793-.17969-1.39014-.54004-1.83203s-.84766-.66309-1.46289-.66309c-.65137,0-1.17578.22656-1.57227.68018s-.59473,1.02197-.59473,1.70557Z" fill="#2f2f2f"/>
        <path d="M235.3834,148.79071h-1.12109v-10.36328h1.12109v10.36328Z" fill="#2f2f2f"/>
        <path d="M238.06992,140.01336c-.2002,0-.37109-.06836-.5127-.20508s-.21191-.31006-.21191-.51953.07031-.38379.21191-.52295.3125-.2085.5127-.2085c.20508,0,.37891.06934.52344.2085.14258.13916.21484.31348.21484.52295,0,.20068-.07227.37158-.21484.5127-.14453.14111-.31836.21191-.52344.21191ZM238.61679,148.79071h-1.12109v-7h1.12109v7Z" fill="#2f2f2f"/>
        <path d="M245.52988,148.46942c-.53809.32373-1.17578.48535-1.91406.48535-.99805,0-1.80371-.32471-2.41602-.97412-.61328-.64941-.91992-1.49121-.91992-2.52588,0-1.15283.33008-2.0791.99121-2.77881s1.54297-1.04932,2.64551-1.04932c.61523,0,1.15723.11377,1.62695.3418v1.14844c-.51953-.36475-1.0752-.54688-1.66797-.54688-.71582,0-1.30273.25635-1.75977.76904-.45898.5127-.6875,1.18604-.6875,2.02002,0,.82031.21484,1.46729.64648,1.94141.42969.47412,1.00781.71094,1.73242.71094.61035,0,1.18457-.20264,1.72266-.6084v1.06641Z" fill="#2f2f2f"/>
        <path d="M252.27304,148.79071h-1.12109v-1.09375h-.02734c-.4873.83838-1.20508,1.25781-2.15332,1.25781-.69727,0-1.24316-.18457-1.63672-.55371-.39453-.36914-.5918-.85889-.5918-1.46973,0-1.30811.77051-2.06885,2.31055-2.2832l2.09863-.29395c0-1.18945-.48047-1.78418-1.44238-1.78418-.84277,0-1.60449.28711-2.2832.86133v-1.14844c.68848-.4375,1.48145-.65625,2.37891-.65625,1.64551,0,2.46777.87061,2.46777,2.61133v4.55273ZM251.15195,145.24969l-1.68848.23242c-.51953.07275-.91113.20166-1.17578.38623s-.39648.51172-.39648.98096c0,.3418.12207.62109.36523.8374.24414.21631.56934.32471.97461.32471.55566,0,1.01562-.19482,1.37695-.58447.36328-.38965.54395-.88281.54395-1.47998v-.69727Z" fill="#2f2f2f"/>
        <path d="M257.53183,148.72235c-.26465.146-.61328.21875-1.0459.21875-1.22559,0-1.83887-.68359-1.83887-2.05078v-4.14258h-1.20312v-.95703h1.20312v-1.70898l1.12109-.3623v2.07129h1.76367v.95703h-1.76367v3.94434c0,.46924.08008.8042.23926,1.00488s.42383.30078.79297.30078c.28223,0,.52637-.07764.73145-.23242v.95703Z" fill="#2f2f2f"/>
        <path d="M259.48691,140.01336c-.2002,0-.37109-.06836-.5127-.20508s-.21191-.31006-.21191-.51953.07031-.38379.21191-.52295.3125-.2085.5127-.2085c.20508,0,.37891.06934.52344.2085.14258.13916.21484.31348.21484.52295,0,.20068-.07227.37158-.21484.5127-.14453.14111-.31836.21191-.52344.21191ZM260.03379,148.79071h-1.12109v-7h1.12109v7Z" fill="#2f2f2f"/>
        <path d="M265.12851,148.95477c-1.03418,0-1.86035-.32715-2.47852-.98096-.61719-.65381-.92578-1.521-.92578-2.60107,0-1.17578.32129-2.09424.96387-2.75488s1.51074-.99121,2.60449-.99121c1.04395,0,1.8584.32129,2.44336.96387.58594.64258.87891,1.53369.87891,2.67285,0,1.1167-.31543,2.01074-.94727,2.68311-.63086.67236-1.47754,1.0083-2.53906,1.0083ZM265.21054,142.57c-.71973,0-1.29004.24512-1.70898.73486s-.62891,1.16553-.62891,2.02686c0,.82959.21191,1.4834.63574,1.96191s.99121.71777,1.70215.71777c.72461,0,1.28125-.23486,1.67188-.7041.38867-.46924.58398-1.13721.58398-2.00293,0-.875-.19531-1.54932-.58398-2.02344-.39062-.47412-.94727-.71094-1.67188-.71094Z" fill="#2f2f2f"/>
        <path d="M276.14023,148.79071h-1.12109v-3.99219c0-1.48584-.54199-2.22852-1.62695-2.22852-.56055,0-1.02441.21094-1.39062.63232-.36719.42139-.55078.95361-.55078,1.59619v3.99219h-1.12109v-7h1.12109v1.16211h.02734c.52832-.88428,1.29395-1.32617,2.29688-1.32617.76562,0,1.35156.24707,1.75684.7417s.6084,1.20898.6084,2.14307v4.2793Z" fill="#2f2f2f"/>
      </g>
      <g>
        <rect x="334.92546" y="185.42743" width="123.2" height="33.6" fill="none"/>
        <path d="M350.15097,195.79071h-1.36719l-1.64062-2.74805c-.15039-.25537-.2959-.47266-.4375-.65283s-.28613-.32715-.43359-.44092c-.14844-.11377-.30859-.19727-.47852-.24951-.17188-.05225-.36426-.07861-.57812-.07861h-.94336v4.16992h-1.14844v-9.80273h2.92578c.42871,0,.82422.05371,1.18555.16064.36328.10693.67773.27002.94336.48877.26758.21875.47559.49121.62598.81689s.22559.70752.22559,1.14502c0,.3418-.05078.65527-.1543.93994-.10156.28467-.24805.53906-.4375.76221-.18848.22314-.41602.41357-.68359.5708-.26562.15723-.56543.2793-.89844.36572v.02734c.16406.07275.30664.15625.42773.24951.12012.09326.23535.2041.34473.33154s.21777.27246.3252.43408c.10645.16162.22656.34961.3584.56396l1.83887,2.94629ZM344.27207,187.02704v3.55469h1.55859c.28711,0,.55273-.04346.79688-.12988.24316-.08643.4541-.21094.63184-.37256s.31641-.35986.41699-.59473.15039-.49805.15039-.78955c0-.52393-.16992-.93311-.50977-1.22705-.33887-.29395-.83008-.44092-1.47266-.44092h-1.57227Z" fill="#2f2f2f"/>
        <path d="M356.76328,192.57098h-4.94238c.01855.7793.22754,1.38086.62891,1.80469s.95215.63574,1.6543.63574c.78809,0,1.5127-.25977,2.17383-.7793v1.05273c-.61523.44678-1.42871.66992-2.44043.66992-.98926,0-1.76562-.31787-2.33105-.95361s-.84766-1.53027-.84766-2.68311c0-1.08936.30859-1.97656.92578-2.6626.61816-.68604,1.38477-1.02881,2.30078-1.02881s1.625.29639,2.12598.88867.75195,1.41504.75195,2.46777v.58789ZM355.61484,191.62079c-.00488-.64697-.16113-1.15088-.46777-1.51074-.30859-.35986-.73535-.54004-1.28223-.54004-.52832,0-.97754.18896-1.34668.56738s-.59668.87256-.68359,1.4834h3.78027Z" fill="#2f2f2f"/>
        <path d="M363.26035,195.46942c-.53809.32373-1.17578.48535-1.91406.48535-.99805,0-1.80371-.32471-2.41602-.97412-.61328-.64941-.91992-1.49121-.91992-2.52588,0-1.15283.33008-2.0791.99121-2.77881s1.54297-1.04932,2.64551-1.04932c.61523,0,1.15723.11377,1.62695.3418v1.14844c-.51953-.36475-1.0752-.54688-1.66797-.54688-.71582,0-1.30273.25635-1.75977.76904-.45898.5127-.6875,1.18604-.6875,2.02002,0,.82031.21484,1.46729.64648,1.94141.42969.47412,1.00781.71094,1.73242.71094.61035,0,1.18457-.20264,1.72266-.6084v1.06641Z" fill="#2f2f2f"/>
        <path d="M367.70175,195.95477c-1.03418,0-1.86035-.32715-2.47852-.98096-.61719-.65381-.92578-1.521-.92578-2.60107,0-1.17578.32129-2.09424.96387-2.75488s1.51074-.99121,2.60449-.99121c1.04395,0,1.8584.32129,2.44336.96387.58594.64258.87891,1.53369.87891,2.67285,0,1.1167-.31543,2.01074-.94727,2.68311-.63086.67236-1.47754,1.0083-2.53906,1.0083ZM367.78379,189.57c-.71973,0-1.29004.24512-1.70898.73486s-.62891,1.16553-.62891,2.02686c0,.82959.21191,1.4834.63574,1.96191s.99121.71777,1.70215.71777c.72461,0,1.28125-.23486,1.67188-.7041.38867-.46924.58398-1.13721.58398-2.00293,0-.875-.19531-1.54932-.58398-2.02344-.39062-.47412-.94727-.71094-1.67188-.71094Z" fill="#2f2f2f"/>
        <path d="M378.32382,188.79071l-2.78906,7h-1.10059l-2.65234-7h1.23047l1.77734,5.08594c.13184.37354.21387.69971.24609.97754h.02734c.0459-.35107.11816-.66748.21875-.9502l1.85938-5.11328h1.18262Z" fill="#2f2f2f"/>
        <path d="M384.96445,192.57098h-4.94238c.01855.7793.22754,1.38086.62891,1.80469s.95215.63574,1.6543.63574c.78809,0,1.5127-.25977,2.17383-.7793v1.05273c-.61523.44678-1.42871.66992-2.44043.66992-.98926,0-1.76562-.31787-2.33105-.95361s-.84766-1.53027-.84766-2.68311c0-1.08936.30859-1.97656.92578-2.6626.61816-.68604,1.38477-1.02881,2.30078-1.02881s1.625.29639,2.12598.88867.75195,1.41504.75195,2.46777v.58789ZM383.81601,191.62079c-.00488-.64697-.16113-1.15088-.46777-1.51074-.30859-.35986-.73535-.54004-1.28223-.54004-.52832,0-.97754.18896-1.34668.56738s-.59668.87256-.68359,1.4834h3.78027Z" fill="#2f2f2f"/>
        <path d="M390.29843,189.92547c-.19629-.15039-.47852-.22559-.84766-.22559-.47852,0-.87891.22559-1.19922.67676-.32227.45117-.48242,1.06641-.48242,1.8457v3.56836h-1.12109v-7h1.12109v1.44238h.02734c.15918-.49219.40332-.87598.73145-1.15186s.69531-.41357,1.10059-.41357c.29199,0,.51465.03174.66992.0957v1.16211Z" fill="#2f2f2f"/>
        <path d="M397.63925,188.79071l-3.21973,8.12109c-.57422,1.44922-1.38086,2.17383-2.41992,2.17383-.29199,0-.53516-.02979-.73145-.08887v-1.00488c.24121.08203.46289.12305.66309.12305.56543,0,.98926-.3374,1.27148-1.01172l.56055-1.32617-2.73438-6.98633h1.24414l1.89355,5.38672c.02246.06836.07031.24609.14355.5332h.04102c.02246-.10938.06836-.28271.13672-.51953l1.98926-5.40039h1.16211Z" fill="#2f2f2f"/>
        <path d="M402.36972,195.39422v-1.35352c.15527.13672.34082.25977.55762.36914.21582.10938.44336.20166.68359.27686.23828.0752.47949.1333.7207.17432s.46484.06152.66992.06152c.70605,0,1.23438-.13086,1.58203-.39307.34961-.26221.52344-.63916.52344-1.13135,0-.26416-.05859-.49463-.17383-.69043-.11719-.1958-.27734-.375-.48242-.53662s-.44727-.31689-.72852-.46484c-.2793-.14795-.58203-.3042-.90527-.46826-.3418-.17334-.66113-.34863-.95703-.52637s-.55371-.37354-.77246-.58789-.39062-.45703-.51562-.72803c-.12598-.271-.18848-.58887-.18848-.95361,0-.44678.09766-.83496.29395-1.16553s.45312-.60254.77246-.81689.68262-.37354,1.09082-.47852c.40723-.10498.82324-.15723,1.24707-.15723.96582,0,1.66992.11621,2.1123.34863v1.29199c-.5791-.40088-1.32129-.60156-2.22852-.60156-.25098,0-.50098.02637-.75195.07861s-.47363.1377-.66992.25635-.35547.271-.47852.45801-.18457.41455-.18457.68359c0,.25049.04688.46729.13965.64941.09375.18213.23145.34863.41406.49902s.4043.29639.66602.4375c.2627.14111.56445.29639.90625.46484.35059.17334.68359.35547.99805.54688s.58984.40332.82715.63574.4248.48975.56348.77246c.13965.28271.20898.60596.20898.9707,0,.48291-.09473.89209-.2832,1.22705-.18945.33496-.44531.60742-.76562.81689-.32227.20947-.69238.36133-1.11133.45459s-.86133.14014-1.32617.14014c-.15527,0-.34668-.0127-.57422-.0376s-.45996-.06152-.69727-.10938-.46094-.10693-.67383-.17773c-.21094-.0708-.38086-.14941-.50879-.23584Z" fill="#2f2f2f"/>
        <path d="M415.69199,192.57098h-4.94238c.01855.7793.22754,1.38086.62891,1.80469s.95215.63574,1.6543.63574c.78809,0,1.5127-.25977,2.17383-.7793v1.05273c-.61523.44678-1.42871.66992-2.44043.66992-.98926,0-1.76562-.31787-2.33105-.95361s-.84766-1.53027-.84766-2.68311c0-1.08936.30859-1.97656.92578-2.6626.61816-.68604,1.38477-1.02881,2.30078-1.02881s1.625.29639,2.12598.88867.75195,1.41504.75195,2.46777v.58789ZM414.54355,191.62079c-.00488-.64697-.16113-1.15088-.46777-1.51074-.30859-.35986-.73535-.54004-1.28223-.54004-.52832,0-.97754.18896-1.34668.56738s-.59668.87256-.68359,1.4834h3.78027Z" fill="#2f2f2f"/>
        <path d="M421.025,189.92547c-.19629-.15039-.47852-.22559-.84766-.22559-.47852,0-.87891.22559-1.19922.67676-.32227.45117-.48242,1.06641-.48242,1.8457v3.56836h-1.12109v-7h1.12109v1.44238h.02734c.15918-.49219.40332-.87598.73145-1.15186s.69531-.41357,1.10059-.41357c.29199,0,.51465.03174.66992.0957v1.16211Z" fill="#2f2f2f"/>
        <path d="M428.29746,188.79071l-2.78906,7h-1.10059l-2.65234-7h1.23047l1.77734,5.08594c.13184.37354.21387.69971.24609.97754h.02734c.0459-.35107.11816-.66748.21875-.9502l1.85938-5.11328h1.18262Z" fill="#2f2f2f"/>
        <path d="M430.11289,187.01336c-.2002,0-.37109-.06836-.5127-.20508s-.21191-.31006-.21191-.51953.07031-.38379.21191-.52295.3125-.2085.5127-.2085c.20508,0,.37891.06934.52344.2085.14258.13916.21484.31348.21484.52295,0,.20068-.07227.37158-.21484.5127-.14453.14111-.31836.21191-.52344.21191ZM430.65976,195.79071h-1.12109v-7h1.12109v7Z" fill="#2f2f2f"/>
        <path d="M437.57187,195.46942c-.53809.32373-1.17578.48535-1.91406.48535-.99805,0-1.80371-.32471-2.41602-.97412-.61328-.64941-.91992-1.49121-.91992-2.52588,0-1.15283.33008-2.0791.99121-2.77881s1.54297-1.04932,2.64551-1.04932c.61523,0,1.15723.11377,1.62695.3418v1.14844c-.51953-.36475-1.0752-.54688-1.66797-.54688-.71582,0-1.30273.25635-1.75977.76904-.45898.5127-.6875,1.18604-.6875,2.02002,0,.82031.21484,1.46729.64648,1.94141.42969.47412,1.00781.71094,1.73242.71094.61035,0,1.18457-.20264,1.72266-.6084v1.06641Z" fill="#2f2f2f"/>
        <path d="M444.74179,192.57098h-4.94238c.01855.7793.22754,1.38086.62891,1.80469s.95215.63574,1.6543.63574c.78809,0,1.5127-.25977,2.17383-.7793v1.05273c-.61523.44678-1.42871.66992-2.44043.66992-.98926,0-1.76562-.31787-2.33105-.95361s-.84766-1.53027-.84766-2.68311c0-1.08936.30859-1.97656.92578-2.6626.61816-.68604,1.38477-1.02881,2.30078-1.02881s1.625.29639,2.12598.88867.75195,1.41504.75195,2.46777v.58789ZM443.59336,191.62079c-.00488-.64697-.16113-1.15088-.46777-1.51074-.30859-.35986-.73535-.54004-1.28223-.54004-.52832,0-.97754.18896-1.34668.56738s-.59668.87256-.68359,1.4834h3.78027Z" fill="#2f2f2f"/>
        <path d="M445.98398,195.53778v-1.20312c.61035.45117,1.2832.67676,2.0166.67676.98438,0,1.47656-.32812,1.47656-.98438,0-.18701-.04199-.34521-.12598-.4751-.08496-.12988-.19922-.24512-.3418-.34521-.14453-.1001-.3125-.19043-.50586-.27002-.19434-.07959-.40234-.16309-.62598-.24951-.30957-.12305-.58203-.24707-.81738-.37256-.23438-.12549-.42969-.2666-.58789-.42383-.15625-.15723-.27539-.33594-.35547-.53662-.0791-.20068-.11914-.43506-.11914-.7041,0-.32812.0752-.61865.22559-.87158s.35059-.46484.60156-.63574.53613-.2998.8584-.38623c.32031-.08643.65234-.12988.99414-.12988.60645,0,1.14844.10498,1.62695.31445v1.13477c-.51465-.3374-1.10742-.50586-1.77734-.50586-.20996,0-.39844.02393-.56738.07178s-.31348.11523-.43457.20166c-.12012.08643-.21387.19043-.2793.31104-.06641.12061-.09961.25391-.09961.3999,0,.18213.0332.33496.09961.45801.06543.12305.16211.23242.29004.32812s.28223.18213.46484.25977.38965.16162.62207.25293c.30957.11865.58789.24023.83398.36572s.45605.2666.62891.42383.30664.33838.40039.54346c.09277.20508.13965.44873.13965.73145,0,.34619-.07617.64697-.22949.90234-.15234.25537-.35645.46729-.61133.63574s-.54883.29395-.88184.37598-.68164.12305-1.0459.12305c-.71973,0-1.34473-.13916-1.87305-.41699Z" fill="#2f2f2f"/>
        <path d="M388.40683,205.59051l-2.78906,7h-1.10059l-2.65234-7h1.23047l1.77734,5.08594c.13184.37354.21387.69971.24609.97754h.02734c.0459-.35107.11816-.66748.21875-.9502l1.85938-5.11328h1.18262Z" fill="#2f2f2f"/>
        <path d="M394.52402,212.59051h-1.12109v-1.09375h-.02734c-.4873.83838-1.20508,1.25781-2.15332,1.25781-.69727,0-1.24316-.18457-1.63672-.55371-.39453-.36914-.5918-.85889-.5918-1.46973,0-1.30811.77051-2.06885,2.31055-2.2832l2.09863-.29395c0-1.18945-.48047-1.78418-1.44238-1.78418-.84277,0-1.60449.28711-2.2832.86133v-1.14844c.68848-.4375,1.48145-.65625,2.37891-.65625,1.64551,0,2.46777.87061,2.46777,2.61133v4.55273ZM393.40293,209.0495l-1.68848.23242c-.51953.07275-.91113.20166-1.17578.38623s-.39648.51172-.39648.98096c0,.3418.12207.62109.36523.8374.24414.21631.56934.32471.97461.32471.55566,0,1.01562-.19482,1.37695-.58447.36328-.38965.54395-.88281.54395-1.47998v-.69727Z" fill="#2f2f2f"/>
        <path d="M402.24472,212.59051h-1.12109v-1.10742h-.02734c-.46484.84766-1.18457,1.27148-2.16016,1.27148-1.66797,0-2.50195-.99365-2.50195-2.98047v-4.18359h1.11426v4.00586c0,1.47656.56543,2.21484,1.69531,2.21484.54688,0,.99707-.20166,1.35059-.60498.35254-.40332.5293-.93066.5293-1.58252v-4.0332h1.12109v7Z" fill="#2f2f2f"/>
        <path d="M405.47129,212.59051h-1.12109v-10.36328h1.12109v10.36328Z" fill="#2f2f2f"/>
        <path d="M410.91953,212.52215c-.26465.146-.61328.21875-1.0459.21875-1.22559,0-1.83887-.68359-1.83887-2.05078v-4.14258h-1.20312v-.95703h1.20312v-1.70898l1.12109-.3623v2.07129h1.76367v.95703h-1.76367v3.94434c0,.46924.08008.8042.23926,1.00488s.42383.30078.79297.30078c.28223,0,.52637-.07764.73145-.23242v.95703Z" fill="#2f2f2f"/>
      </g>
    </g>
  </g>
</svg>