<?xml version="1.0" encoding="UTF-8"?>
<svg xmlns="http://www.w3.org/2000/svg" width="686.68193" height="277.59681" xmlns:xlink="http://www.w3.org/1999/xlink" viewBox="0 0 686.68193 277.59681">
  <defs>
    <radialGradient id="radial-gradient" cx="-589.78647" cy="414.09633" fx="-589.78647" fy="414.09633" r="10.56352" gradientTransform="translate(689.31636 604.29733) scale(1.036 -1.027)" gradientUnits="userSpaceOnUse">
      <stop offset=".183" stop-color="#5ea0ef"/>
      <stop offset="1" stop-color="#0078d4"/>
    </radialGradient>
    <clipPath id="clippath">
      <path d="M88.96966,176.49079c1.39707,5.8478-2.21095,11.72092-8.05875,13.118-5.8478,1.39707-11.72092-2.21095-13.118-8.05875-1.39707-5.8478,2.21095-11.72092,8.05875-13.118.00003,0,.00006-.00001.00009-.00002,5.84777-1.39701,11.72084,2.21101,13.1179,8.05877Z" fill="none"/>
    </clipPath>
    <linearGradient id="linear-gradient" x1="-367.18208" y1="488.3984" x2="-367.18208" y2="506.3984" gradientTransform="translate(564 565.59681) scale(1 -1)" gradientUnits="userSpaceOnUse">
      <stop offset="0" stop-color="#0078d4"/>
      <stop offset=".16" stop-color="#1380da"/>
      <stop offset=".53" stop-color="#3c91e5"/>
      <stop offset=".82" stop-color="#559cec"/>
      <stop offset="1" stop-color="#5ea0ef"/>
    </linearGradient>
    <linearGradient id="linear-gradient-2" x1="-62.58208" x2="-62.58208" xlink:href="#linear-gradient"/>
  </defs>
  <g id="Shapes">
    <rect width="686.68193" height="277.59681" fill="#fff"/>
    <g>
      <rect x="448.01772" y="8.7984" width="229" height="260" fill="#fff"/>
      <rect x="448.01772" y="8.7984" width="229" height="260" fill="#b2aaa1" opacity=".2"/>
      <rect x="448.01772" y="8.7984" width="229" height="260" fill="none" stroke="#8e8278" stroke-width=".25"/>
    </g>
    <g>
      <rect x="144.01772" y="8.7984" width="229" height="260" fill="#fff"/>
      <rect x="144.01772" y="8.7984" width="229" height="260" fill="#b2aaa1" opacity=".2"/>
      <rect x="144.01772" y="8.7984" width="229" height="260" fill="none" stroke="#8e8278" stroke-width=".25"/>
    </g>
    <g>
      <rect x="157.41772" y="47.7984" width="202" height="40" fill="#fff"/>
      <rect x="157.41772" y="47.7984" width="202" height="40" fill="none" stroke="#8e8278" stroke-width=".25"/>
    </g>
    <g>
      <rect x="8.01772" y="144.7984" width="669" height="110" fill="#fff"/>
      <rect x="8.01772" y="144.7984" width="669" height="110" fill="#0078d4" opacity=".05"/>
      <rect x="8.01772" y="144.7984" width="669" height="110" fill="none" stroke="#0078d4" stroke-width=".25"/>
    </g>
    <g>
      <path d="M67.6564,172.47471c-.17144.00098-.31122-.1372-.3122-.30865,0-.00119,0-.00237,0-.00356h0c-.00293-1.96698-1.59676-3.56081-3.56374-3.56374-.17174,0-.31123-.1387-.3122-.31043h0c0-.17243.13978-.3122.3122-.3122h0c1.96768-.00293,3.56179-1.59784,3.56374-3.56552-.00098-.17144.1372-.31122.30865-.3122.00119,0,.00237,0,.00356,0h0c.17144-.00098.31122.1372.3122.30865,0,.00119,0,.00237,0,.00356h0c.00293,1.96698,1.59676,3.56081,3.56374,3.56374.17144-.00098.31122.1372.3122.30865,0,.00119,0,.00237,0,.00356h0c.00098.17144-.1372.31122-.30865.3122-.00119,0-.00237,0-.00356,0h0c-1.96739.00196-3.56179,1.59635-3.56374,3.56374-.00097.17202-.14018.31123-.3122.3122Z" fill="#50e6ff"/>
      <path d="M90.1085,194.0984c-.13814,0-.25012-.11198-.25012-.25012h0c-.00195-1.57356-1.27708-2.84868-2.85064-2.85064-.13745,0-.24914-.1109-.25012-.24834h0c0-.13814.11198-.25012.25012-.25012h0c1.57396-.00098,2.84966-1.27668,2.85064-2.85064,0-.13814.11198-.25012.25012-.25012h0c.13814,0,.25012.11198.25012.25012h0c.00098,1.57396,1.27668,2.84966,2.85064,2.85064.13814-.00024.25031.11155.25055.24969.00024.13814-.11155.25031-.24969.25055h-.00086c-1.57356.00195-2.84868,1.27708-2.85064,2.85064-.00097.13744-.11267.24835-.25012.24835Z" fill="#50e6ff"/>
      <g>
        <path d="M88.96966,176.49079c1.39707,5.8478-2.21095,11.72092-8.05875,13.118-5.8478,1.39707-11.72092-2.21095-13.118-8.05875-1.39707-5.8478,2.21095-11.72092,8.05875-13.118.00003,0,.00006-.00001.00009-.00002,5.84777-1.39701,11.72084,2.21101,13.1179,8.05877Z" fill="url(#radial-gradient)"/>
        <g clip-path="url(#clippath)">
          <g>
            <path d="M72.54346,186.39796c1.60418.04203,2.9387-1.22435,2.98073-2.82853.04203-1.60418-1.22435-2.9387-2.82853-2.98073-.04777-.00125-.09556-.00132-.14333-.00022.00858-.0825.01272-.1654.01242-.24834-.01463-1.61401-1.33238-2.91192-2.94643-2.90208h-2.17833c-.43141,3.25836.60493,6.5402,2.82935,8.95991h2.27412Z" fill="#f2f2f2"/>
            <path d="M89.10448,176.99635c0-.02661,0-.05322-.01242-.07805-.35088-1.8982-1.21323-3.66461-2.49409-5.1088-.16617-.06732-.33764-.12072-.51265-.15965-1.70143-.48544-3.47423.50031-3.95967,2.20173-.06955.24378-.10993.49495-.12027.74824-.1178-.01361-.23621-.02131-.35478-.02306-1.70172-.00014-3.08135,1.37927-3.08149,3.081-.0001,1.30458.82138,2.46784,2.05086,2.9041.30565.11979.6314.18.95967.17739h3.60099c1.44591-1.0945,2.76235-2.35024,3.92384-3.7429Z" fill="#f2f2f2"/>
          </g>
        </g>
      </g>
      <path d="M92.91124,169.93095c-1.11578-1.85726-3.72517-2.58101-7.37051-2.0382-1.24896.177-2.48332.44498-3.69323.8018.95982.33136,1.87131.78889,2.7105,1.36057.42751-.09402.85679-.20577,1.26833-.26786.64741-.1008,1.3014-.15357,1.9566-.15788,1.30141-.18761,2.60932.29643,3.47505,1.28607h0c.6794,1.13174.10643,3.06705-1.57166,5.32166-2.33217,2.90283-5.19001,5.34063-8.4242,7.18602-3.16172,1.97332-6.66633,3.33448-10.33113,4.01254-2.77436.41509-4.75757,0-5.43697-1.12819s-.10643-3.06883,1.57166-5.31279c.20755-.2785.25899-.41509.49491-.69536-.11089-.96169-.09538-1.93377.04612-2.89144-.75417.75594-1.4481,1.56968-2.07545,2.43377-2.19785,2.93933-2.79387,5.58243-1.67987,7.43969,1.19762,1.60223,3.15726,2.44623,5.14428,2.21559.74309-.00394,1.48485-.06323,2.21913-.17739,3.91192-.714,7.6544-2.15828,11.03181-4.25733,3.44929-1.97396,6.49512-4.58107,8.97765-7.68448,2.20494-2.94643,2.80097-5.58775,1.68697-7.44678Z" fill="#50e6ff"/>
    </g>
    <path d="M194.11792,71.7984h5.4v5.4h-5.4v-5.4ZM187.81792,64.5984h5.4v-5.4h-4.64625c-.41628,0-.75375.33747-.75375.75375v4.64625ZM188.57167,77.1984h4.64625v-5.4h-5.4v4.64625c0,.41629.33747.75375.75375.75375h0ZM187.81792,70.8984h5.4v-5.4h-5.4v5.4ZM200.41792,77.1984h4.64625c.41629,0,.75375-.33746.75375-.75375h0v-4.64625h-5.4v5.4ZM194.11792,70.8984h5.4v-5.4h-5.4v5.4ZM200.41792,70.8984h5.4v-5.4h-5.4v5.4ZM200.41792,59.1984v5.4h5.4v-4.64625c0-.41628-.33746-.75375-.75375-.75375h-4.64625ZM194.11792,64.5984h5.4v-5.4h-5.4v5.4Z" fill="url(#linear-gradient)"/>
    <g>
      <rect x="177.01772" y="171.7984" width="162.8" height="57" fill="#fff"/>
      <rect x="177.01772" y="171.7984" width="162.8" height="57" fill="#590055" opacity=".1"/>
      <rect x="177.01772" y="171.7984" width="162.8" height="57" fill="none" stroke="#590055" stroke-width=".25"/>
    </g>
    <g>
      <rect x="480.61772" y="171.7984" width="162.8" height="57" fill="#fff"/>
      <rect x="480.61772" y="171.7984" width="162.8" height="57" fill="#590055" opacity=".1"/>
      <rect x="480.61772" y="171.7984" width="162.8" height="57" fill="none" stroke="#590055" stroke-width=".25"/>
    </g>
    <line x1="232.21772" y1="87.9984" x2="232.21772" y2="99.7984" fill="none" stroke="#3c3c41" stroke-miterlimit="10" stroke-width=".75"/>
    <g>
      <line x1="232.21773" y1="117.3984" x2="232.21773" y2="167.56177" fill="none" stroke="#3c3c41" stroke-miterlimit="10" stroke-width=".75"/>
      <polygon points="229.41292 166.74109 232.21773 171.5984 235.02254 166.74109 229.41292 166.74109" fill="#3c3c41"/>
    </g>
    <line x1="289.41772" y1="87.9984" x2="289.41772" y2="99.7984" fill="none" stroke="#3c3c41" stroke-miterlimit="10" stroke-width=".75"/>
    <g>
      <line x1="289.41772" y1="117.3984" x2="289.41772" y2="167.56177" fill="none" stroke="#3c3c41" stroke-miterlimit="10" stroke-width=".75"/>
      <polygon points="286.61291 166.74109 289.41772 171.5984 292.22253 166.74109 286.61291 166.74109" fill="#3c3c41"/>
    </g>
    <line x1="535.81772" y1="87.9984" x2="535.81772" y2="99.7984" fill="none" stroke="#3c3c41" stroke-miterlimit="10" stroke-width=".75"/>
    <g>
      <line x1="535.81773" y1="117.3984" x2="535.81773" y2="167.56177" fill="none" stroke="#3c3c41" stroke-miterlimit="10" stroke-width=".75"/>
      <polygon points="533.01292 166.74109 535.81773 171.5984 538.62254 166.74109 533.01292 166.74109" fill="#3c3c41"/>
    </g>
    <line x1="593.01772" y1="87.9984" x2="593.01772" y2="99.7984" fill="none" stroke="#3c3c41" stroke-miterlimit="10" stroke-width=".75"/>
    <g>
      <line x1="593.01772" y1="117.3984" x2="593.01772" y2="167.56177" fill="none" stroke="#3c3c41" stroke-miterlimit="10" stroke-width=".75"/>
      <polygon points="590.21291 166.74109 593.01772 171.5984 595.82253 166.74109 590.21291 166.74109" fill="#3c3c41"/>
    </g>
    <g>
      <rect x="461.01772" y="47.7984" width="202" height="40" fill="#fff"/>
      <rect x="461.01772" y="47.7984" width="202" height="40" fill="none" stroke="#8e8278" stroke-width=".25"/>
    </g>
    <path d="M498.71792,71.7984h5.4v5.4h-5.4v-5.4ZM492.41792,64.5984h5.4v-5.4h-4.64625c-.41628,0-.75375.33747-.75375.75375v4.64625ZM493.17167,77.1984h4.64625v-5.4h-5.4v4.64625c0,.41629.33747.75375.75375.75375h0ZM492.41792,70.8984h5.4v-5.4h-5.4v5.4ZM505.01792,77.1984h4.64625c.41629,0,.75375-.33746.75375-.75375h0v-4.64625h-5.4v5.4ZM498.71792,70.8984h5.4v-5.4h-5.4v5.4ZM505.01792,70.8984h5.4v-5.4h-5.4v5.4ZM505.01792,59.1984v5.4h5.4v-4.64625c0-.41628-.33746-.75375-.75375-.75375h-4.64625ZM498.71792,64.5984h5.4v-5.4h-5.4v5.4Z" fill="url(#linear-gradient-2)"/>
    <g>
      <line x1="343.85435" y1="193.5987" x2="476.58109" y2="193.5987" fill="none" stroke="#3c3c41" stroke-miterlimit="10" stroke-width=".75"/>
      <polygon points="344.67503 196.40351 339.81772 193.5987 344.67503 190.79389 344.67503 196.40351" fill="#3c3c41"/>
      <polygon points="475.76041 196.40351 480.61772 193.5987 475.76041 190.79389 475.76041 196.40351" fill="#3c3c41"/>
    </g>
  </g>
  <g id="Text">
    <g>
      <path d="M470.36245,30.7984h-2.53613l-1.52441-2.52246c-.11377-.19141-.22314-.3623-.32812-.5127s-.21094-.2793-.31787-.38623-.21875-.18896-.33496-.24609-.24268-.08545-.37939-.08545h-.59473v3.75293h-2.20801v-9.80273h3.5c2.37891,0,3.56836.88867,3.56836,2.66602,0,.3418-.05225.65723-.15723.94678s-.25293.55029-.44434.78271-.42285.43311-.69385.60156-.57324.30078-.90576.39648v.02734c.146.04541.28711.11963.42383.22217s.26904.22217.39648.35889.24951.28369.36572.44092.22217.31104.31787.46143l1.85254,2.89844ZM464.34682,22.64997v2.72754h.95703c.47412,0,.85449-.13672,1.1416-.41016.2915-.27783.4375-.62207.4375-1.03223,0-.85693-.5127-1.28516-1.53809-1.28516h-.99805Z" fill="#2f2f2f"/>
      <path d="M477.18081,27.91364h-4.56641c.07275,1.01611.71338,1.52441,1.9209,1.52441.77002,0,1.44678-.18213,2.03027-.54688v1.55859c-.64697.34619-1.48779.51953-2.52246.51953-1.13037,0-2.00732-.31348-2.63184-.93994s-.93652-1.50049-.93652-2.62158c0-1.16211.3374-2.08252,1.01172-2.76172s1.50391-1.01855,2.48828-1.01855c1.021,0,1.81055.30322,2.36865.90918s.8374,1.42871.8374,2.46777v.90918ZM475.17788,26.58747c0-1.00244-.40576-1.50391-1.2168-1.50391-.34619,0-.646.14355-.89893.43066s-.40674.64502-.46143,1.07324h2.57715Z" fill="#2f2f2f"/>
      <path d="M485.4396,29.9986c0,1.29883-.37598,2.30469-1.12793,3.01807s-1.84131,1.06982-3.26758,1.06982c-.94336,0-1.69092-.13428-2.24219-.40332v-1.81836c.72021.41943,1.44678.62891,2.18066.62891.729,0,1.29443-.19238,1.69531-.57764s.60156-.9082.60156-1.56885v-.55371h-.02734c-.49219.78369-1.21924,1.17578-2.18066,1.17578-.89307,0-1.60205-.31445-2.12598-.94336s-.78613-1.47217-.78613-2.5293c0-1.18506.2915-2.12598.875-2.82324s1.35107-1.0459,2.30371-1.0459c.85205,0,1.49023.32812,1.91406.98438h.02734v-.81348h2.16016v6.2002ZM483.30678,27.43512v-.55371c0-.44189-.13086-.81934-.39307-1.13135s-.60254-.46826-1.02197-.46826c-.47852,0-.85449.18701-1.12793.56055s-.41016.8999-.41016,1.5791c0,.5835.12988,1.04492.38965,1.38428s.61523.50928,1.06641.50928c.44678,0,.80762-.17188,1.0835-.51611s.41357-.79883.41357-1.36377Z" fill="#2f2f2f"/>
      <path d="M488.29458,22.69098c-.36475,0-.66309-.1084-.89551-.32471s-.34863-.48193-.34863-.79639c0-.32373.11621-.58789.34863-.79297s.53076-.30762.89551-.30762c.36914,0,.66895.10254.89893.30762s.34521.46924.34521.79297c0,.32812-.11523.59717-.34521.80664s-.52979.31445-.89893.31445ZM489.36098,30.7984h-2.16016v-7h2.16016v7Z" fill="#2f2f2f"/>
      <path d="M494.47182,30.9693c-1.1665,0-2.08398-.32715-2.75146-.98096s-1.00146-1.5415-1.00146-2.6626c0-1.15771.34619-2.06348,1.03906-2.71729s1.62939-.98096,2.80957-.98096c1.16211,0,2.07373.32715,2.73438.98096s.99121,1.51855.99121,2.59424c0,1.16211-.34082,2.08057-1.02197,2.75488s-1.61426,1.01172-2.79932,1.01172ZM494.52651,25.2818c-.51025,0-.90674.17529-1.18945.52637s-.42383.84766-.42383,1.49023c0,1.34424.54248,2.0166,1.62695,2.0166,1.03467,0,1.55176-.69043,1.55176-2.07129,0-1.30811-.52197-1.96191-1.56543-1.96191Z" fill="#2f2f2f"/>
      <path d="M506.43422,30.7984h-2.15332v-3.88965c0-1.08447-.38721-1.62695-1.16211-1.62695-.37354,0-.68115.14355-.92285.43066s-.3623.65186-.3623,1.09375v3.99219h-2.16016v-7h2.16016v1.10742h.02734c.51514-.85205,1.26465-1.27832,2.24902-1.27832,1.54932,0,2.32422.96143,2.32422,2.88477v4.28613Z" fill="#2f2f2f"/>
      <path d="M512.21743,30.7984v-9.80273h3.56836c1.09375,0,1.93457.20068,2.52246.60156s.88184.96631.88184,1.69531c0,.52881-.17871.99121-.53662,1.3877s-.81445.67236-1.37061.82715v.02734c.69727.08643,1.25439.34424,1.67139.77246s.62549.9502.62549,1.56543c0,.89795-.32129,1.60986-.96387,2.13623s-1.52002.78955-2.63184.78955h-3.7666ZM514.42544,22.62262v2.32422h.9707c.45557,0,.81445-.11035,1.07666-.33154s.39307-.52539.39307-.9126c0-.72021-.5376-1.08008-1.61328-1.08008h-.82715ZM514.42544,26.58747v2.58398h1.19629c.51025,0,.91016-.11865,1.19971-.35547s.43408-.56055.43408-.9707c0-.39209-.14258-.69971-.42725-.92285s-.68262-.33496-1.19287-.33496h-1.20996Z" fill="#2f2f2f"/>
    </g>
    <g>
      <path d="M166.76284,30.7984h-2.53613l-1.52441-2.52246c-.11377-.19141-.22314-.3623-.32812-.5127s-.21094-.2793-.31787-.38623-.21875-.18896-.33496-.24609-.24268-.08545-.37939-.08545h-.59473v3.75293h-2.20801v-9.80273h3.5c2.37891,0,3.56836.88867,3.56836,2.66602,0,.3418-.05225.65723-.15723.94678s-.25293.55029-.44434.78271-.42285.43311-.69385.60156-.57324.30078-.90576.39648v.02734c.146.04541.28711.11963.42383.22217s.26904.22217.39648.35889.24951.28369.36572.44092.22217.31104.31787.46143l1.85254,2.89844ZM160.74721,22.64997v2.72754h.95703c.47412,0,.85449-.13672,1.1416-.41016.2915-.27783.4375-.62207.4375-1.03223,0-.85693-.5127-1.28516-1.53809-1.28516h-.99805Z" fill="#2f2f2f"/>
      <path d="M173.5812,27.91364h-4.56641c.07275,1.01611.71338,1.52441,1.9209,1.52441.77002,0,1.44678-.18213,2.03027-.54688v1.55859c-.64697.34619-1.48779.51953-2.52246.51953-1.13037,0-2.00732-.31348-2.63184-.93994s-.93652-1.50049-.93652-2.62158c0-1.16211.3374-2.08252,1.01172-2.76172s1.50391-1.01855,2.48828-1.01855c1.021,0,1.81055.30322,2.36865.90918s.8374,1.42871.8374,2.46777v.90918ZM171.57827,26.58747c0-1.00244-.40576-1.50391-1.2168-1.50391-.34619,0-.646.14355-.89893.43066s-.40674.64502-.46143,1.07324h2.57715Z" fill="#2f2f2f"/>
      <path d="M181.83999,29.9986c0,1.29883-.37598,2.30469-1.12793,3.01807s-1.84131,1.06982-3.26758,1.06982c-.94336,0-1.69092-.13428-2.24219-.40332v-1.81836c.72021.41943,1.44678.62891,2.18066.62891.729,0,1.29443-.19238,1.69531-.57764s.60156-.9082.60156-1.56885v-.55371h-.02734c-.49219.78369-1.21924,1.17578-2.18066,1.17578-.89307,0-1.60205-.31445-2.12598-.94336s-.78613-1.47217-.78613-2.5293c0-1.18506.2915-2.12598.875-2.82324s1.35107-1.0459,2.30371-1.0459c.85205,0,1.49023.32812,1.91406.98438h.02734v-.81348h2.16016v6.2002ZM179.70717,27.43512v-.55371c0-.44189-.13086-.81934-.39307-1.13135s-.60254-.46826-1.02197-.46826c-.47852,0-.85449.18701-1.12793.56055s-.41016.8999-.41016,1.5791c0,.5835.12988,1.04492.38965,1.38428s.61523.50928,1.06641.50928c.44678,0,.80762-.17188,1.0835-.51611s.41357-.79883.41357-1.36377Z" fill="#2f2f2f"/>
      <path d="M184.69497,22.69098c-.36475,0-.66309-.1084-.89551-.32471s-.34863-.48193-.34863-.79639c0-.32373.11621-.58789.34863-.79297s.53076-.30762.89551-.30762c.36914,0,.66895.10254.89893.30762s.34521.46924.34521.79297c0,.32812-.11523.59717-.34521.80664s-.52979.31445-.89893.31445ZM185.76137,30.7984h-2.16016v-7h2.16016v7Z" fill="#2f2f2f"/>
      <path d="M190.87221,30.9693c-1.1665,0-2.08398-.32715-2.75146-.98096s-1.00146-1.5415-1.00146-2.6626c0-1.15771.34619-2.06348,1.03906-2.71729s1.62939-.98096,2.80957-.98096c1.16211,0,2.07373.32715,2.73438.98096s.99121,1.51855.99121,2.59424c0,1.16211-.34082,2.08057-1.02197,2.75488s-1.61426,1.01172-2.79932,1.01172ZM190.9269,25.2818c-.51025,0-.90674.17529-1.18945.52637s-.42383.84766-.42383,1.49023c0,1.34424.54248,2.0166,1.62695,2.0166,1.03467,0,1.55176-.69043,1.55176-2.07129,0-1.30811-.52197-1.96191-1.56543-1.96191Z" fill="#2f2f2f"/>
      <path d="M202.83462,30.7984h-2.15332v-3.88965c0-1.08447-.38721-1.62695-1.16211-1.62695-.37354,0-.68115.14355-.92285.43066s-.3623.65186-.3623,1.09375v3.99219h-2.16016v-7h2.16016v1.10742h.02734c.51514-.85205,1.26465-1.27832,2.24902-1.27832,1.54932,0,2.32422.96143,2.32422,2.88477v4.28613Z" fill="#2f2f2f"/>
      <path d="M217.23794,30.7984h-2.40625l-.69727-2.18066h-3.48633l-.69043,2.18066h-2.39258l3.56836-9.80273h2.61816l3.48633,9.80273ZM213.62856,26.92243l-1.05273-3.29492c-.07764-.24609-.13232-.54004-.16406-.88184h-.05469c-.02295.28711-.07959.57178-.1709.85449l-1.06641,3.32227h2.50879Z" fill="#2f2f2f"/>
    </g>
    <g>
      <path d="M238.82436,197.9986h-1.36719l-1.64062-2.74805c-.15039-.25488-.29688-.47266-.4375-.65332-.1416-.17969-.28613-.32617-.43457-.44043-.14746-.11426-.30762-.19727-.47852-.24902-.1709-.05273-.36328-.0791-.57715-.0791h-.94336v4.16992h-1.14844v-9.80273h2.92578c.42773,0,.82324.05371,1.18555.16113.3623.10645.67676.26953.94336.48828s.47559.49121.62598.81641c.15039.32617.22559.70801.22559,1.14551,0,.3418-.05176.65527-.1543.94043-.10254.28418-.24805.53906-.4375.76172-.18848.22266-.41699.41406-.68359.57031-.2666.1582-.56641.2793-.89844.36621v.02734c.16406.07324.30664.15625.42676.24902.12109.09375.23633.20508.3457.33203s.21777.27246.32422.43359c.10742.16211.22656.34961.35938.56445l1.83887,2.94629ZM232.94545,189.23493v3.55469h1.55859c.28711,0,.55273-.04395.7959-.12988.24414-.08594.45508-.21094.63281-.37305.17773-.16113.31641-.35938.41699-.59375.09961-.23535.15039-.49805.15039-.79004,0-.52441-.16992-.93262-.50977-1.22754-.33887-.29297-.83008-.44043-1.47266-.44043h-1.57227Z" fill="#2f2f2f"/>
      <path d="M245.43667,194.77887h-4.94238c.01758.7793.22754,1.38086.62891,1.80469.40039.42383.95215.63574,1.6543.63574.78809,0,1.5127-.25977,2.17383-.7793v1.05273c-.61523.44629-1.42871.66992-2.44043.66992-.98926,0-1.7666-.31738-2.33105-.9541-.56543-.63477-.84766-1.5293-.84766-2.68262,0-1.08887.30859-1.97656.92578-2.66309.61816-.68555,1.38477-1.02832,2.30078-1.02832s1.62402.2959,2.12598.88867c.50098.59277.75195,1.41504.75195,2.46777v.58789ZM244.28823,193.82868c-.00488-.64746-.16113-1.15137-.46875-1.51074s-.73438-.54004-1.28125-.54004c-.5293,0-.97754.18848-1.34668.56738s-.59766.87305-.68359,1.4834h3.78027Z" fill="#2f2f2f"/>
      <path d="M253.13686,197.43805c0,2.57031-1.23047,3.85547-3.69141,3.85547-.86523,0-1.62207-.16406-2.26953-.49219v-1.12109c.78906.4375,1.54102.65625,2.25586.65625,1.72266,0,2.58398-.91602,2.58398-2.74805v-.76562h-.02734c-.5332.89355-1.33496,1.33984-2.40625,1.33984-.87012,0-1.57129-.31152-2.10156-.93262-.53125-.62305-.79688-1.45703-.79688-2.50586,0-1.18945.28613-2.13477.8584-2.83691.57129-.70215,1.35449-1.05273,2.34766-1.05273.94336,0,1.64355.37793,2.09863,1.13477h.02734v-.9707h1.12109v6.43945ZM252.01577,194.83356v-1.03223c0-.55566-.1875-1.03223-.56348-1.42871s-.84473-.59473-1.40527-.59473c-.69238,0-1.23438.25195-1.62695.75488-.3916.50391-.58789,1.20898-.58789,2.11621,0,.7793.18848,1.40234.56445,1.87012.37598.4668.87402.7002,1.49316.7002.62891,0,1.14062-.22363,1.53516-.66992.39355-.44629.59082-1.01855.59082-1.71582Z" fill="#2f2f2f"/>
      <path d="M255.82729,189.22126c-.20117,0-.37207-.06836-.5127-.20508-.1416-.13672-.21191-.30957-.21191-.51953s.07031-.38379.21191-.52246c.14062-.13965.31152-.20898.5127-.20898.20508,0,.37891.06934.52246.20898.14355.13867.21582.3125.21582.52246,0,.2002-.07227.37207-.21582.5127s-.31738.21191-.52246.21191ZM256.37417,197.9986h-1.12109v-7h1.12109v7Z" fill="#2f2f2f"/>
      <path d="M261.46792,198.16266c-1.03418,0-1.86035-.32715-2.47754-.98145-.61816-.65332-.92676-1.52051-.92676-2.60059,0-1.17578.32129-2.09473.96387-2.75488s1.51074-.99121,2.60449-.99121c1.04395,0,1.8584.32129,2.44434.96387.58496.64258.87793,1.5332.87793,2.67285,0,1.11621-.31543,2.01074-.94629,2.68262-.63184.67285-1.47754,1.00879-2.54004,1.00879ZM261.54995,191.7779c-.71973,0-1.28906.24512-1.70898.73535-.41895.48926-.62891,1.16504-.62891,2.02637,0,.8291.21191,1.4834.63574,1.96191s.99121.71777,1.70215.71777c.72461,0,1.28223-.23535,1.67188-.7041s.58398-1.13672.58398-2.00293c0-.875-.19434-1.5498-.58398-2.02344s-.94727-.71094-1.67188-.71094Z" fill="#2f2f2f"/>
      <path d="M272.48061,197.9986h-1.12109v-3.99219c0-1.48535-.54297-2.22852-1.62695-2.22852-.56055,0-1.02441.21094-1.3916.63184-.36621.42188-.5498.9541-.5498,1.59668v3.99219h-1.12109v-7h1.12109v1.16211h.02734c.52832-.88379,1.29395-1.32617,2.29688-1.32617.76562,0,1.35059.24707,1.75684.74121.40527.49512.6084,1.20898.6084,2.14355v4.2793Z" fill="#2f2f2f"/>
      <path d="M286.16616,197.9986h-1.27148l-1.03906-2.74805h-4.15625l-.97754,2.74805h-1.27832l3.75977-9.80273h1.18945l3.77344,9.80273ZM283.47963,194.21833l-1.53809-4.17676c-.05078-.13672-.10059-.35547-.15039-.65625h-.02734c-.0459.27832-.09863.49707-.15723.65625l-1.52441,4.17676h3.39746Z" fill="#2f2f2f"/>
      <path d="M217.61635,217.02692h-.99805c-1.41211-1.61328-2.11914-3.60254-2.11914-5.96777,0-2.37402.70703-4.39551,2.11914-6.06348h1.01172c-1.43066,1.73242-2.14648,3.74805-2.14648,6.0498,0,2.2832.71094,4.27637,2.13281,5.98145Z" fill="#2f2f2f"/>
      <path d="M231.14077,204.99567l-2.76855,9.80273h-1.34668l-2.0166-7.16406c-.08594-.30469-.13867-.63867-.15723-.99805h-.02734c-.02734.33789-.08594.66602-.17773.98438l-2.03027,7.17773h-1.33301l-2.87109-9.80273h1.26465l2.08496,7.51953c.08691.31445.1416.64258.16406.98438h.03418c.02344-.24219.09375-.57031.21191-.98438l2.16699-7.51953h1.10059l2.07812,7.57422c.07324.25977.12793.56445.16406.91602h.02734c.01855-.23633.08008-.55078.18457-.94336l2.00293-7.54688h1.24414Z" fill="#2f2f2f"/>
      <path d="M235.69741,208.93317c-.19531-.15039-.47852-.22559-.84766-.22559-.47852,0-.87793.22559-1.19922.67676s-.48242,1.06641-.48242,1.8457v3.56836h-1.12109v-7h1.12109v1.44238h.02734c.16016-.49219.40332-.87598.73145-1.15137.32812-.27637.69531-.41406,1.10059-.41406.29199,0,.51562.03125.66992.0957v1.16211Z" fill="#2f2f2f"/>
      <path d="M237.51577,206.02106c-.20117,0-.37207-.06836-.5127-.20508-.1416-.13672-.21191-.31055-.21191-.51953s.07031-.38379.21191-.52344c.14062-.13867.31152-.20801.5127-.20801.20508,0,.37891.06934.52246.20801.14355.13965.21582.31445.21582.52344,0,.20117-.07227.37109-.21582.5127s-.31738.21191-.52246.21191ZM238.06264,214.7984h-1.12109v-7h1.12109v7Z" fill="#2f2f2f"/>
      <path d="M243.50991,214.73004c-.26367.14648-.6123.21875-1.0459.21875-1.22559,0-1.83887-.68359-1.83887-2.05078v-4.14258h-1.20312v-.95703h1.20312v-1.70898l1.12109-.3623v2.07129h1.76367v.95703h-1.76367v3.94434c0,.46973.08008.80371.23926,1.00488.16016.20117.42383.30078.79297.30078.2832,0,.52637-.07812.73145-.23242v.95703Z" fill="#2f2f2f"/>
      <path d="M250.50307,211.57868h-4.94238c.01855.7793.22852,1.38086.62891,1.80469.40137.42383.95312.63574,1.6543.63574.78906,0,1.51367-.25977,2.17383-.7793v1.05273c-.61523.44727-1.42871.66992-2.44043.66992-.98828,0-1.76562-.31836-2.33105-.95312-.56445-.63672-.84766-1.53125-.84766-2.68359,0-1.08984.30859-1.97656.92676-2.66211.61719-.68652,1.38379-1.0293,2.2998-1.0293s1.625.29688,2.12598.88867c.50195.5918.75195,1.41504.75195,2.46777v.58789ZM249.35463,210.62848c-.00391-.64648-.16016-1.15039-.46777-1.51074s-.73535-.54004-1.28223-.54004c-.52832,0-.97754.18945-1.34668.56738s-.59668.87207-.68359,1.4834h3.78027Z" fill="#2f2f2f"/>
      <path d="M262.9103,211.17536h-2.76172v2.75488h-.90918v-2.75488h-2.75488v-.91602h2.75488v-2.75488h.90918v2.75488h2.76172v.91602Z" fill="#2f2f2f"/>
      <path d="M276.62319,214.7984h-1.36719l-1.64062-2.74805c-.15039-.25586-.2959-.47266-.4375-.65234-.14062-.18066-.28613-.32812-.43359-.44141-.14844-.11328-.30762-.19727-.47852-.25-.1709-.05176-.36328-.07812-.57812-.07812h-.94336v4.16992h-1.14844v-9.80273h2.92578c.42871,0,.82422.05371,1.18652.16016.3623.10742.67676.27051.94336.48926s.47461.49121.625.81738c.15039.3252.22559.70703.22559,1.14453,0,.3418-.05078.65527-.15332.93945-.10254.28516-.24902.53906-.4375.7627-.18945.22363-.41699.41309-.68359.57129-.2666.15625-.56641.2793-.89941.36523v.02734c.16406.07227.30664.15625.42773.25.12012.09277.23535.20312.34473.33105s.21777.27246.3252.43457c.10645.16113.22656.34961.3584.56348l1.83887,2.94629ZM270.74428,206.03473v3.55469h1.55859c.28711,0,.55273-.04297.79688-.12988.24316-.08691.4541-.21094.63184-.37207.17773-.16211.31738-.36035.41699-.5957.10059-.23438.15039-.49805.15039-.78906,0-.52344-.16992-.93359-.50879-1.22656-.33984-.29492-.83105-.44141-1.47363-.44141h-1.57227Z" fill="#2f2f2f"/>
      <path d="M283.23549,211.57868h-4.94238c.01855.7793.22852,1.38086.62891,1.80469.40137.42383.95312.63574,1.6543.63574.78906,0,1.51367-.25977,2.17383-.7793v1.05273c-.61523.44727-1.42871.66992-2.44043.66992-.98828,0-1.76562-.31836-2.33105-.95312-.56445-.63672-.84766-1.53125-.84766-2.68359,0-1.08984.30859-1.97656.92676-2.66211.61719-.68652,1.38379-1.0293,2.2998-1.0293s1.625.29688,2.12598.88867c.50195.5918.75195,1.41504.75195,2.46777v.58789ZM282.08706,210.62848c-.00391-.64648-.16016-1.15039-.46777-1.51074s-.73535-.54004-1.28223-.54004c-.52832,0-.97754.18945-1.34668.56738s-.59668.87207-.68359,1.4834h3.78027Z" fill="#2f2f2f"/>
      <path d="M289.87417,214.7984h-1.12109v-1.09375h-.02734c-.4873.83789-1.20508,1.25781-2.15332,1.25781-.69727,0-1.24316-.18457-1.63672-.55371-.39453-.36914-.5918-.8584-.5918-1.46973,0-1.30859.77051-2.06836,2.31055-2.2832l2.09863-.29395c0-1.18945-.48047-1.78418-1.44238-1.78418-.84277,0-1.60352.28711-2.2832.86133v-1.14844c.68848-.4375,1.48145-.65625,2.37891-.65625,1.64551,0,2.46777.87109,2.46777,2.61133v4.55273ZM288.75307,211.25739l-1.68848.23242c-.51953.07227-.91113.20117-1.17578.38672-.26367.18359-.39648.51172-.39648.98047,0,.3418.12207.62109.36621.83789.24316.21582.56836.32422.97363.32422.55664,0,1.01562-.19531,1.37793-.58398.3623-.39062.54297-.88281.54297-1.48047v-.69727Z" fill="#2f2f2f"/>
      <path d="M297.9435,214.7984h-1.12109v-1.18945h-.02734c-.51953.90234-1.32227,1.35352-2.40625,1.35352-.87988,0-1.58301-.31348-2.10938-.93945-.52637-.62695-.78906-1.48047-.78906-2.56055,0-1.1582.29102-2.08496.875-2.78223.58301-.69727,1.36035-1.0459,2.33105-1.0459.96094,0,1.66113.37891,2.09863,1.13477h.02734v-4.33398h1.12109v10.36328ZM296.82241,211.63337v-1.03223c0-.56445-.1875-1.04297-.56055-1.43555-.37402-.39258-.84766-.58789-1.42188-.58789-.68359,0-1.22168.25-1.61328.75195-.39258.50195-.58789,1.19336-.58789,2.07812,0,.80664.1875,1.44336.56348,1.91016.37598.46777.88086.70117,1.51465.70117.62402,0,1.13086-.22559,1.52051-.67676s.58496-1.02051.58496-1.70898Z" fill="#2f2f2f"/>
      <path d="M300.23061,217.02692h-.99805c1.42188-1.70508,2.13281-3.69824,2.13281-5.98145,0-2.30176-.71582-4.31738-2.14648-6.0498h1.01172c1.42188,1.66797,2.13281,3.68945,2.13281,6.06348,0,2.36523-.71094,4.35449-2.13281,5.96777Z" fill="#2f2f2f"/>
    </g>
    <g>
      <rect x="20.61772" y="202.0984" width="115.52769" height="39" fill="none"/>
      <path d="M41.36001,213.99958h-2.40625l-.69727-2.18066h-3.48633l-.69043,2.18066h-2.39258l3.56836-9.80273h2.61816l3.48633,9.80273ZM37.75063,210.1236l-1.05273-3.29492c-.07764-.24609-.13232-.54004-.16406-.88184h-.05469c-.02295.28711-.07959.57227-.1709.85449l-1.06641,3.32227h2.50879Z" fill="#2f2f2f"/>
      <path d="M48.26577,213.99958h-6.28223v-.89551l3.51367-4.51172h-3.16504v-1.59277h5.90625v1.06641l-3.3291,4.34082h3.35645v1.59277Z" fill="#2f2f2f"/>
      <path d="M56.1476,213.99958h-2.15332v-1.06641h-.03418c-.5332.8252-1.24658,1.2373-2.13965,1.2373-1.62256,0-2.43359-.98145-2.43359-2.94629v-4.22461h2.15332v4.0332c0,.98926.39209,1.4834,1.17578,1.4834.38721,0,.69727-.13574.92969-.40625.23242-.27148.34863-.63965.34863-1.10449v-4.00586h2.15332v7Z" fill="#2f2f2f"/>
      <path d="M62.48208,208.94782c-.25977-.14062-.56299-.21191-.90918-.21191-.46924,0-.83643.17188-1.10059.5166-.26416.34375-.39648.8125-.39648,1.4043v3.34277h-2.16016v-7h2.16016v1.29883h.02734c.3418-.94727.95703-1.42188,1.8457-1.42188.22803,0,.40576.02734.5332.08203v1.98926Z" fill="#2f2f2f"/>
      <path d="M69.85463,211.11481h-4.56641c.07275,1.0166.71338,1.52441,1.9209,1.52441.77002,0,1.44678-.18164,2.03027-.54688v1.55859c-.64697.34668-1.48779.51953-2.52246.51953-1.13037,0-2.00732-.31348-2.63184-.93945-.62451-.62695-.93652-1.50098-.93652-2.62207,0-1.16211.3374-2.08203,1.01172-2.76172.67432-.67871,1.50391-1.01855,2.48828-1.01855,1.021,0,1.81055.30371,2.36865.90918.55811.60645.8374,1.42871.8374,2.46777v.90918ZM67.8517,209.78864c0-1.00195-.40576-1.50391-1.2168-1.50391-.34619,0-.646.14355-.89893.43066s-.40674.64551-.46143,1.07324h2.57715Z" fill="#2f2f2f"/>
      <path d="M82.24135,213.65094c-.71533.34668-1.6499.51953-2.80273.51953-1.50391,0-2.68652-.44141-3.54785-1.32617-.86133-.88379-1.29199-2.06152-1.29199-3.53418,0-1.56738.48438-2.83887,1.45264-3.81445.96826-.97461,2.2251-1.46289,3.77002-1.46289.95703,0,1.76367.12109,2.41992.3623v2.12598c-.65625-.3916-1.40381-.58789-2.24219-.58789-.92041,0-1.66357.29004-2.22852.86816-.56494.5791-.84766,1.36328-.84766,2.35156,0,.94824.2666,1.70312.7998,2.2666.5332.5625,1.25098.84375,2.15332.84375.86133,0,1.6499-.20898,2.36523-.62891v2.0166Z" fill="#2f2f2f"/>
      <path d="M86.98305,214.17047c-1.1665,0-2.08398-.32715-2.75146-.98047-.66748-.6543-1.00146-1.54199-1.00146-2.66309,0-1.15723.34619-2.06348,1.03906-2.7168.69287-.6543,1.62939-.98145,2.80957-.98145,1.16211,0,2.07373.32715,2.73438.98145.66064.65332.99121,1.51855.99121,2.59375,0,1.16211-.34082,2.08105-1.02197,2.75488-.68115.6748-1.61426,1.01172-2.79932,1.01172ZM87.03774,208.48297c-.51025,0-.90674.17578-1.18945.52637-.28271.35156-.42383.84766-.42383,1.49023,0,1.34473.54248,2.0166,1.62695,2.0166,1.03467,0,1.55176-.69043,1.55176-2.07129,0-1.30762-.52197-1.96191-1.56543-1.96191Z" fill="#2f2f2f"/>
      <path d="M91.79116,213.81501v-1.75c.35547.21484.70996.37402,1.06299.47852.35303.10547.68701.15723,1.00146.15723.38281,0,.68457-.05176.90576-.15723.22119-.10449.33154-.26367.33154-.47852,0-.13672-.05029-.25-.15039-.3418-.1001-.09082-.229-.1709-.38623-.23926s-.3291-.12988-.51611-.18457-.3667-.11621-.54004-.18457c-.27783-.10449-.52295-.21777-.73486-.33789-.21191-.12109-.38965-.26074-.5332-.4209-.14355-.15918-.25293-.34375-.32812-.55371-.0752-.20898-.11279-.45801-.11279-.74512,0-.3916.08545-.72852.25635-1.01172.1709-.28223.39893-.51367.68359-.69336.28467-.18066.61084-.3125.97754-.39648.3667-.08496.74854-.12695,1.14502-.12695.31006,0,.62451.02441.94336.07227s.6333.11719.94336.20801v1.66797c-.27344-.15918-.56641-.2793-.87842-.3584-.31201-.08008-.61865-.12012-.91943-.12012-.14111,0-.27441.0127-.3999.03809-.12549.02441-.23584.06152-.33154.10938s-.1709.10938-.22559.18457-.08203.16016-.08203.25586c0,.12793.04102.2373.12305.32812.08203.0918.18896.16992.32129.23633.13232.06543.2793.125.44092.17773.16162.05176.32227.10547.48193.16016.28711.10059.54688.20996.7793.32812.23242.11914.43164.25781.59814.41699.1665.16016.29395.34668.38281.56055.08887.21484.1333.46973.1333.76562,0,.41504-.08984.76953-.27002,1.06348s-.41943.5332-.71777.71777-.64258.31836-1.03223.40332c-.38965.08398-.79395.12598-1.21338.12598-.77002,0-1.4834-.11816-2.13965-.35547Z" fill="#2f2f2f"/>
      <path d="M109.58266,213.99958h-2.15332v-3.99219c0-1.01562-.37354-1.52441-1.12109-1.52441-.35547,0-.64502.15332-.86816.45801-.22314.30566-.33496.68652-.33496,1.1416v3.91699h-2.16016v-4.0332c0-.98828-.3667-1.4834-1.10059-1.4834-.36914,0-.66406.14648-.88525.4375-.22119.29199-.33154.68848-.33154,1.18945v3.88965h-2.16016v-7h2.16016v1.09375h.02734c.22314-.37305.53662-.67773.93994-.91211.40332-.23535.84424-.35254,1.32275-.35254.98877,0,1.66553.43555,2.03027,1.30566.5332-.87012,1.31689-1.30566,2.35156-1.30566,1.52197,0,2.2832.93945,2.2832,2.81641v4.35449Z" fill="#2f2f2f"/>
      <path d="M114.62758,214.17047c-1.1665,0-2.08398-.32715-2.75146-.98047-.66748-.6543-1.00146-1.54199-1.00146-2.66309,0-1.15723.34619-2.06348,1.03906-2.7168.69287-.6543,1.62939-.98145,2.80957-.98145,1.16211,0,2.07373.32715,2.73438.98145.66064.65332.99121,1.51855.99121,2.59375,0,1.16211-.34082,2.08105-1.02197,2.75488-.68115.6748-1.61426,1.01172-2.79932,1.01172ZM114.68227,208.48297c-.51025,0-.90674.17578-1.18945.52637-.28271.35156-.42383.84766-.42383,1.49023,0,1.34473.54248,2.0166,1.62695,2.0166,1.03467,0,1.55176-.69043,1.55176-2.07129,0-1.30762-.52197-1.96191-1.56543-1.96191Z" fill="#2f2f2f"/>
      <path d="M119.4352,213.81501v-1.75c.35547.21484.70996.37402,1.06299.47852.35303.10547.68701.15723,1.00146.15723.38281,0,.68457-.05176.90576-.15723.22119-.10449.33154-.26367.33154-.47852,0-.13672-.05029-.25-.15039-.3418-.1001-.09082-.229-.1709-.38623-.23926s-.3291-.12988-.51611-.18457-.3667-.11621-.54004-.18457c-.27783-.10449-.52295-.21777-.73486-.33789-.21191-.12109-.38965-.26074-.5332-.4209-.14355-.15918-.25293-.34375-.32812-.55371-.0752-.20898-.11279-.45801-.11279-.74512,0-.3916.08545-.72852.25635-1.01172.1709-.28223.39893-.51367.68359-.69336.28467-.18066.61084-.3125.97754-.39648.3667-.08496.74854-.12695,1.14502-.12695.31006,0,.62451.02441.94336.07227s.6333.11719.94336.20801v1.66797c-.27344-.15918-.56641-.2793-.87842-.3584-.31201-.08008-.61865-.12012-.91943-.12012-.14111,0-.27441.0127-.3999.03809-.12549.02441-.23584.06152-.33154.10938s-.1709.10938-.22559.18457-.08203.16016-.08203.25586c0,.12793.04102.2373.12305.32812.08203.0918.18896.16992.32129.23633.13232.06543.2793.125.44092.17773.16162.05176.32227.10547.48193.16016.28711.10059.54688.20996.7793.32812.23242.11914.43164.25781.59814.41699.1665.16016.29395.34668.38281.56055.08887.21484.1333.46973.1333.76562,0,.41504-.08984.76953-.27002,1.06348s-.41943.5332-.71777.71777-.64258.31836-1.03223.40332c-.38965.08398-.79395.12598-1.21338.12598-.77002,0-1.4834-.11816-2.13965-.35547Z" fill="#2f2f2f"/>
      <path d="M42.09438,230.79938v-9.80273h3.47266c3.48193,0,5.22266,1.59277,5.22266,4.77832,0,1.52734-.4751,2.74609-1.42529,3.65723-.9502.91211-2.21582,1.36719-3.79736,1.36719h-3.47266ZM44.30239,222.7945v6.21387h1.09375c.95703,0,1.70801-.28711,2.25244-.86133s.81689-1.35547.81689-2.34473c0-.93359-.27002-1.66895-.81006-2.2041-.54004-.53613-1.29785-.80371-2.27295-.80371h-1.08008Z" fill="#2f2f2f"/>
      <path d="M52.35805,230.79938v-9.80273h3.56836c1.09375,0,1.93457.20117,2.52246.60156.58789.40137.88184.9668.88184,1.69531,0,.5293-.17871.99121-.53662,1.3877s-.81445.67285-1.37061.82715v.02734c.69727.08691,1.25439.34473,1.67139.77246.41699.42871.62549.9502.62549,1.56543,0,.89844-.32129,1.61035-.96387,2.13672s-1.52002.78906-2.63184.78906h-3.7666ZM54.56606,222.6236v2.32422h.9707c.45557,0,.81445-.11035,1.07666-.33105.26221-.22168.39307-.52539.39307-.91309,0-.71973-.5376-1.08008-1.61328-1.08008h-.82715ZM54.56606,226.58844v2.58398h1.19629c.51025,0,.91016-.11816,1.19971-.35547.28955-.23633.43408-.56055.43408-.9707,0-.3916-.14258-.69922-.42725-.92285-.28467-.22266-.68262-.33496-1.19287-.33496h-1.20996Z" fill="#2f2f2f"/>
      <path d="M70.80825,230.79938h-2.04395v-1.00488h-.02734c-.46924.78418-1.16455,1.17578-2.08496,1.17578-.6792,0-1.21338-.19238-1.60303-.57715-.38965-.38574-.58447-.89941-.58447-1.54199,0-1.35742.8042-2.1416,2.41309-2.35156l1.90039-.25293c0-.76562-.41455-1.14844-1.24414-1.14844-.83398,0-1.62695.24902-2.37891.74512v-1.62695c.30078-.1543.71191-.29102,1.23389-.41016.52197-.11816.99707-.17773,1.42529-.17773,1.99609,0,2.99414.99609,2.99414,2.9873v4.18359ZM68.77797,227.95563v-.47168l-1.27148.16406c-.70166.0918-1.05273.4082-1.05273.9502,0,.24609.08545.44824.25635.60547s.40234.23535.69385.23535c.40576,0,.73584-.13965.99121-.41992s.38281-.63477.38281-1.06348Z" fill="#2f2f2f"/>
      <path d="M77.82192,230.54645c-.48779.2832-1.19189.42383-2.1123.42383-1.07568,0-1.9458-.3252-2.61133-.97754-.66553-.65137-.99805-1.49219-.99805-2.52246,0-1.18945.35645-2.12695,1.06982-2.8125.71338-.68652,1.66699-1.0293,2.86084-1.0293.82471,0,1.42188.10938,1.79102.32812v1.83203c-.45117-.33691-.95459-.50586-1.51074-.50586-.61963,0-1.11084.18164-1.47314.54395s-.54346.8623-.54346,1.5c0,.62012.17334,1.10645.51953,1.45996.34619.35254.82275.5293,1.42871.5293.5376,0,1.06396-.16797,1.5791-.50586v1.73633Z" fill="#2f2f2f"/>
      <path d="M84.52065,230.54645c-.48779.2832-1.19189.42383-2.1123.42383-1.07568,0-1.9458-.3252-2.61133-.97754-.66553-.65137-.99805-1.49219-.99805-2.52246,0-1.18945.35645-2.12695,1.06982-2.8125.71338-.68652,1.66699-1.0293,2.86084-1.0293.82471,0,1.42188.10938,1.79102.32812v1.83203c-.45117-.33691-.95459-.50586-1.51074-.50586-.61963,0-1.11084.18164-1.47314.54395s-.54346.8623-.54346,1.5c0,.62012.17334,1.10645.51953,1.45996.34619.35254.82275.5293,1.42871.5293.5376,0,1.06396-.16797,1.5791-.50586v1.73633Z" fill="#2f2f2f"/>
      <path d="M89.25063,230.97028c-1.1665,0-2.08398-.32715-2.75146-.98047-.66748-.6543-1.00146-1.54199-1.00146-2.66309,0-1.15723.34619-2.06348,1.03906-2.7168.69287-.6543,1.62939-.98145,2.80957-.98145,1.16211,0,2.07373.32715,2.73438.98145.66064.65332.99121,1.51855.99121,2.59375,0,1.16211-.34082,2.08105-1.02197,2.75488-.68115.6748-1.61426,1.01172-2.79932,1.01172ZM89.30532,225.28278c-.51025,0-.90674.17578-1.18945.52637-.28271.35156-.42383.84766-.42383,1.49023,0,1.34473.54248,2.0166,1.62695,2.0166,1.03467,0,1.55176-.69043,1.55176-2.07129,0-1.30762-.52197-1.96191-1.56543-1.96191Z" fill="#2f2f2f"/>
      <path d="M101.10366,230.79938h-2.15332v-1.06641h-.03418c-.5332.8252-1.24658,1.2373-2.13965,1.2373-1.62256,0-2.43359-.98145-2.43359-2.94629v-4.22461h2.15332v4.0332c0,.98926.39209,1.4834,1.17578,1.4834.38721,0,.69727-.13574.92969-.40625.23242-.27148.34863-.63965.34863-1.10449v-4.00586h2.15332v7Z" fill="#2f2f2f"/>
      <path d="M109.63198,230.79938h-2.15332v-3.88965c0-1.08398-.38721-1.62695-1.16211-1.62695-.37354,0-.68115.14355-.92285.43066s-.3623.65234-.3623,1.09375v3.99219h-2.16016v-7h2.16016v1.10742h.02734c.51514-.85156,1.26465-1.27832,2.24902-1.27832,1.54932,0,2.32422.96191,2.32422,2.88477v4.28613Z" fill="#2f2f2f"/>
      <path d="M115.48159,230.71735c-.31885.16895-.7998.25293-1.44238.25293-1.52197,0-2.2832-.79004-2.2832-2.37207v-3.20605h-1.13477v-1.59277h1.13477v-1.51074l2.15332-.61523v2.12598h1.57227v1.59277h-1.57227v2.83008c0,.72949.28955,1.09375.86816,1.09375.22803,0,.4624-.06543.7041-.19824v1.59961Z" fill="#2f2f2f"/>
    </g>
    <g>
      <path d="M219.77504,72.38825c-.72461.38281-1.62695.57422-2.70703.57422-1.39453,0-2.51123-.44873-3.34961-1.34668s-1.25781-2.07568-1.25781-3.53418c0-1.56787.47168-2.83447,1.41504-3.80078s2.13965-1.44922,3.58887-1.44922c.92969,0,1.69971.13428,2.31055.40332v1.22363c-.70166-.39209-1.47656-.58789-2.32422-.58789-1.12549,0-2.03809.37598-2.73779,1.12793s-1.04932,1.75684-1.04932,3.01465c0,1.19385.32715,2.14551.98096,2.854s1.51172,1.06299,2.57373,1.06299c.98438,0,1.83643-.21875,2.55664-.65625v1.11426Z" fill="#2f2f2f"/>
      <path d="M222.4479,72.7984h-1.12109v-10.36328h1.12109v10.36328Z" fill="#2f2f2f"/>
      <path d="M225.13491,64.02106c-.20068,0-.37158-.06836-.5127-.20508s-.21191-.31006-.21191-.51953.0708-.38379.21191-.52295.31201-.2085.5127-.2085c.20508,0,.37939.06934.52295.2085s.21533.31348.21533.52295c0,.20068-.07178.37158-.21533.5127s-.31787.21191-.52295.21191ZM225.68178,72.7984h-1.12109v-7h1.12109v7Z" fill="#2f2f2f"/>
      <path d="M233.47622,69.57868h-4.94238c.01807.7793.22803,1.38086.62891,1.80469s.95264.63574,1.6543.63574c.78857,0,1.51318-.25977,2.17383-.7793v1.05273c-.61523.44678-1.42871.66992-2.44043.66992-.98877,0-1.76611-.31787-2.33105-.95361s-.84766-1.53027-.84766-2.68311c0-1.08936.30859-1.97656.92627-2.6626s1.38428-1.02881,2.30029-1.02881,1.62451.29639,2.12598.88867.75195,1.41504.75195,2.46777v.58789ZM232.32778,68.62848c-.00439-.64697-.16064-1.15088-.46826-1.51074s-.73486-.54004-1.28174-.54004c-.52881,0-.97754.18896-1.34668.56738s-.59717.87256-.68359,1.4834h3.78027Z" fill="#2f2f2f"/>
      <path d="M240.96987,72.7984h-1.12109v-3.99219c0-1.48584-.54248-2.22852-1.62695-2.22852-.56055,0-1.02441.21094-1.39111.63232s-.55029.95361-.55029,1.59619v3.99219h-1.12109v-7h1.12109v1.16211h.02734c.52881-.88428,1.29443-1.32617,2.29688-1.32617.76562,0,1.35107.24707,1.75684.7417s.6084,1.20898.6084,2.14307v4.2793Z" fill="#2f2f2f"/>
      <path d="M246.19887,72.73004c-.26416.146-.61279.21875-1.0459.21875-1.22607,0-1.83887-.68359-1.83887-2.05078v-4.14258h-1.20312v-.95703h1.20312v-1.70898l1.12109-.3623v2.07129h1.76367v.95703h-1.76367v3.94434c0,.46924.07959.8042.23926,1.00488s.42383.30078.79297.30078c.28271,0,.52637-.07764.73145-.23242v.95703Z" fill="#2f2f2f"/>
      <path d="M256.54165,72.7984h-1.12109v-1.09375h-.02734c-.48779.83838-1.20557,1.25781-2.15332,1.25781-.69727,0-1.24316-.18457-1.63721-.55371s-.59131-.85889-.59131-1.46973c0-1.30811.77002-2.06885,2.31055-2.2832l2.09863-.29395c0-1.18945-.48096-1.78418-1.44238-1.78418-.84326,0-1.604.28711-2.2832.86133v-1.14844c.68799-.4375,1.48096-.65625,2.37891-.65625,1.64502,0,2.46777.87061,2.46777,2.61133v4.55273ZM255.42055,69.25739l-1.68848.23242c-.51953.07275-.91162.20166-1.17578.38623s-.39648.51172-.39648.98096c0,.3418.12207.62109.36572.8374s.56836.32471.97412.32471c.55615,0,1.01514-.19482,1.37744-.58447s.54346-.88281.54346-1.47998v-.69727Z" fill="#2f2f2f"/>
      <path d="M259.71157,71.78669h-.02734v4.23145h-1.12109v-10.21973h1.12109v1.23047h.02734c.55127-.92969,1.35791-1.39453,2.41992-1.39453.90234,0,1.60645.31348,2.1123.93994s.75879,1.46631.75879,2.51904c0,1.17139-.28467,2.10889-.85449,2.81299s-1.34912,1.05615-2.33789,1.05615c-.90674,0-1.60645-.39209-2.09863-1.17578ZM259.68422,68.96344v.97754c0,.57861.18799,1.06982.56396,1.47314s.85352.60498,1.43213.60498c.6792,0,1.21094-.25977,1.59619-.7793s.57764-1.2417.57764-2.16699c0-.7793-.18018-1.39014-.54004-1.83203s-.84766-.66309-1.46289-.66309c-.65186,0-1.17578.22656-1.57227.68018s-.59473,1.02197-.59473,1.70557Z" fill="#2f2f2f"/>
      <path d="M267.86782,71.78669h-.02734v4.23145h-1.12109v-10.21973h1.12109v1.23047h.02734c.55127-.92969,1.35791-1.39453,2.41992-1.39453.90234,0,1.60645.31348,2.1123.93994s.75879,1.46631.75879,2.51904c0,1.17139-.28467,2.10889-.85449,2.81299s-1.34912,1.05615-2.33789,1.05615c-.90674,0-1.60645-.39209-2.09863-1.17578ZM267.84047,68.96344v.97754c0,.57861.18799,1.06982.56396,1.47314s.85352.60498,1.43213.60498c.6792,0,1.21094-.25977,1.59619-.7793s.57764-1.2417.57764-2.16699c0-.7793-.18018-1.39014-.54004-1.83203s-.84766-.66309-1.46289-.66309c-.65186,0-1.17578.22656-1.57227.68018s-.59473,1.02197-.59473,1.70557Z" fill="#2f2f2f"/>
      <path d="M276.00893,72.7984h-1.12109v-10.36328h1.12109v10.36328Z" fill="#2f2f2f"/>
      <path d="M278.69594,64.02106c-.20068,0-.37158-.06836-.5127-.20508s-.21191-.31006-.21191-.51953.0708-.38379.21191-.52295.31201-.2085.5127-.2085c.20508,0,.37939.06934.52295.2085s.21533.31348.21533.52295c0,.20068-.07178.37158-.21533.5127s-.31787.21191-.52295.21191ZM279.24282,72.7984h-1.12109v-7h1.12109v7Z" fill="#2f2f2f"/>
      <path d="M286.15493,72.47712c-.5376.32373-1.17578.48535-1.91406.48535-.99805,0-1.80371-.32471-2.4165-.97412s-.91943-1.49121-.91943-2.52588c0-1.15283.33057-2.0791.99121-2.77881s1.54248-1.04932,2.64551-1.04932c.61523,0,1.15771.11377,1.62695.3418v1.14844c-.51953-.36475-1.07568-.54688-1.66797-.54688-.71533,0-1.30225.25635-1.76025.76904s-.68701,1.18604-.68701,2.02002c0,.82031.21533,1.46729.646,1.94141s1.0083.71094,1.73291.71094c.61084,0,1.18506-.20264,1.72266-.6084v1.06641Z" fill="#2f2f2f"/>
      <path d="M292.89907,72.7984h-1.12109v-1.09375h-.02734c-.48779.83838-1.20557,1.25781-2.15332,1.25781-.69727,0-1.24316-.18457-1.63721-.55371s-.59131-.85889-.59131-1.46973c0-1.30811.77002-2.06885,2.31055-2.2832l2.09863-.29395c0-1.18945-.48096-1.78418-1.44238-1.78418-.84326,0-1.604.28711-2.2832.86133v-1.14844c.68799-.4375,1.48096-.65625,2.37891-.65625,1.64502,0,2.46777.87061,2.46777,2.61133v4.55273ZM291.77797,69.25739l-1.68848.23242c-.51953.07275-.91162.20166-1.17578.38623s-.39648.51172-.39648.98096c0,.3418.12207.62109.36572.8374s.56836.32471.97412.32471c.55615,0,1.01514-.19482,1.37744-.58447s.54346-.88281.54346-1.47998v-.69727Z" fill="#2f2f2f"/>
      <path d="M298.15737,72.73004c-.26416.146-.61279.21875-1.0459.21875-1.22607,0-1.83887-.68359-1.83887-2.05078v-4.14258h-1.20312v-.95703h1.20312v-1.70898l1.12109-.3623v2.07129h1.76367v.95703h-1.76367v3.94434c0,.46924.07959.8042.23926,1.00488s.42383.30078.79297.30078c.28271,0,.52637-.07764.73145-.23242v.95703Z" fill="#2f2f2f"/>
      <path d="M300.11245,64.02106c-.20068,0-.37158-.06836-.5127-.20508s-.21191-.31006-.21191-.51953.0708-.38379.21191-.52295.31201-.2085.5127-.2085c.20508,0,.37939.06934.52295.2085s.21533.31348.21533.52295c0,.20068-.07178.37158-.21533.5127s-.31787.21191-.52295.21191ZM300.65932,72.7984h-1.12109v-7h1.12109v7Z" fill="#2f2f2f"/>
      <path d="M305.75405,72.96247c-1.03467,0-1.86035-.32715-2.47803-.98096s-.92627-1.521-.92627-2.60107c0-1.17578.32129-2.09424.96387-2.75488s1.51074-.99121,2.60449-.99121c1.04346,0,1.8584.32129,2.44385.96387s.87842,1.53369.87842,2.67285c0,1.1167-.31543,2.01074-.94678,2.68311s-1.47754,1.0083-2.53955,1.0083ZM305.83608,66.5777c-.72021,0-1.28955.24512-1.70898.73486s-.62891,1.16553-.62891,2.02686c0,.82959.21191,1.4834.63574,1.96191s.99121.71777,1.70215.71777c.72461,0,1.28174-.23486,1.67139-.7041s.58447-1.13721.58447-2.00293c0-.875-.19482-1.54932-.58447-2.02344s-.94678-.71094-1.67139-.71094Z" fill="#2f2f2f"/>
      <path d="M316.76626,72.7984h-1.12109v-3.99219c0-1.48584-.54248-2.22852-1.62695-2.22852-.56055,0-1.02441.21094-1.39111.63232s-.55029.95361-.55029,1.59619v3.99219h-1.12109v-7h1.12109v1.16211h.02734c.52881-.88428,1.29443-1.32617,2.29688-1.32617.76562,0,1.35107.24707,1.75684.7417s.6084,1.20898.6084,2.14307v4.2793Z" fill="#2f2f2f"/>
      <path d="M326.52797,72.7984h-1.12109v-8.46973c-.08643.08643-.21289.18555-.37939.29736s-.35303.22217-.56055.33154-.42627.21191-.65625.30762-.45459.1709-.67334.22559v-1.13477c.24609-.06836.50684-.16064.78271-.27686s.54688-.24609.81348-.38965.51855-.29395.75537-.45117.44189-.31104.61523-.46143h.42383v10.02148Z" fill="#2f2f2f"/>
    </g>
    <g>
      <path d="M542.9269,197.9986h-1.36719l-1.64062-2.74805c-.15039-.25488-.29639-.47266-.4375-.65332-.14111-.17969-.28613-.32617-.43408-.44043s-.30762-.19727-.47852-.24902c-.1709-.05273-.36328-.0791-.57764-.0791h-.94336v4.16992h-1.14844v-9.80273h2.92578c.42822,0,.82373.05371,1.18604.16113.3623.10645.67676.26953.94336.48828s.4751.49121.62549.81641c.15039.32617.22559.70801.22559,1.14551,0,.3418-.05127.65527-.15381.94043-.10254.28418-.24854.53906-.4375.76172s-.41699.41406-.68359.57031c-.2666.1582-.56641.2793-.89893.36621v.02734c.16406.07324.30664.15625.42725.24902.12061.09375.23584.20508.34521.33203s.21777.27246.32471.43359c.10693.16211.22656.34961.35889.56445l1.83887,2.94629ZM537.04799,189.23493v3.55469h1.55859c.28711,0,.55273-.04395.79639-.12988s.45459-.21094.63232-.37305c.17773-.16113.31689-.35938.41699-.59375.1001-.23535.15039-.49805.15039-.79004,0-.52441-.16992-.93262-.50928-1.22754-.33936-.29297-.83057-.44043-1.47314-.44043h-1.57227Z" fill="#2f2f2f"/>
      <path d="M549.5392,194.77887h-4.94238c.01807.7793.22803,1.38086.62891,1.80469s.95264.63574,1.6543.63574c.78857,0,1.51318-.25977,2.17383-.7793v1.05273c-.61523.44629-1.42871.66992-2.44043.66992-.98877,0-1.76611-.31738-2.33105-.9541-.56494-.63477-.84766-1.5293-.84766-2.68262,0-1.08887.30859-1.97656.92627-2.66309.61768-.68555,1.38428-1.02832,2.30029-1.02832s1.62451.2959,2.12598.88867.75195,1.41504.75195,2.46777v.58789ZM548.39077,193.82868c-.00439-.64746-.16064-1.15137-.46826-1.51074s-.73486-.54004-1.28174-.54004c-.52881,0-.97754.18848-1.34668.56738s-.59717.87305-.68359,1.4834h3.78027Z" fill="#2f2f2f"/>
      <path d="M557.23989,197.43805c0,2.57031-1.23047,3.85547-3.69141,3.85547-.86572,0-1.62256-.16406-2.26953-.49219v-1.12109c.78857.4375,1.54053.65625,2.25586.65625,1.72266,0,2.58398-.91602,2.58398-2.74805v-.76562h-.02734c-.5332.89355-1.33545,1.33984-2.40625,1.33984-.87061,0-1.57129-.31152-2.10205-.93262-.53076-.62305-.79639-1.45703-.79639-2.50586,0-1.18945.28613-2.13477.85791-2.83691s1.35449-1.05273,2.34814-1.05273c.94336,0,1.64307.37793,2.09863,1.13477h.02734v-.9707h1.12109v6.43945ZM556.11879,194.83356v-1.03223c0-.55566-.18799-1.03223-.56396-1.42871s-.84424-.59473-1.40479-.59473c-.69287,0-1.23486.25195-1.62695.75488-.39209.50391-.58789,1.20898-.58789,2.11621,0,.7793.18799,1.40234.56396,1.87012.37598.4668.87402.7002,1.49365.7002.62891,0,1.14062-.22363,1.53467-.66992s.59131-1.01855.59131-1.71582Z" fill="#2f2f2f"/>
      <path d="M559.92983,189.22126c-.20068,0-.37158-.06836-.5127-.20508s-.21191-.30957-.21191-.51953.0708-.38379.21191-.52246c.14111-.13965.31201-.20898.5127-.20898.20508,0,.37939.06934.52295.20898.14355.13867.21533.3125.21533.52246,0,.2002-.07178.37207-.21533.5127s-.31787.21191-.52295.21191ZM560.4767,197.9986h-1.12109v-7h1.12109v7Z" fill="#2f2f2f"/>
      <path d="M565.57094,198.16266c-1.03467,0-1.86035-.32715-2.47803-.98145-.61768-.65332-.92627-1.52051-.92627-2.60059,0-1.17578.32129-2.09473.96387-2.75488s1.51074-.99121,2.60449-.99121c1.04346,0,1.8584.32129,2.44385.96387s.87842,1.5332.87842,2.67285c0,1.11621-.31543,2.01074-.94678,2.68262-.63135.67285-1.47754,1.00879-2.53955,1.00879ZM565.65297,191.7779c-.72021,0-1.28955.24512-1.70898.73535-.41943.48926-.62891,1.16504-.62891,2.02637,0,.8291.21191,1.4834.63574,1.96191s.99121.71777,1.70215.71777c.72461,0,1.28174-.23535,1.67139-.7041s.58447-1.13672.58447-2.00293c0-.875-.19482-1.5498-.58447-2.02344s-.94678-.71094-1.67139-.71094Z" fill="#2f2f2f"/>
      <path d="M576.58315,197.9986h-1.12109v-3.99219c0-1.48535-.54248-2.22852-1.62695-2.22852-.56055,0-1.02441.21094-1.39111.63184-.3667.42188-.55029.9541-.55029,1.59668v3.99219h-1.12109v-7h1.12109v1.16211h.02734c.52881-.88379,1.29443-1.32617,2.29688-1.32617.76562,0,1.35107.24707,1.75684.74121.40576.49512.6084,1.20898.6084,2.14355v4.2793Z" fill="#2f2f2f"/>
      <path d="M582.68081,197.9986v-9.80273h2.78906c.84766,0,1.52002.20801,2.0166.62207s.74512.95508.74512,1.62012c0,.55566-.15039,1.03906-.45117,1.44922s-.71533.70215-1.24414.875v.02734c.66064.07715,1.18945.32715,1.58594.74902.39648.4209.59473.96875.59473,1.64355,0,.83887-.30078,1.51758-.90234,2.03711s-1.36035.7793-2.27637.7793h-2.85742ZM583.82924,189.23493v3.16504h1.17578c.62891,0,1.12354-.15137,1.4834-.45508.35986-.30273.54004-.73047.54004-1.28125,0-.95312-.62646-1.42871-1.87988-1.42871h-1.31934ZM583.82924,193.43219v3.52734h1.55859c.67432,0,1.19727-.15918,1.56885-.47852s.55713-.75684.55713-1.3125c0-1.15723-.78857-1.73633-2.36523-1.73633h-1.31934Z" fill="#2f2f2f"/>
      <path d="M521.21694,217.02692h-.99805c-1.4126-1.61328-2.11914-3.60254-2.11914-5.96777,0-2.37402.70654-4.39551,2.11914-6.06348h1.01172c-1.43115,1.73242-2.14648,3.74805-2.14648,6.0498,0,2.2832.71094,4.27637,2.13281,5.98145Z" fill="#2f2f2f"/>
      <path d="M534.74135,204.99567l-2.76855,9.80273h-1.34668l-2.0166-7.16406c-.08643-.30469-.13916-.63867-.15723-.99805h-.02734c-.02734.33789-.08643.66602-.17773.98438l-2.03027,7.17773h-1.33301l-2.87109-9.80273h1.26465l2.08496,7.51953c.08643.31445.14111.64258.16406.98438h.03418c.02295-.24219.09326-.57031.21191-.98438l2.16699-7.51953h1.10059l2.07812,7.57422c.07275.25977.12744.56445.16406.91602h.02734c.01807-.23633.07959-.55078.18457-.94336l2.00293-7.54688h1.24414Z" fill="#2f2f2f"/>
      <path d="M539.29799,208.93317c-.1958-.15039-.47852-.22559-.84766-.22559-.47852,0-.87842.22559-1.19971.67676s-.48193,1.06641-.48193,1.8457v3.56836h-1.12109v-7h1.12109v1.44238h.02734c.15967-.49219.40332-.87598.73145-1.15137.32812-.27637.69482-.41406,1.10059-.41406.2915,0,.51514.03125.66992.0957v1.16211Z" fill="#2f2f2f"/>
      <path d="M541.11587,206.02106c-.20068,0-.37158-.06836-.5127-.20508s-.21191-.31055-.21191-.51953.0708-.38379.21191-.52344c.14111-.13867.31201-.20801.5127-.20801.20508,0,.37939.06934.52295.20801.14355.13965.21533.31445.21533.52344,0,.20117-.07178.37109-.21533.5127s-.31787.21191-.52295.21191ZM541.66274,214.7984h-1.12109v-7h1.12109v7Z" fill="#2f2f2f"/>
      <path d="M547.11049,214.73004c-.26416.14648-.61279.21875-1.0459.21875-1.22607,0-1.83887-.68359-1.83887-2.05078v-4.14258h-1.20312v-.95703h1.20312v-1.70898l1.12109-.3623v2.07129h1.76367v.95703h-1.76367v3.94434c0,.46973.07959.80371.23926,1.00488s.42383.30078.79297.30078c.28271,0,.52637-.07812.73145-.23242v.95703Z" fill="#2f2f2f"/>
      <path d="M554.10366,211.57868h-4.94238c.01807.7793.22803,1.38086.62891,1.80469s.95264.63574,1.6543.63574c.78857,0,1.51318-.25977,2.17383-.7793v1.05273c-.61523.44727-1.42871.66992-2.44043.66992-.98877,0-1.76611-.31836-2.33105-.95312-.56494-.63672-.84766-1.53125-.84766-2.68359,0-1.08984.30859-1.97656.92627-2.66211.61768-.68652,1.38428-1.0293,2.30029-1.0293s1.62451.29688,2.12598.88867.75195,1.41504.75195,2.46777v.58789ZM552.95522,210.62848c-.00439-.64648-.16064-1.15039-.46826-1.51074s-.73486-.54004-1.28174-.54004c-.52881,0-.97754.18945-1.34668.56738s-.59717.87207-.68359,1.4834h3.78027Z" fill="#2f2f2f"/>
      <path d="M566.51088,211.17536h-2.76172v2.75488h-.90918v-2.75488h-2.75488v-.91602h2.75488v-2.75488h.90918v2.75488h2.76172v.91602Z" fill="#2f2f2f"/>
      <path d="M580.22378,214.7984h-1.36719l-1.64062-2.74805c-.15039-.25586-.29639-.47266-.4375-.65234-.14111-.18066-.28613-.32812-.43408-.44141s-.30762-.19727-.47852-.25c-.1709-.05176-.36328-.07812-.57764-.07812h-.94336v4.16992h-1.14844v-9.80273h2.92578c.42822,0,.82373.05371,1.18604.16016.3623.10742.67676.27051.94336.48926s.4751.49121.62549.81738c.15039.3252.22559.70703.22559,1.14453,0,.3418-.05127.65527-.15381.93945-.10254.28516-.24854.53906-.4375.7627s-.41699.41309-.68359.57129c-.2666.15625-.56641.2793-.89893.36523v.02734c.16406.07227.30664.15625.42725.25.12061.09277.23584.20312.34521.33105s.21777.27246.32471.43457c.10693.16113.22656.34961.35889.56348l1.83887,2.94629ZM574.34487,206.03473v3.55469h1.55859c.28711,0,.55273-.04297.79639-.12988s.45459-.21094.63232-.37207c.17773-.16211.31689-.36035.41699-.5957.1001-.23438.15039-.49805.15039-.78906,0-.52344-.16992-.93359-.50928-1.22656-.33936-.29492-.83057-.44141-1.47314-.44141h-1.57227Z" fill="#2f2f2f"/>
      <path d="M586.83608,211.57868h-4.94238c.01807.7793.22803,1.38086.62891,1.80469s.95264.63574,1.6543.63574c.78857,0,1.51318-.25977,2.17383-.7793v1.05273c-.61523.44727-1.42871.66992-2.44043.66992-.98877,0-1.76611-.31836-2.33105-.95312-.56494-.63672-.84766-1.53125-.84766-2.68359,0-1.08984.30859-1.97656.92627-2.66211.61768-.68652,1.38428-1.0293,2.30029-1.0293s1.62451.29688,2.12598.88867.75195,1.41504.75195,2.46777v.58789ZM585.68764,210.62848c-.00439-.64648-.16064-1.15039-.46826-1.51074s-.73486-.54004-1.28174-.54004c-.52881,0-.97754.18945-1.34668.56738s-.59717.87207-.68359,1.4834h3.78027Z" fill="#2f2f2f"/>
      <path d="M593.47475,214.7984h-1.12109v-1.09375h-.02734c-.48779.83789-1.20557,1.25781-2.15332,1.25781-.69727,0-1.24316-.18457-1.63721-.55371s-.59131-.8584-.59131-1.46973c0-1.30859.77002-2.06836,2.31055-2.2832l2.09863-.29395c0-1.18945-.48096-1.78418-1.44238-1.78418-.84326,0-1.604.28711-2.2832.86133v-1.14844c.68799-.4375,1.48096-.65625,2.37891-.65625,1.64502,0,2.46777.87109,2.46777,2.61133v4.55273ZM592.35366,211.25739l-1.68848.23242c-.51953.07227-.91162.20117-1.17578.38672-.26416.18359-.39648.51172-.39648.98047,0,.3418.12207.62109.36572.83789.24365.21582.56836.32422.97412.32422.55615,0,1.01514-.19531,1.37744-.58398.3623-.39062.54346-.88281.54346-1.48047v-.69727Z" fill="#2f2f2f"/>
      <path d="M601.5436,214.7984h-1.12109v-1.18945h-.02734c-.51953.90234-1.32178,1.35352-2.40625,1.35352-.87939,0-1.58252-.31348-2.10889-.93945-.52637-.62695-.78955-1.48047-.78955-2.56055,0-1.1582.2915-2.08496.875-2.78223s1.36035-1.0459,2.33105-1.0459c.96143,0,1.66113.37891,2.09863,1.13477h.02734v-4.33398h1.12109v10.36328ZM600.42251,211.63337v-1.03223c0-.56445-.18701-1.04297-.56055-1.43555s-.84766-.58789-1.42188-.58789c-.68359,0-1.22119.25-1.61328.75195s-.58789,1.19336-.58789,2.07812c0,.80664.18799,1.44336.56396,1.91016.37598.46777.88086.70117,1.51416.70117.62451,0,1.13135-.22559,1.521-.67676s.58447-1.02051.58447-1.70898Z" fill="#2f2f2f"/>
      <path d="M603.83071,217.02692h-.99805c1.42188-1.70508,2.13281-3.69824,2.13281-5.98145,0-2.30176-.71533-4.31738-2.14648-6.0498h1.01172c1.42188,1.66797,2.13281,3.68945,2.13281,6.06348,0,2.36523-.71094,4.35449-2.13281,5.96777Z" fill="#2f2f2f"/>
    </g>
    <g>
      <path d="M210.78383,103.19587l-2.76855,9.80273h-1.34668l-2.0166-7.16406c-.08643-.30518-.13916-.63818-.15723-.99805h-.02734c-.02734.3374-.08643.66553-.17773.98438l-2.03027,7.17773h-1.33301l-2.87109-9.80273h1.26465l2.08496,7.51953c.08643.31445.14111.64258.16406.98438h.03418c.02295-.2417.09326-.56982.21191-.98438l2.16699-7.51953h1.10059l2.07812,7.57422c.07275.25977.12744.56494.16406.91602h.02734c.01807-.23682.07959-.55127.18457-.94336l2.00293-7.54688h1.24414Z" fill="#2f2f2f"/>
      <path d="M215.34096,107.13337c-.1958-.15039-.47852-.22559-.84766-.22559-.47852,0-.87842.22559-1.19971.67676s-.48193,1.06641-.48193,1.8457v3.56836h-1.12109v-7h1.12109v1.44238h.02734c.15967-.49219.40332-.87598.73145-1.15186s.69482-.41357,1.10059-.41357c.2915,0,.51514.03174.66992.0957v1.16211Z" fill="#2f2f2f"/>
      <path d="M217.15835,104.22126c-.20068,0-.37158-.06836-.5127-.20508s-.21191-.31006-.21191-.51953.0708-.38379.21191-.52295.31201-.2085.5127-.2085c.20508,0,.37939.06934.52295.2085s.21533.31348.21533.52295c0,.20068-.07178.37158-.21533.5127s-.31787.21191-.52295.21191ZM217.70522,112.9986h-1.12109v-7h1.12109v7Z" fill="#2f2f2f"/>
      <path d="M223.15346,112.93024c-.26416.146-.61279.21875-1.0459.21875-1.22607,0-1.83887-.68359-1.83887-2.05078v-4.14258h-1.20312v-.95703h1.20312v-1.70898l1.12109-.3623v2.07129h1.76367v.95703h-1.76367v3.94434c0,.46924.07959.8042.23926,1.00488s.42383.30078.79297.30078c.28271,0,.52637-.07764.73145-.23242v.95703Z" fill="#2f2f2f"/>
      <path d="M230.14614,109.77887h-4.94238c.01807.7793.22803,1.38086.62891,1.80469s.95264.63574,1.6543.63574c.78857,0,1.51318-.25977,2.17383-.7793v1.05273c-.61523.44678-1.42871.66992-2.44043.66992-.98877,0-1.76611-.31787-2.33105-.95361s-.84766-1.53027-.84766-2.68311c0-1.08936.30859-1.97656.92627-2.6626s1.38428-1.02881,2.30029-1.02881,1.62451.29639,2.12598.88867.75195,1.41504.75195,2.46777v.58789ZM228.9977,108.82868c-.00439-.64697-.16064-1.15088-.46826-1.51074s-.73486-.54004-1.28174-.54004c-.52881,0-.97754.18896-1.34668.56738s-.59717.87256-.68359,1.4834h3.78027Z" fill="#2f2f2f"/>
      <path d="M231.38833,112.74567v-1.20312c.61084.45117,1.28271.67676,2.0166.67676.98438,0,1.47656-.32812,1.47656-.98438,0-.18701-.04199-.34521-.12646-.4751s-.19824-.24512-.3418-.34521-.31201-.19043-.50586-.27002-.40234-.16309-.62549-.24951c-.31006-.12305-.58203-.24707-.81689-.37256s-.43066-.2666-.58789-.42383-.27588-.33594-.35547-.53662-.11963-.43506-.11963-.7041c0-.32812.0752-.61865.22559-.87158s.35107-.46484.60156-.63574.53662-.2998.85791-.38623.65283-.12988.99463-.12988c.60596,0,1.14844.10498,1.62695.31445v1.13477c-.51514-.3374-1.10742-.50586-1.77734-.50586-.20947,0-.39893.02393-.56738.07178s-.31348.11523-.43408.20166-.21436.19043-.28027.31104-.09912.25391-.09912.3999c0,.18213.0332.33496.09912.45801s.16309.23242.29053.32812.28271.18213.46484.25977.38965.16162.62207.25293c.31006.11865.58789.24023.83398.36572s.45557.2666.62891.42383.30664.33838.3999.54346.14014.44873.14014.73145c0,.34619-.07617.64697-.229.90234s-.35645.46729-.61182.63574-.54932.29395-.88184.37598-.68115.12305-1.0459.12305c-.72021,0-1.34424-.13916-1.87305-.41699Z" fill="#2f2f2f"/>
    </g>
    <g>
      <path d="M293.33022,112.9986h-1.36719l-1.64062-2.74805c-.15039-.25537-.29639-.47266-.4375-.65283s-.28613-.32715-.43408-.44092-.30762-.19727-.47852-.24951-.36328-.07861-.57764-.07861h-.94336v4.16992h-1.14844v-9.80273h2.92578c.42822,0,.82373.05371,1.18604.16064s.67676.27002.94336.48877.4751.49121.62549.81689.22559.70752.22559,1.14502c0,.3418-.05127.65527-.15381.93994s-.24854.53906-.4375.76221-.41699.41357-.68359.5708-.56641.2793-.89893.36572v.02734c.16406.07275.30664.15625.42725.24951s.23584.2041.34521.33154.21777.27246.32471.43408.22656.34961.35889.56396l1.83887,2.94629ZM287.45131,104.23493v3.55469h1.55859c.28711,0,.55273-.04346.79639-.12988s.45459-.21094.63232-.37256.31689-.35986.41699-.59473.15039-.49805.15039-.78955c0-.52393-.16992-.93311-.50928-1.22705s-.83057-.44092-1.47314-.44092h-1.57227Z" fill="#2f2f2f"/>
      <path d="M299.94253,109.77887h-4.94238c.01807.7793.22803,1.38086.62891,1.80469s.95264.63574,1.6543.63574c.78857,0,1.51318-.25977,2.17383-.7793v1.05273c-.61523.44678-1.42871.66992-2.44043.66992-.98877,0-1.76611-.31787-2.33105-.95361s-.84766-1.53027-.84766-2.68311c0-1.08936.30859-1.97656.92627-2.6626s1.38428-1.02881,2.30029-1.02881,1.62451.29639,2.12598.88867.75195,1.41504.75195,2.46777v.58789ZM298.79409,108.82868c-.00439-.64697-.16064-1.15088-.46826-1.51074s-.73486-.54004-1.28174-.54004c-.52881,0-.97754.18896-1.34668.56738s-.59717.87256-.68359,1.4834h3.78027Z" fill="#2f2f2f"/>
      <path d="M306.5812,112.9986h-1.12109v-1.09375h-.02734c-.48779.83838-1.20557,1.25781-2.15332,1.25781-.69727,0-1.24316-.18457-1.63721-.55371s-.59131-.85889-.59131-1.46973c0-1.30811.77002-2.06885,2.31055-2.2832l2.09863-.29395c0-1.18945-.48096-1.78418-1.44238-1.78418-.84326,0-1.604.28711-2.2832.86133v-1.14844c.68799-.4375,1.48096-.65625,2.37891-.65625,1.64502,0,2.46777.87061,2.46777,2.61133v4.55273ZM305.4601,109.45758l-1.68848.23242c-.51953.07275-.91162.20166-1.17578.38623s-.39648.51172-.39648.98096c0,.3418.12207.62109.36572.8374s.56836.32471.97412.32471c.55615,0,1.01514-.19482,1.37744-.58447s.54346-.88281.54346-1.47998v-.69727Z" fill="#2f2f2f"/>
      <path d="M314.65004,112.9986h-1.12109v-1.18945h-.02734c-.51953.90234-1.32178,1.35352-2.40625,1.35352-.87939,0-1.58252-.31348-2.10889-.93994s-.78955-1.47998-.78955-2.56006c0-1.15771.2915-2.08496.875-2.78223s1.36035-1.0459,2.33105-1.0459c.96143,0,1.66113.37842,2.09863,1.13477h.02734v-4.33398h1.12109v10.36328ZM313.52895,109.83356v-1.03223c0-.56494-.18701-1.04346-.56055-1.43555s-.84766-.58789-1.42188-.58789c-.68359,0-1.22119.25049-1.61328.75195s-.58789,1.19385-.58789,2.07812c0,.80664.18799,1.44336.56396,1.91064s.88086.70068,1.51416.70068c.62451,0,1.13135-.22559,1.521-.67676s.58447-1.021.58447-1.70898Z" fill="#2f2f2f"/>
      <path d="M316.41323,112.74567v-1.20312c.61084.45117,1.28271.67676,2.0166.67676.98438,0,1.47656-.32812,1.47656-.98438,0-.18701-.04199-.34521-.12646-.4751s-.19824-.24512-.3418-.34521-.31201-.19043-.50586-.27002-.40234-.16309-.62549-.24951c-.31006-.12305-.58203-.24707-.81689-.37256s-.43066-.2666-.58789-.42383-.27588-.33594-.35547-.53662-.11963-.43506-.11963-.7041c0-.32812.0752-.61865.22559-.87158s.35107-.46484.60156-.63574.53662-.2998.85791-.38623.65283-.12988.99463-.12988c.60596,0,1.14844.10498,1.62695.31445v1.13477c-.51514-.3374-1.10742-.50586-1.77734-.50586-.20947,0-.39893.02393-.56738.07178s-.31348.11523-.43408.20166-.21436.19043-.28027.31104-.09912.25391-.09912.3999c0,.18213.0332.33496.09912.45801s.16309.23242.29053.32812.28271.18213.46484.25977.38965.16162.62207.25293c.31006.11865.58789.24023.83398.36572s.45557.2666.62891.42383.30664.33838.3999.54346.14014.44873.14014.73145c0,.34619-.07617.64697-.229.90234s-.35645.46729-.61182.63574-.54932.29395-.88184.37598-.68115.12305-1.0459.12305c-.72021,0-1.34424-.13916-1.87305-.41699Z" fill="#2f2f2f"/>
    </g>
    <g>
      <path d="M514.38344,103.19587l-2.76855,9.80273h-1.34668l-2.0166-7.16406c-.08643-.30518-.13916-.63818-.15723-.99805h-.02734c-.02734.3374-.08643.66553-.17773.98438l-2.03027,7.17773h-1.33301l-2.87109-9.80273h1.26465l2.08496,7.51953c.08643.31445.14111.64258.16406.98438h.03418c.02295-.2417.09326-.56982.21191-.98438l2.16699-7.51953h1.10059l2.07812,7.57422c.07275.25977.12744.56494.16406.91602h.02734c.01807-.23682.07959-.55127.18457-.94336l2.00293-7.54688h1.24414Z" fill="#2f2f2f"/>
      <path d="M518.94057,107.13337c-.1958-.15039-.47852-.22559-.84766-.22559-.47852,0-.87842.22559-1.19971.67676s-.48193,1.06641-.48193,1.8457v3.56836h-1.12109v-7h1.12109v1.44238h.02734c.15967-.49219.40332-.87598.73145-1.15186s.69482-.41357,1.10059-.41357c.2915,0,.51514.03174.66992.0957v1.16211Z" fill="#2f2f2f"/>
      <path d="M520.75795,104.22126c-.20068,0-.37158-.06836-.5127-.20508s-.21191-.31006-.21191-.51953.0708-.38379.21191-.52295.31201-.2085.5127-.2085c.20508,0,.37939.06934.52295.2085s.21533.31348.21533.52295c0,.20068-.07178.37158-.21533.5127s-.31787.21191-.52295.21191ZM521.30483,112.9986h-1.12109v-7h1.12109v7Z" fill="#2f2f2f"/>
      <path d="M526.75307,112.93024c-.26416.146-.61279.21875-1.0459.21875-1.22607,0-1.83887-.68359-1.83887-2.05078v-4.14258h-1.20312v-.95703h1.20312v-1.70898l1.12109-.3623v2.07129h1.76367v.95703h-1.76367v3.94434c0,.46924.07959.8042.23926,1.00488s.42383.30078.79297.30078c.28271,0,.52637-.07764.73145-.23242v.95703Z" fill="#2f2f2f"/>
      <path d="M533.74575,109.77887h-4.94238c.01807.7793.22803,1.38086.62891,1.80469s.95264.63574,1.6543.63574c.78857,0,1.51318-.25977,2.17383-.7793v1.05273c-.61523.44678-1.42871.66992-2.44043.66992-.98877,0-1.76611-.31787-2.33105-.95361s-.84766-1.53027-.84766-2.68311c0-1.08936.30859-1.97656.92627-2.6626s1.38428-1.02881,2.30029-1.02881,1.62451.29639,2.12598.88867.75195,1.41504.75195,2.46777v.58789ZM532.59731,108.82868c-.00439-.64697-.16064-1.15088-.46826-1.51074s-.73486-.54004-1.28174-.54004c-.52881,0-.97754.18896-1.34668.56738s-.59717.87256-.68359,1.4834h3.78027Z" fill="#2f2f2f"/>
      <path d="M534.98794,112.74567v-1.20312c.61084.45117,1.28271.67676,2.0166.67676.98438,0,1.47656-.32812,1.47656-.98438,0-.18701-.04199-.34521-.12646-.4751s-.19824-.24512-.3418-.34521-.31201-.19043-.50586-.27002-.40234-.16309-.62549-.24951c-.31006-.12305-.58203-.24707-.81689-.37256s-.43066-.2666-.58789-.42383-.27588-.33594-.35547-.53662-.11963-.43506-.11963-.7041c0-.32812.0752-.61865.22559-.87158s.35107-.46484.60156-.63574.53662-.2998.85791-.38623.65283-.12988.99463-.12988c.60596,0,1.14844.10498,1.62695.31445v1.13477c-.51514-.3374-1.10742-.50586-1.77734-.50586-.20947,0-.39893.02393-.56738.07178s-.31348.11523-.43408.20166-.21436.19043-.28027.31104-.09912.25391-.09912.3999c0,.18213.0332.33496.09912.45801s.16309.23242.29053.32812.28271.18213.46484.25977.38965.16162.62207.25293c.31006.11865.58789.24023.83398.36572s.45557.2666.62891.42383.30664.33838.3999.54346.14014.44873.14014.73145c0,.34619-.07617.64697-.229.90234s-.35645.46729-.61182.63574-.54932.29395-.88184.37598-.68115.12305-1.0459.12305c-.72021,0-1.34424-.13916-1.87305-.41699Z" fill="#2f2f2f"/>
    </g>
    <g>
      <path d="M596.92983,112.9986h-1.36719l-1.64062-2.74805c-.15039-.25537-.2959-.47266-.4375-.65283-.14062-.18018-.28613-.32715-.43359-.44092-.14844-.11377-.30762-.19727-.47852-.24951s-.36328-.07861-.57812-.07861h-.94336v4.16992h-1.14844v-9.80273h2.92578c.42871,0,.82422.05371,1.18652.16064s.67676.27002.94336.48877.47461.49121.625.81689.22559.70752.22559,1.14502c0,.3418-.05078.65527-.15332.93994s-.24902.53906-.4375.76221c-.18945.22314-.41699.41357-.68359.5708s-.56641.2793-.89941.36572v.02734c.16406.07275.30664.15625.42773.24951.12012.09326.23535.2041.34473.33154s.21777.27246.3252.43408c.10645.16162.22656.34961.3584.56396l1.83887,2.94629ZM591.05092,104.23493v3.55469h1.55859c.28711,0,.55273-.04346.79688-.12988.24316-.08643.4541-.21094.63184-.37256s.31738-.35986.41699-.59473c.10059-.23486.15039-.49805.15039-.78955,0-.52393-.16992-.93311-.50879-1.22705-.33984-.29395-.83105-.44092-1.47363-.44092h-1.57227Z" fill="#2f2f2f"/>
      <path d="M603.54213,109.77887h-4.94238c.01855.7793.22852,1.38086.62891,1.80469.40137.42383.95312.63574,1.6543.63574.78906,0,1.51367-.25977,2.17383-.7793v1.05273c-.61523.44678-1.42871.66992-2.44043.66992-.98828,0-1.76562-.31787-2.33105-.95361-.56445-.63574-.84766-1.53027-.84766-2.68311,0-1.08936.30859-1.97656.92676-2.6626.61719-.68604,1.38379-1.02881,2.2998-1.02881s1.625.29639,2.12598.88867c.50195.59229.75195,1.41504.75195,2.46777v.58789ZM602.3937,108.82868c-.00391-.64697-.16016-1.15088-.46777-1.51074s-.73535-.54004-1.28223-.54004c-.52832,0-.97754.18896-1.34668.56738s-.59668.87256-.68359,1.4834h3.78027Z" fill="#2f2f2f"/>
      <path d="M610.18081,112.9986h-1.12109v-1.09375h-.02734c-.4873.83838-1.20508,1.25781-2.15332,1.25781-.69727,0-1.24316-.18457-1.63672-.55371-.39453-.36914-.5918-.85889-.5918-1.46973,0-1.30811.77051-2.06885,2.31055-2.2832l2.09863-.29395c0-1.18945-.48047-1.78418-1.44238-1.78418-.84277,0-1.60352.28711-2.2832.86133v-1.14844c.68848-.4375,1.48145-.65625,2.37891-.65625,1.64551,0,2.46777.87061,2.46777,2.61133v4.55273ZM609.05971,109.45758l-1.68848.23242c-.51953.07275-.91113.20166-1.17578.38623-.26367.18457-.39648.51172-.39648.98096,0,.3418.12207.62109.36621.8374.24316.21631.56836.32471.97363.32471.55664,0,1.01562-.19482,1.37793-.58447s.54297-.88281.54297-1.47998v-.69727Z" fill="#2f2f2f"/>
      <path d="M618.25014,112.9986h-1.12109v-1.18945h-.02734c-.51953.90234-1.32227,1.35352-2.40625,1.35352-.87988,0-1.58301-.31348-2.10938-.93994s-.78906-1.47998-.78906-2.56006c0-1.15771.29102-2.08496.875-2.78223.58301-.69727,1.36035-1.0459,2.33105-1.0459.96094,0,1.66113.37842,2.09863,1.13477h.02734v-4.33398h1.12109v10.36328ZM617.12905,109.83356v-1.03223c0-.56494-.1875-1.04346-.56055-1.43555-.37402-.39209-.84766-.58789-1.42188-.58789-.68359,0-1.22168.25049-1.61328.75195-.39258.50146-.58789,1.19385-.58789,2.07812,0,.80664.1875,1.44336.56348,1.91064s.88086.70068,1.51465.70068c.62402,0,1.13086-.22559,1.52051-.67676s.58496-1.021.58496-1.70898Z" fill="#2f2f2f"/>
      <path d="M620.01284,112.74567v-1.20312c.61133.45117,1.2832.67676,2.0166.67676.98438,0,1.47656-.32812,1.47656-.98438,0-.18701-.04199-.34521-.12598-.4751-.08496-.12988-.19824-.24512-.3418-.34521s-.3125-.19043-.50586-.27002c-.19434-.07959-.40234-.16309-.62598-.24951-.30957-.12305-.58203-.24707-.81641-.37256-.23535-.12549-.43066-.2666-.58789-.42383s-.27637-.33594-.35547-.53662c-.08008-.20068-.12012-.43506-.12012-.7041,0-.32812.0752-.61865.22559-.87158s.35156-.46484.60156-.63574c.25098-.1709.53711-.2998.8584-.38623s.65234-.12988.99414-.12988c.60645,0,1.14844.10498,1.62695.31445v1.13477c-.51465-.3374-1.10742-.50586-1.77734-.50586-.20898,0-.39844.02393-.56738.07178-.16797.04785-.31348.11523-.43359.20166-.12109.08643-.21484.19043-.28027.31104-.06641.12061-.09961.25391-.09961.3999,0,.18213.0332.33496.09961.45801.06543.12305.16309.23242.29004.32812.12793.0957.2832.18213.46484.25977.18262.07764.38965.16162.62207.25293.31055.11865.58789.24023.83398.36572s.45605.2666.62891.42383c.17383.15723.30664.33838.40039.54346.09277.20508.13965.44873.13965.73145,0,.34619-.07617.64697-.22852.90234-.15332.25537-.35645.46729-.6123.63574-.25488.16846-.54883.29395-.88184.37598-.33203.08203-.68066.12305-1.0459.12305-.71973,0-1.34375-.13916-1.87305-.41699Z" fill="#2f2f2f"/>
    </g>
    <g>
      <path d="M524.37465,72.38825c-.72461.38281-1.62695.57422-2.70703.57422-1.39453,0-2.51123-.44873-3.34961-1.34668s-1.25781-2.07568-1.25781-3.53418c0-1.56787.47168-2.83447,1.41504-3.80078s2.13965-1.44922,3.58887-1.44922c.92969,0,1.69971.13428,2.31055.40332v1.22363c-.70166-.39209-1.47656-.58789-2.32422-.58789-1.12549,0-2.03809.37598-2.73779,1.12793s-1.04932,1.75684-1.04932,3.01465c0,1.19385.32715,2.14551.98096,2.854s1.51172,1.06299,2.57373,1.06299c.98438,0,1.83643-.21875,2.55664-.65625v1.11426Z" fill="#2f2f2f"/>
      <path d="M527.04751,72.7984h-1.12109v-10.36328h1.12109v10.36328Z" fill="#2f2f2f"/>
      <path d="M529.73452,64.02106c-.20068,0-.37158-.06836-.5127-.20508s-.21191-.31006-.21191-.51953.0708-.38379.21191-.52295.31201-.2085.5127-.2085c.20508,0,.37939.06934.52295.2085s.21533.31348.21533.52295c0,.20068-.07178.37158-.21533.5127s-.31787.21191-.52295.21191ZM530.28139,72.7984h-1.12109v-7h1.12109v7Z" fill="#2f2f2f"/>
      <path d="M538.07583,69.57868h-4.94238c.01807.7793.22803,1.38086.62891,1.80469s.95264.63574,1.6543.63574c.78857,0,1.51318-.25977,2.17383-.7793v1.05273c-.61523.44678-1.42871.66992-2.44043.66992-.98877,0-1.76611-.31787-2.33105-.95361s-.84766-1.53027-.84766-2.68311c0-1.08936.30859-1.97656.92627-2.6626s1.38428-1.02881,2.30029-1.02881,1.62451.29639,2.12598.88867.75195,1.41504.75195,2.46777v.58789ZM536.92739,68.62848c-.00439-.64697-.16064-1.15088-.46826-1.51074s-.73486-.54004-1.28174-.54004c-.52881,0-.97754.18896-1.34668.56738s-.59717.87256-.68359,1.4834h3.78027Z" fill="#2f2f2f"/>
      <path d="M545.56948,72.7984h-1.12109v-3.99219c0-1.48584-.54248-2.22852-1.62695-2.22852-.56055,0-1.02441.21094-1.39111.63232s-.55029.95361-.55029,1.59619v3.99219h-1.12109v-7h1.12109v1.16211h.02734c.52881-.88428,1.29443-1.32617,2.29688-1.32617.76562,0,1.35107.24707,1.75684.7417s.6084,1.20898.6084,2.14307v4.2793Z" fill="#2f2f2f"/>
      <path d="M550.79848,72.73004c-.26416.146-.61279.21875-1.0459.21875-1.22607,0-1.83887-.68359-1.83887-2.05078v-4.14258h-1.20312v-.95703h1.20312v-1.70898l1.12109-.3623v2.07129h1.76367v.95703h-1.76367v3.94434c0,.46924.07959.8042.23926,1.00488s.42383.30078.79297.30078c.28271,0,.52637-.07764.73145-.23242v.95703Z" fill="#2f2f2f"/>
      <path d="M561.14126,72.7984h-1.12109v-1.09375h-.02734c-.48779.83838-1.20557,1.25781-2.15332,1.25781-.69727,0-1.24316-.18457-1.63721-.55371s-.59131-.85889-.59131-1.46973c0-1.30811.77002-2.06885,2.31055-2.2832l2.09863-.29395c0-1.18945-.48096-1.78418-1.44238-1.78418-.84326,0-1.604.28711-2.2832.86133v-1.14844c.68799-.4375,1.48096-.65625,2.37891-.65625,1.64502,0,2.46777.87061,2.46777,2.61133v4.55273ZM560.02016,69.25739l-1.68848.23242c-.51953.07275-.91162.20166-1.17578.38623s-.39648.51172-.39648.98096c0,.3418.12207.62109.36572.8374s.56836.32471.97412.32471c.55615,0,1.01514-.19482,1.37744-.58447s.54346-.88281.54346-1.47998v-.69727Z" fill="#2f2f2f"/>
      <path d="M564.31118,71.78669h-.02734v4.23145h-1.12109v-10.21973h1.12109v1.23047h.02734c.55127-.92969,1.35791-1.39453,2.41992-1.39453.90234,0,1.60645.31348,2.1123.93994s.75879,1.46631.75879,2.51904c0,1.17139-.28467,2.10889-.85449,2.81299s-1.34912,1.05615-2.33789,1.05615c-.90674,0-1.60645-.39209-2.09863-1.17578ZM564.28383,68.96344v.97754c0,.57861.18799,1.06982.56396,1.47314s.85352.60498,1.43213.60498c.6792,0,1.21094-.25977,1.59619-.7793s.57764-1.2417.57764-2.16699c0-.7793-.18018-1.39014-.54004-1.83203s-.84766-.66309-1.46289-.66309c-.65186,0-1.17578.22656-1.57227.68018s-.59473,1.02197-.59473,1.70557Z" fill="#2f2f2f"/>
      <path d="M572.46743,71.78669h-.02734v4.23145h-1.12109v-10.21973h1.12109v1.23047h.02734c.55127-.92969,1.35791-1.39453,2.41992-1.39453.90234,0,1.60645.31348,2.1123.93994s.75879,1.46631.75879,2.51904c0,1.17139-.28467,2.10889-.85449,2.81299s-1.34912,1.05615-2.33789,1.05615c-.90674,0-1.60645-.39209-2.09863-1.17578ZM572.44008,68.96344v.97754c0,.57861.18799,1.06982.56396,1.47314s.85352.60498,1.43213.60498c.6792,0,1.21094-.25977,1.59619-.7793s.57764-1.2417.57764-2.16699c0-.7793-.18018-1.39014-.54004-1.83203s-.84766-.66309-1.46289-.66309c-.65186,0-1.17578.22656-1.57227.68018s-.59473,1.02197-.59473,1.70557Z" fill="#2f2f2f"/>
      <path d="M580.60854,72.7984h-1.12109v-10.36328h1.12109v10.36328Z" fill="#2f2f2f"/>
      <path d="M583.29555,64.02106c-.20068,0-.37158-.06836-.5127-.20508s-.21191-.31006-.21191-.51953.0708-.38379.21191-.52295.31201-.2085.5127-.2085c.20508,0,.37939.06934.52295.2085s.21533.31348.21533.52295c0,.20068-.07178.37158-.21533.5127s-.31787.21191-.52295.21191ZM583.84243,72.7984h-1.12109v-7h1.12109v7Z" fill="#2f2f2f"/>
      <path d="M590.75454,72.47712c-.5376.32373-1.17578.48535-1.91406.48535-.99805,0-1.80371-.32471-2.4165-.97412s-.91943-1.49121-.91943-2.52588c0-1.15283.33057-2.0791.99121-2.77881s1.54248-1.04932,2.64551-1.04932c.61523,0,1.15771.11377,1.62695.3418v1.14844c-.51953-.36475-1.07568-.54688-1.66797-.54688-.71533,0-1.30225.25635-1.76025.76904s-.68701,1.18604-.68701,2.02002c0,.82031.21533,1.46729.646,1.94141s1.0083.71094,1.73291.71094c.61084,0,1.18506-.20264,1.72266-.6084v1.06641Z" fill="#2f2f2f"/>
      <path d="M597.49868,72.7984h-1.12109v-1.09375h-.02734c-.48779.83838-1.20557,1.25781-2.15332,1.25781-.69727,0-1.24316-.18457-1.63721-.55371s-.59131-.85889-.59131-1.46973c0-1.30811.77002-2.06885,2.31055-2.2832l2.09863-.29395c0-1.18945-.48096-1.78418-1.44238-1.78418-.84326,0-1.604.28711-2.2832.86133v-1.14844c.68799-.4375,1.48096-.65625,2.37891-.65625,1.64502,0,2.46777.87061,2.46777,2.61133v4.55273ZM596.37758,69.25739l-1.68848.23242c-.51953.07275-.91162.20166-1.17578.38623s-.39648.51172-.39648.98096c0,.3418.12207.62109.36572.8374s.56836.32471.97412.32471c.55615,0,1.01514-.19482,1.37744-.58447s.54346-.88281.54346-1.47998v-.69727Z" fill="#2f2f2f"/>
      <path d="M602.75698,72.73004c-.26416.146-.61279.21875-1.0459.21875-1.22607,0-1.83887-.68359-1.83887-2.05078v-4.14258h-1.20312v-.95703h1.20312v-1.70898l1.12109-.3623v2.07129h1.76367v.95703h-1.76367v3.94434c0,.46924.07959.8042.23926,1.00488s.42383.30078.79297.30078c.28271,0,.52637-.07764.73145-.23242v.95703Z" fill="#2f2f2f"/>
      <path d="M604.71206,64.02106c-.20068,0-.37158-.06836-.5127-.20508s-.21191-.31006-.21191-.51953.0708-.38379.21191-.52295.31201-.2085.5127-.2085c.20508,0,.37939.06934.52295.2085s.21533.31348.21533.52295c0,.20068-.07178.37158-.21533.5127s-.31787.21191-.52295.21191ZM605.25893,72.7984h-1.12109v-7h1.12109v7Z" fill="#2f2f2f"/>
      <path d="M610.35366,72.96247c-1.03467,0-1.86035-.32715-2.47803-.98096s-.92627-1.521-.92627-2.60107c0-1.17578.32129-2.09424.96387-2.75488s1.51074-.99121,2.60449-.99121c1.04346,0,1.8584.32129,2.44385.96387s.87842,1.53369.87842,2.67285c0,1.1167-.31543,2.01074-.94678,2.68311s-1.47754,1.0083-2.53955,1.0083ZM610.43569,66.5777c-.72021,0-1.28955.24512-1.70898.73486s-.62891,1.16553-.62891,2.02686c0,.82959.21191,1.4834.63574,1.96191s.99121.71777,1.70215.71777c.72461,0,1.28174-.23486,1.67139-.7041s.58447-1.13721.58447-2.00293c0-.875-.19482-1.54932-.58447-2.02344s-.94678-.71094-1.67139-.71094Z" fill="#2f2f2f"/>
      <path d="M621.36587,72.7984h-1.12109v-3.99219c0-1.48584-.54248-2.22852-1.62695-2.22852-.56055,0-1.02441.21094-1.39111.63232s-.55029.95361-.55029,1.59619v3.99219h-1.12109v-7h1.12109v1.16211h.02734c.52881-.88428,1.29443-1.32617,2.29688-1.32617.76562,0,1.35107.24707,1.75684.7417s.6084,1.20898.6084,2.14307v4.2793Z" fill="#2f2f2f"/>
      <path d="M631.45571,65.56598c0-.30078-.04688-.56299-.14014-.78613s-.22119-.40918-.38281-.55713-.35205-.25879-.5708-.33154-.45557-.10938-.71094-.10938c-.21875,0-.43311.02979-.64258.08887s-.41357.14111-.61182.24609-.38965.22998-.57422.37598-.35645.30762-.51611.48535v-1.20312c.31445-.30518.6665-.53906,1.05615-.70068s.86475-.24268,1.42529-.24268c.40088,0,.77246.05811,1.11426.17432s.63818.28613.88867.50928.44775.49902.59131.82715.21533.7041.21533,1.12793c0,.38721-.04443.73828-.1333,1.05273s-.22314.61084-.40332.88867-.40674.54443-.68018.7998-.59473.51514-.96387.7793c-.46045.32812-.83984.6084-1.13818.84082s-.53564.4502-.71094.65283-.29834.40576-.36914.6084-.10596.43652-.10596.70068h4.88086v1.00488h-6.0498v-.48535c0-.41943.04541-.78857.13672-1.10742s.2417-.62207.45117-.90918.48438-.57422.82373-.86133.75537-.61084,1.24756-.9707c.35547-.25537.65283-.49902.89209-.73145s.43164-.46484.57764-.69727.24951-.46826.31104-.70752.09229-.49316.09229-.76221Z" fill="#2f2f2f"/>
    </g>
    <g>
      <path d="M375.82973,211.19879h-1.27148l-1.03906-2.74805h-4.15625l-.97754,2.74805h-1.27832l3.75977-9.80273h1.18945l3.77344,9.80273ZM373.14321,207.41852l-1.53809-4.17676c-.05029-.13672-.1001-.35547-.15039-.65625h-.02734c-.04541.27734-.09814.49609-.15723.65625l-1.52441,4.17676h3.39746Z" fill="#2f2f2f"/>
      <path d="M376.89663,210.94587v-1.20312c.61084.45117,1.28271.67676,2.0166.67676.98438,0,1.47656-.32812,1.47656-.98438,0-.1875-.04199-.3457-.12646-.47559s-.19824-.24512-.3418-.34473c-.14355-.10059-.31201-.19043-.50586-.27051-.19385-.0791-.40234-.16309-.62549-.24902-.31006-.12305-.58203-.24707-.81689-.37305-.23486-.125-.43066-.2666-.58789-.42383s-.27588-.33594-.35547-.53613c-.07959-.20117-.11963-.43555-.11963-.7041,0-.32812.0752-.61914.22559-.87207s.35107-.46484.60156-.63574.53662-.2998.85791-.38574c.32129-.08691.65283-.12988.99463-.12988.60596,0,1.14844.10449,1.62695.31445v1.13477c-.51514-.33789-1.10742-.50586-1.77734-.50586-.20947,0-.39893.02344-.56738.07129s-.31348.11523-.43408.20215c-.12061.08594-.21436.19043-.28027.31055-.06592.12109-.09912.25391-.09912.40039,0,.18164.0332.33496.09912.45801s.16309.23242.29053.32812.28271.18164.46484.25977c.18213.07715.38965.16113.62207.25293.31006.11816.58789.24023.83398.36523.24609.12598.45557.2666.62891.42383s.30664.33887.3999.54395.14014.44824.14014.73145c0,.3457-.07617.64648-.229.90234-.15283.25488-.35645.4668-.61182.63574-.25537.16797-.54932.29395-.88184.37598s-.68115.12305-1.0459.12305c-.72021,0-1.34424-.13965-1.87305-.41699Z" fill="#2f2f2f"/>
      <path d="M388.95962,204.19879l-3.21973,8.12109c-.57422,1.44922-1.38086,2.17383-2.41992,2.17383-.2915,0-.53564-.03027-.73145-.08887v-1.00488c.2417.08203.4624.12305.66309.12305.56494,0,.98877-.33789,1.27148-1.01172l.56055-1.32617-2.73438-6.98633h1.24414l1.89355,5.38672c.02295.06836.0708.24609.14355.5332h.04102c.02295-.10938.06836-.2832.13672-.51953l1.98926-5.40039h1.16211Z" fill="#2f2f2f"/>
      <path d="M396.01235,211.19879h-1.12109v-3.99219c0-1.48633-.54248-2.22852-1.62695-2.22852-.56055,0-1.02441.21094-1.39111.63184-.3667.42188-.55029.9541-.55029,1.59668v3.99219h-1.12109v-7h1.12109v1.16211h.02734c.52881-.88477,1.29443-1.32617,2.29688-1.32617.76562,0,1.35107.24707,1.75684.74121.40576.49512.6084,1.20898.6084,2.14355v4.2793Z" fill="#2f2f2f"/>
      <path d="M402.86147,210.87751c-.5376.32324-1.17578.48535-1.91406.48535-.99805,0-1.80371-.3252-2.4165-.97461s-.91943-1.49121-.91943-2.52539c0-1.15332.33057-2.0791.99121-2.7793.66064-.69922,1.54248-1.04883,2.64551-1.04883.61523,0,1.15771.11328,1.62695.3418v1.14844c-.51953-.36523-1.07568-.54688-1.66797-.54688-.71533,0-1.30225.25586-1.76025.76855s-.68701,1.18652-.68701,2.02051c0,.82031.21533,1.4668.646,1.94141.43066.47363,1.0083.71094,1.73291.71094.61084,0,1.18506-.20312,1.72266-.6084v1.06641Z" fill="#2f2f2f"/>
      <path d="M410.15981,211.19879h-1.12109v-4.0332c0-1.45898-.54248-2.1875-1.62695-2.1875-.54688,0-1.00732.21094-1.38086.63184-.37354.42188-.56055.96289-.56055,1.62402v3.96484h-1.12109v-10.36328h1.12109v4.52539h.02734c.5376-.88477,1.30322-1.32617,2.29688-1.32617,1.57666,0,2.36523.9502,2.36523,2.85059v4.31348Z" fill="#2f2f2f"/>
      <path d="M415.83315,205.33356c-.1958-.15039-.47852-.22559-.84766-.22559-.47852,0-.87842.22559-1.19971.67676s-.48193,1.06641-.48193,1.8457v3.56836h-1.12109v-7h1.12109v1.44238h.02734c.15967-.49219.40332-.87598.73145-1.15234.32812-.27539.69482-.41309,1.10059-.41309.2915,0,.51514.03125.66992.0957v1.16211Z" fill="#2f2f2f"/>
      <path d="M419.97573,211.36286c-1.03467,0-1.86035-.32715-2.47803-.98145-.61768-.65332-.92627-1.52051-.92627-2.60059,0-1.17578.32129-2.09473.96387-2.75488.64258-.66113,1.51074-.99121,2.60449-.99121,1.04346,0,1.8584.32129,2.44385.96387s.87842,1.5332.87842,2.67285c0,1.11621-.31543,2.01074-.94678,2.68262-.63135.67285-1.47754,1.00879-2.53955,1.00879ZM420.05776,204.97809c-.72021,0-1.28955.24512-1.70898.73438-.41943.49023-.62891,1.16602-.62891,2.02734,0,.8291.21191,1.4834.63574,1.96191s.99121.71777,1.70215.71777c.72461,0,1.28174-.23535,1.67139-.7041.38965-.46973.58447-1.1377.58447-2.00293,0-.875-.19482-1.5498-.58447-2.02344-.38965-.47461-.94678-.71094-1.67139-.71094Z" fill="#2f2f2f"/>
      <path d="M430.98794,211.19879h-1.12109v-3.99219c0-1.48633-.54248-2.22852-1.62695-2.22852-.56055,0-1.02441.21094-1.39111.63184-.3667.42188-.55029.9541-.55029,1.59668v3.99219h-1.12109v-7h1.12109v1.16211h.02734c.52881-.88477,1.29443-1.32617,2.29688-1.32617.76562,0,1.35107.24707,1.75684.74121.40576.49512.6084,1.20898.6084,2.14355v4.2793Z" fill="#2f2f2f"/>
      <path d="M435.99087,211.36286c-1.03467,0-1.86035-.32715-2.47803-.98145-.61768-.65332-.92627-1.52051-.92627-2.60059,0-1.17578.32129-2.09473.96387-2.75488.64258-.66113,1.51074-.99121,2.60449-.99121,1.04346,0,1.8584.32129,2.44385.96387s.87842,1.5332.87842,2.67285c0,1.11621-.31543,2.01074-.94678,2.68262-.63135.67285-1.47754,1.00879-2.53955,1.00879ZM436.0729,204.97809c-.72021,0-1.28955.24512-1.70898.73438-.41943.49023-.62891,1.16602-.62891,2.02734,0,.8291.21191,1.4834.63574,1.96191s.99121.71777,1.70215.71777c.72461,0,1.28174-.23535,1.67139-.7041.38965-.46973.58447-1.1377.58447-2.00293,0-.875-.19482-1.5498-.58447-2.02344-.38965-.47461-.94678-.71094-1.67139-.71094Z" fill="#2f2f2f"/>
      <path d="M446.88637,211.19879h-1.12109v-1.10742h-.02734c-.46484.84766-1.18506,1.27148-2.16016,1.27148-1.66797,0-2.50195-.99414-2.50195-2.98047v-4.18359h1.11426v4.00586c0,1.47656.56494,2.21484,1.69531,2.21484.54688,0,.99707-.20215,1.3501-.60547s.52979-.93066.52979-1.58203v-4.0332h1.12109v7Z" fill="#2f2f2f"/>
      <path d="M448.64858,210.94587v-1.20312c.61084.45117,1.28271.67676,2.0166.67676.98438,0,1.47656-.32812,1.47656-.98438,0-.1875-.04199-.3457-.12646-.47559s-.19824-.24512-.3418-.34473c-.14355-.10059-.31201-.19043-.50586-.27051-.19385-.0791-.40234-.16309-.62549-.24902-.31006-.12305-.58203-.24707-.81689-.37305-.23486-.125-.43066-.2666-.58789-.42383s-.27588-.33594-.35547-.53613c-.07959-.20117-.11963-.43555-.11963-.7041,0-.32812.0752-.61914.22559-.87207s.35107-.46484.60156-.63574.53662-.2998.85791-.38574c.32129-.08691.65283-.12988.99463-.12988.60596,0,1.14844.10449,1.62695.31445v1.13477c-.51514-.33789-1.10742-.50586-1.77734-.50586-.20947,0-.39893.02344-.56738.07129s-.31348.11523-.43408.20215c-.12061.08594-.21436.19043-.28027.31055-.06592.12109-.09912.25391-.09912.40039,0,.18164.0332.33496.09912.45801s.16309.23242.29053.32812.28271.18164.46484.25977c.18213.07715.38965.16113.62207.25293.31006.11816.58789.24023.83398.36523.24609.12598.45557.2666.62891.42383s.30664.33887.3999.54395.14014.44824.14014.73145c0,.3457-.07617.64648-.229.90234-.15283.25488-.35645.4668-.61182.63574-.25537.16797-.54932.29395-.88184.37598s-.68115.12305-1.0459.12305c-.72021,0-1.34424-.13965-1.87305-.41699Z" fill="#2f2f2f"/>
      <path d="M383.03481,222.13337c-.1958-.15039-.47852-.22559-.84766-.22559-.47852,0-.87842.22559-1.19971.67676s-.48193,1.06641-.48193,1.8457v3.56836h-1.12109v-7h1.12109v1.44238h.02734c.15967-.49219.40332-.87598.73145-1.15234.32812-.27539.69482-.41309,1.10059-.41309.2915,0,.51514.03125.66992.0957v1.16211Z" fill="#2f2f2f"/>
      <path d="M389.87758,224.77887h-4.94238c.01807.7793.22803,1.38086.62891,1.80469s.95264.63574,1.6543.63574c.78857,0,1.51318-.25977,2.17383-.7793v1.05273c-.61523.44629-1.42871.66992-2.44043.66992-.98877,0-1.76611-.31836-2.33105-.9541s-.84766-1.53027-.84766-2.68262c0-1.08984.30859-1.97656.92627-2.66309.61768-.68555,1.38428-1.02832,2.30029-1.02832s1.62451.2959,2.12598.88867c.50146.5918.75195,1.41504.75195,2.46777v.58789ZM388.72915,223.82868c-.00439-.64746-.16064-1.15137-.46826-1.51074-.30762-.36035-.73486-.54004-1.28174-.54004-.52881,0-.97754.18848-1.34668.56738-.36914.37793-.59717.87207-.68359,1.4834h3.78027Z" fill="#2f2f2f"/>
      <path d="M392.70864,226.98688h-.02734v4.23145h-1.12109v-10.21973h1.12109v1.23047h.02734c.55127-.92969,1.35791-1.39453,2.41992-1.39453.90234,0,1.60645.31348,2.1123.93945.50586.62695.75879,1.4668.75879,2.51953,0,1.1709-.28467,2.1084-.85449,2.8125s-1.34912,1.05664-2.33789,1.05664c-.90674,0-1.60645-.39258-2.09863-1.17578ZM392.68129,224.16364v.97754c0,.57812.18799,1.06934.56396,1.47266s.85352.60547,1.43213.60547c.6792,0,1.21094-.25977,1.59619-.7793s.57764-1.24219.57764-2.16699c0-.7793-.18018-1.39062-.54004-1.83203-.35986-.44238-.84766-.66309-1.46289-.66309-.65186,0-1.17578.22656-1.57227.67969-.39648.4541-.59473,1.02246-.59473,1.70605Z" fill="#2f2f2f"/>
      <path d="M400.85024,227.9986h-1.12109v-10.36328h1.12109v10.36328Z" fill="#2f2f2f"/>
      <path d="M403.53725,219.22126c-.20068,0-.37158-.06836-.5127-.20508s-.21191-.31055-.21191-.51953c0-.20996.0708-.38379.21191-.52344.14111-.13867.31201-.20801.5127-.20801.20508,0,.37939.06934.52295.20801.14355.13965.21533.31348.21533.52344,0,.2002-.07178.37109-.21533.5127-.14355.14062-.31787.21191-.52295.21191ZM404.08413,227.9986h-1.12109v-7h1.12109v7Z" fill="#2f2f2f"/>
      <path d="M410.99624,227.67731c-.5376.32324-1.17578.48535-1.91406.48535-.99805,0-1.80371-.3252-2.4165-.97461s-.91943-1.49121-.91943-2.52539c0-1.15332.33057-2.0791.99121-2.7793.66064-.69922,1.54248-1.04883,2.64551-1.04883.61523,0,1.15771.11328,1.62695.3418v1.14844c-.51953-.36523-1.07568-.54688-1.66797-.54688-.71533,0-1.30225.25586-1.76025.76855s-.68701,1.18652-.68701,2.02051c0,.82031.21533,1.4668.646,1.94141.43066.47363,1.0083.71094,1.73291.71094.61084,0,1.18506-.20312,1.72266-.6084v1.06641Z" fill="#2f2f2f"/>
      <path d="M417.74038,227.9986h-1.12109v-1.09375h-.02734c-.48779.83789-1.20557,1.25781-2.15332,1.25781-.69727,0-1.24316-.18457-1.63721-.55371s-.59131-.85938-.59131-1.46973c0-1.30859.77002-2.06934,2.31055-2.2832l2.09863-.29395c0-1.18945-.48096-1.78418-1.44238-1.78418-.84326,0-1.604.28711-2.2832.86133v-1.14844c.68799-.4375,1.48096-.65625,2.37891-.65625,1.64502,0,2.46777.87012,2.46777,2.61133v4.55273ZM416.61928,224.45758l-1.68848.23242c-.51953.07227-.91162.20117-1.17578.38574s-.39648.51172-.39648.98145c0,.3418.12207.62109.36572.83691.24365.2168.56836.3252.97412.3252.55615,0,1.01514-.19531,1.37744-.58496s.54346-.88281.54346-1.47949v-.69727Z" fill="#2f2f2f"/>
      <path d="M422.99868,227.93024c-.26416.14551-.61279.21875-1.0459.21875-1.22607,0-1.83887-.68359-1.83887-2.05078v-4.14258h-1.20312v-.95703h1.20312v-1.70898l1.12109-.3623v2.07129h1.76367v.95703h-1.76367v3.94434c0,.46875.07959.80371.23926,1.00488.15967.2002.42383.30078.79297.30078.28271,0,.52637-.07812.73145-.23242v.95703Z" fill="#2f2f2f"/>
      <path d="M424.95376,219.22126c-.20068,0-.37158-.06836-.5127-.20508s-.21191-.31055-.21191-.51953c0-.20996.0708-.38379.21191-.52344.14111-.13867.31201-.20801.5127-.20801.20508,0,.37939.06934.52295.20801.14355.13965.21533.31348.21533.52344,0,.2002-.07178.37109-.21533.5127-.14355.14062-.31787.21191-.52295.21191ZM425.50063,227.9986h-1.12109v-7h1.12109v7Z" fill="#2f2f2f"/>
      <path d="M430.59536,228.16266c-1.03467,0-1.86035-.32715-2.47803-.98145-.61768-.65332-.92627-1.52051-.92627-2.60059,0-1.17578.32129-2.09473.96387-2.75488.64258-.66113,1.51074-.99121,2.60449-.99121,1.04346,0,1.8584.32129,2.44385.96387s.87842,1.5332.87842,2.67285c0,1.11621-.31543,2.01074-.94678,2.68262-.63135.67285-1.47754,1.00879-2.53955,1.00879ZM430.67739,221.7779c-.72021,0-1.28955.24512-1.70898.73438-.41943.49023-.62891,1.16602-.62891,2.02734,0,.8291.21191,1.4834.63574,1.96191s.99121.71777,1.70215.71777c.72461,0,1.28174-.23535,1.67139-.7041.38965-.46973.58447-1.1377.58447-2.00293,0-.875-.19482-1.5498-.58447-2.02344-.38965-.47461-.94678-.71094-1.67139-.71094Z" fill="#2f2f2f"/>
      <path d="M441.60756,227.9986h-1.12109v-3.99219c0-1.48633-.54248-2.22852-1.62695-2.22852-.56055,0-1.02441.21094-1.39111.63184-.3667.42188-.55029.9541-.55029,1.59668v3.99219h-1.12109v-7h1.12109v1.16211h.02734c.52881-.88477,1.29443-1.32617,2.29688-1.32617.76562,0,1.35107.24707,1.75684.74121.40576.49512.6084,1.20898.6084,2.14355v4.2793Z" fill="#2f2f2f"/>
    </g>
  </g>
</svg>