<?xml version="1.0" encoding="UTF-8"?>
<svg xmlns="http://www.w3.org/2000/svg" width="811.10403" height="226.58955" xmlns:xlink="http://www.w3.org/1999/xlink" viewBox="0 0 811.10403 226.58955">
  <defs>
    <linearGradient id="Cool_gray_gradient_1" data-name="Cool gray gradient 1" x1="149.02011" y1="113.07828" x2="360.22011" y2="113.07828" gradientUnits="userSpaceOnUse">
      <stop offset="0" stop-color="#f5f5f4"/>
      <stop offset="1" stop-color="#ececea"/>
    </linearGradient>
    <linearGradient id="Cool_gray_gradient_1-2" data-name="Cool gray gradient 1" x1="369.02011" x2="580.22011" xlink:href="#Cool_gray_gradient_1"/>
    <linearGradient id="Cool_gray_gradient_1-3" data-name="Cool gray gradient 1" x1="589.02011" x2="800.22011" xlink:href="#Cool_gray_gradient_1"/>
    <radialGradient id="radial-gradient" cx="-588.3864" cy="1877.49621" fx="-588.3864" fy="1877.49621" r="10.56352" gradientTransform="translate(688.66828 2033.08881) scale(1.036 -1.027)" gradientUnits="userSpaceOnUse">
      <stop offset=".183" stop-color="#5ea0ef"/>
      <stop offset="1" stop-color="#0078d4"/>
    </radialGradient>
    <clipPath id="clippath">
      <path d="M89.77205,102.37067c1.39707,5.8478-2.21095,11.72092-8.05875,13.118-5.8478,1.39707-11.72092-2.21095-13.118-8.05875-1.39707-5.8478,2.21095-11.72092,8.05875-13.118.00003,0,.00006-.00001.00009-.00002,5.84777-1.39701,11.72084,2.21101,13.1179,8.05877Z" fill="none"/>
    </clipPath>
  </defs>
  <g isolation="isolate">
    <g id="Shapes">
      <rect width="811.10403" height="226.58955" fill="#fff"/>
      <g>
        <g mix-blend-mode="multiply" opacity=".7">
          <rect x="149.52011" y="10.17828" width="211.2" height="206.8" rx="8" ry="8"/>
          <rect x="149.52011" y="10.17828" width="211.2" height="206.8" rx="8" ry="8" opacity=".2"/>
        </g>
        <g>
          <rect x="149.02011" y="9.67828" width="211.2" height="206.8" rx="8" ry="8" fill="url(#Cool_gray_gradient_1)"/>
          <rect x="149.02011" y="9.67828" width="211.2" height="206.8" rx="8" ry="8" fill="#0078d4" opacity=".2"/>
        </g>
      </g>
      <g>
        <g mix-blend-mode="multiply" opacity=".7">
          <rect x="369.52011" y="10.17828" width="211.2" height="206.8" rx="8" ry="8"/>
          <rect x="369.52011" y="10.17828" width="211.2" height="206.8" rx="8" ry="8" opacity=".2"/>
        </g>
        <g>
          <rect x="369.02011" y="9.67828" width="211.2" height="206.8" rx="8" ry="8" fill="url(#Cool_gray_gradient_1-2)"/>
          <rect x="369.02011" y="9.67828" width="211.2" height="206.8" rx="8" ry="8" fill="#0078d4" opacity=".2"/>
        </g>
      </g>
      <g>
        <g mix-blend-mode="multiply" opacity=".7">
          <rect x="589.52011" y="10.17828" width="211.2" height="206.8" rx="8" ry="8"/>
          <rect x="589.52011" y="10.17828" width="211.2" height="206.8" rx="8" ry="8" opacity=".2"/>
        </g>
        <g>
          <rect x="589.02011" y="9.67828" width="211.2" height="206.8" rx="8" ry="8" fill="url(#Cool_gray_gradient_1-3)"/>
          <rect x="589.02011" y="9.67828" width="211.2" height="206.8" rx="8" ry="8" fill="#0078d4" opacity=".2"/>
        </g>
      </g>
      <g>
        <rect x="9.02011" y="52.67828" width="791.7" height="150" fill="#fff"/>
        <rect x="9.02011" y="52.67828" width="791.7" height="150" fill="#0078d4" opacity=".05"/>
        <rect x="9.02011" y="52.67828" width="791.7" height="150" fill="none" stroke="#0078d4" stroke-width=".25"/>
      </g>
      <g>
        <path d="M68.45879,98.35459c-.17144.00098-.31122-.1372-.3122-.30865,0-.00119,0-.00237,0-.00356h0c-.00293-1.96698-1.59676-3.56081-3.56374-3.56374-.17174,0-.31123-.1387-.3122-.31043h0c0-.17243.13978-.3122.3122-.3122h0c1.96768-.00293,3.56179-1.59784,3.56374-3.56552-.00098-.17144.1372-.31122.30865-.3122.00119,0,.00237,0,.00356,0h0c.17144-.00098.31122.1372.3122.30865,0,.00119,0,.00237,0,.00356h0c.00293,1.96698,1.59676,3.56081,3.56374,3.56374.17144-.00098.31122.1372.3122.30865,0,.00119,0,.00237,0,.00356h0c.00098.17144-.1372.31122-.30865.3122-.00119,0-.00237,0-.00356,0h0c-1.96739.00196-3.56179,1.59635-3.56374,3.56374-.00097.17202-.14018.31123-.3122.3122Z" fill="#50e6ff"/>
        <path d="M90.91089,119.97828c-.13814,0-.25012-.11198-.25012-.25012h0c-.00195-1.57356-1.27708-2.84868-2.85064-2.85064-.13745,0-.24914-.1109-.25012-.24834h0c0-.13814.11198-.25012.25012-.25012h0c1.57396-.00098,2.84966-1.27668,2.85064-2.85064,0-.13814.11198-.25012.25012-.25012h0c.13814,0,.25012.11198.25012.25012h0c.00098,1.57396,1.27668,2.84966,2.85064,2.85064.13814-.00024.25031.11155.25055.24969.00024.13814-.11155.25031-.24969.25055h-.00086c-1.57356.00195-2.84868,1.27708-2.85064,2.85064-.00097.13744-.11267.24835-.25012.24835Z" fill="#50e6ff"/>
        <g>
          <path d="M89.77205,102.37067c1.39707,5.8478-2.21095,11.72092-8.05875,13.118-5.8478,1.39707-11.72092-2.21095-13.118-8.05875-1.39707-5.8478,2.21095-11.72092,8.05875-13.118.00003,0,.00006-.00001.00009-.00002,5.84777-1.39701,11.72084,2.21101,13.1179,8.05877Z" fill="url(#radial-gradient)"/>
          <g clip-path="url(#clippath)">
            <g>
              <path d="M73.34585,112.27783c1.60418.04203,2.9387-1.22435,2.98073-2.82853.04203-1.60418-1.22435-2.9387-2.82853-2.98073-.04777-.00125-.09556-.00132-.14333-.00022.00858-.0825.01272-.1654.01242-.24834-.01463-1.61401-1.33238-2.91192-2.94643-2.90208h-2.17833c-.43141,3.25836.60493,6.5402,2.82935,8.95991h2.27412Z" fill="#f2f2f2"/>
              <path d="M89.90687,102.87623c0-.02661,0-.05322-.01242-.07805-.35088-1.8982-1.21323-3.66461-2.49409-5.1088-.16617-.06732-.33764-.12072-.51265-.15965-1.70143-.48544-3.47423.50031-3.95967,2.20173-.06955.24378-.10993.49495-.12027.74824-.1178-.01361-.23621-.02131-.35478-.02306-1.70172-.00014-3.08135,1.37927-3.08149,3.081-.0001,1.30458.82138,2.46784,2.05086,2.9041.30565.11979.6314.18.95967.17739h3.60099c1.44591-1.0945,2.76235-2.35024,3.92384-3.7429Z" fill="#f2f2f2"/>
            </g>
          </g>
        </g>
        <path d="M93.71363,95.81083c-1.11578-1.85726-3.72517-2.58101-7.37051-2.0382-1.24896.177-2.48332.44498-3.69323.8018.95982.33136,1.87131.78889,2.7105,1.36057.42751-.09402.85679-.20577,1.26833-.26786.64741-.1008,1.3014-.15357,1.9566-.15788,1.30141-.18761,2.60932.29643,3.47505,1.28607h0c.6794,1.13174.10643,3.06705-1.57166,5.32166-2.33217,2.90283-5.19001,5.34063-8.4242,7.18602-3.16172,1.97332-6.66633,3.33448-10.33113,4.01254-2.77436.41509-4.75757,0-5.43697-1.12819s-.10643-3.06883,1.57166-5.31279c.20755-.2785.25899-.41509.49491-.69536-.11089-.96169-.09538-1.93377.04612-2.89144-.75417.75594-1.4481,1.56968-2.07545,2.43377-2.19785,2.93933-2.79387,5.58243-1.67987,7.43969,1.19762,1.60223,3.15726,2.44623,5.14428,2.21559.74309-.00394,1.48485-.06323,2.21913-.17739,3.91192-.714,7.6544-2.15828,11.03181-4.25733,3.44929-1.97396,6.49512-4.58107,8.97765-7.68448,2.20494-2.94643,2.80097-5.58775,1.68697-7.44678Z" fill="#50e6ff"/>
      </g>
      <g>
        <rect x="149.02011" y="66.67828" width="651.7" height="123" fill="#fff"/>
        <rect x="149.02011" y="66.67828" width="651.7" height="123" fill="#0d0061" opacity=".12"/>
        <rect x="149.02011" y="66.67828" width="651.7" height="123" fill="none" stroke="#0d0061" stroke-width=".25"/>
      </g>
      <g>
        <rect x="193.02011" y="116.67828" width="123" height="31" fill="#fff"/>
        <rect x="193.02011" y="116.67828" width="123" height="31" fill="#0d0061" opacity=".01"/>
        <rect x="193.02011" y="116.67828" width="123" height="31" fill="none" stroke="#0d0061" stroke-width=".25"/>
      </g>
      <g>
        <rect x="411.02011" y="116.67828" width="128" height="31" fill="#fff"/>
        <rect x="411.02011" y="116.67828" width="128" height="31" fill="#0d0061" opacity=".01"/>
        <rect x="411.02011" y="116.67828" width="128" height="31" fill="none" stroke="#0d0061" stroke-width=".25"/>
      </g>
      <g>
        <rect x="631.02011" y="116.67828" width="128" height="31" fill="#fff"/>
        <rect x="631.02011" y="116.67828" width="128" height="31" fill="#0d0061" opacity=".01"/>
        <rect x="631.02011" y="116.67828" width="128" height="31" fill="none" stroke="#0d0061" stroke-width=".25"/>
      </g>
    </g>
    <g id="Text">
      <g>
        <path d="M203.15585,36.07867h-2.40625l-.69727-2.18066h-3.48633l-.69043,2.18066h-2.39258l3.56836-9.80273h2.61816l3.48633,9.80273ZM199.54647,32.2027l-1.05273-3.29492c-.07764-.24609-.13232-.54004-.16406-.88184h-.05469c-.02295.28711-.07959.57178-.1709.85449l-1.06641,3.32227h2.50879Z"/>
        <path d="M210.52499,29.07867l-2.60449,7h-2.46094l-2.48145-7h2.31055l1.2168,4.31348c.13672.48779.21631.90234.23926,1.24414h.02734c.03174-.32373.11621-.72461.25293-1.20312l1.24414-4.35449h2.25586Z"/>
        <path d="M217.06015,36.07867h-2.04395v-1.00488h-.02734c-.46924.78369-1.16455,1.17578-2.08496,1.17578-.6792,0-1.21338-.19238-1.60303-.57764s-.58447-.89893-.58447-1.5415c0-1.35791.8042-2.14209,2.41309-2.35156l1.90039-.25293c0-.76562-.41455-1.14844-1.24414-1.14844-.83398,0-1.62695.24854-2.37891.74512v-1.62695c.30078-.15479.71191-.2915,1.23389-.41016s.99707-.17773,1.42529-.17773c1.99609,0,2.99414.99561,2.99414,2.9873v4.18359ZM215.02987,33.23492v-.47168l-1.27148.16406c-.70166.09131-1.05273.40771-1.05273.9502,0,.24609.08545.44775.25635.60498s.40234.23584.69385.23584c.40576,0,.73584-.14014.99121-.42041s.38281-.63477.38281-1.06299Z"/>
        <path d="M219.86288,27.97125c-.36475,0-.66309-.1084-.89551-.32471s-.34863-.48193-.34863-.79639c0-.32373.11621-.58789.34863-.79297s.53076-.30762.89551-.30762c.36914,0,.66895.10254.89893.30762s.34521.46924.34521.79297c0,.32812-.11523.59717-.34521.80664s-.52979.31445-.89893.31445ZM220.92929,36.07867h-2.16016v-7h2.16016v7Z"/>
        <path d="M224.9078,36.07867h-2.16016v-10.36328h2.16016v10.36328Z"/>
        <path d="M232.55038,36.07867h-2.04395v-1.00488h-.02734c-.46924.78369-1.16455,1.17578-2.08496,1.17578-.6792,0-1.21338-.19238-1.60303-.57764s-.58447-.89893-.58447-1.5415c0-1.35791.8042-2.14209,2.41309-2.35156l1.90039-.25293c0-.76562-.41455-1.14844-1.24414-1.14844-.83398,0-1.62695.24854-2.37891.74512v-1.62695c.30078-.15479.71191-.2915,1.23389-.41016s.99707-.17773,1.42529-.17773c1.99609,0,2.99414.99561,2.99414,2.9873v4.18359ZM230.52011,33.23492v-.47168l-1.27148.16406c-.70166.09131-1.05273.40771-1.05273.9502,0,.24609.08545.44775.25635.60498s.40234.23584.69385.23584c.40576,0,.73584-.14014.99121-.42041s.38281-.63477.38281-1.06299Z"/>
        <path d="M236.44687,35.2652h-.02734v.81348h-2.16016v-10.36328h2.16016v4.41602h.02734c.5332-.81592,1.29199-1.22363,2.27637-1.22363.90234,0,1.59717.31006,2.08496.92969s.73145,1.46729.73145,2.54297c0,1.1665-.28467,2.10303-.85449,2.80957s-1.33057,1.05957-2.2832,1.05957c-.86133,0-1.51318-.32812-1.95508-.98438ZM236.38534,32.31207v.71777c0,.45117.12988.82471.38965,1.12109s.59229.44434.99805.44434c.49219,0,.87402-.19043,1.14502-.5708s.40674-.91943.40674-1.6167c0-.57861-.12402-1.03125-.37256-1.35693s-.60254-.48877-1.06299-.48877c-.43311,0-.79199.16162-1.07666.48535s-.42725.74512-.42725,1.26465Z"/>
        <path d="M244.03476,27.97125c-.36475,0-.66309-.1084-.89551-.32471s-.34863-.48193-.34863-.79639c0-.32373.11621-.58789.34863-.79297s.53076-.30762.89551-.30762c.36914,0,.66895.10254.89893.30762s.34521.46924.34521.79297c0,.32812-.11523.59717-.34521.80664s-.52979.31445-.89893.31445ZM245.10116,36.07867h-2.16016v-7h2.16016v7Z"/>
        <path d="M249.07968,36.07867h-2.16016v-10.36328h2.16016v10.36328Z"/>
        <path d="M251.99179,27.97125c-.36475,0-.66309-.1084-.89551-.32471s-.34863-.48193-.34863-.79639c0-.32373.11621-.58789.34863-.79297s.53076-.30762.89551-.30762c.36914,0,.66895.10254.89893.30762s.34521.46924.34521.79297c0,.32812-.11523.59717-.34521.80664s-.52979.31445-.89893.31445ZM253.05819,36.07867h-2.16016v-7h2.16016v7Z"/>
        <path d="M259.108,35.99664c-.31885.16846-.7998.25293-1.44238.25293-1.52197,0-2.2832-.79053-2.2832-2.37207v-3.20605h-1.13477v-1.59277h1.13477v-1.51074l2.15332-.61523v2.12598h1.57227v1.59277h-1.57227v2.83008c0,.729.28955,1.09375.86816,1.09375.22803,0,.4624-.06592.7041-.19824v1.59961Z"/>
        <path d="M266.98983,29.07867l-2.84375,7.56055c-.68359,1.81836-1.71338,2.72754-3.08984,2.72754-.52393,0-.95459-.05908-1.29199-.17773v-1.72266c.28711.16846.59912.25293.93652.25293.55615,0,.94336-.26221,1.16211-.78613l.36914-.86816-2.84375-6.98633h2.39258l1.30566,4.25879c.08203.26416.146.57666.19141.93652h.02734c.04102-.26416.11621-.57178.22559-.92285l1.31934-4.27246h2.13965Z"/>
        <path d="M278.9869,36.07867h-7.89551v-1.27148l5.02441-6.7334h-4.66211v-1.79785h7.51953v1.2373l-4.91504,6.77441h4.92871v1.79102Z"/>
        <path d="M283.55331,36.24957c-1.1665,0-2.08398-.32715-2.75146-.98096s-1.00146-1.5415-1.00146-2.6626c0-1.15771.34619-2.06348,1.03906-2.71729s1.62939-.98096,2.80957-.98096c1.16211,0,2.07373.32715,2.73438.98096s.99121,1.51855.99121,2.59424c0,1.16211-.34082,2.08057-1.02197,2.75488s-1.61426,1.01172-2.79932,1.01172ZM283.608,30.56207c-.51025,0-.90674.17529-1.18945.52637s-.42383.84766-.42383,1.49023c0,1.34424.54248,2.0166,1.62695,2.0166,1.03467,0,1.55176-.69043,1.55176-2.07129,0-1.30811-.52197-1.96191-1.56543-1.96191Z"/>
        <path d="M295.53671,36.07867h-2.15332v-3.88965c0-1.08447-.38721-1.62695-1.16211-1.62695-.37354,0-.68115.14355-.92285.43066s-.3623.65186-.3623,1.09375v3.99219h-2.16016v-7h2.16016v1.10742h.02734c.51514-.85205,1.26465-1.27832,2.24902-1.27832,1.54932,0,2.32422.96143,2.32422,2.88477v4.28613Z"/>
        <path d="M303.53476,33.19391h-4.56641c.07275,1.01611.71338,1.52441,1.9209,1.52441.77002,0,1.44678-.18213,2.03027-.54688v1.55859c-.64697.34619-1.48779.51953-2.52246.51953-1.13037,0-2.00732-.31348-2.63184-.93994s-.93652-1.50049-.93652-2.62158c0-1.16211.3374-2.08252,1.01172-2.76172s1.50391-1.01855,2.48828-1.01855c1.021,0,1.81055.30322,2.36865.90918s.8374,1.42871.8374,2.46777v.90918ZM301.53183,31.86773c0-1.00244-.40576-1.50391-1.2168-1.50391-.34619,0-.646.14355-.89893.43066s-.40674.64502-.46143,1.07324h2.57715Z"/>
        <path d="M313.46054,26.05719v10.02148h-2.15332v-7.58789c-.11865.10498-.25879.2041-.42041.29736s-.33398.17773-.51611.25293-.37158.13916-.56738.19141-.38965.08984-.58105.11279v-1.81836c.56055-.16406,1.08936-.37354,1.58594-.62891s.9458-.53564,1.34668-.84082h1.30566Z"/>
      </g>
      <g>
        <path d="M423.15536,36.07867h-2.40625l-.69727-2.18066h-3.48633l-.69043,2.18066h-2.39258l3.56836-9.80273h2.61816l3.48633,9.80273ZM419.54599,32.2027l-1.05273-3.29492c-.07764-.24609-.13232-.54004-.16406-.88184h-.05469c-.02295.28711-.07959.57178-.1709.85449l-1.06641,3.32227h2.50879Z"/>
        <path d="M430.5245,29.07867l-2.60449,7h-2.46094l-2.48145-7h2.31055l1.2168,4.31348c.13672.48779.21631.90234.23926,1.24414h.02734c.03174-.32373.11621-.72461.25293-1.20312l1.24414-4.35449h2.25586Z"/>
        <path d="M437.05966,36.07867h-2.04395v-1.00488h-.02734c-.46924.78369-1.16455,1.17578-2.08496,1.17578-.6792,0-1.21338-.19238-1.60303-.57764s-.58447-.89893-.58447-1.5415c0-1.35791.8042-2.14209,2.41309-2.35156l1.90039-.25293c0-.76562-.41455-1.14844-1.24414-1.14844-.83398,0-1.62695.24854-2.37891.74512v-1.62695c.30078-.15479.71191-.2915,1.23389-.41016s.99707-.17773,1.42529-.17773c1.99609,0,2.99414.99561,2.99414,2.9873v4.18359ZM435.02938,33.23492v-.47168l-1.27148.16406c-.70166.09131-1.05273.40771-1.05273.9502,0,.24609.08545.44775.25635.60498s.40234.23584.69385.23584c.40576,0,.73584-.14014.99121-.42041s.38281-.63477.38281-1.06299Z"/>
        <path d="M439.86239,27.97125c-.36475,0-.66309-.1084-.89551-.32471s-.34863-.48193-.34863-.79639c0-.32373.11621-.58789.34863-.79297s.53076-.30762.89551-.30762c.36914,0,.66895.10254.89893.30762s.34521.46924.34521.79297c0,.32812-.11523.59717-.34521.80664s-.52979.31445-.89893.31445ZM440.9288,36.07867h-2.16016v-7h2.16016v7Z"/>
        <path d="M444.90731,36.07867h-2.16016v-10.36328h2.16016v10.36328Z"/>
        <path d="M452.54989,36.07867h-2.04395v-1.00488h-.02734c-.46924.78369-1.16455,1.17578-2.08496,1.17578-.6792,0-1.21338-.19238-1.60303-.57764s-.58447-.89893-.58447-1.5415c0-1.35791.8042-2.14209,2.41309-2.35156l1.90039-.25293c0-.76562-.41455-1.14844-1.24414-1.14844-.83398,0-1.62695.24854-2.37891.74512v-1.62695c.30078-.15479.71191-.2915,1.23389-.41016s.99707-.17773,1.42529-.17773c1.99609,0,2.99414.99561,2.99414,2.9873v4.18359ZM450.51962,33.23492v-.47168l-1.27148.16406c-.70166.09131-1.05273.40771-1.05273.9502,0,.24609.08545.44775.25635.60498s.40234.23584.69385.23584c.40576,0,.73584-.14014.99121-.42041s.38281-.63477.38281-1.06299Z"/>
        <path d="M456.44638,35.2652h-.02734v.81348h-2.16016v-10.36328h2.16016v4.41602h.02734c.5332-.81592,1.29199-1.22363,2.27637-1.22363.90234,0,1.59717.31006,2.08496.92969s.73145,1.46729.73145,2.54297c0,1.1665-.28467,2.10303-.85449,2.80957s-1.33057,1.05957-2.2832,1.05957c-.86133,0-1.51318-.32812-1.95508-.98438ZM456.38485,32.31207v.71777c0,.45117.12988.82471.38965,1.12109s.59229.44434.99805.44434c.49219,0,.87402-.19043,1.14502-.5708s.40674-.91943.40674-1.6167c0-.57861-.12402-1.03125-.37256-1.35693s-.60254-.48877-1.06299-.48877c-.43311,0-.79199.16162-1.07666.48535s-.42725.74512-.42725,1.26465Z"/>
        <path d="M464.03427,27.97125c-.36475,0-.66309-.1084-.89551-.32471s-.34863-.48193-.34863-.79639c0-.32373.11621-.58789.34863-.79297s.53076-.30762.89551-.30762c.36914,0,.66895.10254.89893.30762s.34521.46924.34521.79297c0,.32812-.11523.59717-.34521.80664s-.52979.31445-.89893.31445ZM465.10067,36.07867h-2.16016v-7h2.16016v7Z"/>
        <path d="M469.07919,36.07867h-2.16016v-10.36328h2.16016v10.36328Z"/>
        <path d="M471.9913,27.97125c-.36475,0-.66309-.1084-.89551-.32471s-.34863-.48193-.34863-.79639c0-.32373.11621-.58789.34863-.79297s.53076-.30762.89551-.30762c.36914,0,.66895.10254.89893.30762s.34521.46924.34521.79297c0,.32812-.11523.59717-.34521.80664s-.52979.31445-.89893.31445ZM473.05771,36.07867h-2.16016v-7h2.16016v7Z"/>
        <path d="M479.10751,35.99664c-.31885.16846-.7998.25293-1.44238.25293-1.52197,0-2.2832-.79053-2.2832-2.37207v-3.20605h-1.13477v-1.59277h1.13477v-1.51074l2.15332-.61523v2.12598h1.57227v1.59277h-1.57227v2.83008c0,.729.28955,1.09375.86816,1.09375.22803,0,.4624-.06592.7041-.19824v1.59961Z"/>
        <path d="M486.98935,29.07867l-2.84375,7.56055c-.68359,1.81836-1.71338,2.72754-3.08984,2.72754-.52393,0-.95459-.05908-1.29199-.17773v-1.72266c.28711.16846.59912.25293.93652.25293.55615,0,.94336-.26221,1.16211-.78613l.36914-.86816-2.84375-6.98633h2.39258l1.30566,4.25879c.08203.26416.146.57666.19141.93652h.02734c.04102-.26416.11621-.57178.22559-.92285l1.31934-4.27246h2.13965Z"/>
        <path d="M498.98642,36.07867h-7.89551v-1.27148l5.02441-6.7334h-4.66211v-1.79785h7.51953v1.2373l-4.91504,6.77441h4.92871v1.79102Z"/>
        <path d="M503.55282,36.24957c-1.1665,0-2.08398-.32715-2.75146-.98096s-1.00146-1.5415-1.00146-2.6626c0-1.15771.34619-2.06348,1.03906-2.71729s1.62939-.98096,2.80957-.98096c1.16211,0,2.07373.32715,2.73438.98096s.99121,1.51855.99121,2.59424c0,1.16211-.34082,2.08057-1.02197,2.75488s-1.61426,1.01172-2.79932,1.01172ZM503.60751,30.56207c-.51025,0-.90674.17529-1.18945.52637s-.42383.84766-.42383,1.49023c0,1.34424.54248,2.0166,1.62695,2.0166,1.03467,0,1.55176-.69043,1.55176-2.07129,0-1.30811-.52197-1.96191-1.56543-1.96191Z"/>
        <path d="M515.53622,36.07867h-2.15332v-3.88965c0-1.08447-.38721-1.62695-1.16211-1.62695-.37354,0-.68115.14355-.92285.43066s-.3623.65186-.3623,1.09375v3.99219h-2.16016v-7h2.16016v1.10742h.02734c.51514-.85205,1.26465-1.27832,2.24902-1.27832,1.54932,0,2.32422.96143,2.32422,2.88477v4.28613Z"/>
        <path d="M523.53427,33.19391h-4.56641c.07275,1.01611.71338,1.52441,1.9209,1.52441.77002,0,1.44678-.18213,2.03027-.54688v1.55859c-.64697.34619-1.48779.51953-2.52246.51953-1.13037,0-2.00732-.31348-2.63184-.93994s-.93652-1.50049-.93652-2.62158c0-1.16211.3374-2.08252,1.01172-2.76172s1.50391-1.01855,2.48828-1.01855c1.021,0,1.81055.30322,2.36865.90918s.8374,1.42871.8374,2.46777v.90918ZM521.53134,31.86773c0-1.00244-.40576-1.50391-1.2168-1.50391-.34619,0-.646.14355-.89893.43066s-.40674.64502-.46143,1.07324h2.57715Z"/>
        <path d="M530.70517,34.28766h4.15625v1.79102h-6.52148v-.73828c0-.50146.08447-.95117.25293-1.3501s.38037-.75635.63574-1.07324.53418-.59717.8374-.84082.59131-.46387.86475-.65967c.28711-.20508.53906-.40088.75537-.58789s.39893-.37256.54688-.55713.25879-.37158.33154-.56055.10938-.39062.10938-.60498c0-.41943-.11865-.73584-.35547-.9502s-.59912-.32129-1.08691-.32129c-.84326,0-1.6499.33496-2.41992,1.00488v-1.90039c.85205-.55127,1.81396-.82715,2.88477-.82715.49658,0,.94238.06494,1.33643.19482s.72803.31543,1.00146.55713.48193.53418.62549.87842.21533.72803.21533,1.15186c0,.45117-.06934.85205-.2085,1.20312s-.32373.66992-.55371.95703-.49561.55029-.79639.78955-.61279.4707-.93652.69385c-.21875.15479-.42969.30859-.63232.46143s-.38184.30322-.53662.45117-.27783.29297-.36914.43408-.13672.27588-.13672.40332Z"/>
      </g>
      <g>
        <path d="M643.15585,36.07867h-2.40625l-.69727-2.18066h-3.48633l-.69043,2.18066h-2.39258l3.56836-9.80273h2.61816l3.48633,9.80273ZM639.54647,32.2027l-1.05273-3.29492c-.07764-.24609-.13232-.54004-.16406-.88184h-.05469c-.02295.28711-.07959.57178-.1709.85449l-1.06641,3.32227h2.50879Z"/>
        <path d="M650.52499,29.07867l-2.60449,7h-2.46094l-2.48145-7h2.31055l1.2168,4.31348c.13672.48779.21631.90234.23926,1.24414h.02734c.03174-.32373.11621-.72461.25293-1.20312l1.24414-4.35449h2.25586Z"/>
        <path d="M657.06015,36.07867h-2.04395v-1.00488h-.02734c-.46924.78369-1.16455,1.17578-2.08496,1.17578-.6792,0-1.21338-.19238-1.60303-.57764s-.58447-.89893-.58447-1.5415c0-1.35791.8042-2.14209,2.41309-2.35156l1.90039-.25293c0-.76562-.41455-1.14844-1.24414-1.14844-.83398,0-1.62695.24854-2.37891.74512v-1.62695c.30078-.15479.71191-.2915,1.23389-.41016s.99707-.17773,1.42529-.17773c1.99609,0,2.99414.99561,2.99414,2.9873v4.18359ZM655.02987,33.23492v-.47168l-1.27148.16406c-.70166.09131-1.05273.40771-1.05273.9502,0,.24609.08545.44775.25635.60498s.40234.23584.69385.23584c.40576,0,.73584-.14014.99121-.42041s.38281-.63477.38281-1.06299Z"/>
        <path d="M659.86288,27.97125c-.36475,0-.66309-.1084-.89551-.32471s-.34863-.48193-.34863-.79639c0-.32373.11621-.58789.34863-.79297s.53076-.30762.89551-.30762c.36914,0,.66895.10254.89893.30762s.34521.46924.34521.79297c0,.32812-.11523.59717-.34521.80664s-.52979.31445-.89893.31445ZM660.92929,36.07867h-2.16016v-7h2.16016v7Z"/>
        <path d="M664.9078,36.07867h-2.16016v-10.36328h2.16016v10.36328Z"/>
        <path d="M672.55038,36.07867h-2.04395v-1.00488h-.02734c-.46924.78369-1.16455,1.17578-2.08496,1.17578-.6792,0-1.21338-.19238-1.60303-.57764s-.58447-.89893-.58447-1.5415c0-1.35791.8042-2.14209,2.41309-2.35156l1.90039-.25293c0-.76562-.41455-1.14844-1.24414-1.14844-.83398,0-1.62695.24854-2.37891.74512v-1.62695c.30078-.15479.71191-.2915,1.23389-.41016s.99707-.17773,1.42529-.17773c1.99609,0,2.99414.99561,2.99414,2.9873v4.18359ZM670.52011,33.23492v-.47168l-1.27148.16406c-.70166.09131-1.05273.40771-1.05273.9502,0,.24609.08545.44775.25635.60498s.40234.23584.69385.23584c.40576,0,.73584-.14014.99121-.42041s.38281-.63477.38281-1.06299Z"/>
        <path d="M676.44687,35.2652h-.02734v.81348h-2.16016v-10.36328h2.16016v4.41602h.02734c.5332-.81592,1.29199-1.22363,2.27637-1.22363.90234,0,1.59717.31006,2.08496.92969s.73145,1.46729.73145,2.54297c0,1.1665-.28467,2.10303-.85449,2.80957s-1.33057,1.05957-2.2832,1.05957c-.86133,0-1.51318-.32812-1.95508-.98438ZM676.38534,32.31207v.71777c0,.45117.12988.82471.38965,1.12109s.59229.44434.99805.44434c.49219,0,.87402-.19043,1.14502-.5708s.40674-.91943.40674-1.6167c0-.57861-.12402-1.03125-.37256-1.35693s-.60254-.48877-1.06299-.48877c-.43311,0-.79199.16162-1.07666.48535s-.42725.74512-.42725,1.26465Z"/>
        <path d="M684.03476,27.97125c-.36475,0-.66309-.1084-.89551-.32471s-.34863-.48193-.34863-.79639c0-.32373.11621-.58789.34863-.79297s.53076-.30762.89551-.30762c.36914,0,.66895.10254.89893.30762s.34521.46924.34521.79297c0,.32812-.11523.59717-.34521.80664s-.52979.31445-.89893.31445ZM685.10116,36.07867h-2.16016v-7h2.16016v7Z"/>
        <path d="M689.07968,36.07867h-2.16016v-10.36328h2.16016v10.36328Z"/>
        <path d="M691.99179,27.97125c-.36475,0-.66309-.1084-.89551-.32471s-.34863-.48193-.34863-.79639c0-.32373.11621-.58789.34863-.79297s.53076-.30762.89551-.30762c.36914,0,.66895.10254.89893.30762s.34521.46924.34521.79297c0,.32812-.11523.59717-.34521.80664s-.52979.31445-.89893.31445ZM693.05819,36.07867h-2.16016v-7h2.16016v7Z"/>
        <path d="M699.108,35.99664c-.31885.16846-.7998.25293-1.44238.25293-1.52197,0-2.2832-.79053-2.2832-2.37207v-3.20605h-1.13477v-1.59277h1.13477v-1.51074l2.15332-.61523v2.12598h1.57227v1.59277h-1.57227v2.83008c0,.729.28955,1.09375.86816,1.09375.22803,0,.4624-.06592.7041-.19824v1.59961Z"/>
        <path d="M706.98983,29.07867l-2.84375,7.56055c-.68359,1.81836-1.71338,2.72754-3.08984,2.72754-.52393,0-.95459-.05908-1.29199-.17773v-1.72266c.28711.16846.59912.25293.93652.25293.55615,0,.94336-.26221,1.16211-.78613l.36914-.86816-2.84375-6.98633h2.39258l1.30566,4.25879c.08203.26416.146.57666.19141.93652h.02734c.04102-.26416.11621-.57178.22559-.92285l1.31934-4.27246h2.13965Z"/>
        <path d="M718.9869,36.07867h-7.89551v-1.27148l5.02441-6.7334h-4.66211v-1.79785h7.51953v1.2373l-4.91504,6.77441h4.92871v1.79102Z"/>
        <path d="M723.55331,36.24957c-1.1665,0-2.08398-.32715-2.75146-.98096s-1.00146-1.5415-1.00146-2.6626c0-1.15771.34619-2.06348,1.03906-2.71729s1.62939-.98096,2.80957-.98096c1.16211,0,2.07373.32715,2.73438.98096s.99121,1.51855.99121,2.59424c0,1.16211-.34082,2.08057-1.02197,2.75488s-1.61426,1.01172-2.79932,1.01172ZM723.608,30.56207c-.51025,0-.90674.17529-1.18945.52637s-.42383.84766-.42383,1.49023c0,1.34424.54248,2.0166,1.62695,2.0166,1.03467,0,1.55176-.69043,1.55176-2.07129,0-1.30811-.52197-1.96191-1.56543-1.96191Z"/>
        <path d="M735.53671,36.07867h-2.15332v-3.88965c0-1.08447-.38721-1.62695-1.16211-1.62695-.37354,0-.68115.14355-.92285.43066s-.3623.65186-.3623,1.09375v3.99219h-2.16016v-7h2.16016v1.10742h.02734c.51514-.85205,1.26465-1.27832,2.24902-1.27832,1.54932,0,2.32422.96143,2.32422,2.88477v4.28613Z"/>
        <path d="M743.53476,33.19391h-4.56641c.07275,1.01611.71338,1.52441,1.9209,1.52441.77002,0,1.44678-.18213,2.03027-.54688v1.55859c-.64697.34619-1.48779.51953-2.52246.51953-1.13037,0-2.00732-.31348-2.63184-.93994s-.93652-1.50049-.93652-2.62158c0-1.16211.3374-2.08252,1.01172-2.76172s1.50391-1.01855,2.48828-1.01855c1.021,0,1.81055.30322,2.36865.90918s.8374,1.42871.8374,2.46777v.90918ZM741.53183,31.86773c0-1.00244-.40576-1.50391-1.2168-1.50391-.34619,0-.646.14355-.89893.43066s-.40674.64502-.46143,1.07324h2.57715Z"/>
        <path d="M748.57284,35.75738v-1.87988c.65625.47852,1.42188.71777,2.29688.71777.55127,0,.98096-.11865,1.28857-.35547s.46143-.56738.46143-.99121c0-.4375-.19043-.7749-.5708-1.01172s-.90332-.35547-1.56885-.35547h-.90918v-1.6543h.84082c1.27588,0,1.91406-.42383,1.91406-1.27148,0-.79736-.48975-1.19629-1.46973-1.19629-.65625,0-1.29443.21191-1.91406.63574v-1.76367c.68799-.34619,1.49023-.51953,2.40625-.51953,1.00244,0,1.7832.22559,2.34131.67676s.8374,1.03662.8374,1.75684c0,1.28076-.64941,2.08252-1.94824,2.40625v.03418c.69287.08643,1.23975.33838,1.64062.75537s.60156.92871.60156,1.53467c0,.91602-.33496,1.64062-1.00488,2.17383s-1.59521.7998-2.77539.7998c-1.01172,0-1.83447-.16406-2.46777-.49219Z"/>
      </g>
      <g>
        <rect x="21.42011" y="127.97828" width="115.52769" height="39" fill="none"/>
        <path d="M42.16269,139.87994h-2.40625l-.69727-2.18066h-3.48633l-.69043,2.18066h-2.39258l3.56836-9.80273h2.61816l3.48633,9.80273ZM38.55331,136.00397l-1.05273-3.29492c-.07764-.24609-.13232-.54004-.16406-.88184h-.05469c-.02295.28711-.07959.57178-.1709.85449l-1.06641,3.32227h2.50879Z" fill="#2f2f2f"/>
        <path d="M49.06845,139.87994h-6.28223v-.89551l3.51367-4.51172h-3.16504v-1.59277h5.90625v1.06641l-3.3291,4.34082h3.35645v1.59277Z" fill="#2f2f2f"/>
        <path d="M56.95028,139.87994h-2.15332v-1.06641h-.03418c-.5332.82471-1.24658,1.2373-2.13965,1.2373-1.62256,0-2.43359-.98193-2.43359-2.94629v-4.22461h2.15332v4.0332c0,.98877.39209,1.4834,1.17578,1.4834.38721,0,.69727-.13574.92969-.40674s.34863-.63916.34863-1.104v-4.00586h2.15332v7Z" fill="#2f2f2f"/>
        <path d="M63.28476,134.82818c-.25977-.14111-.56299-.21191-.90918-.21191-.46924,0-.83643.17188-1.10059.51611s-.39648.8125-.39648,1.40479v3.34277h-2.16016v-7h2.16016v1.29883h.02734c.3418-.94775.95703-1.42188,1.8457-1.42188.22803,0,.40576.02734.5332.08203v1.98926Z" fill="#2f2f2f"/>
        <path d="M70.65731,136.99518h-4.56641c.07275,1.01611.71338,1.52441,1.9209,1.52441.77002,0,1.44678-.18213,2.03027-.54688v1.55859c-.64697.34619-1.48779.51953-2.52246.51953-1.13037,0-2.00732-.31348-2.63184-.93994s-.93652-1.50049-.93652-2.62158c0-1.16211.3374-2.08252,1.01172-2.76172s1.50391-1.01855,2.48828-1.01855c1.021,0,1.81055.30322,2.36865.90918s.8374,1.42871.8374,2.46777v.90918ZM68.65438,135.669c0-1.00244-.40576-1.50391-1.2168-1.50391-.34619,0-.646.14355-.89893.43066s-.40674.64502-.46143,1.07324h2.57715Z" fill="#2f2f2f"/>
        <path d="M83.04403,139.53131c-.71533.34619-1.6499.51953-2.80273.51953-1.50391,0-2.68652-.44189-3.54785-1.32617s-1.29199-2.06201-1.29199-3.53418c0-1.56787.48438-2.83936,1.45264-3.81445s2.2251-1.46289,3.77002-1.46289c.95703,0,1.76367.12061,2.41992.3623v2.12598c-.65625-.39209-1.40381-.58789-2.24219-.58789-.92041,0-1.66357.28955-2.22852.86816s-.84766,1.36279-.84766,2.35156c0,.94775.2666,1.70312.7998,2.26611s1.25098.84424,2.15332.84424c.86133,0,1.6499-.20947,2.36523-.62891v2.0166Z" fill="#2f2f2f"/>
        <path d="M87.78573,140.05084c-1.1665,0-2.08398-.32715-2.75146-.98096s-1.00146-1.5415-1.00146-2.6626c0-1.15771.34619-2.06348,1.03906-2.71729s1.62939-.98096,2.80957-.98096c1.16211,0,2.07373.32715,2.73438.98096s.99121,1.51855.99121,2.59424c0,1.16211-.34082,2.08057-1.02197,2.75488s-1.61426,1.01172-2.79932,1.01172ZM87.84042,134.36334c-.51025,0-.90674.17529-1.18945.52637s-.42383.84766-.42383,1.49023c0,1.34424.54248,2.0166,1.62695,2.0166,1.03467,0,1.55176-.69043,1.55176-2.07129,0-1.30811-.52197-1.96191-1.56543-1.96191Z" fill="#2f2f2f"/>
        <path d="M92.59384,139.69537v-1.75c.35547.21436.70996.37354,1.06299.47852s.68701.15723,1.00146.15723c.38281,0,.68457-.05225.90576-.15723s.33154-.26416.33154-.47852c0-.13672-.05029-.25049-.15039-.3418s-.229-.1709-.38623-.23926-.3291-.12988-.51611-.18457-.3667-.11621-.54004-.18457c-.27783-.10498-.52295-.21777-.73486-.33838s-.38965-.26074-.5332-.42041-.25293-.34424-.32812-.55371-.11279-.45801-.11279-.74512c0-.39209.08545-.729.25635-1.01172s.39893-.51367.68359-.69385.61084-.31201.97754-.39648.74854-.12646,1.14502-.12646c.31006,0,.62451.02393.94336.07178s.6333.11719.94336.2085v1.66797c-.27344-.15967-.56641-.2793-.87842-.35889s-.61865-.11963-.91943-.11963c-.14111,0-.27441.0127-.3999.0376s-.23584.06152-.33154.10938-.1709.10938-.22559.18457-.08203.16064-.08203.25635c0,.12744.04102.23682.12305.32812s.18896.16992.32129.23584.2793.12549.44092.17773.32227.10596.48193.16064c.28711.1001.54688.20947.7793.32812s.43164.25732.59814.41699.29395.34619.38281.56055.1333.46924.1333.76562c0,.41455-.08984.76904-.27002,1.06299s-.41943.5332-.71777.71777-.64258.31885-1.03223.40332-.79395.12646-1.21338.12646c-.77002,0-1.4834-.11865-2.13965-.35547Z" fill="#2f2f2f"/>
        <path d="M110.38534,139.87994h-2.15332v-3.99219c0-1.01611-.37354-1.52441-1.12109-1.52441-.35547,0-.64502.15283-.86816.45801s-.33496.68604-.33496,1.1416v3.91699h-2.16016v-4.0332c0-.98877-.3667-1.4834-1.10059-1.4834-.36914,0-.66406.146-.88525.4375s-.33154.68799-.33154,1.18945v3.88965h-2.16016v-7h2.16016v1.09375h.02734c.22314-.37354.53662-.67773.93994-.9126s.84424-.35205,1.32275-.35205c.98877,0,1.66553.43506,2.03027,1.30566.5332-.87061,1.31689-1.30566,2.35156-1.30566,1.52197,0,2.2832.93896,2.2832,2.81641v4.35449Z" fill="#2f2f2f"/>
        <path d="M115.43026,140.05084c-1.1665,0-2.08398-.32715-2.75146-.98096s-1.00146-1.5415-1.00146-2.6626c0-1.15771.34619-2.06348,1.03906-2.71729s1.62939-.98096,2.80957-.98096c1.16211,0,2.07373.32715,2.73438.98096s.99121,1.51855.99121,2.59424c0,1.16211-.34082,2.08057-1.02197,2.75488s-1.61426,1.01172-2.79932,1.01172ZM115.48495,134.36334c-.51025,0-.90674.17529-1.18945.52637s-.42383.84766-.42383,1.49023c0,1.34424.54248,2.0166,1.62695,2.0166,1.03467,0,1.55176-.69043,1.55176-2.07129,0-1.30811-.52197-1.96191-1.56543-1.96191Z" fill="#2f2f2f"/>
        <path d="M120.23788,139.69537v-1.75c.35547.21436.70996.37354,1.06299.47852s.68701.15723,1.00146.15723c.38281,0,.68457-.05225.90576-.15723s.33154-.26416.33154-.47852c0-.13672-.05029-.25049-.15039-.3418s-.229-.1709-.38623-.23926-.3291-.12988-.51611-.18457-.3667-.11621-.54004-.18457c-.27783-.10498-.52295-.21777-.73486-.33838s-.38965-.26074-.5332-.42041-.25293-.34424-.32812-.55371-.11279-.45801-.11279-.74512c0-.39209.08545-.729.25635-1.01172s.39893-.51367.68359-.69385.61084-.31201.97754-.39648.74854-.12646,1.14502-.12646c.31006,0,.62451.02393.94336.07178s.6333.11719.94336.2085v1.66797c-.27344-.15967-.56641-.2793-.87842-.35889s-.61865-.11963-.91943-.11963c-.14111,0-.27441.0127-.3999.0376s-.23584.06152-.33154.10938-.1709.10938-.22559.18457-.08203.16064-.08203.25635c0,.12744.04102.23682.12305.32812s.18896.16992.32129.23584.2793.12549.44092.17773.32227.10596.48193.16064c.28711.1001.54688.20947.7793.32812s.43164.25732.59814.41699.29395.34619.38281.56055.1333.46924.1333.76562c0,.41455-.08984.76904-.27002,1.06299s-.41943.5332-.71777.71777-.64258.31885-1.03223.40332-.79395.12646-1.21338.12646c-.77002,0-1.4834-.11865-2.13965-.35547Z" fill="#2f2f2f"/>
        <path d="M42.89706,156.67975v-9.80273h3.47266c3.48193,0,5.22266,1.59277,5.22266,4.77832,0,1.52686-.4751,2.74561-1.42529,3.65723s-2.21582,1.36719-3.79736,1.36719h-3.47266ZM45.10507,148.67486v6.21387h1.09375c.95703,0,1.70801-.28711,2.25244-.86133s.81689-1.35596.81689-2.34473c0-.93408-.27002-1.66895-.81006-2.20459s-1.29785-.80322-2.27295-.80322h-1.08008Z" fill="#2f2f2f"/>
        <path d="M53.16073,156.67975v-9.80273h3.56836c1.09375,0,1.93457.20068,2.52246.60156s.88184.96631.88184,1.69531c0,.52881-.17871.99121-.53662,1.3877s-.81445.67236-1.37061.82715v.02734c.69727.08643,1.25439.34424,1.67139.77246s.62549.9502.62549,1.56543c0,.89795-.32129,1.60986-.96387,2.13623s-1.52002.78955-2.63184.78955h-3.7666ZM55.36874,148.50397v2.32422h.9707c.45557,0,.81445-.11035,1.07666-.33154s.39307-.52539.39307-.9126c0-.72021-.5376-1.08008-1.61328-1.08008h-.82715ZM55.36874,152.46881v2.58398h1.19629c.51025,0,.91016-.11865,1.19971-.35547s.43408-.56055.43408-.9707c0-.39209-.14258-.69971-.42725-.92285s-.68262-.33496-1.19287-.33496h-1.20996Z" fill="#2f2f2f"/>
        <path d="M71.61093,156.67975h-2.04395v-1.00488h-.02734c-.46924.78369-1.16455,1.17578-2.08496,1.17578-.6792,0-1.21338-.19238-1.60303-.57764s-.58447-.89893-.58447-1.5415c0-1.35791.8042-2.14209,2.41309-2.35156l1.90039-.25293c0-.76562-.41455-1.14844-1.24414-1.14844-.83398,0-1.62695.24854-2.37891.74512v-1.62695c.30078-.15479.71191-.2915,1.23389-.41016s.99707-.17773,1.42529-.17773c1.99609,0,2.99414.99561,2.99414,2.9873v4.18359ZM69.58065,153.836v-.47168l-1.27148.16406c-.70166.09131-1.05273.40771-1.05273.9502,0,.24609.08545.44775.25635.60498s.40234.23584.69385.23584c.40576,0,.73584-.14014.99121-.42041s.38281-.63477.38281-1.06299Z" fill="#2f2f2f"/>
        <path d="M78.6246,156.42682c-.48779.28271-1.19189.42383-2.1123.42383-1.07568,0-1.9458-.32568-2.61133-.97754s-.99805-1.49268-.99805-2.52246c0-1.18945.35645-2.12695,1.06982-2.81299s1.66699-1.02881,2.86084-1.02881c.82471,0,1.42188.10938,1.79102.32812v1.83203c-.45117-.3374-.95459-.50586-1.51074-.50586-.61963,0-1.11084.18115-1.47314.54346s-.54346.8623-.54346,1.50049c0,.61963.17334,1.10645.51953,1.45947s.82275.52979,1.42871.52979c.5376,0,1.06396-.16846,1.5791-.50586v1.73633Z" fill="#2f2f2f"/>
        <path d="M85.32333,156.42682c-.48779.28271-1.19189.42383-2.1123.42383-1.07568,0-1.9458-.32568-2.61133-.97754s-.99805-1.49268-.99805-2.52246c0-1.18945.35645-2.12695,1.06982-2.81299s1.66699-1.02881,2.86084-1.02881c.82471,0,1.42188.10938,1.79102.32812v1.83203c-.45117-.3374-.95459-.50586-1.51074-.50586-.61963,0-1.11084.18115-1.47314.54346s-.54346.8623-.54346,1.50049c0,.61963.17334,1.10645.51953,1.45947s.82275.52979,1.42871.52979c.5376,0,1.06396-.16846,1.5791-.50586v1.73633Z" fill="#2f2f2f"/>
        <path d="M90.05331,156.85064c-1.1665,0-2.08398-.32715-2.75146-.98096s-1.00146-1.5415-1.00146-2.6626c0-1.15771.34619-2.06348,1.03906-2.71729s1.62939-.98096,2.80957-.98096c1.16211,0,2.07373.32715,2.73438.98096s.99121,1.51855.99121,2.59424c0,1.16211-.34082,2.08057-1.02197,2.75488s-1.61426,1.01172-2.79932,1.01172ZM90.108,151.16314c-.51025,0-.90674.17529-1.18945.52637s-.42383.84766-.42383,1.49023c0,1.34424.54248,2.0166,1.62695,2.0166,1.03467,0,1.55176-.69043,1.55176-2.07129,0-1.30811-.52197-1.96191-1.56543-1.96191Z" fill="#2f2f2f"/>
        <path d="M101.90634,156.67975h-2.15332v-1.06641h-.03418c-.5332.82471-1.24658,1.2373-2.13965,1.2373-1.62256,0-2.43359-.98193-2.43359-2.94629v-4.22461h2.15332v4.0332c0,.98877.39209,1.4834,1.17578,1.4834.38721,0,.69727-.13574.92969-.40674s.34863-.63916.34863-1.104v-4.00586h2.15332v7Z" fill="#2f2f2f"/>
        <path d="M110.43466,156.67975h-2.15332v-3.88965c0-1.08447-.38721-1.62695-1.16211-1.62695-.37354,0-.68115.14355-.92285.43066s-.3623.65186-.3623,1.09375v3.99219h-2.16016v-7h2.16016v1.10742h.02734c.51514-.85205,1.26465-1.27832,2.24902-1.27832,1.54932,0,2.32422.96143,2.32422,2.88477v4.28613Z" fill="#2f2f2f"/>
        <path d="M116.28427,156.59772c-.31885.16846-.7998.25293-1.44238.25293-1.52197,0-2.2832-.79053-2.2832-2.37207v-3.20605h-1.13477v-1.59277h1.13477v-1.51074l2.15332-.61523v2.12598h1.57227v1.59277h-1.57227v2.83008c0,.729.28955,1.09375.86816,1.09375.22803,0,.4624-.06592.7041-.19824v1.59961Z" fill="#2f2f2f"/>
      </g>
      <g>
        <path d="M166.13241,84.47809h-1.36719l-1.64062-2.74805c-.15039-.25537-.29639-.47266-.4375-.65283s-.28613-.32715-.43408-.44092-.30762-.19727-.47852-.24951-.36328-.07861-.57764-.07861h-.94336v4.16992h-1.14844v-9.80273h2.92578c.42822,0,.82373.05371,1.18604.16064s.67676.27002.94336.48877.4751.49121.62549.81689.22559.70752.22559,1.14502c0,.3418-.05127.65527-.15381.93994s-.24854.53906-.4375.76221-.41699.41357-.68359.5708-.56641.2793-.89893.36572v.02734c.16406.07275.30664.15625.42725.24951s.23584.2041.34521.33154.21777.27246.32471.43408.22656.34961.35889.56396l1.83887,2.94629ZM160.25351,75.71441v3.55469h1.55859c.28711,0,.55273-.04346.79639-.12988s.45459-.21094.63232-.37256.31689-.35986.41699-.59473.15039-.49805.15039-.78955c0-.52393-.16992-.93311-.50928-1.22705s-.83057-.44092-1.47314-.44092h-1.57227Z" fill="#2f2f2f"/>
        <path d="M172.74472,81.25836h-4.94238c.01807.7793.22803,1.38086.62891,1.80469s.95264.63574,1.6543.63574c.78857,0,1.51318-.25977,2.17383-.7793v1.05273c-.61523.44678-1.42871.66992-2.44043.66992-.98877,0-1.76611-.31787-2.33105-.95361s-.84766-1.53027-.84766-2.68311c0-1.08936.30859-1.97656.92627-2.6626s1.38428-1.02881,2.30029-1.02881,1.62451.29639,2.12598.88867.75195,1.41504.75195,2.46777v.58789ZM171.59628,80.30816c-.00439-.64697-.16064-1.15088-.46826-1.51074s-.73486-.54004-1.28174-.54004c-.52881,0-.97754.18896-1.34668.56738s-.59717.87256-.68359,1.4834h3.78027Z" fill="#2f2f2f"/>
        <path d="M175.57577,83.46637h-.02734v4.23145h-1.12109v-10.21973h1.12109v1.23047h.02734c.55127-.92969,1.35791-1.39453,2.41992-1.39453.90234,0,1.60645.31348,2.1123.93994s.75879,1.46631.75879,2.51904c0,1.17139-.28467,2.10889-.85449,2.81299s-1.34912,1.05615-2.33789,1.05615c-.90674,0-1.60645-.39209-2.09863-1.17578ZM175.54843,80.64313v.97754c0,.57861.18799,1.06982.56396,1.47314s.85352.60498,1.43213.60498c.6792,0,1.21094-.25977,1.59619-.7793s.57764-1.2417.57764-2.16699c0-.7793-.18018-1.39014-.54004-1.83203s-.84766-.66309-1.46289-.66309c-.65186,0-1.17578.22656-1.57227.68018s-.59473,1.02197-.59473,1.70557Z" fill="#2f2f2f"/>
        <path d="M183.71737,84.47809h-1.12109v-10.36328h1.12109v10.36328Z" fill="#2f2f2f"/>
        <path d="M186.40438,75.70074c-.20068,0-.37158-.06836-.5127-.20508s-.21191-.31006-.21191-.51953.0708-.38379.21191-.52295.31201-.2085.5127-.2085c.20508,0,.37939.06934.52295.2085s.21533.31348.21533.52295c0,.20068-.07178.37158-.21533.5127s-.31787.21191-.52295.21191ZM186.95126,84.47809h-1.12109v-7h1.12109v7Z" fill="#2f2f2f"/>
        <path d="M193.86337,84.1568c-.5376.32373-1.17578.48535-1.91406.48535-.99805,0-1.80371-.32471-2.4165-.97412s-.91943-1.49121-.91943-2.52588c0-1.15283.33057-2.0791.99121-2.77881s1.54248-1.04932,2.64551-1.04932c.61523,0,1.15771.11377,1.62695.3418v1.14844c-.51953-.36475-1.07568-.54688-1.66797-.54688-.71533,0-1.30225.25635-1.76025.76904s-.68701,1.18604-.68701,2.02002c0,.82031.21533,1.46729.646,1.94141s1.0083.71094,1.73291.71094c.61084,0,1.18506-.20264,1.72266-.6084v1.06641Z" fill="#2f2f2f"/>
        <path d="M200.60702,84.47809h-1.12109v-1.09375h-.02734c-.48779.83838-1.20557,1.25781-2.15332,1.25781-.69727,0-1.24316-.18457-1.63721-.55371s-.59131-.85889-.59131-1.46973c0-1.30811.77002-2.06885,2.31055-2.2832l2.09863-.29395c0-1.18945-.48096-1.78418-1.44238-1.78418-.84326,0-1.604.28711-2.2832.86133v-1.14844c.68799-.4375,1.48096-.65625,2.37891-.65625,1.64502,0,2.46777.87061,2.46777,2.61133v4.55273ZM199.48593,80.93707l-1.68848.23242c-.51953.07275-.91162.20166-1.17578.38623s-.39648.51172-.39648.98096c0,.3418.12207.62109.36572.8374s.56836.32471.97412.32471c.55615,0,1.01514-.19482,1.37744-.58447s.54346-.88281.54346-1.47998v-.69727Z" fill="#2f2f2f"/>
        <path d="M206.13046,84.22516v-1.20312c.61084.45117,1.28271.67676,2.0166.67676.98438,0,1.47656-.32812,1.47656-.98438,0-.18701-.04199-.34521-.12646-.4751s-.19824-.24512-.3418-.34521-.31201-.19043-.50586-.27002-.40234-.16309-.62549-.24951c-.31006-.12305-.58203-.24707-.81689-.37256s-.43066-.2666-.58789-.42383-.27588-.33594-.35547-.53662-.11963-.43506-.11963-.7041c0-.32812.0752-.61865.22559-.87158s.35107-.46484.60156-.63574.53662-.2998.85791-.38623.65283-.12988.99463-.12988c.60596,0,1.14844.10498,1.62695.31445v1.13477c-.51514-.3374-1.10742-.50586-1.77734-.50586-.20947,0-.39893.02393-.56738.07178s-.31348.11523-.43408.20166-.21436.19043-.28027.31104-.09912.25391-.09912.3999c0,.18213.0332.33496.09912.45801s.16309.23242.29053.32812.28271.18213.46484.25977.38965.16162.62207.25293c.31006.11865.58789.24023.83398.36572s.45557.2666.62891.42383.30664.33838.3999.54346.14014.44873.14014.73145c0,.34619-.07617.64697-.229.90234s-.35645.46729-.61182.63574-.54932.29395-.88184.37598-.68115.12305-1.0459.12305c-.72021,0-1.34424-.13916-1.87305-.41699Z" fill="#2f2f2f"/>
        <path d="M218.08603,81.25836h-4.94238c.01807.7793.22803,1.38086.62891,1.80469s.95264.63574,1.6543.63574c.78857,0,1.51318-.25977,2.17383-.7793v1.05273c-.61523.44678-1.42871.66992-2.44043.66992-.98877,0-1.76611-.31787-2.33105-.95361s-.84766-1.53027-.84766-2.68311c0-1.08936.30859-1.97656.92627-2.6626s1.38428-1.02881,2.30029-1.02881,1.62451.29639,2.12598.88867.75195,1.41504.75195,2.46777v.58789ZM216.93759,80.30816c-.00439-.64697-.16064-1.15088-.46826-1.51074s-.73486-.54004-1.28174-.54004c-.52881,0-.97754.18896-1.34668.56738s-.59717.87256-.68359,1.4834h3.78027Z" fill="#2f2f2f"/>
        <path d="M223.01034,84.40973c-.26416.146-.61279.21875-1.0459.21875-1.22607,0-1.83887-.68359-1.83887-2.05078v-4.14258h-1.20312v-.95703h1.20312v-1.70898l1.12109-.3623v2.07129h1.76367v.95703h-1.76367v3.94434c0,.46924.07959.8042.23926,1.00488s.42383.30078.79297.30078c.28271,0,.52637-.07764.73145-.23242v.95703Z" fill="#2f2f2f"/>
      </g>
      <g>
        <path d="M241.04989,137.03814h-1.36719l-1.64062-2.74805c-.15039-.25537-.29639-.47266-.4375-.65283s-.28613-.32715-.43408-.44092-.30762-.19727-.47852-.24951-.36328-.07861-.57764-.07861h-.94336v4.16992h-1.14844v-9.80273h2.92578c.42822,0,.82373.05371,1.18604.16064s.67676.27002.94336.48877.4751.49121.62549.81689.22559.70752.22559,1.14502c0,.3418-.05127.65527-.15381.93994s-.24854.53906-.4375.76221-.41699.41357-.68359.5708-.56641.2793-.89893.36572v.02734c.16406.07275.30664.15625.42725.24951s.23584.2041.34521.33154.21777.27246.32471.43408.22656.34961.35889.56396l1.83887,2.94629ZM235.17099,128.27447v3.55469h1.55859c.28711,0,.55273-.04346.79639-.12988s.45459-.21094.63232-.37256.31689-.35986.41699-.59473.15039-.49805.15039-.78955c0-.52393-.16992-.93311-.50928-1.22705s-.83057-.44092-1.47314-.44092h-1.57227Z" fill="#2f2f2f"/>
        <path d="M247.6622,133.81842h-4.94238c.01807.7793.22803,1.38086.62891,1.80469s.95264.63574,1.6543.63574c.78857,0,1.51318-.25977,2.17383-.7793v1.05273c-.61523.44678-1.42871.66992-2.44043.66992-.98877,0-1.76611-.31787-2.33105-.95361s-.84766-1.53027-.84766-2.68311c0-1.08936.30859-1.97656.92627-2.6626s1.38428-1.02881,2.30029-1.02881,1.62451.29639,2.12598.88867.75195,1.41504.75195,2.46777v.58789ZM246.51376,132.86822c-.00439-.64697-.16064-1.15088-.46826-1.51074s-.73486-.54004-1.28174-.54004c-.52881,0-.97754.18896-1.34668.56738s-.59717.87256-.68359,1.4834h3.78027Z" fill="#2f2f2f"/>
        <path d="M250.49325,136.02643h-.02734v4.23145h-1.12109v-10.21973h1.12109v1.23047h.02734c.55127-.92969,1.35791-1.39453,2.41992-1.39453.90234,0,1.60645.31348,2.1123.93994s.75879,1.46631.75879,2.51904c0,1.17139-.28467,2.10889-.85449,2.81299s-1.34912,1.05615-2.33789,1.05615c-.90674,0-1.60645-.39209-2.09863-1.17578ZM250.46591,133.20318v.97754c0,.57861.18799,1.06982.56396,1.47314s.85352.60498,1.43213.60498c.6792,0,1.21094-.25977,1.59619-.7793s.57764-1.2417.57764-2.16699c0-.7793-.18018-1.39014-.54004-1.83203s-.84766-.66309-1.46289-.66309c-.65186,0-1.17578.22656-1.57227.68018s-.59473,1.02197-.59473,1.70557Z" fill="#2f2f2f"/>
        <path d="M258.63485,137.03814h-1.12109v-10.36328h1.12109v10.36328Z" fill="#2f2f2f"/>
        <path d="M261.32187,128.2608c-.20068,0-.37158-.06836-.5127-.20508s-.21191-.31006-.21191-.51953.0708-.38379.21191-.52295.31201-.2085.5127-.2085c.20508,0,.37939.06934.52295.2085s.21533.31348.21533.52295c0,.20068-.07178.37158-.21533.5127s-.31787.21191-.52295.21191ZM261.86874,137.03814h-1.12109v-7h1.12109v7Z" fill="#2f2f2f"/>
        <path d="M268.78085,136.71686c-.5376.32373-1.17578.48535-1.91406.48535-.99805,0-1.80371-.32471-2.4165-.97412s-.91943-1.49121-.91943-2.52588c0-1.15283.33057-2.0791.99121-2.77881s1.54248-1.04932,2.64551-1.04932c.61523,0,1.15771.11377,1.62695.3418v1.14844c-.51953-.36475-1.07568-.54688-1.66797-.54688-.71533,0-1.30225.25635-1.76025.76904s-.68701,1.18604-.68701,2.02002c0,.82031.21533,1.46729.646,1.94141s1.0083.71094,1.73291.71094c.61084,0,1.18506-.20264,1.72266-.6084v1.06641Z" fill="#2f2f2f"/>
        <path d="M275.5245,137.03814h-1.12109v-1.09375h-.02734c-.48779.83838-1.20557,1.25781-2.15332,1.25781-.69727,0-1.24316-.18457-1.63721-.55371s-.59131-.85889-.59131-1.46973c0-1.30811.77002-2.06885,2.31055-2.2832l2.09863-.29395c0-1.18945-.48096-1.78418-1.44238-1.78418-.84326,0-1.604.28711-2.2832.86133v-1.14844c.68799-.4375,1.48096-.65625,2.37891-.65625,1.64502,0,2.46777.87061,2.46777,2.61133v4.55273ZM274.40341,133.49713l-1.68848.23242c-.51953.07275-.91162.20166-1.17578.38623s-.39648.51172-.39648.98096c0,.3418.12207.62109.36572.8374s.56836.32471.97412.32471c.55615,0,1.01514-.19482,1.37744-.58447s.54346-.88281.54346-1.47998v-.69727Z" fill="#2f2f2f"/>
      </g>
      <g>
        <path d="M461.05038,137.03814h-1.36719l-1.64062-2.74805c-.15039-.25537-.29639-.47266-.4375-.65283s-.28613-.32715-.43408-.44092-.30762-.19727-.47852-.24951-.36328-.07861-.57764-.07861h-.94336v4.16992h-1.14844v-9.80273h2.92578c.42822,0,.82373.05371,1.18604.16064s.67676.27002.94336.48877.4751.49121.62549.81689.22559.70752.22559,1.14502c0,.3418-.05127.65527-.15381.93994s-.24854.53906-.4375.76221-.41699.41357-.68359.5708-.56641.2793-.89893.36572v.02734c.16406.07275.30664.15625.42725.24951s.23584.2041.34521.33154.21777.27246.32471.43408.22656.34961.35889.56396l1.83887,2.94629ZM455.17147,128.27447v3.55469h1.55859c.28711,0,.55273-.04346.79639-.12988s.45459-.21094.63232-.37256.31689-.35986.41699-.59473.15039-.49805.15039-.78955c0-.52393-.16992-.93311-.50928-1.22705s-.83057-.44092-1.47314-.44092h-1.57227Z" fill="#2f2f2f"/>
        <path d="M467.66269,133.81842h-4.94238c.01807.7793.22803,1.38086.62891,1.80469s.95264.63574,1.6543.63574c.78857,0,1.51318-.25977,2.17383-.7793v1.05273c-.61523.44678-1.42871.66992-2.44043.66992-.98877,0-1.76611-.31787-2.33105-.95361s-.84766-1.53027-.84766-2.68311c0-1.08936.30859-1.97656.92627-2.6626s1.38428-1.02881,2.30029-1.02881,1.62451.29639,2.12598.88867.75195,1.41504.75195,2.46777v.58789ZM466.51425,132.86822c-.00439-.64697-.16064-1.15088-.46826-1.51074s-.73486-.54004-1.28174-.54004c-.52881,0-.97754.18896-1.34668.56738s-.59717.87256-.68359,1.4834h3.78027Z" fill="#2f2f2f"/>
        <path d="M470.49374,136.02643h-.02734v4.23145h-1.12109v-10.21973h1.12109v1.23047h.02734c.55127-.92969,1.35791-1.39453,2.41992-1.39453.90234,0,1.60645.31348,2.1123.93994s.75879,1.46631.75879,2.51904c0,1.17139-.28467,2.10889-.85449,2.81299s-1.34912,1.05615-2.33789,1.05615c-.90674,0-1.60645-.39209-2.09863-1.17578ZM470.4664,133.20318v.97754c0,.57861.18799,1.06982.56396,1.47314s.85352.60498,1.43213.60498c.6792,0,1.21094-.25977,1.59619-.7793s.57764-1.2417.57764-2.16699c0-.7793-.18018-1.39014-.54004-1.83203s-.84766-.66309-1.46289-.66309c-.65186,0-1.17578.22656-1.57227.68018s-.59473,1.02197-.59473,1.70557Z" fill="#2f2f2f"/>
        <path d="M478.63534,137.03814h-1.12109v-10.36328h1.12109v10.36328Z" fill="#2f2f2f"/>
        <path d="M481.32235,128.2608c-.20068,0-.37158-.06836-.5127-.20508s-.21191-.31006-.21191-.51953.0708-.38379.21191-.52295.31201-.2085.5127-.2085c.20508,0,.37939.06934.52295.2085s.21533.31348.21533.52295c0,.20068-.07178.37158-.21533.5127s-.31787.21191-.52295.21191ZM481.86923,137.03814h-1.12109v-7h1.12109v7Z" fill="#2f2f2f"/>
        <path d="M488.78134,136.71686c-.5376.32373-1.17578.48535-1.91406.48535-.99805,0-1.80371-.32471-2.4165-.97412s-.91943-1.49121-.91943-2.52588c0-1.15283.33057-2.0791.99121-2.77881s1.54248-1.04932,2.64551-1.04932c.61523,0,1.15771.11377,1.62695.3418v1.14844c-.51953-.36475-1.07568-.54688-1.66797-.54688-.71533,0-1.30225.25635-1.76025.76904s-.68701,1.18604-.68701,2.02002c0,.82031.21533,1.46729.646,1.94141s1.0083.71094,1.73291.71094c.61084,0,1.18506-.20264,1.72266-.6084v1.06641Z" fill="#2f2f2f"/>
        <path d="M495.52499,137.03814h-1.12109v-1.09375h-.02734c-.48779.83838-1.20557,1.25781-2.15332,1.25781-.69727,0-1.24316-.18457-1.63721-.55371s-.59131-.85889-.59131-1.46973c0-1.30811.77002-2.06885,2.31055-2.2832l2.09863-.29395c0-1.18945-.48096-1.78418-1.44238-1.78418-.84326,0-1.604.28711-2.2832.86133v-1.14844c.68799-.4375,1.48096-.65625,2.37891-.65625,1.64502,0,2.46777.87061,2.46777,2.61133v4.55273ZM494.4039,133.49713l-1.68848.23242c-.51953.07275-.91162.20166-1.17578.38623s-.39648.51172-.39648.98096c0,.3418.12207.62109.36572.8374s.56836.32471.97412.32471c.55615,0,1.01514-.19482,1.37744-.58447s.54346-.88281.54346-1.47998v-.69727Z" fill="#2f2f2f"/>
      </g>
      <g>
        <path d="M681.05038,137.03814h-1.36719l-1.64062-2.74805c-.15039-.25537-.29639-.47266-.4375-.65283s-.28613-.32715-.43408-.44092-.30762-.19727-.47852-.24951-.36328-.07861-.57764-.07861h-.94336v4.16992h-1.14844v-9.80273h2.92578c.42822,0,.82373.05371,1.18604.16064s.67676.27002.94336.48877.4751.49121.62549.81689.22559.70752.22559,1.14502c0,.3418-.05127.65527-.15381.93994s-.24854.53906-.4375.76221-.41699.41357-.68359.5708-.56641.2793-.89893.36572v.02734c.16406.07275.30664.15625.42725.24951s.23584.2041.34521.33154.21777.27246.32471.43408.22656.34961.35889.56396l1.83887,2.94629ZM675.17147,128.27447v3.55469h1.55859c.28711,0,.55273-.04346.79639-.12988s.45459-.21094.63232-.37256.31689-.35986.41699-.59473.15039-.49805.15039-.78955c0-.52393-.16992-.93311-.50928-1.22705s-.83057-.44092-1.47314-.44092h-1.57227Z" fill="#2f2f2f"/>
        <path d="M687.66269,133.81842h-4.94238c.01807.7793.22803,1.38086.62891,1.80469s.95264.63574,1.6543.63574c.78857,0,1.51318-.25977,2.17383-.7793v1.05273c-.61523.44678-1.42871.66992-2.44043.66992-.98877,0-1.76611-.31787-2.33105-.95361s-.84766-1.53027-.84766-2.68311c0-1.08936.30859-1.97656.92627-2.6626s1.38428-1.02881,2.30029-1.02881,1.62451.29639,2.12598.88867.75195,1.41504.75195,2.46777v.58789ZM686.51425,132.86822c-.00439-.64697-.16064-1.15088-.46826-1.51074s-.73486-.54004-1.28174-.54004c-.52881,0-.97754.18896-1.34668.56738s-.59717.87256-.68359,1.4834h3.78027Z" fill="#2f2f2f"/>
        <path d="M690.49374,136.02643h-.02734v4.23145h-1.12109v-10.21973h1.12109v1.23047h.02734c.55127-.92969,1.35791-1.39453,2.41992-1.39453.90234,0,1.60645.31348,2.1123.93994s.75879,1.46631.75879,2.51904c0,1.17139-.28467,2.10889-.85449,2.81299s-1.34912,1.05615-2.33789,1.05615c-.90674,0-1.60645-.39209-2.09863-1.17578ZM690.4664,133.20318v.97754c0,.57861.18799,1.06982.56396,1.47314s.85352.60498,1.43213.60498c.6792,0,1.21094-.25977,1.59619-.7793s.57764-1.2417.57764-2.16699c0-.7793-.18018-1.39014-.54004-1.83203s-.84766-.66309-1.46289-.66309c-.65186,0-1.17578.22656-1.57227.68018s-.59473,1.02197-.59473,1.70557Z" fill="#2f2f2f"/>
        <path d="M698.63534,137.03814h-1.12109v-10.36328h1.12109v10.36328Z" fill="#2f2f2f"/>
        <path d="M701.32235,128.2608c-.20068,0-.37158-.06836-.5127-.20508s-.21191-.31006-.21191-.51953.0708-.38379.21191-.52295.31201-.2085.5127-.2085c.20508,0,.37939.06934.52295.2085s.21533.31348.21533.52295c0,.20068-.07178.37158-.21533.5127s-.31787.21191-.52295.21191ZM701.86923,137.03814h-1.12109v-7h1.12109v7Z" fill="#2f2f2f"/>
        <path d="M708.78134,136.71686c-.5376.32373-1.17578.48535-1.91406.48535-.99805,0-1.80371-.32471-2.4165-.97412s-.91943-1.49121-.91943-2.52588c0-1.15283.33057-2.0791.99121-2.77881s1.54248-1.04932,2.64551-1.04932c.61523,0,1.15771.11377,1.62695.3418v1.14844c-.51953-.36475-1.07568-.54688-1.66797-.54688-.71533,0-1.30225.25635-1.76025.76904s-.68701,1.18604-.68701,2.02002c0,.82031.21533,1.46729.646,1.94141s1.0083.71094,1.73291.71094c.61084,0,1.18506-.20264,1.72266-.6084v1.06641Z" fill="#2f2f2f"/>
        <path d="M715.52499,137.03814h-1.12109v-1.09375h-.02734c-.48779.83838-1.20557,1.25781-2.15332,1.25781-.69727,0-1.24316-.18457-1.63721-.55371s-.59131-.85889-.59131-1.46973c0-1.30811.77002-2.06885,2.31055-2.2832l2.09863-.29395c0-1.18945-.48096-1.78418-1.44238-1.78418-.84326,0-1.604.28711-2.2832.86133v-1.14844c.68799-.4375,1.48096-.65625,2.37891-.65625,1.64502,0,2.46777.87061,2.46777,2.61133v4.55273ZM714.4039,133.49713l-1.68848.23242c-.51953.07275-.91162.20166-1.17578.38623s-.39648.51172-.39648.98096c0,.3418.12207.62109.36572.8374s.56836.32471.97412.32471c.55615,0,1.01514-.19482,1.37744-.58447s.54346-.88281.54346-1.47998v-.69727Z" fill="#2f2f2f"/>
      </g>
    </g>
  </g>
</svg>