<?xml version="1.0" encoding="UTF-8"?>
<svg xmlns="http://www.w3.org/2000/svg" width="809.6" height="198" xmlns:xlink="http://www.w3.org/1999/xlink" viewBox="0 0 809.6 198">
  <defs>
    <linearGradient id="Cool_gray_gradient_1" data-name="Cool gray gradient 1" x1="118.8" y1="97.4933" x2="338.7999" y2="97.4933" gradientUnits="userSpaceOnUse">
      <stop offset="0" stop-color="#f5f5f4"/>
      <stop offset="1" stop-color="#ececea"/>
    </linearGradient>
    <linearGradient id="Cool_gray_gradient_1-2" data-name="Cool gray gradient 1" x1="347.225" x2="567.2248" xlink:href="#Cool_gray_gradient_1"/>
    <linearGradient id="Cool_gray_gradient_1-3" data-name="Cool gray gradient 1" x1="576.025" x2="796.0248" xlink:href="#Cool_gray_gradient_1"/>
    <linearGradient id="linear-gradient" x1="-334.7001" y1="1363.0902" x2="-334.7001" y2="1383.2946" gradientTransform="translate(564 1490) scale(1 -1)" gradientUnits="userSpaceOnUse">
      <stop offset="0" stop-color="#0078d4"/>
      <stop offset=".82" stop-color="#5ea0ef"/>
    </linearGradient>
    <linearGradient id="linear-gradient-2" x1="-334.7001" y1="1355.2946" x2="-334.7001" y2="1363.0902" gradientTransform="translate(564 1490) scale(1 -1)" gradientUnits="userSpaceOnUse">
      <stop offset=".15" stop-color="#ccc"/>
      <stop offset="1" stop-color="#707070"/>
    </linearGradient>
    <linearGradient id="linear-gradient-3" x1="-106.2751" x2="-106.2751" xlink:href="#linear-gradient"/>
    <linearGradient id="linear-gradient-4" x1="-106.2751" x2="-106.2751" xlink:href="#linear-gradient-2"/>
    <linearGradient id="linear-gradient-5" x1="122.5249" x2="122.5249" xlink:href="#linear-gradient"/>
    <linearGradient id="linear-gradient-6" x1="122.5249" x2="122.5249" xlink:href="#linear-gradient-2"/>
    <linearGradient id="linear-gradient-7" x1="-490.0401" y1="1380.6181" x2="-490.0401" y2="1392.5475" xlink:href="#linear-gradient"/>
    <linearGradient id="linear-gradient-8" x1="-489.996" y1="1376.0122" x2="-489.996" y2="1380.6181" xlink:href="#linear-gradient-2"/>
  </defs>
  <g isolation="isolate">
    <g id="Shapes">
      <rect width="809.6" height="198" fill="#fff"/>
      <g>
        <g mix-blend-mode="multiply" opacity=".65">
          <rect x="119.8" y="12.6933" width="219.9999" height="171.6" rx="8" ry="8" fill="#2b436f"/>
          <rect x="119.8" y="12.6933" width="219.9999" height="171.6" rx="8" ry="8" fill="#2b436f" opacity=".4"/>
        </g>
        <g>
          <rect x="118.8" y="11.6933" width="219.9999" height="171.6" rx="8" ry="8" fill="url(#Cool_gray_gradient_1)"/>
          <rect x="118.8" y="11.6933" width="219.9999" height="171.6" rx="8" ry="8" fill="#8ec8e7" opacity=".4"/>
        </g>
      </g>
      <g>
        <g mix-blend-mode="multiply" opacity=".65">
          <rect x="348.225" y="12.6933" width="219.9999" height="171.6" rx="8" ry="8" fill="#2b436f"/>
          <rect x="348.225" y="12.6933" width="219.9999" height="171.6" rx="8" ry="8" fill="#2b436f" opacity=".4"/>
        </g>
        <g>
          <rect x="347.225" y="11.6933" width="219.9999" height="171.6" rx="8" ry="8" fill="url(#Cool_gray_gradient_1-2)"/>
          <rect x="347.225" y="11.6933" width="219.9999" height="171.6" rx="8" ry="8" fill="#8ec8e7" opacity=".4"/>
        </g>
      </g>
      <g>
        <g mix-blend-mode="multiply" opacity=".65">
          <rect x="577.025" y="12.6933" width="219.9999" height="171.6" rx="8" ry="8" fill="#2b436f"/>
          <rect x="577.025" y="12.6933" width="219.9999" height="171.6" rx="8" ry="8" fill="#2b436f" opacity=".4"/>
        </g>
        <g>
          <rect x="576.025" y="11.6933" width="219.9999" height="171.6" rx="8" ry="8" fill="url(#Cool_gray_gradient_1-3)"/>
          <rect x="576.025" y="11.6933" width="219.9999" height="171.6" rx="8" ry="8" fill="#8ec8e7" opacity=".4"/>
        </g>
      </g>
      <g>
        <rect x="13.2" y="57.2" width="783.2" height="110" fill="#fff"/>
        <rect x="13.2" y="57.2" width="783.2" height="110" fill="#e1ddd8" opacity=".6"/>
        <rect x="13.2" y="57.2" width="783.2" height="110" fill="none" stroke="#8e8278" stroke-width=".25"/>
      </g>
      <g>
        <rect x="214.1466" y="106.7054" width="30.3067" height="20.2044" rx="1.0102" ry="1.0102" fill="url(#linear-gradient)"/>
        <polygon points="234.351 113.8611 234.351 119.7373 229.2999 122.7006 229.2999 116.8076 234.351 113.8611" fill="#50e6ff"/>
        <polygon points="234.351 113.8611 229.2999 116.8244 224.2488 113.8611 229.2999 110.9146 234.351 113.8611" fill="#c3f1ff"/>
        <polygon points="229.2999 116.8244 229.2999 122.7006 224.2488 119.7373 224.2488 113.8611 229.2999 116.8244" fill="#9cebff"/>
        <polygon points="224.2488 119.7373 229.2999 116.8076 229.2999 122.7006 224.2488 119.7373" fill="#c3f1ff"/>
        <polygon points="234.351 119.7373 229.2999 116.8076 229.2999 122.7006 234.351 119.7373" fill="#9cebff"/>
        <path d="M235.3781,133.0217c-2.997-.4714-3.1149-2.6266-3.1149-6.1118h-5.9435c0,3.4853-.101,5.6404-3.098,6.1118-.8569.0948-1.5037.8216-1.4985,1.6837h15.1533c.0052-.8621-.6416-1.5889-1.4985-1.6837Z" fill="url(#linear-gradient-2)"/>
      </g>
      <g>
        <rect x="442.5715" y="106.7054" width="30.3067" height="20.2044" rx="1.0102" ry="1.0102" fill="url(#linear-gradient-3)"/>
        <polygon points="462.776 113.8611 462.776 119.7373 457.7249 122.7006 457.7249 116.8076 462.776 113.8611" fill="#50e6ff"/>
        <polygon points="462.776 113.8611 457.7249 116.8244 452.6738 113.8611 457.7249 110.9146 462.776 113.8611" fill="#c3f1ff"/>
        <polygon points="457.7249 116.8244 457.7249 122.7006 452.6738 119.7373 452.6738 113.8611 457.7249 116.8244" fill="#9cebff"/>
        <polygon points="452.6738 119.7373 457.7249 116.8076 457.7249 122.7006 452.6738 119.7373" fill="#c3f1ff"/>
        <polygon points="462.776 119.7373 457.7249 116.8076 457.7249 122.7006 462.776 119.7373" fill="#9cebff"/>
        <path d="M463.8031,133.0217c-2.997-.4714-3.1149-2.6266-3.1149-6.1118h-5.9435c0,3.4853-.101,5.6404-3.098,6.1118-.8569.0948-1.5037.8216-1.4985,1.6837h15.1533c.0052-.8621-.6416-1.5889-1.4985-1.6837Z" fill="url(#linear-gradient-4)"/>
      </g>
      <g>
        <rect x="671.3716" y="106.7054" width="30.3067" height="20.2044" rx="1.0102" ry="1.0102" fill="url(#linear-gradient-5)"/>
        <polygon points="691.576 113.8611 691.576 119.7373 686.5249 122.7006 686.5249 116.8076 691.576 113.8611" fill="#50e6ff"/>
        <polygon points="691.576 113.8611 686.5249 116.8244 681.4738 113.8611 686.5249 110.9146 691.576 113.8611" fill="#c3f1ff"/>
        <polygon points="686.5249 116.8244 686.5249 122.7006 681.4738 119.7373 681.4738 113.8611 686.5249 116.8244" fill="#9cebff"/>
        <polygon points="681.4738 119.7373 686.5249 116.8076 686.5249 122.7006 681.4738 119.7373" fill="#c3f1ff"/>
        <polygon points="691.576 119.7373 686.5249 116.8076 686.5249 122.7006 691.576 119.7373" fill="#9cebff"/>
        <path d="M692.6031,133.0217c-2.997-.4714-3.1149-2.6266-3.1149-6.1118h-5.9435c0,3.4853-.101,5.6404-3.098,6.1118-.8569.0948-1.5037.8216-1.4985,1.6837h15.1533c.0052-.8621-.6416-1.5889-1.4985-1.6837Z" fill="url(#linear-gradient-6)"/>
      </g>
      <g>
        <rect x="52.8805" y="83.9878" width="17.8412" height="11.9118" rx=".6" ry=".6" fill="#005ba1"/>
        <polygon points="64.7746 88.2054 64.7746 91.6819 61.8099 93.4113 61.8099 89.9525 64.7746 88.2054" fill="#50e6ff"/>
        <polygon points="64.7746 88.2054 61.8099 89.9525 58.8275 88.2054 61.8099 86.4584 64.7746 88.2054" fill="#c3f1ff"/>
        <polygon points="61.8099 89.9525 61.8099 93.4113 58.8275 91.6819 58.8275 88.2054 61.8099 89.9525" fill="#9cebff"/>
        <rect x="59.8863" y="90.8172" width="17.8412" height="11.9118" rx=".6" ry=".6" fill="#0078d4"/>
        <polygon points="71.7805 95.0525 71.7805 98.5113 68.8158 100.2584 68.8158 96.7819 71.7805 95.0525" fill="#50e6ff"/>
        <polygon points="71.7805 95.0525 68.8158 96.7819 65.8334 95.0525 68.8158 93.3054 71.7805 95.0525" fill="#c3f1ff"/>
        <polygon points="68.8158 96.7819 68.8158 100.2584 65.8334 98.5113 65.8334 95.0525 68.8158 96.7819" fill="#9cebff"/>
        <rect x="65.0393" y="97.4525" width="17.8412" height="11.9118" rx=".6" ry=".6" fill="url(#linear-gradient-7)"/>
        <polygon points="76.9334 101.6878 76.9334 105.1466 73.9687 106.8937 73.9687 103.4172 76.9334 101.6878" fill="#50e6ff"/>
        <polygon points="76.9334 101.6878 73.9687 103.4349 70.9863 101.6878 73.9687 99.9407 76.9334 101.6878" fill="#c3f1ff"/>
        <polygon points="73.9687 103.4349 73.9687 106.8937 70.9863 105.1466 70.9863 101.6878 73.9687 103.4349" fill="#9cebff"/>
        <polygon points="70.9863 105.1466 73.9687 103.4172 73.9687 106.8937 70.9863 105.1466" fill="#c3f1ff"/>
        <polygon points="76.9334 105.1466 73.9687 103.4172 73.9687 106.8937 76.9334 105.1466" fill="#9cebff"/>
        <path d="M77.5334,112.9819c-1.7647-.2824-1.7647-1.5529-1.7647-3.5294h-3.5294c0,2.0471,0,3.3176-1.7647,3.5294-.4992.0769-.8711.501-.8824,1.0059h8.8235c-.0112-.5049-.3832-.929-.8824-1.0059Z" fill="url(#linear-gradient-8)"/>
      </g>
    </g>
    <g id="Text">
      <g>
        <path d="M177.8356,38.0933h-2.4062l-.6973-2.1807h-3.4863l-.6904,2.1807h-2.3926l3.5684-9.8027h2.6182l3.4863,9.8027ZM174.2263,34.2173l-1.0527-3.2949c-.0776-.2461-.1323-.54-.1641-.8818h-.0547c-.0229.2871-.0796.5718-.1709.8545l-1.0664,3.3223h2.5088Z" fill="#2f2f2f"/>
        <path d="M185.2048,31.0933l-2.6045,7h-2.4609l-2.4814-7h2.3105l1.2168,4.3135c.1367.4878.2163.9023.2393,1.2441h.0273c.0317-.3237.1162-.7246.2529-1.2031l1.2441-4.3545h2.2559Z" fill="#2f2f2f"/>
        <path d="M191.7399,38.0933h-2.0439v-1.0049h-.0273c-.4692.7837-1.1646,1.1758-2.085,1.1758-.6792,0-1.2134-.1924-1.603-.5776s-.5845-.8989-.5845-1.5415c0-1.3579.8042-2.1421,2.4131-2.3516l1.9004-.2529c0-.7656-.4146-1.1484-1.2441-1.1484-.834,0-1.627.2485-2.3789.7451v-1.627c.3008-.1548.7119-.2915,1.2339-.4102s.9971-.1777,1.4253-.1777c1.9961,0,2.9941.9956,2.9941,2.9873v4.1836ZM189.7097,35.2495v-.4717l-1.2715.1641c-.7017.0913-1.0527.4077-1.0527.9502,0,.2461.0854.4478.2563.605s.4023.2358.6938.2358c.4058,0,.7358-.1401.9912-.4204s.3828-.6348.3828-1.063Z" fill="#2f2f2f"/>
        <path d="M194.5427,29.9858c-.3647,0-.6631-.1084-.8955-.3247s-.3486-.4819-.3486-.7964c0-.3237.1162-.5879.3486-.793s.5308-.3076.8955-.3076c.3691,0,.6689.1025.8989.3076s.3452.4692.3452.793c0,.3281-.1152.5972-.3452.8066s-.5298.3145-.8989.3145ZM195.6091,38.0933h-2.1602v-7h2.1602v7Z" fill="#2f2f2f"/>
        <path d="M199.5876,38.0933h-2.1602v-10.3633h2.1602v10.3633Z" fill="#2f2f2f"/>
        <path d="M207.2302,38.0933h-2.0439v-1.0049h-.0273c-.4692.7837-1.1646,1.1758-2.085,1.1758-.6792,0-1.2134-.1924-1.603-.5776s-.5845-.8989-.5845-1.5415c0-1.3579.8042-2.1421,2.4131-2.3516l1.9004-.2529c0-.7656-.4146-1.1484-1.2441-1.1484-.834,0-1.627.2485-2.3789.7451v-1.627c.3008-.1548.7119-.2915,1.2339-.4102s.9971-.1777,1.4253-.1777c1.9961,0,2.9941.9956,2.9941,2.9873v4.1836ZM205.1999,35.2495v-.4717l-1.2715.1641c-.7017.0913-1.0527.4077-1.0527.9502,0,.2461.0854.4478.2563.605s.4023.2358.6938.2358c.4058,0,.7358-.1401.9912-.4204s.3828-.6348.3828-1.063Z" fill="#2f2f2f"/>
        <path d="M211.1267,37.2798h-.0273v.8135h-2.1602v-10.3633h2.1602v4.416h.0273c.5332-.8159,1.292-1.2236,2.2764-1.2236.9023,0,1.5972.3101,2.085.9297s.7314,1.4673.7314,2.543c0,1.1665-.2847,2.103-.8545,2.8096s-1.3306,1.0596-2.2832,1.0596c-.8613,0-1.5132-.3281-1.9551-.9844ZM211.0651,34.3267v.7178c0,.4512.1299.8247.3896,1.1211s.5923.4443.998.4443c.4922,0,.874-.1904,1.145-.5708s.4067-.9194.4067-1.6167c0-.5786-.124-1.0312-.3726-1.3569s-.6025-.4888-1.063-.4888c-.4331,0-.792.1616-1.0767.4854s-.4272.7451-.4272,1.2646Z" fill="#2f2f2f"/>
        <path d="M218.7146,29.9858c-.3647,0-.6631-.1084-.8955-.3247s-.3486-.4819-.3486-.7964c0-.3237.1162-.5879.3486-.793s.5308-.3076.8955-.3076c.3691,0,.6689.1025.8989.3076s.3452.4692.3452.793c0,.3281-.1152.5972-.3452.8066s-.5298.3145-.8989.3145ZM219.781,38.0933h-2.1602v-7h2.1602v7Z" fill="#2f2f2f"/>
        <path d="M223.7595,38.0933h-2.1602v-10.3633h2.1602v10.3633Z" fill="#2f2f2f"/>
        <path d="M226.6716,29.9858c-.3647,0-.6631-.1084-.8955-.3247s-.3486-.4819-.3486-.7964c0-.3237.1162-.5879.3486-.793s.5308-.3076.8955-.3076c.3691,0,.6689.1025.8989.3076s.3452.4692.3452.793c0,.3281-.1152.5972-.3452.8066s-.5298.3145-.8989.3145ZM227.738,38.0933h-2.1602v-7h2.1602v7Z" fill="#2f2f2f"/>
        <path d="M233.7878,38.0112c-.3188.1685-.7998.2529-1.4424.2529-1.522,0-2.2832-.7905-2.2832-2.3721v-3.2061h-1.1348v-1.5928h1.1348v-1.5107l2.1533-.6152v2.126h1.5723v1.5928h-1.5723v2.8301c0,.729.2896,1.0938.8682,1.0938.228,0,.4624-.0659.7041-.1982v1.5996Z" fill="#2f2f2f"/>
        <path d="M241.6696,31.0933l-2.8438,7.5605c-.6836,1.8184-1.7134,2.7275-3.0898,2.7275-.5239,0-.9546-.0591-1.292-.1777v-1.7227c.2871.1685.5991.2529.9365.2529.5562,0,.9434-.2622,1.1621-.7861l.3691-.8682-2.8438-6.9863h2.3926l1.3057,4.2588c.082.2642.146.5767.1914.9365h.0273c.041-.2642.1162-.5718.2256-.9229l1.3193-4.2725h2.1396Z" fill="#2f2f2f"/>
        <path d="M253.6667,38.0933h-7.8955v-1.2715l5.0244-6.7334h-4.6621v-1.7979h7.5195v1.2373l-4.915,6.7744h4.9287v1.791Z" fill="#2f2f2f"/>
        <path d="M258.2331,38.2642c-1.1665,0-2.084-.3271-2.7515-.981s-1.0015-1.5415-1.0015-2.6626c0-1.1577.3462-2.0635,1.0391-2.7173s1.6294-.981,2.8096-.981c1.1621,0,2.0737.3271,2.7344.981s.9912,1.5186.9912,2.5942c0,1.1621-.3408,2.0806-1.022,2.7549s-1.6143,1.0117-2.7993,1.0117ZM258.2878,32.5767c-.5103,0-.9067.1753-1.1895.5264s-.4238.8477-.4238,1.4902c0,1.3442.5425,2.0166,1.627,2.0166,1.0347,0,1.5518-.6904,1.5518-2.0713,0-1.3081-.522-1.9619-1.5654-1.9619Z" fill="#2f2f2f"/>
        <path d="M270.2165,38.0933h-2.1533v-3.8896c0-1.0845-.3872-1.627-1.1621-1.627-.3735,0-.6812.1436-.9229.4307s-.3623.6519-.3623,1.0938v3.9922h-2.1602v-7h2.1602v1.1074h.0273c.5151-.8521,1.2646-1.2783,2.249-1.2783,1.5493,0,2.3242.9614,2.3242,2.8848v4.2861Z" fill="#2f2f2f"/>
        <path d="M278.2146,35.2085h-4.5664c.0728,1.0161.7134,1.5244,1.9209,1.5244.77,0,1.4468-.1821,2.0303-.5469v1.5586c-.647.3462-1.4878.5195-2.5225.5195-1.1304,0-2.0073-.3135-2.6318-.9399s-.9365-1.5005-.9365-2.6216c0-1.1621.3374-2.0825,1.0117-2.7617s1.5039-1.0186,2.4883-1.0186c1.021,0,1.8105.3032,2.3687.9092s.8374,1.4287.8374,2.4678v.9092ZM276.2116,33.8823c0-1.0024-.4058-1.5039-1.2168-1.5039-.3462,0-.646.1436-.8989.4307s-.4067.645-.4614,1.0732h2.5771Z" fill="#2f2f2f"/>
        <path d="M288.1403,28.0718v10.0215h-2.1533v-7.5879c-.1187.105-.2588.2041-.4204.2974s-.334.1777-.5161.2529-.3716.1392-.5674.1914-.3896.0898-.5811.1128v-1.8184c.5605-.1641,1.0894-.3735,1.5859-.6289s.9458-.5356,1.3467-.8408h1.3057Z" fill="#2f2f2f"/>
      </g>
      <g>
        <path d="M406.2604,38.0933h-2.4062l-.6973-2.1807h-3.4863l-.6904,2.1807h-2.3926l3.5684-9.8027h2.6182l3.4863,9.8027ZM402.6511,34.2173l-1.0527-3.2949c-.0776-.2461-.1323-.54-.1641-.8818h-.0547c-.0229.2871-.0796.5718-.1709.8545l-1.0664,3.3223h2.5088Z" fill="#2f2f2f"/>
        <path d="M413.6296,31.0933l-2.6045,7h-2.4609l-2.4814-7h2.3105l1.2168,4.3135c.1367.4878.2163.9023.2393,1.2441h.0273c.0317-.3237.1162-.7246.2529-1.2031l1.2441-4.3545h2.2559Z" fill="#2f2f2f"/>
        <path d="M420.1647,38.0933h-2.0439v-1.0049h-.0273c-.4692.7837-1.1646,1.1758-2.085,1.1758-.6792,0-1.2134-.1924-1.603-.5776s-.5845-.8989-.5845-1.5415c0-1.3579.8042-2.1421,2.4131-2.3516l1.9004-.2529c0-.7656-.4146-1.1484-1.2441-1.1484-.834,0-1.627.2485-2.3789.7451v-1.627c.3008-.1548.7119-.2915,1.2339-.4102s.9971-.1777,1.4253-.1777c1.9961,0,2.9941.9956,2.9941,2.9873v4.1836ZM418.1345,35.2495v-.4717l-1.2715.1641c-.7017.0913-1.0527.4077-1.0527.9502,0,.2461.0854.4478.2563.605s.4023.2358.6938.2358c.4058,0,.7358-.1401.9912-.4204s.3828-.6348.3828-1.063Z" fill="#2f2f2f"/>
        <path d="M422.9675,29.9858c-.3647,0-.6631-.1084-.8955-.3247s-.3486-.4819-.3486-.7964c0-.3237.1162-.5879.3486-.793s.5308-.3076.8955-.3076c.3691,0,.6689.1025.8989.3076s.3452.4692.3452.793c0,.3281-.1152.5972-.3452.8066s-.5298.3145-.8989.3145ZM424.0339,38.0933h-2.1602v-7h2.1602v7Z" fill="#2f2f2f"/>
        <path d="M428.0124,38.0933h-2.1602v-10.3633h2.1602v10.3633Z" fill="#2f2f2f"/>
        <path d="M435.655,38.0933h-2.0439v-1.0049h-.0273c-.4692.7837-1.1646,1.1758-2.085,1.1758-.6792,0-1.2134-.1924-1.603-.5776s-.5845-.8989-.5845-1.5415c0-1.3579.8042-2.1421,2.4131-2.3516l1.9004-.2529c0-.7656-.4146-1.1484-1.2441-1.1484-.834,0-1.627.2485-2.3789.7451v-1.627c.3008-.1548.7119-.2915,1.2339-.4102s.9971-.1777,1.4253-.1777c1.9961,0,2.9941.9956,2.9941,2.9873v4.1836ZM433.6247,35.2495v-.4717l-1.2715.1641c-.7017.0913-1.0527.4077-1.0527.9502,0,.2461.0854.4478.2563.605s.4023.2358.6938.2358c.4058,0,.7358-.1401.9912-.4204s.3828-.6348.3828-1.063Z" fill="#2f2f2f"/>
        <path d="M439.5515,37.2798h-.0273v.8135h-2.1602v-10.3633h2.1602v4.416h.0273c.5332-.8159,1.292-1.2236,2.2764-1.2236.9023,0,1.5972.3101,2.085.9297s.7314,1.4673.7314,2.543c0,1.1665-.2847,2.103-.8545,2.8096s-1.3306,1.0596-2.2832,1.0596c-.8613,0-1.5132-.3281-1.9551-.9844ZM439.4899,34.3267v.7178c0,.4512.1299.8247.3896,1.1211s.5923.4443.998.4443c.4922,0,.874-.1904,1.145-.5708s.4067-.9194.4067-1.6167c0-.5786-.124-1.0312-.3726-1.3569s-.6025-.4888-1.063-.4888c-.4331,0-.792.1616-1.0767.4854s-.4272.7451-.4272,1.2646Z" fill="#2f2f2f"/>
        <path d="M447.1394,29.9858c-.3647,0-.6631-.1084-.8955-.3247s-.3486-.4819-.3486-.7964c0-.3237.1162-.5879.3486-.793s.5308-.3076.8955-.3076c.3691,0,.6689.1025.8989.3076s.3452.4692.3452.793c0,.3281-.1152.5972-.3452.8066s-.5298.3145-.8989.3145ZM448.2058,38.0933h-2.1602v-7h2.1602v7Z" fill="#2f2f2f"/>
        <path d="M452.1843,38.0933h-2.1602v-10.3633h2.1602v10.3633Z" fill="#2f2f2f"/>
        <path d="M455.0964,29.9858c-.3647,0-.6631-.1084-.8955-.3247s-.3486-.4819-.3486-.7964c0-.3237.1162-.5879.3486-.793s.5308-.3076.8955-.3076c.3691,0,.6689.1025.8989.3076s.3452.4692.3452.793c0,.3281-.1152.5972-.3452.8066s-.5298.3145-.8989.3145ZM456.1628,38.0933h-2.1602v-7h2.1602v7Z" fill="#2f2f2f"/>
        <path d="M462.2126,38.0112c-.3188.1685-.7998.2529-1.4424.2529-1.522,0-2.2832-.7905-2.2832-2.3721v-3.2061h-1.1348v-1.5928h1.1348v-1.5107l2.1533-.6152v2.126h1.5723v1.5928h-1.5723v2.8301c0,.729.2896,1.0938.8682,1.0938.228,0,.4624-.0659.7041-.1982v1.5996Z" fill="#2f2f2f"/>
        <path d="M470.0944,31.0933l-2.8438,7.5605c-.6836,1.8184-1.7134,2.7275-3.0898,2.7275-.5239,0-.9546-.0591-1.292-.1777v-1.7227c.2871.1685.5991.2529.9365.2529.5562,0,.9434-.2622,1.1621-.7861l.3691-.8682-2.8438-6.9863h2.3926l1.3057,4.2588c.082.2642.146.5767.1914.9365h.0273c.041-.2642.1162-.5718.2256-.9229l1.3193-4.2725h2.1396Z" fill="#2f2f2f"/>
        <path d="M482.0915,38.0933h-7.8955v-1.2715l5.0244-6.7334h-4.6621v-1.7979h7.5195v1.2373l-4.915,6.7744h4.9287v1.791Z" fill="#2f2f2f"/>
        <path d="M486.6579,38.2642c-1.1665,0-2.084-.3271-2.7515-.981s-1.0015-1.5415-1.0015-2.6626c0-1.1577.3462-2.0635,1.0391-2.7173s1.6294-.981,2.8096-.981c1.1621,0,2.0737.3271,2.7344.981s.9912,1.5186.9912,2.5942c0,1.1621-.3408,2.0806-1.022,2.7549s-1.6143,1.0117-2.7993,1.0117ZM486.7126,32.5767c-.5103,0-.9067.1753-1.1895.5264s-.4238.8477-.4238,1.4902c0,1.3442.5425,2.0166,1.627,2.0166,1.0347,0,1.5518-.6904,1.5518-2.0713,0-1.3081-.522-1.9619-1.5654-1.9619Z" fill="#2f2f2f"/>
        <path d="M498.6413,38.0933h-2.1533v-3.8896c0-1.0845-.3872-1.627-1.1621-1.627-.3735,0-.6812.1436-.9229.4307s-.3623.6519-.3623,1.0938v3.9922h-2.1602v-7h2.1602v1.1074h.0273c.5151-.8521,1.2646-1.2783,2.249-1.2783,1.5493,0,2.3242.9614,2.3242,2.8848v4.2861Z" fill="#2f2f2f"/>
        <path d="M506.6394,35.2085h-4.5664c.0728,1.0161.7134,1.5244,1.9209,1.5244.77,0,1.4468-.1821,2.0303-.5469v1.5586c-.647.3462-1.4878.5195-2.5225.5195-1.1304,0-2.0073-.3135-2.6318-.9399s-.9365-1.5005-.9365-2.6216c0-1.1621.3374-2.0825,1.0117-2.7617s1.5039-1.0186,2.4883-1.0186c1.021,0,1.8105.3032,2.3687.9092s.8374,1.4287.8374,2.4678v.9092ZM504.6364,33.8823c0-1.0024-.4058-1.5039-1.2168-1.5039-.3462,0-.646.1436-.8989.4307s-.4067.645-.4614,1.0732h2.5771Z" fill="#2f2f2f"/>
        <path d="M513.8103,36.3022h4.1562v1.791h-6.5215v-.7383c0-.5015.0845-.9512.2529-1.3501s.3804-.7563.6357-1.0732.5342-.5972.8374-.8408.5913-.4639.8647-.6597c.2871-.2051.5391-.4009.7554-.5879s.3989-.3726.5469-.5571.2588-.3716.3315-.5605.1094-.3906.1094-.605c0-.4194-.1187-.7358-.3555-.9502s-.5991-.3213-1.0869-.3213c-.8433,0-1.6499.335-2.4199,1.0049v-1.9004c.8521-.5513,1.814-.8271,2.8848-.8271.4966,0,.9424.0649,1.3364.1948s.728.3154,1.0015.5571.4819.5342.6255.8784.2153.728.2153,1.1519c0,.4512-.0693.8521-.2085,1.2031s-.3237.6699-.5537.957-.4956.5503-.7964.7896-.6128.4707-.9365.6938c-.2188.1548-.4297.3086-.6323.4614s-.3818.3032-.5366.4512-.2778.293-.3691.4341-.1367.2759-.1367.4033Z" fill="#2f2f2f"/>
      </g>
      <g>
        <path d="M635.0598,38.0933h-2.4062l-.6973-2.1807h-3.4863l-.6904,2.1807h-2.3926l3.5684-9.8027h2.6182l3.4863,9.8027ZM631.4504,34.2173l-1.0527-3.2949c-.0771-.2461-.1318-.54-.1641-.8818h-.0547c-.0225.2871-.0791.5718-.1709.8545l-1.0664,3.3223h2.5088Z" fill="#2f2f2f"/>
        <path d="M642.4289,31.0933l-2.6045,7h-2.4609l-2.4814-7h2.3105l1.2168,4.3135c.1367.4878.2168.9023.2393,1.2441h.0273c.0322-.3237.1162-.7246.2529-1.2031l1.2441-4.3545h2.2559Z" fill="#2f2f2f"/>
        <path d="M648.9641,38.0933h-2.0439v-1.0049h-.0273c-.4688.7837-1.1641,1.1758-2.085,1.1758-.6787,0-1.2129-.1924-1.6025-.5776s-.585-.8989-.585-1.5415c0-1.3579.8047-2.1421,2.4131-2.3516l1.9004-.2529c0-.7656-.4141-1.1484-1.2441-1.1484-.834,0-1.627.2485-2.3789.7451v-1.627c.3008-.1548.7119-.2915,1.2344-.4102.5215-.1187.9971-.1777,1.4248-.1777,1.9961,0,2.9941.9956,2.9941,2.9873v4.1836ZM646.9338,35.2495v-.4717l-1.2715.1641c-.7012.0913-1.0527.4077-1.0527.9502,0,.2461.0859.4478.2568.605s.4023.2358.6934.2358c.4062,0,.7363-.1401.9912-.4204.2559-.2803.3828-.6348.3828-1.063Z" fill="#2f2f2f"/>
        <path d="M651.7668,29.9858c-.3643,0-.6631-.1084-.8955-.3247s-.3486-.4819-.3486-.7964c0-.3237.1162-.5879.3486-.793s.5312-.3076.8955-.3076c.3691,0,.6689.1025.8994.3076.2295.2051.3447.4692.3447.793,0,.3281-.1152.5972-.3447.8066-.2305.2095-.5303.3145-.8994.3145ZM652.8332,38.0933h-2.1602v-7h2.1602v7Z" fill="#2f2f2f"/>
        <path d="M656.8117,38.0933h-2.1602v-10.3633h2.1602v10.3633Z" fill="#2f2f2f"/>
        <path d="M664.4543,38.0933h-2.0439v-1.0049h-.0273c-.4688.7837-1.1641,1.1758-2.085,1.1758-.6787,0-1.2129-.1924-1.6025-.5776s-.585-.8989-.585-1.5415c0-1.3579.8047-2.1421,2.4131-2.3516l1.9004-.2529c0-.7656-.4141-1.1484-1.2441-1.1484-.834,0-1.627.2485-2.3789.7451v-1.627c.3008-.1548.7119-.2915,1.2344-.4102.5215-.1187.9971-.1777,1.4248-.1777,1.9961,0,2.9941.9956,2.9941,2.9873v4.1836ZM662.424,35.2495v-.4717l-1.2715.1641c-.7012.0913-1.0527.4077-1.0527.9502,0,.2461.0859.4478.2568.605s.4023.2358.6934.2358c.4062,0,.7363-.1401.9912-.4204.2559-.2803.3828-.6348.3828-1.063Z" fill="#2f2f2f"/>
        <path d="M668.3508,37.2798h-.0273v.8135h-2.1602v-10.3633h2.1602v4.416h.0273c.5332-.8159,1.292-1.2236,2.2764-1.2236.9023,0,1.5977.3101,2.085.9297.4883.6196.7314,1.4673.7314,2.543,0,1.1665-.2842,2.103-.8545,2.8096-.5693.7065-1.3301,1.0596-2.2832,1.0596-.8613,0-1.5127-.3281-1.9551-.9844ZM668.2893,34.3267v.7178c0,.4512.1299.8247.3896,1.1211s.5928.4443.998.4443c.4922,0,.874-.1904,1.1455-.5708.2705-.3804.4062-.9194.4062-1.6167,0-.5786-.124-1.0312-.3721-1.3569-.249-.3257-.6025-.4888-1.0635-.4888-.4326,0-.792.1616-1.0762.4854-.2852.3237-.4277.7451-.4277,1.2646Z" fill="#2f2f2f"/>
        <path d="M675.9387,29.9858c-.3643,0-.6631-.1084-.8955-.3247s-.3486-.4819-.3486-.7964c0-.3237.1162-.5879.3486-.793s.5312-.3076.8955-.3076c.3691,0,.6689.1025.8994.3076.2295.2051.3447.4692.3447.793,0,.3281-.1152.5972-.3447.8066-.2305.2095-.5303.3145-.8994.3145ZM677.0051,38.0933h-2.1602v-7h2.1602v7Z" fill="#2f2f2f"/>
        <path d="M680.9836,38.0933h-2.1602v-10.3633h2.1602v10.3633Z" fill="#2f2f2f"/>
        <path d="M683.8957,29.9858c-.3643,0-.6631-.1084-.8955-.3247s-.3486-.4819-.3486-.7964c0-.3237.1162-.5879.3486-.793s.5312-.3076.8955-.3076c.3691,0,.6689.1025.8994.3076.2295.2051.3447.4692.3447.793,0,.3281-.1152.5972-.3447.8066-.2305.2095-.5303.3145-.8994.3145ZM684.9621,38.0933h-2.1602v-7h2.1602v7Z" fill="#2f2f2f"/>
        <path d="M691.0119,38.0112c-.3184.1685-.7998.2529-1.4424.2529-1.5215,0-2.2832-.7905-2.2832-2.3721v-3.2061h-1.1348v-1.5928h1.1348v-1.5107l2.1533-.6152v2.126h1.5723v1.5928h-1.5723v2.8301c0,.729.29,1.0938.8682,1.0938.2285,0,.4629-.0659.7041-.1982v1.5996Z" fill="#2f2f2f"/>
        <path d="M698.8938,31.0933l-2.8438,7.5605c-.6836,1.8184-1.7129,2.7275-3.0898,2.7275-.5234,0-.9541-.0591-1.292-.1777v-1.7227c.2871.1685.5996.2529.9365.2529.5566,0,.9434-.2622,1.1621-.7861l.3691-.8682-2.8438-6.9863h2.3926l1.3057,4.2588c.082.2642.1465.5767.1914.9365h.0273c.041-.2642.1162-.5718.2256-.9229l1.3193-4.2725h2.1396Z" fill="#2f2f2f"/>
        <path d="M710.8908,38.0933h-7.8955v-1.2715l5.0244-6.7334h-4.6621v-1.7979h7.5195v1.2373l-4.915,6.7744h4.9287v1.791Z" fill="#2f2f2f"/>
        <path d="M715.4572,38.2642c-1.166,0-2.084-.3271-2.751-.981-.668-.6538-1.002-1.5415-1.002-2.6626,0-1.1577.3467-2.0635,1.0391-2.7173.6934-.6538,1.6299-.981,2.8096-.981,1.1621,0,2.0742.3271,2.7344.981.6611.6538.9912,1.5186.9912,2.5942,0,1.1621-.3408,2.0806-1.0215,2.7549-.6816.6743-1.6143,1.0117-2.7998,1.0117ZM715.5119,32.5767c-.5098,0-.9062.1753-1.1895.5264-.2822.3511-.4238.8477-.4238,1.4902,0,1.3442.543,2.0166,1.627,2.0166,1.0352,0,1.5518-.6904,1.5518-2.0713,0-1.3081-.5215-1.9619-1.5654-1.9619Z" fill="#2f2f2f"/>
        <path d="M727.4406,38.0933h-2.1533v-3.8896c0-1.0845-.3867-1.627-1.1621-1.627-.373,0-.6807.1436-.9229.4307-.2412.2871-.3623.6519-.3623,1.0938v3.9922h-2.1602v-7h2.1602v1.1074h.0273c.5156-.8521,1.2646-1.2783,2.249-1.2783,1.5498,0,2.3242.9614,2.3242,2.8848v4.2861Z" fill="#2f2f2f"/>
        <path d="M735.4387,35.2085h-4.5664c.0732,1.0161.7139,1.5244,1.9209,1.5244.7705,0,1.4473-.1821,2.0303-.5469v1.5586c-.6465.3462-1.4873.5195-2.5225.5195-1.1299,0-2.0068-.3135-2.6318-.9399-.624-.6265-.9365-1.5005-.9365-2.6216,0-1.1621.3379-2.0825,1.0117-2.7617.6748-.6792,1.5039-1.0186,2.4883-1.0186,1.0215,0,1.8105.3032,2.3691.9092.5576.606.8369,1.4287.8369,2.4678v.9092ZM733.4357,33.8823c0-1.0024-.4053-1.5039-1.2168-1.5039-.3457,0-.6455.1436-.8984.4307s-.4072.645-.4619,1.0732h2.5771Z" fill="#2f2f2f"/>
        <path d="M740.4768,37.772v-1.8799c.6562.4785,1.4219.7178,2.2969.7178.5518,0,.9814-.1187,1.2891-.3555s.4609-.5674.4609-.9912c0-.4375-.1904-.7749-.5703-1.0117-.3809-.2368-.9033-.3555-1.5693-.3555h-.9092v-1.6543h.8408c1.2764,0,1.9141-.4238,1.9141-1.2715,0-.7974-.4893-1.1963-1.4697-1.1963-.6562,0-1.2939.2119-1.9141.6357v-1.7637c.6885-.3462,1.4902-.5195,2.4062-.5195,1.0029,0,1.7832.2256,2.3418.6768.5576.4512.8369,1.0366.8369,1.7568,0,1.2808-.6494,2.0825-1.9482,2.4062v.0342c.6934.0864,1.2402.3384,1.6406.7554.4014.417.6016.9287.6016,1.5347,0,.916-.335,1.6406-1.0049,2.1738s-1.5947.7998-2.7754.7998c-1.0117,0-1.834-.1641-2.4678-.4922Z" fill="#2f2f2f"/>
      </g>
      <g>
        <path d="M206.3146,93.0933h-1.1484v-9.8027h1.1484v9.8027Z" fill="#2f2f2f"/>
        <path d="M214.3894,93.0933h-1.1211v-3.9922c0-1.4858-.5425-2.2285-1.627-2.2285-.5605,0-1.0244.2109-1.3911.6323s-.5503.9536-.5503,1.5962v3.9922h-1.1211v-7h1.1211v1.1621h.0273c.5288-.8843,1.2944-1.3262,2.2969-1.3262.7656,0,1.3511.2471,1.7568.7417s.6084,1.209.6084,2.1431v4.2793Z" fill="#2f2f2f"/>
        <path d="M216.0373,92.8403v-1.2031c.6108.4512,1.2827.6768,2.0166.6768.9844,0,1.4766-.3281,1.4766-.9844,0-.187-.042-.3452-.1265-.4751s-.1982-.2451-.3418-.3452-.312-.1904-.5059-.27-.4023-.1631-.6255-.2495c-.3101-.123-.582-.2471-.8169-.3726s-.4307-.2666-.5879-.4238-.2759-.3359-.3555-.5366-.1196-.4351-.1196-.7041c0-.3281.0752-.6187.2256-.8716s.3511-.4648.6016-.6357.5366-.2998.8579-.3862.6528-.1299.9946-.1299c.606,0,1.1484.105,1.627.3145v1.1348c-.5151-.3374-1.1074-.5059-1.7773-.5059-.2095,0-.3989.0239-.5674.0718s-.3135.1152-.4341.2017-.2144.1904-.2803.311-.0991.2539-.0991.3999c0,.1821.0332.335.0991.458s.1631.2324.2905.3281.2827.1821.4648.2598.3896.1616.6221.2529c.3101.1187.5879.2402.834.3657s.4556.2666.6289.4238.3066.3384.3999.5435.1401.4487.1401.7314c0,.3462-.0762.647-.229.9023s-.3564.4673-.6118.6357-.5493.2939-.8818.376-.6812.123-1.0459.123c-.7202,0-1.3442-.1392-1.873-.417Z" fill="#2f2f2f"/>
        <path d="M225.6906,93.0249c-.2642.146-.6128.2188-1.0459.2188-1.2261,0-1.8389-.6836-1.8389-2.0508v-4.1426h-1.2031v-.957h1.2031v-1.709l1.1211-.3623v2.0713h1.7637v.957h-1.7637v3.9443c0,.4692.0796.8042.2393,1.0049s.4238.3008.793.3008c.2827,0,.5264-.0776.7314-.2324v.957Z" fill="#2f2f2f"/>
        <path d="M232.3078,93.0933h-1.1211v-1.0938h-.0273c-.4878.8384-1.2056,1.2578-2.1533,1.2578-.6973,0-1.2432-.1846-1.6372-.5537s-.5913-.8589-.5913-1.4697c0-1.3081.77-2.0688,2.3105-2.2832l2.0986-.2939c0-1.1895-.481-1.7842-1.4424-1.7842-.8433,0-1.604.2871-2.2832.8613v-1.1484c.688-.4375,1.481-.6562,2.3789-.6562,1.645,0,2.4678.8706,2.4678,2.6113v4.5527ZM231.1867,89.5522l-1.6885.2324c-.5195.0728-.9116.2017-1.1758.3862s-.3965.5117-.3965.981c0,.3418.1221.6211.3657.8374s.5684.3247.9741.3247c.5562,0,1.0151-.1948,1.3774-.5845s.5435-.8828.5435-1.48v-.6973Z" fill="#2f2f2f"/>
        <path d="M240.1398,93.0933h-1.1211v-3.9922c0-1.4858-.5425-2.2285-1.627-2.2285-.5605,0-1.0244.2109-1.3911.6323s-.5503.9536-.5503,1.5962v3.9922h-1.1211v-7h1.1211v1.1621h.0273c.5288-.8843,1.2944-1.3262,2.2969-1.3262.7656,0,1.3511.2471,1.7568.7417s.6084,1.209.6084,2.1431v4.2793Z" fill="#2f2f2f"/>
        <path d="M246.9885,92.772c-.5376.3237-1.1758.4854-1.9141.4854-.998,0-1.8037-.3247-2.4165-.9741s-.9194-1.4912-.9194-2.5259c0-1.1528.3306-2.0791.9912-2.7788s1.5425-1.0493,2.6455-1.0493c.6152,0,1.1577.1138,1.627.3418v1.1484c-.5195-.3647-1.0757-.5469-1.668-.5469-.7153,0-1.3022.2563-1.7603.769s-.687,1.186-.687,2.02c0,.8203.2153,1.4673.646,1.9414s1.0083.7109,1.7329.7109c.6108,0,1.1851-.2026,1.7227-.6084v1.0664Z" fill="#2f2f2f"/>
        <path d="M254.1584,89.8735h-4.9424c.0181.7793.228,1.3809.6289,1.8047s.9526.6357,1.6543.6357c.7886,0,1.5132-.2598,2.1738-.7793v1.0527c-.6152.4468-1.4287.6699-2.4404.6699-.9888,0-1.7661-.3179-2.3311-.9536s-.8477-1.5303-.8477-2.6831c0-1.0894.3086-1.9766.9263-2.6626s1.3843-1.0288,2.3003-1.0288,1.6245.2964,2.126.8887.752,1.415.752,2.4678v.5879ZM253.01,88.9233c-.0044-.647-.1606-1.1509-.4683-1.5107s-.7349-.54-1.2817-.54c-.5288,0-.9775.189-1.3467.5674s-.5972.8726-.6836,1.4834h3.7803Z" fill="#2f2f2f"/>
      </g>
      <g>
        <path d="M434.7399,93.0933h-1.1484v-9.8027h1.1484v9.8027Z" fill="#2f2f2f"/>
        <path d="M442.8146,93.0933h-1.1211v-3.9922c0-1.4858-.5425-2.2285-1.627-2.2285-.5605,0-1.0244.2109-1.3911.6323s-.5503.9536-.5503,1.5962v3.9922h-1.1211v-7h1.1211v1.1621h.0273c.5288-.8843,1.2944-1.3262,2.2969-1.3262.7656,0,1.3511.2471,1.7568.7417s.6084,1.209.6084,2.1431v4.2793Z" fill="#2f2f2f"/>
        <path d="M444.4626,92.8403v-1.2031c.6108.4512,1.2827.6768,2.0166.6768.9844,0,1.4766-.3281,1.4766-.9844,0-.187-.042-.3452-.1265-.4751s-.1982-.2451-.3418-.3452-.312-.1904-.5059-.27-.4023-.1631-.6255-.2495c-.3101-.123-.582-.2471-.8169-.3726s-.4307-.2666-.5879-.4238-.2759-.3359-.3555-.5366-.1196-.4351-.1196-.7041c0-.3281.0752-.6187.2256-.8716s.3511-.4648.6016-.6357.5366-.2998.8579-.3862.6528-.1299.9946-.1299c.606,0,1.1484.105,1.627.3145v1.1348c-.5151-.3374-1.1074-.5059-1.7773-.5059-.2095,0-.3989.0239-.5674.0718s-.3135.1152-.4341.2017-.2144.1904-.2803.311-.0991.2539-.0991.3999c0,.1821.0332.335.0991.458s.1631.2324.2905.3281.2827.1821.4648.2598.3896.1616.6221.2529c.3101.1187.5879.2402.834.3657s.4556.2666.6289.4238.3066.3384.3999.5435.1401.4487.1401.7314c0,.3462-.0762.647-.229.9023s-.3564.4673-.6118.6357-.5493.2939-.8818.376-.6812.123-1.0459.123c-.7202,0-1.3442-.1392-1.873-.417Z" fill="#2f2f2f"/>
        <path d="M454.1159,93.0249c-.2642.146-.6128.2188-1.0459.2188-1.2261,0-1.8389-.6836-1.8389-2.0508v-4.1426h-1.2031v-.957h1.2031v-1.709l1.1211-.3623v2.0713h1.7637v.957h-1.7637v3.9443c0,.4692.0796.8042.2393,1.0049s.4238.3008.793.3008c.2827,0,.5264-.0776.7314-.2324v.957Z" fill="#2f2f2f"/>
        <path d="M460.7331,93.0933h-1.1211v-1.0938h-.0273c-.4878.8384-1.2056,1.2578-2.1533,1.2578-.6973,0-1.2432-.1846-1.6372-.5537s-.5913-.8589-.5913-1.4697c0-1.3081.77-2.0688,2.3105-2.2832l2.0986-.2939c0-1.1895-.481-1.7842-1.4424-1.7842-.8433,0-1.604.2871-2.2832.8613v-1.1484c.688-.4375,1.481-.6562,2.3789-.6562,1.645,0,2.4678.8706,2.4678,2.6113v4.5527ZM459.612,89.5522l-1.6885.2324c-.5195.0728-.9116.2017-1.1758.3862s-.3965.5117-.3965.981c0,.3418.1221.6211.3657.8374s.5684.3247.9741.3247c.5562,0,1.0151-.1948,1.3774-.5845s.5435-.8828.5435-1.48v-.6973Z" fill="#2f2f2f"/>
        <path d="M468.5651,93.0933h-1.1211v-3.9922c0-1.4858-.5425-2.2285-1.627-2.2285-.5605,0-1.0244.2109-1.3911.6323s-.5503.9536-.5503,1.5962v3.9922h-1.1211v-7h1.1211v1.1621h.0273c.5288-.8843,1.2944-1.3262,2.2969-1.3262.7656,0,1.3511.2471,1.7568.7417s.6084,1.209.6084,2.1431v4.2793Z" fill="#2f2f2f"/>
        <path d="M475.4138,92.772c-.5376.3237-1.1758.4854-1.9141.4854-.998,0-1.8037-.3247-2.4165-.9741s-.9194-1.4912-.9194-2.5259c0-1.1528.3306-2.0791.9912-2.7788s1.5425-1.0493,2.6455-1.0493c.6152,0,1.1577.1138,1.627.3418v1.1484c-.5195-.3647-1.0757-.5469-1.668-.5469-.7153,0-1.3022.2563-1.7603.769s-.687,1.186-.687,2.02c0,.8203.2153,1.4673.646,1.9414s1.0083.7109,1.7329.7109c.6108,0,1.1851-.2026,1.7227-.6084v1.0664Z" fill="#2f2f2f"/>
        <path d="M482.5837,89.8735h-4.9424c.0181.7793.228,1.3809.6289,1.8047s.9526.6357,1.6543.6357c.7886,0,1.5132-.2598,2.1738-.7793v1.0527c-.6152.4468-1.4287.6699-2.4404.6699-.9888,0-1.7661-.3179-2.3311-.9536s-.8477-1.5303-.8477-2.6831c0-1.0894.3086-1.9766.9263-2.6626s1.3843-1.0288,2.3003-1.0288,1.6245.2964,2.126.8887.752,1.415.752,2.4678v.5879ZM481.4353,88.9233c-.0044-.647-.1606-1.1509-.4683-1.5107s-.7349-.54-1.2817-.54c-.5288,0-.9775.189-1.3467.5674s-.5972.8726-.6836,1.4834h3.7803Z" fill="#2f2f2f"/>
      </g>
      <g>
        <path d="M663.5402,93.0933h-1.1484v-9.8027h1.1484v9.8027Z" fill="#2f2f2f"/>
        <path d="M671.6145,93.0933h-1.1211v-3.9922c0-1.4858-.542-2.2285-1.627-2.2285-.5605,0-1.0244.2109-1.3906.6323-.3672.4214-.5508.9536-.5508,1.5962v3.9922h-1.1211v-7h1.1211v1.1621h.0273c.5293-.8843,1.2949-1.3262,2.2969-1.3262.7656,0,1.3516.2471,1.7568.7417.4062.4946.6084,1.209.6084,2.1431v4.2793Z" fill="#2f2f2f"/>
        <path d="M673.2629,92.8403v-1.2031c.6104.4512,1.2822.6768,2.0166.6768.9844,0,1.4766-.3281,1.4766-.9844,0-.187-.042-.3452-.127-.4751-.084-.1299-.1982-.2451-.3418-.3452s-.3115-.1904-.5059-.27c-.1934-.0796-.4023-.1631-.625-.2495-.3105-.123-.582-.2471-.8174-.3726-.2344-.1255-.4307-.2666-.5879-.4238s-.2754-.3359-.3555-.5366c-.0791-.2007-.1191-.4351-.1191-.7041,0-.3281.0752-.6187.2256-.8716s.3506-.4648.6016-.6357c.25-.1709.5361-.2998.8574-.3862s.6533-.1299.9951-.1299c.6055,0,1.1484.105,1.627.3145v1.1348c-.5156-.3374-1.1074-.5059-1.7773-.5059-.21,0-.3994.0239-.5674.0718-.1689.0479-.3135.1152-.4346.2017-.1201.0864-.2139.1904-.2803.311-.0654.1206-.0986.2539-.0986.3999,0,.1821.0332.335.0986.458.0664.123.1631.2324.291.3281.127.0957.2822.1821.4648.2598.1816.0776.3896.1616.6221.2529.3096.1187.5879.2402.834.3657s.4551.2666.6289.4238c.1729.1572.3066.3384.3994.5435.0938.2051.1406.4487.1406.7314,0,.3462-.0762.647-.2295.9023-.1523.2554-.3564.4673-.6113.6357-.2559.1685-.5498.2939-.8818.376-.333.082-.6816.123-1.0459.123-.7207,0-1.3447-.1392-1.873-.417Z" fill="#2f2f2f"/>
        <path d="M682.9162,93.0249c-.2646.146-.6133.2188-1.0459.2188-1.2266,0-1.8389-.6836-1.8389-2.0508v-4.1426h-1.2031v-.957h1.2031v-1.709l1.1211-.3623v2.0713h1.7637v.957h-1.7637v3.9443c0,.4692.0791.8042.2393,1.0049.1592.2007.4238.3008.793.3008.2822,0,.5264-.0776.7314-.2324v.957Z" fill="#2f2f2f"/>
        <path d="M689.5334,93.0933h-1.1211v-1.0938h-.0273c-.4883.8384-1.2061,1.2578-2.1533,1.2578-.6973,0-1.2432-.1846-1.6377-.5537-.3936-.3691-.5908-.8589-.5908-1.4697,0-1.3081.7695-2.0688,2.3105-2.2832l2.0986-.2939c0-1.1895-.4814-1.7842-1.4424-1.7842-.8438,0-1.6045.2871-2.2832.8613v-1.1484c.6875-.4375,1.4805-.6562,2.3789-.6562,1.6445,0,2.4678.8706,2.4678,2.6113v4.5527ZM688.4123,89.5522l-1.6885.2324c-.5195.0728-.9121.2017-1.1758.3862-.2646.1846-.3965.5117-.3965.981,0,.3418.1221.6211.3652.8374.2441.2163.5684.3247.9746.3247.5557,0,1.0146-.1948,1.377-.5845s.5439-.8828.5439-1.48v-.6973Z" fill="#2f2f2f"/>
        <path d="M697.3654,93.0933h-1.1211v-3.9922c0-1.4858-.543-2.2285-1.627-2.2285-.5605,0-1.0244.2109-1.3916.6323-.3662.4214-.5498.9536-.5498,1.5962v3.9922h-1.1211v-7h1.1211v1.1621h.0273c.5283-.8843,1.2939-1.3262,2.2969-1.3262.7656,0,1.3506.2471,1.7568.7417.4053.4946.6084,1.209.6084,2.1431v4.2793Z" fill="#2f2f2f"/>
        <path d="M704.2141,92.772c-.5381.3237-1.1758.4854-1.9141.4854-.998,0-1.8037-.3247-2.417-.9741-.6123-.6494-.9189-1.4912-.9189-2.5259,0-1.1528.3301-2.0791.9912-2.7788.6602-.6997,1.542-1.0493,2.6455-1.0493.6152,0,1.1572.1138,1.627.3418v1.1484c-.5195-.3647-1.0762-.5469-1.668-.5469-.7158,0-1.3027.2563-1.7607.769s-.6865,1.186-.6865,2.02c0,.8203.2148,1.4673.6455,1.9414s1.0088.7109,1.7334.7109c.6104,0,1.1846-.2026,1.7227-.6084v1.0664Z" fill="#2f2f2f"/>
        <path d="M711.384,89.8735h-4.9424c.0176.7793.2275,1.3809.6289,1.8047.4004.4238.9521.6357,1.6543.6357.7881,0,1.5127-.2598,2.1738-.7793v1.0527c-.6152.4468-1.4287.6699-2.4404.6699-.9893,0-1.7666-.3179-2.3311-.9536-.5654-.6357-.8477-1.5303-.8477-2.6831,0-1.0894.3086-1.9766.9258-2.6626.6182-.686,1.3848-1.0288,2.3008-1.0288s1.624.2964,2.126.8887c.501.5923.752,1.415.752,2.4678v.5879ZM710.2355,88.9233c-.0049-.647-.1611-1.1509-.4688-1.5107s-.7344-.54-1.2812-.54c-.5293,0-.9775.189-1.3467.5674s-.5977.8726-.6836,1.4834h3.7803Z" fill="#2f2f2f"/>
      </g>
      <g>
        <path d="M40.1086,134.313v-2.1875c.3965.3325.8271.582,1.292.7485s.9341.2495,1.4082.2495c.2778,0,.5205-.0249.728-.0752s.3804-.1196.5195-.2085.2427-.1938.311-.3145.1025-.252.1025-.3931c0-.1914-.0547-.3623-.1641-.5127s-.2588-.2896-.4478-.417-.4136-.2505-.6733-.3691-.54-.2393-.8408-.3623c-.7656-.3188-1.3364-.7085-1.7124-1.1689s-.564-1.0161-.564-1.668c0-.5103.1025-.9492.3076-1.3159s.4844-.6689.8374-.9058.7622-.4111,1.2271-.5229.957-.1675,1.4766-.1675c.5103,0,.9629.0308,1.3569.0923s.7578.1562,1.0903.2837v2.0439c-.1641-.1138-.3428-.2144-.5366-.3008s-.3931-.1582-.5981-.2153-.4092-.0991-.6118-.1265-.3955-.041-.5776-.041c-.2505,0-.4785.0239-.6836.0718s-.3784.1152-.5195.2017-.2505.1904-.3281.311-.1162.2563-.1162.4067c0,.1641.0435.311.1299.4409s.2095.2529.3691.3691.353.23.5811.3418.4854.2266.7725.3452c.3921.1641.7441.3384,1.0562.5229s.5801.3931.8032.6255.394.498.5127.7964.1777.646.1777,1.0425c0,.5469-.1035,1.0059-.311,1.3774s-.4888.6724-.8442.9023-.769.3955-1.2407.4956-.9697.1504-1.4937.1504c-.5376,0-1.0493-.0454-1.5347-.1367s-.9058-.228-1.2612-.4102Z" fill="#2f2f2f"/>
        <path d="M53.5002,134.436c-.4878.2827-1.1919.4238-2.1123.4238-1.0757,0-1.9458-.3257-2.6113-.9775s-.998-1.4927-.998-2.5225c0-1.1895.3564-2.127,1.0698-2.813s1.667-1.0288,2.8608-1.0288c.8247,0,1.4219.1094,1.791.3281v1.832c-.4512-.3374-.9546-.5059-1.5107-.5059-.6196,0-1.1108.1812-1.4731.5435s-.5435.8623-.5435,1.5005c0,.6196.1733,1.1064.5195,1.4595s.8228.5298,1.4287.5298c.5376,0,1.064-.1685,1.5791-.5059v1.7363Z" fill="#2f2f2f"/>
        <path d="M60.8361,134.689h-2.0439v-1.0049h-.0273c-.4692.7837-1.1646,1.1758-2.085,1.1758-.6792,0-1.2134-.1924-1.603-.5776s-.5845-.8989-.5845-1.5415c0-1.3579.8042-2.1421,2.4131-2.3516l1.9004-.2529c0-.7656-.4146-1.1484-1.2441-1.1484-.834,0-1.627.2485-2.3789.7451v-1.627c.3008-.1548.7119-.2915,1.2339-.4102s.9971-.1777,1.4253-.1777c1.9961,0,2.9941.9956,2.9941,2.9873v4.1836ZM58.8059,131.8452v-.4717l-1.2715.1641c-.7017.0913-1.0527.4077-1.0527.9502,0,.2461.0854.4478.2563.605s.4023.2358.6938.2358c.4058,0,.7358-.1401.9912-.4204s.3828-.6348.3828-1.063Z" fill="#2f2f2f"/>
        <path d="M64.694,134.689h-2.1602v-10.3633h2.1602v10.3633Z" fill="#2f2f2f"/>
        <path d="M72.8098,131.8042h-4.5664c.0728,1.0161.7134,1.5244,1.9209,1.5244.77,0,1.4468-.1821,2.0303-.5469v1.5586c-.647.3462-1.4878.5195-2.5225.5195-1.1304,0-2.0073-.3135-2.6318-.9399s-.9365-1.5005-.9365-2.6216c0-1.1621.3374-2.0825,1.0117-2.7617s1.5039-1.0186,2.4883-1.0186c1.021,0,1.8105.3032,2.3687.9092s.8374,1.4287.8374,2.4678v.9092ZM70.8068,130.478c0-1.0024-.4058-1.5039-1.2168-1.5039-.3462,0-.646.1436-.8989.4307s-.4067.645-.4614,1.0732h2.5771Z" fill="#2f2f2f"/>
        <path d="M77.4992,134.5044v-1.75c.3555.2144.71.3735,1.063.4785s.687.1572,1.0015.1572c.3828,0,.6846-.0522.9058-.1572s.3315-.2642.3315-.4785c0-.1367-.0503-.2505-.1504-.3418s-.229-.1709-.3862-.2393-.3291-.1299-.5161-.1846-.3667-.1162-.54-.1846c-.2778-.105-.5229-.2178-.7349-.3384s-.3896-.2607-.5332-.4204-.2529-.3442-.3281-.5537-.1128-.458-.1128-.7451c0-.3921.0854-.729.2563-1.0117s.3989-.5137.6836-.6938.6108-.312.9775-.3965.7485-.1265,1.145-.1265c.3101,0,.6245.0239.9434.0718s.6333.1172.9434.2085v1.668c-.2734-.1597-.5664-.2793-.8784-.3589s-.6187-.1196-.9194-.1196c-.1411,0-.2744.0127-.3999.0376s-.2358.0615-.3315.1094-.1709.1094-.2256.1846-.082.1606-.082.2563c0,.1274.041.2368.123.3281s.189.1699.3213.2358.2793.1255.4409.1777.3223.106.4819.1606c.2871.1001.5469.2095.7793.3281s.4316.2573.5981.417.2939.3462.3828.5605.1333.4692.1333.7656c0,.4146-.0898.769-.27,1.063s-.4194.5332-.7178.7178-.6426.3188-1.0322.4033-.7939.1265-1.2134.1265c-.77,0-1.4834-.1187-2.1396-.3555Z" fill="#2f2f2f"/>
        <path d="M90.4489,131.8042h-4.5664c.0728,1.0161.7134,1.5244,1.9209,1.5244.77,0,1.4468-.1821,2.0303-.5469v1.5586c-.647.3462-1.4878.5195-2.5225.5195-1.1304,0-2.0073-.3135-2.6318-.9399s-.9365-1.5005-.9365-2.6216c0-1.1621.3374-2.0825,1.0117-2.7617s1.5039-1.0186,2.4883-1.0186c1.021,0,1.8105.3032,2.3687.9092s.8374,1.4287.8374,2.4678v.9092ZM88.446,130.478c0-1.0024-.4058-1.5039-1.2168-1.5039-.3462,0-.646.1436-.8989.4307s-.4067.645-.4614,1.0732h2.5771Z" fill="#2f2f2f"/>
        <path d="M96.0144,134.6069c-.3188.1685-.7998.2529-1.4424.2529-1.522,0-2.2832-.7905-2.2832-2.3721v-3.2061h-1.1348v-1.5928h1.1348v-1.5107l2.1533-.6152v2.126h1.5723v1.5928h-1.5723v2.8301c0,.729.2896,1.0938.8682,1.0938.228,0,.4624-.0659.7041-.1982v1.5996Z" fill="#2f2f2f"/>
      </g>
    </g>
  </g>
</svg>