<?xml version="1.0" encoding="UTF-8"?>
<svg xmlns="http://www.w3.org/2000/svg" width="810.65971" height="210.34522" xmlns:xlink="http://www.w3.org/1999/xlink" viewBox="0 0 810.65971 210.34522">
  <defs>
    <linearGradient id="Cool_gray_gradient_1" data-name="Cool gray gradient 1" x1="148.8" y1="106.325" x2="360" y2="106.325" gradientUnits="userSpaceOnUse">
      <stop offset="0" stop-color="#f5f5f4"/>
      <stop offset="1" stop-color="#ececea"/>
    </linearGradient>
    <linearGradient id="Cool_gray_gradient_1-2" data-name="Cool gray gradient 1" x1="369.35005" x2="580.55005" xlink:href="#Cool_gray_gradient_1"/>
    <linearGradient id="Cool_gray_gradient_1-3" data-name="Cool gray gradient 1" x1="591.075" y1="104.85" x2="802.275" y2="104.85" xlink:href="#Cool_gray_gradient_1"/>
    <linearGradient id="linear-gradient" x1="-485.81808" y1="1894.1375" x2="-485.81808" y2="1922.1375" gradientTransform="translate(564 1994.4) scale(1 -1)" gradientUnits="userSpaceOnUse">
      <stop offset="0" stop-color="#0078d4"/>
      <stop offset=".064" stop-color="#0a7cd7"/>
      <stop offset=".338" stop-color="#2e8ce1"/>
      <stop offset=".594" stop-color="#4897e9"/>
      <stop offset=".822" stop-color="#589eed"/>
      <stop offset="1" stop-color="#5ea0ef"/>
    </linearGradient>
    <linearGradient id="linear-gradient-2" x1="-548.28471" y1="2351.77908" x2="-548.28471" y2="2376.16897" gradientTransform="translate(712.23501 2519.51585) scale(1.156 -1.029)" gradientUnits="userSpaceOnUse">
      <stop offset="0" stop-color="#fea11b"/>
      <stop offset=".284" stop-color="#fea51a"/>
      <stop offset=".547" stop-color="#feb018"/>
      <stop offset=".8" stop-color="#ffc314"/>
      <stop offset="1" stop-color="#ffd70f"/>
    </linearGradient>
  </defs>
  <g isolation="isolate">
    <g id="Shapes">
      <rect width="810.65971" height="210.34522" fill="#fff"/>
      <g>
        <g mix-blend-mode="multiply" opacity=".7">
          <rect x="149.3" y="11.25" width="211.2" height="191.15" rx="8" ry="8"/>
          <rect x="149.3" y="11.25" width="211.2" height="191.15" rx="8" ry="8" opacity=".2"/>
        </g>
        <g>
          <rect x="148.8" y="10.75" width="211.2" height="191.15" rx="8" ry="8" fill="url(#Cool_gray_gradient_1)"/>
          <rect x="148.8" y="10.75" width="211.2" height="191.15" rx="8" ry="8" fill="#0078d4" opacity=".2"/>
        </g>
      </g>
      <g>
        <g mix-blend-mode="multiply" opacity=".7">
          <rect x="369.85005" y="11.25" width="211.2" height="191.15" rx="8" ry="8"/>
          <rect x="369.85005" y="11.25" width="211.2" height="191.15" rx="8" ry="8" opacity=".2"/>
        </g>
        <g>
          <rect x="369.35005" y="10.75" width="211.2" height="191.15" rx="8" ry="8" fill="url(#Cool_gray_gradient_1-2)"/>
          <rect x="369.35005" y="10.75" width="211.2" height="191.15" rx="8" ry="8" fill="#0078d4" opacity=".2"/>
        </g>
      </g>
      <g>
        <g mix-blend-mode="multiply" opacity=".7">
          <rect x="591.575" y="9.775" width="211.2" height="191.15" rx="8" ry="8"/>
          <rect x="591.575" y="9.775" width="211.2" height="191.15" rx="8" ry="8" opacity=".2"/>
        </g>
        <g>
          <rect x="591.075" y="9.275" width="211.2" height="191.15" rx="8" ry="8" fill="url(#Cool_gray_gradient_1-3)"/>
          <rect x="591.075" y="9.275" width="211.2" height="191.15" rx="8" ry="8" fill="#0078d4" opacity=".2"/>
        </g>
      </g>
      <g>
        <rect x="9.775" y="51.725" width="793" height="127" fill="#fff"/>
        <rect x="9.775" y="51.725" width="793" height="127" fill="#0078d4" opacity=".05"/>
        <rect x="9.775" y="51.725" width="793" height="127" fill="none" stroke="#0078d4" stroke-width=".25"/>
      </g>
      <g>
        <rect x="150.775" y="68.725" width="652" height="40" fill="#fff"/>
        <rect x="150.775" y="68.725" width="652" height="40" fill="#ffa38b" opacity=".2"/>
        <rect x="150.775" y="68.725" width="652" height="40" fill="none" stroke="#ffa38b" stroke-width=".35"/>
      </g>
      <g>
        <rect x="150.775" y="121.725" width="652" height="40" fill="#fff"/>
        <rect x="150.775" y="121.725" width="652" height="40" fill="#ffa38b" opacity=".2"/>
        <rect x="150.775" y="121.725" width="652" height="40" fill="none" stroke="#ffa38b" stroke-width=".35"/>
      </g>
      <g>
        <path d="M92.18192,87.83553v-3.14607l-.47191-.1573-3.46067-1.10112-.94382-2.20225,1.88764-3.77528-2.35955-2.20225-.47191.1573-3.14607,1.57303-2.20225-.94382-1.25843-3.77528h-3.14607l-.31461.47191-1.10112,3.46067-2.20225.78652-3.61798-1.73034-2.20225,2.35955.1573.47191,1.57303,3.14607-.78652,2.20225-3.93258,1.25843v3.14607l.47191.1573,3.46067,1.10112.94382,2.20225-1.88764,3.77528,2.35955,2.20225.47191-.1573,3.14607-1.57303,2.20225.94382,1.25843,3.77528h3.14607l.1573-.47191,1.10112-3.46067,2.20225-.94382,3.61798,1.73034,2.20225-2.20225-.1573-.47191-1.57303-3.14607.94382-2.20225,3.93258-1.25843ZM78.18192,92.39733c-3.3374.05077-6.08406-2.61356-6.13483-5.95096-.00093-.06129-.00093-.12258,0-.18387-.05077-3.3374,2.61356-6.08406,5.95096-6.13483.06129-.00093.12258-.00093.18387,0,3.3374-.05077,6.08406,2.61356,6.13483,5.95096.00093.06129.00093.12258,0,.18387h0c.05077,3.3374-2.61356,6.08406-5.95096,6.13483-.06129.00093-.12258.00093-.18387,0Z" fill="url(#linear-gradient)"/>
        <path d="M77.3954,88.62205h-5.66292c-.1688-.01142-.30319-.14581-.31461-.31461v-.1573l6.76404-13.37079c0-.1573.1573-.1573.31461-.1573h6.60674c.1688.01142.30319.14581.31461.31461v.1573l-8.02247,10.53933h7.70786c.1688.01142.30319.14581.31461.31461,0,.08688-.07043.1573-.1573.1573h0l-12.89887,13.37079c-.1573,0-.94382.78652-.62921-.31461h0l5.66292-10.53932Z" fill="url(#linear-gradient-2)"/>
      </g>
    </g>
    <g id="Text">
      <g>
        <path d="M202.93604,37.1502h-2.40625l-.69727-2.18066h-3.48633l-.69043,2.18066h-2.39258l3.56836-9.80273h2.61816l3.48633,9.80273ZM199.32666,33.27422l-1.05273-3.29492c-.07764-.24609-.13232-.54004-.16406-.88184h-.05469c-.02295.28711-.07959.57178-.1709.85449l-1.06641,3.32227h2.50879Z"/>
        <path d="M210.30518,30.1502l-2.60449,7h-2.46094l-2.48145-7h2.31055l1.2168,4.31348c.13672.48779.21631.90234.23926,1.24414h.02734c.03174-.32373.11621-.72461.25293-1.20312l1.24414-4.35449h2.25586Z"/>
        <path d="M216.84033,37.1502h-2.04395v-1.00488h-.02734c-.46924.78369-1.16455,1.17578-2.08496,1.17578-.6792,0-1.21338-.19238-1.60303-.57764s-.58447-.89893-.58447-1.5415c0-1.35791.8042-2.14209,2.41309-2.35156l1.90039-.25293c0-.76562-.41455-1.14844-1.24414-1.14844-.83398,0-1.62695.24854-2.37891.74512v-1.62695c.30078-.15479.71191-.2915,1.23389-.41016s.99707-.17773,1.42529-.17773c1.99609,0,2.99414.99561,2.99414,2.9873v4.18359ZM214.81006,34.30645v-.47168l-1.27148.16406c-.70166.09131-1.05273.40771-1.05273.9502,0,.24609.08545.44775.25635.60498s.40234.23584.69385.23584c.40576,0,.73584-.14014.99121-.42041s.38281-.63477.38281-1.06299Z"/>
        <path d="M219.64307,29.04277c-.36475,0-.66309-.1084-.89551-.32471s-.34863-.48193-.34863-.79639c0-.32373.11621-.58789.34863-.79297s.53076-.30762.89551-.30762c.36914,0,.66895.10254.89893.30762s.34521.46924.34521.79297c0,.32812-.11523.59717-.34521.80664s-.52979.31445-.89893.31445ZM220.70947,37.1502h-2.16016v-7h2.16016v7Z"/>
        <path d="M224.68799,37.1502h-2.16016v-10.36328h2.16016v10.36328Z"/>
        <path d="M232.33057,37.1502h-2.04395v-1.00488h-.02734c-.46924.78369-1.16455,1.17578-2.08496,1.17578-.6792,0-1.21338-.19238-1.60303-.57764s-.58447-.89893-.58447-1.5415c0-1.35791.8042-2.14209,2.41309-2.35156l1.90039-.25293c0-.76562-.41455-1.14844-1.24414-1.14844-.83398,0-1.62695.24854-2.37891.74512v-1.62695c.30078-.15479.71191-.2915,1.23389-.41016s.99707-.17773,1.42529-.17773c1.99609,0,2.99414.99561,2.99414,2.9873v4.18359ZM230.30029,34.30645v-.47168l-1.27148.16406c-.70166.09131-1.05273.40771-1.05273.9502,0,.24609.08545.44775.25635.60498s.40234.23584.69385.23584c.40576,0,.73584-.14014.99121-.42041s.38281-.63477.38281-1.06299Z"/>
        <path d="M236.22705,36.33672h-.02734v.81348h-2.16016v-10.36328h2.16016v4.41602h.02734c.5332-.81592,1.29199-1.22363,2.27637-1.22363.90234,0,1.59717.31006,2.08496.92969s.73145,1.46729.73145,2.54297c0,1.1665-.28467,2.10303-.85449,2.80957s-1.33057,1.05957-2.2832,1.05957c-.86133,0-1.51318-.32812-1.95508-.98438ZM236.16553,33.38359v.71777c0,.45117.12988.82471.38965,1.12109s.59229.44434.99805.44434c.49219,0,.87402-.19043,1.14502-.5708s.40674-.91943.40674-1.6167c0-.57861-.12402-1.03125-.37256-1.35693s-.60254-.48877-1.06299-.48877c-.43311,0-.79199.16162-1.07666.48535s-.42725.74512-.42725,1.26465Z"/>
        <path d="M243.81494,29.04277c-.36475,0-.66309-.1084-.89551-.32471s-.34863-.48193-.34863-.79639c0-.32373.11621-.58789.34863-.79297s.53076-.30762.89551-.30762c.36914,0,.66895.10254.89893.30762s.34521.46924.34521.79297c0,.32812-.11523.59717-.34521.80664s-.52979.31445-.89893.31445ZM244.88135,37.1502h-2.16016v-7h2.16016v7Z"/>
        <path d="M248.85986,37.1502h-2.16016v-10.36328h2.16016v10.36328Z"/>
        <path d="M251.77197,29.04277c-.36475,0-.66309-.1084-.89551-.32471s-.34863-.48193-.34863-.79639c0-.32373.11621-.58789.34863-.79297s.53076-.30762.89551-.30762c.36914,0,.66895.10254.89893.30762s.34521.46924.34521.79297c0,.32812-.11523.59717-.34521.80664s-.52979.31445-.89893.31445ZM252.83838,37.1502h-2.16016v-7h2.16016v7Z"/>
        <path d="M258.88818,37.06816c-.31885.16846-.7998.25293-1.44238.25293-1.52197,0-2.2832-.79053-2.2832-2.37207v-3.20605h-1.13477v-1.59277h1.13477v-1.51074l2.15332-.61523v2.12598h1.57227v1.59277h-1.57227v2.83008c0,.729.28955,1.09375.86816,1.09375.22803,0,.4624-.06592.7041-.19824v1.59961Z"/>
        <path d="M266.76953,30.1502l-2.84375,7.56055c-.68359,1.81836-1.71289,2.72754-3.08936,2.72754-.52393,0-.95459-.05908-1.29199-.17773v-1.72266c.28711.16846.59912.25293.93652.25293.55615,0,.94336-.26221,1.16211-.78613l.36914-.86816-2.84375-6.98633h2.39258l1.30518,4.25879c.08203.26416.14648.57666.19141.93652h.02734c.04102-.26416.11621-.57178.22559-.92285l1.31934-4.27246h2.13965Z"/>
        <path d="M278.7666,37.1502h-7.89551v-1.27148l5.02441-6.7334h-4.66211v-1.79785h7.51953v1.2373l-4.91504,6.77441h4.92871v1.79102Z"/>
        <path d="M283.33301,37.32109c-1.16602,0-2.08398-.32715-2.75098-.98096-.66797-.65381-1.00195-1.5415-1.00195-2.6626,0-1.15771.34668-2.06348,1.03906-2.71729.69336-.65381,1.62988-.98096,2.80957-.98096,1.16211,0,2.07422.32715,2.73438.98096.66113.65381.99121,1.51855.99121,2.59424,0,1.16211-.34082,2.08057-1.02148,2.75488-.68164.67432-1.61426,1.01172-2.7998,1.01172ZM283.3877,31.63359c-.50977,0-.90625.17529-1.18945.52637-.28223.35107-.42383.84766-.42383,1.49023,0,1.34424.54297,2.0166,1.62695,2.0166,1.03516,0,1.55176-.69043,1.55176-2.07129,0-1.30811-.52148-1.96191-1.56543-1.96191Z"/>
        <path d="M295.31641,37.1502h-2.15332v-3.88965c0-1.08447-.38672-1.62695-1.16211-1.62695-.37305,0-.68066.14355-.92285.43066-.24121.28711-.3623.65186-.3623,1.09375v3.99219h-2.16016v-7h2.16016v1.10742h.02734c.51562-.85205,1.26465-1.27832,2.24902-1.27832,1.5498,0,2.32422.96143,2.32422,2.88477v4.28613Z"/>
        <path d="M303.31445,34.26543h-4.56641c.07324,1.01611.71387,1.52441,1.9209,1.52441.77051,0,1.44727-.18213,2.03027-.54688v1.55859c-.64648.34619-1.4873.51953-2.52246.51953-1.12988,0-2.00684-.31348-2.63184-.93994-.62402-.62646-.93652-1.50049-.93652-2.62158,0-1.16211.33789-2.08252,1.01172-2.76172.6748-.6792,1.50391-1.01855,2.48828-1.01855,1.02148,0,1.81055.30322,2.36914.90918.55762.60596.83691,1.42871.83691,2.46777v.90918ZM301.31152,32.93926c0-1.00244-.40527-1.50391-1.2168-1.50391-.3457,0-.64551.14355-.89844.43066s-.40723.64502-.46191,1.07324h2.57715Z"/>
        <path d="M313.24023,27.12871v10.02148h-2.15332v-7.58789c-.11816.10498-.25879.2041-.41992.29736-.16211.09326-.33398.17773-.5166.25293-.18164.0752-.37109.13916-.56738.19141-.19531.05225-.38965.08984-.58105.11279v-1.81836c.56055-.16406,1.08984-.37354,1.58594-.62891.49707-.25537.94629-.53564,1.34668-.84082h1.30566Z"/>
      </g>
      <g>
        <path d="M423.73633,37.1502h-2.40625l-.69727-2.18066h-3.48633l-.69043,2.18066h-2.39258l3.56836-9.80273h2.61816l3.48633,9.80273ZM420.12695,33.27422l-1.05273-3.29492c-.07812-.24609-.13281-.54004-.16406-.88184h-.05469c-.02344.28711-.08008.57178-.1709.85449l-1.06641,3.32227h2.50879Z"/>
        <path d="M431.10547,30.1502l-2.60449,7h-2.46094l-2.48145-7h2.31055l1.2168,4.31348c.13672.48779.21582.90234.23926,1.24414h.02734c.03125-.32373.11621-.72461.25293-1.20312l1.24414-4.35449h2.25586Z"/>
        <path d="M437.64062,37.1502h-2.04395v-1.00488h-.02734c-.46973.78369-1.16504,1.17578-2.08496,1.17578-.67969,0-1.21387-.19238-1.60352-.57764s-.58398-.89893-.58398-1.5415c0-1.35791.80371-2.14209,2.41309-2.35156l1.90039-.25293c0-.76562-.41504-1.14844-1.24414-1.14844-.83398,0-1.62695.24854-2.37891.74512v-1.62695c.30078-.15479.71191-.2915,1.2334-.41016.52246-.11865.99707-.17773,1.42578-.17773,1.99609,0,2.99414.99561,2.99414,2.9873v4.18359ZM435.61035,34.30645v-.47168l-1.27148.16406c-.70215.09131-1.05273.40771-1.05273.9502,0,.24609.08496.44775.25586.60498s.40234.23584.69434.23584c.40527,0,.73535-.14014.99121-.42041.25488-.28027.38281-.63477.38281-1.06299Z"/>
        <path d="M440.44336,29.04277c-.36523,0-.66309-.1084-.89551-.32471s-.34863-.48193-.34863-.79639c0-.32373.11621-.58789.34863-.79297s.53027-.30762.89551-.30762c.36914,0,.66895.10254.89844.30762.23047.20508.3457.46924.3457.79297,0,.32812-.11523.59717-.3457.80664-.22949.20947-.5293.31445-.89844.31445ZM441.50977,37.1502h-2.16016v-7h2.16016v7Z"/>
        <path d="M445.48828,37.1502h-2.16016v-10.36328h2.16016v10.36328Z"/>
        <path d="M453.13086,37.1502h-2.04395v-1.00488h-.02734c-.46973.78369-1.16504,1.17578-2.08496,1.17578-.67969,0-1.21387-.19238-1.60352-.57764s-.58398-.89893-.58398-1.5415c0-1.35791.80371-2.14209,2.41309-2.35156l1.90039-.25293c0-.76562-.41504-1.14844-1.24414-1.14844-.83398,0-1.62695.24854-2.37891.74512v-1.62695c.30078-.15479.71191-.2915,1.2334-.41016.52246-.11865.99707-.17773,1.42578-.17773,1.99609,0,2.99414.99561,2.99414,2.9873v4.18359ZM451.10059,34.30645v-.47168l-1.27148.16406c-.70215.09131-1.05273.40771-1.05273.9502,0,.24609.08496.44775.25586.60498s.40234.23584.69434.23584c.40527,0,.73535-.14014.99121-.42041.25488-.28027.38281-.63477.38281-1.06299Z"/>
        <path d="M457.02734,36.33672h-.02734v.81348h-2.16016v-10.36328h2.16016v4.41602h.02734c.5332-.81592,1.29199-1.22363,2.27637-1.22363.90234,0,1.59668.31006,2.08496.92969.4873.61963.73145,1.46729.73145,2.54297,0,1.1665-.28516,2.10303-.85449,2.80957-.57031.70654-1.33105,1.05957-2.2832,1.05957-.86133,0-1.51367-.32812-1.95508-.98438ZM456.96582,33.38359v.71777c0,.45117.12988.82471.38965,1.12109s.5918.44434.99805.44434c.49219,0,.87402-.19043,1.14453-.5708.27148-.38037.40723-.91943.40723-1.6167,0-.57861-.12402-1.03125-.37305-1.35693-.24805-.32568-.60254-.48877-1.0625-.48877-.43359,0-.79199.16162-1.07715.48535-.28418.32373-.42676.74512-.42676,1.26465Z"/>
        <path d="M464.61523,29.04277c-.36523,0-.66309-.1084-.89551-.32471s-.34863-.48193-.34863-.79639c0-.32373.11621-.58789.34863-.79297s.53027-.30762.89551-.30762c.36914,0,.66895.10254.89844.30762.23047.20508.3457.46924.3457.79297,0,.32812-.11523.59717-.3457.80664-.22949.20947-.5293.31445-.89844.31445ZM465.68164,37.1502h-2.16016v-7h2.16016v7Z"/>
        <path d="M469.66016,37.1502h-2.16016v-10.36328h2.16016v10.36328Z"/>
        <path d="M472.57227,29.04277c-.36523,0-.66309-.1084-.89551-.32471s-.34863-.48193-.34863-.79639c0-.32373.11621-.58789.34863-.79297s.53027-.30762.89551-.30762c.36914,0,.66895.10254.89844.30762.23047.20508.3457.46924.3457.79297,0,.32812-.11523.59717-.3457.80664-.22949.20947-.5293.31445-.89844.31445ZM473.63867,37.1502h-2.16016v-7h2.16016v7Z"/>
        <path d="M479.68848,37.06816c-.31934.16846-.7998.25293-1.44238.25293-1.52246,0-2.2832-.79053-2.2832-2.37207v-3.20605h-1.13477v-1.59277h1.13477v-1.51074l2.15332-.61523v2.12598h1.57227v1.59277h-1.57227v2.83008c0,.729.28906,1.09375.86816,1.09375.22754,0,.46191-.06592.7041-.19824v1.59961Z"/>
        <path d="M487.57031,30.1502l-2.84375,7.56055c-.68359,1.81836-1.71387,2.72754-3.08984,2.72754-.52441,0-.95508-.05908-1.29199-.17773v-1.72266c.28711.16846.59863.25293.93652.25293.55566,0,.94336-.26221,1.16211-.78613l.36914-.86816-2.84375-6.98633h2.39258l1.30566,4.25879c.08203.26416.14551.57666.19141.93652h.02734c.04102-.26416.11621-.57178.22559-.92285l1.31934-4.27246h2.13965Z"/>
        <path d="M499.56738,37.1502h-7.89551v-1.27148l5.02441-6.7334h-4.66211v-1.79785h7.51953v1.2373l-4.91504,6.77441h4.92871v1.79102Z"/>
        <path d="M504.13379,37.32109c-1.16699,0-2.08398-.32715-2.75195-.98096-.66699-.65381-1.00098-1.5415-1.00098-2.6626,0-1.15771.3457-2.06348,1.03906-2.71729.69238-.65381,1.62891-.98096,2.80957-.98096,1.16211,0,2.07324.32715,2.73438.98096.66016.65381.99121,1.51855.99121,2.59424,0,1.16211-.34082,2.08057-1.02246,2.75488-.68066.67432-1.61426,1.01172-2.79883,1.01172ZM504.18848,31.63359c-.51074,0-.90723.17529-1.18945.52637-.2832.35107-.42383.84766-.42383,1.49023,0,1.34424.54199,2.0166,1.62695,2.0166,1.03418,0,1.55176-.69043,1.55176-2.07129,0-1.30811-.52246-1.96191-1.56543-1.96191Z"/>
        <path d="M516.11719,37.1502h-2.15332v-3.88965c0-1.08447-.3877-1.62695-1.16211-1.62695-.37402,0-.68164.14355-.92285.43066-.24219.28711-.3623.65186-.3623,1.09375v3.99219h-2.16016v-7h2.16016v1.10742h.02734c.51465-.85205,1.26465-1.27832,2.24902-1.27832,1.54883,0,2.32422.96143,2.32422,2.88477v4.28613Z"/>
        <path d="M524.11523,34.26543h-4.56641c.07227,1.01611.71289,1.52441,1.9209,1.52441.76953,0,1.44629-.18213,2.03027-.54688v1.55859c-.64746.34619-1.48828.51953-2.52246.51953-1.13086,0-2.00781-.31348-2.63184-.93994-.625-.62646-.93652-1.50049-.93652-2.62158,0-1.16211.33691-2.08252,1.01172-2.76172.67383-.6792,1.50391-1.01855,2.48828-1.01855,1.02051,0,1.81055.30322,2.36816.90918.55859.60596.83789,1.42871.83789,2.46777v.90918ZM522.1123,32.93926c0-1.00244-.40625-1.50391-1.2168-1.50391-.34668,0-.64648.14355-.89941.43066s-.40625.64502-.46094,1.07324h2.57715Z"/>
        <path d="M531.28613,35.35918h4.15625v1.79102h-6.52148v-.73828c0-.50146.08398-.95117.25293-1.3501.16797-.39893.37988-.75635.63574-1.07324.25488-.31689.53418-.59717.83691-.84082.30371-.24365.5918-.46387.86523-.65967.28711-.20508.53906-.40088.75488-.58789.2168-.18701.39941-.37256.54688-.55713.14844-.18457.25879-.37158.33203-.56055.07227-.18896.10938-.39062.10938-.60498,0-.41943-.11914-.73584-.35547-.9502-.2373-.21436-.59961-.32129-1.08691-.32129-.84375,0-1.65039.33496-2.41992,1.00488v-1.90039c.85156-.55127,1.81348-.82715,2.88477-.82715.49609,0,.94238.06494,1.33594.19482.39453.12988.72852.31543,1.00195.55713s.48145.53418.625.87842.21582.72803.21582,1.15186c0,.45117-.06934.85205-.20898,1.20312-.13867.35107-.32324.66992-.55371.95703-.22949.28711-.49512.55029-.7959.78955s-.61328.4707-.93652.69385c-.21875.15479-.42969.30859-.63281.46143-.20215.15283-.38184.30322-.53613.45117-.15527.14795-.27832.29297-.36914.43408-.0918.14111-.13672.27588-.13672.40332Z"/>
      </g>
      <g>
        <path d="M642.93555,37.1502h-2.40625l-.69727-2.18066h-3.48633l-.68945,2.18066h-2.39258l3.56836-9.80273h2.61719l3.48633,9.80273ZM639.32617,33.27422l-1.05273-3.29492c-.07715-.24609-.13184-.54004-.16406-.88184h-.05469c-.02246.28711-.0791.57178-.16992.85449l-1.06641,3.32227h2.50781Z"/>
        <path d="M650.30469,30.1502l-2.60352,7h-2.46094l-2.48242-7h2.31055l1.2168,4.31348c.13672.48779.2168.90234.24023,1.24414h.02734c.03125-.32373.11523-.72461.25195-1.20312l1.24414-4.35449h2.25586Z"/>
        <path d="M656.83984,37.1502h-2.04297v-1.00488h-.02734c-.46973.78369-1.16504,1.17578-2.08594,1.17578-.67871,0-1.21289-.19238-1.60254-.57764s-.58496-.89893-.58496-1.5415c0-1.35791.80469-2.14209,2.41406-2.35156l1.90039-.25293c0-.76562-.41504-1.14844-1.24414-1.14844-.83398,0-1.62695.24854-2.37891.74512v-1.62695c.30078-.15479.71094-.2915,1.2334-.41016s.99707-.17773,1.4248-.17773c1.99609,0,2.99414.99561,2.99414,2.9873v4.18359ZM654.81055,34.30645v-.47168l-1.27148.16406c-.70215.09131-1.05273.40771-1.05273.9502,0,.24609.08496.44775.25586.60498s.40234.23584.69336.23584c.40625,0,.73633-.14014.99219-.42041.25488-.28027.38281-.63477.38281-1.06299Z"/>
        <path d="M659.64258,29.04277c-.36426,0-.66211-.1084-.89453-.32471s-.34961-.48193-.34961-.79639c0-.32373.11719-.58789.34961-.79297s.53027-.30762.89453-.30762c.36914,0,.66992.10254.89941.30762s.34473.46924.34473.79297c0,.32812-.11523.59717-.34473.80664s-.53027.31445-.89941.31445ZM660.70898,37.1502h-2.16016v-7h2.16016v7Z"/>
        <path d="M664.6875,37.1502h-2.16016v-10.36328h2.16016v10.36328Z"/>
        <path d="M672.33008,37.1502h-2.04297v-1.00488h-.02734c-.46973.78369-1.16504,1.17578-2.08594,1.17578-.67871,0-1.21289-.19238-1.60254-.57764s-.58496-.89893-.58496-1.5415c0-1.35791.80469-2.14209,2.41406-2.35156l1.90039-.25293c0-.76562-.41504-1.14844-1.24414-1.14844-.83398,0-1.62695.24854-2.37891.74512v-1.62695c.30078-.15479.71094-.2915,1.2334-.41016s.99707-.17773,1.4248-.17773c1.99609,0,2.99414.99561,2.99414,2.9873v4.18359ZM670.30078,34.30645v-.47168l-1.27148.16406c-.70215.09131-1.05273.40771-1.05273.9502,0,.24609.08496.44775.25586.60498s.40234.23584.69336.23584c.40625,0,.73633-.14014.99219-.42041.25488-.28027.38281-.63477.38281-1.06299Z"/>
        <path d="M676.22656,36.33672h-.02734v.81348h-2.16016v-10.36328h2.16016v4.41602h.02734c.5332-.81592,1.29297-1.22363,2.27734-1.22363.90234,0,1.59668.31006,2.08398.92969.48828.61963.73242,1.46729.73242,2.54297,0,1.1665-.28516,2.10303-.85547,2.80957-.56934.70654-1.33008,1.05957-2.2832,1.05957-.86133,0-1.5127-.32812-1.95508-.98438ZM676.16602,33.38359v.71777c0,.45117.12891.82471.38867,1.12109s.59277.44434.99805.44434c.49219,0,.875-.19043,1.14551-.5708s.40723-.91943.40723-1.6167c0-.57861-.125-1.03125-.37305-1.35693s-.60254-.48877-1.0625-.48877c-.43359,0-.79297.16162-1.07715.48535s-.42676.74512-.42676,1.26465Z"/>
        <path d="M683.81445,29.04277c-.36426,0-.66211-.1084-.89453-.32471s-.34961-.48193-.34961-.79639c0-.32373.11719-.58789.34961-.79297s.53027-.30762.89453-.30762c.36914,0,.66992.10254.89941.30762s.34473.46924.34473.79297c0,.32812-.11523.59717-.34473.80664s-.53027.31445-.89941.31445ZM684.88086,37.1502h-2.16016v-7h2.16016v7Z"/>
        <path d="M688.85938,37.1502h-2.16016v-10.36328h2.16016v10.36328Z"/>
        <path d="M691.77148,29.04277c-.36426,0-.66211-.1084-.89453-.32471s-.34961-.48193-.34961-.79639c0-.32373.11719-.58789.34961-.79297s.53027-.30762.89453-.30762c.36914,0,.66992.10254.89941.30762s.34473.46924.34473.79297c0,.32812-.11523.59717-.34473.80664s-.53027.31445-.89941.31445ZM692.83789,37.1502h-2.16016v-7h2.16016v7Z"/>
        <path d="M698.88867,37.06816c-.31934.16846-.80078.25293-1.44336.25293-1.52148,0-2.2832-.79053-2.2832-2.37207v-3.20605h-1.13477v-1.59277h1.13477v-1.51074l2.1543-.61523v2.12598h1.57227v1.59277h-1.57227v2.83008c0,.729.28906,1.09375.86719,1.09375.22852,0,.46289-.06592.70508-.19824v1.59961Z"/>
        <path d="M706.76953,30.1502l-2.84375,7.56055c-.68359,1.81836-1.71289,2.72754-3.08984,2.72754-.52344,0-.9541-.05908-1.29102-.17773v-1.72266c.28711.16846.59863.25293.93555.25293.55664,0,.94336-.26221,1.16211-.78613l.36914-.86816-2.84375-6.98633h2.39258l1.30664,4.25879c.08203.26416.14551.57666.19141.93652h.02734c.04102-.26416.11523-.57178.22461-.92285l1.32031-4.27246h2.13867Z"/>
        <path d="M718.76758,37.1502h-7.89648v-1.27148l5.02539-6.7334h-4.66211v-1.79785h7.51953v1.2373l-4.91602,6.77441h4.92969v1.79102Z"/>
        <path d="M723.33398,37.32109c-1.16699,0-2.08398-.32715-2.75195-.98096s-1.00195-1.5415-1.00195-2.6626c0-1.15771.34668-2.06348,1.03906-2.71729.69336-.65381,1.62988-.98096,2.81055-.98096,1.16211,0,2.07324.32715,2.73438.98096.66016.65381.99023,1.51855.99023,2.59424,0,1.16211-.33984,2.08057-1.02148,2.75488s-1.61426,1.01172-2.79883,1.01172ZM723.38867,31.63359c-.51074,0-.90723.17529-1.18945.52637-.2832.35107-.42383.84766-.42383,1.49023,0,1.34424.54199,2.0166,1.62695,2.0166,1.03418,0,1.55078-.69043,1.55078-2.07129,0-1.30811-.52148-1.96191-1.56445-1.96191Z"/>
        <path d="M735.31641,37.1502h-2.15234v-3.88965c0-1.08447-.3877-1.62695-1.16211-1.62695-.37402,0-.68164.14355-.92383.43066-.24121.28711-.36133.65186-.36133,1.09375v3.99219h-2.16016v-7h2.16016v1.10742h.02734c.51465-.85205,1.26367-1.27832,2.24805-1.27832,1.5498,0,2.32422.96143,2.32422,2.88477v4.28613Z"/>
        <path d="M743.31445,34.26543h-4.56641c.07324,1.01611.71387,1.52441,1.92188,1.52441.76953,0,1.44629-.18213,2.0293-.54688v1.55859c-.64648.34619-1.4873.51953-2.52148.51953-1.13086,0-2.00781-.31348-2.63281-.93994-.62402-.62646-.93555-1.50049-.93555-2.62158,0-1.16211.33691-2.08252,1.01172-2.76172.67383-.6792,1.50391-1.01855,2.48828-1.01855,1.02051,0,1.81055.30322,2.36816.90918s.83691,1.42871.83691,2.46777v.90918ZM741.3125,32.93926c0-1.00244-.40625-1.50391-1.2168-1.50391-.34668,0-.64648.14355-.89941.43066s-.40723.64502-.46191,1.07324h2.57812Z"/>
        <path d="M748.35352,36.82891v-1.87988c.65625.47852,1.42188.71777,2.29688.71777.55078,0,.98047-.11865,1.28809-.35547s.46191-.56738.46191-.99121c0-.4375-.19141-.7749-.57129-1.01172s-.90332-.35547-1.56934-.35547h-.9082v-1.6543h.83984c1.27637,0,1.91406-.42383,1.91406-1.27148,0-.79736-.48926-1.19629-1.46875-1.19629-.65625,0-1.29492.21191-1.91406.63574v-1.76367c.6875-.34619,1.49023-.51953,2.40625-.51953,1.00195,0,1.7832.22559,2.34082.67676s.83691,1.03662.83691,1.75684c0,1.28076-.64844,2.08252-1.94727,2.40625v.03418c.69238.08643,1.23926.33838,1.64062.75537.40039.41699.60156.92871.60156,1.53467,0,.91602-.33594,1.64062-1.00586,2.17383s-1.59473.7998-2.77539.7998c-1.01172,0-1.83398-.16406-2.4668-.49219Z"/>
      </g>
      <g>
        <rect x="20.41808" y="106.70148" width="115.52769" height="51.48602" fill="none"/>
        <path d="M68.61719,118.60283h-2.40625l-.69727-2.18066h-3.48633l-.69043,2.18066h-2.39258l3.56836-9.80273h2.61816l3.48633,9.80273ZM65.00781,114.72686l-1.05273-3.29492c-.07764-.24609-.13232-.54004-.16406-.88184h-.05469c-.02295.28711-.07959.57178-.1709.85449l-1.06641,3.32227h2.50879Z" fill="#2f2f2f"/>
        <path d="M75.52295,118.60283h-6.28223v-.89551l3.51367-4.51172h-3.16504v-1.59277h5.90625v1.06641l-3.3291,4.34082h3.35645v1.59277Z" fill="#2f2f2f"/>
        <path d="M83.40479,118.60283h-2.15332v-1.06641h-.03418c-.5332.82471-1.24658,1.2373-2.13965,1.2373-1.62256,0-2.43359-.98193-2.43359-2.94629v-4.22461h2.15332v4.0332c0,.98877.39209,1.4834,1.17578,1.4834.38721,0,.69727-.13574.92969-.40674s.34863-.63916.34863-1.104v-4.00586h2.15332v7Z" fill="#2f2f2f"/>
        <path d="M89.73926,113.55107c-.25977-.14111-.56299-.21191-.90918-.21191-.46924,0-.83643.17188-1.10059.51611s-.39648.8125-.39648,1.40479v3.34277h-2.16016v-7h2.16016v1.29883h.02734c.3418-.94775.95703-1.42188,1.8457-1.42188.22803,0,.40576.02734.5332.08203v1.98926Z" fill="#2f2f2f"/>
        <path d="M97.11182,115.71807h-4.56641c.07275,1.01611.71338,1.52441,1.9209,1.52441.77002,0,1.44678-.18213,2.03027-.54688v1.55859c-.64697.34619-1.48779.51953-2.52246.51953-1.13037,0-2.00732-.31348-2.63184-.93994s-.93652-1.50049-.93652-2.62158c0-1.16211.3374-2.08252,1.01172-2.76172s1.50391-1.01855,2.48828-1.01855c1.021,0,1.81055.30322,2.36865.90918s.8374,1.42871.8374,2.46777v.90918ZM95.10889,114.39189c0-1.00244-.40576-1.50391-1.2168-1.50391-.34619,0-.646.14355-.89893.43066s-.40674.64502-.46143,1.07324h2.57715Z" fill="#2f2f2f"/>
        <path d="M48.5127,135.40264h-2.40625l-.69727-2.18066h-3.48633l-.69043,2.18066h-2.39258l3.56836-9.80273h2.61816l3.48633,9.80273ZM44.90332,131.52666l-1.05273-3.29492c-.07764-.24609-.13232-.54004-.16406-.88184h-.05469c-.02295.28711-.07959.57178-.1709.85449l-1.06641,3.32227h2.50879Z" fill="#2f2f2f"/>
        <path d="M56.05957,135.40264h-2.15332v-1.06641h-.03418c-.5332.82471-1.24658,1.2373-2.13965,1.2373-1.62256,0-2.43359-.98193-2.43359-2.94629v-4.22461h2.15332v4.0332c0,.98877.39209,1.4834,1.17578,1.4834.38721,0,.69727-.13574.92969-.40674s.34863-.63916.34863-1.104v-4.00586h2.15332v7Z" fill="#2f2f2f"/>
        <path d="M62.02979,135.32061c-.31885.16846-.7998.25293-1.44238.25293-1.52197,0-2.2832-.79053-2.2832-2.37207v-3.20605h-1.13477v-1.59277h1.13477v-1.51074l2.15332-.61523v2.12598h1.57227v1.59277h-1.57227v2.83008c0,.729.28955,1.09375.86816,1.09375.22803,0,.4624-.06592.7041-.19824v1.59961Z" fill="#2f2f2f"/>
        <path d="M66.5625,135.57354c-1.1665,0-2.08398-.32715-2.75146-.98096s-1.00146-1.5415-1.00146-2.6626c0-1.15771.34619-2.06348,1.03906-2.71729s1.62939-.98096,2.80957-.98096c1.16211,0,2.07373.32715,2.73438.98096s.99121,1.51855.99121,2.59424c0,1.16211-.34082,2.08057-1.02197,2.75488s-1.61426,1.01172-2.79932,1.01172ZM66.61719,129.88604c-.51025,0-.90674.17529-1.18945.52637s-.42383.84766-.42383,1.49023c0,1.34424.54248,2.0166,1.62695,2.0166,1.03467,0,1.55176-.69043,1.55176-2.07129,0-1.30811-.52197-1.96191-1.56543-1.96191Z" fill="#2f2f2f"/>
        <path d="M82.88086,135.40264h-2.15332v-3.99219c0-1.01611-.37354-1.52441-1.12109-1.52441-.35547,0-.64502.15283-.86816.45801s-.33496.68604-.33496,1.1416v3.91699h-2.16016v-4.0332c0-.98877-.3667-1.4834-1.10059-1.4834-.36914,0-.66406.146-.88525.4375s-.33154.68799-.33154,1.18945v3.88965h-2.16016v-7h2.16016v1.09375h.02734c.22314-.37354.53662-.67773.93994-.9126s.84424-.35205,1.32275-.35205c.98877,0,1.66553.43506,2.03027,1.30566.5332-.87061,1.31689-1.30566,2.35156-1.30566,1.52197,0,2.2832.93896,2.2832,2.81641v4.35449Z" fill="#2f2f2f"/>
        <path d="M90.44629,135.40264h-2.04395v-1.00488h-.02734c-.46924.78369-1.16455,1.17578-2.08496,1.17578-.6792,0-1.21338-.19238-1.60303-.57764s-.58447-.89893-.58447-1.5415c0-1.35791.8042-2.14209,2.41309-2.35156l1.90039-.25293c0-.76562-.41455-1.14844-1.24414-1.14844-.83398,0-1.62695.24854-2.37891.74512v-1.62695c.30078-.15479.71191-.2915,1.23389-.41016s.99707-.17773,1.42529-.17773c1.99609,0,2.99414.99561,2.99414,2.9873v4.18359ZM88.41602,132.55889v-.47168l-1.27148.16406c-.70166.09131-1.05273.40771-1.05273.9502,0,.24609.08545.44775.25635.60498s.40234.23584.69385.23584c.40576,0,.73584-.14014.99121-.42041s.38281-.63477.38281-1.06299Z" fill="#2f2f2f"/>
        <path d="M96.2749,135.32061c-.31885.16846-.7998.25293-1.44238.25293-1.52197,0-2.2832-.79053-2.2832-2.37207v-3.20605h-1.13477v-1.59277h1.13477v-1.51074l2.15332-.61523v2.12598h1.57227v1.59277h-1.57227v2.83008c0,.729.28955,1.09375.86816,1.09375.22803,0,.4624-.06592.7041-.19824v1.59961Z" fill="#2f2f2f"/>
        <path d="M98.65283,127.29521c-.36475,0-.66309-.1084-.89551-.32471s-.34863-.48193-.34863-.79639c0-.32373.11621-.58789.34863-.79297s.53076-.30762.89551-.30762c.36914,0,.66895.10254.89893.30762s.34521.46924.34521.79297c0,.32812-.11523.59717-.34521.80664s-.52979.31445-.89893.31445ZM99.71924,135.40264h-2.16016v-7h2.16016v7Z" fill="#2f2f2f"/>
        <path d="M104.83008,135.57354c-1.1665,0-2.08398-.32715-2.75146-.98096s-1.00146-1.5415-1.00146-2.6626c0-1.15771.34619-2.06348,1.03906-2.71729s1.62939-.98096,2.80957-.98096c1.16211,0,2.07373.32715,2.73438.98096s.99121,1.51855.99121,2.59424c0,1.16211-.34082,2.08057-1.02197,2.75488s-1.61426,1.01172-2.79932,1.01172ZM104.88477,129.88604c-.51025,0-.90674.17529-1.18945.52637s-.42383.84766-.42383,1.49023c0,1.34424.54248,2.0166,1.62695,2.0166,1.03467,0,1.55176-.69043,1.55176-2.07129,0-1.30811-.52197-1.96191-1.56543-1.96191Z" fill="#2f2f2f"/>
        <path d="M116.79248,135.40264h-2.15332v-3.88965c0-1.08447-.38721-1.62695-1.16211-1.62695-.37354,0-.68115.14355-.92285.43066s-.3623.65186-.3623,1.09375v3.99219h-2.16016v-7h2.16016v1.10742h.02734c.51514-.85205,1.26465-1.27832,2.24902-1.27832,1.54932,0,2.32422.96143,2.32422,2.88477v4.28613Z" fill="#2f2f2f"/>
        <path d="M59.05811,152.20293h-2.04395v-1.00488h-.02734c-.46924.78369-1.16455,1.17578-2.08496,1.17578-.6792,0-1.21338-.19238-1.60303-.57764s-.58447-.89893-.58447-1.5415c0-1.35791.8042-2.14209,2.41309-2.35156l1.90039-.25293c0-.76562-.41455-1.14844-1.24414-1.14844-.83398,0-1.62695.24854-2.37891.74512v-1.62695c.30078-.15479.71191-.2915,1.23389-.41016s.99707-.17773,1.42529-.17773c1.99609,0,2.99414.99561,2.99414,2.9873v4.18359ZM57.02783,149.35918v-.47168l-1.27148.16406c-.70166.09131-1.05273.40771-1.05273.9502,0,.24609.08545.44775.25635.60498s.40234.23584.69385.23584c.40576,0,.73584-.14014.99121-.42041s.38281-.63477.38281-1.06299Z" fill="#2f2f2f"/>
        <path d="M66.07178,151.95c-.48779.28271-1.19189.42383-2.1123.42383-1.07568,0-1.9458-.32568-2.61133-.97754s-.99805-1.49268-.99805-2.52246c0-1.18945.35645-2.12695,1.06982-2.81299s1.66699-1.02881,2.86084-1.02881c.82471,0,1.42188.10938,1.79102.32812v1.83203c-.45117-.3374-.95459-.50586-1.51074-.50586-.61963,0-1.11084.18115-1.47314.54346s-.54346.8623-.54346,1.50049c0,.61963.17334,1.10645.51953,1.45947s.82275.52979,1.42871.52979c.5376,0,1.06396-.16846,1.5791-.50586v1.73633Z" fill="#2f2f2f"/>
        <path d="M72.77051,151.95c-.48779.28271-1.19189.42383-2.1123.42383-1.07568,0-1.9458-.32568-2.61133-.97754s-.99805-1.49268-.99805-2.52246c0-1.18945.35645-2.12695,1.06982-2.81299s1.66699-1.02881,2.86084-1.02881c.82471,0,1.42188.10938,1.79102.32812v1.83203c-.45117-.3374-.95459-.50586-1.51074-.50586-.61963,0-1.11084.18115-1.47314.54346s-.54346.8623-.54346,1.50049c0,.61963.17334,1.10645.51953,1.45947s.82275.52979,1.42871.52979c.5376,0,1.06396-.16846,1.5791-.50586v1.73633Z" fill="#2f2f2f"/>
        <path d="M77.50049,152.37383c-1.1665,0-2.08398-.32715-2.75146-.98096s-1.00146-1.5415-1.00146-2.6626c0-1.15771.34619-2.06348,1.03906-2.71729s1.62939-.98096,2.80957-.98096c1.16211,0,2.07373.32715,2.73438.98096s.99121,1.51855.99121,2.59424c0,1.16211-.34082,2.08057-1.02197,2.75488s-1.61426,1.01172-2.79932,1.01172ZM77.55518,146.68633c-.51025,0-.90674.17529-1.18945.52637s-.42383.84766-.42383,1.49023c0,1.34424.54248,2.0166,1.62695,2.0166,1.03467,0,1.55176-.69043,1.55176-2.07129,0-1.30811-.52197-1.96191-1.56543-1.96191Z" fill="#2f2f2f"/>
        <path d="M89.35352,152.20293h-2.15332v-1.06641h-.03418c-.5332.82471-1.24658,1.2373-2.13965,1.2373-1.62256,0-2.43359-.98193-2.43359-2.94629v-4.22461h2.15332v4.0332c0,.98877.39209,1.4834,1.17578,1.4834.38721,0,.69727-.13574.92969-.40674s.34863-.63916.34863-1.104v-4.00586h2.15332v7Z" fill="#2f2f2f"/>
        <path d="M97.88232,152.20293h-2.15332v-3.88965c0-1.08447-.38721-1.62695-1.16211-1.62695-.37354,0-.68115.14355-.92285.43066s-.3623.65186-.3623,1.09375v3.99219h-2.16016v-7h2.16016v1.10742h.02734c.51514-.85205,1.26465-1.27832,2.24902-1.27832,1.54932,0,2.32422.96143,2.32422,2.88477v4.28613Z" fill="#2f2f2f"/>
        <path d="M103.73145,152.1209c-.31885.16846-.7998.25293-1.44238.25293-1.52197,0-2.2832-.79053-2.2832-2.37207v-3.20605h-1.13477v-1.59277h1.13477v-1.51074l2.15332-.61523v2.12598h1.57227v1.59277h-1.57227v2.83008c0,.729.28955,1.09375.86816,1.09375.22803,0,.4624-.06592.7041-.19824v1.59961Z" fill="#2f2f2f"/>
      </g>
      <g>
        <rect x="330.0001" y="82.54277" width="290.3999" height="17.65723" fill="none"/>
        <path d="M452.75879,94.44414h-1.36719l-1.64062-2.74805c-.15039-.25537-.29688-.47266-.4375-.65283-.1416-.18018-.28613-.32715-.43457-.44092-.14746-.11377-.30762-.19727-.47852-.24951s-.36328-.07861-.57715-.07861h-.94336v4.16992h-1.14844v-9.80273h2.92578c.42773,0,.82324.05371,1.18555.16064s.67676.27002.94336.48877.47559.49121.62598.81689.22559.70752.22559,1.14502c0,.3418-.05176.65527-.1543.93994s-.24805.53906-.4375.76221c-.18848.22314-.41699.41357-.68359.5708s-.56641.2793-.89844.36572v.02734c.16406.07275.30664.15625.42676.24951.12109.09326.23633.2041.3457.33154s.21777.27246.32422.43408c.10742.16162.22656.34961.35938.56396l1.83887,2.94629ZM446.87988,85.68047v3.55469h1.55859c.28711,0,.55273-.04346.7959-.12988.24414-.08643.45508-.21094.63281-.37256s.31641-.35986.41699-.59473c.09961-.23486.15039-.49805.15039-.78955,0-.52393-.16992-.93311-.50977-1.22705-.33887-.29395-.83008-.44092-1.47266-.44092h-1.57227Z" fill="#2f2f2f"/>
        <path d="M459.42773,94.44414h-1.12109v-1.10742h-.02734c-.46484.84766-1.18555,1.27148-2.16016,1.27148-1.66797,0-2.50195-.99365-2.50195-2.98047v-4.18359h1.11426v4.00586c0,1.47656.56445,2.21484,1.69531,2.21484.54688,0,.99707-.20166,1.34961-.60498.35352-.40332.53027-.93066.53027-1.58252v-4.0332h1.12109v7Z" fill="#2f2f2f"/>
        <path d="M467.3457,94.44414h-1.12109v-3.99219c0-1.48584-.54297-2.22852-1.62695-2.22852-.56055,0-1.02441.21094-1.3916.63232-.36621.42139-.5498.95361-.5498,1.59619v3.99219h-1.12109v-7h1.12109v1.16211h.02734c.52832-.88428,1.29395-1.32617,2.29688-1.32617.76562,0,1.35059.24707,1.75684.7417.40527.49463.6084,1.20898.6084,2.14307v4.2793Z" fill="#2f2f2f"/>
        <path d="M470.5166,93.43242h-.02734v1.01172h-1.12109v-10.36328h1.12109v4.59375h.02734c.55078-.92969,1.35742-1.39453,2.41992-1.39453.89746,0,1.60059.31348,2.1084.93994.50879.62646.7627,1.46631.7627,2.51904,0,1.17139-.28516,2.10889-.85449,2.81299-.57031.7041-1.34961,1.05615-2.33789,1.05615-.92578,0-1.625-.39209-2.09863-1.17578ZM470.48926,90.60918v.97754c0,.57861.1875,1.06982.56348,1.47314s.85352.60498,1.43262.60498c.67871,0,1.21094-.25977,1.5957-.7793.38574-.51953.57812-1.2417.57812-2.16699,0-.7793-.18066-1.39014-.54004-1.83203-.36035-.44189-.84766-.66309-1.46289-.66309-.65234,0-1.17578.22656-1.57227.68018s-.59473,1.02197-.59473,1.70557Z" fill="#2f2f2f"/>
        <path d="M480.5127,94.6082c-1.03418,0-1.86035-.32715-2.47754-.98096-.61816-.65381-.92676-1.521-.92676-2.60107,0-1.17578.32129-2.09424.96387-2.75488s1.51074-.99121,2.60449-.99121c1.04395,0,1.8584.32129,2.44434.96387.58496.64258.87793,1.53369.87793,2.67285,0,1.1167-.31543,2.01074-.94629,2.68311-.63184.67236-1.47754,1.0083-2.54004,1.0083ZM480.59473,88.22344c-.71973,0-1.28906.24512-1.70898.73486-.41895.48975-.62891,1.16553-.62891,2.02686,0,.82959.21191,1.4834.63574,1.96191s.99121.71777,1.70215.71777c.72461,0,1.28223-.23486,1.67188-.7041s.58398-1.13721.58398-2.00293c0-.875-.19434-1.54932-.58398-2.02344s-.94727-.71094-1.67188-.71094Z" fill="#2f2f2f"/>
        <path d="M488.70508,94.6082c-1.03516,0-1.86035-.32715-2.47852-.98096-.61719-.65381-.92578-1.521-.92578-2.60107,0-1.17578.32129-2.09424.96387-2.75488s1.51074-.99121,2.60449-.99121c1.04297,0,1.8584.32129,2.44336.96387.58594.64258.87891,1.53369.87891,2.67285,0,1.1167-.31543,2.01074-.94727,2.68311-.63086.67236-1.47754,1.0083-2.53906,1.0083ZM488.78711,88.22344c-.7207,0-1.29004.24512-1.70898.73486-.41992.48975-.62891,1.16553-.62891,2.02686,0,.82959.21191,1.4834.63574,1.96191s.99121.71777,1.70215.71777c.72461,0,1.28125-.23486,1.6709-.7041s.58496-1.13721.58496-2.00293c0-.875-.19531-1.54932-.58496-2.02344s-.94629-.71094-1.6709-.71094Z" fill="#2f2f2f"/>
        <path d="M499.7168,94.44414h-1.57227l-3.08984-3.36328h-.02734v3.36328h-1.12109v-10.36328h1.12109v6.56934h.02734l2.93945-3.20605h1.46973l-3.24707,3.37695,3.5,3.62305Z" fill="#2f2f2f"/>
        <path d="M500.72461,94.19121v-1.20312c.61133.45117,1.2832.67676,2.0166.67676.98438,0,1.47656-.32812,1.47656-.98438,0-.18701-.04199-.34521-.12598-.4751-.08496-.12988-.19824-.24512-.3418-.34521s-.3125-.19043-.50586-.27002c-.19434-.07959-.40234-.16309-.62598-.24951-.30957-.12305-.58203-.24707-.81641-.37256-.23535-.12549-.43066-.2666-.58789-.42383s-.27637-.33594-.35547-.53662c-.08008-.20068-.12012-.43506-.12012-.7041,0-.32812.0752-.61865.22559-.87158s.35156-.46484.60156-.63574c.25098-.1709.53711-.2998.8584-.38623s.65234-.12988.99414-.12988c.60645,0,1.14844.10498,1.62695.31445v1.13477c-.51465-.3374-1.10742-.50586-1.77734-.50586-.20898,0-.39844.02393-.56738.07178-.16797.04785-.31348.11523-.43359.20166-.12109.08643-.21484.19043-.28027.31104-.06641.12061-.09961.25391-.09961.3999,0,.18213.0332.33496.09961.45801.06543.12305.16309.23242.29004.32812.12793.0957.2832.18213.46484.25977.18262.07764.38965.16162.62207.25293.31055.11865.58789.24023.83398.36572s.45605.2666.62891.42383c.17383.15723.30664.33838.40039.54346.09277.20508.13965.44873.13965.73145,0,.34619-.07617.64697-.22852.90234-.15332.25537-.35645.46729-.6123.63574-.25488.16846-.54883.29395-.88184.37598-.33203.08203-.68066.12305-1.0459.12305-.71973,0-1.34375-.13916-1.87305-.41699Z" fill="#2f2f2f"/>
      </g>
      <g>
        <rect x="149.6001" y="134.34277" width="651.1999" height="17.65723" fill="none"/>
        <path d="M235.70508,146.24395h-1.36719l-1.64062-2.74805c-.15039-.25537-.29639-.47266-.4375-.65283s-.28613-.32715-.43408-.44092-.30762-.19727-.47852-.24951-.36328-.07861-.57764-.07861h-.94336v4.16992h-1.14844v-9.80273h2.92578c.42822,0,.82373.05371,1.18604.16064s.67676.27002.94336.48877.4751.49121.62549.81689.22559.70752.22559,1.14502c0,.3418-.05127.65527-.15381.93994s-.24854.53906-.4375.76221-.41699.41357-.68359.5708-.56641.2793-.89893.36572v.02734c.16406.07275.30664.15625.42725.24951s.23584.2041.34521.33154.21777.27246.32471.43408.22656.34961.35889.56396l1.83887,2.94629ZM229.82617,137.48027v3.55469h1.55859c.28711,0,.55273-.04346.79639-.12988s.45459-.21094.63232-.37256.31689-.35986.41699-.59473.15039-.49805.15039-.78955c0-.52393-.16992-.93311-.50928-1.22705s-.83057-.44092-1.47314-.44092h-1.57227Z" fill="#2f2f2f"/>
        <path d="M242.31738,143.02422h-4.94238c.01807.7793.22803,1.38086.62891,1.80469s.95264.63574,1.6543.63574c.78857,0,1.51318-.25977,2.17383-.7793v1.05273c-.61523.44678-1.42871.66992-2.44043.66992-.98877,0-1.76611-.31787-2.33105-.95361s-.84766-1.53027-.84766-2.68311c0-1.08936.30859-1.97656.92627-2.6626s1.38428-1.02881,2.30029-1.02881,1.62451.29639,2.12598.88867.75195,1.41504.75195,2.46777v.58789ZM241.16895,142.07402c-.00439-.64697-.16064-1.15088-.46826-1.51074s-.73486-.54004-1.28174-.54004c-.52881,0-.97754.18896-1.34668.56738s-.59717.87256-.68359,1.4834h3.78027Z" fill="#2f2f2f"/>
        <path d="M243.55957,145.99102v-1.20312c.61084.45117,1.28271.67676,2.0166.67676.98438,0,1.47656-.32812,1.47656-.98438,0-.18701-.04199-.34521-.12646-.4751s-.19824-.24512-.3418-.34521-.31201-.19043-.50586-.27002-.40234-.16309-.62549-.24951c-.31006-.12305-.58203-.24707-.81689-.37256s-.43066-.2666-.58789-.42383-.27588-.33594-.35547-.53662-.11963-.43506-.11963-.7041c0-.32812.0752-.61865.22559-.87158s.35107-.46484.60156-.63574.53662-.2998.85791-.38623.65283-.12988.99463-.12988c.60596,0,1.14844.10498,1.62695.31445v1.13477c-.51514-.3374-1.10742-.50586-1.77734-.50586-.20947,0-.39893.02393-.56738.07178s-.31348.11523-.43408.20166-.21436.19043-.28027.31104-.09912.25391-.09912.3999c0,.18213.0332.33496.09912.45801s.16309.23242.29053.32812.28271.18213.46484.25977.38965.16162.62207.25293c.31006.11865.58789.24023.83398.36572s.45557.2666.62891.42383.30664.33838.3999.54346.14014.44873.14014.73145c0,.34619-.07617.64697-.229.90234s-.35645.46729-.61182.63574-.54932.29395-.88184.37598-.68115.12305-1.0459.12305c-.72021,0-1.34424-.13916-1.87305-.41699Z" fill="#2f2f2f"/>
        <path d="M252.81445,146.40801c-1.03467,0-1.86035-.32715-2.47803-.98096s-.92627-1.521-.92627-2.60107c0-1.17578.32129-2.09424.96387-2.75488s1.51074-.99121,2.60449-.99121c1.04346,0,1.8584.32129,2.44385.96387s.87842,1.53369.87842,2.67285c0,1.1167-.31543,2.01074-.94678,2.68311s-1.47754,1.0083-2.53955,1.0083ZM252.89648,140.02324c-.72021,0-1.28955.24512-1.70898.73486s-.62891,1.16553-.62891,2.02686c0,.82959.21191,1.4834.63574,1.96191s.99121.71777,1.70215.71777c.72461,0,1.28174-.23486,1.67139-.7041s.58447-1.13721.58447-2.00293c0-.875-.19482-1.54932-.58447-2.02344s-.94678-.71094-1.67139-.71094Z" fill="#2f2f2f"/>
        <path d="M263.70996,146.24395h-1.12109v-1.10742h-.02734c-.46484.84766-1.18506,1.27148-2.16016,1.27148-1.66797,0-2.50195-.99365-2.50195-2.98047v-4.18359h1.11426v4.00586c0,1.47656.56494,2.21484,1.69531,2.21484.54688,0,.99707-.20166,1.3501-.60498s.52979-.93066.52979-1.58252v-4.0332h1.12109v7Z" fill="#2f2f2f"/>
        <path d="M269.46777,140.37871c-.19629-.15039-.47852-.22559-.84766-.22559-.47852,0-.87891.22559-1.2002.67676s-.48145,1.06641-.48145,1.8457v3.56836h-1.12109v-7h1.12109v1.44238h.02734c.15918-.49219.40332-.87598.73145-1.15186s.69434-.41357,1.10059-.41357c.29102,0,.51465.03174.66992.0957v1.16211Z" fill="#2f2f2f"/>
        <path d="M275.4248,145.92266c-.53711.32373-1.17578.48535-1.91406.48535-.99805,0-1.80371-.32471-2.41602-.97412-.61328-.64941-.91992-1.49121-.91992-2.52588,0-1.15283.33105-2.0791.99121-2.77881.66113-.69971,1.54297-1.04932,2.64551-1.04932.61523,0,1.1582.11377,1.62695.3418v1.14844c-.51953-.36475-1.0752-.54688-1.66797-.54688-.71484,0-1.30176.25635-1.75977.76904s-.6875,1.18604-.6875,2.02002c0,.82031.21582,1.46729.64648,1.94141s1.00781.71094,1.73242.71094c.61133,0,1.18555-.20264,1.72266-.6084v1.06641Z" fill="#2f2f2f"/>
        <path d="M282.59473,143.02422h-4.94238c.01855.7793.22852,1.38086.62891,1.80469.40137.42383.95312.63574,1.6543.63574.78906,0,1.51367-.25977,2.17383-.7793v1.05273c-.61523.44678-1.42871.66992-2.44043.66992-.98828,0-1.76562-.31787-2.33105-.95361-.56445-.63574-.84766-1.53027-.84766-2.68311,0-1.08936.30859-1.97656.92676-2.6626.61719-.68604,1.38379-1.02881,2.2998-1.02881s1.625.29639,2.12598.88867c.50195.59229.75195,1.41504.75195,2.46777v.58789ZM281.44629,142.07402c-.00391-.64697-.16016-1.15088-.46777-1.51074s-.73535-.54004-1.28223-.54004c-.52832,0-.97754.18896-1.34668.56738s-.59668.87256-.68359,1.4834h3.78027Z" fill="#2f2f2f"/>
        <path d="M283.83691,145.99102v-1.20312c.61133.45117,1.2832.67676,2.0166.67676.98438,0,1.47656-.32812,1.47656-.98438,0-.18701-.04199-.34521-.12598-.4751-.08496-.12988-.19824-.24512-.3418-.34521s-.3125-.19043-.50586-.27002c-.19434-.07959-.40234-.16309-.62598-.24951-.30957-.12305-.58203-.24707-.81641-.37256-.23535-.12549-.43066-.2666-.58789-.42383s-.27637-.33594-.35547-.53662c-.08008-.20068-.12012-.43506-.12012-.7041,0-.32812.0752-.61865.22559-.87158s.35156-.46484.60156-.63574c.25098-.1709.53711-.2998.8584-.38623s.65234-.12988.99414-.12988c.60645,0,1.14844.10498,1.62695.31445v1.13477c-.51465-.3374-1.10742-.50586-1.77734-.50586-.20898,0-.39844.02393-.56738.07178-.16797.04785-.31348.11523-.43359.20166-.12109.08643-.21484.19043-.28027.31104-.06641.12061-.09961.25391-.09961.3999,0,.18213.0332.33496.09961.45801.06543.12305.16309.23242.29004.32812.12793.0957.2832.18213.46484.25977.18262.07764.38965.16162.62207.25293.31055.11865.58789.24023.83398.36572s.45605.2666.62891.42383c.17383.15723.30664.33838.40039.54346.09277.20508.13965.44873.13965.73145,0,.34619-.07617.64697-.22852.90234-.15332.25537-.35645.46729-.6123.63574-.25488.16846-.54883.29395-.88184.37598-.33203.08203-.68066.12305-1.0459.12305-.71973,0-1.34375-.13916-1.87305-.41699Z" fill="#2f2f2f"/>
        <path d="M296.97559,148.47246h-.99805c-1.41211-1.61328-2.11914-3.60254-2.11914-5.96777,0-2.37451.70703-4.39551,2.11914-6.06348h1.01172c-1.43066,1.73193-2.14648,3.74854-2.14648,6.0498,0,2.2832.71094,4.27686,2.13281,5.98145Z" fill="#2f2f2f"/>
        <path d="M307.61914,146.24395h-1.12109v-4.01953c0-.7749-.11914-1.33545-.3584-1.68164s-.6416-.51953-1.20703-.51953c-.47852,0-.88477.21875-1.21973.65625s-.50293.96143-.50293,1.57227v3.99219h-1.12109v-4.15625c0-1.37646-.53027-2.06445-1.59277-2.06445-.49219,0-.89746.20605-1.2168.61865-.31836.4126-.47852.94922-.47852,1.60986v3.99219h-1.12109v-7h1.12109v1.10742h.02734c.49707-.84766,1.22168-1.27148,2.17383-1.27148.47852,0,.89551.1333,1.25098.3999s.59961.61621.73145,1.04932c.51953-.96631,1.29492-1.44922,2.32422-1.44922,1.54102,0,2.31055.9502,2.31055,2.85059v4.31348Z" fill="#2f2f2f"/>
        <path d="M312.62695,146.40801c-1.03516,0-1.86035-.32715-2.47852-.98096-.61719-.65381-.92578-1.521-.92578-2.60107,0-1.17578.32129-2.09424.96387-2.75488s1.51074-.99121,2.60449-.99121c1.04297,0,1.8584.32129,2.44336.96387.58594.64258.87891,1.53369.87891,2.67285,0,1.1167-.31543,2.01074-.94727,2.68311-.63086.67236-1.47754,1.0083-2.53906,1.0083ZM312.70898,140.02324c-.7207,0-1.29004.24512-1.70898.73486-.41992.48975-.62891,1.16553-.62891,2.02686,0,.82959.21191,1.4834.63574,1.96191s.99121.71777,1.70215.71777c.72461,0,1.28125-.23486,1.6709-.7041s.58496-1.13721.58496-2.00293c0-.875-.19531-1.54932-.58496-2.02344s-.94629-.71094-1.6709-.71094Z" fill="#2f2f2f"/>
        <path d="M323.86719,146.24395h-1.12109v-1.18945h-.02734c-.51953.90234-1.32129,1.35352-2.40625,1.35352-.87891,0-1.58203-.31348-2.1084-.93994s-.79004-1.47998-.79004-2.56006c0-1.15771.29199-2.08496.875-2.78223.58398-.69727,1.36035-1.0459,2.33105-1.0459.96191,0,1.66113.37842,2.09863,1.13477h.02734v-4.33398h1.12109v10.36328ZM322.74609,143.07891v-1.03223c0-.56494-.18652-1.04346-.56055-1.43555-.37305-.39209-.84766-.58789-1.42188-.58789-.68359,0-1.2207.25049-1.61328.75195-.3916.50146-.58789,1.19385-.58789,2.07812,0,.80664.18848,1.44336.56445,1.91064s.88086.70068,1.51367.70068c.625,0,1.13184-.22559,1.52148-.67676s.58398-1.021.58398-1.70898Z" fill="#2f2f2f"/>
        <path d="M331.69434,146.24395h-1.12109v-1.10742h-.02734c-.46484.84766-1.18457,1.27148-2.16016,1.27148-1.66797,0-2.50195-.99365-2.50195-2.98047v-4.18359h1.11426v4.00586c0,1.47656.56543,2.21484,1.69531,2.21484.54688,0,.99707-.20166,1.35059-.60498.35254-.40332.5293-.93066.5293-1.58252v-4.0332h1.12109v7Z" fill="#2f2f2f"/>
        <path d="M334.92188,146.24395h-1.12109v-10.36328h1.12109v10.36328Z" fill="#2f2f2f"/>
        <path d="M342.75977,143.02422h-4.94238c.01855.7793.22852,1.38086.62891,1.80469.40137.42383.95312.63574,1.6543.63574.78906,0,1.51367-.25977,2.17383-.7793v1.05273c-.61523.44678-1.42871.66992-2.44043.66992-.98828,0-1.76562-.31787-2.33105-.95361-.56445-.63574-.84766-1.53027-.84766-2.68311,0-1.08936.30859-1.97656.92676-2.6626.61719-.68604,1.38379-1.02881,2.2998-1.02881s1.625.29639,2.12598.88867c.50195.59229.75195,1.41504.75195,2.46777v.58789ZM341.61133,142.07402c-.00391-.64697-.16016-1.15088-.46777-1.51074s-.73535-.54004-1.28223-.54004c-.52832,0-.97754.18896-1.34668.56738s-.59668.87256-.68359,1.4834h3.78027Z" fill="#2f2f2f"/>
        <path d="M344.00195,145.99102v-1.20312c.61035.45117,1.28223.67676,2.0166.67676.98438,0,1.47656-.32812,1.47656-.98438,0-.18701-.04199-.34521-.12695-.4751-.08398-.12988-.19824-.24512-.3418-.34521s-.31152-.19043-.50586-.27002c-.19336-.07959-.40234-.16309-.625-.24951-.31055-.12305-.58203-.24707-.81738-.37256-.23438-.12549-.43066-.2666-.58789-.42383s-.27539-.33594-.35547-.53662c-.0791-.20068-.11914-.43506-.11914-.7041,0-.32812.0752-.61865.22559-.87158s.35059-.46484.60156-.63574c.25-.1709.53613-.2998.85742-.38623s.65332-.12988.99512-.12988c.60547,0,1.14844.10498,1.62695.31445v1.13477c-.51562-.3374-1.10742-.50586-1.77734-.50586-.20996,0-.39941.02393-.56738.07178-.16895.04785-.31348.11523-.43457.20166-.12012.08643-.21387.19043-.28027.31104-.06543.12061-.09863.25391-.09863.3999,0,.18213.0332.33496.09863.45801.06641.12305.16309.23242.29102.32812.12695.0957.28223.18213.46484.25977.18164.07764.38965.16162.62207.25293.30957.11865.58789.24023.83398.36572s.45508.2666.62891.42383c.17285.15723.30664.33838.39941.54346.09375.20508.14062.44873.14062.73145,0,.34619-.07617.64697-.22949.90234-.15234.25537-.35645.46729-.61133.63574-.25586.16846-.5498.29395-.88184.37598-.33301.08203-.68164.12305-1.0459.12305-.7207,0-1.34473-.13916-1.87305-.41699Z" fill="#2f2f2f"/>
        <path d="M351.45996,144.68535l-1.09375,3.36328h-.7998l.7998-3.36328h1.09375Z" fill="#2f2f2f"/>
        <path d="M362.07617,145.92266c-.53711.32373-1.17578.48535-1.91406.48535-.99805,0-1.80371-.32471-2.41602-.97412-.61328-.64941-.91992-1.49121-.91992-2.52588,0-1.15283.33105-2.0791.99121-2.77881.66113-.69971,1.54297-1.04932,2.64551-1.04932.61523,0,1.1582.11377,1.62695.3418v1.14844c-.51953-.36475-1.0752-.54688-1.66797-.54688-.71484,0-1.30176.25635-1.75977.76904s-.6875,1.18604-.6875,2.02002c0,.82031.21582,1.46729.64648,1.94141s1.00781.71094,1.73242.71094c.61133,0,1.18555-.20264,1.72266-.6084v1.06641Z" fill="#2f2f2f"/>
        <path d="M366.5166,146.40801c-1.03418,0-1.86035-.32715-2.47754-.98096-.61816-.65381-.92676-1.521-.92676-2.60107,0-1.17578.32129-2.09424.96387-2.75488s1.51074-.99121,2.60449-.99121c1.04395,0,1.8584.32129,2.44434.96387.58496.64258.87793,1.53369.87793,2.67285,0,1.1167-.31543,2.01074-.94629,2.68311-.63184.67236-1.47754,1.0083-2.54004,1.0083ZM366.59863,140.02324c-.71973,0-1.28906.24512-1.70898.73486-.41895.48975-.62891,1.16553-.62891,2.02686,0,.82959.21191,1.4834.63574,1.96191s.99121.71777,1.70215.71777c.72461,0,1.28223-.23486,1.67188-.7041s.58398-1.13721.58398-2.00293c0-.875-.19434-1.54932-.58398-2.02344s-.94727-.71094-1.67188-.71094Z" fill="#2f2f2f"/>
        <path d="M377.5293,146.24395h-1.12109v-3.99219c0-1.48584-.54297-2.22852-1.62695-2.22852-.56055,0-1.02441.21094-1.3916.63232-.36621.42139-.5498.95361-.5498,1.59619v3.99219h-1.12109v-7h1.12109v1.16211h.02734c.52832-.88428,1.29395-1.32617,2.29688-1.32617.76562,0,1.35059.24707,1.75684.7417.40527.49463.6084,1.20898.6084,2.14307v4.2793Z" fill="#2f2f2f"/>
        <path d="M385.3623,146.24395h-1.12109v-3.99219c0-1.48584-.54199-2.22852-1.62695-2.22852-.56055,0-1.02441.21094-1.39062.63232-.36719.42139-.55078.95361-.55078,1.59619v3.99219h-1.12109v-7h1.12109v1.16211h.02734c.5293-.88428,1.29492-1.32617,2.29688-1.32617.76562,0,1.35156.24707,1.75684.7417.40625.49463.6084,1.20898.6084,2.14307v4.2793Z" fill="#2f2f2f"/>
        <path d="M393.06543,143.02422h-4.94238c.01855.7793.22852,1.38086.62891,1.80469.40137.42383.95312.63574,1.6543.63574.78906,0,1.51367-.25977,2.17383-.7793v1.05273c-.61523.44678-1.42871.66992-2.44043.66992-.98828,0-1.76562-.31787-2.33105-.95361-.56445-.63574-.84766-1.53027-.84766-2.68311,0-1.08936.30859-1.97656.92676-2.6626.61719-.68604,1.38379-1.02881,2.2998-1.02881s1.625.29639,2.12598.88867c.50195.59229.75195,1.41504.75195,2.46777v.58789ZM391.91699,142.07402c-.00391-.64697-.16016-1.15088-.46777-1.51074s-.73535-.54004-1.28223-.54004c-.52832,0-.97754.18896-1.34668.56738s-.59668.87256-.68359,1.4834h3.78027Z" fill="#2f2f2f"/>
        <path d="M399.56348,145.92266c-.53809.32373-1.17578.48535-1.91406.48535-.99805,0-1.80371-.32471-2.41699-.97412-.6123-.64941-.91895-1.49121-.91895-2.52588,0-1.15283.33008-2.0791.99121-2.77881.66016-.69971,1.54199-1.04932,2.64551-1.04932.61523,0,1.15723.11377,1.62695.3418v1.14844c-.51953-.36475-1.07617-.54688-1.66797-.54688-.71582,0-1.30273.25635-1.76074.76904s-.68652,1.18604-.68652,2.02002c0,.82031.21484,1.46729.64551,1.94141s1.00879.71094,1.7334.71094c.61035,0,1.18457-.20264,1.72266-.6084v1.06641Z" fill="#2f2f2f"/>
        <path d="M404.72656,146.17559c-.26367.146-.6123.21875-1.0459.21875-1.22559,0-1.83887-.68359-1.83887-2.05078v-4.14258h-1.20312v-.95703h1.20312v-1.70898l1.12109-.3623v2.07129h1.76367v.95703h-1.76367v3.94434c0,.46924.08008.8042.23926,1.00488.16016.20068.42383.30078.79297.30078.2832,0,.52637-.07764.73145-.23242v.95703Z" fill="#2f2f2f"/>
        <path d="M406.68164,137.4666c-.2002,0-.37109-.06836-.5127-.20508-.14062-.13672-.21191-.31006-.21191-.51953s.07129-.38379.21191-.52295c.1416-.13916.3125-.2085.5127-.2085.20508,0,.37988.06934.52344.2085s.21484.31348.21484.52295c0,.20068-.07129.37158-.21484.5127s-.31836.21191-.52344.21191ZM407.22852,146.24395h-1.12109v-7h1.12109v7Z" fill="#2f2f2f"/>
        <path d="M412.32324,146.40801c-1.03418,0-1.86035-.32715-2.47754-.98096-.61816-.65381-.92676-1.521-.92676-2.60107,0-1.17578.32129-2.09424.96387-2.75488s1.51074-.99121,2.60449-.99121c1.04395,0,1.8584.32129,2.44434.96387.58496.64258.87793,1.53369.87793,2.67285,0,1.1167-.31543,2.01074-.94629,2.68311-.63184.67236-1.47754,1.0083-2.54004,1.0083ZM412.40527,140.02324c-.71973,0-1.28906.24512-1.70898.73486-.41895.48975-.62891,1.16553-.62891,2.02686,0,.82959.21191,1.4834.63574,1.96191s.99121.71777,1.70215.71777c.72461,0,1.28223-.23486,1.67188-.7041s.58398-1.13721.58398-2.00293c0-.875-.19434-1.54932-.58398-2.02344s-.94727-.71094-1.67188-.71094Z" fill="#2f2f2f"/>
        <path d="M423.33594,146.24395h-1.12109v-3.99219c0-1.48584-.54297-2.22852-1.62695-2.22852-.56055,0-1.02441.21094-1.3916.63232-.36621.42139-.5498.95361-.5498,1.59619v3.99219h-1.12109v-7h1.12109v1.16211h.02734c.52832-.88428,1.29395-1.32617,2.29688-1.32617.76562,0,1.35059.24707,1.75684.7417.40527.49463.6084,1.20898.6084,2.14307v4.2793Z" fill="#2f2f2f"/>
        <path d="M424.9834,145.99102v-1.20312c.61133.45117,1.2832.67676,2.0166.67676.98438,0,1.47656-.32812,1.47656-.98438,0-.18701-.04199-.34521-.12598-.4751-.08496-.12988-.19824-.24512-.3418-.34521s-.3125-.19043-.50586-.27002c-.19434-.07959-.40234-.16309-.62598-.24951-.30957-.12305-.58203-.24707-.81641-.37256-.23535-.12549-.43066-.2666-.58789-.42383s-.27637-.33594-.35547-.53662c-.08008-.20068-.12012-.43506-.12012-.7041,0-.32812.0752-.61865.22559-.87158s.35156-.46484.60156-.63574c.25098-.1709.53711-.2998.8584-.38623s.65234-.12988.99414-.12988c.60645,0,1.14844.10498,1.62695.31445v1.13477c-.51465-.3374-1.10742-.50586-1.77734-.50586-.20898,0-.39844.02393-.56738.07178-.16797.04785-.31348.11523-.43359.20166-.12109.08643-.21484.19043-.28027.31104-.06641.12061-.09961.25391-.09961.3999,0,.18213.0332.33496.09961.45801.06543.12305.16309.23242.29004.32812.12793.0957.2832.18213.46484.25977.18262.07764.38965.16162.62207.25293.31055.11865.58789.24023.83398.36572s.45605.2666.62891.42383c.17383.15723.30664.33838.40039.54346.09277.20508.13965.44873.13965.73145,0,.34619-.07617.64697-.22852.90234-.15332.25537-.35645.46729-.6123.63574-.25488.16846-.54883.29395-.88184.37598-.33203.08203-.68066.12305-1.0459.12305-.71973,0-1.34375-.13916-1.87305-.41699Z" fill="#2f2f2f"/>
        <path d="M432.44141,144.68535l-1.09375,3.36328h-.7998l.7998-3.36328h1.09375Z" fill="#2f2f2f"/>
        <path d="M443.05762,145.92266c-.53711.32373-1.17578.48535-1.91406.48535-.99805,0-1.80371-.32471-2.41602-.97412-.61328-.64941-.91992-1.49121-.91992-2.52588,0-1.15283.33105-2.0791.99121-2.77881.66113-.69971,1.54297-1.04932,2.64551-1.04932.61523,0,1.1582.11377,1.62695.3418v1.14844c-.51953-.36475-1.0752-.54688-1.66797-.54688-.71484,0-1.30176.25635-1.75977.76904s-.6875,1.18604-.6875,2.02002c0,.82031.21582,1.46729.64648,1.94141s1.00781.71094,1.73242.71094c.61133,0,1.18555-.20264,1.72266-.6084v1.06641Z" fill="#2f2f2f"/>
        <path d="M448.19629,140.37871c-.19531-.15039-.47852-.22559-.84766-.22559-.47852,0-.87793.22559-1.19922.67676s-.48242,1.06641-.48242,1.8457v3.56836h-1.12109v-7h1.12109v1.44238h.02734c.16016-.49219.40332-.87598.73145-1.15186s.69531-.41357,1.10059-.41357c.29199,0,.51562.03174.66992.0957v1.16211Z" fill="#2f2f2f"/>
        <path d="M455.03906,143.02422h-4.94238c.01855.7793.22852,1.38086.62891,1.80469.40137.42383.95312.63574,1.6543.63574.78906,0,1.51367-.25977,2.17383-.7793v1.05273c-.61523.44678-1.42871.66992-2.44043.66992-.98828,0-1.76562-.31787-2.33105-.95361-.56445-.63574-.84766-1.53027-.84766-2.68311,0-1.08936.30859-1.97656.92676-2.6626.61719-.68604,1.38379-1.02881,2.2998-1.02881s1.625.29639,2.12598.88867c.50195.59229.75195,1.41504.75195,2.46777v.58789ZM453.89062,142.07402c-.00391-.64697-.16016-1.15088-.46777-1.51074s-.73535-.54004-1.28223-.54004c-.52832,0-.97754.18896-1.34668.56738s-.59668.87256-.68359,1.4834h3.78027Z" fill="#2f2f2f"/>
        <path d="M462.77051,146.24395h-1.12109v-1.18945h-.02734c-.51953.90234-1.32129,1.35352-2.40625,1.35352-.87891,0-1.58203-.31348-2.1084-.93994s-.79004-1.47998-.79004-2.56006c0-1.15771.29199-2.08496.875-2.78223.58398-.69727,1.36035-1.0459,2.33105-1.0459.96191,0,1.66113.37842,2.09863,1.13477h.02734v-4.33398h1.12109v10.36328ZM461.64941,143.07891v-1.03223c0-.56494-.18652-1.04346-.56055-1.43555-.37305-.39209-.84766-.58789-1.42188-.58789-.68359,0-1.2207.25049-1.61328.75195-.3916.50146-.58789,1.19385-.58789,2.07812,0,.80664.18848,1.44336.56445,1.91064s.88086.70068,1.51367.70068c.625,0,1.13184-.22559,1.52148-.67676s.58398-1.021.58398-1.70898Z" fill="#2f2f2f"/>
        <path d="M470.5918,143.02422h-4.94238c.01855.7793.22852,1.38086.62891,1.80469.40137.42383.95312.63574,1.6543.63574.78906,0,1.51367-.25977,2.17383-.7793v1.05273c-.61523.44678-1.42871.66992-2.44043.66992-.98828,0-1.76562-.31787-2.33105-.95361-.56445-.63574-.84766-1.53027-.84766-2.68311,0-1.08936.30859-1.97656.92676-2.6626.61719-.68604,1.38379-1.02881,2.2998-1.02881s1.625.29639,2.12598.88867c.50195.59229.75195,1.41504.75195,2.46777v.58789ZM469.44336,142.07402c-.00391-.64697-.16016-1.15088-.46777-1.51074s-.73535-.54004-1.28223-.54004c-.52832,0-.97754.18896-1.34668.56738s-.59668.87256-.68359,1.4834h3.78027Z" fill="#2f2f2f"/>
        <path d="M478.08496,146.24395h-1.12109v-3.99219c0-1.48584-.54199-2.22852-1.62695-2.22852-.56055,0-1.02441.21094-1.39062.63232-.36719.42139-.55078.95361-.55078,1.59619v3.99219h-1.12109v-7h1.12109v1.16211h.02734c.5293-.88428,1.29492-1.32617,2.29688-1.32617.76562,0,1.35156.24707,1.75684.7417.40625.49463.6084,1.20898.6084,2.14307v4.2793Z" fill="#2f2f2f"/>
        <path d="M483.31445,146.17559c-.26367.146-.6123.21875-1.0459.21875-1.22559,0-1.83887-.68359-1.83887-2.05078v-4.14258h-1.20312v-.95703h1.20312v-1.70898l1.12109-.3623v2.07129h1.76367v.95703h-1.76367v3.94434c0,.46924.08008.8042.23926,1.00488.16016.20068.42383.30078.79297.30078.2832,0,.52637-.07764.73145-.23242v.95703Z" fill="#2f2f2f"/>
        <path d="M485.26953,137.4666c-.2002,0-.37109-.06836-.5127-.20508-.14062-.13672-.21191-.31006-.21191-.51953s.07129-.38379.21191-.52295c.1416-.13916.3125-.2085.5127-.2085.20508,0,.37988.06934.52344.2085s.21484.31348.21484.52295c0,.20068-.07129.37158-.21484.5127s-.31836.21191-.52344.21191ZM485.81641,146.24395h-1.12109v-7h1.12109v7Z" fill="#2f2f2f"/>
        <path d="M492.95801,146.24395h-1.12109v-1.09375h-.02734c-.4873.83838-1.20508,1.25781-2.15332,1.25781-.69727,0-1.24316-.18457-1.63672-.55371-.39453-.36914-.5918-.85889-.5918-1.46973,0-1.30811.77051-2.06885,2.31055-2.2832l2.09863-.29395c0-1.18945-.48047-1.78418-1.44238-1.78418-.84277,0-1.60352.28711-2.2832.86133v-1.14844c.68848-.4375,1.48145-.65625,2.37891-.65625,1.64551,0,2.46777.87061,2.46777,2.61133v4.55273ZM491.83691,142.70293l-1.68848.23242c-.51953.07275-.91113.20166-1.17578.38623-.26367.18457-.39648.51172-.39648.98096,0,.3418.12207.62109.36621.8374.24316.21631.56836.32471.97363.32471.55664,0,1.01562-.19482,1.37793-.58447s.54297-.88281.54297-1.47998v-.69727Z" fill="#2f2f2f"/>
        <path d="M496.09961,146.24395h-1.12109v-10.36328h1.12109v10.36328Z" fill="#2f2f2f"/>
        <path d="M497.87891,145.99102v-1.20312c.61133.45117,1.2832.67676,2.0166.67676.98438,0,1.47656-.32812,1.47656-.98438,0-.18701-.04199-.34521-.12598-.4751-.08496-.12988-.19824-.24512-.3418-.34521s-.3125-.19043-.50586-.27002c-.19434-.07959-.40234-.16309-.62598-.24951-.30957-.12305-.58203-.24707-.81641-.37256-.23535-.12549-.43066-.2666-.58789-.42383s-.27637-.33594-.35547-.53662c-.08008-.20068-.12012-.43506-.12012-.7041,0-.32812.0752-.61865.22559-.87158s.35156-.46484.60156-.63574c.25098-.1709.53711-.2998.8584-.38623s.65234-.12988.99414-.12988c.60645,0,1.14844.10498,1.62695.31445v1.13477c-.51465-.3374-1.10742-.50586-1.77734-.50586-.20898,0-.39844.02393-.56738.07178-.16797.04785-.31348.11523-.43359.20166-.12109.08643-.21484.19043-.28027.31104-.06641.12061-.09961.25391-.09961.3999,0,.18213.0332.33496.09961.45801.06543.12305.16309.23242.29004.32812.12793.0957.2832.18213.46484.25977.18262.07764.38965.16162.62207.25293.31055.11865.58789.24023.83398.36572s.45605.2666.62891.42383c.17383.15723.30664.33838.40039.54346.09277.20508.13965.44873.13965.73145,0,.34619-.07617.64697-.22852.90234-.15332.25537-.35645.46729-.6123.63574-.25488.16846-.54883.29395-.88184.37598-.33203.08203-.68066.12305-1.0459.12305-.71973,0-1.34375-.13916-1.87305-.41699Z" fill="#2f2f2f"/>
        <path d="M505.33691,144.68535l-1.09375,3.36328h-.7998l.7998-3.36328h1.09375Z" fill="#2f2f2f"/>
        <path d="M515.95312,145.92266c-.53711.32373-1.17578.48535-1.91406.48535-.99805,0-1.80371-.32471-2.41602-.97412-.61328-.64941-.91992-1.49121-.91992-2.52588,0-1.15283.33105-2.0791.99121-2.77881.66113-.69971,1.54297-1.04932,2.64551-1.04932.61523,0,1.1582.11377,1.62695.3418v1.14844c-.51953-.36475-1.0752-.54688-1.66797-.54688-.71484,0-1.30176.25635-1.75977.76904s-.6875,1.18604-.6875,2.02002c0,.82031.21582,1.46729.64648,1.94141s1.00781.71094,1.73242.71094c.61133,0,1.18555-.20264,1.72266-.6084v1.06641Z" fill="#2f2f2f"/>
        <path d="M523.12402,143.02422h-4.94238c.01758.7793.22754,1.38086.62891,1.80469.40039.42383.95215.63574,1.6543.63574.78809,0,1.5127-.25977,2.17383-.7793v1.05273c-.61523.44678-1.42871.66992-2.44043.66992-.98926,0-1.7666-.31787-2.33105-.95361-.56543-.63574-.84766-1.53027-.84766-2.68311,0-1.08936.30859-1.97656.92578-2.6626.61816-.68604,1.38477-1.02881,2.30078-1.02881s1.62402.29639,2.12598.88867c.50098.59229.75195,1.41504.75195,2.46777v.58789ZM521.97559,142.07402c-.00488-.64697-.16113-1.15088-.46875-1.51074s-.73438-.54004-1.28125-.54004c-.5293,0-.97754.18896-1.34668.56738s-.59766.87256-.68359,1.4834h3.78027Z" fill="#2f2f2f"/>
        <path d="M528.45703,140.37871c-.19629-.15039-.47852-.22559-.84766-.22559-.47852,0-.87891.22559-1.2002.67676s-.48145,1.06641-.48145,1.8457v3.56836h-1.12109v-7h1.12109v1.44238h.02734c.15918-.49219.40332-.87598.73145-1.15186s.69434-.41357,1.10059-.41357c.29102,0,.51465.03174.66992.0957v1.16211Z" fill="#2f2f2f"/>
        <path d="M533.37598,146.17559c-.26465.146-.61328.21875-1.0459.21875-1.22656,0-1.83887-.68359-1.83887-2.05078v-4.14258h-1.20312v-.95703h1.20312v-1.70898l1.12109-.3623v2.07129h1.76367v.95703h-1.76367v3.94434c0,.46924.0791.8042.23926,1.00488.15918.20068.42383.30078.79297.30078.28223,0,.52637-.07764.73145-.23242v.95703Z" fill="#2f2f2f"/>
        <path d="M535.33105,137.4666c-.20117,0-.37207-.06836-.5127-.20508-.1416-.13672-.21191-.31006-.21191-.51953s.07031-.38379.21191-.52295c.14062-.13916.31152-.2085.5127-.2085.20508,0,.37891.06934.52246.2085s.21582.31348.21582.52295c0,.20068-.07227.37158-.21582.5127s-.31738.21191-.52246.21191ZM535.87793,146.24395h-1.12109v-7h1.12109v7Z" fill="#2f2f2f"/>
        <path d="M541.50195,136.86504c-.21875-.12305-.4668-.18457-.74512-.18457-.7832,0-1.17578.49463-1.17578,1.4834v1.08008h1.64062v.95703h-1.64062v6.04297h-1.11426v-6.04297h-1.19629v-.95703h1.19629v-1.13477c0-.73389.21191-1.31348.63574-1.73975s.95312-.63916,1.58594-.63916c.3418,0,.61328.04102.81348.12305v1.01172Z" fill="#2f2f2f"/>
        <path d="M543.25586,137.4666c-.20117,0-.37207-.06836-.5127-.20508-.1416-.13672-.21191-.31006-.21191-.51953s.07031-.38379.21191-.52295c.14062-.13916.31152-.2085.5127-.2085.20508,0,.37891.06934.52246.2085s.21582.31348.21582.52295c0,.20068-.07227.37158-.21582.5127s-.31738.21191-.52246.21191ZM543.80273,146.24395h-1.12109v-7h1.12109v7Z" fill="#2f2f2f"/>
        <path d="M550.71484,145.92266c-.53809.32373-1.17578.48535-1.91406.48535-.99805,0-1.80371-.32471-2.41699-.97412-.6123-.64941-.91895-1.49121-.91895-2.52588,0-1.15283.33008-2.0791.99121-2.77881.66016-.69971,1.54199-1.04932,2.64551-1.04932.61523,0,1.15723.11377,1.62695.3418v1.14844c-.51953-.36475-1.07617-.54688-1.66797-.54688-.71582,0-1.30273.25635-1.76074.76904s-.68652,1.18604-.68652,2.02002c0,.82031.21484,1.46729.64551,1.94141s1.00879.71094,1.7334.71094c.61035,0,1.18457-.20264,1.72266-.6084v1.06641Z" fill="#2f2f2f"/>
        <path d="M557.45898,146.24395h-1.12109v-1.09375h-.02734c-.48828.83838-1.20605,1.25781-2.15332,1.25781-.69727,0-1.24316-.18457-1.6377-.55371-.39355-.36914-.59082-.85889-.59082-1.46973,0-1.30811.76953-2.06885,2.31055-2.2832l2.09863-.29395c0-1.18945-.48145-1.78418-1.44238-1.78418-.84375,0-1.60449.28711-2.2832.86133v-1.14844c.6875-.4375,1.48047-.65625,2.37891-.65625,1.64453,0,2.46777.87061,2.46777,2.61133v4.55273ZM556.33789,142.70293l-1.68848.23242c-.51953.07275-.91211.20166-1.17578.38623-.26465.18457-.39648.51172-.39648.98096,0,.3418.12207.62109.36523.8374.24414.21631.56836.32471.97461.32471.55566,0,1.01465-.19482,1.37695-.58447s.54395-.88281.54395-1.47998v-.69727Z" fill="#2f2f2f"/>
        <path d="M562.7168,146.17559c-.26367.146-.6123.21875-1.0459.21875-1.22559,0-1.83887-.68359-1.83887-2.05078v-4.14258h-1.20312v-.95703h1.20312v-1.70898l1.12109-.3623v2.07129h1.76367v.95703h-1.76367v3.94434c0,.46924.08008.8042.23926,1.00488.16016.20068.42383.30078.79297.30078.2832,0,.52637-.07764.73145-.23242v.95703Z" fill="#2f2f2f"/>
        <path d="M569.70996,143.02422h-4.94238c.01855.7793.22852,1.38086.62891,1.80469.40137.42383.95312.63574,1.6543.63574.78906,0,1.51367-.25977,2.17383-.7793v1.05273c-.61523.44678-1.42871.66992-2.44043.66992-.98828,0-1.76562-.31787-2.33105-.95361-.56445-.63574-.84766-1.53027-.84766-2.68311,0-1.08936.30859-1.97656.92676-2.6626.61719-.68604,1.38379-1.02881,2.2998-1.02881s1.625.29639,2.12598.88867c.50195.59229.75195,1.41504.75195,2.46777v.58789ZM568.56152,142.07402c-.00391-.64697-.16016-1.15088-.46777-1.51074s-.73535-.54004-1.28223-.54004c-.52832,0-.97754.18896-1.34668.56738s-.59668.87256-.68359,1.4834h3.78027Z" fill="#2f2f2f"/>
        <path d="M570.95215,145.99102v-1.20312c.61133.45117,1.2832.67676,2.0166.67676.98438,0,1.47656-.32812,1.47656-.98438,0-.18701-.04199-.34521-.12598-.4751-.08496-.12988-.19824-.24512-.3418-.34521s-.3125-.19043-.50586-.27002c-.19434-.07959-.40234-.16309-.62598-.24951-.30957-.12305-.58203-.24707-.81641-.37256-.23535-.12549-.43066-.2666-.58789-.42383s-.27637-.33594-.35547-.53662c-.08008-.20068-.12012-.43506-.12012-.7041,0-.32812.0752-.61865.22559-.87158s.35156-.46484.60156-.63574c.25098-.1709.53711-.2998.8584-.38623s.65234-.12988.99414-.12988c.60645,0,1.14844.10498,1.62695.31445v1.13477c-.51465-.3374-1.10742-.50586-1.77734-.50586-.20898,0-.39844.02393-.56738.07178-.16797.04785-.31348.11523-.43359.20166-.12109.08643-.21484.19043-.28027.31104-.06641.12061-.09961.25391-.09961.3999,0,.18213.0332.33496.09961.45801.06543.12305.16309.23242.29004.32812.12793.0957.2832.18213.46484.25977.18262.07764.38965.16162.62207.25293.31055.11865.58789.24023.83398.36572s.45605.2666.62891.42383c.17383.15723.30664.33838.40039.54346.09277.20508.13965.44873.13965.73145,0,.34619-.07617.64697-.22852.90234-.15332.25537-.35645.46729-.6123.63574-.25488.16846-.54883.29395-.88184.37598-.33203.08203-.68066.12305-1.0459.12305-.71973,0-1.34375-.13916-1.87305-.41699Z" fill="#2f2f2f"/>
        <path d="M578.41016,144.68535l-1.09375,3.36328h-.7998l.7998-3.36328h1.09375Z" fill="#2f2f2f"/>
        <path d="M589.75781,139.24395l-2.78906,7h-1.10059l-2.65234-7h1.23047l1.77734,5.08594c.13281.37354.21484.69971.24609.97754h.02734c.0459-.35107.11914-.66748.21875-.9502l1.85938-5.11328h1.18262Z" fill="#2f2f2f"/>
        <path d="M595.875,146.24395h-1.12109v-1.09375h-.02734c-.4873.83838-1.20508,1.25781-2.15332,1.25781-.69727,0-1.24316-.18457-1.63672-.55371-.39453-.36914-.5918-.85889-.5918-1.46973,0-1.30811.77051-2.06885,2.31055-2.2832l2.09863-.29395c0-1.18945-.48047-1.78418-1.44238-1.78418-.84277,0-1.60352.28711-2.2832.86133v-1.14844c.68848-.4375,1.48145-.65625,2.37891-.65625,1.64551,0,2.46777.87061,2.46777,2.61133v4.55273ZM594.75391,142.70293l-1.68848.23242c-.51953.07275-.91113.20166-1.17578.38623-.26367.18457-.39648.51172-.39648.98096,0,.3418.12207.62109.36621.8374.24316.21631.56836.32471.97363.32471.55664,0,1.01562-.19482,1.37793-.58447s.54297-.88281.54297-1.47998v-.69727Z" fill="#2f2f2f"/>
        <path d="M601.54688,140.37871c-.19531-.15039-.47852-.22559-.84766-.22559-.47852,0-.87793.22559-1.19922.67676s-.48242,1.06641-.48242,1.8457v3.56836h-1.12109v-7h1.12109v1.44238h.02734c.16016-.49219.40332-.87598.73145-1.15186s.69531-.41357,1.10059-.41357c.29199,0,.51562.03174.66992.0957v1.16211Z" fill="#2f2f2f"/>
        <path d="M603.36426,137.4666c-.2002,0-.37109-.06836-.5127-.20508-.14062-.13672-.21191-.31006-.21191-.51953s.07129-.38379.21191-.52295c.1416-.13916.3125-.2085.5127-.2085.20508,0,.37988.06934.52344.2085s.21484.31348.21484.52295c0,.20068-.07129.37158-.21484.5127s-.31836.21191-.52344.21191ZM603.91113,146.24395h-1.12109v-7h1.12109v7Z" fill="#2f2f2f"/>
        <path d="M611.05273,146.24395h-1.12109v-1.09375h-.02734c-.4873.83838-1.20508,1.25781-2.15332,1.25781-.69727,0-1.24316-.18457-1.63672-.55371-.39453-.36914-.5918-.85889-.5918-1.46973,0-1.30811.77051-2.06885,2.31055-2.2832l2.09863-.29395c0-1.18945-.48047-1.78418-1.44238-1.78418-.84277,0-1.60352.28711-2.2832.86133v-1.14844c.68848-.4375,1.48145-.65625,2.37891-.65625,1.64551,0,2.46777.87061,2.46777,2.61133v4.55273ZM609.93164,142.70293l-1.68848.23242c-.51953.07275-.91113.20166-1.17578.38623-.26367.18457-.39648.51172-.39648.98096,0,.3418.12207.62109.36621.8374.24316.21631.56836.32471.97363.32471.55664,0,1.01562-.19482,1.37793-.58447s.54297-.88281.54297-1.47998v-.69727Z" fill="#2f2f2f"/>
        <path d="M614.22266,145.23223h-.02734v1.01172h-1.12109v-10.36328h1.12109v4.59375h.02734c.55176-.92969,1.3584-1.39453,2.41992-1.39453.89844,0,1.60059.31348,2.10938.93994.50781.62646.76172,1.46631.76172,2.51904,0,1.17139-.28418,2.10889-.85449,2.81299-.56934.7041-1.34863,1.05615-2.33789,1.05615-.9248,0-1.62402-.39209-2.09863-1.17578ZM614.19531,142.40898v.97754c0,.57861.18848,1.06982.56445,1.47314s.85352.60498,1.43164.60498c.67969,0,1.21094-.25977,1.59668-.7793.38477-.51953.57715-1.2417.57715-2.16699,0-.7793-.17969-1.39014-.54004-1.83203-.35938-.44189-.84766-.66309-1.46289-.66309-.65137,0-1.17578.22656-1.57227.68018s-.59473,1.02197-.59473,1.70557Z" fill="#2f2f2f"/>
        <path d="M622.36426,146.24395h-1.12109v-10.36328h1.12109v10.36328Z" fill="#2f2f2f"/>
        <path d="M630.19824,143.02422h-4.94238c.01855.7793.22852,1.38086.62891,1.80469.40137.42383.95312.63574,1.6543.63574.78906,0,1.51367-.25977,2.17383-.7793v1.05273c-.61523.44678-1.42871.66992-2.44043.66992-.98828,0-1.76562-.31787-2.33105-.95361-.56445-.63574-.84766-1.53027-.84766-2.68311,0-1.08936.30859-1.97656.92676-2.6626.61719-.68604,1.38379-1.02881,2.2998-1.02881s1.625.29639,2.12598.88867c.50195.59229.75195,1.41504.75195,2.46777v.58789ZM629.0498,142.07402c-.00391-.64697-.16016-1.15088-.46777-1.51074s-.73535-.54004-1.28223-.54004c-.52832,0-.97754.18896-1.34668.56738s-.59668.87256-.68359,1.4834h3.78027Z" fill="#2f2f2f"/>
        <path d="M631.44043,145.99102v-1.20312c.61133.45117,1.2832.67676,2.0166.67676.98438,0,1.47656-.32812,1.47656-.98438,0-.18701-.04199-.34521-.12598-.4751-.08496-.12988-.19824-.24512-.3418-.34521s-.3125-.19043-.50586-.27002c-.19434-.07959-.40234-.16309-.62598-.24951-.30957-.12305-.58203-.24707-.81641-.37256-.23535-.12549-.43066-.2666-.58789-.42383s-.27637-.33594-.35547-.53662c-.08008-.20068-.12012-.43506-.12012-.7041,0-.32812.0752-.61865.22559-.87158s.35156-.46484.60156-.63574c.25098-.1709.53711-.2998.8584-.38623s.65234-.12988.99414-.12988c.60645,0,1.14844.10498,1.62695.31445v1.13477c-.51465-.3374-1.10742-.50586-1.77734-.50586-.20898,0-.39844.02393-.56738.07178-.16797.04785-.31348.11523-.43359.20166-.12109.08643-.21484.19043-.28027.31104-.06641.12061-.09961.25391-.09961.3999,0,.18213.0332.33496.09961.45801.06543.12305.16309.23242.29004.32812.12793.0957.2832.18213.46484.25977.18262.07764.38965.16162.62207.25293.31055.11865.58789.24023.83398.36572s.45605.2666.62891.42383c.17383.15723.30664.33838.40039.54346.09277.20508.13965.44873.13965.73145,0,.34619-.07617.64697-.22852.90234-.15332.25537-.35645.46729-.6123.63574-.25488.16846-.54883.29395-.88184.37598-.33203.08203-.68066.12305-1.0459.12305-.71973,0-1.34375-.13916-1.87305-.41699Z" fill="#2f2f2f"/>
        <path d="M638.89844,144.68535l-1.09375,3.36328h-.7998l.7998-3.36328h1.09375Z" fill="#2f2f2f"/>
        <path d="M644.31934,145.99102v-1.20312c.61133.45117,1.2832.67676,2.0166.67676.98438,0,1.47656-.32812,1.47656-.98438,0-.18701-.04199-.34521-.12598-.4751-.08496-.12988-.19824-.24512-.3418-.34521s-.3125-.19043-.50586-.27002c-.19434-.07959-.40234-.16309-.62598-.24951-.30957-.12305-.58203-.24707-.81641-.37256-.23535-.12549-.43066-.2666-.58789-.42383s-.27637-.33594-.35547-.53662c-.08008-.20068-.12012-.43506-.12012-.7041,0-.32812.0752-.61865.22559-.87158s.35156-.46484.60156-.63574c.25098-.1709.53711-.2998.8584-.38623s.65234-.12988.99414-.12988c.60645,0,1.14844.10498,1.62695.31445v1.13477c-.51465-.3374-1.10742-.50586-1.77734-.50586-.20898,0-.39844.02393-.56738.07178-.16797.04785-.31348.11523-.43359.20166-.12109.08643-.21484.19043-.28027.31104-.06641.12061-.09961.25391-.09961.3999,0,.18213.0332.33496.09961.45801.06543.12305.16309.23242.29004.32812.12793.0957.2832.18213.46484.25977.18262.07764.38965.16162.62207.25293.31055.11865.58789.24023.83398.36572s.45605.2666.62891.42383c.17383.15723.30664.33838.40039.54346.09277.20508.13965.44873.13965.73145,0,.34619-.07617.64697-.22852.90234-.15332.25537-.35645.46729-.6123.63574-.25488.16846-.54883.29395-.88184.37598-.33203.08203-.68066.12305-1.0459.12305-.71973,0-1.34375-.13916-1.87305-.41699Z" fill="#2f2f2f"/>
        <path d="M655.42773,145.92266c-.53809.32373-1.17578.48535-1.91406.48535-.99805,0-1.80371-.32471-2.41699-.97412-.6123-.64941-.91895-1.49121-.91895-2.52588,0-1.15283.33008-2.0791.99121-2.77881.66016-.69971,1.54199-1.04932,2.64551-1.04932.61523,0,1.15723.11377,1.62695.3418v1.14844c-.51953-.36475-1.07617-.54688-1.66797-.54688-.71582,0-1.30273.25635-1.76074.76904s-.68652,1.18604-.68652,2.02002c0,.82031.21484,1.46729.64551,1.94141s1.00879.71094,1.7334.71094c.61035,0,1.18457-.20264,1.72266-.6084v1.06641Z" fill="#2f2f2f"/>
        <path d="M662.72559,146.24395h-1.12109v-4.0332c0-1.4585-.54199-2.1875-1.62695-2.1875-.54688,0-1.00684.21094-1.38086.63232-.37305.42139-.56055.96289-.56055,1.62354v3.96484h-1.12109v-10.36328h1.12109v4.52539h.02734c.53809-.88428,1.30371-1.32617,2.29688-1.32617,1.57715,0,2.36523.9502,2.36523,2.85059v4.31348Z" fill="#2f2f2f"/>
        <path d="M670.42969,143.02422h-4.94238c.01758.7793.22754,1.38086.62891,1.80469.40039.42383.95215.63574,1.6543.63574.78809,0,1.5127-.25977,2.17383-.7793v1.05273c-.61523.44678-1.42871.66992-2.44043.66992-.98926,0-1.7666-.31787-2.33105-.95361-.56543-.63574-.84766-1.53027-.84766-2.68311,0-1.08936.30859-1.97656.92578-2.6626.61816-.68604,1.38477-1.02881,2.30078-1.02881s1.62402.29639,2.12598.88867c.50098.59229.75195,1.41504.75195,2.46777v.58789ZM669.28125,142.07402c-.00488-.64697-.16113-1.15088-.46875-1.51074s-.73438-.54004-1.28125-.54004c-.5293,0-.97754.18896-1.34668.56738s-.59766.87256-.68359,1.4834h3.78027Z" fill="#2f2f2f"/>
        <path d="M678.16113,146.24395h-1.12109v-1.18945h-.02734c-.51953.90234-1.32227,1.35352-2.40625,1.35352-.87988,0-1.58301-.31348-2.10938-.93994s-.78906-1.47998-.78906-2.56006c0-1.15771.29102-2.08496.875-2.78223.58301-.69727,1.36035-1.0459,2.33105-1.0459.96094,0,1.66113.37842,2.09863,1.13477h.02734v-4.33398h1.12109v10.36328ZM677.04004,143.07891v-1.03223c0-.56494-.1875-1.04346-.56055-1.43555-.37402-.39209-.84766-.58789-1.42188-.58789-.68359,0-1.22168.25049-1.61328.75195-.39258.50146-.58789,1.19385-.58789,2.07812,0,.80664.1875,1.44336.56348,1.91064s.88086.70068,1.51465.70068c.62402,0,1.13086-.22559,1.52051-.67676s.58496-1.021.58496-1.70898Z" fill="#2f2f2f"/>
        <path d="M685.98828,146.24395h-1.12109v-1.10742h-.02734c-.46484.84766-1.18457,1.27148-2.16016,1.27148-1.66797,0-2.50195-.99365-2.50195-2.98047v-4.18359h1.11426v4.00586c0,1.47656.56543,2.21484,1.69531,2.21484.54688,0,.99707-.20166,1.35059-.60498.35254-.40332.5293-.93066.5293-1.58252v-4.0332h1.12109v7Z" fill="#2f2f2f"/>
        <path d="M689.21484,146.24395h-1.12109v-10.36328h1.12109v10.36328Z" fill="#2f2f2f"/>
        <path d="M697.05371,143.02422h-4.94238c.01758.7793.22754,1.38086.62891,1.80469.40039.42383.95215.63574,1.6543.63574.78809,0,1.5127-.25977,2.17383-.7793v1.05273c-.61523.44678-1.42871.66992-2.44043.66992-.98926,0-1.7666-.31787-2.33105-.95361-.56543-.63574-.84766-1.53027-.84766-2.68311,0-1.08936.30859-1.97656.92578-2.6626.61816-.68604,1.38477-1.02881,2.30078-1.02881s1.62402.29639,2.12598.88867c.50098.59229.75195,1.41504.75195,2.46777v.58789ZM695.90527,142.07402c-.00488-.64697-.16113-1.15088-.46875-1.51074s-.73438-.54004-1.28125-.54004c-.5293,0-.97754.18896-1.34668.56738s-.59766.87256-.68359,1.4834h3.78027Z" fill="#2f2f2f"/>
        <path d="M698.2959,145.99102v-1.20312c.61035.45117,1.28223.67676,2.0166.67676.98438,0,1.47656-.32812,1.47656-.98438,0-.18701-.04199-.34521-.12695-.4751-.08398-.12988-.19824-.24512-.3418-.34521s-.31152-.19043-.50586-.27002c-.19336-.07959-.40234-.16309-.625-.24951-.31055-.12305-.58203-.24707-.81738-.37256-.23438-.12549-.43066-.2666-.58789-.42383s-.27539-.33594-.35547-.53662c-.0791-.20068-.11914-.43506-.11914-.7041,0-.32812.0752-.61865.22559-.87158s.35059-.46484.60156-.63574c.25-.1709.53613-.2998.85742-.38623s.65332-.12988.99512-.12988c.60547,0,1.14844.10498,1.62695.31445v1.13477c-.51562-.3374-1.10742-.50586-1.77734-.50586-.20996,0-.39941.02393-.56738.07178-.16895.04785-.31348.11523-.43457.20166-.12012.08643-.21387.19043-.28027.31104-.06543.12061-.09863.25391-.09863.3999,0,.18213.0332.33496.09863.45801.06641.12305.16309.23242.29102.32812.12695.0957.28223.18213.46484.25977.18164.07764.38965.16162.62207.25293.30957.11865.58789.24023.83398.36572s.45508.2666.62891.42383c.17285.15723.30664.33838.39941.54346.09375.20508.14062.44873.14062.73145,0,.34619-.07617.64697-.22949.90234-.15234.25537-.35645.46729-.61133.63574-.25586.16846-.5498.29395-.88184.37598-.33301.08203-.68164.12305-1.0459.12305-.7207,0-1.34473-.13916-1.87305-.41699Z" fill="#2f2f2f"/>
        <path d="M705.75391,144.68535l-1.09375,3.36328h-.7998l.7998-3.36328h1.09375Z" fill="#2f2f2f"/>
        <path d="M711.98828,146.39434c-.20996,0-.38867-.0752-.53711-.22559-.14746-.15039-.22168-.33057-.22168-.54004s.07422-.39062.22168-.54346c.14844-.15283.32715-.229.53711-.229.21387,0,.39648.07617.54688.229s.22559.33398.22559.54346-.0752.38965-.22559.54004-.33301.22559-.54688.22559Z" fill="#2f2f2f"/>
        <path d="M714.90137,146.39434c-.20898,0-.38867-.0752-.53613-.22559-.14844-.15039-.22266-.33057-.22266-.54004s.07422-.39062.22266-.54346c.14746-.15283.32715-.229.53613-.229.21484,0,.39648.07617.54688.229s.22559.33398.22559.54346-.0752.38965-.22559.54004-.33203.22559-.54688.22559Z" fill="#2f2f2f"/>
        <path d="M717.81543,146.39434c-.20996,0-.38867-.0752-.53613-.22559-.14844-.15039-.22266-.33057-.22266-.54004s.07422-.39062.22266-.54346c.14746-.15283.32617-.229.53613-.229.21387,0,.39648.07617.54688.229s.22559.33398.22559.54346-.0752.38965-.22559.54004-.33301.22559-.54688.22559Z" fill="#2f2f2f"/>
        <path d="M719.94434,148.47246h-.99805c1.42188-1.70459,2.13281-3.69824,2.13281-5.98145,0-2.30127-.71582-4.31787-2.14648-6.0498h1.01172c1.42188,1.66797,2.13281,3.68896,2.13281,6.06348,0,2.36523-.71094,4.35449-2.13281,5.96777Z" fill="#2f2f2f"/>
      </g>
    </g>
  </g>
</svg>