<?xml version="1.0" encoding="UTF-8"?>
<svg xmlns="http://www.w3.org/2000/svg" width="655.6" height="191.4" xmlns:xlink="http://www.w3.org/1999/xlink" viewBox="0 0 655.6 191.4">
  <defs>
    <linearGradient id="Cool_gray_gradient_1" data-name="Cool gray gradient 1" x1="8.83548" y1="95.7" x2="215.23335" y2="95.7" gradientUnits="userSpaceOnUse">
      <stop offset="0" stop-color="#f5f5f4"/>
      <stop offset="1" stop-color="#ececea"/>
    </linearGradient>
    <linearGradient id="Cool_gray_gradient_1-2" data-name="Cool gray gradient 1" x1="223.43754" x2="430.23754" xlink:href="#Cool_gray_gradient_1"/>
    <linearGradient id="Cool_gray_gradient_1-3" data-name="Cool gray gradient 1" x1="440" x2="646.8" xlink:href="#Cool_gray_gradient_1"/>
    <linearGradient id="linear-gradient" x1="-305.87043" y1="1943.65548" x2="-305.87043" y2="1973.70095" gradientTransform="translate(564 2035.6) scale(1 -1)" gradientUnits="userSpaceOnUse">
      <stop offset="0" stop-color="#0078d4"/>
      <stop offset=".16" stop-color="#1380da"/>
      <stop offset=".53" stop-color="#3c91e5"/>
      <stop offset=".82" stop-color="#559cec"/>
      <stop offset="1" stop-color="#5ea0ef"/>
    </linearGradient>
    <linearGradient id="linear-gradient-2" x1="-300.45429" y1="1957.66787" x2="-300.45429" y2="1941.03851" gradientTransform="translate(564 2035.6) scale(1 -1)" gradientUnits="userSpaceOnUse">
      <stop offset="0" stop-color="#ffd70f"/>
      <stop offset=".27" stop-color="#ffd310"/>
      <stop offset=".54" stop-color="#ffc613"/>
      <stop offset=".83" stop-color="#feb217"/>
      <stop offset="1" stop-color="#fea11b"/>
    </linearGradient>
  </defs>
  <g isolation="isolate">
    <g id="Shapes">
      <rect width="655.6" height="191.4" fill="#fff"/>
      <g>
        <g mix-blend-mode="multiply" opacity=".65">
          <rect x="9.83548" y="9.8" width="206.39787" height="173.8" rx="8" ry="8" fill="#2b436f"/>
          <rect x="9.83548" y="9.8" width="206.39787" height="173.8" rx="8" ry="8" fill="#2b436f" opacity=".6"/>
        </g>
        <g>
          <rect x="8.83548" y="8.8" width="206.39787" height="173.8" rx="8" ry="8" fill="url(#Cool_gray_gradient_1)"/>
          <rect x="8.83548" y="8.8" width="206.39787" height="173.8" rx="8" ry="8" fill="#8ec8e7" opacity=".6"/>
        </g>
      </g>
      <g>
        <g mix-blend-mode="multiply" opacity=".65">
          <rect x="224.43754" y="9.8" width="206.8" height="173.8" rx="8" ry="8" fill="#2b436f"/>
          <rect x="224.43754" y="9.8" width="206.8" height="173.8" rx="8" ry="8" fill="#2b436f" opacity=".6"/>
        </g>
        <g>
          <rect x="223.43754" y="8.8" width="206.8" height="173.8" rx="8" ry="8" fill="url(#Cool_gray_gradient_1-2)"/>
          <rect x="223.43754" y="8.8" width="206.8" height="173.8" rx="8" ry="8" fill="#8ec8e7" opacity=".6"/>
        </g>
      </g>
      <g>
        <g mix-blend-mode="multiply" opacity=".65">
          <rect x="441" y="9.8" width="206.8" height="173.8" rx="8" ry="8" fill="#2b436f"/>
          <rect x="441" y="9.8" width="206.8" height="173.8" rx="8" ry="8" fill="#2b436f" opacity=".6"/>
        </g>
        <g>
          <rect x="440" y="8.8" width="206.8" height="173.8" rx="8" ry="8" fill="url(#Cool_gray_gradient_1-3)"/>
          <rect x="440" y="8.8" width="206.8" height="173.8" rx="8" ry="8" fill="#8ec8e7" opacity=".6"/>
        </g>
      </g>
      <g>
        <rect x="8.8" y="57.25" width="637.96452" height="44" fill="#fff"/>
        <rect x="8.8" y="57.25" width="637.96452" height="44" fill="#53b1e0" opacity=".07"/>
        <rect x="8.8" y="57.25" width="637.96452" height="44" fill="none" stroke="#53b1e0" stroke-width=".25"/>
      </g>
      <g>
        <path d="M272.05915,79.9694c-.08807-3.06657-2.39072-5.61493-5.4327-6.01241-.17951-4.32244-3.80859-7.69283-8.13249-7.55278-3.44618-.05879-6.55666,2.05687-7.7681,5.28363-3.65245.4422-6.42935,3.49397-6.52587,7.17183.16165,4.17762,3.67283,7.43695,7.85091,7.28777.22605.0169.45304.0169.67909,0h12.7039c.10974.01736.22152.01736.33126,0,3.42409-.01698,6.21335-2.75486,6.29398-6.17804Z" fill="url(#linear-gradient)"/>
        <path id="ba7b3762-4752-4c4a-8a7e-af4c5e383796" d="M256.70515,92.55736v-.99379h0l-1.01035-.34783-.26501-.67909.51346-1.02691v-.11594l-.3147-.3147-.38095-.38095h-.1325l-.99379.49689-.67909-.18219-.43064-1.10973h-.97722l-.33126,1.01035-.74534.33126-1.10973-.6294-.72878.6294v.1325l.49689.97722-.28157.67909-1.14285.49689v1.02691h.14907l1.04348.34782.28157.67909-.53002,1.14286.69565.69565h.13251l.99379-.49689.67909.28157.43064,1.19254h.97722v-.14907l.34783-1.04347.66252-.28157,1.15942.53002.69565-.69565v-.1325l-.49689-.97722.18219-.69565,1.10973-.39751ZM252.54781,93.46833c-.76834.00915-1.39862-.6063-1.40777-1.37464-.00915-.76834.6063-1.39862,1.37464-1.40777s1.39862.6063,1.40777,1.37464c.00007.00549.0001.01098.0001.01646h0c-.03505.73604-.6379,1.31711-1.37474,1.32505v.06625Z" fill="#76bc2d"/>
        <path id="bff6fc37-370d-4b52-9427-43a5a5385267" d="M271.84383,86.99216v-1.93788l-.09938-.08282-2.0207-.69565-.51346-1.32505,1.02691-1.98757.09938-.21532-.61283-.66252-.72878-.77847-.26501.1325-1.93788.99379-1.32505-.38095-.84472-2.1532h-1.92132l-.09938.09938-.66252,1.97101-1.35817.51346-2.23602-1.06004-1.35817,1.35817.1325.26501,1.01035,1.92132-.54658,1.32505-2.3354.84472v1.93788l.28157.08282,2.05383.67909.54658,1.40786-1.06004,2.23602,1.35817,1.37474.26501-.11594,1.93788-.99379,1.32505.54658.84472,2.3354h1.95445v-.41408l.67909-2.05383,1.30849-.54658,2.26915,1.04347,1.35817-1.35817-.1325-.26501-.9441-1.78882.38095-1.35817,2.16977-.89441ZM263.71134,88.78097c-1.50017.00912-2.72369-1.19961-2.73281-2.69979s1.19961-2.72369,2.69979-2.73281c1.50013-.00912,2.72364,1.19955,2.73281,2.69969h0c.00011,1.4965-1.20339,2.71477-2.69979,2.73291Z" fill="url(#linear-gradient-2)"/>
        <path d="M263.71134,88.78097c-1.50017.00912-2.72369-1.19962-2.73281-2.69979-.00912-1.50017,1.19962-2.72369,2.69979-2.73281,1.50013-.00912,2.72364,1.19955,2.73281,2.69969h0c.00011,1.4965-1.20339,2.71477-2.69979,2.73291Z" fill="#fff"/>
      </g>
    </g>
    <g id="Text">
      <g>
        <path d="M60.29492,31.94307h-2.40625l-.69727-2.18066h-3.48633l-.69043,2.18066h-2.39258l3.56836-9.80273h2.61816l3.48633,9.80273ZM56.68555,28.06709l-1.05273-3.29492c-.07764-.24609-.13232-.54004-.16406-.88184h-.05469c-.02295.28711-.07959.57178-.1709.85449l-1.06641,3.32227h2.50879Z" fill="#2f2f2f"/>
        <path d="M67.65967,24.94307l-2.60449,7h-2.46094l-2.48145-7h2.31055l1.2168,4.31348c.13672.48779.21631.90234.23926,1.24414h.02734c.03174-.32373.11621-.72461.25293-1.20312l1.24414-4.35449h2.25586Z" fill="#2f2f2f"/>
        <path d="M74.31543,31.94307h-2.04395v-1.00488h-.02734c-.46924.78369-1.16455,1.17578-2.08496,1.17578-.6792,0-1.21338-.19238-1.60303-.57764s-.58447-.89893-.58447-1.5415c0-1.35791.8042-2.14209,2.41309-2.35156l1.90039-.25293c0-.76562-.41455-1.14844-1.24414-1.14844-.83398,0-1.62695.24854-2.37891.74512v-1.62695c.30078-.15479.71191-.2915,1.23389-.41016s.99707-.17773,1.42529-.17773c1.99609,0,2.99414.99561,2.99414,2.9873v4.18359ZM72.28516,29.09932v-.47168l-1.27148.16406c-.70166.09131-1.05273.40771-1.05273.9502,0,.24609.08545.44775.25635.60498s.40234.23584.69385.23584c.40576,0,.73584-.14014.99121-.42041s.38281-.63477.38281-1.06299Z" fill="#2f2f2f"/>
        <path d="M77.08594,23.83564c-.36475,0-.66309-.1084-.89551-.32471s-.34863-.48193-.34863-.79639c0-.32373.11621-.58789.34863-.79297s.53076-.30762.89551-.30762c.36914,0,.66895.10254.89893.30762s.34521.46924.34521.79297c0,.32812-.11523.59717-.34521.80664s-.52979.31445-.89893.31445ZM78.15234,31.94307h-2.16016v-7h2.16016v7Z" fill="#2f2f2f"/>
        <path d="M82.0874,31.94307h-2.16016v-10.36328h2.16016v10.36328Z" fill="#2f2f2f"/>
        <path d="M89.75244,31.94307h-2.04395v-1.00488h-.02734c-.46924.78369-1.16455,1.17578-2.08496,1.17578-.6792,0-1.21338-.19238-1.60303-.57764s-.58447-.89893-.58447-1.5415c0-1.35791.8042-2.14209,2.41309-2.35156l1.90039-.25293c0-.76562-.41455-1.14844-1.24414-1.14844-.83398,0-1.62695.24854-2.37891.74512v-1.62695c.30078-.15479.71191-.2915,1.23389-.41016s.99707-.17773,1.42529-.17773c1.99609,0,2.99414.99561,2.99414,2.9873v4.18359ZM87.72217,29.09932v-.47168l-1.27148.16406c-.70166.09131-1.05273.40771-1.05273.9502,0,.24609.08545.44775.25635.60498s.40234.23584.69385.23584c.40576,0,.73584-.14014.99121-.42041s.38281-.63477.38281-1.06299Z" fill="#2f2f2f"/>
        <path d="M93.63623,31.12959h-.02734v.81348h-2.16016v-10.36328h2.16016v4.41602h.02734c.5332-.81592,1.29199-1.22363,2.27637-1.22363.90234,0,1.59717.31006,2.08496.92969s.73145,1.46729.73145,2.54297c0,1.1665-.28467,2.10303-.85449,2.80957s-1.33057,1.05957-2.2832,1.05957c-.86133,0-1.51318-.32812-1.95508-.98438ZM93.57471,28.17646v.71777c0,.45117.12988.82471.38965,1.12109s.59229.44434.99805.44434c.49219,0,.87402-.19043,1.14502-.5708s.40674-.91943.40674-1.6167c0-.57861-.12402-1.03125-.37256-1.35693s-.60254-.48877-1.06299-.48877c-.43311,0-.79199.16162-1.07666.48535s-.42725.74512-.42725,1.26465Z" fill="#2f2f2f"/>
        <path d="M101.22412,23.83564c-.36475,0-.66309-.1084-.89551-.32471s-.34863-.48193-.34863-.79639c0-.32373.11621-.58789.34863-.79297s.53076-.30762.89551-.30762c.36914,0,.66895.10254.89893.30762s.34521.46924.34521.79297c0,.32812-.11523.59717-.34521.80664s-.52979.31445-.89893.31445ZM102.29053,31.94307h-2.16016v-7h2.16016v7Z" fill="#2f2f2f"/>
        <path d="M106.22607,31.94307h-2.16016v-10.36328h2.16016v10.36328Z" fill="#2f2f2f"/>
        <path d="M109.09473,23.83564c-.36475,0-.66309-.1084-.89551-.32471s-.34863-.48193-.34863-.79639c0-.32373.11621-.58789.34863-.79297s.53076-.30762.89551-.30762c.36914,0,.66895.10254.89893.30762s.34521.46924.34521.79297c0,.32812-.11523.59717-.34521.80664s-.52979.31445-.89893.31445ZM110.16113,31.94307h-2.16016v-7h2.16016v7Z" fill="#2f2f2f"/>
        <path d="M116.09717,31.86104c-.31885.16846-.7998.25293-1.44238.25293-1.52197,0-2.2832-.79053-2.2832-2.37207v-3.20605h-1.13477v-1.59277h1.13477v-1.51074l2.15332-.61523v2.12598h1.57227v1.59277h-1.57227v2.83008c0,.729.28955,1.09375.86816,1.09375.22803,0,.4624-.06592.7041-.19824v1.59961Z" fill="#2f2f2f"/>
        <path d="M124.32227,24.94307l-2.84375,7.56055c-.68359,1.81836-1.71338,2.72754-3.08984,2.72754-.52393,0-.95459-.05908-1.29199-.17773v-1.72266c.28711.16846.59912.25293.93652.25293.55615,0,.94336-.26221,1.16211-.78613l.36914-.86816-2.84375-6.98633h2.39258l1.30566,4.25879c.08203.26416.146.57666.19141.93652h.02734c.04102-.26416.11621-.57178.22559-.92285l1.31934-4.27246h2.13965Z" fill="#2f2f2f"/>
        <path d="M136.31934,31.94307h-7.89551v-1.27148l5.02441-6.7334h-4.66211v-1.79785h7.51953v1.2373l-4.91504,6.77441h4.92871v1.79102Z" fill="#2f2f2f"/>
        <path d="M140.83789,32.11396c-1.1665,0-2.08398-.32715-2.75146-.98096s-1.00146-1.5415-1.00146-2.6626c0-1.15771.34619-2.06348,1.03906-2.71729s1.62939-.98096,2.80957-.98096c1.16211,0,2.07373.32715,2.73438.98096s.99121,1.51855.99121,2.59424c0,1.16211-.34082,2.08057-1.02197,2.75488s-1.61426,1.01172-2.79932,1.01172ZM140.89258,26.42646c-.51025,0-.90674.17529-1.18945.52637s-.42383.84766-.42383,1.49023c0,1.34424.54248,2.0166,1.62695,2.0166,1.03467,0,1.55176-.69043,1.55176-2.07129,0-1.30811-.52197-1.96191-1.56543-1.96191Z" fill="#2f2f2f"/>
        <path d="M152.80029,31.94307h-2.15332v-3.88965c0-1.08447-.38721-1.62695-1.16211-1.62695-.37354,0-.68115.14355-.92285.43066s-.3623.65186-.3623,1.09375v3.99219h-2.16016v-7h2.16016v1.10742h.02734c.51514-.85205,1.26465-1.27832,2.24902-1.27832,1.54932,0,2.32422.96143,2.32422,2.88477v4.28613Z" fill="#2f2f2f"/>
        <path d="M160.82227,29.0583h-4.56641c.07275,1.01611.71338,1.52441,1.9209,1.52441.77002,0,1.44678-.18213,2.03027-.54688v1.55859c-.64697.34619-1.48779.51953-2.52246.51953-1.13037,0-2.00732-.31348-2.63184-.93994s-.93652-1.50049-.93652-2.62158c0-1.16211.3374-2.08252,1.01172-2.76172s1.50391-1.01855,2.48828-1.01855c1.021,0,1.81055.30322,2.36865.90918s.8374,1.42871.8374,2.46777v.90918ZM158.81934,27.73213c0-1.00244-.40576-1.50391-1.2168-1.50391-.34619,0-.646.14355-.89893.43066s-.40674.64502-.46143,1.07324h2.57715Z" fill="#2f2f2f"/>
        <path d="M170.74805,21.92158v10.02148h-2.15332v-7.58789c-.11865.10498-.25879.2041-.42041.29736s-.33398.17773-.51611.25293-.37158.13916-.56738.19141-.38965.08984-.58105.11279v-1.81836c.56055-.16406,1.08936-.37354,1.58594-.62891s.9458-.53564,1.34668-.84082h1.30566Z" fill="#2f2f2f"/>
      </g>
      <g>
        <path d="M290.95117,85.60029h-2.40625l-.69727-2.18066h-3.48633l-.69043,2.18066h-2.39258l3.56836-9.80273h2.61816l3.48633,9.80273ZM287.3418,81.72432l-1.05273-3.29492c-.07764-.24609-.13232-.54004-.16406-.88184h-.05469c-.02295.28711-.07959.57178-.1709.85449l-1.06641,3.32227h2.50879Z" fill="#2f2f2f"/>
        <path d="M294.13477,84.78682h-.02734v4.0332h-2.16016v-10.21973h2.16016v1.05273h.02734c.5332-.81592,1.28271-1.22363,2.24902-1.22363.90674,0,1.60742.31104,2.10205.93311s.7417,1.46875.7417,2.53955c0,1.1665-.28809,2.10303-.86475,2.80957s-1.34326,1.05957-2.30029,1.05957c-.84326,0-1.48584-.32812-1.92773-.98438ZM294.07324,81.91572v.56055c0,.48291.12744.87744.38281,1.18262s.59033.45801,1.00488.45801c.49219,0,.87402-.19043,1.14502-.5708s.40674-.91943.40674-1.6167c0-1.23047-.47852-1.8457-1.43555-1.8457-.44189,0-.80322.16748-1.0835.50244s-.42041.77832-.42041,1.32959Z" fill="#2f2f2f"/>
        <path d="M302.83203,84.78682h-.02734v4.0332h-2.16016v-10.21973h2.16016v1.05273h.02734c.5332-.81592,1.28271-1.22363,2.24902-1.22363.90674,0,1.60742.31104,2.10205.93311s.7417,1.46875.7417,2.53955c0,1.1665-.28809,2.10303-.86475,2.80957s-1.34326,1.05957-2.30029,1.05957c-.84326,0-1.48584-.32812-1.92773-.98438ZM302.77051,81.91572v.56055c0,.48291.12744.87744.38281,1.18262s.59033.45801,1.00488.45801c.49219,0,.87402-.19043,1.14502-.5708s.40674-.91943.40674-1.6167c0-1.23047-.47852-1.8457-1.43555-1.8457-.44189,0-.80322.16748-1.0835.50244s-.42041.77832-.42041,1.32959Z" fill="#2f2f2f"/>
        <path d="M320.42773,85.25166c-.71533.34619-1.6499.51953-2.80273.51953-1.50391,0-2.68652-.44189-3.54785-1.32617s-1.29199-2.06201-1.29199-3.53418c0-1.56787.48438-2.83936,1.45264-3.81445s2.2251-1.46289,3.77002-1.46289c.95703,0,1.76367.12061,2.41992.3623v2.12598c-.65625-.39209-1.40381-.58789-2.24219-.58789-.92041,0-1.66357.28955-2.22852.86816s-.84766,1.36279-.84766,2.35156c0,.94775.2666,1.70312.7998,2.26611s1.25098.84424,2.15332.84424c.86133,0,1.6499-.20947,2.36523-.62891v2.0166Z" fill="#2f2f2f"/>
        <path d="M325.16992,85.77119c-1.1665,0-2.08398-.32715-2.75146-.98096s-1.00146-1.5415-1.00146-2.6626c0-1.15771.34619-2.06348,1.03906-2.71729s1.62939-.98096,2.80957-.98096c1.16211,0,2.07373.32715,2.73438.98096s.99121,1.51855.99121,2.59424c0,1.16211-.34082,2.08057-1.02197,2.75488s-1.61426,1.01172-2.79932,1.01172ZM325.22461,80.08369c-.51025,0-.90674.17529-1.18945.52637s-.42383.84766-.42383,1.49023c0,1.34424.54248,2.0166,1.62695,2.0166,1.03467,0,1.55176-.69043,1.55176-2.07129,0-1.30811-.52197-1.96191-1.56543-1.96191Z" fill="#2f2f2f"/>
        <path d="M337.13232,85.60029h-2.15332v-3.88965c0-1.08447-.38721-1.62695-1.16211-1.62695-.37354,0-.68115.14355-.92285.43066s-.3623.65186-.3623,1.09375v3.99219h-2.16016v-7h2.16016v1.10742h.02734c.51514-.85205,1.26465-1.27832,2.24902-1.27832,1.54932,0,2.32422.96143,2.32422,2.88477v4.28613Z" fill="#2f2f2f"/>
        <path d="M343.30957,76.89131c-.27783-.10938-.54443-.16406-.7998-.16406-.69287,0-1.03906.37598-1.03906,1.12793v.74512h1.59961v1.59277h-1.59961v5.40723h-2.15332v-5.40723h-1.17578v-1.59277h1.17578v-.86816c0-.79736.25977-1.43994.7793-1.92773s1.22607-.73145,2.11914-.73145c.4375,0,.80225.04541,1.09375.13672v1.68164Z" fill="#2f2f2f"/>
        <path d="M345.36279,77.49287c-.36475,0-.66309-.1084-.89551-.32471s-.34863-.48193-.34863-.79639c0-.32373.11621-.58789.34863-.79297s.53076-.30762.89551-.30762c.36914,0,.66895.10254.89893.30762s.34521.46924.34521.79297c0,.32812-.11523.59717-.34521.80664s-.52979.31445-.89893.31445ZM346.4292,85.60029h-2.16016v-7h2.16016v7Z" fill="#2f2f2f"/>
        <path d="M355.09375,84.80049c0,1.29883-.37598,2.30469-1.12793,3.01807s-1.84131,1.06982-3.26758,1.06982c-.94336,0-1.69092-.13428-2.24219-.40332v-1.81836c.72021.41943,1.44678.62891,2.18066.62891.729,0,1.29443-.19238,1.69531-.57764s.60156-.9082.60156-1.56885v-.55371h-.02734c-.49219.78369-1.21924,1.17578-2.18066,1.17578-.89307,0-1.60205-.31445-2.12598-.94336s-.78613-1.47217-.78613-2.5293c0-1.18506.2915-2.12598.875-2.82324s1.35107-1.0459,2.30371-1.0459c.85205,0,1.49023.32812,1.91406.98438h.02734v-.81348h2.16016v6.2002ZM352.96094,82.23701v-.55371c0-.44189-.13086-.81934-.39307-1.13135s-.60254-.46826-1.02197-.46826c-.47852,0-.85449.18701-1.12793.56055s-.41016.8999-.41016,1.5791c0,.5835.12988,1.04492.38965,1.38428s.61523.50928,1.06641.50928c.44678,0,.80762-.17188,1.0835-.51611s.41357-.79883.41357-1.36377Z" fill="#2f2f2f"/>
        <path d="M363.54443,85.60029h-2.15332v-1.06641h-.03418c-.5332.82471-1.24658,1.2373-2.13965,1.2373-1.62256,0-2.43359-.98193-2.43359-2.94629v-4.22461h2.15332v4.0332c0,.98877.39209,1.4834,1.17578,1.4834.38721,0,.69727-.13574.92969-.40674s.34863-.63916.34863-1.104v-4.00586h2.15332v7Z" fill="#2f2f2f"/>
        <path d="M369.87891,80.54854c-.25977-.14111-.56299-.21191-.90918-.21191-.46924,0-.83643.17188-1.10059.51611s-.39648.8125-.39648,1.40479v3.34277h-2.16016v-7h2.16016v1.29883h.02734c.3418-.94775.95703-1.42188,1.8457-1.42188.22803,0,.40576.02734.5332.08203v1.98926Z" fill="#2f2f2f"/>
        <path d="M376.60303,85.60029h-2.04395v-1.00488h-.02734c-.46924.78369-1.16455,1.17578-2.08496,1.17578-.6792,0-1.21338-.19238-1.60303-.57764s-.58447-.89893-.58447-1.5415c0-1.35791.8042-2.14209,2.41309-2.35156l1.90039-.25293c0-.76562-.41455-1.14844-1.24414-1.14844-.83398,0-1.62695.24854-2.37891.74512v-1.62695c.30078-.15479.71191-.2915,1.23389-.41016s.99707-.17773,1.42529-.17773c1.99609,0,2.99414.99561,2.99414,2.9873v4.18359ZM374.57275,82.75654v-.47168l-1.27148.16406c-.70166.09131-1.05273.40771-1.05273.9502,0,.24609.08545.44775.25635.60498s.40234.23584.69385.23584c.40576,0,.73584-.14014.99121-.42041s.38281-.63477.38281-1.06299Z" fill="#2f2f2f"/>
        <path d="M382.43115,85.51826c-.31885.16846-.7998.25293-1.44238.25293-1.52197,0-2.2832-.79053-2.2832-2.37207v-3.20605h-1.13477v-1.59277h1.13477v-1.51074l2.15332-.61523v2.12598h1.57227v1.59277h-1.57227v2.83008c0,.729.28955,1.09375.86816,1.09375.22803,0,.4624-.06592.7041-.19824v1.59961Z" fill="#2f2f2f"/>
        <path d="M384.80908,77.49287c-.36475,0-.66309-.1084-.89551-.32471s-.34863-.48193-.34863-.79639c0-.32373.11621-.58789.34863-.79297s.53076-.30762.89551-.30762c.36914,0,.66895.10254.89893.30762s.34521.46924.34521.79297c0,.32812-.11523.59717-.34521.80664s-.52979.31445-.89893.31445ZM385.87549,85.60029h-2.16016v-7h2.16016v7Z" fill="#2f2f2f"/>
        <path d="M390.98633,85.77119c-1.1665,0-2.08398-.32715-2.75146-.98096s-1.00146-1.5415-1.00146-2.6626c0-1.15771.34619-2.06348,1.03906-2.71729s1.62939-.98096,2.80957-.98096c1.16211,0,2.07373.32715,2.73438.98096s.99121,1.51855.99121,2.59424c0,1.16211-.34082,2.08057-1.02197,2.75488s-1.61426,1.01172-2.79932,1.01172ZM391.04102,80.08369c-.51025,0-.90674.17529-1.18945.52637s-.42383.84766-.42383,1.49023c0,1.34424.54248,2.0166,1.62695,2.0166,1.03467,0,1.55176-.69043,1.55176-2.07129,0-1.30811-.52197-1.96191-1.56543-1.96191Z" fill="#2f2f2f"/>
        <path d="M402.94873,85.60029h-2.15332v-3.88965c0-1.08447-.38721-1.62695-1.16211-1.62695-.37354,0-.68115.14355-.92285.43066s-.3623.65186-.3623,1.09375v3.99219h-2.16016v-7h2.16016v1.10742h.02734c.51514-.85205,1.26465-1.27832,2.24902-1.27832,1.54932,0,2.32422.96143,2.32422,2.88477v4.28613Z" fill="#2f2f2f"/>
      </g>
      <g>
        <path d="M275.29883,31.94307h-2.40625l-.69727-2.18066h-3.48633l-.69043,2.18066h-2.39258l3.56836-9.80273h2.61816l3.48633,9.80273ZM271.68945,28.06709l-1.05273-3.29492c-.07764-.24609-.13232-.54004-.16406-.88184h-.05469c-.02295.28711-.07959.57178-.1709.85449l-1.06641,3.32227h2.50879Z" fill="#2f2f2f"/>
        <path d="M282.66357,24.94307l-2.60449,7h-2.46094l-2.48145-7h2.31055l1.2168,4.31348c.13672.48779.21631.90234.23926,1.24414h.02734c.03174-.32373.11621-.72461.25293-1.20312l1.24414-4.35449h2.25586Z" fill="#2f2f2f"/>
        <path d="M289.31934,31.94307h-2.04395v-1.00488h-.02734c-.46924.78369-1.16455,1.17578-2.08496,1.17578-.6792,0-1.21338-.19238-1.60303-.57764s-.58447-.89893-.58447-1.5415c0-1.35791.8042-2.14209,2.41309-2.35156l1.90039-.25293c0-.76562-.41455-1.14844-1.24414-1.14844-.83398,0-1.62695.24854-2.37891.74512v-1.62695c.30078-.15479.71191-.2915,1.23389-.41016s.99707-.17773,1.42529-.17773c1.99609,0,2.99414.99561,2.99414,2.9873v4.18359ZM287.28906,29.09932v-.47168l-1.27148.16406c-.70166.09131-1.05273.40771-1.05273.9502,0,.24609.08545.44775.25635.60498s.40234.23584.69385.23584c.40576,0,.73584-.14014.99121-.42041s.38281-.63477.38281-1.06299Z" fill="#2f2f2f"/>
        <path d="M292.08984,23.83564c-.36475,0-.66309-.1084-.89551-.32471s-.34863-.48193-.34863-.79639c0-.32373.11621-.58789.34863-.79297s.53076-.30762.89551-.30762c.36914,0,.66895.10254.89893.30762s.34521.46924.34521.79297c0,.32812-.11523.59717-.34521.80664s-.52979.31445-.89893.31445ZM293.15625,31.94307h-2.16016v-7h2.16016v7Z" fill="#2f2f2f"/>
        <path d="M297.09131,31.94307h-2.16016v-10.36328h2.16016v10.36328Z" fill="#2f2f2f"/>
        <path d="M304.75635,31.94307h-2.04395v-1.00488h-.02734c-.46924.78369-1.16455,1.17578-2.08496,1.17578-.6792,0-1.21338-.19238-1.60303-.57764s-.58447-.89893-.58447-1.5415c0-1.35791.8042-2.14209,2.41309-2.35156l1.90039-.25293c0-.76562-.41455-1.14844-1.24414-1.14844-.83398,0-1.62695.24854-2.37891.74512v-1.62695c.30078-.15479.71191-.2915,1.23389-.41016s.99707-.17773,1.42529-.17773c1.99609,0,2.99414.99561,2.99414,2.9873v4.18359ZM302.72607,29.09932v-.47168l-1.27148.16406c-.70166.09131-1.05273.40771-1.05273.9502,0,.24609.08545.44775.25635.60498s.40234.23584.69385.23584c.40576,0,.73584-.14014.99121-.42041s.38281-.63477.38281-1.06299Z" fill="#2f2f2f"/>
        <path d="M308.64014,31.12959h-.02734v.81348h-2.16016v-10.36328h2.16016v4.41602h.02734c.5332-.81592,1.29199-1.22363,2.27637-1.22363.90234,0,1.59717.31006,2.08496.92969s.73145,1.46729.73145,2.54297c0,1.1665-.28467,2.10303-.85449,2.80957s-1.33057,1.05957-2.2832,1.05957c-.86133,0-1.51318-.32812-1.95508-.98438ZM308.57861,28.17646v.71777c0,.45117.12988.82471.38965,1.12109s.59229.44434.99805.44434c.49219,0,.87402-.19043,1.14502-.5708s.40674-.91943.40674-1.6167c0-.57861-.12402-1.03125-.37256-1.35693s-.60254-.48877-1.06299-.48877c-.43311,0-.79199.16162-1.07666.48535s-.42725.74512-.42725,1.26465Z" fill="#2f2f2f"/>
        <path d="M316.22803,23.83564c-.36475,0-.66309-.1084-.89551-.32471s-.34863-.48193-.34863-.79639c0-.32373.11621-.58789.34863-.79297s.53076-.30762.89551-.30762c.36914,0,.66895.10254.89893.30762s.34521.46924.34521.79297c0,.32812-.11523.59717-.34521.80664s-.52979.31445-.89893.31445ZM317.29443,31.94307h-2.16016v-7h2.16016v7Z" fill="#2f2f2f"/>
        <path d="M321.22998,31.94307h-2.16016v-10.36328h2.16016v10.36328Z" fill="#2f2f2f"/>
        <path d="M324.09863,23.83564c-.36475,0-.66309-.1084-.89551-.32471s-.34863-.48193-.34863-.79639c0-.32373.11621-.58789.34863-.79297s.53076-.30762.89551-.30762c.36914,0,.66895.10254.89893.30762s.34521.46924.34521.79297c0,.32812-.11523.59717-.34521.80664s-.52979.31445-.89893.31445ZM325.16504,31.94307h-2.16016v-7h2.16016v7Z" fill="#2f2f2f"/>
        <path d="M331.10107,31.86104c-.31885.16846-.7998.25293-1.44238.25293-1.52197,0-2.2832-.79053-2.2832-2.37207v-3.20605h-1.13477v-1.59277h1.13477v-1.51074l2.15332-.61523v2.12598h1.57227v1.59277h-1.57227v2.83008c0,.729.28955,1.09375.86816,1.09375.22803,0,.4624-.06592.7041-.19824v1.59961Z" fill="#2f2f2f"/>
        <path d="M339.32617,24.94307l-2.84375,7.56055c-.68359,1.81836-1.71338,2.72754-3.08984,2.72754-.52393,0-.95459-.05908-1.29199-.17773v-1.72266c.28711.16846.59912.25293.93652.25293.55615,0,.94336-.26221,1.16211-.78613l.36914-.86816-2.84375-6.98633h2.39258l1.30566,4.25879c.08203.26416.146.57666.19141.93652h.02734c.04102-.26416.11621-.57178.22559-.92285l1.31934-4.27246h2.13965Z" fill="#2f2f2f"/>
        <path d="M351.32324,31.94307h-7.89551v-1.27148l5.02441-6.7334h-4.66211v-1.79785h7.51953v1.2373l-4.91504,6.77441h4.92871v1.79102Z" fill="#2f2f2f"/>
        <path d="M355.8418,32.11396c-1.1665,0-2.08398-.32715-2.75146-.98096s-1.00146-1.5415-1.00146-2.6626c0-1.15771.34619-2.06348,1.03906-2.71729s1.62939-.98096,2.80957-.98096c1.16211,0,2.07373.32715,2.73438.98096s.99121,1.51855.99121,2.59424c0,1.16211-.34082,2.08057-1.02197,2.75488s-1.61426,1.01172-2.79932,1.01172ZM355.89648,26.42646c-.51025,0-.90674.17529-1.18945.52637s-.42383.84766-.42383,1.49023c0,1.34424.54248,2.0166,1.62695,2.0166,1.03467,0,1.55176-.69043,1.55176-2.07129,0-1.30811-.52197-1.96191-1.56543-1.96191Z" fill="#2f2f2f"/>
        <path d="M367.8042,31.94307h-2.15332v-3.88965c0-1.08447-.38721-1.62695-1.16211-1.62695-.37354,0-.68115.14355-.92285.43066s-.3623.65186-.3623,1.09375v3.99219h-2.16016v-7h2.16016v1.10742h.02734c.51514-.85205,1.26465-1.27832,2.24902-1.27832,1.54932,0,2.32422.96143,2.32422,2.88477v4.28613Z" fill="#2f2f2f"/>
        <path d="M375.82617,29.0583h-4.56641c.07275,1.01611.71338,1.52441,1.9209,1.52441.77002,0,1.44678-.18213,2.03027-.54688v1.55859c-.64697.34619-1.48779.51953-2.52246.51953-1.13037,0-2.00732-.31348-2.63184-.93994s-.93652-1.50049-.93652-2.62158c0-1.16211.3374-2.08252,1.01172-2.76172s1.50391-1.01855,2.48828-1.01855c1.021,0,1.81055.30322,2.36865.90918s.8374,1.42871.8374,2.46777v.90918ZM373.82324,27.73213c0-1.00244-.40576-1.50391-1.2168-1.50391-.34619,0-.646.14355-.89893.43066s-.40674.64502-.46143,1.07324h2.57715Z" fill="#2f2f2f"/>
        <path d="M382.99707,30.15205h4.15625v1.79102h-6.52148v-.73828c0-.50146.08447-.95117.25293-1.3501s.38037-.75635.63574-1.07324.53418-.59717.8374-.84082.59131-.46387.86475-.65967c.28711-.20508.53906-.40088.75537-.58789s.39893-.37256.54688-.55713.25879-.37158.33154-.56055.10938-.39062.10938-.60498c0-.41943-.11865-.73584-.35547-.9502s-.59912-.32129-1.08691-.32129c-.84326,0-1.6499.33496-2.41992,1.00488v-1.90039c.85205-.55127,1.81396-.82715,2.88477-.82715.49658,0,.94238.06494,1.33643.19482s.72803.31543,1.00146.55713.48193.53418.62549.87842.21533.72803.21533,1.15186c0,.45117-.06934.85205-.2085,1.20312s-.32373.66992-.55371.95703-.49561.55029-.79639.78955-.61279.4707-.93652.69385c-.21875.15479-.42969.30859-.63232.46143s-.38184.30322-.53662.45117-.27783.29297-.36914.43408-.13672.27588-.13672.40332Z" fill="#2f2f2f"/>
      </g>
      <g>
        <path d="M491.86133,31.94307h-2.40625l-.69727-2.18066h-3.48633l-.69043,2.18066h-2.39258l3.56836-9.80273h2.61816l3.48633,9.80273ZM488.25195,28.06709l-1.05273-3.29492c-.07715-.24609-.13184-.54004-.16406-.88184h-.05469c-.02246.28711-.0791.57178-.1709.85449l-1.06641,3.32227h2.50879Z" fill="#2f2f2f"/>
        <path d="M499.22656,24.94307l-2.60449,7h-2.46094l-2.48145-7h2.31055l1.2168,4.31348c.13672.48779.21582.90234.23926,1.24414h.02734c.03125-.32373.11621-.72461.25293-1.20312l1.24414-4.35449h2.25586Z" fill="#2f2f2f"/>
        <path d="M505.88184,31.94307h-2.04395v-1.00488h-.02734c-.46875.78369-1.16406,1.17578-2.08496,1.17578-.67871,0-1.21289-.19238-1.60254-.57764s-.58496-.89893-.58496-1.5415c0-1.35791.80469-2.14209,2.41309-2.35156l1.90039-.25293c0-.76562-.41406-1.14844-1.24414-1.14844-.83398,0-1.62695.24854-2.37891.74512v-1.62695c.30078-.15479.71191-.2915,1.23438-.41016.52148-.11865.99707-.17773,1.4248-.17773,1.99609,0,2.99414.99561,2.99414,2.9873v4.18359ZM503.85156,29.09932v-.47168l-1.27148.16406c-.70117.09131-1.05273.40771-1.05273.9502,0,.24609.08594.44775.25684.60498s.40234.23584.69336.23584c.40625,0,.73633-.14014.99121-.42041.25586-.28027.38281-.63477.38281-1.06299Z" fill="#2f2f2f"/>
        <path d="M508.65234,23.83564c-.36426,0-.66309-.1084-.89551-.32471s-.34863-.48193-.34863-.79639c0-.32373.11621-.58789.34863-.79297s.53125-.30762.89551-.30762c.36914,0,.66895.10254.89941.30762.22949.20508.34473.46924.34473.79297,0,.32812-.11523.59717-.34473.80664-.23047.20947-.53027.31445-.89941.31445ZM509.71875,31.94307h-2.16016v-7h2.16016v7Z" fill="#2f2f2f"/>
        <path d="M513.6543,31.94307h-2.16016v-10.36328h2.16016v10.36328Z" fill="#2f2f2f"/>
        <path d="M521.31934,31.94307h-2.04395v-1.00488h-.02734c-.46973.78369-1.16504,1.17578-2.08496,1.17578-.67969,0-1.21387-.19238-1.60352-.57764s-.58398-.89893-.58398-1.5415c0-1.35791.80371-2.14209,2.41309-2.35156l1.90039-.25293c0-.76562-.41504-1.14844-1.24414-1.14844-.83398,0-1.62695.24854-2.37891.74512v-1.62695c.30078-.15479.71191-.2915,1.2334-.41016.52246-.11865.99707-.17773,1.42578-.17773,1.99609,0,2.99414.99561,2.99414,2.9873v4.18359ZM519.28906,29.09932v-.47168l-1.27148.16406c-.70215.09131-1.05273.40771-1.05273.9502,0,.24609.08496.44775.25586.60498s.40234.23584.69434.23584c.40527,0,.73535-.14014.99121-.42041.25488-.28027.38281-.63477.38281-1.06299Z" fill="#2f2f2f"/>
        <path d="M525.20312,31.12959h-.02734v.81348h-2.16016v-10.36328h2.16016v4.41602h.02734c.5332-.81592,1.29199-1.22363,2.27637-1.22363.90234,0,1.59668.31006,2.08496.92969.4873.61963.73145,1.46729.73145,2.54297,0,1.1665-.28516,2.10303-.85449,2.80957-.57031.70654-1.33105,1.05957-2.2832,1.05957-.86133,0-1.51367-.32812-1.95508-.98438ZM525.1416,28.17646v.71777c0,.45117.12988.82471.38965,1.12109s.5918.44434.99805.44434c.49219,0,.87402-.19043,1.14453-.5708.27148-.38037.40723-.91943.40723-1.6167,0-.57861-.12402-1.03125-.37305-1.35693-.24805-.32568-.60254-.48877-1.0625-.48877-.43359,0-.79199.16162-1.07715.48535-.28418.32373-.42676.74512-.42676,1.26465Z" fill="#2f2f2f"/>
        <path d="M532.79102,23.83564c-.36523,0-.66309-.1084-.89551-.32471s-.34863-.48193-.34863-.79639c0-.32373.11621-.58789.34863-.79297s.53027-.30762.89551-.30762c.36914,0,.66895.10254.89844.30762.23047.20508.3457.46924.3457.79297,0,.32812-.11523.59717-.3457.80664-.22949.20947-.5293.31445-.89844.31445ZM533.85742,31.94307h-2.16016v-7h2.16016v7Z" fill="#2f2f2f"/>
        <path d="M537.79297,31.94307h-2.16016v-10.36328h2.16016v10.36328Z" fill="#2f2f2f"/>
        <path d="M540.66113,23.83564c-.36426,0-.66309-.1084-.89551-.32471s-.34863-.48193-.34863-.79639c0-.32373.11621-.58789.34863-.79297s.53125-.30762.89551-.30762c.36914,0,.66895.10254.89941.30762.22949.20508.34473.46924.34473.79297,0,.32812-.11523.59717-.34473.80664-.23047.20947-.53027.31445-.89941.31445ZM541.72754,31.94307h-2.16016v-7h2.16016v7Z" fill="#2f2f2f"/>
        <path d="M547.66406,31.86104c-.31934.16846-.7998.25293-1.44238.25293-1.52246,0-2.2832-.79053-2.2832-2.37207v-3.20605h-1.13477v-1.59277h1.13477v-1.51074l2.15332-.61523v2.12598h1.57227v1.59277h-1.57227v2.83008c0,.729.28906,1.09375.86816,1.09375.22754,0,.46191-.06592.7041-.19824v1.59961Z" fill="#2f2f2f"/>
        <path d="M555.88867,24.94307l-2.84375,7.56055c-.68359,1.81836-1.71289,2.72754-3.08984,2.72754-.52344,0-.9541-.05908-1.29199-.17773v-1.72266c.28711.16846.59961.25293.93652.25293.55664,0,.94336-.26221,1.16211-.78613l.36914-.86816-2.84375-6.98633h2.39258l1.30566,4.25879c.08203.26416.14648.57666.19141.93652h.02734c.04102-.26416.11621-.57178.22559-.92285l1.31934-4.27246h2.13965Z" fill="#2f2f2f"/>
        <path d="M567.88574,31.94307h-7.89551v-1.27148l5.02441-6.7334h-4.66211v-1.79785h7.51953v1.2373l-4.91504,6.77441h4.92871v1.79102Z" fill="#2f2f2f"/>
        <path d="M572.4043,32.11396c-1.16602,0-2.08398-.32715-2.75098-.98096-.66797-.65381-1.00195-1.5415-1.00195-2.6626,0-1.15771.34668-2.06348,1.03906-2.71729.69336-.65381,1.62988-.98096,2.80957-.98096,1.16211,0,2.07422.32715,2.73438.98096.66113.65381.99121,1.51855.99121,2.59424,0,1.16211-.34082,2.08057-1.02148,2.75488-.68164.67432-1.61426,1.01172-2.7998,1.01172ZM572.45898,26.42646c-.50977,0-.90625.17529-1.18945.52637-.28223.35107-.42383.84766-.42383,1.49023,0,1.34424.54297,2.0166,1.62695,2.0166,1.03516,0,1.55176-.69043,1.55176-2.07129,0-1.30811-.52148-1.96191-1.56543-1.96191Z" fill="#2f2f2f"/>
        <path d="M584.36719,31.94307h-2.15332v-3.88965c0-1.08447-.3877-1.62695-1.16211-1.62695-.37402,0-.68164.14355-.92285.43066-.24219.28711-.3623.65186-.3623,1.09375v3.99219h-2.16016v-7h2.16016v1.10742h.02734c.51465-.85205,1.26465-1.27832,2.24902-1.27832,1.54883,0,2.32422.96143,2.32422,2.88477v4.28613Z" fill="#2f2f2f"/>
        <path d="M592.38867,29.0583h-4.56641c.07324,1.01611.71387,1.52441,1.9209,1.52441.77051,0,1.44727-.18213,2.03027-.54688v1.55859c-.64648.34619-1.4873.51953-2.52246.51953-1.12988,0-2.00684-.31348-2.63184-.93994-.62402-.62646-.93652-1.50049-.93652-2.62158,0-1.16211.33789-2.08252,1.01172-2.76172.6748-.6792,1.50391-1.01855,2.48828-1.01855,1.02148,0,1.81055.30322,2.36914.90918.55762.60596.83691,1.42871.83691,2.46777v.90918ZM590.38574,27.73213c0-1.00244-.40527-1.50391-1.2168-1.50391-.3457,0-.64551.14355-.89844.43066s-.40723.64502-.46191,1.07324h2.57715Z" fill="#2f2f2f"/>
        <path d="M597.42676,31.62178v-1.87988c.65625.47852,1.42188.71777,2.29688.71777.55176,0,.98145-.11865,1.28906-.35547s.46094-.56738.46094-.99121c0-.4375-.19043-.7749-.57031-1.01172-.38086-.23682-.90332-.35547-1.56934-.35547h-.90918v-1.6543h.84082c1.27637,0,1.91406-.42383,1.91406-1.27148,0-.79736-.48926-1.19629-1.46973-1.19629-.65625,0-1.29395.21191-1.91406.63574v-1.76367c.68848-.34619,1.49023-.51953,2.40625-.51953,1.00293,0,1.7832.22559,2.3418.67676.55762.45117.83691,1.03662.83691,1.75684,0,1.28076-.64941,2.08252-1.94824,2.40625v.03418c.69336.08643,1.24023.33838,1.64062.75537.40137.41699.60156.92871.60156,1.53467,0,.91602-.33496,1.64062-1.00488,2.17383s-1.59473.7998-2.77539.7998c-1.01172,0-1.83398-.16406-2.46777-.49219Z" fill="#2f2f2f"/>
      </g>
    </g>
  </g>
</svg>