<?xml version="1.0" encoding="UTF-8"?>
<svg xmlns="http://www.w3.org/2000/svg" width="655.6" height="321.2" xmlns:xlink="http://www.w3.org/1999/xlink" viewBox="0 0 655.6 321.2">
  <defs>
    <linearGradient id="Cool_gray_gradient_1" data-name="Cool gray gradient 1" x1="8.83548" y1="160.6" x2="215.23335" y2="160.6" gradientUnits="userSpaceOnUse">
      <stop offset="0" stop-color="#f5f5f4"/>
      <stop offset="1" stop-color="#ececea"/>
    </linearGradient>
    <linearGradient id="Cool_gray_gradient_1-2" data-name="Cool gray gradient 1" x1="223.43754" x2="430.23754" xlink:href="#Cool_gray_gradient_1"/>
    <linearGradient id="Cool_gray_gradient_1-3" data-name="Cool gray gradient 1" x1="440" x2="646.8" xlink:href="#Cool_gray_gradient_1"/>
    <linearGradient id="linear-gradient" x1="-372.20003" y1="1749.11971" x2="-372.20003" y2="1783.89713" gradientTransform="translate(564 1908) scale(1 -1)" gradientUnits="userSpaceOnUse">
      <stop offset="0" stop-color="#5e9624"/>
      <stop offset=".02" stop-color="#5f9724"/>
      <stop offset="1" stop-color="#76bc2d"/>
    </linearGradient>
    <linearGradient id="linear-gradient-2" x1="-313.05348" y1="883.8097" x2="-313.05348" y2="876.05068" gradientTransform="translate(564 958) scale(1 -1)" gradientUnits="userSpaceOnUse">
      <stop offset=".23" stop-color="#5ea0ef"/>
      <stop offset=".93" stop-color="#127fd9"/>
    </linearGradient>
    <linearGradient id="linear-gradient-3" x1="-309.21227" y1="880.58225" x2="-309.21227" y2="872.82497" gradientTransform="translate(564 958) scale(1 -1)" gradientUnits="userSpaceOnUse">
      <stop offset=".02" stop-color="#5ea0ef"/>
      <stop offset=".93" stop-color="#127fd9"/>
    </linearGradient>
    <linearGradient id="linear-gradient-4" x1="-20.6" y1="1678.96481" x2="-20.6" y2="1696.28291" gradientTransform="translate(564 1908) scale(1 -1)" gradientUnits="userSpaceOnUse">
      <stop offset="0" stop-color="#0078d4"/>
      <stop offset=".82" stop-color="#5ea0ef"/>
    </linearGradient>
    <linearGradient id="linear-gradient-5" x1="-20.6" y1="1672.28291" x2="-20.6" y2="1678.96481" gradientTransform="translate(564 1908) scale(1 -1)" gradientUnits="userSpaceOnUse">
      <stop offset=".15" stop-color="#ccc"/>
      <stop offset="1" stop-color="#707070"/>
    </linearGradient>
    <linearGradient id="linear-gradient-6" x1="-237.16246" x2="-237.16246" xlink:href="#linear-gradient-4"/>
    <linearGradient id="linear-gradient-7" x1="-237.16246" x2="-237.16246" xlink:href="#linear-gradient-5"/>
    <linearGradient id="linear-gradient-8" x1="-452.16665" x2="-452.16665" xlink:href="#linear-gradient-4"/>
    <linearGradient id="linear-gradient-9" x1="-452.16665" x2="-452.16665" xlink:href="#linear-gradient-5"/>
  </defs>
  <g isolation="isolate">
    <g id="Shapes">
      <rect width="655.6" height="321.2" fill="#fff"/>
      <g>
        <g mix-blend-mode="multiply" opacity=".65">
          <rect x="9.83548" y="9.8" width="206.39787" height="303.6" rx="8" ry="8" fill="#2b436f"/>
          <rect x="9.83548" y="9.8" width="206.39787" height="303.6" rx="8" ry="8" fill="#2b436f" opacity=".6"/>
        </g>
        <g>
          <rect x="8.83548" y="8.8" width="206.39787" height="303.6" rx="8" ry="8" fill="url(#Cool_gray_gradient_1)"/>
          <rect x="8.83548" y="8.8" width="206.39787" height="303.6" rx="8" ry="8" fill="#8ec8e7" opacity=".6"/>
        </g>
      </g>
      <g>
        <g mix-blend-mode="multiply" opacity=".65">
          <rect x="224.43754" y="9.8" width="206.8" height="303.6" rx="8" ry="8" fill="#2b436f"/>
          <rect x="224.43754" y="9.8" width="206.8" height="303.6" rx="8" ry="8" fill="#2b436f" opacity=".6"/>
        </g>
        <g>
          <rect x="223.43754" y="8.8" width="206.8" height="303.6" rx="8" ry="8" fill="url(#Cool_gray_gradient_1-2)"/>
          <rect x="223.43754" y="8.8" width="206.8" height="303.6" rx="8" ry="8" fill="#8ec8e7" opacity=".6"/>
        </g>
      </g>
      <g>
        <g mix-blend-mode="multiply" opacity=".65">
          <rect x="441" y="9.8" width="206.8" height="303.6" rx="8" ry="8" fill="#2b436f"/>
          <rect x="441" y="9.8" width="206.8" height="303.6" rx="8" ry="8" fill="#2b436f" opacity=".6"/>
        </g>
        <g>
          <rect x="440" y="8.8" width="206.8" height="303.6" rx="8" ry="8" fill="url(#Cool_gray_gradient_1-3)"/>
          <rect x="440" y="8.8" width="206.8" height="303.6" rx="8" ry="8" fill="#8ec8e7" opacity=".6"/>
        </g>
      </g>
      <g>
        <rect x="8.83548" y="118.8" width="637.96452" height="44" fill="#fff"/>
        <rect x="8.83548" y="118.8" width="637.96452" height="44" fill="#d3ec8e" opacity=".25"/>
        <rect x="8.83548" y="118.8" width="637.96452" height="44" fill="none" opacity=".7" stroke="#8bc63f" stroke-width=".25"/>
      </g>
      <g>
        <rect x="8.8" y="57.25" width="637.96452" height="44" fill="#fff"/>
        <rect x="8.8" y="57.25" width="637.96452" height="44" fill="#53b1e0" opacity=".07"/>
        <rect x="8.8" y="57.25" width="637.96452" height="44" fill="none" stroke="#53b1e0" stroke-width=".25"/>
      </g>
      <g>
        <path d="M177.10247,140.08349l13.98095-13.98095c.38511-.39574,1.01811-.40435,1.41384-.01925.0065.00633.01292.01274.01925.01925l13.98095,13.98095c.39574.38511.40435,1.01811.01925,1.41384-.00633.0065-.01275.01292-.01925.01925l-13.99762,13.99762c-.38878.38108-1.01098.38108-1.39976,0l-13.99762-13.99762c-.39574-.38511-.40435-1.0181-.01925-1.41384.00633-.0065.01275-.01292.01925-.01925Z" fill="url(#linear-gradient)"/>
        <path d="M195.46601,132.46812l-3.53273-3.51607c-.07591-.06789-.19071-.06789-.26662,0l-3.53273,3.51607c-.07635.05138-.0966.15493-.04522.23128.03914.05817.1105.08561.17853.06867h2.06631c.10123,0,.1833.08207.1833.1833v3.33277c0,.10124.08207.1833.1833.1833h2.19963c.10123,0,.1833-.08207.1833-.1833v-3.33277c0-.10124.08207-.1833.1833-.1833h2.06631c.0893.02225.17973-.03211.20198-.12141.01695-.06803-.0105-.13939-.06867-.17853Z" fill="#b4ec36"/>
        <path d="M183.46806,136.81738l-3.4994,3.5494c-.06562.0704-.06562.17956,0,.24996l3.4994,3.51607c.06939.07371.1854.07722.25911.00783.03875-.03647.05973-.08798.0575-.14114v-2.04965c0-.10123.08207-.1833.1833-.1833h3.33277c.09203.00046.16701-.07377.16747-.1658.00003-.00584-.00025-.01169-.00083-.0175v-2.19963c.04718-.07902.02137-.18132-.05765-.2285-.01813-.01082-.03815-.01811-.059-.02145h-3.33277c-.09157.0092-.17326-.05757-.18247-.14914-.00058-.00582-.00086-.01166-.00083-.0175v-2.01632c.03681-.10124-.01541-.21314-.11665-.24996-.10123-.03681-.21314.01541-.24996.11665Z" fill="#b4ec36"/>
        <path d="M200.2652,144.1328l3.54939-3.53273c.06562-.0704.06562-.17956,0-.24996l-3.54939-3.53273c-.07801-.06452-.19356-.05358-.25807.02444-.02544.03076-.04014.06899-.04188.10888v2.08298c.00046.09203-.07377.16701-.1658.16747-.00584.00003-.01169-.00025-.0175-.00083h-3.33277c-.09203-.00046-.16701.07377-.16747.1658-.00003.00585.00025.01169.00083.0175v2.19963c-.0092.09157.05757.17326.14914.18247.00581.00058.01166.00086.0175.00083h3.33277c.10123,0,.1833.08207.1833.1833v2.06631c.01297.1004.10488.17127.20528.1583.0349-.00451.06777-.01897.09467-.04165Z" fill="#b4ec36"/>
        <path d="M196.44918,140.80003c.01591-2.56764-2.05267-4.66202-4.62031-4.67793-2.56764-.01591-4.66202,2.05267-4.67793,4.62031-.01299,2.09698,1.37942,3.9431,3.39924,4.50686v1.58306c-1.39812.72245-1.94586,2.44151-1.22341,3.83963.72245,1.39812,2.44151,1.94586,3.83963,1.22341,1.39812-.72245,1.94586-2.44151,1.22341-3.83963-.27115-.52474-.69866-.95226-1.22341-1.22341v-1.66638c1.93034-.58217,3.25947-2.34984,3.28277-4.36592Z" fill="#fff"/>
        <circle id="e99c3387-15c3-4f28-bd4b-cb209b430e06" cx="191.81663" cy="140.78337" r="2.69954" fill="#5ea0ef"/>
      </g>
      <g id="a5229e7a-2c78-4db9-99cc-ca7fbe64368b">
        <g>
          <path d="M252.43669,74.19116h-3.10913c-2.14248.02209-3.86139,1.77683-3.83929,3.9193.01939,1.87997,1.38397,3.47547,3.23819,3.78616-.06955-.48084-.05435-.97015.04491-1.44575-1.3184-.30276-2.14173-1.61697-1.83897-2.93537.25674-1.11799,1.255-1.90803,2.40206-1.90106h3.10913c1.35653.00063,2.45571,1.10082,2.45508,2.45735-.00063,1.35564-1.09944,2.45445-2.45508,2.45508h-.86019c-.11312.24294-.17206.50757-.17273.77556-.0001.22113.0415.4403.12264.64601h.91029c2.14211.0452,3.91529-1.65468,3.96049-3.79679.0452-2.14211-1.65468-3.91528-3.79679-3.96049-.05456-.00115-.10914-.00115-.1637,0h-.00691Z" fill="url(#linear-gradient-2)"/>
          <path d="M256.9173,77.47475c.02796.19745.04297.39651.04491.59592.00205.28434-.02632.56807-.08464.84637,1.31839.30279,2.1417,1.61701,1.83891,2.9354-.25661,1.11732-1.25389,1.90717-2.40028,1.90102h-3.10913c-1.35653-.00063-2.4557-1.10082-2.45508-2.45735.00063-1.35564,1.09944-2.45445,2.45508-2.45508h.85328c.11447-.24248.17347-.50742.17273-.77556-.00009-.22167-.04169-.44137-.12264-.64774h-.8982c-2.14211.0452-3.842,1.81838-3.79679,3.96049.04386,2.07847,1.71832,3.75293,3.79679,3.79679h3.10913c2.14248-.0221,3.86138-1.77683,3.83929-3.91931-.01939-1.87997-1.38397-3.47546-3.23819-3.78615l-.00518.00518Z" fill="url(#linear-gradient-3)"/>
          <path d="M247.24099,86.80905l-.71165.71856c-.18965.19079-.49806.19171-.68886.00206-.00069-.00069-.00138-.00137-.00206-.00206l-7.95246-7.94037c-.38128-.38171-.38128-1.00013,0-1.38184l.71855-.70474,8.63647,8.62438c.1865.18585.18702.4877.00117.6742-.00039.00039-.00078.00078-.00117.00117h0v.00864Z" fill="#50e6ff"/>
          <path d="M246.3808,70.39111l.79456.79456c.19079.18965.19171.49806.00206.68886-.00069.00069-.00137.00138-.00206.00206l-8.49311,8.51384-.79628-.78765c-.38128-.38171-.38128-1.00013,0-1.38184l7.8091-7.82983c.18986-.18815.49588-.18815.68574,0Z" fill="#1490df"/>
          <path d="M259.0505,87.37215c-.18935-.18295-.19454-.48475-.01159-.6741.00041-.00042.00082-.00085.00123-.00127h.01036l8.63647-8.61575.71856.71683c.38129.38171.38129,1.00013,0,1.38184l-7.96456,7.92483c-.18295.18935-.48475.19454-.6741.01159-.00042-.00041-.00085-.00082-.00127-.00123h0l-.01036-.00864-.70474-.7341Z" fill="#50e6ff"/>
          <path d="M260.59471,70.95939l7.81601,7.83501c.3761.37913.3761.99061,0,1.36975l-.79628.79456-8.50002-8.51902c-.18692-.19238-.18692-.49854,0-.69092l.79456-.78937c.18986-.18815.49587-.18815.68573,0Z" fill="#1490df"/>
        </g>
      </g>
      <g>
        <line x1="326.83755" y1="101.20001" x2="326.83755" y2="118.79999" fill="none" stroke="#2f2f2f" stroke-miterlimit="10" stroke-width=".75"/>
        <g>
          <path d="M324.86366,101.20001c0-1.09003.8839-1.97391,1.97389-1.97391s1.97388.88388,1.97388,1.97391c0,1.08997-.8839,1.97385-1.97388,1.97385s-1.97389-.88388-1.97389-1.97385Z" fill="#fff"/>
          <path d="M324.60116,101.20001c0,1.233,1.00336,2.23636,2.23639,2.23636s2.23637-1.00336,2.23637-2.23636c0-1.23309-1.00336-2.23642-2.23637-2.23642s-2.23639,1.00333-2.23639,2.23642c0,1.233,0-1.23309,0,0ZM328.54893,101.20001c0,.94385-.76752,1.71133-1.71138,1.71133s-1.71138-.76749-1.71138-1.71133c0-.94391.7675-1.7114,1.71138-1.7114s1.71138.76749,1.71138,1.7114c0,.94385,0-.94391,0,0Z" fill="#2f2f2f"/>
        </g>
        <g>
          <path d="M324.86366,118.79999c0,1.09003.8839,1.97391,1.97389,1.97391s1.97388-.88388,1.97388-1.97391c0-1.08997-.8839-1.97385-1.97388-1.97385s-1.97389.88388-1.97389,1.97385Z" fill="#fff"/>
          <path d="M324.60116,118.79999c0-1.233,1.00336-2.23636,2.23639-2.23636s2.23637,1.00336,2.23637,2.23636c0,1.23309-1.00336,2.23642-2.23637,2.23642s-2.23639-1.00333-2.23639-2.23642c0-1.233,0,1.23309,0,0ZM328.54893,118.79999c0-.94385-.76752-1.71133-1.71138-1.71133s-1.71138.76749-1.71138,1.71133c0,.94391.7675,1.7114,1.71138,1.7114s1.71138-.76749,1.71138-1.7114c0-.94385,0,.94391,0,0Z" fill="#2f2f2f"/>
        </g>
      </g>
      <rect x="490.6" y="198" width="105.6" height="88" fill="#fff" stroke="#8e8278" stroke-width=".35"/>
      <g>
        <rect x="530.41143" y="211.71709" width="25.97715" height="17.3181" rx=".8659" ry=".8659" fill="url(#linear-gradient-4)"/>
        <polygon points="547.72953 217.85059 547.72953 222.88727 543.4 225.42726 543.4 220.37614 547.72953 217.85059" fill="#50e6ff"/>
        <polygon points="547.72953 217.85059 543.4 220.39057 539.07048 217.85059 543.4 215.32503 547.72953 217.85059" fill="#c3f1ff"/>
        <polygon points="543.4 220.39057 543.4 225.42726 539.07048 222.88727 539.07048 217.85059 543.4 220.39057" fill="#9cebff"/>
        <polygon points="539.07048 222.88727 543.4 220.37614 543.4 225.42726 539.07048 222.88727" fill="#c3f1ff"/>
        <polygon points="547.72953 222.88727 543.4 220.37614 543.4 225.42726 547.72953 222.88727" fill="#9cebff"/>
        <path d="M548.60986,234.27392c-2.56885-.40409-2.66987-2.25135-2.66987-5.23873h-5.09441c0,2.98737-.08659,4.83464-2.65544,5.23873-.73448.08127-1.28891.70422-1.28443,1.44317h12.98857c.00448-.73895-.54994-1.3619-1.28443-1.44317Z" fill="url(#linear-gradient-5)"/>
      </g>
      <rect x="274.03754" y="198" width="105.6" height="88" fill="#fff" stroke="#8e8278" stroke-width=".35"/>
      <g>
        <rect x="313.84897" y="211.71709" width="25.97715" height="17.3181" rx=".8659" ry=".8659" fill="url(#linear-gradient-6)"/>
        <polygon points="331.16707 217.85059 331.16707 222.88727 326.83754 225.42726 326.83754 220.37614 331.16707 217.85059" fill="#50e6ff"/>
        <polygon points="331.16707 217.85059 326.83754 220.39057 322.50802 217.85059 326.83754 215.32503 331.16707 217.85059" fill="#c3f1ff"/>
        <polygon points="326.83754 220.39057 326.83754 225.42726 322.50802 222.88727 322.50802 217.85059 326.83754 220.39057" fill="#9cebff"/>
        <polygon points="322.50802 222.88727 326.83754 220.37614 326.83754 225.42726 322.50802 222.88727" fill="#c3f1ff"/>
        <polygon points="331.16707 222.88727 326.83754 220.37614 326.83754 225.42726 331.16707 222.88727" fill="#9cebff"/>
        <path d="M332.0474,234.27392c-2.56885-.40409-2.66987-2.25135-2.66987-5.23873h-5.09441c0,2.98737-.08659,4.83464-2.65544,5.23873-.73448.08127-1.28891.70422-1.28443,1.44317h12.98857c.00448-.73895-.54994-1.3619-1.28443-1.44317Z" fill="url(#linear-gradient-7)"/>
      </g>
      <rect x="59.03335" y="198" width="105.6" height="88" fill="#fff" stroke="#8e8278" stroke-width=".35"/>
      <g>
        <rect x="98.84478" y="211.71709" width="25.97715" height="17.3181" rx=".8659" ry=".8659" fill="url(#linear-gradient-8)"/>
        <polygon points="116.16288 217.85059 116.16288 222.88727 111.83335 225.42726 111.83335 220.37614 116.16288 217.85059" fill="#50e6ff"/>
        <polygon points="116.16288 217.85059 111.83335 220.39057 107.50383 217.85059 111.83335 215.32503 116.16288 217.85059" fill="#c3f1ff"/>
        <polygon points="111.83335 220.39057 111.83335 225.42726 107.50383 222.88727 107.50383 217.85059 111.83335 220.39057" fill="#9cebff"/>
        <polygon points="107.50383 222.88727 111.83335 220.37614 111.83335 225.42726 107.50383 222.88727" fill="#c3f1ff"/>
        <polygon points="116.16288 222.88727 111.83335 220.37614 111.83335 225.42726 116.16288 222.88727" fill="#9cebff"/>
        <path d="M117.04321,234.27392c-2.56885-.40409-2.66987-2.25135-2.66987-5.23873h-5.09441c0,2.98737-.08659,4.83464-2.65544,5.23873-.73448.08127-1.28891.70422-1.28443,1.44317h12.98857c.00448-.73895-.54994-1.3619-1.28443-1.44317Z" fill="url(#linear-gradient-9)"/>
      </g>
      <g>
        <line x1="326.83755" y1="162.79999" x2="326.83755" y2="193.96336" fill="none" stroke="#3c3c41" stroke-miterlimit="10" stroke-width=".75"/>
        <polygon points="324.03274 193.14268 326.83755 198 329.64236 193.14268 324.03274 193.14268" fill="#3c3c41"/>
      </g>
      <g>
        <path d="M543.39999,193.96336v-12.96336c0-2.75-2.25-5-5-5H116.83335c-2.75,0-5,2.25-5,5v12.96336" fill="none" stroke="#3c3c41" stroke-miterlimit="10" stroke-width=".75"/>
        <polygon points="546.2048 193.14268 543.39999 198 540.59518 193.14268 546.2048 193.14268" fill="#3c3c41"/>
        <polygon points="109.02854 193.14268 111.83335 198 114.63816 193.14268 109.02854 193.14268" fill="#3c3c41"/>
      </g>
    </g>
    <g id="Text">
      <g>
        <path d="M60.29482,31.94287h-2.40625l-.69727-2.18066h-3.48633l-.69043,2.18066h-2.39258l3.56836-9.80273h2.61816l3.48633,9.80273ZM56.68545,28.06689l-1.05273-3.29492c-.07764-.24609-.13232-.54004-.16406-.88184h-.05469c-.02295.28711-.07959.57178-.1709.85449l-1.06641,3.32227h2.50879Z" fill="#2f2f2f"/>
        <path d="M67.65957,24.94287l-2.60449,7h-2.46094l-2.48145-7h2.31055l1.2168,4.31348c.13672.48779.21631.90234.23926,1.24414h.02734c.03174-.32373.11621-.72461.25293-1.20312l1.24414-4.35449h2.25586Z" fill="#2f2f2f"/>
        <path d="M74.31533,31.94287h-2.04395v-1.00488h-.02734c-.46924.78369-1.16455,1.17578-2.08496,1.17578-.6792,0-1.21338-.19238-1.60303-.57764s-.58447-.89893-.58447-1.5415c0-1.35791.8042-2.14209,2.41309-2.35156l1.90039-.25293c0-.76562-.41455-1.14844-1.24414-1.14844-.83398,0-1.62695.24854-2.37891.74512v-1.62695c.30078-.15479.71191-.2915,1.23389-.41016s.99707-.17773,1.42529-.17773c1.99609,0,2.99414.99561,2.99414,2.9873v4.18359ZM72.28506,29.09912v-.47168l-1.27148.16406c-.70166.09131-1.05273.40771-1.05273.9502,0,.24609.08545.44775.25635.60498s.40234.23584.69385.23584c.40576,0,.73584-.14014.99121-.42041s.38281-.63477.38281-1.06299Z" fill="#2f2f2f"/>
        <path d="M77.08584,23.83545c-.36475,0-.66309-.1084-.89551-.32471s-.34863-.48193-.34863-.79639c0-.32373.11621-.58789.34863-.79297s.53076-.30762.89551-.30762c.36914,0,.66895.10254.89893.30762s.34521.46924.34521.79297c0,.32812-.11523.59717-.34521.80664s-.52979.31445-.89893.31445ZM78.15225,31.94287h-2.16016v-7h2.16016v7Z" fill="#2f2f2f"/>
        <path d="M82.0873,31.94287h-2.16016v-10.36328h2.16016v10.36328Z" fill="#2f2f2f"/>
        <path d="M89.75234,31.94287h-2.04395v-1.00488h-.02734c-.46924.78369-1.16455,1.17578-2.08496,1.17578-.6792,0-1.21338-.19238-1.60303-.57764s-.58447-.89893-.58447-1.5415c0-1.35791.8042-2.14209,2.41309-2.35156l1.90039-.25293c0-.76562-.41455-1.14844-1.24414-1.14844-.83398,0-1.62695.24854-2.37891.74512v-1.62695c.30078-.15479.71191-.2915,1.23389-.41016s.99707-.17773,1.42529-.17773c1.99609,0,2.99414.99561,2.99414,2.9873v4.18359ZM87.72207,29.09912v-.47168l-1.27148.16406c-.70166.09131-1.05273.40771-1.05273.9502,0,.24609.08545.44775.25635.60498s.40234.23584.69385.23584c.40576,0,.73584-.14014.99121-.42041s.38281-.63477.38281-1.06299Z" fill="#2f2f2f"/>
        <path d="M93.63613,31.12939h-.02734v.81348h-2.16016v-10.36328h2.16016v4.41602h.02734c.5332-.81592,1.29199-1.22363,2.27637-1.22363.90234,0,1.59717.31006,2.08496.92969s.73145,1.46729.73145,2.54297c0,1.1665-.28467,2.10303-.85449,2.80957s-1.33057,1.05957-2.2832,1.05957c-.86133,0-1.51318-.32812-1.95508-.98438ZM93.57461,28.17627v.71777c0,.45117.12988.82471.38965,1.12109s.59229.44434.99805.44434c.49219,0,.87402-.19043,1.14502-.5708s.40674-.91943.40674-1.6167c0-.57861-.12402-1.03125-.37256-1.35693s-.60254-.48877-1.06299-.48877c-.43311,0-.79199.16162-1.07666.48535s-.42725.74512-.42725,1.26465Z" fill="#2f2f2f"/>
        <path d="M101.22402,23.83545c-.36475,0-.66309-.1084-.89551-.32471s-.34863-.48193-.34863-.79639c0-.32373.11621-.58789.34863-.79297s.53076-.30762.89551-.30762c.36914,0,.66895.10254.89893.30762s.34521.46924.34521.79297c0,.32812-.11523.59717-.34521.80664s-.52979.31445-.89893.31445ZM102.29043,31.94287h-2.16016v-7h2.16016v7Z" fill="#2f2f2f"/>
        <path d="M106.22598,31.94287h-2.16016v-10.36328h2.16016v10.36328Z" fill="#2f2f2f"/>
        <path d="M109.09463,23.83545c-.36475,0-.66309-.1084-.89551-.32471s-.34863-.48193-.34863-.79639c0-.32373.11621-.58789.34863-.79297s.53076-.30762.89551-.30762c.36914,0,.66895.10254.89893.30762s.34521.46924.34521.79297c0,.32812-.11523.59717-.34521.80664s-.52979.31445-.89893.31445ZM110.16104,31.94287h-2.16016v-7h2.16016v7Z" fill="#2f2f2f"/>
        <path d="M116.09707,31.86084c-.31885.16846-.7998.25293-1.44238.25293-1.52197,0-2.2832-.79053-2.2832-2.37207v-3.20605h-1.13477v-1.59277h1.13477v-1.51074l2.15332-.61523v2.12598h1.57227v1.59277h-1.57227v2.83008c0,.729.28955,1.09375.86816,1.09375.22803,0,.4624-.06592.7041-.19824v1.59961Z" fill="#2f2f2f"/>
        <path d="M124.32217,24.94287l-2.84375,7.56055c-.68359,1.81836-1.71338,2.72754-3.08984,2.72754-.52393,0-.95459-.05908-1.29199-.17773v-1.72266c.28711.16846.59912.25293.93652.25293.55615,0,.94336-.26221,1.16211-.78613l.36914-.86816-2.84375-6.98633h2.39258l1.30566,4.25879c.08203.26416.146.57666.19141.93652h.02734c.04102-.26416.11621-.57178.22559-.92285l1.31934-4.27246h2.13965Z" fill="#2f2f2f"/>
        <path d="M136.31924,31.94287h-7.89551v-1.27148l5.02441-6.7334h-4.66211v-1.79785h7.51953v1.2373l-4.91504,6.77441h4.92871v1.79102Z" fill="#2f2f2f"/>
        <path d="M140.83779,32.11377c-1.1665,0-2.08398-.32715-2.75146-.98096s-1.00146-1.5415-1.00146-2.6626c0-1.15771.34619-2.06348,1.03906-2.71729s1.62939-.98096,2.80957-.98096c1.16211,0,2.07373.32715,2.73438.98096s.99121,1.51855.99121,2.59424c0,1.16211-.34082,2.08057-1.02197,2.75488s-1.61426,1.01172-2.79932,1.01172ZM140.89248,26.42627c-.51025,0-.90674.17529-1.18945.52637s-.42383.84766-.42383,1.49023c0,1.34424.54248,2.0166,1.62695,2.0166,1.03467,0,1.55176-.69043,1.55176-2.07129,0-1.30811-.52197-1.96191-1.56543-1.96191Z" fill="#2f2f2f"/>
        <path d="M152.8002,31.94287h-2.15332v-3.88965c0-1.08447-.38721-1.62695-1.16211-1.62695-.37354,0-.68115.14355-.92285.43066s-.3623.65186-.3623,1.09375v3.99219h-2.16016v-7h2.16016v1.10742h.02734c.51514-.85205,1.26465-1.27832,2.24902-1.27832,1.54932,0,2.32422.96143,2.32422,2.88477v4.28613Z" fill="#2f2f2f"/>
        <path d="M160.82217,29.05811h-4.56641c.07275,1.01611.71338,1.52441,1.9209,1.52441.77002,0,1.44678-.18213,2.03027-.54688v1.55859c-.64697.34619-1.48779.51953-2.52246.51953-1.13037,0-2.00732-.31348-2.63184-.93994s-.93652-1.50049-.93652-2.62158c0-1.16211.3374-2.08252,1.01172-2.76172s1.50391-1.01855,2.48828-1.01855c1.021,0,1.81055.30322,2.36865.90918s.8374,1.42871.8374,2.46777v.90918ZM158.81924,27.73193c0-1.00244-.40576-1.50391-1.2168-1.50391-.34619,0-.646.14355-.89893.43066s-.40674.64502-.46143,1.07324h2.57715Z" fill="#2f2f2f"/>
        <path d="M170.74795,21.92139v10.02148h-2.15332v-7.58789c-.11865.10498-.25879.2041-.42041.29736s-.33398.17773-.51611.25293-.37158.13916-.56738.19141-.38965.08984-.58105.11279v-1.81836c.56055-.16406,1.08936-.37354,1.58594-.62891s.9458-.53564,1.34668-.84082h1.30566Z" fill="#2f2f2f"/>
      </g>
      <g>
        <path d="M226.07266,145.19971h-7.89551v-1.27148l5.02441-6.7334h-4.66211v-1.79785h7.51953v1.2373l-4.91504,6.77441h4.92871v1.79102Z" fill="#2f2f2f"/>
        <path d="M230.5917,145.37061c-1.1665,0-2.08398-.32715-2.75146-.98096s-1.00146-1.5415-1.00146-2.6626c0-1.15771.34619-2.06348,1.03906-2.71729s1.62939-.98096,2.80957-.98096c1.16211,0,2.07373.32715,2.73438.98096s.99121,1.51855.99121,2.59424c0,1.16211-.34082,2.08057-1.02197,2.75488s-1.61426,1.01172-2.79932,1.01172ZM230.64639,139.68311c-.51025,0-.90674.17529-1.18945.52637s-.42383.84766-.42383,1.49023c0,1.34424.54248,2.0166,1.62695,2.0166,1.03467,0,1.55176-.69043,1.55176-2.07129,0-1.30811-.52197-1.96191-1.56543-1.96191Z" fill="#2f2f2f"/>
        <path d="M242.5541,145.19971h-2.15332v-3.88965c0-1.08447-.38721-1.62695-1.16211-1.62695-.37354,0-.68115.14355-.92285.43066s-.3623.65186-.3623,1.09375v3.99219h-2.16016v-7h2.16016v1.10742h.02734c.51514-.85205,1.26465-1.27832,2.24902-1.27832,1.54932,0,2.32422.96143,2.32422,2.88477v4.28613Z" fill="#2f2f2f"/>
        <path d="M250.57559,142.31494h-4.56641c.07275,1.01611.71338,1.52441,1.9209,1.52441.77002,0,1.44678-.18213,2.03027-.54688v1.55859c-.64697.34619-1.48779.51953-2.52246.51953-1.13037,0-2.00732-.31348-2.63184-.93994s-.93652-1.50049-.93652-2.62158c0-1.16211.3374-2.08252,1.01172-2.76172s1.50391-1.01855,2.48828-1.01855c1.021,0,1.81055.30322,2.36865.90918s.8374,1.42871.8374,2.46777v.90918ZM248.57266,140.98877c0-1.00244-.40576-1.50391-1.2168-1.50391-.34619,0-.646.14355-.89893.43066s-.40674.64502-.46143,1.07324h2.57715Z" fill="#2f2f2f"/>
        <path d="M255.73135,142.21924h-3.73926v-1.51074h3.73926v1.51074Z" fill="#2f2f2f"/>
        <path d="M262.00771,140.14795c-.25977-.14111-.56299-.21191-.90918-.21191-.46924,0-.83643.17188-1.10059.51611s-.39648.8125-.39648,1.40479v3.34277h-2.16016v-7h2.16016v1.29883h.02734c.3418-.94775.95703-1.42188,1.8457-1.42188.22803,0,.40576.02734.5332.08203v1.98926Z" fill="#2f2f2f"/>
        <path d="M269.37979,142.31494h-4.56641c.07275,1.01611.71338,1.52441,1.9209,1.52441.77002,0,1.44678-.18213,2.03027-.54688v1.55859c-.64697.34619-1.48779.51953-2.52246.51953-1.13037,0-2.00732-.31348-2.63184-.93994s-.93652-1.50049-.93652-2.62158c0-1.16211.3374-2.08252,1.01172-2.76172s1.50391-1.01855,2.48828-1.01855c1.021,0,1.81055.30322,2.36865.90918s.8374,1.42871.8374,2.46777v.90918ZM267.37686,140.98877c0-1.00244-.40576-1.50391-1.2168-1.50391-.34619,0-.646.14355-.89893.43066s-.40674.64502-.46143,1.07324h2.57715Z" fill="#2f2f2f"/>
        <path d="M277.62539,145.19971h-2.16016v-.96387h-.02734c-.49219.75635-1.21436,1.13477-2.16699,1.13477-.875,0-1.5791-.30859-2.1123-.92627s-.7998-1.47998-.7998-2.5874c0-1.15771.29395-2.08496.88184-2.78223s1.35791-1.0459,2.31055-1.0459c.90234,0,1.53125.32373,1.88672.9707h.02734v-4.16309h2.16016v10.36328ZM275.50625,141.79541v-.52637c0-.45557-.13232-.83398-.39648-1.13477s-.6084-.45117-1.03223-.45117c-.47852,0-.85205.18799-1.12109.56396s-.40332.89209-.40332,1.54834c0,.61523.12988,1.08936.38965,1.42188s.61963.49902,1.08008.49902c.4375,0,.79395-.17529,1.06982-.52637s.41357-.81592.41357-1.39453Z" fill="#2f2f2f"/>
        <path d="M286.08242,145.19971h-2.15332v-1.06641h-.03418c-.5332.82471-1.24658,1.2373-2.13965,1.2373-1.62256,0-2.43359-.98193-2.43359-2.94629v-4.22461h2.15332v4.0332c0,.98877.39209,1.4834,1.17578,1.4834.38721,0,.69727-.13574.92969-.40674s.34863-.63916.34863-1.104v-4.00586h2.15332v7Z" fill="#2f2f2f"/>
        <path d="M294.61123,145.19971h-2.15332v-3.88965c0-1.08447-.38721-1.62695-1.16211-1.62695-.37354,0-.68115.14355-.92285.43066s-.3623.65186-.3623,1.09375v3.99219h-2.16016v-7h2.16016v1.10742h.02734c.51514-.85205,1.26465-1.27832,2.24902-1.27832,1.54932,0,2.32422.96143,2.32422,2.88477v4.28613Z" fill="#2f2f2f"/>
        <path d="M303.19375,145.19971h-2.16016v-.96387h-.02734c-.49219.75635-1.21436,1.13477-2.16699,1.13477-.875,0-1.5791-.30859-2.1123-.92627s-.7998-1.47998-.7998-2.5874c0-1.15771.29395-2.08496.88184-2.78223s1.35791-1.0459,2.31055-1.0459c.90234,0,1.53125.32373,1.88672.9707h.02734v-4.16309h2.16016v10.36328ZM301.07461,141.79541v-.52637c0-.45557-.13232-.83398-.39648-1.13477s-.6084-.45117-1.03223-.45117c-.47852,0-.85205.18799-1.12109.56396s-.40332.89209-.40332,1.54834c0,.61523.12988,1.08936.38965,1.42188s.61963.49902,1.08008.49902c.4375,0,.79395-.17529,1.06982-.52637s.41357-.81592.41357-1.39453Z" fill="#2f2f2f"/>
        <path d="M310.8417,145.19971h-2.04395v-1.00488h-.02734c-.46924.78369-1.16455,1.17578-2.08496,1.17578-.6792,0-1.21338-.19238-1.60303-.57764s-.58447-.89893-.58447-1.5415c0-1.35791.8042-2.14209,2.41309-2.35156l1.90039-.25293c0-.76562-.41455-1.14844-1.24414-1.14844-.83398,0-1.62695.24854-2.37891.74512v-1.62695c.30078-.15479.71191-.2915,1.23389-.41016s.99707-.17773,1.42529-.17773c1.99609,0,2.99414.99561,2.99414,2.9873v4.18359ZM308.81143,142.35596v-.47168l-1.27148.16406c-.70166.09131-1.05273.40771-1.05273.9502,0,.24609.08545.44775.25635.60498s.40234.23584.69385.23584c.40576,0,.73584-.14014.99121-.42041s.38281-.63477.38281-1.06299Z" fill="#2f2f2f"/>
        <path d="M319.29873,145.19971h-2.15332v-3.88965c0-1.08447-.38721-1.62695-1.16211-1.62695-.37354,0-.68115.14355-.92285.43066s-.3623.65186-.3623,1.09375v3.99219h-2.16016v-7h2.16016v1.10742h.02734c.51514-.85205,1.26465-1.27832,2.24902-1.27832,1.54932,0,2.32422.96143,2.32422,2.88477v4.28613Z" fill="#2f2f2f"/>
        <path d="M325.14834,145.11768c-.31885.16846-.7998.25293-1.44238.25293-1.52197,0-2.2832-.79053-2.2832-2.37207v-3.20605h-1.13477v-1.59277h1.13477v-1.51074l2.15332-.61523v2.12598h1.57227v1.59277h-1.57227v2.83008c0,.729.28955,1.09375.86816,1.09375.22803,0,.4624-.06592.7041-.19824v1.59961Z" fill="#2f2f2f"/>
        <path d="M331.32119,137.09229c-.36475,0-.66309-.1084-.89551-.32471s-.34863-.48193-.34863-.79639c0-.32373.11621-.58789.34863-.79297s.53076-.30762.89551-.30762c.36914,0,.66895.10254.89893.30762s.34521.46924.34521.79297c0,.32812-.11523.59717-.34521.80664s-.52979.31445-.89893.31445ZM332.3876,145.19971h-2.16016v-7h2.16016v7Z" fill="#2f2f2f"/>
        <path d="M340.93008,145.19971h-2.15332v-3.88965c0-1.08447-.38721-1.62695-1.16211-1.62695-.37354,0-.68115.14355-.92285.43066s-.3623.65186-.3623,1.09375v3.99219h-2.16016v-7h2.16016v1.10742h.02734c.51514-.85205,1.26465-1.27832,2.24902-1.27832,1.54932,0,2.32422.96143,2.32422,2.88477v4.28613Z" fill="#2f2f2f"/>
        <path d="M346.77969,145.11768c-.31885.16846-.7998.25293-1.44238.25293-1.52197,0-2.2832-.79053-2.2832-2.37207v-3.20605h-1.13477v-1.59277h1.13477v-1.51074l2.15332-.61523v2.12598h1.57227v1.59277h-1.57227v2.83008c0,.729.28955,1.09375.86816,1.09375.22803,0,.4624-.06592.7041-.19824v1.59961Z" fill="#2f2f2f"/>
        <path d="M354.26602,142.31494h-4.56641c.07275,1.01611.71338,1.52441,1.9209,1.52441.77002,0,1.44678-.18213,2.03027-.54688v1.55859c-.64697.34619-1.48779.51953-2.52246.51953-1.13037,0-2.00732-.31348-2.63184-.93994s-.93652-1.50049-.93652-2.62158c0-1.16211.3374-2.08252,1.01172-2.76172s1.50391-1.01855,2.48828-1.01855c1.021,0,1.81055.30322,2.36865.90918s.8374,1.42871.8374,2.46777v.90918ZM352.26309,140.98877c0-1.00244-.40576-1.50391-1.2168-1.50391-.34619,0-.646.14355-.89893.43066s-.40674.64502-.46143,1.07324h2.57715Z" fill="#2f2f2f"/>
        <path d="M360.19717,140.14795c-.25977-.14111-.56299-.21191-.90918-.21191-.46924,0-.83643.17188-1.10059.51611s-.39648.8125-.39648,1.40479v3.34277h-2.16016v-7h2.16016v1.29883h.02734c.3418-.94775.95703-1.42188,1.8457-1.42188.22803,0,.40576.02734.5332.08203v1.98926Z" fill="#2f2f2f"/>
        <path d="M367.94912,145.19971h-2.15332v-3.88965c0-1.08447-.38721-1.62695-1.16211-1.62695-.37354,0-.68115.14355-.92285.43066s-.3623.65186-.3623,1.09375v3.99219h-2.16016v-7h2.16016v1.10742h.02734c.51514-.85205,1.26465-1.27832,2.24902-1.27832,1.54932,0,2.32422.96143,2.32422,2.88477v4.28613Z" fill="#2f2f2f"/>
        <path d="M375.51455,145.19971h-2.04395v-1.00488h-.02734c-.46924.78369-1.16455,1.17578-2.08496,1.17578-.6792,0-1.21338-.19238-1.60303-.57764s-.58447-.89893-.58447-1.5415c0-1.35791.8042-2.14209,2.41309-2.35156l1.90039-.25293c0-.76562-.41455-1.14844-1.24414-1.14844-.83398,0-1.62695.24854-2.37891.74512v-1.62695c.30078-.15479.71191-.2915,1.23389-.41016s.99707-.17773,1.42529-.17773c1.99609,0,2.99414.99561,2.99414,2.9873v4.18359ZM373.48428,142.35596v-.47168l-1.27148.16406c-.70166.09131-1.05273.40771-1.05273.9502,0,.24609.08545.44775.25635.60498s.40234.23584.69385.23584c.40576,0,.73584-.14014.99121-.42041s.38281-.63477.38281-1.06299Z" fill="#2f2f2f"/>
        <path d="M379.37246,145.19971h-2.16016v-10.36328h2.16016v10.36328Z" fill="#2f2f2f"/>
        <path d="M387.21328,145.19971h-2.16016v-10.36328h2.16016v10.36328Z" fill="#2f2f2f"/>
        <path d="M392.35635,145.37061c-1.1665,0-2.08398-.32715-2.75146-.98096s-1.00146-1.5415-1.00146-2.6626c0-1.15771.34619-2.06348,1.03906-2.71729s1.62939-.98096,2.80957-.98096c1.16211,0,2.07373.32715,2.73438.98096s.99121,1.51855.99121,2.59424c0,1.16211-.34082,2.08057-1.02197,2.75488s-1.61426,1.01172-2.79932,1.01172ZM392.41104,139.68311c-.51025,0-.90674.17529-1.18945.52637s-.42383.84766-.42383,1.49023c0,1.34424.54248,2.0166,1.62695,2.0166,1.03467,0,1.55176-.69043,1.55176-2.07129,0-1.30811-.52197-1.96191-1.56543-1.96191Z" fill="#2f2f2f"/>
        <path d="M403.39199,145.19971h-2.04395v-1.00488h-.02734c-.46924.78369-1.16455,1.17578-2.08496,1.17578-.6792,0-1.21338-.19238-1.60303-.57764s-.58447-.89893-.58447-1.5415c0-1.35791.8042-2.14209,2.41309-2.35156l1.90039-.25293c0-.76562-.41455-1.14844-1.24414-1.14844-.83398,0-1.62695.24854-2.37891.74512v-1.62695c.30078-.15479.71191-.2915,1.23389-.41016s.99707-.17773,1.42529-.17773c1.99609,0,2.99414.99561,2.99414,2.9873v4.18359ZM401.36172,142.35596v-.47168l-1.27148.16406c-.70166.09131-1.05273.40771-1.05273.9502,0,.24609.08545.44775.25635.60498s.40234.23584.69385.23584c.40576,0,.73584-.14014.99121-.42041s.38281-.63477.38281-1.06299Z" fill="#2f2f2f"/>
        <path d="M411.97305,145.19971h-2.16016v-.96387h-.02734c-.49219.75635-1.21436,1.13477-2.16699,1.13477-.875,0-1.5791-.30859-2.1123-.92627s-.7998-1.47998-.7998-2.5874c0-1.15771.29395-2.08496.88184-2.78223s1.35791-1.0459,2.31055-1.0459c.90234,0,1.53125.32373,1.88672.9707h.02734v-4.16309h2.16016v10.36328ZM409.85391,141.79541v-.52637c0-.45557-.13232-.83398-.39648-1.13477s-.6084-.45117-1.03223-.45117c-.47852,0-.85205.18799-1.12109.56396s-.40332.89209-.40332,1.54834c0,.61523.12988,1.08936.38965,1.42188s.61963.49902,1.08008.49902c.4375,0,.79395-.17529,1.06982-.52637s.41357-.81592.41357-1.39453Z" fill="#2f2f2f"/>
        <path d="M419.84121,144.38623h-.02734v.81348h-2.16016v-10.36328h2.16016v4.41602h.02734c.5332-.81592,1.29199-1.22363,2.27637-1.22363.90234,0,1.59717.31006,2.08496.92969s.73145,1.46729.73145,2.54297c0,1.1665-.28467,2.10303-.85449,2.80957s-1.33057,1.05957-2.2832,1.05957c-.86133,0-1.51318-.32812-1.95508-.98438ZM419.77969,141.43311v.71777c0,.45117.12988.82471.38965,1.12109s.59229.44434.99805.44434c.49219,0,.87402-.19043,1.14502-.5708s.40674-.91943.40674-1.6167c0-.57861-.12402-1.03125-.37256-1.35693s-.60254-.48877-1.06299-.48877c-.43311,0-.79199.16162-1.07666.48535s-.42725.74512-.42725,1.26465Z" fill="#2f2f2f"/>
        <path d="M432.16641,145.19971h-2.04395v-1.00488h-.02734c-.46924.78369-1.16455,1.17578-2.08496,1.17578-.6792,0-1.21338-.19238-1.60303-.57764s-.58447-.89893-.58447-1.5415c0-1.35791.8042-2.14209,2.41309-2.35156l1.90039-.25293c0-.76562-.41455-1.14844-1.24414-1.14844-.83398,0-1.62695.24854-2.37891.74512v-1.62695c.30078-.15479.71191-.2915,1.23389-.41016s.99707-.17773,1.42529-.17773c1.99609,0,2.99414.99561,2.99414,2.9873v4.18359ZM430.13613,142.35596v-.47168l-1.27148.16406c-.70166.09131-1.05273.40771-1.05273.9502,0,.24609.08545.44775.25635.60498s.40234.23584.69385.23584c.40576,0,.73584-.14014.99121-.42041s.38281-.63477.38281-1.06299Z" fill="#2f2f2f"/>
        <path d="M436.02432,145.19971h-2.16016v-10.36328h2.16016v10.36328Z" fill="#2f2f2f"/>
        <path d="M443.68936,145.19971h-2.04395v-1.00488h-.02734c-.46924.78369-1.16455,1.17578-2.08496,1.17578-.6792,0-1.21338-.19238-1.60303-.57764s-.58447-.89893-.58447-1.5415c0-1.35791.8042-2.14209,2.41309-2.35156l1.90039-.25293c0-.76562-.41455-1.14844-1.24414-1.14844-.83398,0-1.62695.24854-2.37891.74512v-1.62695c.30078-.15479.71191-.2915,1.23389-.41016s.99707-.17773,1.42529-.17773c1.99609,0,2.99414.99561,2.99414,2.9873v4.18359ZM441.65908,142.35596v-.47168l-1.27148.16406c-.70166.09131-1.05273.40771-1.05273.9502,0,.24609.08545.44775.25635.60498s.40234.23584.69385.23584c.40576,0,.73584-.14014.99121-.42041s.38281-.63477.38281-1.06299Z" fill="#2f2f2f"/>
        <path d="M452.14639,145.19971h-2.15332v-3.88965c0-1.08447-.38721-1.62695-1.16211-1.62695-.37354,0-.68115.14355-.92285.43066s-.3623.65186-.3623,1.09375v3.99219h-2.16016v-7h2.16016v1.10742h.02734c.51514-.85205,1.26465-1.27832,2.24902-1.27832,1.54932,0,2.32422.96143,2.32422,2.88477v4.28613Z" fill="#2f2f2f"/>
        <path d="M459.16055,144.94678c-.48828.28271-1.19238.42383-2.1123.42383-1.07617,0-1.94629-.32568-2.61182-.97754s-.99805-1.49268-.99805-2.52246c0-1.18945.35645-2.12695,1.06982-2.81299s1.66699-1.02881,2.86133-1.02881c.82422,0,1.42188.10938,1.79102.32812v1.83203c-.45117-.3374-.95508-.50586-1.51074-.50586-.62012,0-1.11133.18115-1.47363.54346s-.54346.8623-.54346,1.50049c0,.61963.17334,1.10645.52002,1.45947.3457.35303.82227.52979,1.42871.52979.53711,0,1.06348-.16846,1.5791-.50586v1.73633Z" fill="#2f2f2f"/>
        <path d="M466.87539,142.31494h-4.56641c.07324,1.01611.71387,1.52441,1.9209,1.52441.77051,0,1.44727-.18213,2.03027-.54688v1.55859c-.64648.34619-1.4873.51953-2.52246.51953-1.12988,0-2.00684-.31348-2.63184-.93994-.62402-.62646-.93652-1.50049-.93652-2.62158,0-1.16211.33789-2.08252,1.01172-2.76172.6748-.6792,1.50391-1.01855,2.48828-1.01855,1.02148,0,1.81055.30322,2.36914.90918.55762.60596.83691,1.42871.83691,2.46777v.90918ZM464.87246,140.98877c0-1.00244-.40527-1.50391-1.2168-1.50391-.3457,0-.64551.14355-.89844.43066s-.40723.64502-.46191,1.07324h2.57715Z" fill="#2f2f2f"/>
        <path d="M472.80703,140.14795c-.25977-.14111-.56348-.21191-.90918-.21191-.46973,0-.83691.17188-1.10059.51611-.26465.34424-.39648.8125-.39648,1.40479v3.34277h-2.16016v-7h2.16016v1.29883h.02734c.3418-.94775.95703-1.42188,1.8457-1.42188.22754,0,.40527.02734.5332.08203v1.98926Z" fill="#2f2f2f"/>
      </g>
      <g>
        <path d="M276.58633,80.22314v3.37695h-2.20801v-9.80273h3.45898c2.47021,0,3.70508,1.0415,3.70508,3.12402,0,.98438-.35449,1.78076-1.06299,2.38916s-1.65527.9126-2.84033.9126h-1.05273ZM276.58633,75.49268v3.05566h.86816c1.17578,0,1.76367-.51514,1.76367-1.54492,0-1.00732-.58789-1.51074-1.76367-1.51074h-.86816Z" fill="#2f2f2f"/>
        <path d="M287.21182,78.54834c-.25977-.14111-.56299-.21191-.90918-.21191-.46924,0-.83643.17188-1.10059.51611s-.39648.8125-.39648,1.40479v3.34277h-2.16016v-7h2.16016v1.29883h.02734c.3418-.94775.95703-1.42188,1.8457-1.42188.22803,0,.40576.02734.5332.08203v1.98926Z" fill="#2f2f2f"/>
        <path d="M289.29824,75.49268c-.36475,0-.66309-.1084-.89551-.32471s-.34863-.48193-.34863-.79639c0-.32373.11621-.58789.34863-.79297s.53076-.30762.89551-.30762c.36914,0,.66895.10254.89893.30762s.34521.46924.34521.79297c0,.32812-.11523.59717-.34521.80664s-.52979.31445-.89893.31445ZM290.36465,83.6001h-2.16016v-7h2.16016v7Z" fill="#2f2f2f"/>
        <path d="M298.86904,76.6001l-2.60449,7h-2.46094l-2.48145-7h2.31055l1.2168,4.31348c.13672.48779.21631.90234.23926,1.24414h.02734c.03174-.32373.11621-.72461.25293-1.20312l1.24414-4.35449h2.25586Z" fill="#2f2f2f"/>
        <path d="M305.5248,83.6001h-2.04395v-1.00488h-.02734c-.46924.78369-1.16455,1.17578-2.08496,1.17578-.6792,0-1.21338-.19238-1.60303-.57764s-.58447-.89893-.58447-1.5415c0-1.35791.8042-2.14209,2.41309-2.35156l1.90039-.25293c0-.76562-.41455-1.14844-1.24414-1.14844-.83398,0-1.62695.24854-2.37891.74512v-1.62695c.30078-.15479.71191-.2915,1.23389-.41016s.99707-.17773,1.42529-.17773c1.99609,0,2.99414.99561,2.99414,2.9873v4.18359ZM303.49453,80.75635v-.47168l-1.27148.16406c-.70166.09131-1.05273.40771-1.05273.9502,0,.24609.08545.44775.25635.60498s.40234.23584.69385.23584c.40576,0,.73584-.14014.99121-.42041s.38281-.63477.38281-1.06299Z" fill="#2f2f2f"/>
        <path d="M311.35342,83.51807c-.31885.16846-.7998.25293-1.44238.25293-1.52197,0-2.2832-.79053-2.2832-2.37207v-3.20605h-1.13477v-1.59277h1.13477v-1.51074l2.15332-.61523v2.12598h1.57227v1.59277h-1.57227v2.83008c0,.729.28955,1.09375.86816,1.09375.22803,0,.4624-.06592.7041-.19824v1.59961Z" fill="#2f2f2f"/>
        <path d="M318.83975,80.71533h-4.56641c.07275,1.01611.71338,1.52441,1.9209,1.52441.77002,0,1.44678-.18213,2.03027-.54688v1.55859c-.64697.34619-1.48779.51953-2.52246.51953-1.13037,0-2.00732-.31348-2.63184-.93994s-.93652-1.50049-.93652-2.62158c0-1.16211.3374-2.08252,1.01172-2.76172s1.50391-1.01855,2.48828-1.01855c1.021,0,1.81055.30322,2.36865.90918s.8374,1.42871.8374,2.46777v.90918ZM316.83682,79.38916c0-1.00244-.40576-1.50391-1.2168-1.50391-.34619,0-.646.14355-.89893.43066s-.40674.64502-.46143,1.07324h2.57715Z" fill="#2f2f2f"/>
        <path d="M330.03701,83.6001h-5.83789v-9.80273h2.20801v8.01172h3.62988v1.79102Z" fill="#2f2f2f"/>
        <path d="M332.18057,75.49268c-.36475,0-.66309-.1084-.89551-.32471s-.34863-.48193-.34863-.79639c0-.32373.11621-.58789.34863-.79297s.53076-.30762.89551-.30762c.36914,0,.66895.10254.89893.30762s.34521.46924.34521.79297c0,.32812-.11523.59717-.34521.80664s-.52979.31445-.89893.31445ZM333.24697,83.6001h-2.16016v-7h2.16016v7Z" fill="#2f2f2f"/>
        <path d="M341.78994,83.6001h-2.15332v-3.88965c0-1.08447-.38721-1.62695-1.16211-1.62695-.37354,0-.68115.14355-.92285.43066s-.3623.65186-.3623,1.09375v3.99219h-2.16016v-7h2.16016v1.10742h.02734c.51514-.85205,1.26465-1.27832,2.24902-1.27832,1.54932,0,2.32422.96143,2.32422,2.88477v4.28613Z" fill="#2f2f2f"/>
        <path d="M350.50137,83.6001h-2.59082l-2.23535-3.47266h-.02734v3.47266h-2.16016v-10.36328h2.16016v6.59668h.02734l2.08496-3.2334h2.56348l-2.50879,3.28809,2.68652,3.71191Z" fill="#2f2f2f"/>
        <path d="M354.71914,83.41553v-1.75c.35547.21436.70996.37354,1.06299.47852s.68701.15723,1.00146.15723c.38281,0,.68457-.05225.90576-.15723s.33154-.26416.33154-.47852c0-.13672-.05029-.25049-.15039-.3418s-.229-.1709-.38623-.23926-.3291-.12988-.51611-.18457-.3667-.11621-.54004-.18457c-.27783-.10498-.52295-.21777-.73486-.33838s-.38965-.26074-.5332-.42041-.25293-.34424-.32812-.55371-.11279-.45801-.11279-.74512c0-.39209.08545-.729.25635-1.01172s.39893-.51367.68359-.69385.61084-.31201.97754-.39648.74854-.12646,1.14502-.12646c.31006,0,.62451.02393.94336.07178s.6333.11719.94336.2085v1.66797c-.27344-.15967-.56641-.2793-.87842-.35889s-.61865-.11963-.91943-.11963c-.14111,0-.27441.0127-.3999.0376s-.23584.06152-.33154.10938-.1709.10938-.22559.18457-.08203.16064-.08203.25635c0,.12744.04102.23682.12305.32812s.18896.16992.32129.23584.2793.12549.44092.17773.32227.10596.48193.16064c.28711.1001.54688.20947.7793.32812s.43164.25732.59814.41699.29395.34619.38281.56055.1333.46924.1333.76562c0,.41455-.08984.76904-.27002,1.06299s-.41943.5332-.71777.71777-.64258.31885-1.03223.40332-.79395.12646-1.21338.12646c-.77002,0-1.4834-.11865-2.13965-.35547Z" fill="#2f2f2f"/>
        <path d="M367.66885,80.71533h-4.56641c.07275,1.01611.71338,1.52441,1.9209,1.52441.77002,0,1.44678-.18213,2.03027-.54688v1.55859c-.64697.34619-1.48779.51953-2.52246.51953-1.13037,0-2.00732-.31348-2.63184-.93994s-.93652-1.50049-.93652-2.62158c0-1.16211.3374-2.08252,1.01172-2.76172s1.50391-1.01855,2.48828-1.01855c1.021,0,1.81055.30322,2.36865.90918s.8374,1.42871.8374,2.46777v.90918ZM365.66592,79.38916c0-1.00244-.40576-1.50391-1.2168-1.50391-.34619,0-.646.14355-.89893.43066s-.40674.64502-.46143,1.07324h2.57715Z" fill="#2f2f2f"/>
        <path d="M373.6,78.54834c-.25977-.14111-.56299-.21191-.90918-.21191-.46924,0-.83643.17188-1.10059.51611s-.39648.8125-.39648,1.40479v3.34277h-2.16016v-7h2.16016v1.29883h.02734c.3418-.94775.95703-1.42188,1.8457-1.42188.22803,0,.40576.02734.5332.08203v1.98926Z" fill="#2f2f2f"/>
        <path d="M381.69814,76.6001l-2.60449,7h-2.46094l-2.48145-7h2.31055l1.2168,4.31348c.13672.48779.21631.90234.23926,1.24414h.02734c.03174-.32373.11621-.72461.25293-1.20312l1.24414-4.35449h2.25586Z" fill="#2f2f2f"/>
        <path d="M383.74453,75.49268c-.36475,0-.66309-.1084-.89551-.32471s-.34863-.48193-.34863-.79639c0-.32373.11621-.58789.34863-.79297s.53076-.30762.89551-.30762c.36914,0,.66895.10254.89893.30762s.34521.46924.34521.79297c0,.32812-.11523.59717-.34521.80664s-.52979.31445-.89893.31445ZM384.81094,83.6001h-2.16016v-7h2.16016v7Z" fill="#2f2f2f"/>
        <path d="M391.89053,83.34717c-.48779.28271-1.19189.42383-2.1123.42383-1.07568,0-1.9458-.32568-2.61133-.97754s-.99805-1.49268-.99805-2.52246c0-1.18945.35645-2.12695,1.06982-2.81299s1.66699-1.02881,2.86084-1.02881c.82471,0,1.42188.10938,1.79102.32812v1.83203c-.45117-.3374-.95459-.50586-1.51074-.50586-.61963,0-1.11084.18115-1.47314.54346s-.54346.8623-.54346,1.50049c0,.61963.17334,1.10645.51953,1.45947s.82275.52979,1.42871.52979c.5376,0,1.06396-.16846,1.5791-.50586v1.73633Z" fill="#2f2f2f"/>
        <path d="M399.60586,80.71533h-4.56641c.07275,1.01611.71338,1.52441,1.9209,1.52441.77002,0,1.44678-.18213,2.03027-.54688v1.55859c-.64697.34619-1.48779.51953-2.52246.51953-1.13037,0-2.00732-.31348-2.63184-.93994s-.93652-1.50049-.93652-2.62158c0-1.16211.3374-2.08252,1.01172-2.76172s1.50391-1.01855,2.48828-1.01855c1.021,0,1.81055.30322,2.36865.90918s.8374,1.42871.8374,2.46777v.90918ZM397.60293,79.38916c0-1.00244-.40576-1.50391-1.2168-1.50391-.34619,0-.646.14355-.89893.43066s-.40674.64502-.46143,1.07324h2.57715Z" fill="#2f2f2f"/>
      </g>
      <g>
        <path d="M275.29873,31.94287h-2.40625l-.69727-2.18066h-3.48633l-.69043,2.18066h-2.39258l3.56836-9.80273h2.61816l3.48633,9.80273ZM271.68936,28.06689l-1.05273-3.29492c-.07764-.24609-.13232-.54004-.16406-.88184h-.05469c-.02295.28711-.07959.57178-.1709.85449l-1.06641,3.32227h2.50879Z" fill="#2f2f2f"/>
        <path d="M282.66348,24.94287l-2.60449,7h-2.46094l-2.48145-7h2.31055l1.2168,4.31348c.13672.48779.21631.90234.23926,1.24414h.02734c.03174-.32373.11621-.72461.25293-1.20312l1.24414-4.35449h2.25586Z" fill="#2f2f2f"/>
        <path d="M289.31924,31.94287h-2.04395v-1.00488h-.02734c-.46924.78369-1.16455,1.17578-2.08496,1.17578-.6792,0-1.21338-.19238-1.60303-.57764s-.58447-.89893-.58447-1.5415c0-1.35791.8042-2.14209,2.41309-2.35156l1.90039-.25293c0-.76562-.41455-1.14844-1.24414-1.14844-.83398,0-1.62695.24854-2.37891.74512v-1.62695c.30078-.15479.71191-.2915,1.23389-.41016s.99707-.17773,1.42529-.17773c1.99609,0,2.99414.99561,2.99414,2.9873v4.18359ZM287.28896,29.09912v-.47168l-1.27148.16406c-.70166.09131-1.05273.40771-1.05273.9502,0,.24609.08545.44775.25635.60498s.40234.23584.69385.23584c.40576,0,.73584-.14014.99121-.42041s.38281-.63477.38281-1.06299Z" fill="#2f2f2f"/>
        <path d="M292.08975,23.83545c-.36475,0-.66309-.1084-.89551-.32471s-.34863-.48193-.34863-.79639c0-.32373.11621-.58789.34863-.79297s.53076-.30762.89551-.30762c.36914,0,.66895.10254.89893.30762s.34521.46924.34521.79297c0,.32812-.11523.59717-.34521.80664s-.52979.31445-.89893.31445ZM293.15615,31.94287h-2.16016v-7h2.16016v7Z" fill="#2f2f2f"/>
        <path d="M297.09121,31.94287h-2.16016v-10.36328h2.16016v10.36328Z" fill="#2f2f2f"/>
        <path d="M304.75625,31.94287h-2.04395v-1.00488h-.02734c-.46924.78369-1.16455,1.17578-2.08496,1.17578-.6792,0-1.21338-.19238-1.60303-.57764s-.58447-.89893-.58447-1.5415c0-1.35791.8042-2.14209,2.41309-2.35156l1.90039-.25293c0-.76562-.41455-1.14844-1.24414-1.14844-.83398,0-1.62695.24854-2.37891.74512v-1.62695c.30078-.15479.71191-.2915,1.23389-.41016s.99707-.17773,1.42529-.17773c1.99609,0,2.99414.99561,2.99414,2.9873v4.18359ZM302.72598,29.09912v-.47168l-1.27148.16406c-.70166.09131-1.05273.40771-1.05273.9502,0,.24609.08545.44775.25635.60498s.40234.23584.69385.23584c.40576,0,.73584-.14014.99121-.42041s.38281-.63477.38281-1.06299Z" fill="#2f2f2f"/>
        <path d="M308.64004,31.12939h-.02734v.81348h-2.16016v-10.36328h2.16016v4.41602h.02734c.5332-.81592,1.29199-1.22363,2.27637-1.22363.90234,0,1.59717.31006,2.08496.92969s.73145,1.46729.73145,2.54297c0,1.1665-.28467,2.10303-.85449,2.80957s-1.33057,1.05957-2.2832,1.05957c-.86133,0-1.51318-.32812-1.95508-.98438ZM308.57852,28.17627v.71777c0,.45117.12988.82471.38965,1.12109s.59229.44434.99805.44434c.49219,0,.87402-.19043,1.14502-.5708s.40674-.91943.40674-1.6167c0-.57861-.12402-1.03125-.37256-1.35693s-.60254-.48877-1.06299-.48877c-.43311,0-.79199.16162-1.07666.48535s-.42725.74512-.42725,1.26465Z" fill="#2f2f2f"/>
        <path d="M316.22793,23.83545c-.36475,0-.66309-.1084-.89551-.32471s-.34863-.48193-.34863-.79639c0-.32373.11621-.58789.34863-.79297s.53076-.30762.89551-.30762c.36914,0,.66895.10254.89893.30762s.34521.46924.34521.79297c0,.32812-.11523.59717-.34521.80664s-.52979.31445-.89893.31445ZM317.29434,31.94287h-2.16016v-7h2.16016v7Z" fill="#2f2f2f"/>
        <path d="M321.22988,31.94287h-2.16016v-10.36328h2.16016v10.36328Z" fill="#2f2f2f"/>
        <path d="M324.09854,23.83545c-.36475,0-.66309-.1084-.89551-.32471s-.34863-.48193-.34863-.79639c0-.32373.11621-.58789.34863-.79297s.53076-.30762.89551-.30762c.36914,0,.66895.10254.89893.30762s.34521.46924.34521.79297c0,.32812-.11523.59717-.34521.80664s-.52979.31445-.89893.31445ZM325.16494,31.94287h-2.16016v-7h2.16016v7Z" fill="#2f2f2f"/>
        <path d="M331.10098,31.86084c-.31885.16846-.7998.25293-1.44238.25293-1.52197,0-2.2832-.79053-2.2832-2.37207v-3.20605h-1.13477v-1.59277h1.13477v-1.51074l2.15332-.61523v2.12598h1.57227v1.59277h-1.57227v2.83008c0,.729.28955,1.09375.86816,1.09375.22803,0,.4624-.06592.7041-.19824v1.59961Z" fill="#2f2f2f"/>
        <path d="M339.32607,24.94287l-2.84375,7.56055c-.68359,1.81836-1.71338,2.72754-3.08984,2.72754-.52393,0-.95459-.05908-1.29199-.17773v-1.72266c.28711.16846.59912.25293.93652.25293.55615,0,.94336-.26221,1.16211-.78613l.36914-.86816-2.84375-6.98633h2.39258l1.30566,4.25879c.08203.26416.146.57666.19141.93652h.02734c.04102-.26416.11621-.57178.22559-.92285l1.31934-4.27246h2.13965Z" fill="#2f2f2f"/>
        <path d="M351.32314,31.94287h-7.89551v-1.27148l5.02441-6.7334h-4.66211v-1.79785h7.51953v1.2373l-4.91504,6.77441h4.92871v1.79102Z" fill="#2f2f2f"/>
        <path d="M355.8417,32.11377c-1.1665,0-2.08398-.32715-2.75146-.98096s-1.00146-1.5415-1.00146-2.6626c0-1.15771.34619-2.06348,1.03906-2.71729s1.62939-.98096,2.80957-.98096c1.16211,0,2.07373.32715,2.73438.98096s.99121,1.51855.99121,2.59424c0,1.16211-.34082,2.08057-1.02197,2.75488s-1.61426,1.01172-2.79932,1.01172ZM355.89639,26.42627c-.51025,0-.90674.17529-1.18945.52637s-.42383.84766-.42383,1.49023c0,1.34424.54248,2.0166,1.62695,2.0166,1.03467,0,1.55176-.69043,1.55176-2.07129,0-1.30811-.52197-1.96191-1.56543-1.96191Z" fill="#2f2f2f"/>
        <path d="M367.8041,31.94287h-2.15332v-3.88965c0-1.08447-.38721-1.62695-1.16211-1.62695-.37354,0-.68115.14355-.92285.43066s-.3623.65186-.3623,1.09375v3.99219h-2.16016v-7h2.16016v1.10742h.02734c.51514-.85205,1.26465-1.27832,2.24902-1.27832,1.54932,0,2.32422.96143,2.32422,2.88477v4.28613Z" fill="#2f2f2f"/>
        <path d="M375.82607,29.05811h-4.56641c.07275,1.01611.71338,1.52441,1.9209,1.52441.77002,0,1.44678-.18213,2.03027-.54688v1.55859c-.64697.34619-1.48779.51953-2.52246.51953-1.13037,0-2.00732-.31348-2.63184-.93994s-.93652-1.50049-.93652-2.62158c0-1.16211.3374-2.08252,1.01172-2.76172s1.50391-1.01855,2.48828-1.01855c1.021,0,1.81055.30322,2.36865.90918s.8374,1.42871.8374,2.46777v.90918ZM373.82314,27.73193c0-1.00244-.40576-1.50391-1.2168-1.50391-.34619,0-.646.14355-.89893.43066s-.40674.64502-.46143,1.07324h2.57715Z" fill="#2f2f2f"/>
        <path d="M382.99697,30.15186h4.15625v1.79102h-6.52148v-.73828c0-.50146.08447-.95117.25293-1.3501s.38037-.75635.63574-1.07324.53418-.59717.8374-.84082.59131-.46387.86475-.65967c.28711-.20508.53906-.40088.75537-.58789s.39893-.37256.54688-.55713.25879-.37158.33154-.56055.10938-.39062.10938-.60498c0-.41943-.11865-.73584-.35547-.9502s-.59912-.32129-1.08691-.32129c-.84326,0-1.6499.33496-2.41992,1.00488v-1.90039c.85205-.55127,1.81396-.82715,2.88477-.82715.49658,0,.94238.06494,1.33643.19482s.72803.31543,1.00146.55713.48193.53418.62549.87842.21533.72803.21533,1.15186c0,.45117-.06934.85205-.2085,1.20312s-.32373.66992-.55371.95703-.49561.55029-.79639.78955-.61279.4707-.93652.69385c-.21875.15479-.42969.30859-.63232.46143s-.38184.30322-.53662.45117-.27783.29297-.36914.43408-.13672.27588-.13672.40332Z" fill="#2f2f2f"/>
      </g>
      <g>
        <path d="M491.86172,31.94287h-2.40625l-.69727-2.18066h-3.48633l-.69043,2.18066h-2.39258l3.56836-9.80273h2.61816l3.48633,9.80273ZM488.25234,28.06689l-1.05273-3.29492c-.07715-.24609-.13184-.54004-.16406-.88184h-.05469c-.02246.28711-.0791.57178-.1709.85449l-1.06641,3.32227h2.50879Z" fill="#2f2f2f"/>
        <path d="M499.22695,24.94287l-2.60449,7h-2.46094l-2.48145-7h2.31055l1.2168,4.31348c.13672.48779.21582.90234.23926,1.24414h.02734c.03125-.32373.11621-.72461.25293-1.20312l1.24414-4.35449h2.25586Z" fill="#2f2f2f"/>
        <path d="M505.88223,31.94287h-2.04395v-1.00488h-.02734c-.46875.78369-1.16406,1.17578-2.08496,1.17578-.67871,0-1.21289-.19238-1.60254-.57764s-.58496-.89893-.58496-1.5415c0-1.35791.80469-2.14209,2.41309-2.35156l1.90039-.25293c0-.76562-.41406-1.14844-1.24414-1.14844-.83398,0-1.62695.24854-2.37891.74512v-1.62695c.30078-.15479.71191-.2915,1.23438-.41016.52148-.11865.99707-.17773,1.4248-.17773,1.99609,0,2.99414.99561,2.99414,2.9873v4.18359ZM503.85195,29.09912v-.47168l-1.27148.16406c-.70117.09131-1.05273.40771-1.05273.9502,0,.24609.08594.44775.25684.60498s.40234.23584.69336.23584c.40625,0,.73633-.14014.99121-.42041.25586-.28027.38281-.63477.38281-1.06299Z" fill="#2f2f2f"/>
        <path d="M508.65273,23.83545c-.36426,0-.66309-.1084-.89551-.32471s-.34863-.48193-.34863-.79639c0-.32373.11621-.58789.34863-.79297s.53125-.30762.89551-.30762c.36914,0,.66895.10254.89941.30762.22949.20508.34473.46924.34473.79297,0,.32812-.11523.59717-.34473.80664-.23047.20947-.53027.31445-.89941.31445ZM509.71914,31.94287h-2.16016v-7h2.16016v7Z" fill="#2f2f2f"/>
        <path d="M513.65469,31.94287h-2.16016v-10.36328h2.16016v10.36328Z" fill="#2f2f2f"/>
        <path d="M521.31973,31.94287h-2.04395v-1.00488h-.02734c-.46973.78369-1.16504,1.17578-2.08496,1.17578-.67969,0-1.21387-.19238-1.60352-.57764s-.58398-.89893-.58398-1.5415c0-1.35791.80371-2.14209,2.41309-2.35156l1.90039-.25293c0-.76562-.41504-1.14844-1.24414-1.14844-.83398,0-1.62695.24854-2.37891.74512v-1.62695c.30078-.15479.71191-.2915,1.2334-.41016.52246-.11865.99707-.17773,1.42578-.17773,1.99609,0,2.99414.99561,2.99414,2.9873v4.18359ZM519.28945,29.09912v-.47168l-1.27148.16406c-.70215.09131-1.05273.40771-1.05273.9502,0,.24609.08496.44775.25586.60498s.40234.23584.69434.23584c.40527,0,.73535-.14014.99121-.42041.25488-.28027.38281-.63477.38281-1.06299Z" fill="#2f2f2f"/>
        <path d="M525.20352,31.12939h-.02734v.81348h-2.16016v-10.36328h2.16016v4.41602h.02734c.5332-.81592,1.29199-1.22363,2.27637-1.22363.90234,0,1.59668.31006,2.08496.92969.4873.61963.73145,1.46729.73145,2.54297,0,1.1665-.28516,2.10303-.85449,2.80957-.57031.70654-1.33105,1.05957-2.2832,1.05957-.86133,0-1.51367-.32812-1.95508-.98438ZM525.14199,28.17627v.71777c0,.45117.12988.82471.38965,1.12109s.5918.44434.99805.44434c.49219,0,.87402-.19043,1.14453-.5708.27148-.38037.40723-.91943.40723-1.6167,0-.57861-.12402-1.03125-.37305-1.35693-.24805-.32568-.60254-.48877-1.0625-.48877-.43359,0-.79199.16162-1.07715.48535-.28418.32373-.42676.74512-.42676,1.26465Z" fill="#2f2f2f"/>
        <path d="M532.79141,23.83545c-.36523,0-.66309-.1084-.89551-.32471s-.34863-.48193-.34863-.79639c0-.32373.11621-.58789.34863-.79297s.53027-.30762.89551-.30762c.36914,0,.66895.10254.89844.30762.23047.20508.3457.46924.3457.79297,0,.32812-.11523.59717-.3457.80664-.22949.20947-.5293.31445-.89844.31445ZM533.85781,31.94287h-2.16016v-7h2.16016v7Z" fill="#2f2f2f"/>
        <path d="M537.79336,31.94287h-2.16016v-10.36328h2.16016v10.36328Z" fill="#2f2f2f"/>
        <path d="M540.66152,23.83545c-.36426,0-.66309-.1084-.89551-.32471s-.34863-.48193-.34863-.79639c0-.32373.11621-.58789.34863-.79297s.53125-.30762.89551-.30762c.36914,0,.66895.10254.89941.30762.22949.20508.34473.46924.34473.79297,0,.32812-.11523.59717-.34473.80664-.23047.20947-.53027.31445-.89941.31445ZM541.72793,31.94287h-2.16016v-7h2.16016v7Z" fill="#2f2f2f"/>
        <path d="M547.66445,31.86084c-.31934.16846-.7998.25293-1.44238.25293-1.52246,0-2.2832-.79053-2.2832-2.37207v-3.20605h-1.13477v-1.59277h1.13477v-1.51074l2.15332-.61523v2.12598h1.57227v1.59277h-1.57227v2.83008c0,.729.28906,1.09375.86816,1.09375.22754,0,.46191-.06592.7041-.19824v1.59961Z" fill="#2f2f2f"/>
        <path d="M555.88906,24.94287l-2.84375,7.56055c-.68359,1.81836-1.71289,2.72754-3.08984,2.72754-.52344,0-.9541-.05908-1.29199-.17773v-1.72266c.28711.16846.59961.25293.93652.25293.55664,0,.94336-.26221,1.16211-.78613l.36914-.86816-2.84375-6.98633h2.39258l1.30566,4.25879c.08203.26416.14648.57666.19141.93652h.02734c.04102-.26416.11621-.57178.22559-.92285l1.31934-4.27246h2.13965Z" fill="#2f2f2f"/>
        <path d="M567.88613,31.94287h-7.89551v-1.27148l5.02441-6.7334h-4.66211v-1.79785h7.51953v1.2373l-4.91504,6.77441h4.92871v1.79102Z" fill="#2f2f2f"/>
        <path d="M572.40469,32.11377c-1.16602,0-2.08398-.32715-2.75098-.98096-.66797-.65381-1.00195-1.5415-1.00195-2.6626,0-1.15771.34668-2.06348,1.03906-2.71729.69336-.65381,1.62988-.98096,2.80957-.98096,1.16211,0,2.07422.32715,2.73438.98096.66113.65381.99121,1.51855.99121,2.59424,0,1.16211-.34082,2.08057-1.02148,2.75488-.68164.67432-1.61426,1.01172-2.7998,1.01172ZM572.45938,26.42627c-.50977,0-.90625.17529-1.18945.52637-.28223.35107-.42383.84766-.42383,1.49023,0,1.34424.54297,2.0166,1.62695,2.0166,1.03516,0,1.55176-.69043,1.55176-2.07129,0-1.30811-.52148-1.96191-1.56543-1.96191Z" fill="#2f2f2f"/>
        <path d="M584.36758,31.94287h-2.15332v-3.88965c0-1.08447-.3877-1.62695-1.16211-1.62695-.37402,0-.68164.14355-.92285.43066-.24219.28711-.3623.65186-.3623,1.09375v3.99219h-2.16016v-7h2.16016v1.10742h.02734c.51465-.85205,1.26465-1.27832,2.24902-1.27832,1.54883,0,2.32422.96143,2.32422,2.88477v4.28613Z" fill="#2f2f2f"/>
        <path d="M592.38906,29.05811h-4.56641c.07324,1.01611.71387,1.52441,1.9209,1.52441.77051,0,1.44727-.18213,2.03027-.54688v1.55859c-.64648.34619-1.4873.51953-2.52246.51953-1.12988,0-2.00684-.31348-2.63184-.93994-.62402-.62646-.93652-1.50049-.93652-2.62158,0-1.16211.33789-2.08252,1.01172-2.76172.6748-.6792,1.50391-1.01855,2.48828-1.01855,1.02148,0,1.81055.30322,2.36914.90918.55762.60596.83691,1.42871.83691,2.46777v.90918ZM590.38613,27.73193c0-1.00244-.40527-1.50391-1.2168-1.50391-.3457,0-.64551.14355-.89844.43066s-.40723.64502-.46191,1.07324h2.57715Z" fill="#2f2f2f"/>
        <path d="M597.42715,31.62158v-1.87988c.65625.47852,1.42188.71777,2.29688.71777.55176,0,.98145-.11865,1.28906-.35547s.46094-.56738.46094-.99121c0-.4375-.19043-.7749-.57031-1.01172-.38086-.23682-.90332-.35547-1.56934-.35547h-.90918v-1.6543h.84082c1.27637,0,1.91406-.42383,1.91406-1.27148,0-.79736-.48926-1.19629-1.46973-1.19629-.65625,0-1.29395.21191-1.91406.63574v-1.76367c.68848-.34619,1.49023-.51953,2.40625-.51953,1.00293,0,1.7832.22559,2.3418.67676.55762.45117.83691,1.03662.83691,1.75684,0,1.28076-.64941,2.08252-1.94824,2.40625v.03418c.69336.08643,1.24023.33838,1.64062.75537.40137.41699.60156.92871.60156,1.53467,0,.91602-.33496,1.64062-1.00488,2.17383s-1.59473.7998-2.77539.7998c-1.01172,0-1.83398-.16406-2.46777-.49219Z" fill="#2f2f2f"/>
      </g>
      <g>
        <path d="M518.9877,256.17578v-9.80273h2.78906c.84766,0,1.51953.20752,2.0166.62207s.74512.95459.74512,1.62012c0,.55615-.15039,1.03906-.45117,1.44922s-.71582.70166-1.24414.875v.02734c.66113.07764,1.18945.32715,1.58594.74854s.59473.96973.59473,1.64404c0,.83838-.30078,1.51758-.90234,2.03711s-1.36035.7793-2.27637.7793h-2.85742ZM520.13613,247.41211v3.16504h1.17578c.62891,0,1.12305-.15137,1.4834-.45459s.54004-.73047.54004-1.28174c0-.95264-.62695-1.42871-1.87988-1.42871h-1.31934ZM520.13613,251.60938v3.52734h1.55859c.6748,0,1.19727-.15967,1.56836-.47852.37207-.31885.55762-.75635.55762-1.3125,0-1.15771-.78809-1.73633-2.36523-1.73633h-1.31934Z" fill="#2f2f2f"/>
        <path d="M531.83145,256.17578h-1.12109v-1.09375h-.02734c-.4873.83838-1.20508,1.25781-2.15332,1.25781-.69727,0-1.24316-.18457-1.63672-.55371-.39453-.36914-.5918-.85889-.5918-1.46973,0-1.30811.77051-2.06885,2.31055-2.2832l2.09863-.29395c0-1.18945-.48047-1.78418-1.44238-1.78418-.84277,0-1.60449.28711-2.2832.86133v-1.14844c.68848-.4375,1.48145-.65625,2.37891-.65625,1.64551,0,2.46777.87061,2.46777,2.61133v4.55273ZM530.71035,252.63477l-1.68848.23242c-.51953.07275-.91113.20166-1.17578.38623s-.39648.51172-.39648.98096c0,.3418.12207.62109.36523.8374.24414.21631.56934.32471.97461.32471.55566,0,1.01562-.19482,1.37695-.58447.36328-.38965.54395-.88281.54395-1.47998v-.69727Z" fill="#2f2f2f"/>
        <path d="M538.67324,255.85449c-.53809.32373-1.17578.48535-1.91406.48535-.99805,0-1.80371-.32471-2.41602-.97412-.61328-.64941-.91992-1.49121-.91992-2.52588,0-1.15283.33008-2.0791.99121-2.77881s1.54297-1.04932,2.64551-1.04932c.61523,0,1.15723.11377,1.62695.3418v1.14844c-.51953-.36475-1.0752-.54688-1.66797-.54688-.71582,0-1.30273.25635-1.75977.76904-.45898.5127-.6875,1.18604-.6875,2.02002,0,.82031.21484,1.46729.64648,1.94141.42969.47412,1.00781.71094,1.73242.71094.61035,0,1.18457-.20264,1.72266-.6084v1.06641Z" fill="#2f2f2f"/>
        <path d="M545.97207,256.17578h-1.57227l-3.08984-3.36328h-.02734v3.36328h-1.12109v-10.36328h1.12109v6.56934h.02734l2.93945-3.20605h1.46973l-3.24707,3.37695,3.5,3.62305Z" fill="#2f2f2f"/>
        <path d="M552.3959,252.95605h-4.94238c.01855.7793.22754,1.38086.62891,1.80469s.95215.63574,1.6543.63574c.78809,0,1.5127-.25977,2.17383-.7793v1.05273c-.61523.44678-1.42871.66992-2.44043.66992-.98926,0-1.76562-.31787-2.33105-.95361s-.84766-1.53027-.84766-2.68311c0-1.08936.30859-1.97656.92578-2.6626.61816-.68604,1.38477-1.02881,2.30078-1.02881s1.625.29639,2.12598.88867.75195,1.41504.75195,2.46777v.58789ZM551.24746,252.00586c-.00488-.64697-.16113-1.15088-.46777-1.51074-.30859-.35986-.73535-.54004-1.28223-.54004-.52832,0-.97754.18896-1.34668.56738s-.59668.87256-.68359,1.4834h3.78027Z" fill="#2f2f2f"/>
        <path d="M559.89004,256.17578h-1.12109v-3.99219c0-1.48584-.54199-2.22852-1.62695-2.22852-.56055,0-1.02441.21094-1.39062.63232-.36719.42139-.55078.95361-.55078,1.59619v3.99219h-1.12109v-7h1.12109v1.16211h.02734c.52832-.88428,1.29395-1.32617,2.29688-1.32617.76562,0,1.35156.24707,1.75684.7417s.6084,1.20898.6084,2.14307v4.2793Z" fill="#2f2f2f"/>
        <path d="M567.96426,256.17578h-1.12109v-1.18945h-.02734c-.51953.90234-1.32129,1.35352-2.40625,1.35352-.87988,0-1.58203-.31348-2.10938-.93994-.52539-.62646-.78906-1.47998-.78906-2.56006,0-1.15771.29199-2.08496.875-2.78223s1.36035-1.0459,2.33105-1.0459c.96191,0,1.66113.37842,2.09863,1.13477h.02734v-4.33398h1.12109v10.36328ZM566.84316,253.01074v-1.03223c0-.56494-.18652-1.04346-.56055-1.43555s-.84766-.58789-1.42188-.58789c-.68359,0-1.22168.25049-1.61328.75195s-.58789,1.19385-.58789,2.07812c0,.80664.1875,1.44336.56445,1.91064.375.46729.87988.70068,1.51367.70068.62402,0,1.13086-.22559,1.52148-.67676.38867-.45117.58398-1.021.58398-1.70898Z" fill="#2f2f2f"/>
        <path d="M519.85195,264.19824c-.2002,0-.37109-.06836-.5127-.20508s-.21191-.31006-.21191-.51953.07031-.38379.21191-.52295.3125-.2085.5127-.2085c.20508,0,.37891.06934.52344.2085.14258.13916.21484.31348.21484.52295,0,.20068-.07227.37158-.21484.5127-.14453.14111-.31836.21191-.52344.21191ZM520.39883,272.97559h-1.12109v-7h1.12109v7Z" fill="#2f2f2f"/>
        <path d="M528.32754,272.97559h-1.12109v-3.99219c0-1.48584-.54199-2.22852-1.62695-2.22852-.56055,0-1.02441.21094-1.39062.63232-.36719.42139-.55078.95361-.55078,1.59619v3.99219h-1.12109v-7h1.12109v1.16211h.02734c.52832-.88428,1.29395-1.32617,2.29688-1.32617.76562,0,1.35156.24707,1.75684.7417s.6084,1.20898.6084,2.14307v4.2793Z" fill="#2f2f2f"/>
        <path d="M529.97598,272.72266v-1.20312c.61035.45117,1.2832.67676,2.0166.67676.98438,0,1.47656-.32812,1.47656-.98438,0-.18701-.04199-.34521-.12598-.4751-.08496-.12988-.19922-.24512-.3418-.34521-.14453-.1001-.3125-.19043-.50586-.27002-.19434-.07959-.40234-.16309-.62598-.24951-.30957-.12305-.58203-.24707-.81738-.37256-.23438-.12549-.42969-.2666-.58789-.42383-.15625-.15723-.27539-.33594-.35547-.53662-.0791-.20068-.11914-.43506-.11914-.7041,0-.32812.0752-.61865.22559-.87158s.35059-.46484.60156-.63574.53613-.2998.8584-.38623c.32031-.08643.65234-.12988.99414-.12988.60645,0,1.14844.10498,1.62695.31445v1.13477c-.51465-.3374-1.10742-.50586-1.77734-.50586-.20996,0-.39844.02393-.56738.07178s-.31348.11523-.43457.20166c-.12012.08643-.21387.19043-.2793.31104-.06641.12061-.09961.25391-.09961.3999,0,.18213.0332.33496.09961.45801.06543.12305.16211.23242.29004.32812s.28223.18213.46484.25977.38965.16162.62207.25293c.30957.11865.58789.24023.83398.36572s.45605.2666.62891.42383.30664.33838.40039.54346c.09277.20508.13965.44873.13965.73145,0,.34619-.07617.64697-.22949.90234-.15234.25537-.35645.46729-.61133.63574s-.54883.29395-.88184.37598-.68164.12305-1.0459.12305c-.71973,0-1.34473-.13916-1.87305-.41699Z" fill="#2f2f2f"/>
        <path d="M539.6293,272.90723c-.26465.146-.61328.21875-1.0459.21875-1.22559,0-1.83887-.68359-1.83887-2.05078v-4.14258h-1.20312v-.95703h1.20312v-1.70898l1.12109-.3623v2.07129h1.76367v.95703h-1.76367v3.94434c0,.46924.08008.8042.23926,1.00488s.42383.30078.79297.30078c.28223,0,.52637-.07764.73145-.23242v.95703Z" fill="#2f2f2f"/>
        <path d="M546.24551,272.97559h-1.12109v-1.09375h-.02734c-.4873.83838-1.20508,1.25781-2.15332,1.25781-.69727,0-1.24316-.18457-1.63672-.55371-.39453-.36914-.5918-.85889-.5918-1.46973,0-1.30811.77051-2.06885,2.31055-2.2832l2.09863-.29395c0-1.18945-.48047-1.78418-1.44238-1.78418-.84277,0-1.60449.28711-2.2832.86133v-1.14844c.68848-.4375,1.48145-.65625,2.37891-.65625,1.64551,0,2.46777.87061,2.46777,2.61133v4.55273ZM545.12441,269.43457l-1.68848.23242c-.51953.07275-.91113.20166-1.17578.38623s-.39648.51172-.39648.98096c0,.3418.12207.62109.36523.8374.24414.21631.56934.32471.97461.32471.55566,0,1.01562-.19482,1.37695-.58447.36328-.38965.54395-.88281.54395-1.47998v-.69727Z" fill="#2f2f2f"/>
        <path d="M554.07754,272.97559h-1.12109v-3.99219c0-1.48584-.54199-2.22852-1.62695-2.22852-.56055,0-1.02441.21094-1.39062.63232-.36719.42139-.55078.95361-.55078,1.59619v3.99219h-1.12109v-7h1.12109v1.16211h.02734c.52832-.88428,1.29395-1.32617,2.29688-1.32617.76562,0,1.35156.24707,1.75684.7417s.6084,1.20898.6084,2.14307v4.2793Z" fill="#2f2f2f"/>
        <path d="M560.92617,272.6543c-.53809.32373-1.17578.48535-1.91406.48535-.99805,0-1.80371-.32471-2.41602-.97412-.61328-.64941-.91992-1.49121-.91992-2.52588,0-1.15283.33008-2.0791.99121-2.77881s1.54297-1.04932,2.64551-1.04932c.61523,0,1.15723.11377,1.62695.3418v1.14844c-.51953-.36475-1.0752-.54688-1.66797-.54688-.71582,0-1.30273.25635-1.75977.76904-.45898.5127-.6875,1.18604-.6875,2.02002,0,.82031.21484,1.46729.64648,1.94141.42969.47412,1.00781.71094,1.73242.71094.61035,0,1.18457-.20264,1.72266-.6084v1.06641Z" fill="#2f2f2f"/>
        <path d="M568.09707,269.75586h-4.94238c.01855.7793.22754,1.38086.62891,1.80469s.95215.63574,1.6543.63574c.78809,0,1.5127-.25977,2.17383-.7793v1.05273c-.61523.44678-1.42871.66992-2.44043.66992-.98926,0-1.76562-.31787-2.33105-.95361s-.84766-1.53027-.84766-2.68311c0-1.08936.30859-1.97656.92578-2.6626.61816-.68604,1.38477-1.02881,2.30078-1.02881s1.625.29639,2.12598.88867.75195,1.41504.75195,2.46777v.58789ZM566.94863,268.80566c-.00488-.64697-.16113-1.15088-.46777-1.51074-.30859-.35986-.73535-.54004-1.28223-.54004-.52832,0-.97754.18896-1.34668.56738s-.59668.87256-.68359,1.4834h3.78027Z" fill="#2f2f2f"/>
      </g>
      <g>
        <path d="M302.42568,256.17578v-9.80273h2.78906c.84766,0,1.51953.20752,2.0166.62207s.74512.95459.74512,1.62012c0,.55615-.15039,1.03906-.45117,1.44922s-.71582.70166-1.24414.875v.02734c.66113.07764,1.18945.32715,1.58594.74854s.59473.96973.59473,1.64404c0,.83838-.30078,1.51758-.90234,2.03711s-1.36035.7793-2.27637.7793h-2.85742ZM303.57412,247.41211v3.16504h1.17578c.62891,0,1.12305-.15137,1.4834-.45459s.54004-.73047.54004-1.28174c0-.95264-.62695-1.42871-1.87988-1.42871h-1.31934ZM303.57412,251.60938v3.52734h1.55859c.6748,0,1.19727-.15967,1.56836-.47852.37207-.31885.55762-.75635.55762-1.3125,0-1.15771-.78809-1.73633-2.36523-1.73633h-1.31934Z" fill="#2f2f2f"/>
        <path d="M315.26943,256.17578h-1.12109v-1.09375h-.02734c-.4873.83838-1.20508,1.25781-2.15332,1.25781-.69727,0-1.24316-.18457-1.63672-.55371-.39453-.36914-.5918-.85889-.5918-1.46973,0-1.30811.77051-2.06885,2.31055-2.2832l2.09863-.29395c0-1.18945-.48047-1.78418-1.44238-1.78418-.84277,0-1.60449.28711-2.2832.86133v-1.14844c.68848-.4375,1.48145-.65625,2.37891-.65625,1.64551,0,2.46777.87061,2.46777,2.61133v4.55273ZM314.14834,252.63477l-1.68848.23242c-.51953.07275-.91113.20166-1.17578.38623s-.39648.51172-.39648.98096c0,.3418.12207.62109.36523.8374.24414.21631.56934.32471.97461.32471.55566,0,1.01562-.19482,1.37695-.58447.36328-.38965.54395-.88281.54395-1.47998v-.69727Z" fill="#2f2f2f"/>
        <path d="M322.11123,255.85449c-.53809.32373-1.17578.48535-1.91406.48535-.99805,0-1.80371-.32471-2.41602-.97412-.61328-.64941-.91992-1.49121-.91992-2.52588,0-1.15283.33008-2.0791.99121-2.77881s1.54297-1.04932,2.64551-1.04932c.61523,0,1.15723.11377,1.62695.3418v1.14844c-.51953-.36475-1.0752-.54688-1.66797-.54688-.71582,0-1.30273.25635-1.75977.76904-.45898.5127-.6875,1.18604-.6875,2.02002,0,.82031.21484,1.46729.64648,1.94141.42969.47412,1.00781.71094,1.73242.71094.61035,0,1.18457-.20264,1.72266-.6084v1.06641Z" fill="#2f2f2f"/>
        <path d="M329.41006,256.17578h-1.57227l-3.08984-3.36328h-.02734v3.36328h-1.12109v-10.36328h1.12109v6.56934h.02734l2.93945-3.20605h1.46973l-3.24707,3.37695,3.5,3.62305Z" fill="#2f2f2f"/>
        <path d="M335.83389,252.95605h-4.94238c.01855.7793.22754,1.38086.62891,1.80469s.95215.63574,1.6543.63574c.78809,0,1.5127-.25977,2.17383-.7793v1.05273c-.61523.44678-1.42871.66992-2.44043.66992-.98926,0-1.76562-.31787-2.33105-.95361s-.84766-1.53027-.84766-2.68311c0-1.08936.30859-1.97656.92578-2.6626.61816-.68604,1.38477-1.02881,2.30078-1.02881s1.625.29639,2.12598.88867.75195,1.41504.75195,2.46777v.58789ZM334.68545,252.00586c-.00488-.64697-.16113-1.15088-.46777-1.51074-.30859-.35986-.73535-.54004-1.28223-.54004-.52832,0-.97754.18896-1.34668.56738s-.59668.87256-.68359,1.4834h3.78027Z" fill="#2f2f2f"/>
        <path d="M343.32803,256.17578h-1.12109v-3.99219c0-1.48584-.54199-2.22852-1.62695-2.22852-.56055,0-1.02441.21094-1.39062.63232-.36719.42139-.55078.95361-.55078,1.59619v3.99219h-1.12109v-7h1.12109v1.16211h.02734c.52832-.88428,1.29395-1.32617,2.29688-1.32617.76562,0,1.35156.24707,1.75684.7417s.6084,1.20898.6084,2.14307v4.2793Z" fill="#2f2f2f"/>
        <path d="M351.40225,256.17578h-1.12109v-1.18945h-.02734c-.51953.90234-1.32129,1.35352-2.40625,1.35352-.87988,0-1.58203-.31348-2.10938-.93994-.52539-.62646-.78906-1.47998-.78906-2.56006,0-1.15771.29199-2.08496.875-2.78223s1.36035-1.0459,2.33105-1.0459c.96191,0,1.66113.37842,2.09863,1.13477h.02734v-4.33398h1.12109v10.36328ZM350.28115,253.01074v-1.03223c0-.56494-.18652-1.04346-.56055-1.43555s-.84766-.58789-1.42188-.58789c-.68359,0-1.22168.25049-1.61328.75195s-.58789,1.19385-.58789,2.07812c0,.80664.1875,1.44336.56445,1.91064.375.46729.87988.70068,1.51367.70068.62402,0,1.13086-.22559,1.52148-.67676.38867-.45117.58398-1.021.58398-1.70898Z" fill="#2f2f2f"/>
        <path d="M303.28994,264.19824c-.2002,0-.37109-.06836-.5127-.20508s-.21191-.31006-.21191-.51953.07031-.38379.21191-.52295.3125-.2085.5127-.2085c.20508,0,.37891.06934.52344.2085.14258.13916.21484.31348.21484.52295,0,.20068-.07227.37158-.21484.5127-.14453.14111-.31836.21191-.52344.21191ZM303.83682,272.97559h-1.12109v-7h1.12109v7Z" fill="#2f2f2f"/>
        <path d="M311.76553,272.97559h-1.12109v-3.99219c0-1.48584-.54199-2.22852-1.62695-2.22852-.56055,0-1.02441.21094-1.39062.63232-.36719.42139-.55078.95361-.55078,1.59619v3.99219h-1.12109v-7h1.12109v1.16211h.02734c.52832-.88428,1.29395-1.32617,2.29688-1.32617.76562,0,1.35156.24707,1.75684.7417s.6084,1.20898.6084,2.14307v4.2793Z" fill="#2f2f2f"/>
        <path d="M313.41396,272.72266v-1.20312c.61035.45117,1.2832.67676,2.0166.67676.98438,0,1.47656-.32812,1.47656-.98438,0-.18701-.04199-.34521-.12598-.4751-.08496-.12988-.19922-.24512-.3418-.34521-.14453-.1001-.3125-.19043-.50586-.27002-.19434-.07959-.40234-.16309-.62598-.24951-.30957-.12305-.58203-.24707-.81738-.37256-.23438-.12549-.42969-.2666-.58789-.42383-.15625-.15723-.27539-.33594-.35547-.53662-.0791-.20068-.11914-.43506-.11914-.7041,0-.32812.0752-.61865.22559-.87158s.35059-.46484.60156-.63574.53613-.2998.8584-.38623c.32031-.08643.65234-.12988.99414-.12988.60645,0,1.14844.10498,1.62695.31445v1.13477c-.51465-.3374-1.10742-.50586-1.77734-.50586-.20996,0-.39844.02393-.56738.07178s-.31348.11523-.43457.20166c-.12012.08643-.21387.19043-.2793.31104-.06641.12061-.09961.25391-.09961.3999,0,.18213.0332.33496.09961.45801.06543.12305.16211.23242.29004.32812s.28223.18213.46484.25977.38965.16162.62207.25293c.30957.11865.58789.24023.83398.36572s.45605.2666.62891.42383.30664.33838.40039.54346c.09277.20508.13965.44873.13965.73145,0,.34619-.07617.64697-.22949.90234-.15234.25537-.35645.46729-.61133.63574s-.54883.29395-.88184.37598-.68164.12305-1.0459.12305c-.71973,0-1.34473-.13916-1.87305-.41699Z" fill="#2f2f2f"/>
        <path d="M323.06729,272.90723c-.26465.146-.61328.21875-1.0459.21875-1.22559,0-1.83887-.68359-1.83887-2.05078v-4.14258h-1.20312v-.95703h1.20312v-1.70898l1.12109-.3623v2.07129h1.76367v.95703h-1.76367v3.94434c0,.46924.08008.8042.23926,1.00488s.42383.30078.79297.30078c.28223,0,.52637-.07764.73145-.23242v.95703Z" fill="#2f2f2f"/>
        <path d="M329.6835,272.97559h-1.12109v-1.09375h-.02734c-.4873.83838-1.20508,1.25781-2.15332,1.25781-.69727,0-1.24316-.18457-1.63672-.55371-.39453-.36914-.5918-.85889-.5918-1.46973,0-1.30811.77051-2.06885,2.31055-2.2832l2.09863-.29395c0-1.18945-.48047-1.78418-1.44238-1.78418-.84277,0-1.60449.28711-2.2832.86133v-1.14844c.68848-.4375,1.48145-.65625,2.37891-.65625,1.64551,0,2.46777.87061,2.46777,2.61133v4.55273ZM328.5624,269.43457l-1.68848.23242c-.51953.07275-.91113.20166-1.17578.38623s-.39648.51172-.39648.98096c0,.3418.12207.62109.36523.8374.24414.21631.56934.32471.97461.32471.55566,0,1.01562-.19482,1.37695-.58447.36328-.38965.54395-.88281.54395-1.47998v-.69727Z" fill="#2f2f2f"/>
        <path d="M337.51553,272.97559h-1.12109v-3.99219c0-1.48584-.54199-2.22852-1.62695-2.22852-.56055,0-1.02441.21094-1.39062.63232-.36719.42139-.55078.95361-.55078,1.59619v3.99219h-1.12109v-7h1.12109v1.16211h.02734c.52832-.88428,1.29395-1.32617,2.29688-1.32617.76562,0,1.35156.24707,1.75684.7417s.6084,1.20898.6084,2.14307v4.2793Z" fill="#2f2f2f"/>
        <path d="M344.36416,272.6543c-.53809.32373-1.17578.48535-1.91406.48535-.99805,0-1.80371-.32471-2.41602-.97412-.61328-.64941-.91992-1.49121-.91992-2.52588,0-1.15283.33008-2.0791.99121-2.77881s1.54297-1.04932,2.64551-1.04932c.61523,0,1.15723.11377,1.62695.3418v1.14844c-.51953-.36475-1.0752-.54688-1.66797-.54688-.71582,0-1.30273.25635-1.75977.76904-.45898.5127-.6875,1.18604-.6875,2.02002,0,.82031.21484,1.46729.64648,1.94141.42969.47412,1.00781.71094,1.73242.71094.61035,0,1.18457-.20264,1.72266-.6084v1.06641Z" fill="#2f2f2f"/>
        <path d="M351.53506,269.75586h-4.94238c.01855.7793.22754,1.38086.62891,1.80469s.95215.63574,1.6543.63574c.78809,0,1.5127-.25977,2.17383-.7793v1.05273c-.61523.44678-1.42871.66992-2.44043.66992-.98926,0-1.76562-.31787-2.33105-.95361s-.84766-1.53027-.84766-2.68311c0-1.08936.30859-1.97656.92578-2.6626.61816-.68604,1.38477-1.02881,2.30078-1.02881s1.625.29639,2.12598.88867.75195,1.41504.75195,2.46777v.58789ZM350.38662,268.80566c-.00488-.64697-.16113-1.15088-.46777-1.51074-.30859-.35986-.73535-.54004-1.28223-.54004-.52832,0-.97754.18896-1.34668.56738s-.59668.87256-.68359,1.4834h3.78027Z" fill="#2f2f2f"/>
      </g>
      <g>
        <path d="M87.42129,256.17578v-9.80273h2.78906c.84766,0,1.51953.20752,2.0166.62207s.74512.95459.74512,1.62012c0,.55615-.15039,1.03906-.45117,1.44922s-.71582.70166-1.24414.875v.02734c.66113.07764,1.18945.32715,1.58594.74854s.59473.96973.59473,1.64404c0,.83838-.30078,1.51758-.90234,2.03711s-1.36035.7793-2.27637.7793h-2.85742ZM88.56973,247.41211v3.16504h1.17578c.62891,0,1.12305-.15137,1.4834-.45459s.54004-.73047.54004-1.28174c0-.95264-.62695-1.42871-1.87988-1.42871h-1.31934ZM88.56973,251.60938v3.52734h1.55859c.6748,0,1.19727-.15967,1.56836-.47852.37207-.31885.55762-.75635.55762-1.3125,0-1.15771-.78809-1.73633-2.36523-1.73633h-1.31934Z" fill="#2f2f2f"/>
        <path d="M100.26504,256.17578h-1.12109v-1.09375h-.02734c-.4873.83838-1.20508,1.25781-2.15332,1.25781-.69727,0-1.24316-.18457-1.63672-.55371-.39453-.36914-.5918-.85889-.5918-1.46973,0-1.30811.77051-2.06885,2.31055-2.2832l2.09863-.29395c0-1.18945-.48047-1.78418-1.44238-1.78418-.84277,0-1.60449.28711-2.2832.86133v-1.14844c.68848-.4375,1.48145-.65625,2.37891-.65625,1.64551,0,2.46777.87061,2.46777,2.61133v4.55273ZM99.14395,252.63477l-1.68848.23242c-.51953.07275-.91113.20166-1.17578.38623s-.39648.51172-.39648.98096c0,.3418.12207.62109.36523.8374.24414.21631.56934.32471.97461.32471.55566,0,1.01562-.19482,1.37695-.58447.36328-.38965.54395-.88281.54395-1.47998v-.69727Z" fill="#2f2f2f"/>
        <path d="M107.10684,255.85449c-.53809.32373-1.17578.48535-1.91406.48535-.99805,0-1.80371-.32471-2.41602-.97412-.61328-.64941-.91992-1.49121-.91992-2.52588,0-1.15283.33008-2.0791.99121-2.77881s1.54297-1.04932,2.64551-1.04932c.61523,0,1.15723.11377,1.62695.3418v1.14844c-.51953-.36475-1.0752-.54688-1.66797-.54688-.71582,0-1.30273.25635-1.75977.76904-.45898.5127-.6875,1.18604-.6875,2.02002,0,.82031.21484,1.46729.64648,1.94141.42969.47412,1.00781.71094,1.73242.71094.61035,0,1.18457-.20264,1.72266-.6084v1.06641Z" fill="#2f2f2f"/>
        <path d="M114.40566,256.17578h-1.57227l-3.08984-3.36328h-.02734v3.36328h-1.12109v-10.36328h1.12109v6.56934h.02734l2.93945-3.20605h1.46973l-3.24707,3.37695,3.5,3.62305Z" fill="#2f2f2f"/>
        <path d="M120.82949,252.95605h-4.94238c.01855.7793.22754,1.38086.62891,1.80469s.95215.63574,1.6543.63574c.78809,0,1.5127-.25977,2.17383-.7793v1.05273c-.61523.44678-1.42871.66992-2.44043.66992-.98926,0-1.76562-.31787-2.33105-.95361s-.84766-1.53027-.84766-2.68311c0-1.08936.30859-1.97656.92578-2.6626.61816-.68604,1.38477-1.02881,2.30078-1.02881s1.625.29639,2.12598.88867.75195,1.41504.75195,2.46777v.58789ZM119.68105,252.00586c-.00488-.64697-.16113-1.15088-.46777-1.51074-.30859-.35986-.73535-.54004-1.28223-.54004-.52832,0-.97754.18896-1.34668.56738s-.59668.87256-.68359,1.4834h3.78027Z" fill="#2f2f2f"/>
        <path d="M128.32363,256.17578h-1.12109v-3.99219c0-1.48584-.54199-2.22852-1.62695-2.22852-.56055,0-1.02441.21094-1.39062.63232-.36719.42139-.55078.95361-.55078,1.59619v3.99219h-1.12109v-7h1.12109v1.16211h.02734c.52832-.88428,1.29395-1.32617,2.29688-1.32617.76562,0,1.35156.24707,1.75684.7417s.6084,1.20898.6084,2.14307v4.2793Z" fill="#2f2f2f"/>
        <path d="M136.39785,256.17578h-1.12109v-1.18945h-.02734c-.51953.90234-1.32129,1.35352-2.40625,1.35352-.87988,0-1.58203-.31348-2.10938-.93994-.52539-.62646-.78906-1.47998-.78906-2.56006,0-1.15771.29199-2.08496.875-2.78223s1.36035-1.0459,2.33105-1.0459c.96191,0,1.66113.37842,2.09863,1.13477h.02734v-4.33398h1.12109v10.36328ZM135.27676,253.01074v-1.03223c0-.56494-.18652-1.04346-.56055-1.43555s-.84766-.58789-1.42188-.58789c-.68359,0-1.22168.25049-1.61328.75195s-.58789,1.19385-.58789,2.07812c0,.80664.1875,1.44336.56445,1.91064.375.46729.87988.70068,1.51367.70068.62402,0,1.13086-.22559,1.52148-.67676.38867-.45117.58398-1.021.58398-1.70898Z" fill="#2f2f2f"/>
        <path d="M88.28555,264.19824c-.2002,0-.37109-.06836-.5127-.20508s-.21191-.31006-.21191-.51953.07031-.38379.21191-.52295.3125-.2085.5127-.2085c.20508,0,.37891.06934.52344.2085.14258.13916.21484.31348.21484.52295,0,.20068-.07227.37158-.21484.5127-.14453.14111-.31836.21191-.52344.21191ZM88.83242,272.97559h-1.12109v-7h1.12109v7Z" fill="#2f2f2f"/>
        <path d="M96.76113,272.97559h-1.12109v-3.99219c0-1.48584-.54199-2.22852-1.62695-2.22852-.56055,0-1.02441.21094-1.39062.63232-.36719.42139-.55078.95361-.55078,1.59619v3.99219h-1.12109v-7h1.12109v1.16211h.02734c.52832-.88428,1.29395-1.32617,2.29688-1.32617.76562,0,1.35156.24707,1.75684.7417s.6084,1.20898.6084,2.14307v4.2793Z" fill="#2f2f2f"/>
        <path d="M98.40957,272.72266v-1.20312c.61035.45117,1.2832.67676,2.0166.67676.98438,0,1.47656-.32812,1.47656-.98438,0-.18701-.04199-.34521-.12598-.4751-.08496-.12988-.19922-.24512-.3418-.34521-.14453-.1001-.3125-.19043-.50586-.27002-.19434-.07959-.40234-.16309-.62598-.24951-.30957-.12305-.58203-.24707-.81738-.37256-.23438-.12549-.42969-.2666-.58789-.42383-.15625-.15723-.27539-.33594-.35547-.53662-.0791-.20068-.11914-.43506-.11914-.7041,0-.32812.0752-.61865.22559-.87158s.35059-.46484.60156-.63574.53613-.2998.8584-.38623c.32031-.08643.65234-.12988.99414-.12988.60645,0,1.14844.10498,1.62695.31445v1.13477c-.51465-.3374-1.10742-.50586-1.77734-.50586-.20996,0-.39844.02393-.56738.07178s-.31348.11523-.43457.20166c-.12012.08643-.21387.19043-.2793.31104-.06641.12061-.09961.25391-.09961.3999,0,.18213.0332.33496.09961.45801.06543.12305.16211.23242.29004.32812s.28223.18213.46484.25977.38965.16162.62207.25293c.30957.11865.58789.24023.83398.36572s.45605.2666.62891.42383.30664.33838.40039.54346c.09277.20508.13965.44873.13965.73145,0,.34619-.07617.64697-.22949.90234-.15234.25537-.35645.46729-.61133.63574s-.54883.29395-.88184.37598-.68164.12305-1.0459.12305c-.71973,0-1.34473-.13916-1.87305-.41699Z" fill="#2f2f2f"/>
        <path d="M108.06289,272.90723c-.26465.146-.61328.21875-1.0459.21875-1.22559,0-1.83887-.68359-1.83887-2.05078v-4.14258h-1.20312v-.95703h1.20312v-1.70898l1.12109-.3623v2.07129h1.76367v.95703h-1.76367v3.94434c0,.46924.08008.8042.23926,1.00488s.42383.30078.79297.30078c.28223,0,.52637-.07764.73145-.23242v.95703Z" fill="#2f2f2f"/>
        <path d="M114.6791,272.97559h-1.12109v-1.09375h-.02734c-.4873.83838-1.20508,1.25781-2.15332,1.25781-.69727,0-1.24316-.18457-1.63672-.55371-.39453-.36914-.5918-.85889-.5918-1.46973,0-1.30811.77051-2.06885,2.31055-2.2832l2.09863-.29395c0-1.18945-.48047-1.78418-1.44238-1.78418-.84277,0-1.60449.28711-2.2832.86133v-1.14844c.68848-.4375,1.48145-.65625,2.37891-.65625,1.64551,0,2.46777.87061,2.46777,2.61133v4.55273ZM113.55801,269.43457l-1.68848.23242c-.51953.07275-.91113.20166-1.17578.38623s-.39648.51172-.39648.98096c0,.3418.12207.62109.36523.8374.24414.21631.56934.32471.97461.32471.55566,0,1.01562-.19482,1.37695-.58447.36328-.38965.54395-.88281.54395-1.47998v-.69727Z" fill="#2f2f2f"/>
        <path d="M122.51113,272.97559h-1.12109v-3.99219c0-1.48584-.54199-2.22852-1.62695-2.22852-.56055,0-1.02441.21094-1.39062.63232-.36719.42139-.55078.95361-.55078,1.59619v3.99219h-1.12109v-7h1.12109v1.16211h.02734c.52832-.88428,1.29395-1.32617,2.29688-1.32617.76562,0,1.35156.24707,1.75684.7417s.6084,1.20898.6084,2.14307v4.2793Z" fill="#2f2f2f"/>
        <path d="M129.35977,272.6543c-.53809.32373-1.17578.48535-1.91406.48535-.99805,0-1.80371-.32471-2.41602-.97412-.61328-.64941-.91992-1.49121-.91992-2.52588,0-1.15283.33008-2.0791.99121-2.77881s1.54297-1.04932,2.64551-1.04932c.61523,0,1.15723.11377,1.62695.3418v1.14844c-.51953-.36475-1.0752-.54688-1.66797-.54688-.71582,0-1.30273.25635-1.75977.76904-.45898.5127-.6875,1.18604-.6875,2.02002,0,.82031.21484,1.46729.64648,1.94141.42969.47412,1.00781.71094,1.73242.71094.61035,0,1.18457-.20264,1.72266-.6084v1.06641Z" fill="#2f2f2f"/>
        <path d="M136.53066,269.75586h-4.94238c.01855.7793.22754,1.38086.62891,1.80469s.95215.63574,1.6543.63574c.78809,0,1.5127-.25977,2.17383-.7793v1.05273c-.61523.44678-1.42871.66992-2.44043.66992-.98926,0-1.76562-.31787-2.33105-.95361s-.84766-1.53027-.84766-2.68311c0-1.08936.30859-1.97656.92578-2.6626.61816-.68604,1.38477-1.02881,2.30078-1.02881s1.625.29639,2.12598.88867.75195,1.41504.75195,2.46777v.58789ZM135.38223,268.80566c-.00488-.64697-.16113-1.15088-.46777-1.51074-.30859-.35986-.73535-.54004-1.28223-.54004-.52832,0-.97754.18896-1.34668.56738s-.59668.87256-.68359,1.4834h3.78027Z" fill="#2f2f2f"/>
      </g>
    </g>
  </g>
</svg>