<?xml version="1.0" encoding="UTF-8"?>
<svg xmlns="http://www.w3.org/2000/svg" width="668.8" height="184.8" xmlns:xlink="http://www.w3.org/1999/xlink" viewBox="0 0 668.8 184.8">
  <defs>
    <linearGradient id="Cool_gray_gradient_1" data-name="Cool gray gradient 1" x1="8.8" y1="92.4" x2="220" y2="92.4" gradientUnits="userSpaceOnUse">
      <stop offset="0" stop-color="#f5f5f4"/>
      <stop offset="1" stop-color="#ececea"/>
    </linearGradient>
    <linearGradient id="Cool_gray_gradient_1-2" data-name="Cool gray gradient 1" x1="227.57526" x2="438.77526" xlink:href="#Cool_gray_gradient_1"/>
    <linearGradient id="Cool_gray_gradient_1-3" data-name="Cool gray gradient 1" x1="448.8" x2="660" xlink:href="#Cool_gray_gradient_1"/>
    <linearGradient id="linear-gradient" x1="-228.3396" y1="1987.60455" x2="-228.3396" y2="1959.85158" gradientTransform="translate(564 2066.3998) scale(1 -1)" gradientUnits="userSpaceOnUse">
      <stop offset="0" stop-color="#0078d4"/>
      <stop offset="1" stop-color="#005ba1"/>
    </linearGradient>
  </defs>
  <g isolation="isolate">
    <g id="Shapes">
      <rect width="668.8" height="184.8" fill="#fff"/>
      <g>
        <g mix-blend-mode="multiply" opacity=".7">
          <rect x="9.3" y="9.3" width="211.2" height="167.2" rx="8" ry="8"/>
          <rect x="9.3" y="9.3" width="211.2" height="167.2" rx="8" ry="8" opacity=".2"/>
        </g>
        <g>
          <rect x="8.8" y="8.8" width="211.2" height="167.2" rx="8" ry="8" fill="url(#Cool_gray_gradient_1)"/>
          <rect x="8.8" y="8.8" width="211.2" height="167.2" rx="8" ry="8" fill="#0078d4" opacity=".2"/>
        </g>
      </g>
      <g>
        <g mix-blend-mode="multiply" opacity=".7">
          <rect x="228.07526" y="9.3" width="211.2" height="167.2" rx="8" ry="8"/>
          <rect x="228.07526" y="9.3" width="211.2" height="167.2" rx="8" ry="8" opacity=".2"/>
        </g>
        <g>
          <rect x="227.57526" y="8.8" width="211.2" height="167.2" rx="8" ry="8" fill="url(#Cool_gray_gradient_1-2)"/>
          <rect x="227.57526" y="8.8" width="211.2" height="167.2" rx="8" ry="8" fill="#0078d4" opacity=".2"/>
        </g>
      </g>
      <g>
        <g mix-blend-mode="multiply" opacity=".7">
          <rect x="449.3" y="9.3" width="211.2" height="167.2" rx="8" ry="8"/>
          <rect x="449.3" y="9.3" width="211.2" height="167.2" rx="8" ry="8" opacity=".2"/>
        </g>
        <g>
          <rect x="448.8" y="8.8" width="211.2" height="167.2" rx="8" ry="8" fill="url(#Cool_gray_gradient_1-3)"/>
          <rect x="448.8" y="8.8" width="211.2" height="167.2" rx="8" ry="8" fill="#0078d4" opacity=".2"/>
        </g>
      </g>
      <g>
        <rect x="8.8" y="57.2" width="651.2" height="92.4" fill="#fff"/>
        <rect x="8.8" y="57.2" width="651.2" height="92.4" fill="#1a00e2" opacity=".03"/>
        <rect x="8.8" y="57.2" width="651.2" height="92.4" fill="none" opacity=".5" stroke="#1a00e2" stroke-width=".25"/>
      </g>
      <g id="eb36956a-3212-4e09-b072-ae7cdb8dd87a">
        <g>
          <g>
            <path d="M348.73619,92.53736c-.00195,7.21571-5.85096,13.06472-13.06667,13.06667-.5675.00099-1.13447-.03444-1.69743-.10609-1.76507-.22206-3.46381-.81241-4.9862-1.73279l-.14145-1.04321-.15913-1.23771-.10609-.76031c-.05254-.27965-.19541-.53433-.40668-.72494-.44386-.33713-1.0674-.29957-1.46757.08841l-.37131.37131-.58349.58349c-1.93815-2.24294-3.04898-5.08242-3.14732-8.04511-.01439-.1528-.02029-.30627-.01768-.45972,0-7.22629,5.85806-13.08435,13.08435-13.08435,2.33272-.00556,4.62275.62533,6.62351,1.82474l.14145,1.06089.17682,1.22003.12377.90176c.0336.23767.1384.45959.30059.63654.20955.20097.48767.31475.77799.31827.29209.00555.57354-.10958.77799-.31827l1.00785-1.00785c2.02966,2.34597,3.14358,5.34615,3.13671,8.44825Z" fill="url(#linear-gradient)"/>
            <path d="M345.32365,84.99087c-.0846-.11981-.17924-.2322-.2829-.33595l-.44204.44204c-.20445.20868-.4859.32382-.77799.31827-.29032-.00352-.56844-.1173-.77799-.31827-.6629.23852-1.34255.42764-2.03338.56581l-.1945.03536-.07073-.1945c-.32399-1.16237-.79331-2.27923-1.39684-3.32413l-.30059-.51277.56581.21218c1.08303.40058,2.09712.96728,3.00586,1.67975l-.17682-1.22003c-1.79649-1.19791-3.87511-1.90501-6.02941-2.05106-.22986,0-.49508-.01768-.74263-.01768s-.53045.01768-.74263.01768c-.53463.03474-1.06629.10563-1.59134.21218-2.66865.52298-5.09151,1.90836-6.89581,3.94299-.14145.17682-.30059.35363-.44204.54813-1.69293,2.1516-2.60889,4.81227-2.59919,7.55002-.00712.25984.0047.51986.03536.77799.14169,2.46648,1.03655,4.83013,2.56383,6.77204.10609.12377.21218.24754.33595.37131l.37131-.37131c.40017-.38798,1.02371-.42554,1.46757-.08841.70644-.23843,1.42684-.4333,2.15715-.58349l.1945-.05304.05305.1945c.3251,1.16198.79436,2.27871,1.39684,3.32413l.31827.53045-.58349-.21218c-1.09139-.40996-2.11166-.98871-3.02355-1.71511l.15913,1.23771c1.36004.90882,2.88634,1.53977,4.49112,1.85656.12377.01768.26522.05304.38899.07073.38899.05304.79567.10609,1.20235.12377.21218.01768.45972.03536.74263.03536s.51277-.01768.74263-.03536c.53404-.03099,1.06556-.09595,1.59134-.1945,2.66349-.52337,5.08061-1.90902,6.87813-3.94299.14145-.17682.30059-.37131.45972-.54813,1.68524-2.15466,2.59473-4.81462,2.58151-7.55002.01813-2.73914-.89877-5.40251-2.59919-7.55002ZM333.68919,81.38383l.05305-.05304.06365-.02122c.60864-.09239,1.22327-.13967,1.83888-.14145.62732.00247,1.25366.04975,1.87425.14145l.07073.01768.03536.05304c1.05352,1.22816,1.8152,2.67897,2.22788,4.24357l.07073.22986-.24754.03536c-1.32839.20141-2.67014.3019-4.01371.30059-1.34942.00061-2.69699-.09986-4.03139-.30059l-.22986-.03536.07073-.22986c.40197-1.56658,1.16084-3.01895,2.21727-4.24357v.00354ZM330.0291,97.15578h.03536v.1945c.05305.31827.12377.63654.1945.9548l.03536.21218-.21218.03536c-1.07979.23717-2.13833.56242-3.165.97249l-.15913.07073-.10609-.12377c-1.25759-1.63859-2.04601-3.58827-2.28092-5.64042-.05048-.42836-.0741-.85945-.07073-1.29075.00291-2.50571.82918-4.94102,2.35165-6.93117l.10609-.14145.15913.07073c1.02452.41614,2.08358.74155,3.165.97249l.21218.05305-.03536.21218c-.41899,1.89257-.62655,3.82581-.61885,5.76419-.00577,1.54555.1244,3.08861.38899,4.61135v.00354ZM330.32969,85.66277c-.90477-.18271-1.79213-.443-2.65223-.77799l-.31827-.10609.22986-.24754c1.16599-1.17076,2.57138-2.07551,4.1198-2.65223l.58349-.21218-.31827.51277c-.59934,1.04698-1.06844,2.1633-1.39684,3.32413l-.05305.1945-.1945-.03536ZM331.1784,98.35813l-.05305-.21218c-.40016-1.84119-.59584-3.72092-.58349-5.60505-.01232-1.88997.18336-3.77556.58349-5.62274l.05305-.1945.1945.03536c1.42162.22072,2.85797.33302,4.29662.33595,1.43862-.00362,2.87492-.11592,4.29662-.33595l.1945-.03536.03536.1945c.41497,1.84505.61668,3.73166.60117,5.62274.01555,1.88524-.18617,3.76599-.60117,5.60505l-.03536.21218-.1945-.03536c-1.4205-.23018-2.8576-.34254-4.29662-.33595-1.43904-.00729-2.8762.10508-4.29662.33595l-.1945.03536ZM337.63217,103.69796l-.03536.05304h-.0778c-.61322.10564-1.23431.15888-1.85656.15913-.62242.00006-1.24364-.05437-1.85656-.16267l-.07073-.01768-.05305-.05304c-.31249-.3199-.58555-.67606-.81335-1.06089-.48626-.76942-.87807-1.59461-1.16698-2.45774-.09236-.23034-.16915-.46663-.22986-.70726l-.07073-.24754.22986-.03536c1.33487-.19468,2.68242-.28925,4.0314-.2829,1.34312-.00699,2.68485.08759,4.01371.2829l.24754.03536-.07073.24754c-.40711,1.56532-1.16674,3.01683-2.2208,4.24357v.00354ZM343.73231,100.53296c-1.16211,1.17978-2.56825,2.09105-4.1198,2.66991l-.56581.21218.30059-.53045c.61093-1.04122,1.08066-2.15906,1.39684-3.32413l.07073-.1945.1945.05304c.90222.18525,1.78889.43943,2.65223.76031l.30059.12377-.22986.22986ZM344.66943,99.47206l-.08841.12377-.15913-.07073c-1.0308-.41551-2.09568-.74089-3.18268-.97249l-.21218-.03536.05304-.21218c.41708-1.89288.62461-3.82591.61886-5.76419.00672-1.93833-.20082-3.87146-.61886-5.76419l-.05304-.21218.21218-.05305c1.087-.23159,2.15188-.55697,3.18268-.97249l.14145-.07073.10609.14145c3.16144,4.08003,3.16144,9.78231,0,13.86234Z" fill="#5ea0ef"/>
            <path d="M337.06106,96.25756h-2.79545c-.24802.0032-.45167-.19526-.45487-.44327-.00063-.04878.00669-.09733.02167-.14375.0725-.25815.73732-2.45597.9937-3.30468-.90945-.46287-1.27148-1.57536-.8086-2.48482.46287-.90945,1.57536-1.27148,2.48482-.8086.90945.46287,1.27148,1.57536.8086,2.48482-.17725.34826-.46035.63136-.8086.8086.25638.84871.91944,3.04653.9937,3.30468.07521.23738-.05626.49079-.29365.566-.04569.01448-.0934.02157-.14132.02103Z" fill="#003067"/>
          </g>
          <path d="M351.48744,92.51968c.00763,4.22133-1.67313,8.27043-4.66793,11.24547-.18767.18839-.44138.29622-.70726.30059-.26657-.00109-.52147-.10943-.70726-.30059-.38933-.39114-.38933-1.02339,0-1.41452,2.60934-2.60555,4.07286-6.14347,4.06676-9.83095.01601-3.55805-1.3538-6.98256-3.81922-9.54804l-1.59134,1.59134c-.14519.13063-.36878.11884-.49942-.02635-.04268-.04744-.07174-.10554-.08408-.16815l-.74263-5.37519c-.02971-.18512.09627-.35928.2814-.38899.03564-.00572.07196-.00572.1076,0l5.37519.72494c.19302.02978.32535.2104.29557.40342-.01158.07506-.04702.1444-.10107.19775l-1.60902,1.60902c2.83981,2.94816,4.41909,6.88685,4.4027,10.98025ZM327.81183,100.83001c-.02931-.19309-.20961-.32586-.4027-.29655-.06711.01019-.12987.03948-.18079.08437l-1.60902,1.60902c-5.31777-5.44396-5.26733-14.1526.11316-19.53458.39549-.38049.40765-1.00955.02716-1.40505-.00888-.00923-.01793-.01828-.02716-.02716-.39114-.38933-1.02339-.38933-1.41452,0-6.15886,6.1807-6.20613,16.16378-.10609,22.40253l-1.60902,1.60902c-.13601.12905-.14166.34393-.01261.47994.05477.05772.12807.09437.2071.10355l5.37519.74263c.19407.02193.36917-.11762.39111-.31169.00357-.03161.00286-.06356-.00211-.09499l-.7497-5.36105Z" fill="#50e6ff"/>
        </g>
      </g>
    </g>
    <g id="Text">
      <g>
        <path d="M62.68584,35.1999h-2.40625l-.69727-2.18066h-3.48633l-.69043,2.18066h-2.39258l3.56836-9.80273h2.61816l3.48633,9.80273ZM59.07646,31.32393l-1.05273-3.29492c-.07764-.24609-.13232-.54004-.16406-.88184h-.05469c-.02295.28711-.07959.57178-.1709.85449l-1.06641,3.32227h2.50879Z"/>
        <path d="M70.05498,28.1999l-2.60449,7h-2.46094l-2.48145-7h2.31055l1.2168,4.31348c.13672.48779.21631.90234.23926,1.24414h.02734c.03174-.32373.11621-.72461.25293-1.20312l1.24414-4.35449h2.25586Z"/>
        <path d="M76.59014,35.1999h-2.04395v-1.00488h-.02734c-.46924.78369-1.16455,1.17578-2.08496,1.17578-.6792,0-1.21338-.19238-1.60303-.57764s-.58447-.89893-.58447-1.5415c0-1.35791.8042-2.14209,2.41309-2.35156l1.90039-.25293c0-.76562-.41455-1.14844-1.24414-1.14844-.83398,0-1.62695.24854-2.37891.74512v-1.62695c.30078-.15479.71191-.2915,1.23389-.41016s.99707-.17773,1.42529-.17773c1.99609,0,2.99414.99561,2.99414,2.9873v4.18359ZM74.55986,32.35615v-.47168l-1.27148.16406c-.70166.09131-1.05273.40771-1.05273.9502,0,.24609.08545.44775.25635.60498s.40234.23584.69385.23584c.40576,0,.73584-.14014.99121-.42041s.38281-.63477.38281-1.06299Z"/>
        <path d="M79.39287,27.09248c-.36475,0-.66309-.1084-.89551-.32471s-.34863-.48193-.34863-.79639c0-.32373.11621-.58789.34863-.79297s.53076-.30762.89551-.30762c.36914,0,.66895.10254.89893.30762s.34521.46924.34521.79297c0,.32812-.11523.59717-.34521.80664s-.52979.31445-.89893.31445ZM80.45928,35.1999h-2.16016v-7h2.16016v7Z"/>
        <path d="M84.43779,35.1999h-2.16016v-10.36328h2.16016v10.36328Z"/>
        <path d="M92.08037,35.1999h-2.04395v-1.00488h-.02734c-.46924.78369-1.16455,1.17578-2.08496,1.17578-.6792,0-1.21338-.19238-1.60303-.57764s-.58447-.89893-.58447-1.5415c0-1.35791.8042-2.14209,2.41309-2.35156l1.90039-.25293c0-.76562-.41455-1.14844-1.24414-1.14844-.83398,0-1.62695.24854-2.37891.74512v-1.62695c.30078-.15479.71191-.2915,1.23389-.41016s.99707-.17773,1.42529-.17773c1.99609,0,2.99414.99561,2.99414,2.9873v4.18359ZM90.0501,32.35615v-.47168l-1.27148.16406c-.70166.09131-1.05273.40771-1.05273.9502,0,.24609.08545.44775.25635.60498s.40234.23584.69385.23584c.40576,0,.73584-.14014.99121-.42041s.38281-.63477.38281-1.06299Z"/>
        <path d="M95.97686,34.38643h-.02734v.81348h-2.16016v-10.36328h2.16016v4.41602h.02734c.5332-.81592,1.29199-1.22363,2.27637-1.22363.90234,0,1.59717.31006,2.08496.92969s.73145,1.46729.73145,2.54297c0,1.1665-.28467,2.10303-.85449,2.80957s-1.33057,1.05957-2.2832,1.05957c-.86133,0-1.51318-.32812-1.95508-.98438ZM95.91533,31.4333v.71777c0,.45117.12988.82471.38965,1.12109s.59229.44434.99805.44434c.49219,0,.87402-.19043,1.14502-.5708s.40674-.91943.40674-1.6167c0-.57861-.12402-1.03125-.37256-1.35693s-.60254-.48877-1.06299-.48877c-.43311,0-.79199.16162-1.07666.48535s-.42725.74512-.42725,1.26465Z"/>
        <path d="M103.56475,27.09248c-.36475,0-.66309-.1084-.89551-.32471s-.34863-.48193-.34863-.79639c0-.32373.11621-.58789.34863-.79297s.53076-.30762.89551-.30762c.36914,0,.66895.10254.89893.30762s.34521.46924.34521.79297c0,.32812-.11523.59717-.34521.80664s-.52979.31445-.89893.31445ZM104.63115,35.1999h-2.16016v-7h2.16016v7Z"/>
        <path d="M108.60967,35.1999h-2.16016v-10.36328h2.16016v10.36328Z"/>
        <path d="M111.52178,27.09248c-.36475,0-.66309-.1084-.89551-.32471s-.34863-.48193-.34863-.79639c0-.32373.11621-.58789.34863-.79297s.53076-.30762.89551-.30762c.36914,0,.66895.10254.89893.30762s.34521.46924.34521.79297c0,.32812-.11523.59717-.34521.80664s-.52979.31445-.89893.31445ZM112.58818,35.1999h-2.16016v-7h2.16016v7Z"/>
        <path d="M118.63799,35.11787c-.31885.16846-.7998.25293-1.44238.25293-1.52197,0-2.2832-.79053-2.2832-2.37207v-3.20605h-1.13477v-1.59277h1.13477v-1.51074l2.15332-.61523v2.12598h1.57227v1.59277h-1.57227v2.83008c0,.729.28955,1.09375.86816,1.09375.22803,0,.4624-.06592.7041-.19824v1.59961Z"/>
        <path d="M126.51982,28.1999l-2.84375,7.56055c-.68359,1.81836-1.71338,2.72754-3.08984,2.72754-.52393,0-.95459-.05908-1.29199-.17773v-1.72266c.28711.16846.59912.25293.93652.25293.55615,0,.94336-.26221,1.16211-.78613l.36914-.86816-2.84375-6.98633h2.39258l1.30566,4.25879c.08203.26416.146.57666.19141.93652h.02734c.04102-.26416.11621-.57178.22559-.92285l1.31934-4.27246h2.13965Z"/>
        <path d="M138.51689,35.1999h-7.89551v-1.27148l5.02441-6.7334h-4.66211v-1.79785h7.51953v1.2373l-4.91504,6.77441h4.92871v1.79102Z"/>
        <path d="M143.0833,35.3708c-1.1665,0-2.08398-.32715-2.75146-.98096s-1.00146-1.5415-1.00146-2.6626c0-1.15771.34619-2.06348,1.03906-2.71729s1.62939-.98096,2.80957-.98096c1.16211,0,2.07373.32715,2.73438.98096s.99121,1.51855.99121,2.59424c0,1.16211-.34082,2.08057-1.02197,2.75488s-1.61426,1.01172-2.79932,1.01172ZM143.13799,29.6833c-.51025,0-.90674.17529-1.18945.52637s-.42383.84766-.42383,1.49023c0,1.34424.54248,2.0166,1.62695,2.0166,1.03467,0,1.55176-.69043,1.55176-2.07129,0-1.30811-.52197-1.96191-1.56543-1.96191Z"/>
        <path d="M155.0667,35.1999h-2.15332v-3.88965c0-1.08447-.38721-1.62695-1.16211-1.62695-.37354,0-.68115.14355-.92285.43066s-.3623.65186-.3623,1.09375v3.99219h-2.16016v-7h2.16016v1.10742h.02734c.51514-.85205,1.26465-1.27832,2.24902-1.27832,1.54932,0,2.32422.96143,2.32422,2.88477v4.28613Z"/>
        <path d="M163.06475,32.31514h-4.56641c.07275,1.01611.71338,1.52441,1.9209,1.52441.77002,0,1.44678-.18213,2.03027-.54688v1.55859c-.64697.34619-1.48779.51953-2.52246.51953-1.13037,0-2.00732-.31348-2.63184-.93994s-.93652-1.50049-.93652-2.62158c0-1.16211.3374-2.08252,1.01172-2.76172s1.50391-1.01855,2.48828-1.01855c1.021,0,1.81055.30322,2.36865.90918s.8374,1.42871.8374,2.46777v.90918ZM161.06182,30.98896c0-1.00244-.40576-1.50391-1.2168-1.50391-.34619,0-.646.14355-.89893.43066s-.40674.64502-.46143,1.07324h2.57715Z"/>
        <path d="M172.99053,25.17842v10.02148h-2.15332v-7.58789c-.11865.10498-.25879.2041-.42041.29736s-.33398.17773-.51611.25293-.37158.13916-.56738.19141-.38965.08984-.58105.11279v-1.81836c.56055-.16406,1.08936-.37354,1.58594-.62891s.9458-.53564,1.34668-.84082h1.30566Z"/>
      </g>
      <g>
        <path d="M281.71074,35.1999h-2.40625l-.69727-2.18066h-3.48633l-.69043,2.18066h-2.39258l3.56836-9.80273h2.61816l3.48633,9.80273ZM278.10137,31.32393l-1.05273-3.29492c-.07764-.24609-.13232-.54004-.16406-.88184h-.05469c-.02295.28711-.07959.57178-.1709.85449l-1.06641,3.32227h2.50879Z"/>
        <path d="M289.07988,28.1999l-2.60449,7h-2.46094l-2.48145-7h2.31055l1.2168,4.31348c.13672.48779.21631.90234.23926,1.24414h.02734c.03174-.32373.11621-.72461.25293-1.20312l1.24414-4.35449h2.25586Z"/>
        <path d="M295.61504,35.1999h-2.04395v-1.00488h-.02734c-.46924.78369-1.16455,1.17578-2.08496,1.17578-.6792,0-1.21338-.19238-1.60303-.57764s-.58447-.89893-.58447-1.5415c0-1.35791.8042-2.14209,2.41309-2.35156l1.90039-.25293c0-.76562-.41455-1.14844-1.24414-1.14844-.83398,0-1.62695.24854-2.37891.74512v-1.62695c.30078-.15479.71191-.2915,1.23389-.41016s.99707-.17773,1.42529-.17773c1.99609,0,2.99414.99561,2.99414,2.9873v4.18359ZM293.58477,32.35615v-.47168l-1.27148.16406c-.70166.09131-1.05273.40771-1.05273.9502,0,.24609.08545.44775.25635.60498s.40234.23584.69385.23584c.40576,0,.73584-.14014.99121-.42041s.38281-.63477.38281-1.06299Z"/>
        <path d="M298.41777,27.09248c-.36475,0-.66309-.1084-.89551-.32471s-.34863-.48193-.34863-.79639c0-.32373.11621-.58789.34863-.79297s.53076-.30762.89551-.30762c.36914,0,.66895.10254.89893.30762s.34521.46924.34521.79297c0,.32812-.11523.59717-.34521.80664s-.52979.31445-.89893.31445ZM299.48418,35.1999h-2.16016v-7h2.16016v7Z"/>
        <path d="M303.4627,35.1999h-2.16016v-10.36328h2.16016v10.36328Z"/>
        <path d="M311.10527,35.1999h-2.04395v-1.00488h-.02734c-.46924.78369-1.16455,1.17578-2.08496,1.17578-.6792,0-1.21338-.19238-1.60303-.57764s-.58447-.89893-.58447-1.5415c0-1.35791.8042-2.14209,2.41309-2.35156l1.90039-.25293c0-.76562-.41455-1.14844-1.24414-1.14844-.83398,0-1.62695.24854-2.37891.74512v-1.62695c.30078-.15479.71191-.2915,1.23389-.41016s.99707-.17773,1.42529-.17773c1.99609,0,2.99414.99561,2.99414,2.9873v4.18359ZM309.075,32.35615v-.47168l-1.27148.16406c-.70166.09131-1.05273.40771-1.05273.9502,0,.24609.08545.44775.25635.60498s.40234.23584.69385.23584c.40576,0,.73584-.14014.99121-.42041s.38281-.63477.38281-1.06299Z"/>
        <path d="M315.00176,34.38643h-.02734v.81348h-2.16016v-10.36328h2.16016v4.41602h.02734c.5332-.81592,1.29199-1.22363,2.27637-1.22363.90234,0,1.59717.31006,2.08496.92969s.73145,1.46729.73145,2.54297c0,1.1665-.28467,2.10303-.85449,2.80957s-1.33057,1.05957-2.2832,1.05957c-.86133,0-1.51318-.32812-1.95508-.98438ZM314.94023,31.4333v.71777c0,.45117.12988.82471.38965,1.12109s.59229.44434.99805.44434c.49219,0,.87402-.19043,1.14502-.5708s.40674-.91943.40674-1.6167c0-.57861-.12402-1.03125-.37256-1.35693s-.60254-.48877-1.06299-.48877c-.43311,0-.79199.16162-1.07666.48535s-.42725.74512-.42725,1.26465Z"/>
        <path d="M322.58965,27.09248c-.36475,0-.66309-.1084-.89551-.32471s-.34863-.48193-.34863-.79639c0-.32373.11621-.58789.34863-.79297s.53076-.30762.89551-.30762c.36914,0,.66895.10254.89893.30762s.34521.46924.34521.79297c0,.32812-.11523.59717-.34521.80664s-.52979.31445-.89893.31445ZM323.65605,35.1999h-2.16016v-7h2.16016v7Z"/>
        <path d="M327.63457,35.1999h-2.16016v-10.36328h2.16016v10.36328Z"/>
        <path d="M330.54668,27.09248c-.36475,0-.66309-.1084-.89551-.32471s-.34863-.48193-.34863-.79639c0-.32373.11621-.58789.34863-.79297s.53076-.30762.89551-.30762c.36914,0,.66895.10254.89893.30762s.34521.46924.34521.79297c0,.32812-.11523.59717-.34521.80664s-.52979.31445-.89893.31445ZM331.61309,35.1999h-2.16016v-7h2.16016v7Z"/>
        <path d="M337.66289,35.11787c-.31885.16846-.7998.25293-1.44238.25293-1.52197,0-2.2832-.79053-2.2832-2.37207v-3.20605h-1.13477v-1.59277h1.13477v-1.51074l2.15332-.61523v2.12598h1.57227v1.59277h-1.57227v2.83008c0,.729.28955,1.09375.86816,1.09375.22803,0,.4624-.06592.7041-.19824v1.59961Z"/>
        <path d="M345.54473,28.1999l-2.84375,7.56055c-.68359,1.81836-1.71338,2.72754-3.08984,2.72754-.52393,0-.95459-.05908-1.29199-.17773v-1.72266c.28711.16846.59912.25293.93652.25293.55615,0,.94336-.26221,1.16211-.78613l.36914-.86816-2.84375-6.98633h2.39258l1.30566,4.25879c.08203.26416.146.57666.19141.93652h.02734c.04102-.26416.11621-.57178.22559-.92285l1.31934-4.27246h2.13965Z"/>
        <path d="M357.5418,35.1999h-7.89551v-1.27148l5.02441-6.7334h-4.66211v-1.79785h7.51953v1.2373l-4.91504,6.77441h4.92871v1.79102Z"/>
        <path d="M362.1082,35.3708c-1.1665,0-2.08398-.32715-2.75146-.98096s-1.00146-1.5415-1.00146-2.6626c0-1.15771.34619-2.06348,1.03906-2.71729s1.62939-.98096,2.80957-.98096c1.16211,0,2.07373.32715,2.73438.98096s.99121,1.51855.99121,2.59424c0,1.16211-.34082,2.08057-1.02197,2.75488s-1.61426,1.01172-2.79932,1.01172ZM362.16289,29.6833c-.51025,0-.90674.17529-1.18945.52637s-.42383.84766-.42383,1.49023c0,1.34424.54248,2.0166,1.62695,2.0166,1.03467,0,1.55176-.69043,1.55176-2.07129,0-1.30811-.52197-1.96191-1.56543-1.96191Z"/>
        <path d="M374.0916,35.1999h-2.15332v-3.88965c0-1.08447-.38721-1.62695-1.16211-1.62695-.37354,0-.68115.14355-.92285.43066s-.3623.65186-.3623,1.09375v3.99219h-2.16016v-7h2.16016v1.10742h.02734c.51514-.85205,1.26465-1.27832,2.24902-1.27832,1.54932,0,2.32422.96143,2.32422,2.88477v4.28613Z"/>
        <path d="M382.08965,32.31514h-4.56641c.07275,1.01611.71338,1.52441,1.9209,1.52441.77002,0,1.44678-.18213,2.03027-.54688v1.55859c-.64697.34619-1.48779.51953-2.52246.51953-1.13037,0-2.00732-.31348-2.63184-.93994s-.93652-1.50049-.93652-2.62158c0-1.16211.3374-2.08252,1.01172-2.76172s1.50391-1.01855,2.48828-1.01855c1.021,0,1.81055.30322,2.36865.90918s.8374,1.42871.8374,2.46777v.90918ZM380.08672,30.98896c0-1.00244-.40576-1.50391-1.2168-1.50391-.34619,0-.646.14355-.89893.43066s-.40674.64502-.46143,1.07324h2.57715Z"/>
        <path d="M389.26055,33.40889h4.15625v1.79102h-6.52148v-.73828c0-.50146.08447-.95117.25293-1.3501s.38037-.75635.63574-1.07324.53418-.59717.8374-.84082.59131-.46387.86475-.65967c.28711-.20508.53906-.40088.75537-.58789s.39893-.37256.54688-.55713.25879-.37158.33154-.56055.10938-.39062.10938-.60498c0-.41943-.11865-.73584-.35547-.9502s-.59912-.32129-1.08691-.32129c-.84326,0-1.6499.33496-2.41992,1.00488v-1.90039c.85205-.55127,1.81396-.82715,2.88477-.82715.49658,0,.94238.06494,1.33643.19482s.72803.31543,1.00146.55713.48193.53418.62549.87842.21533.72803.21533,1.15186c0,.45117-.06934.85205-.2085,1.20312s-.32373.66992-.55371.95703-.49561.55029-.79639.78955-.61279.4707-.93652.69385c-.21875.15479-.42969.30859-.63232.46143s-.38184.30322-.53662.45117-.27783.29297-.36914.43408-.13672.27588-.13672.40332Z"/>
      </g>
      <g>
        <path d="M502.93584,35.1999h-2.40625l-.69727-2.18066h-3.48633l-.69043,2.18066h-2.39258l3.56836-9.80273h2.61816l3.48633,9.80273ZM499.32646,31.32393l-1.05273-3.29492c-.07764-.24609-.13232-.54004-.16406-.88184h-.05469c-.02295.28711-.07959.57178-.1709.85449l-1.06641,3.32227h2.50879Z"/>
        <path d="M510.30498,28.1999l-2.60449,7h-2.46094l-2.48145-7h2.31055l1.2168,4.31348c.13672.48779.21631.90234.23926,1.24414h.02734c.03174-.32373.11621-.72461.25293-1.20312l1.24414-4.35449h2.25586Z"/>
        <path d="M516.84014,35.1999h-2.04395v-1.00488h-.02734c-.46924.78369-1.16455,1.17578-2.08496,1.17578-.6792,0-1.21338-.19238-1.60303-.57764s-.58447-.89893-.58447-1.5415c0-1.35791.8042-2.14209,2.41309-2.35156l1.90039-.25293c0-.76562-.41455-1.14844-1.24414-1.14844-.83398,0-1.62695.24854-2.37891.74512v-1.62695c.30078-.15479.71191-.2915,1.23389-.41016s.99707-.17773,1.42529-.17773c1.99609,0,2.99414.99561,2.99414,2.9873v4.18359ZM514.80986,32.35615v-.47168l-1.27148.16406c-.70166.09131-1.05273.40771-1.05273.9502,0,.24609.08545.44775.25635.60498s.40234.23584.69385.23584c.40576,0,.73584-.14014.99121-.42041s.38281-.63477.38281-1.06299Z"/>
        <path d="M519.64287,27.09248c-.36475,0-.66309-.1084-.89551-.32471s-.34863-.48193-.34863-.79639c0-.32373.11621-.58789.34863-.79297s.53076-.30762.89551-.30762c.36914,0,.66895.10254.89893.30762s.34521.46924.34521.79297c0,.32812-.11523.59717-.34521.80664s-.52979.31445-.89893.31445ZM520.70928,35.1999h-2.16016v-7h2.16016v7Z"/>
        <path d="M524.68779,35.1999h-2.16016v-10.36328h2.16016v10.36328Z"/>
        <path d="M532.33037,35.1999h-2.04395v-1.00488h-.02734c-.46924.78369-1.16455,1.17578-2.08496,1.17578-.6792,0-1.21338-.19238-1.60303-.57764s-.58447-.89893-.58447-1.5415c0-1.35791.8042-2.14209,2.41309-2.35156l1.90039-.25293c0-.76562-.41455-1.14844-1.24414-1.14844-.83398,0-1.62695.24854-2.37891.74512v-1.62695c.30078-.15479.71191-.2915,1.23389-.41016s.99707-.17773,1.42529-.17773c1.99609,0,2.99414.99561,2.99414,2.9873v4.18359ZM530.3001,32.35615v-.47168l-1.27148.16406c-.70166.09131-1.05273.40771-1.05273.9502,0,.24609.08545.44775.25635.60498s.40234.23584.69385.23584c.40576,0,.73584-.14014.99121-.42041s.38281-.63477.38281-1.06299Z"/>
        <path d="M536.22686,34.38643h-.02734v.81348h-2.16016v-10.36328h2.16016v4.41602h.02734c.5332-.81592,1.29199-1.22363,2.27637-1.22363.90234,0,1.59717.31006,2.08496.92969s.73145,1.46729.73145,2.54297c0,1.1665-.28467,2.10303-.85449,2.80957s-1.33057,1.05957-2.2832,1.05957c-.86133,0-1.51318-.32812-1.95508-.98438ZM536.16533,31.4333v.71777c0,.45117.12988.82471.38965,1.12109s.59229.44434.99805.44434c.49219,0,.87402-.19043,1.14502-.5708s.40674-.91943.40674-1.6167c0-.57861-.12402-1.03125-.37256-1.35693s-.60254-.48877-1.06299-.48877c-.43311,0-.79199.16162-1.07666.48535s-.42725.74512-.42725,1.26465Z"/>
        <path d="M543.81475,27.09248c-.36475,0-.66309-.1084-.89551-.32471s-.34863-.48193-.34863-.79639c0-.32373.11621-.58789.34863-.79297s.53076-.30762.89551-.30762c.36914,0,.66895.10254.89893.30762s.34521.46924.34521.79297c0,.32812-.11523.59717-.34521.80664s-.52979.31445-.89893.31445ZM544.88115,35.1999h-2.16016v-7h2.16016v7Z"/>
        <path d="M548.85967,35.1999h-2.16016v-10.36328h2.16016v10.36328Z"/>
        <path d="M551.77178,27.09248c-.36475,0-.66309-.1084-.89551-.32471s-.34863-.48193-.34863-.79639c0-.32373.11621-.58789.34863-.79297s.53076-.30762.89551-.30762c.36914,0,.66895.10254.89893.30762s.34521.46924.34521.79297c0,.32812-.11523.59717-.34521.80664s-.52979.31445-.89893.31445ZM552.83818,35.1999h-2.16016v-7h2.16016v7Z"/>
        <path d="M558.88799,35.11787c-.31885.16846-.7998.25293-1.44238.25293-1.52197,0-2.2832-.79053-2.2832-2.37207v-3.20605h-1.13477v-1.59277h1.13477v-1.51074l2.15332-.61523v2.12598h1.57227v1.59277h-1.57227v2.83008c0,.729.28955,1.09375.86816,1.09375.22803,0,.4624-.06592.7041-.19824v1.59961Z"/>
        <path d="M566.76982,28.1999l-2.84375,7.56055c-.68359,1.81836-1.71338,2.72754-3.08984,2.72754-.52393,0-.95459-.05908-1.29199-.17773v-1.72266c.28711.16846.59912.25293.93652.25293.55615,0,.94336-.26221,1.16211-.78613l.36914-.86816-2.84375-6.98633h2.39258l1.30566,4.25879c.08203.26416.146.57666.19141.93652h.02734c.04102-.26416.11621-.57178.22559-.92285l1.31934-4.27246h2.13965Z"/>
        <path d="M578.76689,35.1999h-7.89551v-1.27148l5.02441-6.7334h-4.66211v-1.79785h7.51953v1.2373l-4.91504,6.77441h4.92871v1.79102Z"/>
        <path d="M583.3333,35.3708c-1.1665,0-2.08398-.32715-2.75146-.98096s-1.00146-1.5415-1.00146-2.6626c0-1.15771.34619-2.06348,1.03906-2.71729s1.62939-.98096,2.80957-.98096c1.16211,0,2.07373.32715,2.73438.98096s.99121,1.51855.99121,2.59424c0,1.16211-.34082,2.08057-1.02197,2.75488s-1.61426,1.01172-2.79932,1.01172ZM583.38799,29.6833c-.51025,0-.90674.17529-1.18945.52637s-.42383.84766-.42383,1.49023c0,1.34424.54248,2.0166,1.62695,2.0166,1.03467,0,1.55176-.69043,1.55176-2.07129,0-1.30811-.52197-1.96191-1.56543-1.96191Z"/>
        <path d="M595.3167,35.1999h-2.15332v-3.88965c0-1.08447-.38721-1.62695-1.16211-1.62695-.37354,0-.68115.14355-.92285.43066s-.3623.65186-.3623,1.09375v3.99219h-2.16016v-7h2.16016v1.10742h.02734c.51514-.85205,1.26465-1.27832,2.24902-1.27832,1.54932,0,2.32422.96143,2.32422,2.88477v4.28613Z"/>
        <path d="M603.31475,32.31514h-4.56641c.07275,1.01611.71338,1.52441,1.9209,1.52441.77002,0,1.44678-.18213,2.03027-.54688v1.55859c-.64697.34619-1.48779.51953-2.52246.51953-1.13037,0-2.00732-.31348-2.63184-.93994s-.93652-1.50049-.93652-2.62158c0-1.16211.3374-2.08252,1.01172-2.76172s1.50391-1.01855,2.48828-1.01855c1.021,0,1.81055.30322,2.36865.90918s.8374,1.42871.8374,2.46777v.90918ZM601.31182,30.98896c0-1.00244-.40576-1.50391-1.2168-1.50391-.34619,0-.646.14355-.89893.43066s-.40674.64502-.46143,1.07324h2.57715Z"/>
        <path d="M608.35283,34.87861v-1.87988c.65625.47852,1.42188.71777,2.29688.71777.55127,0,.98096-.11865,1.28857-.35547s.46143-.56738.46143-.99121c0-.4375-.19043-.7749-.5708-1.01172s-.90332-.35547-1.56885-.35547h-.90918v-1.6543h.84082c1.27588,0,1.91406-.42383,1.91406-1.27148,0-.79736-.48975-1.19629-1.46973-1.19629-.65625,0-1.29443.21191-1.91406.63574v-1.76367c.68799-.34619,1.49023-.51953,2.40625-.51953,1.00244,0,1.7832.22559,2.34131.67676s.8374,1.03662.8374,1.75684c0,1.28076-.64941,2.08252-1.94824,2.40625v.03418c.69287.08643,1.23975.33838,1.64062.75537s.60156.92871.60156,1.53467c0,.91602-.33496,1.64062-1.00488,2.17383s-1.59521.7998-2.77539.7998c-1.01172,0-1.83447-.16406-2.46777-.49219Z"/>
      </g>
      <g>
        <rect x="241.3391" y="114.4" width="183.67231" height="17.93066" fill="none"/>
        <path d="M264.85381,126.30098v-9.80273h3.47266c3.48193,0,5.22266,1.59277,5.22266,4.77832,0,1.52686-.4751,2.74561-1.42529,3.65723s-2.21582,1.36719-3.79736,1.36719h-3.47266ZM267.06182,118.29609v6.21387h1.09375c.95703,0,1.70801-.28711,2.25244-.86133s.81689-1.35596.81689-2.34473c0-.93408-.27002-1.66895-.81006-2.20459s-1.29785-.80322-2.27295-.80322h-1.08008Z" fill="#2f2f2f"/>
        <path d="M283.93584,126.30098h-2.22852l-4.04004-6.15918c-.23682-.35986-.40088-.63135-.49219-.81348h-.02734c.03662.34619.05469.875.05469,1.58594v5.38672h-2.08496v-9.80273h2.37891l3.88965,5.96777c.17773.26904.3418.53564.49219.7998h.02734c-.03662-.22803-.05469-.67676-.05469-1.34668v-5.4209h2.08496v9.80273Z" fill="#2f2f2f"/>
        <path d="M285.721,125.925v-2.1875c.39648.33252.82715.58203,1.29199.74854s.93408.24951,1.4082.24951c.27783,0,.52051-.0249.72803-.0752s.38037-.11963.51953-.2085.24268-.19385.31104-.31445.10254-.25195.10254-.39307c0-.19141-.05469-.3623-.16406-.5127s-.25879-.28955-.44775-.41699-.41357-.25049-.67334-.36914-.54004-.23926-.84082-.3623c-.76562-.31885-1.33643-.7085-1.7124-1.16895s-.56396-1.01611-.56396-1.66797c0-.51025.10254-.94922.30762-1.31592s.48438-.66895.8374-.90576.76221-.41113,1.22705-.52295.95703-.16748,1.47656-.16748c.51025,0,.96289.03076,1.35693.09229s.75781.15625,1.09033.28369v2.04395c-.16406-.11377-.34277-.21436-.53662-.30078s-.39307-.1582-.59814-.21533-.40918-.09912-.61182-.12646-.39551-.04102-.57764-.04102c-.25049,0-.47852.02393-.68359.07178s-.37842.11523-.51953.20166-.25049.19043-.32812.31104-.11621.25635-.11621.40674c0,.16406.04346.31104.12988.44092s.20947.25293.36914.36914.35303.22998.58105.3418.48535.22656.77246.34521c.39209.16406.74414.33838,1.05615.52295s.58008.39307.80322.62549.39404.49805.5127.79639.17773.646.17773,1.04248c0,.54688-.10352,1.00586-.31104,1.37744s-.48877.67236-.84424.90234-.76904.39551-1.24072.49561-.96973.15039-1.49365.15039c-.5376,0-1.04932-.04541-1.53467-.13672s-.90576-.22803-1.26123-.41016Z" fill="#2f2f2f"/>
        <path d="M300.09014,122.92402v3.37695h-2.20801v-9.80273h3.45898c2.47021,0,3.70508,1.0415,3.70508,3.12402,0,.98438-.35449,1.78076-1.06299,2.38916s-1.65527.9126-2.84033.9126h-1.05273ZM300.09014,118.19355v3.05566h.86816c1.17578,0,1.76367-.51514,1.76367-1.54492,0-1.00732-.58789-1.51074-1.76367-1.51074h-.86816Z" fill="#2f2f2f"/>
        <path d="M310.71611,121.24922c-.25977-.14111-.56299-.21191-.90918-.21191-.46924,0-.83643.17188-1.10059.51611s-.39648.8125-.39648,1.40479v3.34277h-2.16016v-7h2.16016v1.29883h.02734c.3418-.94775.95703-1.42188,1.8457-1.42188.22803,0,.40576.02734.5332.08203v1.98926Z" fill="#2f2f2f"/>
        <path d="M312.80205,118.19355c-.36475,0-.66309-.1084-.89551-.32471s-.34863-.48193-.34863-.79639c0-.32373.11621-.58789.34863-.79297s.53076-.30762.89551-.30762c.36914,0,.66895.10254.89893.30762s.34521.46924.34521.79297c0,.32812-.11523.59717-.34521.80664s-.52979.31445-.89893.31445ZM313.86846,126.30098h-2.16016v-7h2.16016v7Z" fill="#2f2f2f"/>
        <path d="M322.37285,119.30098l-2.60449,7h-2.46094l-2.48145-7h2.31055l1.2168,4.31348c.13672.48779.21631.90234.23926,1.24414h.02734c.03174-.32373.11621-.72461.25293-1.20312l1.24414-4.35449h2.25586Z" fill="#2f2f2f"/>
        <path d="M329.02861,126.30098h-2.04395v-1.00488h-.02734c-.46924.78369-1.16455,1.17578-2.08496,1.17578-.6792,0-1.21338-.19238-1.60303-.57764s-.58447-.89893-.58447-1.5415c0-1.35791.8042-2.14209,2.41309-2.35156l1.90039-.25293c0-.76562-.41455-1.14844-1.24414-1.14844-.83398,0-1.62695.24854-2.37891.74512v-1.62695c.30078-.15479.71191-.2915,1.23389-.41016s.99707-.17773,1.42529-.17773c1.99609,0,2.99414.99561,2.99414,2.9873v4.18359ZM326.99834,123.45723v-.47168l-1.27148.16406c-.70166.09131-1.05273.40771-1.05273.9502,0,.24609.08545.44775.25635.60498s.40234.23584.69385.23584c.40576,0,.73584-.14014.99121-.42041s.38281-.63477.38281-1.06299Z" fill="#2f2f2f"/>
        <path d="M334.85723,126.21895c-.31885.16846-.7998.25293-1.44238.25293-1.52197,0-2.2832-.79053-2.2832-2.37207v-3.20605h-1.13477v-1.59277h1.13477v-1.51074l2.15332-.61523v2.12598h1.57227v1.59277h-1.57227v2.83008c0,.729.28955,1.09375.86816,1.09375.22803,0,.4624-.06592.7041-.19824v1.59961Z" fill="#2f2f2f"/>
        <path d="M342.34355,123.41621h-4.56641c.07275,1.01611.71338,1.52441,1.9209,1.52441.77002,0,1.44678-.18213,2.03027-.54688v1.55859c-.64697.34619-1.48779.51953-2.52246.51953-1.13037,0-2.00732-.31348-2.63184-.93994s-.93652-1.50049-.93652-2.62158c0-1.16211.3374-2.08252,1.01172-2.76172s1.50391-1.01855,2.48828-1.01855c1.021,0,1.81055.30322,2.36865.90918s.8374,1.42871.8374,2.46777v.90918ZM340.34062,122.09004c0-1.00244-.40576-1.50391-1.2168-1.50391-.34619,0-.646.14355-.89893.43066s-.40674.64502-.46143,1.07324h2.57715Z" fill="#2f2f2f"/>
        <path d="M355.92656,126.30098h-2.53613l-1.52441-2.52246c-.11377-.19141-.22314-.3623-.32812-.5127s-.21094-.2793-.31787-.38623-.21875-.18896-.33496-.24609-.24268-.08545-.37939-.08545h-.59473v3.75293h-2.20801v-9.80273h3.5c2.37891,0,3.56836.88867,3.56836,2.66602,0,.3418-.05225.65723-.15723.94678s-.25293.55029-.44434.78271-.42285.43311-.69385.60156-.57324.30078-.90576.39648v.02734c.146.04541.28711.11963.42383.22217s.26904.22217.39648.35889.24951.28369.36572.44092.22217.31104.31787.46143l1.85254,2.89844ZM349.91094,118.15254v2.72754h.95703c.47412,0,.85449-.13672,1.1416-.41016.2915-.27783.4375-.62207.4375-1.03223,0-.85693-.5127-1.28516-1.53809-1.28516h-.99805Z" fill="#2f2f2f"/>
        <path d="M362.74443,123.41621h-4.56641c.07275,1.01611.71338,1.52441,1.9209,1.52441.77002,0,1.44678-.18213,2.03027-.54688v1.55859c-.64697.34619-1.48779.51953-2.52246.51953-1.13037,0-2.00732-.31348-2.63184-.93994s-.93652-1.50049-.93652-2.62158c0-1.16211.3374-2.08252,1.01172-2.76172s1.50391-1.01855,2.48828-1.01855c1.021,0,1.81055.30322,2.36865.90918s.8374,1.42871.8374,2.46777v.90918ZM360.7415,122.09004c0-1.00244-.40576-1.50391-1.2168-1.50391-.34619,0-.646.14355-.89893.43066s-.40674.64502-.46143,1.07324h2.57715Z" fill="#2f2f2f"/>
        <path d="M363.73271,126.11641v-1.75c.35547.21436.70996.37354,1.06299.47852s.68701.15723,1.00146.15723c.38281,0,.68457-.05225.90576-.15723s.33154-.26416.33154-.47852c0-.13672-.05029-.25049-.15039-.3418s-.229-.1709-.38623-.23926-.3291-.12988-.51611-.18457-.3667-.11621-.54004-.18457c-.27783-.10498-.52295-.21777-.73486-.33838s-.38965-.26074-.5332-.42041-.25293-.34424-.32812-.55371-.11279-.45801-.11279-.74512c0-.39209.08545-.729.25635-1.01172s.39893-.51367.68359-.69385.61084-.31201.97754-.39648.74854-.12646,1.14502-.12646c.31006,0,.62451.02393.94336.07178s.6333.11719.94336.2085v1.66797c-.27344-.15967-.56641-.2793-.87842-.35889s-.61865-.11963-.91943-.11963c-.14111,0-.27441.0127-.3999.0376s-.23584.06152-.33154.10938-.1709.10938-.22559.18457-.08203.16064-.08203.25635c0,.12744.04102.23682.12305.32812s.18896.16992.32129.23584.2793.12549.44092.17773.32227.10596.48193.16064c.28711.1001.54688.20947.7793.32812s.43164.25732.59814.41699.29395.34619.38281.56055.1333.46924.1333.76562c0,.41455-.08984.76904-.27002,1.06299s-.41943.5332-.71777.71777-.64258.31885-1.03223.40332-.79395.12646-1.21338.12646c-.77002,0-1.4834-.11865-2.13965-.35547Z" fill="#2f2f2f"/>
        <path d="M373.72393,126.47187c-1.1665,0-2.08398-.32715-2.75146-.98096s-1.00146-1.5415-1.00146-2.6626c0-1.15771.34619-2.06348,1.03906-2.71729s1.62939-.98096,2.80957-.98096c1.16211,0,2.07373.32715,2.73438.98096s.99121,1.51855.99121,2.59424c0,1.16211-.34082,2.08057-1.02197,2.75488s-1.61426,1.01172-2.79932,1.01172ZM373.77861,120.78437c-.51025,0-.90674.17529-1.18945.52637s-.42383.84766-.42383,1.49023c0,1.34424.54248,2.0166,1.62695,2.0166,1.03467,0,1.55176-.69043,1.55176-2.07129,0-1.30811-.52197-1.96191-1.56543-1.96191Z" fill="#2f2f2f"/>
        <path d="M381.10088,126.30098h-2.16016v-10.36328h2.16016v10.36328Z" fill="#2f2f2f"/>
        <path d="M389.60381,119.30098l-2.60449,7h-2.46094l-2.48145-7h2.31055l1.2168,4.31348c.13672.48779.21631.90234.23926,1.24414h.02734c.03174-.32373.11621-.72461.25293-1.20312l1.24414-4.35449h2.25586Z" fill="#2f2f2f"/>
        <path d="M396.59209,123.41621h-4.56641c.07275,1.01611.71338,1.52441,1.9209,1.52441.77002,0,1.44678-.18213,2.03027-.54688v1.55859c-.64697.34619-1.48779.51953-2.52246.51953-1.13037,0-2.00732-.31348-2.63184-.93994s-.93652-1.50049-.93652-2.62158c0-1.16211.3374-2.08252,1.01172-2.76172s1.50391-1.01855,2.48828-1.01855c1.021,0,1.81055.30322,2.36865.90918s.8374,1.42871.8374,2.46777v.90918ZM394.58916,122.09004c0-1.00244-.40576-1.50391-1.2168-1.50391-.34619,0-.646.14355-.89893.43066s-.40674.64502-.46143,1.07324h2.57715Z" fill="#2f2f2f"/>
        <path d="M402.52324,121.24922c-.25977-.14111-.56299-.21191-.90918-.21191-.46924,0-.83643.17188-1.10059.51611s-.39648.8125-.39648,1.40479v3.34277h-2.16016v-7h2.16016v1.29883h.02734c.3418-.94775.95703-1.42188,1.8457-1.42188.22803,0,.40576.02734.5332.08203v1.98926Z" fill="#2f2f2f"/>
      </g>
    </g>
  </g>
</svg>