<?xml version="1.0" encoding="UTF-8"?>
<svg xmlns="http://www.w3.org/2000/svg" width="611.6" height="360.8" xmlns:xlink="http://www.w3.org/1999/xlink" viewBox="0 0 611.6 360.8">
  <defs>
    <linearGradient id="linear-gradient" x1="-93.13271" y1="372.08604" x2="-75.13135" y2="372.08604" gradientTransform="translate(564.65413 656.06532) rotate(.147) scale(1 -1)" gradientUnits="userSpaceOnUse">
      <stop offset="0" stop-color="#005ba1"/>
      <stop offset=".068" stop-color="#0060a9"/>
      <stop offset=".356" stop-color="#0071c8"/>
      <stop offset=".517" stop-color="#0078d4"/>
      <stop offset=".642" stop-color="#0074cd"/>
      <stop offset=".82" stop-color="#006abb"/>
      <stop offset="1" stop-color="#005ba1"/>
    </linearGradient>
    <linearGradient id="linear-gradient-2" x1="-280.91918" y1="806.40212" x2="-280.91918" y2="827.2096" gradientTransform="translate(806.447 1050.76184) scale(1.156 -1.029)" gradientUnits="userSpaceOnUse">
      <stop offset="0" stop-color="#fea11b"/>
      <stop offset=".284" stop-color="#fea51a"/>
      <stop offset=".547" stop-color="#feb018"/>
      <stop offset=".8" stop-color="#ffc314"/>
      <stop offset="1" stop-color="#ffd70f"/>
    </linearGradient>
    <linearGradient id="linear-gradient-3" x1="-446.49211" y1="371.17945" x2="-428.49075" y2="371.17945" xlink:href="#linear-gradient"/>
    <linearGradient id="linear-gradient-4" x1="-586.5954" x2="-586.5954" xlink:href="#linear-gradient-2"/>
  </defs>
  <g isolation="isolate">
    <g id="Shapes">
      <rect width="611.6" height="360.8" fill="#fff"/>
      <g>
        <g mix-blend-mode="multiply" opacity=".8">
          <rect x="366.8629" y="64.37391" width="229.54296" height="284.95047" fill="#8e8278"/>
          <rect x="366.8629" y="64.37391" width="229.54296" height="284.95047" fill="#8e8278" opacity=".9"/>
        </g>
        <g>
          <rect x="366.55603" y="64.13561" width="229.54296" height="284.95047" fill="#fff"/>
          <rect x="366.55603" y="64.13561" width="229.54296" height="284.95047" fill="#e1ddd8" opacity=".9"/>
        </g>
      </g>
      <g>
        <rect x="385.71018" y="81.73561" width="191.54153" height="249.98877" fill="#fff"/>
        <rect x="385.71018" y="81.73561" width="191.54153" height="249.98877" fill="#f5f3f2" opacity=".3"/>
        <rect x="385.71018" y="81.73561" width="191.54153" height="249.98877" fill="none" stroke="#9d9f9f" stroke-width=".25"/>
      </g>
      <g id="a53a4de8-371c-49da-a662-c4631299fc03">
        <path d="M484.38251,111.48938c.00918.22186-.15904.41112-.38045.42801h-3.31308c-.22186.00918-.41112-.15904-.42801-.38045v-2.47292c-.00918-.22186.15904-.41111.38045-.42801h3.31308c.22186-.00918.41112.15904.42801.38045v2.47292Z" fill="#76bc43"/>
        <path d="M490.26362,113.994c.00918.22186-.15904.41112-.38045.42801h-3.31308c-.22186.00918-.41112-.15904-.42801-.38045v-2.45707c-.00918-.22186.15904-.41112.38045-.42801h3.31308c.22186-.00918.41112.15904.42801.38045v2.45707Z" fill="#76bc43"/>
        <path d="M484.38251,116.53033c.00918.22186-.15904.41112-.38045.42801h-3.31308c-.22186.00918-.41112-.15904-.42801-.38045v-2.47292c-.00918-.22186.15904-.41112.38045-.42801h3.31308c.22186-.00918.41112.15904.42801.38045v2.47292Z" fill="#76bc43"/>
        <path d="M478.5014,108.98475c.0092.21312-.15195.39529-.3646.41215h-3.40819c-.21629.00975-.40324-.14951-.42801-.3646v-2.56803c.00746-.20968.17125-.38029.38045-.3963h3.31308c.34874,0,.50727.17437.50727.42801v2.48877Z" fill="#8bc63f"/>
        <path d="M478.5014,113.994c.01815.21812-.14395.40965-.36207.4278-.00084.00007-.00169.00014-.00253.0002h-3.40819c-.22745.00893-.41908-.16822-.42801-.39567-.00042-.01078-.00042-.02156,0-.03234v-2.50462c-.00064-.2158.16529-.39555.38045-.41215h3.31308c.34874,0,.50727.17437.50727.41215v2.50462Z" fill="#76bc43"/>
        <path d="M478.5014,119.0508c.01815.21812-.14395.40965-.36207.4278-.00084.00007-.00169.00014-.00253.0002h-3.40819c-.22186.00918-.41111-.15904-.42801-.38045v-2.56803c-.00892-.21869.16113-.40321.37982-.41213.00021,0,.00042-.00002.00063-.00003h3.31308c.34874,0,.50727.15852.50727.41215v2.52047Z" fill="#76bc43"/>
        <g>
          <path d="M468.91091,100.53561h2.04491v5.70674c0,.25389-.20582.45971-.45971.45971h-2.02906c-.25389,0-.45971-.20582-.45971-.45971v-4.75561c-.02627-.49833.35642-.92361.85476-.94987.01626-.00086.03253-.00127.04881-.00125Z" fill="#999"/>
          <path d="M468.91091,100.53561h2.04491v5.70674c0,.25389-.20582.45971-.45971.45971h-2.02906c-.25389,0-.45971-.20582-.45971-.45971v-4.75561c-.02627-.49833.35642-.92361.85476-.94987.01626-.00086.03253-.00127.04881-.00125Z" fill="#999" isolation="isolate" opacity=".5"/>
        </g>
        <g>
          <path d="M492.00734,100.53561h2.04491c.49903,0,.90357.40454.90357.90357v4.75561c0,.25389-.20582.45971-.45971.45971h-2.04491c-.25389,0-.45971-.20582-.45971-.45971v-5.65918h.01585Z" fill="#999"/>
          <path d="M492.00734,100.53561h2.04491c.49903,0,.90357.40454.90357.90357v4.75561c0,.25389-.20582.45971-.45971.45971h-2.04491c-.25389,0-.45971-.20582-.45971-.45971v-5.65918h.01585Z" fill="#999" isolation="isolate" opacity=".5"/>
        </g>
        <path d="M494.95582,101.43918v1.98151h-26.94848v-1.98151c0-.49903.40454-.90357.90357-.90357h25.1572c.49282.00865.88779.41067.88771.90357Z" fill="#949494"/>
        <g>
          <path d="M468.46705,118.36917h2.04491c.25389,0,.45971.20582.45971.45971v5.70674h-2.06077c-.49903,0-.90357-.40454-.90357-.90357v-4.88243c.03893-.22255.2338-.38383.45971-.38045Z" fill="#999"/>
          <path d="M468.46705,118.36917h2.04491c.25389,0,.45971.20582.45971.45971v5.70674h-2.06077c-.49903,0-.90357-.40454-.90357-.90357v-4.88243c.03893-.22255.2338-.38383.45971-.38045Z" fill="#999" isolation="isolate" opacity=".5"/>
        </g>
        <g>
          <path d="M492.4512,118.36917h2.04491c.25389,0,.45971.20582.45971.45971h0v4.75561c0,.49903-.40454.90357-.90357.90357h-2.04491v-5.73844c.03788-.21667.22394-.37615.44386-.38045Z" fill="#999"/>
          <path d="M492.4512,118.36917h2.04491c.25389,0,.45971.20582.45971.45971h0v4.75561c0,.49903-.40454.90357-.90357.90357h-2.04491v-5.73844c.03788-.21667.22394-.37615.44386-.38045Z" fill="#999" isolation="isolate" opacity=".5"/>
        </g>
        <path d="M468.00734,123.63204v-1.98151h26.94848v1.98151c0,.49903-.40454.90357-.90357.90357h-25.14135c-.49903,0-.90357-.40454-.90357-.90357Z" fill="#949494"/>
      </g>
      <g>
        <line x1="481.48095" y1="168.92438" x2="481.48095" y2="185.54218" fill="none" stroke="#3c3c41" stroke-miterlimit="10"/>
        <polygon points="477.7412 184.44794 481.48095 190.92438 485.22069 184.44794 477.7412 184.44794" fill="#3c3c41"/>
      </g>
      <g>
        <line x1="481.48095" y1="243.72437" x2="481.48095" y2="260.34223" fill="none" stroke="#3c3c41" stroke-miterlimit="10"/>
        <polygon points="477.7412 259.24799 481.48095 265.72437 485.22069 259.24799 477.7412 259.24799" fill="#3c3c41"/>
      </g>
      <g id="bdd66f0d-1091-4867-9f64-cdf433204a8a">
        <g>
          <path d="M481.49506,276.68245c-4.97108-.01271-8.99623-1.4909-8.992-3.30229l-.04518,17.44326c0,1.79586,3.95315,3.26417,8.86917,3.30088h.12283c4.97108.01271,9.0047-1.44431,9.00894-3.2557l.04518-17.44326c-.00423,1.8128-4.03785,3.26981-9.00894,3.25711Z" fill="url(#linear-gradient)"/>
          <path d="M490.504,273.42675c0,1.80998-4.03786,3.26841-9.00894,3.2557s-8.99623-1.4909-8.992-3.30229,4.03644-3.2684,9.00894-3.2557c4.97249.01271,8.99623,1.4909,8.992,3.30229" fill="#e6e6e6"/>
          <path d="M488.39895,273.15568c0,1.15206-3.09475,2.07681-6.90389,2.06693-3.80914-.00988-6.89401-.95017-6.89118-2.10223s3.09475-2.07681,6.9053-2.06693,6.89683.95017,6.894,2.10223" fill="#50e6ff"/>
          <path d="M481.50212,273.61876c-1.8528-.04839-3.7006.21408-5.46664.77651,1.75952.5905,3.60835.87045,5.46381.82734,1.85475.05233,3.70448-.21806,5.46664-.7991-1.76345-.57192-3.61035-.84394-5.46381-.80475Z" fill="#198ab3"/>
        </g>
      </g>
      <g>
        <g>
          <path d="M476.83858,215.93852l-.78656.78879c-.13974.14014-.36663.14046-.50677.00072h0l-5.84272-5.82623c-.27975-.27896-.28039-.73189-.00143-1.01164l.79035-.79259h0l6.35021,6.33228c.14014.13974.14046.36663.00072.50677h0s-.00379.0019-.00379.0019Z" fill="#50e6ff"/>
          <path d="M475.92988,204.12783l.79164.7894c.14014.13974.14046.36663.00072.50677l-6.23846,6.25613h0l-.79259-.79035c-.27975-.27896-.28039-.73189-.00143-1.01164l5.73525-5.75149c.14005-.13835.36548-.13783.50487.00118Z" fill="#1490df"/>
        </g>
        <g>
          <path d="M492.47292,209.10303l.7894.79164c.27896.27975.27832.73268-.00143,1.01164l-5.84273,5.82623c-.14014.13974-.36703.13942-.50677-.00072h0l-.78561-.78784c-.13974-.14014-.13942-.36703.00072-.50677h0l6.34926-6.33133h0l-.00284-.00285Z" fill="#50e6ff"/>
          <path d="M493.26787,210.88635l-.79164.7894h0l-6.23846-6.25613c-.13974-.14014-.13942-.36703.00072-.50677h0l.79164-.7894c.14014-.13974.36703-.13942.50677.00072h0l5.73525,5.75149c.27896.27975.27832.73268-.00143,1.01164l-.00285-.00095Z" fill="#1490df"/>
        </g>
        <path d="M480.75557,211.63701h-4.81678c-.1406.00537-.25977-.10248-.26842-.24292.00004-.03498.00831-.06947.02416-.10066l5.77504-11.4266c.0501-.09033.14638-.1452.24963-.14226h5.6972c.1406-.00537.25977.10248.26842.24292-.00048.04868-.01699.09585-.04697.13421l-6.78161,8.9397h6.61385c.1406-.00537.25977.10248.26842.24292-.00102.06159-.02607.12034-.06979.16374l-10.99042,11.43332c-.10334.06174-.83747.67105-.47779-.25366h0l4.55507-8.9907Z" fill="url(#linear-gradient-2)"/>
      </g>
      <g>
        <rect x="233.97729" y="12.07825" width="138.78508" height="31.77986" fill="#fff"/>
        <rect x="233.97729" y="12.07825" width="138.78508" height="31.77986" fill="#fcb24f" opacity=".2"/>
        <rect x="233.97729" y="12.07825" width="138.78508" height="31.77986" fill="none" opacity=".6" stroke="#ed7323" stroke-width=".25"/>
      </g>
      <g>
        <g mix-blend-mode="multiply" opacity=".8">
          <rect x="13.50118" y="64.37391" width="229.54296" height="284.95047" fill="#8e8278"/>
          <rect x="13.50118" y="64.37391" width="229.54296" height="284.95047" fill="#8e8278" opacity=".9"/>
        </g>
        <g>
          <rect x="13.1943" y="64.13561" width="229.54296" height="284.95047" fill="#fff"/>
          <rect x="13.1943" y="64.13561" width="229.54296" height="284.95047" fill="#e1ddd8" opacity=".9"/>
        </g>
      </g>
      <g>
        <rect x="32.34846" y="81.73561" width="191.54153" height="249.98877" fill="#fff"/>
        <rect x="32.34846" y="81.73561" width="191.54153" height="249.98877" fill="#f5f3f2" opacity=".3"/>
        <rect x="32.34846" y="81.73561" width="191.54153" height="249.98877" fill="none" stroke="#9d9f9f" stroke-width=".25"/>
      </g>
      <g id="a53a4de8-371c-49da-a662-c4631299fc03-2" data-name="a53a4de8-371c-49da-a662-c4631299fc03">
        <path d="M131.02079,111.48938c.00918.22186-.15904.41112-.38045.42801h-3.31308c-.22186.00918-.41112-.15904-.42801-.38045v-2.47292c-.00918-.22186.15904-.41111.38045-.42801h3.31308c.22186-.00918.41112.15904.42801.38045v2.47292Z" fill="#76bc43"/>
        <path d="M136.90189,113.994c.00918.22186-.15904.41112-.38045.42801h-3.31308c-.22186.00918-.41112-.15904-.42801-.38045v-2.45707c-.00918-.22186.15904-.41112.38045-.42801h3.31308c.22186-.00918.41112.15904.42801.38045v2.45707Z" fill="#76bc43"/>
        <path d="M131.02079,116.53033c.00918.22186-.15904.41112-.38045.42801h-3.31308c-.22186.00918-.41112-.15904-.42801-.38045v-2.47292c-.00918-.22186.15904-.41112.38045-.42801h3.31308c.22186-.00918.41112.15904.42801.38045v2.47292Z" fill="#76bc43"/>
        <path d="M125.13968,108.98475c.0092.21312-.15195.39529-.3646.41215h-3.40819c-.21629.00975-.40324-.14951-.42801-.3646v-2.56803c.00746-.20968.17125-.38029.38045-.3963h3.31308c.34874,0,.50727.17437.50727.42801v2.48877Z" fill="#8bc63f"/>
        <path d="M125.13968,113.994c.01815.21812-.14395.40965-.36207.4278-.00084.00007-.00169.00014-.00253.0002h-3.40819c-.22745.00893-.41908-.16822-.42801-.39567-.00042-.01078-.00042-.02156,0-.03234v-2.50462c-.00064-.2158.16529-.39555.38045-.41215h3.31308c.34874,0,.50727.17437.50727.41215v2.50462Z" fill="#76bc43"/>
        <path d="M125.13968,119.0508c.01815.21812-.14395.40965-.36207.4278-.00084.00007-.00169.00014-.00253.0002h-3.40819c-.22186.00918-.41111-.15904-.42801-.38045v-2.56803c-.00892-.21869.16113-.40321.37982-.41213.00021,0,.00042-.00002.00063-.00003h3.31308c.34874,0,.50727.15852.50727.41215v2.52047Z" fill="#76bc43"/>
        <g>
          <path d="M115.54919,100.53561h2.04491v5.70674c0,.25389-.20582.45971-.45971.45971h-2.02906c-.25389,0-.45971-.20582-.45971-.45971v-4.75561c-.02627-.49833.35642-.92361.85476-.94987.01626-.00086.03253-.00127.04881-.00125Z" fill="#999"/>
          <path d="M115.54919,100.53561h2.04491v5.70674c0,.25389-.20582.45971-.45971.45971h-2.02906c-.25389,0-.45971-.20582-.45971-.45971v-4.75561c-.02627-.49833.35642-.92361.85476-.94987.01626-.00086.03253-.00127.04881-.00125Z" fill="#999" isolation="isolate" opacity=".5"/>
        </g>
        <g>
          <path d="M138.64562,100.53561h2.04491c.49903,0,.90357.40454.90357.90357v4.75561c0,.25389-.20582.45971-.45971.45971h-2.04491c-.25389,0-.45971-.20582-.45971-.45971v-5.65918h.01585Z" fill="#999"/>
          <path d="M138.64562,100.53561h2.04491c.49903,0,.90357.40454.90357.90357v4.75561c0,.25389-.20582.45971-.45971.45971h-2.04491c-.25389,0-.45971-.20582-.45971-.45971v-5.65918h.01585Z" fill="#999" isolation="isolate" opacity=".5"/>
        </g>
        <path d="M141.5941,101.43918v1.98151h-26.94848v-1.98151c0-.49903.40454-.90357.90357-.90357h25.1572c.49282.00865.88779.41067.88771.90357Z" fill="#949494"/>
        <g>
          <path d="M115.10533,118.36917h2.04491c.25389,0,.45971.20582.45971.45971v5.70674h-2.06077c-.49903,0-.90357-.40454-.90357-.90357v-4.88243c.03893-.22255.2338-.38383.45971-.38045Z" fill="#999"/>
          <path d="M115.10533,118.36917h2.04491c.25389,0,.45971.20582.45971.45971v5.70674h-2.06077c-.49903,0-.90357-.40454-.90357-.90357v-4.88243c.03893-.22255.2338-.38383.45971-.38045Z" fill="#999" isolation="isolate" opacity=".5"/>
        </g>
        <g>
          <path d="M139.08948,118.36917h2.04491c.25389,0,.45971.20582.45971.45971h0v4.75561c0,.49903-.40454.90357-.90357.90357h-2.04491v-5.73844c.03788-.21667.22394-.37615.44386-.38045Z" fill="#999"/>
          <path d="M139.08948,118.36917h2.04491c.25389,0,.45971.20582.45971.45971h0v4.75561c0,.49903-.40454.90357-.90357.90357h-2.04491v-5.73844c.03788-.21667.22394-.37615.44386-.38045Z" fill="#999" isolation="isolate" opacity=".5"/>
        </g>
        <path d="M114.64562,123.63204v-1.98151h26.94848v1.98151c0,.49903-.40454.90357-.90357.90357h-25.14135c-.49903,0-.90357-.40454-.90357-.90357Z" fill="#949494"/>
      </g>
      <g>
        <line x1="156.95202" y1="116.1244" x2="162.95202" y2="116.1244" fill="none" stroke="#3c3c41" stroke-miterlimit="10"/>
        <line x1="167.02209" y1="116.1244" x2="441.75262" y2="116.1244" fill="none" stroke="#3c3c41" stroke-dasharray="12.21025 4.07008" stroke-miterlimit="10"/>
        <line x1="443.78766" y1="116.1244" x2="449.78766" y2="116.1244" fill="none" stroke="#3c3c41" stroke-miterlimit="10"/>
        <polygon points="158.04626 119.86414 151.56985 116.1244 158.04626 112.38465 158.04626 119.86414" fill="#3c3c41"/>
        <polygon points="448.69342 119.86414 455.16983 116.1244 448.69342 112.38465 448.69342 119.86414" fill="#3c3c41"/>
      </g>
      <g>
        <line x1="303.36984" y1="43.66956" x2="303.36984" y2="109.18836" fill="none" stroke="#3c3c41" stroke-miterlimit="10"/>
        <polygon points="299.63009 108.09412 303.36984 114.5705 307.10958 108.09412 299.63009 108.09412" fill="#3c3c41"/>
      </g>
      <g>
        <line x1="128.11923" y1="168.92438" x2="128.11923" y2="185.54218" fill="none" stroke="#3c3c41" stroke-miterlimit="10"/>
        <polygon points="124.37948 184.44794 128.11923 190.92438 131.85897 184.44794 124.37948 184.44794" fill="#3c3c41"/>
      </g>
      <g>
        <line x1="128.11923" y1="243.72437" x2="128.11923" y2="260.34223" fill="none" stroke="#3c3c41" stroke-miterlimit="10"/>
        <polygon points="124.37948 259.24799 128.11923 265.72437 131.85897 259.24799 124.37948 259.24799" fill="#3c3c41"/>
      </g>
      <g id="bdd66f0d-1091-4867-9f64-cdf433204a8a-2" data-name="bdd66f0d-1091-4867-9f64-cdf433204a8a">
        <g>
          <path d="M128.13334,276.68245c-4.97108-.01271-8.99623-1.4909-8.992-3.30229l-.04518,17.44326c0,1.79586,3.95315,3.26417,8.86917,3.30088h.12283c4.97108.01271,9.0047-1.44431,9.00894-3.2557l.04518-17.44326c-.00423,1.8128-4.03785,3.26981-9.00894,3.25711Z" fill="url(#linear-gradient-3)"/>
          <path d="M137.14228,273.42675c0,1.80998-4.03786,3.26841-9.00894,3.2557s-8.99623-1.4909-8.992-3.30229,4.03644-3.2684,9.00894-3.2557c4.97249.01271,8.99623,1.4909,8.992,3.30229" fill="#e6e6e6"/>
          <path d="M135.03723,273.15568c0,1.15206-3.09475,2.07681-6.90389,2.06693-3.80914-.00988-6.89401-.95017-6.89118-2.10223s3.09475-2.07681,6.9053-2.06693,6.89683.95017,6.894,2.10223" fill="#50e6ff"/>
          <path d="M128.1404,273.61876c-1.8528-.04839-3.7006.21408-5.46664.77651,1.75952.5905,3.60835.87045,5.46381.82734,1.85475.05233,3.70448-.21806,5.46664-.7991-1.76345-.57192-3.61035-.84394-5.46381-.80475Z" fill="#198ab3"/>
        </g>
      </g>
      <g>
        <g>
          <path d="M123.47685,215.93852l-.78656.78879c-.13974.14014-.36663.14046-.50677.00072h0l-5.84272-5.82623c-.27975-.27896-.28039-.73189-.00143-1.01164l.79035-.79259h0l6.35021,6.33228c.14014.13974.14046.36663.00072.50677h0s-.00379.0019-.00379.0019Z" fill="#50e6ff"/>
          <path d="M122.56815,204.12783l.79164.7894c.14014.13974.14046.36663.00072.50677l-6.23846,6.25613h0l-.79259-.79035c-.27975-.27896-.28039-.73189-.00143-1.01164l5.73525-5.75149c.14005-.13835.36548-.13783.50487.00118Z" fill="#1490df"/>
        </g>
        <g>
          <path d="M139.11119,209.10303l.7894.79164c.27896.27975.27832.73268-.00143,1.01164l-5.84273,5.82623c-.14014.13974-.36703.13942-.50677-.00072h0l-.78561-.78784c-.13974-.14014-.13942-.36703.00072-.50677h0l6.34926-6.33133h0l-.00284-.00285Z" fill="#50e6ff"/>
          <path d="M139.90614,210.88635l-.79164.7894h0l-6.23846-6.25613c-.13974-.14014-.13942-.36703.00072-.50677h0l.79164-.7894c.14014-.13974.36703-.13942.50677.00072h0l5.73525,5.75149c.27896.27975.27832.73268-.00143,1.01164l-.00285-.00095Z" fill="#1490df"/>
        </g>
        <path d="M127.39384,211.63701h-4.81678c-.1406.00537-.25977-.10248-.26842-.24292.00004-.03498.00831-.06947.02416-.10066l5.77504-11.4266c.0501-.09033.14638-.1452.24963-.14226h5.6972c.1406-.00537.25977.10248.26842.24292-.00048.04868-.01699.09585-.04697.13421l-6.78161,8.9397h6.61385c.1406-.00537.25977.10248.26842.24292-.00102.06159-.02607.12034-.06979.16374l-10.99042,11.43332c-.10334.06174-.83747.67105-.47779-.25366h0l4.55507-8.9907Z" fill="url(#linear-gradient-4)"/>
      </g>
    </g>
    <g id="Text">
      <g>
        <rect x="391.84874" y="131.43427" width="179.2644" height="34.58661" fill="none"/>
        <path d="M417.22949,143.33525h-5.19531v-9.80273h4.97656v1.03906h-3.82812v3.26074h3.54102v1.03223h-3.54102v3.43164h4.04688v1.03906Z" fill="#2f2f2f"/>
        <path d="M424.26172,136.33525l-2.78906,7h-1.10059l-2.65234-7h1.23047l1.77734,5.08594c.13232.37354.21436.69971.24609.97754h.02734c.04541-.35107.11865-.66748.21875-.9502l1.85938-5.11328h1.18262Z" fill="#2f2f2f"/>
        <path d="M430.90283,140.11553h-4.94238c.01807.7793.22803,1.38086.62891,1.80469s.95264.63574,1.6543.63574c.78857,0,1.51318-.25977,2.17383-.7793v1.05273c-.61523.44678-1.42871.66992-2.44043.66992-.98877,0-1.76611-.31787-2.33105-.95361s-.84766-1.53027-.84766-2.68311c0-1.08936.30859-1.97656.92627-2.6626s1.38428-1.02881,2.30029-1.02881,1.62451.29639,2.12598.88867.75195,1.41504.75195,2.46777v.58789ZM429.75439,139.16533c-.00439-.64697-.16064-1.15088-.46826-1.51074s-.73486-.54004-1.28174-.54004c-.52881,0-.97754.18896-1.34668.56738s-.59717.87256-.68359,1.4834h3.78027Z" fill="#2f2f2f"/>
        <path d="M438.39648,143.33525h-1.12109v-3.99219c0-1.48584-.54248-2.22852-1.62695-2.22852-.56055,0-1.02441.21094-1.39111.63232s-.55029.95361-.55029,1.59619v3.99219h-1.12109v-7h1.12109v1.16211h.02734c.52881-.88428,1.29443-1.32617,2.29688-1.32617.76562,0,1.35107.24707,1.75684.7417s.6084,1.20898.6084,2.14307v4.2793Z" fill="#2f2f2f"/>
        <path d="M443.62549,143.26689c-.26416.146-.61279.21875-1.0459.21875-1.22607,0-1.83887-.68359-1.83887-2.05078v-4.14258h-1.20312v-.95703h1.20312v-1.70898l1.12109-.3623v2.07129h1.76367v.95703h-1.76367v3.94434c0,.46924.07959.8042.23926,1.00488s.42383.30078.79297.30078c.28271,0,.52637-.07764.73145-.23242v.95703Z" fill="#2f2f2f"/>
        <path d="M456.47705,143.33525h-1.14844v-4.4707h-5.07227v4.4707h-1.14844v-9.80273h1.14844v4.2998h5.07227v-4.2998h1.14844v9.80273Z" fill="#2f2f2f"/>
        <path d="M464.46191,143.33525h-1.12109v-1.10742h-.02734c-.46484.84766-1.18506,1.27148-2.16016,1.27148-1.66797,0-2.50195-.99365-2.50195-2.98047v-4.18359h1.11426v4.00586c0,1.47656.56494,2.21484,1.69531,2.21484.54688,0,.99707-.20166,1.3501-.60498s.52979-.93066.52979-1.58252v-4.0332h1.12109v7Z" fill="#2f2f2f"/>
        <path d="M467.71777,142.32354h-.02734v1.01172h-1.12109v-10.36328h1.12109v4.59375h.02734c.55127-.92969,1.35791-1.39453,2.41992-1.39453.89795,0,1.60059.31348,2.10889.93994s.76221,1.46631.76221,2.51904c0,1.17139-.28467,2.10889-.85449,2.81299s-1.34912,1.05615-2.33789,1.05615c-.92529,0-1.62451-.39209-2.09863-1.17578ZM467.69043,139.50029v.97754c0,.57861.18799,1.06982.56396,1.47314s.85352.60498,1.43213.60498c.6792,0,1.21094-.25977,1.59619-.7793s.57764-1.2417.57764-2.16699c0-.7793-.18018-1.39014-.54004-1.83203s-.84766-.66309-1.46289-.66309c-.65186,0-1.17578.22656-1.57227.68018s-.59473,1.02197-.59473,1.70557Z" fill="#2f2f2f"/>
        <path d="M474.2876,143.08232v-1.20312c.61084.45117,1.28271.67676,2.0166.67676.98438,0,1.47656-.32812,1.47656-.98438,0-.18701-.04199-.34521-.12646-.4751s-.19824-.24512-.3418-.34521-.31201-.19043-.50586-.27002-.40234-.16309-.62549-.24951c-.31006-.12305-.58203-.24707-.81689-.37256s-.43066-.2666-.58789-.42383-.27588-.33594-.35547-.53662-.11963-.43506-.11963-.7041c0-.32812.0752-.61865.22559-.87158s.35107-.46484.60156-.63574.53662-.2998.85791-.38623.65283-.12988.99463-.12988c.60596,0,1.14844.10498,1.62695.31445v1.13477c-.51514-.3374-1.10742-.50586-1.77734-.50586-.20947,0-.39893.02393-.56738.07178s-.31348.11523-.43408.20166-.21436.19043-.28027.31104-.09912.25391-.09912.3999c0,.18213.0332.33496.09912.45801s.16309.23242.29053.32812.28271.18213.46484.25977.38965.16162.62207.25293c.31006.11865.58789.24023.83398.36572s.45557.2666.62891.42383.30664.33838.3999.54346.14014.44873.14014.73145c0,.34619-.07617.64697-.229.90234s-.35645.46729-.61182.63574-.54932.29395-.88184.37598-.68115.12305-1.0459.12305c-.72021,0-1.34424-.13916-1.87305-.41699Z" fill="#2f2f2f"/>
        <path d="M490.29736,143.33525h-1.12109v-3.99219c0-1.48584-.54248-2.22852-1.62695-2.22852-.56055,0-1.02441.21094-1.39111.63232s-.55029.95361-.55029,1.59619v3.99219h-1.12109v-7h1.12109v1.16211h.02734c.52881-.88428,1.29443-1.32617,2.29688-1.32617.76562,0,1.35107.24707,1.75684.7417s.6084,1.20898.6084,2.14307v4.2793Z" fill="#2f2f2f"/>
        <path d="M497.32812,143.33525h-1.12109v-1.09375h-.02734c-.48779.83838-1.20557,1.25781-2.15332,1.25781-.69727,0-1.24316-.18457-1.63721-.55371s-.59131-.85889-.59131-1.46973c0-1.30811.77002-2.06885,2.31055-2.2832l2.09863-.29395c0-1.18945-.48096-1.78418-1.44238-1.78418-.84326,0-1.604.28711-2.2832.86133v-1.14844c.68799-.4375,1.48096-.65625,2.37891-.65625,1.64502,0,2.46777.87061,2.46777,2.61133v4.55273ZM496.20703,139.79424l-1.68848.23242c-.51953.07275-.91162.20166-1.17578.38623s-.39648.51172-.39648.98096c0,.3418.12207.62109.36572.8374s.56836.32471.97412.32471c.55615,0,1.01514-.19482,1.37744-.58447s.54346-.88281.54346-1.47998v-.69727Z" fill="#2f2f2f"/>
        <path d="M509.2876,143.33525h-1.12109v-4.01953c0-.7749-.11963-1.33545-.35889-1.68164s-.6416-.51953-1.20654-.51953c-.47852,0-.88525.21875-1.22021.65625s-.50244.96143-.50244,1.57227v3.99219h-1.12109v-4.15625c0-1.37646-.53076-2.06445-1.59277-2.06445-.49219,0-.89795.20605-1.2168.61865s-.47852.94922-.47852,1.60986v3.99219h-1.12109v-7h1.12109v1.10742h.02734c.49658-.84766,1.22119-1.27148,2.17383-1.27148.47852,0,.89551.1333,1.25098.3999s.59912.61621.73145,1.04932c.51953-.96631,1.29443-1.44922,2.32422-1.44922,1.54053,0,2.31055.9502,2.31055,2.85059v4.31348Z" fill="#2f2f2f"/>
        <path d="M516.99463,140.11553h-4.94238c.01807.7793.22803,1.38086.62891,1.80469s.95264.63574,1.6543.63574c.78857,0,1.51318-.25977,2.17383-.7793v1.05273c-.61523.44678-1.42871.66992-2.44043.66992-.98877,0-1.76611-.31787-2.33105-.95361s-.84766-1.53027-.84766-2.68311c0-1.08936.30859-1.97656.92627-2.6626s1.38428-1.02881,2.30029-1.02881,1.62451.29639,2.12598.88867.75195,1.41504.75195,2.46777v.58789ZM515.84619,139.16533c-.00439-.64697-.16064-1.15088-.46826-1.51074s-.73486-.54004-1.28174-.54004c-.52881,0-.97754.18896-1.34668.56738s-.59717.87256-.68359,1.4834h3.78027Z" fill="#2f2f2f"/>
        <path d="M518.23682,143.08232v-1.20312c.61084.45117,1.28271.67676,2.0166.67676.98438,0,1.47656-.32812,1.47656-.98438,0-.18701-.04199-.34521-.12646-.4751s-.19824-.24512-.3418-.34521-.31201-.19043-.50586-.27002-.40234-.16309-.62549-.24951c-.31006-.12305-.58203-.24707-.81689-.37256s-.43066-.2666-.58789-.42383-.27588-.33594-.35547-.53662-.11963-.43506-.11963-.7041c0-.32812.0752-.61865.22559-.87158s.35107-.46484.60156-.63574.53662-.2998.85791-.38623.65283-.12988.99463-.12988c.60596,0,1.14844.10498,1.62695.31445v1.13477c-.51514-.3374-1.10742-.50586-1.77734-.50586-.20947,0-.39893.02393-.56738.07178s-.31348.11523-.43408.20166-.21436.19043-.28027.31104-.09912.25391-.09912.3999c0,.18213.0332.33496.09912.45801s.16309.23242.29053.32812.28271.18213.46484.25977.38965.16162.62207.25293c.31006.11865.58789.24023.83398.36572s.45557.2666.62891.42383.30664.33838.3999.54346.14014.44873.14014.73145c0,.34619-.07617.64697-.229.90234s-.35645.46729-.61182.63574-.54932.29395-.88184.37598-.68115.12305-1.0459.12305c-.72021,0-1.34424-.13916-1.87305-.41699Z" fill="#2f2f2f"/>
        <path d="M525.61084,142.32354h-.02734v4.23145h-1.12109v-10.21973h1.12109v1.23047h.02734c.55127-.92969,1.35791-1.39453,2.41992-1.39453.90234,0,1.60645.31348,2.1123.93994s.75879,1.46631.75879,2.51904c0,1.17139-.28467,2.10889-.85449,2.81299s-1.34912,1.05615-2.33789,1.05615c-.90674,0-1.60645-.39209-2.09863-1.17578ZM525.5835,139.50029v.97754c0,.57861.18799,1.06982.56396,1.47314s.85352.60498,1.43213.60498c.6792,0,1.21094-.25977,1.59619-.7793s.57764-1.2417.57764-2.16699c0-.7793-.18018-1.39014-.54004-1.83203s-.84766-.66309-1.46289-.66309c-.65186,0-1.17578.22656-1.57227.68018s-.59473,1.02197-.59473,1.70557Z" fill="#2f2f2f"/>
        <path d="M537.6377,143.33525h-1.12109v-1.09375h-.02734c-.48779.83838-1.20557,1.25781-2.15332,1.25781-.69727,0-1.24316-.18457-1.63721-.55371s-.59131-.85889-.59131-1.46973c0-1.30811.77002-2.06885,2.31055-2.2832l2.09863-.29395c0-1.18945-.48096-1.78418-1.44238-1.78418-.84326,0-1.604.28711-2.2832.86133v-1.14844c.68799-.4375,1.48096-.65625,2.37891-.65625,1.64502,0,2.46777.87061,2.46777,2.61133v4.55273ZM536.5166,139.79424l-1.68848.23242c-.51953.07275-.91162.20166-1.17578.38623s-.39648.51172-.39648.98096c0,.3418.12207.62109.36572.8374s.56836.32471.97412.32471c.55615,0,1.01514-.19482,1.37744-.58447s.54346-.88281.54346-1.47998v-.69727Z" fill="#2f2f2f"/>
        <path d="M544.48096,143.01396c-.5376.32373-1.17578.48535-1.91406.48535-.99805,0-1.80371-.32471-2.4165-.97412s-.91943-1.49121-.91943-2.52588c0-1.15283.33057-2.0791.99121-2.77881s1.54248-1.04932,2.64551-1.04932c.61523,0,1.15771.11377,1.62695.3418v1.14844c-.51953-.36475-1.07568-.54688-1.66797-.54688-.71533,0-1.30225.25635-1.76025.76904s-.68701,1.18604-.68701,2.02002c0,.82031.21533,1.46729.646,1.94141s1.0083.71094,1.73291.71094c.61084,0,1.18506-.20264,1.72266-.6084v1.06641Z" fill="#2f2f2f"/>
        <path d="M551.65137,140.11553h-4.94238c.01807.7793.22803,1.38086.62891,1.80469s.95264.63574,1.6543.63574c.78857,0,1.51318-.25977,2.17383-.7793v1.05273c-.61523.44678-1.42871.66992-2.44043.66992-.98877,0-1.76611-.31787-2.33105-.95361s-.84766-1.53027-.84766-2.68311c0-1.08936.30859-1.97656.92627-2.6626s1.38428-1.02881,2.30029-1.02881,1.62451.29639,2.12598.88867.75195,1.41504.75195,2.46777v.58789ZM550.50293,139.16533c-.00439-.64697-.16064-1.15088-.46826-1.51074s-.73486-.54004-1.28174-.54004c-.52881,0-.97754.18896-1.34668.56738s-.59717.87256-.68359,1.4834h3.78027Z" fill="#2f2f2f"/>
        <path d="M457.73828,162.36357h-1.76367c-1.47217-1.62256-2.20801-3.61621-2.20801-5.98145,0-2.2832.73584-4.2998,2.20801-6.0498h1.75c-1.38086,1.83203-2.07129,3.84863-2.07129,6.0498s.69482,4.19482,2.08496,5.98145Z" fill="#2f2f2f"/>
        <path d="M460.92871,159.32158h-.02734v4.0332h-2.16016v-10.21973h2.16016v1.05273h.02734c.5332-.81592,1.28271-1.22363,2.24902-1.22363.90674,0,1.60742.31104,2.10205.93311s.7417,1.46875.7417,2.53955c0,1.1665-.28809,2.10303-.86475,2.80957s-1.34326,1.05957-2.30029,1.05957c-.84326,0-1.48584-.32812-1.92773-.98438ZM460.86719,156.45049v.56055c0,.48291.12744.87744.38281,1.18262s.59033.45801,1.00488.45801c.49219,0,.87402-.19043,1.14502-.5708s.40674-.91943.40674-1.6167c0-1.23047-.47852-1.8457-1.43555-1.8457-.44189,0-.80322.16748-1.0835.50244s-.42041.77832-.42041,1.32959Z" fill="#2f2f2f"/>
        <path d="M473.25391,160.13506h-2.04395v-1.00488h-.02734c-.46924.78369-1.16455,1.17578-2.08496,1.17578-.6792,0-1.21338-.19238-1.60303-.57764s-.58447-.89893-.58447-1.5415c0-1.35791.8042-2.14209,2.41309-2.35156l1.90039-.25293c0-.76562-.41455-1.14844-1.24414-1.14844-.83398,0-1.62695.24854-2.37891.74512v-1.62695c.30078-.15479.71191-.2915,1.23389-.41016s.99707-.17773,1.42529-.17773c1.99609,0,2.99414.99561,2.99414,2.9873v4.18359ZM471.22363,157.29131v-.47168l-1.27148.16406c-.70166.09131-1.05273.40771-1.05273.9502,0,.24609.08545.44775.25635.60498s.40234.23584.69385.23584c.40576,0,.73584-.14014.99121-.42041s.38281-.63477.38281-1.06299Z" fill="#2f2f2f"/>
        <path d="M474.62842,159.95049v-1.75c.35547.21436.70996.37354,1.06299.47852s.68701.15723,1.00146.15723c.38281,0,.68457-.05225.90576-.15723s.33154-.26416.33154-.47852c0-.13672-.05029-.25049-.15039-.3418s-.229-.1709-.38623-.23926-.3291-.12988-.51611-.18457-.3667-.11621-.54004-.18457c-.27783-.10498-.52295-.21777-.73486-.33838s-.38965-.26074-.5332-.42041-.25293-.34424-.32812-.55371-.11279-.45801-.11279-.74512c0-.39209.08545-.729.25635-1.01172s.39893-.51367.68359-.69385.61084-.31201.97754-.39648.74854-.12646,1.14502-.12646c.31006,0,.62451.02393.94336.07178s.6333.11719.94336.2085v1.66797c-.27344-.15967-.56641-.2793-.87842-.35889s-.61865-.11963-.91943-.11963c-.14111,0-.27441.0127-.3999.0376s-.23584.06152-.33154.10938-.1709.10938-.22559.18457-.08203.16064-.08203.25635c0,.12744.04102.23682.12305.32812s.18896.16992.32129.23584.2793.12549.44092.17773.32227.10596.48193.16064c.28711.1001.54688.20947.7793.32812s.43164.25732.59814.41699.29395.34619.38281.56055.1333.46924.1333.76562c0,.41455-.08984.76904-.27002,1.06299s-.41943.5332-.71777.71777-.64258.31885-1.03223.40332-.79395.12646-1.21338.12646c-.77002,0-1.4834-.11865-2.13965-.35547Z" fill="#2f2f2f"/>
        <path d="M480.94141,159.95049v-1.75c.35547.21436.70996.37354,1.06299.47852s.68701.15723,1.00146.15723c.38281,0,.68457-.05225.90576-.15723s.33154-.26416.33154-.47852c0-.13672-.05029-.25049-.15039-.3418s-.229-.1709-.38623-.23926-.3291-.12988-.51611-.18457-.3667-.11621-.54004-.18457c-.27783-.10498-.52295-.21777-.73486-.33838s-.38965-.26074-.5332-.42041-.25293-.34424-.32812-.55371-.11279-.45801-.11279-.74512c0-.39209.08545-.729.25635-1.01172s.39893-.51367.68359-.69385.61084-.31201.97754-.39648.74854-.12646,1.14502-.12646c.31006,0,.62451.02393.94336.07178s.6333.11719.94336.2085v1.66797c-.27344-.15967-.56641-.2793-.87842-.35889s-.61865-.11963-.91943-.11963c-.14111,0-.27441.0127-.3999.0376s-.23584.06152-.33154.10938-.1709.10938-.22559.18457-.08203.16064-.08203.25635c0,.12744.04102.23682.12305.32812s.18896.16992.32129.23584.2793.12549.44092.17773.32227.10596.48193.16064c.28711.1001.54688.20947.7793.32812s.43164.25732.59814.41699.29395.34619.38281.56055.1333.46924.1333.76562c0,.41455-.08984.76904-.27002,1.06299s-.41943.5332-.71777.71777-.64258.31885-1.03223.40332-.79395.12646-1.21338.12646c-.77002,0-1.4834-.11865-2.13965-.35547Z" fill="#2f2f2f"/>
        <path d="M488.68066,152.02764c-.36475,0-.66309-.1084-.89551-.32471s-.34863-.48193-.34863-.79639c0-.32373.11621-.58789.34863-.79297s.53076-.30762.89551-.30762c.36914,0,.66895.10254.89893.30762s.34521.46924.34521.79297c0,.32812-.11523.59717-.34521.80664s-.52979.31445-.89893.31445ZM489.74707,160.13506h-2.16016v-7h2.16016v7Z" fill="#2f2f2f"/>
        <path d="M498.25146,153.13506l-2.60449,7h-2.46094l-2.48145-7h2.31055l1.2168,4.31348c.13672.48779.21631.90234.23926,1.24414h.02734c.03174-.32373.11621-.72461.25293-1.20312l1.24414-4.35449h2.25586Z" fill="#2f2f2f"/>
        <path d="M505.23926,157.25029h-4.56641c.07275,1.01611.71338,1.52441,1.9209,1.52441.77002,0,1.44678-.18213,2.03027-.54688v1.55859c-.64697.34619-1.48779.51953-2.52246.51953-1.13037,0-2.00732-.31348-2.63184-.93994s-.93652-1.50049-.93652-2.62158c0-1.16211.3374-2.08252,1.01172-2.76172s1.50391-1.01855,2.48828-1.01855c1.021,0,1.81055.30322,2.36865.90918s.8374,1.42871.8374,2.46777v.90918ZM503.23633,155.92412c0-1.00244-.40576-1.50391-1.2168-1.50391-.34619,0-.646.14355-.89893.43066s-.40674.64502-.46143,1.07324h2.57715Z" fill="#2f2f2f"/>
        <path d="M506.97998,162.36357h-1.75c1.39453-1.77734,2.0918-3.771,2.0918-5.98145,0-2.19189-.69727-4.2085-2.0918-6.0498h1.76367c1.47656,1.75439,2.21484,3.771,2.21484,6.0498,0,2.34717-.74268,4.34082-2.22852,5.98145Z" fill="#2f2f2f"/>
      </g>
      <g>
        <path d="M447.68896,229.97148h-3.82812v3.39062h3.54102v1.03223h-3.54102v4.34082h-1.14844v-9.80273h4.97656v1.03906Z" fill="#2f2f2f"/>
        <path d="M454.76416,238.73516h-1.12109v-1.10742h-.02734c-.46484.84766-1.18506,1.27148-2.16016,1.27148-1.66797,0-2.50195-.99414-2.50195-2.98047v-4.18359h1.11426v4.00586c0,1.47656.56494,2.21484,1.69531,2.21484.54688,0,.99707-.20215,1.3501-.60547s.52979-.93066.52979-1.58203v-4.0332h1.12109v7Z" fill="#2f2f2f"/>
        <path d="M462.68213,238.73516h-1.12109v-3.99219c0-1.48633-.54248-2.22852-1.62695-2.22852-.56055,0-1.02441.21094-1.39111.63184-.3667.42188-.55029.9541-.55029,1.59668v3.99219h-1.12109v-7h1.12109v1.16211h.02734c.52881-.88477,1.29443-1.32617,2.29688-1.32617.76562,0,1.35107.24707,1.75684.74121.40576.49512.6084,1.20898.6084,2.14355v4.2793Z" fill="#2f2f2f"/>
        <path d="M469.53076,238.41387c-.5376.32324-1.17578.48535-1.91406.48535-.99805,0-1.80371-.3252-2.4165-.97461s-.91943-1.49121-.91943-2.52539c0-1.15332.33057-2.0791.99121-2.7793.66064-.69922,1.54248-1.04883,2.64551-1.04883.61523,0,1.15771.11328,1.62695.3418v1.14844c-.51953-.36523-1.07568-.54688-1.66797-.54688-.71533,0-1.30225.25586-1.76025.76855s-.68701,1.18652-.68701,2.02051c0,.82031.21533,1.4668.646,1.94141.43066.47363,1.0083.71094,1.73291.71094.61084,0,1.18506-.20312,1.72266-.6084v1.06641Z" fill="#2f2f2f"/>
        <path d="M474.69434,238.6668c-.26416.14551-.61279.21875-1.0459.21875-1.22607,0-1.83887-.68359-1.83887-2.05078v-4.14258h-1.20312v-.95703h1.20312v-1.70898l1.12109-.3623v2.07129h1.76367v.95703h-1.76367v3.94434c0,.46875.07959.80371.23926,1.00488.15967.2002.42383.30078.79297.30078.28271,0,.52637-.07812.73145-.23242v.95703Z" fill="#2f2f2f"/>
        <path d="M476.64941,229.95781c-.20068,0-.37158-.06836-.5127-.20508s-.21191-.31055-.21191-.51953c0-.20996.0708-.38379.21191-.52344.14111-.13867.31201-.20801.5127-.20801.20508,0,.37939.06934.52295.20801.14355.13965.21533.31348.21533.52344,0,.2002-.07178.37109-.21533.5127-.14355.14062-.31787.21191-.52295.21191ZM477.19629,238.73516h-1.12109v-7h1.12109v7Z" fill="#2f2f2f"/>
        <path d="M482.29102,238.89922c-1.03467,0-1.86035-.32715-2.47803-.98145-.61768-.65332-.92627-1.52051-.92627-2.60059,0-1.17578.32129-2.09473.96387-2.75488.64258-.66113,1.51074-.99121,2.60449-.99121,1.04346,0,1.8584.32129,2.44385.96387s.87842,1.5332.87842,2.67285c0,1.11621-.31543,2.01074-.94678,2.68262-.63135.67285-1.47754,1.00879-2.53955,1.00879ZM482.37305,232.51445c-.72021,0-1.28955.24512-1.70898.73438-.41943.49023-.62891,1.16602-.62891,2.02734,0,.8291.21191,1.4834.63574,1.96191s.99121.71777,1.70215.71777c.72461,0,1.28174-.23535,1.67139-.7041.38965-.46973.58447-1.1377.58447-2.00293,0-.875-.19482-1.5498-.58447-2.02344-.38965-.47461-.94678-.71094-1.67139-.71094Z" fill="#2f2f2f"/>
        <path d="M493.30322,238.73516h-1.12109v-3.99219c0-1.48633-.54248-2.22852-1.62695-2.22852-.56055,0-1.02441.21094-1.39111.63184-.3667.42188-.55029.9541-.55029,1.59668v3.99219h-1.12109v-7h1.12109v1.16211h.02734c.52881-.88477,1.29443-1.32617,2.29688-1.32617.76562,0,1.35107.24707,1.75684.74121.40576.49512.6084,1.20898.6084,2.14355v4.2793Z" fill="#2f2f2f"/>
        <path d="M504.26123,238.73516h-1.12109v-1.09375h-.02734c-.48779.83789-1.20557,1.25781-2.15332,1.25781-.69727,0-1.24316-.18457-1.63721-.55371s-.59131-.85938-.59131-1.46973c0-1.30859.77002-2.06934,2.31055-2.2832l2.09863-.29395c0-1.18945-.48096-1.78418-1.44238-1.78418-.84326,0-1.604.28711-2.2832.86133v-1.14844c.68799-.4375,1.48096-.65625,2.37891-.65625,1.64502,0,2.46777.87012,2.46777,2.61133v4.55273ZM503.14014,235.19414l-1.68848.23242c-.51953.07227-.91162.20117-1.17578.38574s-.39648.51172-.39648.98145c0,.3418.12207.62109.36572.83691.24365.2168.56836.3252.97412.3252.55615,0,1.01514-.19531,1.37744-.58496s.54346-.88281.54346-1.47949v-.69727Z" fill="#2f2f2f"/>
        <path d="M507.43066,237.72344h-.02734v4.23145h-1.12109v-10.21973h1.12109v1.23047h.02734c.55127-.92969,1.35791-1.39453,2.41992-1.39453.90234,0,1.60645.31348,2.1123.93945.50586.62695.75879,1.4668.75879,2.51953,0,1.1709-.28467,2.1084-.85449,2.8125s-1.34912,1.05664-2.33789,1.05664c-.90674,0-1.60645-.39258-2.09863-1.17578ZM507.40332,234.9002v.97754c0,.57812.18799,1.06934.56396,1.47266s.85352.60547,1.43213.60547c.6792,0,1.21094-.25977,1.59619-.7793s.57764-1.24219.57764-2.16699c0-.7793-.18018-1.39062-.54004-1.83203-.35986-.44238-.84766-.66309-1.46289-.66309-.65186,0-1.17578.22656-1.57227.67969-.39648.4541-.59473,1.02246-.59473,1.70605Z" fill="#2f2f2f"/>
        <path d="M515.58691,237.72344h-.02734v4.23145h-1.12109v-10.21973h1.12109v1.23047h.02734c.55127-.92969,1.35791-1.39453,2.41992-1.39453.90234,0,1.60645.31348,2.1123.93945.50586.62695.75879,1.4668.75879,2.51953,0,1.1709-.28467,2.1084-.85449,2.8125s-1.34912,1.05664-2.33789,1.05664c-.90674,0-1.60645-.39258-2.09863-1.17578ZM515.55957,234.9002v.97754c0,.57812.18799,1.06934.56396,1.47266s.85352.60547,1.43213.60547c.6792,0,1.21094-.25977,1.59619-.7793s.57764-1.24219.57764-2.16699c0-.7793-.18018-1.39062-.54004-1.83203-.35986-.44238-.84766-.66309-1.46289-.66309-.65186,0-1.17578.22656-1.57227.67969-.39648.4541-.59473,1.02246-.59473,1.70605Z" fill="#2f2f2f"/>
      </g>
      <g>
        <path d="M454.24854,314.1248v-9.80273h2.70703c3.45459,0,5.18164,1.59277,5.18164,4.77832,0,1.5127-.47949,2.72852-1.43896,3.64648-.95947.91895-2.24316,1.37793-3.85205,1.37793h-2.59766ZM455.39697,305.36113v7.72461h1.46289c1.28516,0,2.28564-.34473,3.00098-1.03223.71533-.68848,1.07324-1.66406,1.07324-2.92578,0-2.51172-1.33545-3.7666-4.00586-3.7666h-1.53125Z" fill="#2f2f2f"/>
        <path d="M468.76855,314.1248h-1.12109v-1.09375h-.02734c-.48779.83789-1.20557,1.25781-2.15332,1.25781-.69727,0-1.24316-.18457-1.63721-.55371s-.59131-.85938-.59131-1.46973c0-1.30859.77002-2.06934,2.31055-2.2832l2.09863-.29395c0-1.18945-.48096-1.78418-1.44238-1.78418-.84326,0-1.604.28711-2.2832.86133v-1.14844c.68799-.4375,1.48096-.65625,2.37891-.65625,1.64502,0,2.46777.87012,2.46777,2.61133v4.55273ZM467.64746,310.58379l-1.68848.23242c-.51953.07227-.91162.20117-1.17578.38574s-.39648.51172-.39648.98145c0,.3418.12207.62109.36572.83691.24365.2168.56836.3252.97412.3252.55615,0,1.01514-.19531,1.37744-.58496s.54346-.88281.54346-1.47949v-.69727Z" fill="#2f2f2f"/>
        <path d="M474.02686,314.05645c-.26416.14551-.61279.21875-1.0459.21875-1.22607,0-1.83887-.68359-1.83887-2.05078v-4.14258h-1.20312v-.95703h1.20312v-1.70898l1.12109-.3623v2.07129h1.76367v.95703h-1.76367v3.94434c0,.46875.07959.80371.23926,1.00488.15967.2002.42383.30078.79297.30078.28271,0,.52637-.07812.73145-.23242v.95703Z" fill="#2f2f2f"/>
        <path d="M480.64404,314.1248h-1.12109v-1.09375h-.02734c-.48779.83789-1.20557,1.25781-2.15332,1.25781-.69727,0-1.24316-.18457-1.63721-.55371s-.59131-.85938-.59131-1.46973c0-1.30859.77002-2.06934,2.31055-2.2832l2.09863-.29395c0-1.18945-.48096-1.78418-1.44238-1.78418-.84326,0-1.604.28711-2.2832.86133v-1.14844c.68799-.4375,1.48096-.65625,2.37891-.65625,1.64502,0,2.46777.87012,2.46777,2.61133v4.55273ZM479.52295,310.58379l-1.68848.23242c-.51953.07227-.91162.20117-1.17578.38574s-.39648.51172-.39648.98145c0,.3418.12207.62109.36572.83691.24365.2168.56836.3252.97412.3252.55615,0,1.01514-.19531,1.37744-.58496s.54346-.88281.54346-1.47949v-.69727Z" fill="#2f2f2f"/>
        <path d="M483.81396,313.11309h-.02734v1.01172h-1.12109v-10.36328h1.12109v4.59375h.02734c.55127-.92969,1.35791-1.39453,2.41992-1.39453.89795,0,1.60059.31348,2.10889.93945.5083.62695.76221,1.4668.76221,2.51953,0,1.1709-.28467,2.1084-.85449,2.8125s-1.34912,1.05664-2.33789,1.05664c-.92529,0-1.62451-.39258-2.09863-1.17578ZM483.78662,310.28984v.97754c0,.57812.18799,1.06934.56396,1.47266s.85352.60547,1.43213.60547c.6792,0,1.21094-.25977,1.59619-.7793s.57764-1.24219.57764-2.16699c0-.7793-.18018-1.39062-.54004-1.83203-.35986-.44238-.84766-.66309-1.46289-.66309-.65186,0-1.17578.22656-1.57227.67969-.39648.4541-.59473,1.02246-.59473,1.70605Z" fill="#2f2f2f"/>
        <path d="M495.84082,314.1248h-1.12109v-1.09375h-.02734c-.48779.83789-1.20557,1.25781-2.15332,1.25781-.69727,0-1.24316-.18457-1.63721-.55371s-.59131-.85938-.59131-1.46973c0-1.30859.77002-2.06934,2.31055-2.2832l2.09863-.29395c0-1.18945-.48096-1.78418-1.44238-1.78418-.84326,0-1.604.28711-2.2832.86133v-1.14844c.68799-.4375,1.48096-.65625,2.37891-.65625,1.64502,0,2.46777.87012,2.46777,2.61133v4.55273ZM494.71973,310.58379l-1.68848.23242c-.51953.07227-.91162.20117-1.17578.38574s-.39648.51172-.39648.98145c0,.3418.12207.62109.36572.83691.24365.2168.56836.3252.97412.3252.55615,0,1.01514-.19531,1.37744-.58496s.54346-.88281.54346-1.47949v-.69727Z" fill="#2f2f2f"/>
        <path d="M497.48291,313.87187v-1.20312c.61084.45117,1.28271.67676,2.0166.67676.98438,0,1.47656-.32812,1.47656-.98438,0-.1875-.04199-.3457-.12646-.47559s-.19824-.24512-.3418-.34473c-.14355-.10059-.31201-.19043-.50586-.27051-.19385-.0791-.40234-.16309-.62549-.24902-.31006-.12305-.58203-.24707-.81689-.37305-.23486-.125-.43066-.2666-.58789-.42383s-.27588-.33594-.35547-.53613c-.07959-.20117-.11963-.43555-.11963-.7041,0-.32812.0752-.61914.22559-.87207s.35107-.46484.60156-.63574.53662-.2998.85791-.38574c.32129-.08691.65283-.12988.99463-.12988.60596,0,1.14844.10449,1.62695.31445v1.13477c-.51514-.33789-1.10742-.50586-1.77734-.50586-.20947,0-.39893.02344-.56738.07129s-.31348.11523-.43408.20215c-.12061.08594-.21436.19043-.28027.31055-.06592.12109-.09912.25391-.09912.40039,0,.18164.0332.33496.09912.45801s.16309.23242.29053.32812.28271.18164.46484.25977c.18213.07715.38965.16113.62207.25293.31006.11816.58789.24023.83398.36523.24609.12598.45557.2666.62891.42383s.30664.33887.3999.54395.14014.44824.14014.73145c0,.3457-.07617.64648-.229.90234-.15283.25488-.35645.4668-.61182.63574-.25537.16797-.54932.29395-.88184.37598s-.68115.12305-1.0459.12305c-.72021,0-1.34424-.13965-1.87305-.41699Z" fill="#2f2f2f"/>
        <path d="M509.43848,310.90508h-4.94238c.01807.7793.22803,1.38086.62891,1.80469s.95264.63574,1.6543.63574c.78857,0,1.51318-.25977,2.17383-.7793v1.05273c-.61523.44629-1.42871.66992-2.44043.66992-.98877,0-1.76611-.31836-2.33105-.9541s-.84766-1.53027-.84766-2.68262c0-1.08984.30859-1.97656.92627-2.66309.61768-.68555,1.38428-1.02832,2.30029-1.02832s1.62451.2959,2.12598.88867c.50146.5918.75195,1.41504.75195,2.46777v.58789ZM508.29004,309.95488c-.00439-.64746-.16064-1.15137-.46826-1.51074-.30762-.36035-.73486-.54004-1.28174-.54004-.52881,0-.97754.18848-1.34668.56738-.36914.37793-.59717.87207-.68359,1.4834h3.78027Z" fill="#2f2f2f"/>
      </g>
      <g>
        <path d="M297.80566,32.67852h-1.27148l-1.03906-2.74805h-4.15625l-.97754,2.74805h-1.27832l3.75977-9.80273h1.18945l3.77344,9.80273ZM295.11914,28.89824l-1.53809-4.17676c-.05029-.13672-.1001-.35547-.15039-.65625h-.02734c-.04541.27783-.09814.49658-.15723.65625l-1.52441,4.17676h3.39746Z" fill="#2f2f2f"/>
        <path d="M300.21875,32.67852h-1.12109v-10.36328h1.12109v10.36328Z" fill="#2f2f2f"/>
        <path d="M303.0625,23.90117c-.20068,0-.37158-.06836-.5127-.20508s-.21191-.31006-.21191-.51953.0708-.38379.21191-.52295.31201-.2085.5127-.2085c.20508,0,.37939.06934.52295.2085s.21533.31348.21533.52295c0,.20068-.07178.37158-.21533.5127s-.31787.21191-.52295.21191ZM303.60938,32.67852h-1.12109v-7h1.12109v7Z" fill="#2f2f2f"/>
        <path d="M310.88965,32.67852h-1.12109v-1.09375h-.02734c-.48779.83838-1.20557,1.25781-2.15332,1.25781-.69727,0-1.24316-.18457-1.63721-.55371s-.59131-.85889-.59131-1.46973c0-1.30811.77002-2.06885,2.31055-2.2832l2.09863-.29395c0-1.18945-.48096-1.78418-1.44238-1.78418-.84326,0-1.604.28711-2.2832.86133v-1.14844c.68799-.4375,1.48096-.65625,2.37891-.65625,1.64502,0,2.46777.87061,2.46777,2.61133v4.55273ZM309.76855,29.1375l-1.68848.23242c-.51953.07275-.91162.20166-1.17578.38623s-.39648.51172-.39648.98096c0,.3418.12207.62109.36572.8374s.56836.32471.97412.32471c.55615,0,1.01514-.19482,1.37744-.58447s.54346-.88281.54346-1.47998v-.69727Z" fill="#2f2f2f"/>
        <path d="M312.57812,32.42559v-1.20312c.61084.45117,1.28271.67676,2.0166.67676.98438,0,1.47656-.32812,1.47656-.98438,0-.18701-.04199-.34521-.12646-.4751s-.19824-.24512-.3418-.34521-.31201-.19043-.50586-.27002-.40234-.16309-.62549-.24951c-.31006-.12305-.58203-.24707-.81689-.37256s-.43066-.2666-.58789-.42383-.27588-.33594-.35547-.53662-.11963-.43506-.11963-.7041c0-.32812.0752-.61865.22559-.87158s.35107-.46484.60156-.63574.53662-.2998.85791-.38623.65283-.12988.99463-.12988c.60596,0,1.14844.10498,1.62695.31445v1.13477c-.51514-.3374-1.10742-.50586-1.77734-.50586-.20947,0-.39893.02393-.56738.07178s-.31348.11523-.43408.20166-.21436.19043-.28027.31104-.09912.25391-.09912.3999c0,.18213.0332.33496.09912.45801s.16309.23242.29053.32812.28271.18213.46484.25977.38965.16162.62207.25293c.31006.11865.58789.24023.83398.36572s.45557.2666.62891.42383.30664.33838.3999.54346.14014.44873.14014.73145c0,.34619-.07617.64697-.229.90234s-.35645.46729-.61182.63574-.54932.29395-.88184.37598-.68115.12305-1.0459.12305c-.72021,0-1.34424-.13916-1.87305-.41699Z" fill="#2f2f2f"/>
      </g>
      <g>
        <rect x="13.1943" y="28.40695" width="57.18205" height="35.32447" fill="none"/>
        <path d="M16.52393,36.93145v3.37695h-2.20801v-9.80273h3.45898c2.47021,0,3.70508,1.0415,3.70508,3.12402,0,.98438-.35449,1.78076-1.06299,2.38916s-1.65527.9126-2.84033.9126h-1.05273ZM16.52393,32.20098v3.05566h.86816c1.17578,0,1.76367-.51514,1.76367-1.54492,0-1.00732-.58789-1.51074-1.76367-1.51074h-.86816Z" fill="#2f2f2f"/>
        <path d="M27.14941,35.25664c-.25977-.14111-.56299-.21191-.90918-.21191-.46924,0-.83643.17188-1.10059.51611s-.39648.8125-.39648,1.40479v3.34277h-2.16016v-7h2.16016v1.29883h.02734c.3418-.94775.95703-1.42188,1.8457-1.42188.22803,0,.40576.02734.5332.08203v1.98926Z" fill="#2f2f2f"/>
        <path d="M29.23584,32.20098c-.36475,0-.66309-.1084-.89551-.32471s-.34863-.48193-.34863-.79639c0-.32373.11621-.58789.34863-.79297s.53076-.30762.89551-.30762c.36914,0,.66895.10254.89893.30762s.34521.46924.34521.79297c0,.32812-.11523.59717-.34521.80664s-.52979.31445-.89893.31445ZM30.30225,40.3084h-2.16016v-7h2.16016v7Z" fill="#2f2f2f"/>
        <path d="M43.19922,40.3084h-2.15332v-3.99219c0-1.01611-.37354-1.52441-1.12109-1.52441-.35547,0-.64502.15283-.86816.45801s-.33496.68604-.33496,1.1416v3.91699h-2.16016v-4.0332c0-.98877-.3667-1.4834-1.10059-1.4834-.36914,0-.66406.146-.88525.4375s-.33154.68799-.33154,1.18945v3.88965h-2.16016v-7h2.16016v1.09375h.02734c.22314-.37354.53662-.67773.93994-.9126s.84424-.35205,1.32275-.35205c.98877,0,1.66553.43506,2.03027,1.30566.5332-.87061,1.31689-1.30566,2.35156-1.30566,1.52197,0,2.2832.93896,2.2832,2.81641v4.35449Z" fill="#2f2f2f"/>
        <path d="M50.76465,40.3084h-2.04395v-1.00488h-.02734c-.46924.78369-1.16455,1.17578-2.08496,1.17578-.6792,0-1.21338-.19238-1.60303-.57764s-.58447-.89893-.58447-1.5415c0-1.35791.8042-2.14209,2.41309-2.35156l1.90039-.25293c0-.76562-.41455-1.14844-1.24414-1.14844-.83398,0-1.62695.24854-2.37891.74512v-1.62695c.30078-.15479.71191-.2915,1.23389-.41016s.99707-.17773,1.42529-.17773c1.99609,0,2.99414.99561,2.99414,2.9873v4.18359ZM48.73438,37.46465v-.47168l-1.27148.16406c-.70166.09131-1.05273.40771-1.05273.9502,0,.24609.08545.44775.25635.60498s.40234.23584.69385.23584c.40576,0,.73584-.14014.99121-.42041s.38281-.63477.38281-1.06299Z" fill="#2f2f2f"/>
        <path d="M57.02734,35.25664c-.25977-.14111-.56299-.21191-.90918-.21191-.46924,0-.83643.17188-1.10059.51611s-.39648.8125-.39648,1.40479v3.34277h-2.16016v-7h2.16016v1.29883h.02734c.3418-.94775.95703-1.42188,1.8457-1.42188.22803,0,.40576.02734.5332.08203v1.98926Z" fill="#2f2f2f"/>
        <path d="M65.14697,33.3084l-2.84375,7.56055c-.68359,1.81836-1.71338,2.72754-3.08984,2.72754-.52393,0-.95459-.05908-1.29199-.17773v-1.72266c.28711.16846.59912.25293.93652.25293.55615,0,.94336-.26221,1.16211-.78613l.36914-.86816-2.84375-6.98633h2.39258l1.30566,4.25879c.08203.26416.146.57666.19141.93652h.02734c.04102-.26416.11621-.57178.22559-.92285l1.31934-4.27246h2.13965Z" fill="#2f2f2f"/>
        <path d="M17.97998,51.24297c-.1958-.15039-.47852-.22559-.84766-.22559-.47852,0-.87842.22559-1.19971.67676s-.48193,1.06641-.48193,1.8457v3.56836h-1.12109v-7h1.12109v1.44238h.02734c.15967-.49219.40332-.87598.73145-1.15186s.69482-.41357,1.10059-.41357c.2915,0,.51514.03174.66992.0957v1.16211Z" fill="#2f2f2f"/>
        <path d="M24.82275,53.88848h-4.94238c.01807.7793.22803,1.38086.62891,1.80469s.95264.63574,1.6543.63574c.78857,0,1.51318-.25977,2.17383-.7793v1.05273c-.61523.44678-1.42871.66992-2.44043.66992-.98877,0-1.76611-.31787-2.33105-.95361s-.84766-1.53027-.84766-2.68311c0-1.08936.30859-1.97656.92627-2.6626s1.38428-1.02881,2.30029-1.02881,1.62451.29639,2.12598.88867.75195,1.41504.75195,2.46777v.58789ZM23.67432,52.93828c-.00439-.64697-.16064-1.15088-.46826-1.51074s-.73486-.54004-1.28174-.54004c-.52881,0-.97754.18896-1.34668.56738s-.59717.87256-.68359,1.4834h3.78027Z" fill="#2f2f2f"/>
        <path d="M32.52344,56.54766c0,2.57031-1.23047,3.85547-3.69141,3.85547-.86572,0-1.62256-.16406-2.26953-.49219v-1.12109c.78857.4375,1.54053.65625,2.25586.65625,1.72266,0,2.58398-.91602,2.58398-2.74805v-.76562h-.02734c-.5332.89307-1.33545,1.33984-2.40625,1.33984-.87061,0-1.57129-.31104-2.10205-.93311s-.79639-1.45703-.79639-2.50537c0-1.18945.28613-2.13525.85791-2.83691s1.35449-1.05273,2.34814-1.05273c.94336,0,1.64307.37842,2.09863,1.13477h.02734v-.9707h1.12109v6.43945ZM31.40234,53.94316v-1.03223c0-.55615-.18799-1.03223-.56396-1.42871s-.84424-.59473-1.40479-.59473c-.69287,0-1.23486.25195-1.62695.75537s-.58789,1.20898-.58789,2.11572c0,.7793.18799,1.40234.56396,1.86963s.87402.70068,1.49365.70068c.62891,0,1.14062-.22314,1.53467-.66992s.59131-1.01855.59131-1.71582Z" fill="#2f2f2f"/>
        <path d="M35.21338,48.33086c-.20068,0-.37158-.06836-.5127-.20508s-.21191-.31006-.21191-.51953.0708-.38379.21191-.52295.31201-.2085.5127-.2085c.20508,0,.37939.06934.52295.2085s.21533.31348.21533.52295c0,.20068-.07178.37158-.21533.5127s-.31787.21191-.52295.21191ZM35.76025,57.1082h-1.12109v-7h1.12109v7Z" fill="#2f2f2f"/>
        <path d="M40.85449,57.27227c-1.03467,0-1.86035-.32715-2.47803-.98096s-.92627-1.521-.92627-2.60107c0-1.17578.32129-2.09424.96387-2.75488s1.51074-.99121,2.60449-.99121c1.04346,0,1.8584.32129,2.44385.96387s.87842,1.53369.87842,2.67285c0,1.1167-.31543,2.01074-.94678,2.68311s-1.47754,1.0083-2.53955,1.0083ZM40.93652,50.8875c-.72021,0-1.28955.24512-1.70898.73486s-.62891,1.16553-.62891,2.02686c0,.82959.21191,1.4834.63574,1.96191s.99121.71777,1.70215.71777c.72461,0,1.28174-.23486,1.67139-.7041s.58447-1.13721.58447-2.00293c0-.875-.19482-1.54932-.58447-2.02344s-.94678-.71094-1.67139-.71094Z" fill="#2f2f2f"/>
        <path d="M51.8667,57.1082h-1.12109v-3.99219c0-1.48584-.54248-2.22852-1.62695-2.22852-.56055,0-1.02441.21094-1.39111.63232s-.55029.95361-.55029,1.59619v3.99219h-1.12109v-7h1.12109v1.16211h.02734c.52881-.88428,1.29443-1.32617,2.29688-1.32617.76562,0,1.35107.24707,1.75684.7417s.6084,1.20898.6084,2.14307v4.2793Z" fill="#2f2f2f"/>
      </g>
      <g>
        <rect x="517.42486" y="27.72456" width="78.981" height="38.04051" fill="none"/>
        <path d="M528.09473,39.24932v-2.1875c.39648.33252.82715.58203,1.29199.74854s.93408.24951,1.4082.24951c.27783,0,.52051-.0249.72803-.0752s.38037-.11963.51953-.2085.24268-.19385.31104-.31445.10254-.25195.10254-.39307c0-.19141-.05469-.3623-.16406-.5127s-.25879-.28955-.44775-.41699-.41357-.25049-.67334-.36914-.54004-.23926-.84082-.3623c-.76562-.31885-1.33643-.7085-1.7124-1.16895s-.56396-1.01611-.56396-1.66797c0-.51025.10254-.94922.30762-1.31592s.48438-.66895.8374-.90576.76221-.41113,1.22705-.52295.95703-.16748,1.47656-.16748c.51025,0,.96289.03076,1.35693.09229s.75781.15625,1.09033.28369v2.04395c-.16406-.11377-.34277-.21436-.53662-.30078s-.39307-.1582-.59814-.21533-.40918-.09912-.61182-.12646-.39551-.04102-.57764-.04102c-.25049,0-.47852.02393-.68359.07178s-.37842.11523-.51953.20166-.25049.19043-.32812.31104-.11621.25635-.11621.40674c0,.16406.04346.31104.12988.44092s.20947.25293.36914.36914.35303.22998.58105.3418.48535.22656.77246.34521c.39209.16406.74414.33838,1.05615.52295s.58008.39307.80322.62549.39404.49805.5127.79639.17773.646.17773,1.04248c0,.54688-.10352,1.00586-.31104,1.37744s-.48877.67236-.84424.90234-.76904.39551-1.24072.49561-.96973.15039-1.49365.15039c-.5376,0-1.04932-.04541-1.53467-.13672s-.90576-.22803-1.26123-.41016Z" fill="#2f2f2f"/>
        <path d="M542.4707,36.74053h-4.56641c.07275,1.01611.71338,1.52441,1.9209,1.52441.77002,0,1.44678-.18213,2.03027-.54688v1.55859c-.64697.34619-1.48779.51953-2.52246.51953-1.13037,0-2.00732-.31348-2.63184-.93994s-.93652-1.50049-.93652-2.62158c0-1.16211.3374-2.08252,1.01172-2.76172s1.50391-1.01855,2.48828-1.01855c1.021,0,1.81055.30322,2.36865.90918s.8374,1.42871.8374,2.46777v.90918ZM540.46777,35.41436c0-1.00244-.40576-1.50391-1.2168-1.50391-.34619,0-.646.14355-.89893.43066s-.40674.64502-.46143,1.07324h2.57715Z" fill="#2f2f2f"/>
        <path d="M549.1416,39.37236c-.48779.28271-1.19189.42383-2.1123.42383-1.07568,0-1.9458-.32568-2.61133-.97754s-.99805-1.49268-.99805-2.52246c0-1.18945.35645-2.12695,1.06982-2.81299s1.66699-1.02881,2.86084-1.02881c.82471,0,1.42188.10938,1.79102.32812v1.83203c-.45117-.3374-.95459-.50586-1.51074-.50586-.61963,0-1.11084.18115-1.47314.54346s-.54346.8623-.54346,1.50049c0,.61963.17334,1.10645.51953,1.45947s.82275.52979,1.42871.52979c.5376,0,1.06396-.16846,1.5791-.50586v1.73633Z" fill="#2f2f2f"/>
        <path d="M553.87158,39.79619c-1.1665,0-2.08398-.32715-2.75146-.98096s-1.00146-1.5415-1.00146-2.6626c0-1.15771.34619-2.06348,1.03906-2.71729s1.62939-.98096,2.80957-.98096c1.16211,0,2.07373.32715,2.73438.98096s.99121,1.51855.99121,2.59424c0,1.16211-.34082,2.08057-1.02197,2.75488s-1.61426,1.01172-2.79932,1.01172ZM553.92627,34.10869c-.51025,0-.90674.17529-1.18945.52637s-.42383.84766-.42383,1.49023c0,1.34424.54248,2.0166,1.62695,2.0166,1.03467,0,1.55176-.69043,1.55176-2.07129,0-1.30811-.52197-1.96191-1.56543-1.96191Z" fill="#2f2f2f"/>
        <path d="M565.83398,39.62529h-2.15332v-3.88965c0-1.08447-.38721-1.62695-1.16211-1.62695-.37354,0-.68115.14355-.92285.43066s-.3623.65186-.3623,1.09375v3.99219h-2.16016v-7h2.16016v1.10742h.02734c.51514-.85205,1.26465-1.27832,2.24902-1.27832,1.54932,0,2.32422.96143,2.32422,2.88477v4.28613Z" fill="#2f2f2f"/>
        <path d="M574.4165,39.62529h-2.16016v-.96387h-.02734c-.49219.75635-1.21436,1.13477-2.16699,1.13477-.875,0-1.5791-.30859-2.1123-.92627s-.7998-1.47998-.7998-2.5874c0-1.15771.29395-2.08496.88184-2.78223s1.35791-1.0459,2.31055-1.0459c.90234,0,1.53125.32373,1.88672.9707h.02734v-4.16309h2.16016v10.36328ZM572.29736,36.221v-.52637c0-.45557-.13232-.83398-.39648-1.13477s-.6084-.45117-1.03223-.45117c-.47852,0-.85205.18799-1.12109.56396s-.40332.89209-.40332,1.54834c0,.61523.12988,1.08936.38965,1.42188s.61963.49902,1.08008.49902c.4375,0,.79395-.17529,1.06982-.52637s.41357-.81592.41357-1.39453Z" fill="#2f2f2f"/>
        <path d="M582.06445,39.62529h-2.04395v-1.00488h-.02734c-.46924.78369-1.16455,1.17578-2.08496,1.17578-.6792,0-1.21338-.19238-1.60303-.57764s-.58447-.89893-.58447-1.5415c0-1.35791.8042-2.14209,2.41309-2.35156l1.90039-.25293c0-.76562-.41455-1.14844-1.24414-1.14844-.83398,0-1.62695.24854-2.37891.74512v-1.62695c.30078-.15479.71191-.2915,1.23389-.41016s.99707-.17773,1.42529-.17773c1.99609,0,2.99414.99561,2.99414,2.9873v4.18359ZM580.03418,36.78154v-.47168l-1.27148.16406c-.70166.09131-1.05273.40771-1.05273.9502,0,.24609.08545.44775.25635.60498s.40234.23584.69385.23584c.40576,0,.73584-.14014.99121-.42041s.38281-.63477.38281-1.06299Z" fill="#2f2f2f"/>
        <path d="M588.32764,34.57354c-.25977-.14111-.56299-.21191-.90918-.21191-.46924,0-.83643.17188-1.10059.51611s-.39648.8125-.39648,1.40479v3.34277h-2.16016v-7h2.16016v1.29883h.02734c.3418-.94775.95703-1.42188,1.8457-1.42188.22803,0,.40576.02734.5332.08203v1.98926Z" fill="#2f2f2f"/>
        <path d="M596.44678,32.62529l-2.84375,7.56055c-.68359,1.81836-1.71338,2.72754-3.08984,2.72754-.52393,0-.95459-.05908-1.29199-.17773v-1.72266c.28711.16846.59912.25293.93652.25293.55615,0,.94336-.26221,1.16211-.78613l.36914-.86816-2.84375-6.98633h2.39258l1.30566,4.25879c.08203.26416.146.57666.19141.93652h.02734c.04102-.26416.11621-.57178.22559-.92285l1.31934-4.27246h2.13965Z" fill="#2f2f2f"/>
        <path d="M561.5415,50.55986c-.1958-.15039-.47852-.22559-.84766-.22559-.47852,0-.87842.22559-1.19971.67676s-.48193,1.06641-.48193,1.8457v3.56836h-1.12109v-7h1.12109v1.44238h.02734c.15967-.49219.40332-.87598.73145-1.15186s.69482-.41357,1.10059-.41357c.2915,0,.51514.03174.66992.0957v1.16211Z" fill="#2f2f2f"/>
        <path d="M568.38428,53.20537h-4.94238c.01807.7793.22803,1.38086.62891,1.80469s.95264.63574,1.6543.63574c.78857,0,1.51318-.25977,2.17383-.7793v1.05273c-.61523.44678-1.42871.66992-2.44043.66992-.98877,0-1.76611-.31787-2.33105-.95361s-.84766-1.53027-.84766-2.68311c0-1.08936.30859-1.97656.92627-2.6626s1.38428-1.02881,2.30029-1.02881,1.62451.29639,2.12598.88867.75195,1.41504.75195,2.46777v.58789ZM567.23584,52.25518c-.00439-.64697-.16064-1.15088-.46826-1.51074s-.73486-.54004-1.28174-.54004c-.52881,0-.97754.18896-1.34668.56738s-.59717.87256-.68359,1.4834h3.78027Z" fill="#2f2f2f"/>
        <path d="M576.08496,55.86455c0,2.57031-1.23047,3.85547-3.69141,3.85547-.86572,0-1.62256-.16406-2.26953-.49219v-1.12109c.78857.4375,1.54053.65625,2.25586.65625,1.72266,0,2.58398-.91602,2.58398-2.74805v-.76562h-.02734c-.5332.89307-1.33545,1.33984-2.40625,1.33984-.87061,0-1.57129-.31104-2.10205-.93311s-.79639-1.45703-.79639-2.50537c0-1.18945.28613-2.13525.85791-2.83691s1.35449-1.05273,2.34814-1.05273c.94336,0,1.64307.37842,2.09863,1.13477h.02734v-.9707h1.12109v6.43945ZM574.96387,53.26006v-1.03223c0-.55615-.18799-1.03223-.56396-1.42871s-.84424-.59473-1.40479-.59473c-.69287,0-1.23486.25195-1.62695.75537s-.58789,1.20898-.58789,2.11572c0,.7793.18799,1.40234.56396,1.86963s.87402.70068,1.49365.70068c.62891,0,1.14062-.22314,1.53467-.66992s.59131-1.01855.59131-1.71582Z" fill="#2f2f2f"/>
        <path d="M578.7749,47.64775c-.20068,0-.37158-.06836-.5127-.20508s-.21191-.31006-.21191-.51953.0708-.38379.21191-.52295.31201-.2085.5127-.2085c.20508,0,.37939.06934.52295.2085s.21533.31348.21533.52295c0,.20068-.07178.37158-.21533.5127s-.31787.21191-.52295.21191ZM579.32178,56.4251h-1.12109v-7h1.12109v7Z" fill="#2f2f2f"/>
        <path d="M584.41602,56.58916c-1.03467,0-1.86035-.32715-2.47803-.98096s-.92627-1.521-.92627-2.60107c0-1.17578.32129-2.09424.96387-2.75488s1.51074-.99121,2.60449-.99121c1.04346,0,1.8584.32129,2.44385.96387s.87842,1.53369.87842,2.67285c0,1.1167-.31543,2.01074-.94678,2.68311s-1.47754,1.0083-2.53955,1.0083ZM584.49805,50.20439c-.72021,0-1.28955.24512-1.70898.73486s-.62891,1.16553-.62891,2.02686c0,.82959.21191,1.4834.63574,1.96191s.99121.71777,1.70215.71777c.72461,0,1.28174-.23486,1.67139-.7041s.58447-1.13721.58447-2.00293c0-.875-.19482-1.54932-.58447-2.02344s-.94678-.71094-1.67139-.71094Z" fill="#2f2f2f"/>
        <path d="M595.42822,56.4251h-1.12109v-3.99219c0-1.48584-.54248-2.22852-1.62695-2.22852-.56055,0-1.02441.21094-1.39111.63232s-.55029.95361-.55029,1.59619v3.99219h-1.12109v-7h1.12109v1.16211h.02734c.52881-.88428,1.29443-1.32617,2.29688-1.32617.76562,0,1.35107.24707,1.75684.7417s.6084,1.20898.6084,2.14307v4.2793Z" fill="#2f2f2f"/>
      </g>
      <g>
        <rect x="38.48702" y="131.43427" width="179.2644" height="34.58661" fill="none"/>
        <path d="M63.86816,143.33525h-5.19531v-9.80273h4.97656v1.03906h-3.82812v3.26074h3.54102v1.03223h-3.54102v3.43164h4.04688v1.03906Z" fill="#2f2f2f"/>
        <path d="M70.90039,136.33525l-2.78906,7h-1.10059l-2.65234-7h1.23047l1.77734,5.08594c.13232.37354.21436.69971.24609.97754h.02734c.04541-.35107.11865-.66748.21875-.9502l1.85938-5.11328h1.18262Z" fill="#2f2f2f"/>
        <path d="M77.5415,140.11553h-4.94238c.01807.7793.22803,1.38086.62891,1.80469s.95264.63574,1.6543.63574c.78857,0,1.51318-.25977,2.17383-.7793v1.05273c-.61523.44678-1.42871.66992-2.44043.66992-.98877,0-1.76611-.31787-2.33105-.95361s-.84766-1.53027-.84766-2.68311c0-1.08936.30859-1.97656.92627-2.6626s1.38428-1.02881,2.30029-1.02881,1.62451.29639,2.12598.88867.75195,1.41504.75195,2.46777v.58789ZM76.39307,139.16533c-.00439-.64697-.16064-1.15088-.46826-1.51074s-.73486-.54004-1.28174-.54004c-.52881,0-.97754.18896-1.34668.56738s-.59717.87256-.68359,1.4834h3.78027Z" fill="#2f2f2f"/>
        <path d="M85.03516,143.33525h-1.12109v-3.99219c0-1.48584-.54248-2.22852-1.62695-2.22852-.56055,0-1.02441.21094-1.39111.63232s-.55029.95361-.55029,1.59619v3.99219h-1.12109v-7h1.12109v1.16211h.02734c.52881-.88428,1.29443-1.32617,2.29688-1.32617.76562,0,1.35107.24707,1.75684.7417s.6084,1.20898.6084,2.14307v4.2793Z" fill="#2f2f2f"/>
        <path d="M90.26416,143.26689c-.26416.146-.61279.21875-1.0459.21875-1.22607,0-1.83887-.68359-1.83887-2.05078v-4.14258h-1.20312v-.95703h1.20312v-1.70898l1.12109-.3623v2.07129h1.76367v.95703h-1.76367v3.94434c0,.46924.07959.8042.23926,1.00488s.42383.30078.79297.30078c.28271,0,.52637-.07764.73145-.23242v.95703Z" fill="#2f2f2f"/>
        <path d="M103.11572,143.33525h-1.14844v-4.4707h-5.07227v4.4707h-1.14844v-9.80273h1.14844v4.2998h5.07227v-4.2998h1.14844v9.80273Z" fill="#2f2f2f"/>
        <path d="M111.10059,143.33525h-1.12109v-1.10742h-.02734c-.46484.84766-1.18506,1.27148-2.16016,1.27148-1.66797,0-2.50195-.99365-2.50195-2.98047v-4.18359h1.11426v4.00586c0,1.47656.56494,2.21484,1.69531,2.21484.54688,0,.99707-.20166,1.3501-.60498s.52979-.93066.52979-1.58252v-4.0332h1.12109v7Z" fill="#2f2f2f"/>
        <path d="M114.35645,142.32354h-.02734v1.01172h-1.12109v-10.36328h1.12109v4.59375h.02734c.55127-.92969,1.35791-1.39453,2.41992-1.39453.89795,0,1.60059.31348,2.10889.93994s.76221,1.46631.76221,2.51904c0,1.17139-.28467,2.10889-.85449,2.81299s-1.34912,1.05615-2.33789,1.05615c-.92529,0-1.62451-.39209-2.09863-1.17578ZM114.3291,139.50029v.97754c0,.57861.18799,1.06982.56396,1.47314s.85352.60498,1.43213.60498c.6792,0,1.21094-.25977,1.59619-.7793s.57764-1.2417.57764-2.16699c0-.7793-.18018-1.39014-.54004-1.83203s-.84766-.66309-1.46289-.66309c-.65186,0-1.17578.22656-1.57227.68018s-.59473,1.02197-.59473,1.70557Z" fill="#2f2f2f"/>
        <path d="M120.92627,143.08232v-1.20312c.61084.45117,1.28271.67676,2.0166.67676.98438,0,1.47656-.32812,1.47656-.98438,0-.18701-.04199-.34521-.12646-.4751s-.19824-.24512-.3418-.34521-.31201-.19043-.50586-.27002-.40234-.16309-.62549-.24951c-.31006-.12305-.58203-.24707-.81689-.37256s-.43066-.2666-.58789-.42383-.27588-.33594-.35547-.53662-.11963-.43506-.11963-.7041c0-.32812.0752-.61865.22559-.87158s.35107-.46484.60156-.63574.53662-.2998.85791-.38623.65283-.12988.99463-.12988c.60596,0,1.14844.10498,1.62695.31445v1.13477c-.51514-.3374-1.10742-.50586-1.77734-.50586-.20947,0-.39893.02393-.56738.07178s-.31348.11523-.43408.20166-.21436.19043-.28027.31104-.09912.25391-.09912.3999c0,.18213.0332.33496.09912.45801s.16309.23242.29053.32812.28271.18213.46484.25977.38965.16162.62207.25293c.31006.11865.58789.24023.83398.36572s.45557.2666.62891.42383.30664.33838.3999.54346.14014.44873.14014.73145c0,.34619-.07617.64697-.229.90234s-.35645.46729-.61182.63574-.54932.29395-.88184.37598-.68115.12305-1.0459.12305c-.72021,0-1.34424-.13916-1.87305-.41699Z" fill="#2f2f2f"/>
        <path d="M136.93604,143.33525h-1.12109v-3.99219c0-1.48584-.54248-2.22852-1.62695-2.22852-.56055,0-1.02441.21094-1.39111.63232s-.55029.95361-.55029,1.59619v3.99219h-1.12109v-7h1.12109v1.16211h.02734c.52881-.88428,1.29443-1.32617,2.29688-1.32617.76562,0,1.35107.24707,1.75684.7417s.6084,1.20898.6084,2.14307v4.2793Z" fill="#2f2f2f"/>
        <path d="M143.9668,143.33525h-1.12109v-1.09375h-.02734c-.48779.83838-1.20557,1.25781-2.15332,1.25781-.69727,0-1.24316-.18457-1.63721-.55371s-.59131-.85889-.59131-1.46973c0-1.30811.77002-2.06885,2.31055-2.2832l2.09863-.29395c0-1.18945-.48096-1.78418-1.44238-1.78418-.84326,0-1.604.28711-2.2832.86133v-1.14844c.68799-.4375,1.48096-.65625,2.37891-.65625,1.64502,0,2.46777.87061,2.46777,2.61133v4.55273ZM142.8457,139.79424l-1.68848.23242c-.51953.07275-.91162.20166-1.17578.38623s-.39648.51172-.39648.98096c0,.3418.12207.62109.36572.8374s.56836.32471.97412.32471c.55615,0,1.01514-.19482,1.37744-.58447s.54346-.88281.54346-1.47998v-.69727Z" fill="#2f2f2f"/>
        <path d="M155.92627,143.33525h-1.12109v-4.01953c0-.7749-.11963-1.33545-.35889-1.68164s-.6416-.51953-1.20654-.51953c-.47852,0-.88525.21875-1.22021.65625s-.50244.96143-.50244,1.57227v3.99219h-1.12109v-4.15625c0-1.37646-.53076-2.06445-1.59277-2.06445-.49219,0-.89795.20605-1.2168.61865s-.47852.94922-.47852,1.60986v3.99219h-1.12109v-7h1.12109v1.10742h.02734c.49658-.84766,1.22119-1.27148,2.17383-1.27148.47852,0,.89551.1333,1.25098.3999s.59912.61621.73145,1.04932c.51953-.96631,1.29443-1.44922,2.32422-1.44922,1.54053,0,2.31055.9502,2.31055,2.85059v4.31348Z" fill="#2f2f2f"/>
        <path d="M163.6333,140.11553h-4.94238c.01807.7793.22803,1.38086.62891,1.80469s.95264.63574,1.6543.63574c.78857,0,1.51318-.25977,2.17383-.7793v1.05273c-.61523.44678-1.42871.66992-2.44043.66992-.98877,0-1.76611-.31787-2.33105-.95361s-.84766-1.53027-.84766-2.68311c0-1.08936.30859-1.97656.92627-2.6626s1.38428-1.02881,2.30029-1.02881,1.62451.29639,2.12598.88867.75195,1.41504.75195,2.46777v.58789ZM162.48486,139.16533c-.00439-.64697-.16064-1.15088-.46826-1.51074s-.73486-.54004-1.28174-.54004c-.52881,0-.97754.18896-1.34668.56738s-.59717.87256-.68359,1.4834h3.78027Z" fill="#2f2f2f"/>
        <path d="M164.87549,143.08232v-1.20312c.61084.45117,1.28271.67676,2.0166.67676.98438,0,1.47656-.32812,1.47656-.98438,0-.18701-.04199-.34521-.12646-.4751s-.19824-.24512-.3418-.34521-.31201-.19043-.50586-.27002-.40234-.16309-.62549-.24951c-.31006-.12305-.58203-.24707-.81689-.37256s-.43066-.2666-.58789-.42383-.27588-.33594-.35547-.53662-.11963-.43506-.11963-.7041c0-.32812.0752-.61865.22559-.87158s.35107-.46484.60156-.63574.53662-.2998.85791-.38623.65283-.12988.99463-.12988c.60596,0,1.14844.10498,1.62695.31445v1.13477c-.51514-.3374-1.10742-.50586-1.77734-.50586-.20947,0-.39893.02393-.56738.07178s-.31348.11523-.43408.20166-.21436.19043-.28027.31104-.09912.25391-.09912.3999c0,.18213.0332.33496.09912.45801s.16309.23242.29053.32812.28271.18213.46484.25977.38965.16162.62207.25293c.31006.11865.58789.24023.83398.36572s.45557.2666.62891.42383.30664.33838.3999.54346.14014.44873.14014.73145c0,.34619-.07617.64697-.229.90234s-.35645.46729-.61182.63574-.54932.29395-.88184.37598-.68115.12305-1.0459.12305c-.72021,0-1.34424-.13916-1.87305-.41699Z" fill="#2f2f2f"/>
        <path d="M172.24951,142.32354h-.02734v4.23145h-1.12109v-10.21973h1.12109v1.23047h.02734c.55127-.92969,1.35791-1.39453,2.41992-1.39453.90234,0,1.60645.31348,2.1123.93994s.75879,1.46631.75879,2.51904c0,1.17139-.28467,2.10889-.85449,2.81299s-1.34912,1.05615-2.33789,1.05615c-.90674,0-1.60645-.39209-2.09863-1.17578ZM172.22217,139.50029v.97754c0,.57861.18799,1.06982.56396,1.47314s.85352.60498,1.43213.60498c.6792,0,1.21094-.25977,1.59619-.7793s.57764-1.2417.57764-2.16699c0-.7793-.18018-1.39014-.54004-1.83203s-.84766-.66309-1.46289-.66309c-.65186,0-1.17578.22656-1.57227.68018s-.59473,1.02197-.59473,1.70557Z" fill="#2f2f2f"/>
        <path d="M184.27637,143.33525h-1.12109v-1.09375h-.02734c-.48779.83838-1.20557,1.25781-2.15332,1.25781-.69727,0-1.24316-.18457-1.63721-.55371s-.59131-.85889-.59131-1.46973c0-1.30811.77002-2.06885,2.31055-2.2832l2.09863-.29395c0-1.18945-.48096-1.78418-1.44238-1.78418-.84326,0-1.604.28711-2.2832.86133v-1.14844c.68799-.4375,1.48096-.65625,2.37891-.65625,1.64502,0,2.46777.87061,2.46777,2.61133v4.55273ZM183.15527,139.79424l-1.68848.23242c-.51953.07275-.91162.20166-1.17578.38623s-.39648.51172-.39648.98096c0,.3418.12207.62109.36572.8374s.56836.32471.97412.32471c.55615,0,1.01514-.19482,1.37744-.58447s.54346-.88281.54346-1.47998v-.69727Z" fill="#2f2f2f"/>
        <path d="M191.11963,143.01396c-.5376.32373-1.17578.48535-1.91406.48535-.99805,0-1.80371-.32471-2.4165-.97412s-.91943-1.49121-.91943-2.52588c0-1.15283.33057-2.0791.99121-2.77881s1.54248-1.04932,2.64551-1.04932c.61523,0,1.15771.11377,1.62695.3418v1.14844c-.51953-.36475-1.07568-.54688-1.66797-.54688-.71533,0-1.30225.25635-1.76025.76904s-.68701,1.18604-.68701,2.02002c0,.82031.21533,1.46729.646,1.94141s1.0083.71094,1.73291.71094c.61084,0,1.18506-.20264,1.72266-.6084v1.06641Z" fill="#2f2f2f"/>
        <path d="M198.29004,140.11553h-4.94238c.01807.7793.22803,1.38086.62891,1.80469s.95264.63574,1.6543.63574c.78857,0,1.51318-.25977,2.17383-.7793v1.05273c-.61523.44678-1.42871.66992-2.44043.66992-.98877,0-1.76611-.31787-2.33105-.95361s-.84766-1.53027-.84766-2.68311c0-1.08936.30859-1.97656.92627-2.6626s1.38428-1.02881,2.30029-1.02881,1.62451.29639,2.12598.88867.75195,1.41504.75195,2.46777v.58789ZM197.1416,139.16533c-.00439-.64697-.16064-1.15088-.46826-1.51074s-.73486-.54004-1.28174-.54004c-.52881,0-.97754.18896-1.34668.56738s-.59717.87256-.68359,1.4834h3.78027Z" fill="#2f2f2f"/>
        <path d="M109.11914,162.36357h-1.76367c-1.47217-1.62256-2.20801-3.61621-2.20801-5.98145,0-2.2832.73584-4.2998,2.20801-6.0498h1.75c-1.38086,1.83203-2.07129,3.84863-2.07129,6.0498s.69482,4.19482,2.08496,5.98145Z" fill="#2f2f2f"/>
        <path d="M115.45361,160.13506h-2.04395v-1.00488h-.02734c-.46924.78369-1.16455,1.17578-2.08496,1.17578-.6792,0-1.21338-.19238-1.60303-.57764s-.58447-.89893-.58447-1.5415c0-1.35791.8042-2.14209,2.41309-2.35156l1.90039-.25293c0-.76562-.41455-1.14844-1.24414-1.14844-.83398,0-1.62695.24854-2.37891.74512v-1.62695c.30078-.15479.71191-.2915,1.23389-.41016s.99707-.17773,1.42529-.17773c1.99609,0,2.99414.99561,2.99414,2.9873v4.18359ZM113.42334,157.29131v-.47168l-1.27148.16406c-.70166.09131-1.05273.40771-1.05273.9502,0,.24609.08545.44775.25635.60498s.40234.23584.69385.23584c.40576,0,.73584-.14014.99121-.42041s.38281-.63477.38281-1.06299Z" fill="#2f2f2f"/>
        <path d="M122.46729,159.88213c-.48779.28271-1.19189.42383-2.1123.42383-1.07568,0-1.9458-.32568-2.61133-.97754s-.99805-1.49268-.99805-2.52246c0-1.18945.35645-2.12695,1.06982-2.81299s1.66699-1.02881,2.86084-1.02881c.82471,0,1.42188.10938,1.79102.32812v1.83203c-.45117-.3374-.95459-.50586-1.51074-.50586-.61963,0-1.11084.18115-1.47314.54346s-.54346.8623-.54346,1.50049c0,.61963.17334,1.10645.51953,1.45947s.82275.52979,1.42871.52979c.5376,0,1.06396-.16846,1.5791-.50586v1.73633Z" fill="#2f2f2f"/>
        <path d="M128.19922,160.05303c-.31885.16846-.7998.25293-1.44238.25293-1.52197,0-2.2832-.79053-2.2832-2.37207v-3.20605h-1.13477v-1.59277h1.13477v-1.51074l2.15332-.61523v2.12598h1.57227v1.59277h-1.57227v2.83008c0,.729.28955,1.09375.86816,1.09375.22803,0,.4624-.06592.7041-.19824v1.59961Z" fill="#2f2f2f"/>
        <path d="M130.57666,152.02764c-.36475,0-.66309-.1084-.89551-.32471s-.34863-.48193-.34863-.79639c0-.32373.11621-.58789.34863-.79297s.53076-.30762.89551-.30762c.36914,0,.66895.10254.89893.30762s.34521.46924.34521.79297c0,.32812-.11523.59717-.34521.80664s-.52979.31445-.89893.31445ZM131.64307,160.13506h-2.16016v-7h2.16016v7Z" fill="#2f2f2f"/>
        <path d="M140.14746,153.13506l-2.60449,7h-2.46094l-2.48145-7h2.31055l1.2168,4.31348c.13672.48779.21631.90234.23926,1.24414h.02734c.03174-.32373.11621-.72461.25293-1.20312l1.24414-4.35449h2.25586Z" fill="#2f2f2f"/>
        <path d="M147.13574,157.25029h-4.56641c.07275,1.01611.71338,1.52441,1.9209,1.52441.77002,0,1.44678-.18213,2.03027-.54688v1.55859c-.64697.34619-1.48779.51953-2.52246.51953-1.13037,0-2.00732-.31348-2.63184-.93994s-.93652-1.50049-.93652-2.62158c0-1.16211.3374-2.08252,1.01172-2.76172s1.50391-1.01855,2.48828-1.01855c1.021,0,1.81055.30322,2.36865.90918s.8374,1.42871.8374,2.46777v.90918ZM145.13281,155.92412c0-1.00244-.40576-1.50391-1.2168-1.50391-.34619,0-.646.14355-.89893.43066s-.40674.64502-.46143,1.07324h2.57715Z" fill="#2f2f2f"/>
        <path d="M148.87646,162.36357h-1.75c1.39453-1.77734,2.0918-3.771,2.0918-5.98145,0-2.19189-.69727-4.2085-2.0918-6.0498h1.76367c1.47656,1.75439,2.21484,3.771,2.21484,6.0498,0,2.34717-.74268,4.34082-2.22852,5.98145Z" fill="#2f2f2f"/>
      </g>
      <g>
        <path d="M94.32715,229.97148h-3.82812v3.39062h3.54102v1.03223h-3.54102v4.34082h-1.14844v-9.80273h4.97656v1.03906Z" fill="#2f2f2f"/>
        <path d="M101.40234,238.73516h-1.12109v-1.10742h-.02734c-.46484.84766-1.18506,1.27148-2.16016,1.27148-1.66797,0-2.50195-.99414-2.50195-2.98047v-4.18359h1.11426v4.00586c0,1.47656.56494,2.21484,1.69531,2.21484.54688,0,.99707-.20215,1.3501-.60547s.52979-.93066.52979-1.58203v-4.0332h1.12109v7Z" fill="#2f2f2f"/>
        <path d="M109.32031,238.73516h-1.12109v-3.99219c0-1.48633-.54248-2.22852-1.62695-2.22852-.56055,0-1.02441.21094-1.39111.63184-.3667.42188-.55029.9541-.55029,1.59668v3.99219h-1.12109v-7h1.12109v1.16211h.02734c.52881-.88477,1.29443-1.32617,2.29688-1.32617.76562,0,1.35107.24707,1.75684.74121.40576.49512.6084,1.20898.6084,2.14355v4.2793Z" fill="#2f2f2f"/>
        <path d="M116.16895,238.41387c-.5376.32324-1.17578.48535-1.91406.48535-.99805,0-1.80371-.3252-2.4165-.97461s-.91943-1.49121-.91943-2.52539c0-1.15332.33057-2.0791.99121-2.7793.66064-.69922,1.54248-1.04883,2.64551-1.04883.61523,0,1.15771.11328,1.62695.3418v1.14844c-.51953-.36523-1.07568-.54688-1.66797-.54688-.71533,0-1.30225.25586-1.76025.76855s-.68701,1.18652-.68701,2.02051c0,.82031.21533,1.4668.646,1.94141.43066.47363,1.0083.71094,1.73291.71094.61084,0,1.18506-.20312,1.72266-.6084v1.06641Z" fill="#2f2f2f"/>
        <path d="M121.33252,238.6668c-.26416.14551-.61279.21875-1.0459.21875-1.22607,0-1.83887-.68359-1.83887-2.05078v-4.14258h-1.20312v-.95703h1.20312v-1.70898l1.12109-.3623v2.07129h1.76367v.95703h-1.76367v3.94434c0,.46875.07959.80371.23926,1.00488.15967.2002.42383.30078.79297.30078.28271,0,.52637-.07812.73145-.23242v.95703Z" fill="#2f2f2f"/>
        <path d="M123.2876,229.95781c-.20068,0-.37158-.06836-.5127-.20508s-.21191-.31055-.21191-.51953c0-.20996.0708-.38379.21191-.52344.14111-.13867.31201-.20801.5127-.20801.20508,0,.37939.06934.52295.20801.14355.13965.21533.31348.21533.52344,0,.2002-.07178.37109-.21533.5127-.14355.14062-.31787.21191-.52295.21191ZM123.83447,238.73516h-1.12109v-7h1.12109v7Z" fill="#2f2f2f"/>
        <path d="M128.9292,238.89922c-1.03467,0-1.86035-.32715-2.47803-.98145-.61768-.65332-.92627-1.52051-.92627-2.60059,0-1.17578.32129-2.09473.96387-2.75488.64258-.66113,1.51074-.99121,2.60449-.99121,1.04346,0,1.8584.32129,2.44385.96387s.87842,1.5332.87842,2.67285c0,1.11621-.31543,2.01074-.94678,2.68262-.63135.67285-1.47754,1.00879-2.53955,1.00879ZM129.01123,232.51445c-.72021,0-1.28955.24512-1.70898.73438-.41943.49023-.62891,1.16602-.62891,2.02734,0,.8291.21191,1.4834.63574,1.96191s.99121.71777,1.70215.71777c.72461,0,1.28174-.23535,1.67139-.7041.38965-.46973.58447-1.1377.58447-2.00293,0-.875-.19482-1.5498-.58447-2.02344-.38965-.47461-.94678-.71094-1.67139-.71094Z" fill="#2f2f2f"/>
        <path d="M139.94141,238.73516h-1.12109v-3.99219c0-1.48633-.54248-2.22852-1.62695-2.22852-.56055,0-1.02441.21094-1.39111.63184-.3667.42188-.55029.9541-.55029,1.59668v3.99219h-1.12109v-7h1.12109v1.16211h.02734c.52881-.88477,1.29443-1.32617,2.29688-1.32617.76562,0,1.35107.24707,1.75684.74121.40576.49512.6084,1.20898.6084,2.14355v4.2793Z" fill="#2f2f2f"/>
        <path d="M150.89941,238.73516h-1.12109v-1.09375h-.02734c-.48779.83789-1.20557,1.25781-2.15332,1.25781-.69727,0-1.24316-.18457-1.63721-.55371s-.59131-.85938-.59131-1.46973c0-1.30859.77002-2.06934,2.31055-2.2832l2.09863-.29395c0-1.18945-.48096-1.78418-1.44238-1.78418-.84326,0-1.604.28711-2.2832.86133v-1.14844c.68799-.4375,1.48096-.65625,2.37891-.65625,1.64502,0,2.46777.87012,2.46777,2.61133v4.55273ZM149.77832,235.19414l-1.68848.23242c-.51953.07227-.91162.20117-1.17578.38574s-.39648.51172-.39648.98145c0,.3418.12207.62109.36572.83691.24365.2168.56836.3252.97412.3252.55615,0,1.01514-.19531,1.37744-.58496s.54346-.88281.54346-1.47949v-.69727Z" fill="#2f2f2f"/>
        <path d="M154.06885,237.72344h-.02734v4.23145h-1.12109v-10.21973h1.12109v1.23047h.02734c.55127-.92969,1.35791-1.39453,2.41992-1.39453.90234,0,1.60645.31348,2.1123.93945.50586.62695.75879,1.4668.75879,2.51953,0,1.1709-.28467,2.1084-.85449,2.8125s-1.34912,1.05664-2.33789,1.05664c-.90674,0-1.60645-.39258-2.09863-1.17578ZM154.0415,234.9002v.97754c0,.57812.18799,1.06934.56396,1.47266s.85352.60547,1.43213.60547c.6792,0,1.21094-.25977,1.59619-.7793s.57764-1.24219.57764-2.16699c0-.7793-.18018-1.39062-.54004-1.83203-.35986-.44238-.84766-.66309-1.46289-.66309-.65186,0-1.17578.22656-1.57227.67969-.39648.4541-.59473,1.02246-.59473,1.70605Z" fill="#2f2f2f"/>
        <path d="M162.2251,237.72344h-.02734v4.23145h-1.12109v-10.21973h1.12109v1.23047h.02734c.55127-.92969,1.35791-1.39453,2.41992-1.39453.90234,0,1.60645.31348,2.1123.93945.50586.62695.75879,1.4668.75879,2.51953,0,1.1709-.28467,2.1084-.85449,2.8125s-1.34912,1.05664-2.33789,1.05664c-.90674,0-1.60645-.39258-2.09863-1.17578ZM162.19775,234.9002v.97754c0,.57812.18799,1.06934.56396,1.47266s.85352.60547,1.43213.60547c.6792,0,1.21094-.25977,1.59619-.7793s.57764-1.24219.57764-2.16699c0-.7793-.18018-1.39062-.54004-1.83203-.35986-.44238-.84766-.66309-1.46289-.66309-.65186,0-1.17578.22656-1.57227.67969-.39648.4541-.59473,1.02246-.59473,1.70605Z" fill="#2f2f2f"/>
      </g>
      <g>
        <path d="M100.88672,314.1248v-9.80273h2.70703c3.45459,0,5.18164,1.59277,5.18164,4.77832,0,1.5127-.47949,2.72852-1.43896,3.64648-.95947.91895-2.24316,1.37793-3.85205,1.37793h-2.59766ZM102.03516,305.36113v7.72461h1.46289c1.28516,0,2.28564-.34473,3.00098-1.03223.71533-.68848,1.07324-1.66406,1.07324-2.92578,0-2.51172-1.33545-3.7666-4.00586-3.7666h-1.53125Z" fill="#2f2f2f"/>
        <path d="M115.40674,314.1248h-1.12109v-1.09375h-.02734c-.48779.83789-1.20557,1.25781-2.15332,1.25781-.69727,0-1.24316-.18457-1.63721-.55371s-.59131-.85938-.59131-1.46973c0-1.30859.77002-2.06934,2.31055-2.2832l2.09863-.29395c0-1.18945-.48096-1.78418-1.44238-1.78418-.84326,0-1.604.28711-2.2832.86133v-1.14844c.68799-.4375,1.48096-.65625,2.37891-.65625,1.64502,0,2.46777.87012,2.46777,2.61133v4.55273ZM114.28564,310.58379l-1.68848.23242c-.51953.07227-.91162.20117-1.17578.38574s-.39648.51172-.39648.98145c0,.3418.12207.62109.36572.83691.24365.2168.56836.3252.97412.3252.55615,0,1.01514-.19531,1.37744-.58496s.54346-.88281.54346-1.47949v-.69727Z" fill="#2f2f2f"/>
        <path d="M120.66504,314.05645c-.26416.14551-.61279.21875-1.0459.21875-1.22607,0-1.83887-.68359-1.83887-2.05078v-4.14258h-1.20312v-.95703h1.20312v-1.70898l1.12109-.3623v2.07129h1.76367v.95703h-1.76367v3.94434c0,.46875.07959.80371.23926,1.00488.15967.2002.42383.30078.79297.30078.28271,0,.52637-.07812.73145-.23242v.95703Z" fill="#2f2f2f"/>
        <path d="M127.28223,314.1248h-1.12109v-1.09375h-.02734c-.48779.83789-1.20557,1.25781-2.15332,1.25781-.69727,0-1.24316-.18457-1.63721-.55371s-.59131-.85938-.59131-1.46973c0-1.30859.77002-2.06934,2.31055-2.2832l2.09863-.29395c0-1.18945-.48096-1.78418-1.44238-1.78418-.84326,0-1.604.28711-2.2832.86133v-1.14844c.68799-.4375,1.48096-.65625,2.37891-.65625,1.64502,0,2.46777.87012,2.46777,2.61133v4.55273ZM126.16113,310.58379l-1.68848.23242c-.51953.07227-.91162.20117-1.17578.38574s-.39648.51172-.39648.98145c0,.3418.12207.62109.36572.83691.24365.2168.56836.3252.97412.3252.55615,0,1.01514-.19531,1.37744-.58496s.54346-.88281.54346-1.47949v-.69727Z" fill="#2f2f2f"/>
        <path d="M130.45215,313.11309h-.02734v1.01172h-1.12109v-10.36328h1.12109v4.59375h.02734c.55127-.92969,1.35791-1.39453,2.41992-1.39453.89795,0,1.60059.31348,2.10889.93945.5083.62695.76221,1.4668.76221,2.51953,0,1.1709-.28467,2.1084-.85449,2.8125s-1.34912,1.05664-2.33789,1.05664c-.92529,0-1.62451-.39258-2.09863-1.17578ZM130.4248,310.28984v.97754c0,.57812.18799,1.06934.56396,1.47266s.85352.60547,1.43213.60547c.6792,0,1.21094-.25977,1.59619-.7793s.57764-1.24219.57764-2.16699c0-.7793-.18018-1.39062-.54004-1.83203-.35986-.44238-.84766-.66309-1.46289-.66309-.65186,0-1.17578.22656-1.57227.67969-.39648.4541-.59473,1.02246-.59473,1.70605Z" fill="#2f2f2f"/>
        <path d="M142.479,314.1248h-1.12109v-1.09375h-.02734c-.48779.83789-1.20557,1.25781-2.15332,1.25781-.69727,0-1.24316-.18457-1.63721-.55371s-.59131-.85938-.59131-1.46973c0-1.30859.77002-2.06934,2.31055-2.2832l2.09863-.29395c0-1.18945-.48096-1.78418-1.44238-1.78418-.84326,0-1.604.28711-2.2832.86133v-1.14844c.68799-.4375,1.48096-.65625,2.37891-.65625,1.64502,0,2.46777.87012,2.46777,2.61133v4.55273ZM141.35791,310.58379l-1.68848.23242c-.51953.07227-.91162.20117-1.17578.38574s-.39648.51172-.39648.98145c0,.3418.12207.62109.36572.83691.24365.2168.56836.3252.97412.3252.55615,0,1.01514-.19531,1.37744-.58496s.54346-.88281.54346-1.47949v-.69727Z" fill="#2f2f2f"/>
        <path d="M144.12109,313.87187v-1.20312c.61084.45117,1.28271.67676,2.0166.67676.98438,0,1.47656-.32812,1.47656-.98438,0-.1875-.04199-.3457-.12646-.47559s-.19824-.24512-.3418-.34473c-.14355-.10059-.31201-.19043-.50586-.27051-.19385-.0791-.40234-.16309-.62549-.24902-.31006-.12305-.58203-.24707-.81689-.37305-.23486-.125-.43066-.2666-.58789-.42383s-.27588-.33594-.35547-.53613c-.07959-.20117-.11963-.43555-.11963-.7041,0-.32812.0752-.61914.22559-.87207s.35107-.46484.60156-.63574.53662-.2998.85791-.38574c.32129-.08691.65283-.12988.99463-.12988.60596,0,1.14844.10449,1.62695.31445v1.13477c-.51514-.33789-1.10742-.50586-1.77734-.50586-.20947,0-.39893.02344-.56738.07129s-.31348.11523-.43408.20215c-.12061.08594-.21436.19043-.28027.31055-.06592.12109-.09912.25391-.09912.40039,0,.18164.0332.33496.09912.45801s.16309.23242.29053.32812.28271.18164.46484.25977c.18213.07715.38965.16113.62207.25293.31006.11816.58789.24023.83398.36523.24609.12598.45557.2666.62891.42383s.30664.33887.3999.54395.14014.44824.14014.73145c0,.3457-.07617.64648-.229.90234-.15283.25488-.35645.4668-.61182.63574-.25537.16797-.54932.29395-.88184.37598s-.68115.12305-1.0459.12305c-.72021,0-1.34424-.13965-1.87305-.41699Z" fill="#2f2f2f"/>
        <path d="M156.07666,310.90508h-4.94238c.01807.7793.22803,1.38086.62891,1.80469s.95264.63574,1.6543.63574c.78857,0,1.51318-.25977,2.17383-.7793v1.05273c-.61523.44629-1.42871.66992-2.44043.66992-.98877,0-1.76611-.31836-2.33105-.9541s-.84766-1.53027-.84766-2.68262c0-1.08984.30859-1.97656.92627-2.66309.61768-.68555,1.38428-1.02832,2.30029-1.02832s1.62451.2959,2.12598.88867c.50146.5918.75195,1.41504.75195,2.46777v.58789ZM154.92822,309.95488c-.00439-.64746-.16064-1.15137-.46826-1.51074-.30762-.36035-.73486-.54004-1.28174-.54004-.52881,0-.97754.18848-1.34668.56738-.36914.37793-.59717.87207-.68359,1.4834h3.78027Z" fill="#2f2f2f"/>
      </g>
      <g>
        <rect x="241.27869" y="126.52438" width="124.18229" height="55.6" fill="none"/>
        <path d="M275.4668,136.8875h-5.19531v-9.80273h4.97656v1.03906h-3.82812v3.26074h3.54102v1.03223h-3.54102v3.43164h4.04688v1.03906Z" fill="#2f2f2f"/>
        <path d="M282.49902,129.8875l-2.78906,7h-1.10059l-2.65234-7h1.23047l1.77734,5.08594c.13184.37354.21387.69971.24609.97754h.02734c.0459-.35107.11816-.66748.21875-.9502l1.85938-5.11328h1.18262Z" fill="#2f2f2f"/>
        <path d="M289.14062,133.66777h-4.94238c.01855.7793.22754,1.38086.62891,1.80469s.95215.63574,1.6543.63574c.78809,0,1.5127-.25977,2.17383-.7793v1.05273c-.61523.44678-1.42871.66992-2.44043.66992-.98926,0-1.76562-.31787-2.33105-.95361s-.84766-1.53027-.84766-2.68311c0-1.08936.30859-1.97656.92578-2.6626.61816-.68604,1.38477-1.02881,2.30078-1.02881s1.625.29639,2.12598.88867.75195,1.41504.75195,2.46777v.58789ZM287.99219,132.71758c-.00488-.64697-.16113-1.15088-.46777-1.51074-.30859-.35986-.73535-.54004-1.28223-.54004-.52832,0-.97754.18896-1.34668.56738s-.59668.87256-.68359,1.4834h3.78027Z" fill="#2f2f2f"/>
        <path d="M296.63379,136.8875h-1.12109v-3.99219c0-1.48584-.54199-2.22852-1.62695-2.22852-.56055,0-1.02441.21094-1.39062.63232-.36719.42139-.55078.95361-.55078,1.59619v3.99219h-1.12109v-7h1.12109v1.16211h.02734c.52832-.88428,1.29395-1.32617,2.29688-1.32617.76562,0,1.35156.24707,1.75684.7417s.6084,1.20898.6084,2.14307v4.2793Z" fill="#2f2f2f"/>
        <path d="M301.8623,136.81914c-.26465.146-.61328.21875-1.0459.21875-1.22559,0-1.83887-.68359-1.83887-2.05078v-4.14258h-1.20312v-.95703h1.20312v-1.70898l1.12109-.3623v2.07129h1.76367v.95703h-1.76367v3.94434c0,.46924.08008.8042.23926,1.00488s.42383.30078.79297.30078c.28223,0,.52637-.07764.73145-.23242v.95703Z" fill="#2f2f2f"/>
        <path d="M314.71387,136.8875h-1.14844v-4.4707h-5.07227v4.4707h-1.14844v-9.80273h1.14844v4.2998h5.07227v-4.2998h1.14844v9.80273Z" fill="#2f2f2f"/>
        <path d="M322.69922,136.8875h-1.12109v-1.10742h-.02734c-.46484.84766-1.18457,1.27148-2.16016,1.27148-1.66797,0-2.50195-.99365-2.50195-2.98047v-4.18359h1.11426v4.00586c0,1.47656.56543,2.21484,1.69531,2.21484.54688,0,.99707-.20166,1.35059-.60498.35254-.40332.5293-.93066.5293-1.58252v-4.0332h1.12109v7Z" fill="#2f2f2f"/>
        <path d="M325.95508,135.87578h-.02734v1.01172h-1.12109v-10.36328h1.12109v4.59375h.02734c.55176-.92969,1.3584-1.39453,2.41992-1.39453.89746,0,1.60059.31348,2.10938.93994.50781.62646.76172,1.46631.76172,2.51904,0,1.17139-.28516,2.10889-.85449,2.81299s-1.34863,1.05615-2.33789,1.05615c-.9248,0-1.625-.39209-2.09863-1.17578ZM325.92773,133.05254v.97754c0,.57861.1875,1.06982.56445,1.47314.375.40332.85254.60498,1.43164.60498.67871,0,1.21094-.25977,1.5957-.7793.38574-.51953.57812-1.2417.57812-2.16699,0-.7793-.17969-1.39014-.54004-1.83203s-.84766-.66309-1.46289-.66309c-.65137,0-1.17578.22656-1.57227.68018s-.59473,1.02197-.59473,1.70557Z" fill="#2f2f2f"/>
        <path d="M332.52539,136.63457v-1.20312c.61035.45117,1.2832.67676,2.0166.67676.98438,0,1.47656-.32812,1.47656-.98438,0-.18701-.04199-.34521-.12598-.4751-.08496-.12988-.19922-.24512-.3418-.34521-.14453-.1001-.3125-.19043-.50586-.27002-.19434-.07959-.40234-.16309-.62598-.24951-.30957-.12305-.58203-.24707-.81738-.37256-.23438-.12549-.42969-.2666-.58789-.42383-.15625-.15723-.27539-.33594-.35547-.53662-.0791-.20068-.11914-.43506-.11914-.7041,0-.32812.0752-.61865.22559-.87158s.35059-.46484.60156-.63574.53613-.2998.8584-.38623c.32031-.08643.65234-.12988.99414-.12988.60645,0,1.14844.10498,1.62695.31445v1.13477c-.51465-.3374-1.10742-.50586-1.77734-.50586-.20996,0-.39844.02393-.56738.07178s-.31348.11523-.43457.20166c-.12012.08643-.21387.19043-.2793.31104-.06641.12061-.09961.25391-.09961.3999,0,.18213.0332.33496.09961.45801.06543.12305.16211.23242.29004.32812s.28223.18213.46484.25977.38965.16162.62207.25293c.30957.11865.58789.24023.83398.36572s.45605.2666.62891.42383.30664.33838.40039.54346c.09277.20508.13965.44873.13965.73145,0,.34619-.07617.64697-.22949.90234-.15234.25537-.35645.46729-.61133.63574s-.54883.29395-.88184.37598-.68164.12305-1.0459.12305c-.71973,0-1.34473-.13916-1.87305-.41699Z" fill="#2f2f2f"/>
        <path d="M269.74512,153.12676c0,2.57031-1.23047,3.85547-3.69141,3.85547-.86621,0-1.62207-.16406-2.26953-.49219v-1.12109c.78809.4375,1.54004.65625,2.25586.65625,1.72266,0,2.58398-.91602,2.58398-2.74805v-.76562h-.02734c-.5332.89307-1.33496,1.33984-2.40625,1.33984-.87012,0-1.57129-.31104-2.10156-.93311-.53125-.62207-.79688-1.45703-.79688-2.50537,0-1.18945.28613-2.13525.85742-2.83691.57227-.70166,1.35547-1.05273,2.34863-1.05273.94336,0,1.64258.37842,2.09863,1.13477h.02734v-.9707h1.12109v6.43945ZM268.62402,150.52227v-1.03223c0-.55615-.1875-1.03223-.56445-1.42871-.375-.39648-.84375-.59473-1.4043-.59473-.69238,0-1.23535.25195-1.62695.75537s-.58789,1.20898-.58789,2.11572c0,.7793.1875,1.40234.56445,1.86963.375.46729.87305.70068,1.49316.70068.62891,0,1.14062-.22314,1.53418-.66992.39453-.44678.5918-1.01855.5918-1.71582Z" fill="#2f2f2f"/>
        <path d="M277.56641,150.46758h-4.94238c.01855.7793.22754,1.38086.62891,1.80469s.95215.63574,1.6543.63574c.78809,0,1.5127-.25977,2.17383-.7793v1.05273c-.61523.44678-1.42871.66992-2.44043.66992-.98926,0-1.76562-.31787-2.33105-.95361s-.84766-1.53027-.84766-2.68311c0-1.08936.30859-1.97656.92578-2.6626.61816-.68604,1.38477-1.02881,2.30078-1.02881s1.625.29639,2.12598.88867.75195,1.41504.75195,2.46777v.58789ZM276.41797,149.51738c-.00488-.64697-.16113-1.15088-.46777-1.51074-.30859-.35986-.73535-.54004-1.28223-.54004-.52832,0-.97754.18896-1.34668.56738s-.59668.87256-.68359,1.4834h3.78027Z" fill="#2f2f2f"/>
        <path d="M282.21875,153.85137c-1.03418,0-1.86035-.32715-2.47852-.98096-.61719-.65381-.92578-1.521-.92578-2.60107,0-1.17578.32129-2.09424.96387-2.75488s1.51074-.99121,2.60449-.99121c1.04395,0,1.8584.32129,2.44336.96387.58594.64258.87891,1.53369.87891,2.67285,0,1.1167-.31543,2.01074-.94727,2.68311-.63086.67236-1.47754,1.0083-2.53906,1.0083ZM282.30078,147.4666c-.71973,0-1.29004.24512-1.70898.73486s-.62891,1.16553-.62891,2.02686c0,.82959.21191,1.4834.63574,1.96191s.99121.71777,1.70215.71777c.72461,0,1.28125-.23486,1.67188-.7041.38867-.46924.58398-1.13721.58398-2.00293,0-.875-.19531-1.54932-.58398-2.02344-.39062-.47412-.94727-.71094-1.67188-.71094Z" fill="#2f2f2f"/>
        <path d="M291.1084,150.22832h-3.73242v-.88184h3.73242v.88184Z" fill="#2f2f2f"/>
        <path d="M299.17676,153.6873h-1.12109v-1.18945h-.02734c-.51953.90234-1.32129,1.35352-2.40625,1.35352-.87988,0-1.58203-.31348-2.10938-.93994-.52539-.62646-.78906-1.47998-.78906-2.56006,0-1.15771.29199-2.08496.875-2.78223s1.36035-1.0459,2.33105-1.0459c.96191,0,1.66113.37842,2.09863,1.13477h.02734v-4.33398h1.12109v10.36328ZM298.05566,150.52227v-1.03223c0-.56494-.18652-1.04346-.56055-1.43555s-.84766-.58789-1.42188-.58789c-.68359,0-1.22168.25049-1.61328.75195s-.58789,1.19385-.58789,2.07812c0,.80664.1875,1.44336.56445,1.91064.375.46729.87988.70068,1.51367.70068.62402,0,1.13086-.22559,1.52148-.67676.38867-.45117.58398-1.021.58398-1.70898Z" fill="#2f2f2f"/>
        <path d="M301.86621,144.90996c-.2002,0-.37109-.06836-.5127-.20508s-.21191-.31006-.21191-.51953.07031-.38379.21191-.52295.3125-.2085.5127-.2085c.20508,0,.37891.06934.52344.2085.14258.13916.21484.31348.21484.52295,0,.20068-.07227.37158-.21484.5127-.14453.14111-.31836.21191-.52344.21191ZM302.41309,153.6873h-1.12109v-7h1.12109v7Z" fill="#2f2f2f"/>
        <path d="M304.12988,153.43437v-1.20312c.61035.45117,1.2832.67676,2.0166.67676.98438,0,1.47656-.32812,1.47656-.98438,0-.18701-.04199-.34521-.12598-.4751-.08496-.12988-.19922-.24512-.3418-.34521-.14453-.1001-.3125-.19043-.50586-.27002-.19434-.07959-.40234-.16309-.62598-.24951-.30957-.12305-.58203-.24707-.81738-.37256-.23438-.12549-.42969-.2666-.58789-.42383-.15625-.15723-.27539-.33594-.35547-.53662-.0791-.20068-.11914-.43506-.11914-.7041,0-.32812.0752-.61865.22559-.87158s.35059-.46484.60156-.63574.53613-.2998.8584-.38623c.32031-.08643.65234-.12988.99414-.12988.60645,0,1.14844.10498,1.62695.31445v1.13477c-.51465-.3374-1.10742-.50586-1.77734-.50586-.20996,0-.39844.02393-.56738.07178s-.31348.11523-.43457.20166c-.12012.08643-.21387.19043-.2793.31104-.06641.12061-.09961.25391-.09961.3999,0,.18213.0332.33496.09961.45801.06543.12305.16211.23242.29004.32812s.28223.18213.46484.25977.38965.16162.62207.25293c.30957.11865.58789.24023.83398.36572s.45605.2666.62891.42383.30664.33838.40039.54346c.09277.20508.13965.44873.13965.73145,0,.34619-.07617.64697-.22949.90234-.15234.25537-.35645.46729-.61133.63574s-.54883.29395-.88184.37598-.68164.12305-1.0459.12305c-.71973,0-1.34473-.13916-1.87305-.41699Z" fill="#2f2f2f"/>
        <path d="M313.7832,153.61895c-.26465.146-.61328.21875-1.0459.21875-1.22559,0-1.83887-.68359-1.83887-2.05078v-4.14258h-1.20312v-.95703h1.20312v-1.70898l1.12109-.3623v2.07129h1.76367v.95703h-1.76367v3.94434c0,.46924.08008.8042.23926,1.00488s.42383.30078.79297.30078c.28223,0,.52637-.07764.73145-.23242v.95703Z" fill="#2f2f2f"/>
        <path d="M320.40039,153.6873h-1.12109v-1.09375h-.02734c-.4873.83838-1.20508,1.25781-2.15332,1.25781-.69727,0-1.24316-.18457-1.63672-.55371-.39453-.36914-.5918-.85889-.5918-1.46973,0-1.30811.77051-2.06885,2.31055-2.2832l2.09863-.29395c0-1.18945-.48047-1.78418-1.44238-1.78418-.84277,0-1.60449.28711-2.2832.86133v-1.14844c.68848-.4375,1.48145-.65625,2.37891-.65625,1.64551,0,2.46777.87061,2.46777,2.61133v4.55273ZM319.2793,150.14629l-1.68848.23242c-.51953.07275-.91113.20166-1.17578.38623s-.39648.51172-.39648.98096c0,.3418.12207.62109.36523.8374.24414.21631.56934.32471.97461.32471.55566,0,1.01562-.19482,1.37695-.58447.36328-.38965.54395-.88281.54395-1.47998v-.69727Z" fill="#2f2f2f"/>
        <path d="M322.04297,153.43437v-1.20312c.61035.45117,1.2832.67676,2.0166.67676.98438,0,1.47656-.32812,1.47656-.98438,0-.18701-.04199-.34521-.12598-.4751-.08496-.12988-.19922-.24512-.3418-.34521-.14453-.1001-.3125-.19043-.50586-.27002-.19434-.07959-.40234-.16309-.62598-.24951-.30957-.12305-.58203-.24707-.81738-.37256-.23438-.12549-.42969-.2666-.58789-.42383-.15625-.15723-.27539-.33594-.35547-.53662-.0791-.20068-.11914-.43506-.11914-.7041,0-.32812.0752-.61865.22559-.87158s.35059-.46484.60156-.63574.53613-.2998.8584-.38623c.32031-.08643.65234-.12988.99414-.12988.60645,0,1.14844.10498,1.62695.31445v1.13477c-.51465-.3374-1.10742-.50586-1.77734-.50586-.20996,0-.39844.02393-.56738.07178s-.31348.11523-.43457.20166c-.12012.08643-.21387.19043-.2793.31104-.06641.12061-.09961.25391-.09961.3999,0,.18213.0332.33496.09961.45801.06543.12305.16211.23242.29004.32812s.28223.18213.46484.25977.38965.16162.62207.25293c.30957.11865.58789.24023.83398.36572s.45605.2666.62891.42383.30664.33838.40039.54346c.09277.20508.13965.44873.13965.73145,0,.34619-.07617.64697-.22949.90234-.15234.25537-.35645.46729-.61133.63574s-.54883.29395-.88184.37598-.68164.12305-1.0459.12305c-.71973,0-1.34473-.13916-1.87305-.41699Z" fill="#2f2f2f"/>
        <path d="M331.69629,153.61895c-.26465.146-.61328.21875-1.0459.21875-1.22559,0-1.83887-.68359-1.83887-2.05078v-4.14258h-1.20312v-.95703h1.20312v-1.70898l1.12109-.3623v2.07129h1.76367v.95703h-1.76367v3.94434c0,.46924.08008.8042.23926,1.00488s.42383.30078.79297.30078c.28223,0,.52637-.07764.73145-.23242v.95703Z" fill="#2f2f2f"/>
        <path d="M338.68945,150.46758h-4.94238c.01855.7793.22754,1.38086.62891,1.80469s.95215.63574,1.6543.63574c.78809,0,1.5127-.25977,2.17383-.7793v1.05273c-.61523.44678-1.42871.66992-2.44043.66992-.98926,0-1.76562-.31787-2.33105-.95361s-.84766-1.53027-.84766-2.68311c0-1.08936.30859-1.97656.92578-2.6626.61816-.68604,1.38477-1.02881,2.30078-1.02881s1.625.29639,2.12598.88867.75195,1.41504.75195,2.46777v.58789ZM337.54102,149.51738c-.00488-.64697-.16113-1.15088-.46777-1.51074-.30859-.35986-.73535-.54004-1.28223-.54004-.52832,0-.97754.18896-1.34668.56738s-.59668.87256-.68359,1.4834h3.78027Z" fill="#2f2f2f"/>
        <path d="M344.02246,147.82207c-.19629-.15039-.47852-.22559-.84766-.22559-.47852,0-.87891.22559-1.19922.67676-.32227.45117-.48242,1.06641-.48242,1.8457v3.56836h-1.12109v-7h1.12109v1.44238h.02734c.15918-.49219.40332-.87598.73145-1.15186s.69531-.41357,1.10059-.41357c.29199,0,.51465.03174.66992.0957v1.16211Z" fill="#2f2f2f"/>
        <path d="M281.86914,164.62236c-.19629-.15039-.47852-.22559-.84766-.22559-.47852,0-.87891.22559-1.19922.67676-.32227.45117-.48242,1.06641-.48242,1.8457v3.56836h-1.12109v-7h1.12109v1.44238h.02734c.15918-.49219.40332-.87598.73145-1.15186s.69531-.41357,1.10059-.41357c.29199,0,.51465.03174.66992.0957v1.16211Z" fill="#2f2f2f"/>
        <path d="M288.71191,167.26787h-4.94238c.01855.7793.22754,1.38086.62891,1.80469s.95215.63574,1.6543.63574c.78809,0,1.5127-.25977,2.17383-.7793v1.05273c-.61523.44678-1.42871.66992-2.44043.66992-.98926,0-1.76562-.31787-2.33105-.95361s-.84766-1.53027-.84766-2.68311c0-1.08936.30859-1.97656.92578-2.6626.61816-.68604,1.38477-1.02881,2.30078-1.02881s1.625.29639,2.12598.88867.75195,1.41504.75195,2.46777v.58789ZM287.56348,166.31768c-.00488-.64697-.16113-1.15088-.46777-1.51074-.30859-.35986-.73535-.54004-1.28223-.54004-.52832,0-.97754.18896-1.34668.56738s-.59668.87256-.68359,1.4834h3.78027Z" fill="#2f2f2f"/>
        <path d="M295.20996,170.16631c-.53809.32373-1.17578.48535-1.91406.48535-.99805,0-1.80371-.32471-2.41602-.97412-.61328-.64941-.91992-1.49121-.91992-2.52588,0-1.15283.33008-2.0791.99121-2.77881s1.54297-1.04932,2.64551-1.04932c.61523,0,1.15723.11377,1.62695.3418v1.14844c-.51953-.36475-1.0752-.54688-1.66797-.54688-.71582,0-1.30273.25635-1.75977.76904-.45898.5127-.6875,1.18604-.6875,2.02002,0,.82031.21484,1.46729.64648,1.94141.42969.47412,1.00781.71094,1.73242.71094.61035,0,1.18457-.20264,1.72266-.6084v1.06641Z" fill="#2f2f2f"/>
        <path d="M299.65039,170.65166c-1.03418,0-1.86035-.32715-2.47852-.98096-.61719-.65381-.92578-1.521-.92578-2.60107,0-1.17578.32129-2.09424.96387-2.75488s1.51074-.99121,2.60449-.99121c1.04395,0,1.8584.32129,2.44336.96387.58594.64258.87891,1.53369.87891,2.67285,0,1.1167-.31543,2.01074-.94727,2.68311-.63086.67236-1.47754,1.0083-2.53906,1.0083ZM299.73242,164.26689c-.71973,0-1.29004.24512-1.70898.73486s-.62891,1.16553-.62891,2.02686c0,.82959.21191,1.4834.63574,1.96191s.99121.71777,1.70215.71777c.72461,0,1.28125-.23486,1.67188-.7041.38867-.46924.58398-1.13721.58398-2.00293,0-.875-.19531-1.54932-.58398-2.02344-.39062-.47412-.94727-.71094-1.67188-.71094Z" fill="#2f2f2f"/>
        <path d="M310.27246,163.4876l-2.78906,7h-1.10059l-2.65234-7h1.23047l1.77734,5.08594c.13184.37354.21387.69971.24609.97754h.02734c.0459-.35107.11816-.66748.21875-.9502l1.85938-5.11328h1.18262Z" fill="#2f2f2f"/>
        <path d="M316.91406,167.26787h-4.94238c.01855.7793.22754,1.38086.62891,1.80469s.95215.63574,1.6543.63574c.78809,0,1.5127-.25977,2.17383-.7793v1.05273c-.61523.44678-1.42871.66992-2.44043.66992-.98926,0-1.76562-.31787-2.33105-.95361s-.84766-1.53027-.84766-2.68311c0-1.08936.30859-1.97656.92578-2.6626.61816-.68604,1.38477-1.02881,2.30078-1.02881s1.625.29639,2.12598.88867.75195,1.41504.75195,2.46777v.58789ZM315.76562,166.31768c-.00488-.64697-.16113-1.15088-.46777-1.51074-.30859-.35986-.73535-.54004-1.28223-.54004-.52832,0-.97754.18896-1.34668.56738s-.59668.87256-.68359,1.4834h3.78027Z" fill="#2f2f2f"/>
        <path d="M322.24707,164.62236c-.19629-.15039-.47852-.22559-.84766-.22559-.47852,0-.87891.22559-1.19922.67676-.32227.45117-.48242,1.06641-.48242,1.8457v3.56836h-1.12109v-7h1.12109v1.44238h.02734c.15918-.49219.40332-.87598.73145-1.15186s.69531-.41357,1.10059-.41357c.29199,0,.51465.03174.66992.0957v1.16211Z" fill="#2f2f2f"/>
        <path d="M329.58789,163.4876l-3.21973,8.12109c-.57422,1.44922-1.38086,2.17383-2.41992,2.17383-.29199,0-.53516-.02979-.73145-.08887v-1.00488c.24121.08203.46289.12305.66309.12305.56543,0,.98926-.3374,1.27148-1.01172l.56055-1.32617-2.73438-6.98633h1.24414l1.89355,5.38672c.02246.06836.07031.24609.14355.5332h.04102c.02246-.10938.06836-.28271.13672-.51953l1.98926-5.40039h1.16211Z" fill="#2f2f2f"/>
      </g>
    </g>
  </g>
</svg>