<?xml version="1.0" encoding="UTF-8"?>
<svg xmlns="http://www.w3.org/2000/svg" width="629.2" height="321.2" xmlns:xlink="http://www.w3.org/1999/xlink" viewBox="0 0 629.2 321.2">
  <defs>
    <linearGradient id="Cool_gray_gradient_1" data-name="Cool gray gradient 1" x1="215.51582" y1="159.97018" x2="413.43604" y2="159.97018" gradientUnits="userSpaceOnUse">
      <stop offset="0" stop-color="#f5f5f4"/>
      <stop offset="1" stop-color="#ececea"/>
    </linearGradient>
    <linearGradient id="Cool_gray_gradient_1-2" data-name="Cool gray gradient 1" x1="8.8" x2="206.72021" xlink:href="#Cool_gray_gradient_1"/>
    <linearGradient id="Cool_gray_gradient_1-3" data-name="Cool gray gradient 1" x1="422.47979" x2="620.4" xlink:href="#Cool_gray_gradient_1"/>
    <linearGradient id="linear-gradient" x1="264.69382" y1="1771.7078" x2="264.69382" y2="1777.95279" gradientTransform="translate(0 1850) scale(1 -1)" gradientUnits="userSpaceOnUse">
      <stop offset="0" stop-color="#5e9624"/>
      <stop offset="1" stop-color="#76bc2d"/>
    </linearGradient>
    <linearGradient id="linear-gradient-2" x1="264.71904" y1="1761.34192" x2="264.71904" y2="1767.58691" xlink:href="#linear-gradient"/>
    <linearGradient id="linear-gradient-3" x1="268.30717" y1="1647.82339" x2="268.30717" y2="1652.69823" gradientTransform="translate(0 1850) scale(1 -1)" gradientUnits="userSpaceOnUse">
      <stop offset="0" stop-color="#0078d4"/>
      <stop offset="1" stop-color="#5ea0ef"/>
    </linearGradient>
    <linearGradient id="linear-gradient-4" x1="268.59125" y1="1728.58448" x2="268.59125" y2="1732.29786" gradientTransform="translate(0 1850) scale(1 -1)" gradientUnits="userSpaceOnUse">
      <stop offset="0" stop-color="#773adc"/>
      <stop offset="1" stop-color="#a67af4"/>
    </linearGradient>
    <linearGradient id="linear-gradient-5" x1="259.34803" y1="1723.9596" x2="259.78507" y2="1736.00524" xlink:href="#linear-gradient"/>
    <linearGradient id="linear-gradient-6" x1="265.96749" y1="1723.72014" x2="266.40454" y2="1735.76579" xlink:href="#linear-gradient"/>
    <linearGradient id="linear-gradient-7" x1="266.2725" y1="1723.70818" x2="266.70955" y2="1735.75382" xlink:href="#linear-gradient"/>
    <linearGradient id="linear-gradient-8" x1="259.62205" y1="1723.95061" x2="260.05909" y2="1735.99626" xlink:href="#linear-gradient"/>
    <linearGradient id="linear-gradient-9" x1="258.7777" y1="514.41718" x2="258.7777" y2="508.0666" gradientTransform="translate(0 -232.86102)" xlink:href="#linear-gradient-4"/>
    <linearGradient id="linear-gradient-10" x1="5269.90917" y1="6166.37795" x2="5269.90917" y2="6173.01984" gradientTransform="translate(-2362.26006 -2936.82007) scale(.5)" gradientUnits="userSpaceOnUse">
      <stop offset="0" stop-color="#c69aeb"/>
      <stop offset="1" stop-color="#6f4bb2"/>
    </linearGradient>
    <linearGradient id="linear-gradient-11" x1="5269.90917" y1="6324.77795" x2="5269.90917" y2="6331.41984" xlink:href="#linear-gradient-10"/>
  </defs>
  <g isolation="isolate">
    <g id="Shapes">
      <rect width="629.2" height="321.2" fill="#fff"/>
      <g>
        <g mix-blend-mode="multiply" opacity=".65">
          <rect x="216.51582" y="9.8" width="197.92021" height="302.34036" rx="8" ry="8" fill="#2b436f"/>
          <rect x="216.51582" y="9.8" width="197.92021" height="302.34036" rx="8" ry="8" fill="#2b436f" opacity=".6"/>
        </g>
        <g>
          <rect x="215.51582" y="8.8" width="197.92021" height="302.34036" rx="8" ry="8" fill="url(#Cool_gray_gradient_1)"/>
          <rect x="215.51582" y="8.8" width="197.92021" height="302.34036" rx="8" ry="8" fill="#8ec8e7" opacity=".6"/>
        </g>
      </g>
      <g>
        <g mix-blend-mode="multiply" opacity=".65">
          <rect x="9.8" y="9.8" width="197.92021" height="302.34036" rx="8" ry="8" fill="#2b436f"/>
          <rect x="9.8" y="9.8" width="197.92021" height="302.34036" rx="8" ry="8" fill="#2b436f" opacity=".6"/>
        </g>
        <g>
          <rect x="8.8" y="8.8" width="197.92021" height="302.34036" rx="8" ry="8" fill="url(#Cool_gray_gradient_1-2)"/>
          <rect x="8.8" y="8.8" width="197.92021" height="302.34036" rx="8" ry="8" fill="#8ec8e7" opacity=".6"/>
        </g>
      </g>
      <g>
        <g mix-blend-mode="multiply" opacity=".65">
          <rect x="423.47979" y="9.8" width="197.92021" height="302.34036" rx="8" ry="8" fill="#2b436f"/>
          <rect x="423.47979" y="9.8" width="197.92021" height="302.34036" rx="8" ry="8" fill="#2b436f" opacity=".6"/>
        </g>
        <g>
          <rect x="422.47979" y="8.8" width="197.92021" height="302.34036" rx="8" ry="8" fill="url(#Cool_gray_gradient_1-3)"/>
          <rect x="422.47979" y="8.8" width="197.92021" height="302.34036" rx="8" ry="8" fill="#8ec8e7" opacity=".6"/>
        </g>
      </g>
      <g>
        <rect x="9.17593" y="62.74199" width="611.6" height="35.2" fill="#fff"/>
        <rect x="9.17593" y="62.74199" width="611.6" height="35.2" fill="#53b1e0" opacity=".1"/>
        <rect x="9.17593" y="62.74199" width="611.6" height="35.2" fill="none" stroke="#53b1e0" stroke-width=".25"/>
      </g>
      <g>
        <rect x="9.17593" y="102.34199" width="611.6" height="35.2" fill="#fff"/>
        <rect x="9.17593" y="102.34199" width="611.6" height="35.2" fill="#53b1e0" opacity=".1"/>
        <rect x="9.17593" y="102.34199" width="611.6" height="35.2" fill="none" stroke="#53b1e0" stroke-width=".25"/>
      </g>
      <g>
        <rect x="9.17593" y="141.94199" width="611.6" height="35.2" fill="#fff"/>
        <rect x="9.17593" y="141.94199" width="611.6" height="35.2" fill="#53b1e0" opacity=".1"/>
        <rect x="9.17593" y="141.94199" width="611.6" height="35.2" fill="none" stroke="#53b1e0" stroke-width=".25"/>
      </g>
      <g>
        <rect x="9.17593" y="181.54199" width="611.6" height="35.2" fill="#fff"/>
        <rect x="9.17593" y="181.54199" width="611.6" height="35.2" fill="#53b1e0" opacity=".1"/>
        <rect x="9.17593" y="181.54199" width="611.6" height="35.2" fill="none" stroke="#53b1e0" stroke-width=".25"/>
      </g>
      <g>
        <rect x="9.17593" y="221.14199" width="611.6" height="35.2" fill="#fff"/>
        <rect x="9.17593" y="221.14199" width="611.6" height="35.2" fill="#53b1e0" opacity=".1"/>
        <rect x="9.17593" y="221.14199" width="611.6" height="35.2" fill="none" stroke="#53b1e0" stroke-width=".25"/>
      </g>
      <g>
        <rect x="9.17593" y="260.74199" width="611.6" height="35.2" fill="#fff"/>
        <rect x="9.17593" y="260.74199" width="611.6" height="35.2" fill="#53b1e0" opacity=".1"/>
        <rect x="9.17593" y="260.74199" width="611.6" height="35.2" fill="none" stroke="#53b1e0" stroke-width=".25"/>
      </g>
      <g id="aa7ea84e-faaa-4698-89ff-203b553089f2">
        <g>
          <g>
            <path d="M253.84736,68.35789h2.03951v5.66002c0,.25322-.20527.45849-.45849.45849h-2.03951c-.25322,0-.45849-.20527-.45849-.45849v-4.74304c-.00881-.49763.38746-.90818.88508-.91699.01063-.00019.02127-.00019.0319,0Z" fill="#a3a3a3"/>
            <path d="M253.84736,68.35789h2.03951v5.66002c0,.25322-.20527.45849-.45849.45849h-2.03951c-.25322,0-.45849-.20527-.45849-.45849v-4.74304c-.00881-.49763.38746-.90818.88508-.91699.01063-.00019.02127-.00019.0319,0Z" fill="#a3a3a3" isolation="isolate" opacity=".5"/>
          </g>
          <g>
            <path d="M276.91432,68.35789h2.0395c.49771,0,.90118.40347.90118.90118v4.75885c0,.25322-.20527.45849-.45849.45849h-2.02369c-.25322,0-.45849-.20527-.45849-.45849v-5.66002h0Z" fill="#a3a3a3"/>
            <path d="M276.91432,68.35789h2.0395c.49771,0,.90118.40347.90118.90118v4.75885c0,.25322-.20527.45849-.45849.45849h-2.02369c-.25322,0-.45849-.20527-.45849-.45849v-5.66002h0Z" fill="#a3a3a3" isolation="isolate" opacity=".5"/>
          </g>
          <path d="M279.85501,69.24317v1.97627h-26.8772v-1.97627c0-.49771.40347-.90118.90118-.90118h25.07485c.49771,0,.90118.40347.90118.90118Z" fill="#949494"/>
          <g>
            <path d="M253.38886,86.17589h2.03951c.25322,0,.45849.20527.45849.45849v5.70745h-2.03951c-.49762.00904-.90836-.38703-.9174-.88466-.00029-.01605-.00015-.0321.00041-.04814v-4.74304c-.01746-.25262.17316-.47156.42578-.48902.01089-.00075.0218-.00112.03271-.00109Z" fill="#a3a3a3"/>
            <path d="M253.38886,86.17589h2.03951c.25322,0,.45849.20527.45849.45849v5.70745h-2.03951c-.49762.00904-.90836-.38703-.9174-.88466-.00029-.01605-.00015-.0321.00041-.04814v-4.74304c-.01746-.25262.17316-.47156.42578-.48902.01089-.00075.0218-.00112.03271-.00109Z" fill="#a3a3a3" isolation="isolate" opacity=".5"/>
          </g>
          <g>
            <path d="M277.37282,86.17589h2.03951c.25322,0,.45849.20527.45849.45849h0v4.74304c0,.49771-.40347.90118-.90118.90118h-2.05532v-5.61259c-.01746-.25262.17316-.47156.42578-.48902.01089-.00075.0218-.00112.03271-.00109Z" fill="#a3a3a3"/>
            <path d="M277.37282,86.17589h2.03951c.25322,0,.45849.20527.45849.45849h0v4.74304c0,.49771-.40347.90118-.90118.90118h-2.05532v-5.61259c-.01746-.25262.17316-.47156.42578-.48902.01089-.00075.0218-.00112.03271-.00109Z" fill="#a3a3a3" isolation="isolate" opacity=".5"/>
          </g>
          <path d="M252.93037,91.44075v-1.97627h26.87721v1.97627c0,.49771-.40347.90118-.90118.90118h-25.07485c-.49771,0-.90118-.40347-.90118-.90118Z" fill="#949494"/>
          <path d="M275.74437,80.089l-2.87744-2.90906c-.048-.06223-.13735-.07376-.19957-.02577-.04164.03212-.06217.08459-.05339.13644v1.78654c.00928.07803-.04645.14882-.12449.1581-.01117.00133-.02245.00133-.03361,0h-8.2845c-.31342-.40764-.79804-.64704-1.31224-.64821-.95612-.09148-1.80536.60945-1.89684,1.56557-.09148.95612.60946,1.80537,1.56557,1.89684.11017.01054.2211.01054.33127,0,.52079-.00721,1.00981-.25172,1.32805-.66403h8.26869c.0781-.00873.14849.0475.15722.1256.00062.00554.00091.01112.00088.0167v1.75492c-.00307.07852.0581.14467.13662.14774.04496.00176.0881-.01785.11634-.05288l2.87744-2.86163c.11054-.12082.11054-.30605,0-.42687Z" fill="#5ea0ef"/>
          <path d="M270.43217,74.95071l-2.87744-2.86163c-.048-.06223-.13735-.07376-.19957-.02577-.04164.03212-.06217.08459-.05339.13644v1.81816c.00873.0781-.0475.14849-.1256.15722-.00554.00062-.01112.00091-.01669.00088h-5.18572c-.31991-.40823-.80941-.64715-1.32805-.64821-.96029-.01942-1.7545.74331-1.77392,1.7036-.01942.96029.74331,1.7545,1.7036,1.77392.55252.01117,1.07746-.24092,1.41418-.67912h5.16991c.07859,0,.14229.06371.14229.14229h0v1.67587c-.00307.07853.0581.14467.13662.14774.04496.00176.0881-.01785.11634-.05288l2.87744-2.86163c.11159-.12107.11252-.30666,0-.42687Z" fill="url(#linear-gradient)"/>
          <path d="M270.43217,85.32215l-2.87744-2.86163c-.048-.06223-.13735-.07376-.19957-.02576-.04164.03212-.06217.08459-.05339.13644v1.73911c.00041.0815-.0612.14995-.14229.1581h-5.18572c-.31991-.40823-.80941-.64715-1.32805-.64821-.96048.00129-1.73807.78095-1.73678,1.74144.00129.96049.78095,1.73807,1.74144,1.73678.51834-.00069,1.00935-.23256,1.3392-.6324h5.16991c.07859,0,.14229.06371.14229.14229h0v1.75492c-.00307.07852.0581.14467.13662.14774.04496.00176.0881-.01785.11634-.05288l2.87744-2.86163c.12748-.11936.12812-.3258.00876-.45327-.00474-.00506-.00964-.00996-.00876-.02103Z" fill="url(#linear-gradient-2)"/>
        </g>
      </g>
      <g>
        <path d="M253.84748,187.15397h2.04004v5.66062c0,.25295-.20505.458-.458.458h-2.04004c-.25294.00083-.45867-.20355-.45949-.4565,0-.0005,0-.001,0-.0015v-4.74312c-.01079-.49585.38243-.90657.87829-.91736.00259-.00006.00518-.0001.00777-.00014h.03143Z" fill="#a3a3a3"/>
        <path d="M253.84748,187.15397h2.04004v5.66062c0,.25295-.20505.458-.458.458h-2.04004c-.25294.00083-.45867-.20355-.45949-.4565,0-.0005,0-.001,0-.0015v-4.74312c-.01079-.49585.38243-.90657.87829-.91736.00259-.00006.00518-.0001.00777-.00014h.03143Z" fill="#a3a3a3" isolation="isolate" opacity=".5"/>
        <path d="M276.91502,187.15397h2.03854c.49597,0,.89804.40206.89804.89803h0v4.75959c0,.25294-.20505.458-.458.458h-2.02058c-.25294,0-.458-.20505-.458-.458v-5.65762Z" fill="#a3a3a3"/>
        <path d="M276.91502,187.15397h2.03854c.49597,0,.89804.40206.89804.89803h0v4.75959c0,.25294-.20505.458-.458.458h-2.02058c-.25294,0-.458-.20505-.458-.458v-5.65762Z" fill="#a3a3a3" isolation="isolate" opacity=".5"/>
        <path d="M279.85459,188.04003v1.97568h-26.8767v-1.97568c0-.49597.40206-.89804.89804-.89804h25.07764c.49597-.00165.89937.39907.90102.89504,0,.001,0,.002,0,.003Z" fill="#949494"/>
        <path d="M253.38949,204.97548h2.04004c.25295,0,.458.20505.458.458v5.70701h-2.04004c-.49585.01078-.90656-.38245-.91734-.87831-.00007-.00308-.00012-.00617-.00015-.00925v-4.79102c-.01624-.25202.17458-.46963.42657-.48644h.03293Z" fill="#a3a3a3"/>
        <path d="M253.38949,204.97548h2.04004c.25295,0,.458.20505.458.458v5.70701h-2.04004c-.49585.01078-.90656-.38245-.91734-.87831-.00007-.00308-.00012-.00617-.00015-.00925v-4.79102c-.01624-.25202.17458-.46963.42657-.48644h.03293Z" fill="#a3a3a3" isolation="isolate" opacity=".5"/>
        <path d="M277.37302,204.97548h2.04004c.24948-.00005.45311.19959.458.44902h0v4.74312c0,.49597-.40206.89804-.89804.89804h-2.058v-5.61272c-.01797-.25231.172-.47141.42431-.48937.00025-.00002.00051-.00004.00076-.00005l.03293.01197Z" fill="#a3a3a3"/>
        <path d="M277.37302,204.97548h2.04004c.24948-.00005.45311.19959.458.44902h0v4.74312c0,.49597-.40206.89804-.89804.89804h-2.058v-5.61272c-.01797-.25231.172-.47141.42431-.48937.00025-.00002.00051-.00004.00076-.00005l.03293.01197Z" fill="#a3a3a3" isolation="isolate" opacity=".5"/>
        <path d="M252.92999,210.23647v-1.96819h26.8782v1.97568c0,.49597-.40206.89804-.89804.89804h-25.08213c-.49597.00002-.89805-.40203-.89807-.898,0-.0025.00001-.00501.00003-.00751Z" fill="#949494"/>
        <path d="M272.26619,202.56875h0c.0479-.00021.09308-.02225.12273-.05987l3.20299-3.18503c.12436-.13428.12436-.34168,0-.47596l-3.20299-3.23742c-.04622-.06853-.13924-.08662-.20778-.0404-.00478.00322-.00936.00672-.01374.01047-.0457.03528-.06863.0926-.05987.14967v1.99214c.00965.08672-.05254.16495-.1392.17512h-7.45968c-.34898-.45367-.88844-.72008-1.4608-.72142-.06286,0-.12423-.00898-.18559-.00898-1.06964.00202-1.93512.87078-1.9331,1.94042.00188.99609.75902,1.82833,1.7505,1.92412h.36819c.57969-.00884,1.12388-.28093,1.47876-.73938h7.42825c.08049.00024.14804.06072.15716.14069v1.97268c-.00169.08732.06689.1599.15416.16314Z" fill="url(#linear-gradient-3)"/>
        <path d="M266.22989,201.48811c-1.31682,1.84991-3.88396,2.28206-5.73387.96524-1.84991-1.31682-2.28206-3.88396-.96524-5.73387s3.88396-2.28206,5.73387-.96524c.36626.26071.68727.57973.95027.94435h2.23012c-1.32834-3.06399-4.88903-4.47101-7.95302-3.14268-3.06399,1.32834-4.47101,4.88903-3.14268,7.95302,1.32834,3.06399,4.88903,4.47101,7.95302,3.14267,1.4157-.61375,2.54322-1.7455,3.15166-3.16349h-2.22413Z" fill="#773adc"/>
      </g>
      <g>
        <path d="M253.84748,107.95397h2.04004v5.66062c0,.25295-.20505.458-.458.458h-2.04004c-.25294.00083-.45867-.20355-.45949-.4565,0-.0005,0-.001,0-.0015v-4.74312c-.01079-.49585.38243-.90657.87829-.91736.00259-.00006.00518-.0001.00777-.00014h.03143Z" fill="#a3a3a3"/>
        <path d="M253.84748,107.95397h2.04004v5.66062c0,.25295-.20505.458-.458.458h-2.04004c-.25294.00083-.45867-.20355-.45949-.4565,0-.0005,0-.001,0-.0015v-4.74312c-.01079-.49585.38243-.90657.87829-.91736.00259-.00006.00518-.0001.00777-.00014h.03143Z" fill="#a3a3a3" isolation="isolate" opacity=".5"/>
        <path d="M276.91502,107.95397h2.03854c.49597,0,.89804.40206.89804.89803h0v4.75959c0,.25294-.20505.458-.458.458h-2.02058c-.25294,0-.458-.20505-.458-.458v-5.65762Z" fill="#a3a3a3"/>
        <path d="M276.91502,107.95397h2.03854c.49597,0,.89804.40206.89804.89803h0v4.75959c0,.25294-.20505.458-.458.458h-2.02058c-.25294,0-.458-.20505-.458-.458v-5.65762Z" fill="#a3a3a3" isolation="isolate" opacity=".5"/>
        <path d="M279.85459,108.84003v1.97568h-26.8767v-1.97568c0-.49597.40206-.89804.89804-.89804h25.07764c.49597-.00165.89937.39907.90102.89504,0,.001,0,.002,0,.003Z" fill="#949494"/>
        <path d="M253.38949,125.77548h2.04004c.25295,0,.458.20505.458.458v5.70701h-2.04004c-.49585.01078-.90656-.38245-.91734-.87831-.00007-.00308-.00012-.00617-.00015-.00925v-4.79102c-.01624-.25202.17458-.46963.42657-.48644h.03293Z" fill="#a3a3a3"/>
        <path d="M253.38949,125.77548h2.04004c.25295,0,.458.20505.458.458v5.70701h-2.04004c-.49585.01078-.90656-.38245-.91734-.87831-.00007-.00308-.00012-.00617-.00015-.00925v-4.79102c-.01624-.25202.17458-.46963.42657-.48644h.03293Z" fill="#a3a3a3" isolation="isolate" opacity=".5"/>
        <path d="M277.37302,125.77548h2.04004c.24948-.00005.45311.19959.458.44902h0v4.74312c0,.49597-.40206.89804-.89804.89804h-2.058v-5.61272c-.01797-.25231.172-.47141.42431-.48937.00025-.00002.00051-.00004.00076-.00005l.03293.01197Z" fill="#a3a3a3"/>
        <path d="M277.37302,125.77548h2.04004c.24948-.00005.45311.19959.458.44902h0v4.74312c0,.49597-.40206.89804-.89804.89804h-2.058v-5.61272c-.01797-.25231.172-.47141.42431-.48937.00025-.00002.00051-.00004.00076-.00005l.03293.01197Z" fill="#a3a3a3" isolation="isolate" opacity=".5"/>
        <path d="M252.92999,131.03647v-1.96819h26.8782v1.97568c0,.49597-.40206.89804-.89804.89804h-25.08213c-.49597.00002-.89805-.40203-.89807-.898,0-.0025.00001-.00501.00003-.00751Z" fill="#949494"/>
        <path d="M276.03345,119.68082l-3.19701-3.23891c-.05353-.06865-.15238-.08134-.22152-.02844-.04597.03508-.06897.09257-.05987.14967v1.99064c.01423.08143-.04025.15897-.12168.1732-.0053.00093-.01065.00157-.01602.00192h-7.76801c-.34928-.45331-.88855-.71963-1.4608-.72142-.06286,0-.12573-.00898-.18709-.00898-1.06964.00202-1.93512.87078-1.9331,1.94042.00188.99609.75902,1.82833,1.7505,1.92412.06087.00599.12223.00898.1841.00898.06137,0,.12423,0,.18559-.00898.57927-.00886,1.12299-.28099,1.47727-.73938h7.72161c.07762.00391.14097.06347.14967.14069v1.9667c-.0026.08624.06358.15903.14967.16464h0c.04789.00131.09352-.02039.12273-.05837l3.20449-3.18653c.12569-.12864.13408-.33138.01946-.46997Z" fill="url(#linear-gradient-4)"/>
        <path d="M257.04,114.62188v4.61441h2.9246c.2668-1.20771,1.2254-2.14161,2.43966-2.3768v-2.99345h-4.6159c-.41331-.00002-.74838.33502-.7484.74833,0,.00251.00001.00501.00004.00752Z" fill="url(#linear-gradient-5)"/>
        <path d="M268.2849,113.87202h-4.6159v2.99345c.5455.0881,1.05729.32124,1.48176.67502h3.88251v-2.92011c0-.41331-.33505-.74836-.74836-.74836Z" fill="url(#linear-gradient-6)"/>
        <path d="M263.669,123.01103v2.96202h4.6159c.41331,0,.74836-.33505.74836-.74836v-2.90365h-3.86155c-.42816.36344-.94801.60214-1.50271.68999Z" fill="url(#linear-gradient-7)"/>
        <path d="M259.9646,120.60879h-2.9246v4.6159c0,.41331.33505.74836.74836.74836h4.6159v-2.97699c-1.22441-.22292-2.19022-1.168-2.43966-2.38728Z" fill="url(#linear-gradient-8)"/>
      </g>
      <g>
        <path d="M253.84748,266.35397h2.04004v5.66062c0,.25295-.20505.458-.458.458h-2.04004c-.25294.00083-.45867-.20355-.45949-.4565,0-.0005,0-.001,0-.0015v-4.74312c-.01079-.49585.38243-.90657.87829-.91736.00259-.00006.00518-.0001.00777-.00014h.03143Z" fill="#a3a3a3"/>
        <path d="M253.84748,266.35397h2.04004v5.66062c0,.25295-.20505.458-.458.458h-2.04004c-.25294.00083-.45867-.20355-.45949-.4565,0-.0005,0-.001,0-.0015v-4.74312c-.01079-.49585.38243-.90657.87829-.91736.00259-.00006.00518-.0001.00777-.00014h.03143Z" fill="#a3a3a3" isolation="isolate" opacity=".5"/>
        <path d="M276.91502,266.35397h2.03854c.49597,0,.89804.40206.89804.89803h0v4.75959c0,.25294-.20505.458-.458.458h-2.02058c-.25294,0-.458-.20505-.458-.458v-5.65762Z" fill="#a3a3a3"/>
        <path d="M276.91502,266.35397h2.03854c.49597,0,.89804.40206.89804.89803h0v4.75959c0,.25294-.20505.458-.458.458h-2.02058c-.25294,0-.458-.20505-.458-.458v-5.65762Z" fill="#a3a3a3" isolation="isolate" opacity=".5"/>
        <path d="M279.85459,267.24003v1.97568h-26.8767v-1.97568c0-.49597.40206-.89804.89804-.89804h25.07764c.49597-.00165.89937.39907.90102.89504,0,.001,0,.002,0,.003Z" fill="#949494"/>
        <path d="M253.38949,284.17548h2.04004c.25295,0,.458.20505.458.458v5.70701h-2.04004c-.49585.01078-.90656-.38245-.91734-.87831-.00007-.00308-.00012-.00617-.00015-.00925v-4.79102c-.01624-.25202.17458-.46963.42657-.48644h.03293Z" fill="#a3a3a3"/>
        <path d="M253.38949,284.17548h2.04004c.25295,0,.458.20505.458.458v5.70701h-2.04004c-.49585.01078-.90656-.38245-.91734-.87831-.00007-.00308-.00012-.00617-.00015-.00925v-4.79102c-.01624-.25202.17458-.46963.42657-.48644h.03293Z" fill="#a3a3a3" isolation="isolate" opacity=".5"/>
        <path d="M277.37302,284.17548h2.04004c.24948-.00005.45311.19959.458.44902h0v4.74312c0,.49597-.40206.89804-.89804.89804h-2.058v-5.61272c-.01797-.25231.172-.47141.42431-.48937.00025-.00002.00051-.00004.00076-.00005l.03293.01197Z" fill="#a3a3a3"/>
        <path d="M277.37302,284.17548h2.04004c.24948-.00005.45311.19959.458.44902h0v4.74312c0,.49597-.40206.89804-.89804.89804h-2.058v-5.61272c-.01797-.25231.172-.47141.42431-.48937.00025-.00002.00051-.00004.00076-.00005l.03293.01197Z" fill="#a3a3a3" isolation="isolate" opacity=".5"/>
        <path d="M252.92999,289.43647v-1.96819h26.8782v1.97568c0,.49597-.40206.89804-.89804.89804h-25.08213c-.49597.00002-.89805-.40203-.89807-.898,0-.0025.00001-.00501.00003-.00751Z" fill="#949494"/>
        <path d="M273.39322,278.95041v-1.1899h-7.42825v-5.01553h6.19644v-1.1899h-6.19644c-.65837.00412-1.18991.539-1.1899,1.19738v5.00804h-5.28494v1.19738h5.29841v4.9811c.00493.65778.53958,1.18842,1.19738,1.1884h6.18297v-1.1899h-6.19046v-4.98709h7.41478Z" fill="#0078d4"/>
        <circle cx="273.94701" cy="278.29335" r="1.81553" fill="#5ea0ef"/>
        <circle cx="258.7777" cy="278.35023" r="2.57437" fill="url(#linear-gradient-9)"/>
        <circle cx="272.3081" cy="284.58109" r="1.81553" fill="#5ea0ef"/>
        <circle cx="272.3081" cy="272.09541" r="1.81553" fill="#5ea0ef"/>
      </g>
      <g id="b30b0bd5-e4d2-456b-8d49-c2df20200912">
        <path id="b51878b5-8d50-4b8b-bc48-74f5f7315a99" d="M272.26652,158.19457v-.95112h-7.16509l-3.36062,3.34477h-2.47291l5.73842-5.80182h3.91544v-.90356h-4.31174l-6.68953,6.70539h-.95112v.95112h2.86921l3.39232,3.34477h8.08451v-.95112h-7.73577l-2.39365-2.39365h5.81768v-.95112h-3.89959l2.3778-2.39365h6.78465Z" fill="#32bedd"/>
        <circle id="ad0ed4eb-cd5f-4cc0-bd19-2830d27ec806" cx="267.95478" cy="161.06378" r="1.37912" fill="#fff"/>
        <circle id="a2746b4a-0ae4-4308-876e-5b82657e1872" cx="269.39731" cy="154.37425" r="1.37912" fill="#fff"/>
        <circle id="fc3316e0-7094-4ce0-99ed-43f1e6e4350c" cx="272.74208" cy="157.71901" r="1.37912" fill="#fff"/>
        <circle id="b5d18443-d50e-4590-8e8f-80b6a7f6d348" cx="271.3154" cy="164.40855" r="1.37912" fill="#fff"/>
        <circle cx="269.34976" cy="154.37425" r="1.66446" fill="#50e6ff"/>
        <circle cx="272.69453" cy="157.71901" r="1.66446" fill="url(#linear-gradient-10)"/>
        <circle cx="271.3154" cy="164.40855" r="1.66446" fill="none"/>
        <circle cx="267.95478" cy="161.06378" r="1.66446" fill="#50e6ff"/>
        <g>
          <path d="M253.83067,147.54205h2.0449v5.65916c0,.25389-.20582.45971-.45971.45971h-2.02905c-.25389,0-.45971-.20582-.45971-.45971h0v-4.75559c0-.49902.40454-.90356.90356-.90356h0Z" fill="#999"/>
          <path d="M253.83067,147.54205h2.0449v5.65916c0,.25389-.20582.45971-.45971.45971h-2.02905c-.25389,0-.45971-.20582-.45971-.45971h0v-4.75559c0-.49902.40454-.90356.90356-.90356h0Z" fill="#999" isolation="isolate" opacity=".5"/>
        </g>
        <g>
          <path d="M276.927,147.54205h2.0449c.49902,0,.90356.40454.90356.90356v4.75559c0,.25389-.20582.45971-.45971.45971h-2.0449c-.24768-.00855-.444-.21188-.44385-.45971v-5.65916h0Z" fill="#999"/>
          <path d="M276.927,147.54205h2.0449c.49902,0,.90356.40454.90356.90356v4.75559c0,.25389-.20582.45971-.45971.45971h-2.0449c-.24768-.00855-.444-.21188-.44385-.45971v-5.65916h0Z" fill="#999" isolation="isolate" opacity=".5"/>
        </g>
        <path d="M279.87547,148.44555v1.9815h-26.94836v-1.9815c0-.49902.40454-.90356.90356-.90356h25.15709c.49282.00865.88779.41066.88771.90356Z" fill="#949494"/>
        <g>
          <path d="M253.38682,165.37552h2.0449c.25389,0,.45971.20582.45971.45971v5.70671h-2.06076c-.49902,0-.90356-.40454-.90356-.90356v-4.75559c-.02627-.25253.15715-.47853.40968-.5048.01662-.00173.03332-.00255.05003-.00246Z" fill="#999"/>
          <path d="M253.38682,165.37552h2.0449c.25389,0,.45971.20582.45971.45971v5.70671h-2.06076c-.49902,0-.90356-.40454-.90356-.90356v-4.75559c-.02627-.25253.15715-.47853.40968-.5048.01662-.00173.03332-.00255.05003-.00246Z" fill="#999" isolation="isolate" opacity=".5"/>
        </g>
        <g>
          <path d="M277.37086,165.37552h2.0449c.25389,0,.45971.20582.45971.45971h0v4.75559c0,.49903-.40454.90356-.90356.90356h-2.0449v-5.6116c-.02637-.25252.15695-.4786.40947-.50497.01143-.00119.0229-.00196.03438-.00229Z" fill="#999"/>
          <path d="M277.37086,165.37552h2.0449c.25389,0,.45971.20582.45971.45971h0v4.75559c0,.49903-.40454.90356-.90356.90356h-2.0449v-5.6116c-.02637-.25252.15695-.4786.40947-.50497.01143-.00119.0229-.00196.03438-.00229Z" fill="#999" isolation="isolate" opacity=".5"/>
        </g>
        <path d="M252.92711,170.63843v-1.9815h26.94836v1.9815c0,.49902-.40454.90356-.90356.90356h-25.14123c-.49902,0-.90356-.40454-.90356-.90356Z" fill="#949494"/>
      </g>
      <g id="b30b0bd5-e4d2-456b-8d49-c2df20200912-2" data-name="b30b0bd5-e4d2-456b-8d49-c2df20200912">
        <path id="b51878b5-8d50-4b8b-bc48-74f5f7315a99-2" data-name="b51878b5-8d50-4b8b-bc48-74f5f7315a99" d="M272.26652,237.39457v-.95112h-7.16509l-3.36062,3.34477h-2.47291l5.73842-5.80182h3.91544v-.90356h-4.31174l-6.68953,6.70539h-.95112v.95112h2.86921l3.39232,3.34477h8.08451v-.95112h-7.73577l-2.39365-2.39365h5.81768v-.95112h-3.89959l2.3778-2.39365h6.78465Z" fill="#32bedd"/>
        <circle id="ad0ed4eb-cd5f-4cc0-bd19-2830d27ec806-2" data-name="ad0ed4eb-cd5f-4cc0-bd19-2830d27ec806" cx="267.95478" cy="240.26378" r="1.37912" fill="#fff"/>
        <circle id="a2746b4a-0ae4-4308-876e-5b82657e1872-2" data-name="a2746b4a-0ae4-4308-876e-5b82657e1872" cx="269.39731" cy="233.57425" r="1.37912" fill="#fff"/>
        <circle id="fc3316e0-7094-4ce0-99ed-43f1e6e4350c-2" data-name="fc3316e0-7094-4ce0-99ed-43f1e6e4350c" cx="272.74208" cy="236.91901" r="1.37912" fill="#fff"/>
        <circle id="b5d18443-d50e-4590-8e8f-80b6a7f6d348-2" data-name="b5d18443-d50e-4590-8e8f-80b6a7f6d348" cx="271.3154" cy="243.60855" r="1.37912" fill="#fff"/>
        <circle cx="269.34976" cy="233.57425" r="1.66446" fill="#50e6ff"/>
        <circle cx="272.69453" cy="236.91901" r="1.66446" fill="url(#linear-gradient-11)"/>
        <circle cx="271.3154" cy="243.60855" r="1.66446" fill="none"/>
        <circle cx="267.95478" cy="240.26378" r="1.66446" fill="#50e6ff"/>
        <g>
          <path d="M253.83067,226.74205h2.0449v5.65916c0,.25389-.20582.45971-.45971.45971h-2.02905c-.25389,0-.45971-.20582-.45971-.45971h0v-4.75559c0-.49902.40454-.90356.90356-.90356h0Z" fill="#999"/>
          <path d="M253.83067,226.74205h2.0449v5.65916c0,.25389-.20582.45971-.45971.45971h-2.02905c-.25389,0-.45971-.20582-.45971-.45971h0v-4.75559c0-.49902.40454-.90356.90356-.90356h0Z" fill="#999" isolation="isolate" opacity=".5"/>
        </g>
        <g>
          <path d="M276.927,226.74205h2.0449c.49902,0,.90356.40454.90356.90356v4.75559c0,.25389-.20582.45971-.45971.45971h-2.0449c-.24768-.00855-.444-.21188-.44385-.45971v-5.65916h0Z" fill="#999"/>
          <path d="M276.927,226.74205h2.0449c.49902,0,.90356.40454.90356.90356v4.75559c0,.25389-.20582.45971-.45971.45971h-2.0449c-.24768-.00855-.444-.21188-.44385-.45971v-5.65916h0Z" fill="#999" isolation="isolate" opacity=".5"/>
        </g>
        <path d="M279.87547,227.64555v1.9815h-26.94836v-1.9815c0-.49902.40454-.90356.90356-.90356h25.15709c.49282.00865.88779.41066.88771.90356Z" fill="#949494"/>
        <g>
          <path d="M253.38682,244.57552h2.0449c.25389,0,.45971.20582.45971.45971v5.70671h-2.06076c-.49902,0-.90356-.40454-.90356-.90356v-4.75559c-.02627-.25253.15715-.47853.40968-.5048.01662-.00173.03332-.00255.05003-.00246Z" fill="#999"/>
          <path d="M253.38682,244.57552h2.0449c.25389,0,.45971.20582.45971.45971v5.70671h-2.06076c-.49902,0-.90356-.40454-.90356-.90356v-4.75559c-.02627-.25253.15715-.47853.40968-.5048.01662-.00173.03332-.00255.05003-.00246Z" fill="#999" isolation="isolate" opacity=".5"/>
        </g>
        <g>
          <path d="M277.37086,244.57552h2.0449c.25389,0,.45971.20582.45971.45971h0v4.75559c0,.49903-.40454.90356-.90356.90356h-2.0449v-5.6116c-.02637-.25252.15695-.4786.40947-.50497.01143-.00119.0229-.00196.03438-.00229Z" fill="#999"/>
          <path d="M277.37086,244.57552h2.0449c.25389,0,.45971.20582.45971.45971h0v4.75559c0,.49903-.40454.90356-.90356.90356h-2.0449v-5.6116c-.02637-.25252.15695-.4786.40947-.50497.01143-.00119.0229-.00196.03438-.00229Z" fill="#999" isolation="isolate" opacity=".5"/>
        </g>
        <path d="M252.92711,249.83843v-1.9815h26.94836v1.9815c0,.49902-.40454.90356-.90356.90356h-25.14123c-.49902,0-.90356-.40454-.90356-.90356Z" fill="#949494"/>
      </g>
    </g>
    <g id="Text">
      <g>
        <path d="M296.54824,85.79443c-.71533.34619-1.6499.51953-2.80273.51953-1.50391,0-2.68652-.44189-3.54785-1.32617s-1.29199-2.06201-1.29199-3.53418c0-1.56787.48438-2.83936,1.45264-3.81445s2.2251-1.46289,3.77002-1.46289c.95703,0,1.76367.12061,2.41992.3623v2.12598c-.65625-.39209-1.40381-.58789-2.24219-.58789-.92041,0-1.66357.28955-2.22852.86816s-.84766,1.36279-.84766,2.35156c0,.94775.2666,1.70312.7998,2.26611s1.25098.84424,2.15332.84424c.86133,0,1.6499-.20947,2.36523-.62891v2.0166Z" fill="#2f2f2f"/>
        <path d="M304.5624,86.14307h-2.15332v-1.06641h-.03418c-.5332.82471-1.24658,1.2373-2.13965,1.2373-1.62256,0-2.43359-.98193-2.43359-2.94629v-4.22461h2.15332v4.0332c0,.98877.39209,1.4834,1.17578,1.4834.38721,0,.69727-.13574.92969-.40674s.34863-.63916.34863-1.104v-4.00586h2.15332v7Z" fill="#2f2f2f"/>
        <path d="M306.02773,85.9585v-1.75c.35547.21436.70996.37354,1.06299.47852s.68701.15723,1.00146.15723c.38281,0,.68457-.05225.90576-.15723s.33154-.26416.33154-.47852c0-.13672-.05029-.25049-.15039-.3418s-.229-.1709-.38623-.23926-.3291-.12988-.51611-.18457-.3667-.11621-.54004-.18457c-.27783-.10498-.52295-.21777-.73486-.33838s-.38965-.26074-.5332-.42041-.25293-.34424-.32812-.55371-.11279-.45801-.11279-.74512c0-.39209.08545-.729.25635-1.01172s.39893-.51367.68359-.69385.61084-.31201.97754-.39648.74854-.12646,1.14502-.12646c.31006,0,.62451.02393.94336.07178s.6333.11719.94336.2085v1.66797c-.27344-.15967-.56641-.2793-.87842-.35889s-.61865-.11963-.91943-.11963c-.14111,0-.27441.0127-.3999.0376s-.23584.06152-.33154.10938-.1709.10938-.22559.18457-.08203.16064-.08203.25635c0,.12744.04102.23682.12305.32812s.18896.16992.32129.23584.2793.12549.44092.17773.32227.10596.48193.16064c.28711.1001.54688.20947.7793.32812s.43164.25732.59814.41699.29395.34619.38281.56055.1333.46924.1333.76562c0,.41455-.08984.76904-.27002,1.06299s-.41943.5332-.71777.71777-.64258.31885-1.03223.40332-.79395.12646-1.21338.12646c-.77002,0-1.4834-.11865-2.13965-.35547Z" fill="#2f2f2f"/>
        <path d="M316.83438,86.06104c-.31885.16846-.7998.25293-1.44238.25293-1.52197,0-2.2832-.79053-2.2832-2.37207v-3.20605h-1.13477v-1.59277h1.13477v-1.51074l2.15332-.61523v2.12598h1.57227v1.59277h-1.57227v2.83008c0,.729.28955,1.09375.86816,1.09375.22803,0,.4624-.06592.7041-.19824v1.59961Z" fill="#2f2f2f"/>
        <path d="M321.36758,86.31396c-1.1665,0-2.08398-.32715-2.75146-.98096s-1.00146-1.5415-1.00146-2.6626c0-1.15771.34619-2.06348,1.03906-2.71729s1.62939-.98096,2.80957-.98096c1.16211,0,2.07373.32715,2.73438.98096s.99121,1.51855.99121,2.59424c0,1.16211-.34082,2.08057-1.02197,2.75488s-1.61426,1.01172-2.79932,1.01172ZM321.42227,80.62646c-.51025,0-.90674.17529-1.18945.52637s-.42383.84766-.42383,1.49023c0,1.34424.54248,2.0166,1.62695,2.0166,1.03467,0,1.55176-.69043,1.55176-2.07129,0-1.30811-.52197-1.96191-1.56543-1.96191Z" fill="#2f2f2f"/>
        <path d="M337.68545,86.14307h-2.15332v-3.99219c0-1.01611-.37354-1.52441-1.12109-1.52441-.35547,0-.64502.15283-.86816.45801s-.33496.68604-.33496,1.1416v3.91699h-2.16016v-4.0332c0-.98877-.3667-1.4834-1.10059-1.4834-.36914,0-.66406.146-.88525.4375s-.33154.68799-.33154,1.18945v3.88965h-2.16016v-7h2.16016v1.09375h.02734c.22314-.37354.53662-.67773.93994-.9126s.84424-.35205,1.32275-.35205c.98877,0,1.66553.43506,2.03027,1.30566.5332-.87061,1.31689-1.30566,2.35156-1.30566,1.52197,0,2.2832.93896,2.2832,2.81641v4.35449Z" fill="#2f2f2f"/>
        <path d="M347.48818,86.06104c-.31885.16846-.7998.25293-1.44238.25293-1.52197,0-2.2832-.79053-2.2832-2.37207v-3.20605h-1.13477v-1.59277h1.13477v-1.51074l2.15332-.61523v2.12598h1.57227v1.59277h-1.57227v2.83008c0,.729.28955,1.09375.86816,1.09375.22803,0,.4624-.06592.7041-.19824v1.59961Z" fill="#2f2f2f"/>
        <path d="M352.02139,86.31396c-1.1665,0-2.08398-.32715-2.75146-.98096s-1.00146-1.5415-1.00146-2.6626c0-1.15771.34619-2.06348,1.03906-2.71729s1.62939-.98096,2.80957-.98096c1.16211,0,2.07373.32715,2.73438.98096s.99121,1.51855.99121,2.59424c0,1.16211-.34082,2.08057-1.02197,2.75488s-1.61426,1.01172-2.79932,1.01172ZM352.07607,80.62646c-.51025,0-.90674.17529-1.18945.52637s-.42383.84766-.42383,1.49023c0,1.34424.54248,2.0166,1.62695,2.0166,1.03467,0,1.55176-.69043,1.55176-2.07129,0-1.30811-.52197-1.96191-1.56543-1.96191Z" fill="#2f2f2f"/>
        <path d="M359.41201,85.32959h-.02734v4.0332h-2.16016v-10.21973h2.16016v1.05273h.02734c.5332-.81592,1.28271-1.22363,2.24902-1.22363.90674,0,1.60742.31104,2.10205.93311s.7417,1.46875.7417,2.53955c0,1.1665-.28809,2.10303-.86475,2.80957s-1.34326,1.05957-2.30029,1.05957c-.84326,0-1.48584-.32812-1.92773-.98438ZM359.35049,82.4585v.56055c0,.48291.12744.87744.38281,1.18262s.59033.45801,1.00488.45801c.49219,0,.87402-.19043,1.14502-.5708s.40674-.91943.40674-1.6167c0-1.23047-.47852-1.8457-1.43555-1.8457-.44189,0-.80322.16748-1.0835.50244s-.42041.77832-.42041,1.32959Z" fill="#2f2f2f"/>
        <path d="M366.9999,78.03564c-.36475,0-.66309-.1084-.89551-.32471s-.34863-.48193-.34863-.79639c0-.32373.11621-.58789.34863-.79297s.53076-.30762.89551-.30762c.36914,0,.66895.10254.89893.30762s.34521.46924.34521.79297c0,.32812-.11523.59717-.34521.80664s-.52979.31445-.89893.31445ZM368.06631,86.14307h-2.16016v-7h2.16016v7Z" fill="#2f2f2f"/>
        <path d="M375.1459,85.89014c-.48779.28271-1.19189.42383-2.1123.42383-1.07568,0-1.9458-.32568-2.61133-.97754s-.99805-1.49268-.99805-2.52246c0-1.18945.35645-2.12695,1.06982-2.81299s1.66699-1.02881,2.86084-1.02881c.82471,0,1.42188.10938,1.79102.32812v1.83203c-.45117-.3374-.95459-.50586-1.51074-.50586-.61963,0-1.11084.18115-1.47314.54346s-.54346.8623-.54346,1.50049c0,.61963.17334,1.10645.51953,1.45947s.82275.52979,1.42871.52979c.5376,0,1.06396-.16846,1.5791-.50586v1.73633Z" fill="#2f2f2f"/>
        <path d="M289.06973,124.76709v-2.1875c.39648.33252.82715.58203,1.29199.74854s.93408.24951,1.4082.24951c.27783,0,.52051-.0249.72803-.0752s.38037-.11963.51953-.2085.24268-.19385.31104-.31445.10254-.25195.10254-.39307c0-.19141-.05469-.3623-.16406-.5127s-.25879-.28955-.44775-.41699-.41357-.25049-.67334-.36914-.54004-.23926-.84082-.3623c-.76562-.31885-1.33643-.7085-1.7124-1.16895s-.56396-1.01611-.56396-1.66797c0-.51025.10254-.94922.30762-1.31592s.48438-.66895.8374-.90576.76221-.41113,1.22705-.52295.95703-.16748,1.47656-.16748c.51025,0,.96289.03076,1.35693.09229s.75781.15625,1.09033.28369v2.04395c-.16406-.11377-.34277-.21436-.53662-.30078s-.39307-.1582-.59814-.21533-.40918-.09912-.61182-.12646-.39551-.04102-.57764-.04102c-.25049,0-.47852.02393-.68359.07178s-.37842.11523-.51953.20166-.25049.19043-.32812.31104-.11621.25635-.11621.40674c0,.16406.04346.31104.12988.44092s.20947.25293.36914.36914.35303.22998.58105.3418.48535.22656.77246.34521c.39209.16406.74414.33838,1.05615.52295s.58008.39307.80322.62549.39404.49805.5127.79639.17773.646.17773,1.04248c0,.54688-.10352,1.00586-.31104,1.37744s-.48877.67236-.84424.90234-.76904.39551-1.24072.49561-.96973.15039-1.49365.15039c-.5376,0-1.04932-.04541-1.53467-.13672s-.90576-.22803-1.26123-.41016Z" fill="#2f2f2f"/>
        <path d="M303.60732,118.14307l-2.84375,7.56055c-.68359,1.81836-1.71338,2.72754-3.08984,2.72754-.52393,0-.95459-.05908-1.29199-.17773v-1.72266c.28711.16846.59912.25293.93652.25293.55615,0,.94336-.26221,1.16211-.78613l.36914-.86816-2.84375-6.98633h2.39258l1.30566,4.25879c.08203.26416.146.57666.19141.93652h.02734c.04102-.26416.11621-.57178.22559-.92285l1.31934-4.27246h2.13965Z" fill="#2f2f2f"/>
        <path d="M304.03848,124.9585v-1.75c.35547.21436.70996.37354,1.06299.47852s.68701.15723,1.00146.15723c.38281,0,.68457-.05225.90576-.15723s.33154-.26416.33154-.47852c0-.13672-.05029-.25049-.15039-.3418s-.229-.1709-.38623-.23926-.3291-.12988-.51611-.18457-.3667-.11621-.54004-.18457c-.27783-.10498-.52295-.21777-.73486-.33838s-.38965-.26074-.5332-.42041-.25293-.34424-.32812-.55371-.11279-.45801-.11279-.74512c0-.39209.08545-.729.25635-1.01172s.39893-.51367.68359-.69385.61084-.31201.97754-.39648.74854-.12646,1.14502-.12646c.31006,0,.62451.02393.94336.07178s.6333.11719.94336.2085v1.66797c-.27344-.15967-.56641-.2793-.87842-.35889s-.61865-.11963-.91943-.11963c-.14111,0-.27441.0127-.3999.0376s-.23584.06152-.33154.10938-.1709.10938-.22559.18457-.08203.16064-.08203.25635c0,.12744.04102.23682.12305.32812s.18896.16992.32129.23584.2793.12549.44092.17773.32227.10596.48193.16064c.28711.1001.54688.20947.7793.32812s.43164.25732.59814.41699.29395.34619.38281.56055.1333.46924.1333.76562c0,.41455-.08984.76904-.27002,1.06299s-.41943.5332-.71777.71777-.64258.31885-1.03223.40332-.79395.12646-1.21338.12646c-.77002,0-1.4834-.11865-2.13965-.35547Z" fill="#2f2f2f"/>
        <path d="M314.84512,125.06104c-.31885.16846-.7998.25293-1.44238.25293-1.52197,0-2.2832-.79053-2.2832-2.37207v-3.20605h-1.13477v-1.59277h1.13477v-1.51074l2.15332-.61523v2.12598h1.57227v1.59277h-1.57227v2.83008c0,.729.28955,1.09375.86816,1.09375.22803,0,.4624-.06592.7041-.19824v1.59961Z" fill="#2f2f2f"/>
        <path d="M322.33145,122.2583h-4.56641c.07275,1.01611.71338,1.52441,1.9209,1.52441.77002,0,1.44678-.18213,2.03027-.54688v1.55859c-.64697.34619-1.48779.51953-2.52246.51953-1.13037,0-2.00732-.31348-2.63184-.93994s-.93652-1.50049-.93652-2.62158c0-1.16211.3374-2.08252,1.01172-2.76172s1.50391-1.01855,2.48828-1.01855c1.021,0,1.81055.30322,2.36865.90918s.8374,1.42871.8374,2.46777v.90918ZM320.32852,120.93213c0-1.00244-.40576-1.50391-1.2168-1.50391-.34619,0-.646.14355-.89893.43066s-.40674.64502-.46143,1.07324h2.57715Z" fill="#2f2f2f"/>
        <path d="M334.81191,125.14307h-2.15332v-3.99219c0-1.01611-.37354-1.52441-1.12109-1.52441-.35547,0-.64502.15283-.86816.45801s-.33496.68604-.33496,1.1416v3.91699h-2.16016v-4.0332c0-.98877-.3667-1.4834-1.10059-1.4834-.36914,0-.66406.146-.88525.4375s-.33154.68799-.33154,1.18945v3.88965h-2.16016v-7h2.16016v1.09375h.02734c.22314-.37354.53662-.67773.93994-.9126s.84424-.35205,1.32275-.35205c.98877,0,1.66553.43506,2.03027,1.30566.5332-.87061,1.31689-1.30566,2.35156-1.30566,1.52197,0,2.2832.93896,2.2832,2.81641v4.35449Z" fill="#2f2f2f"/>
        <path d="M344.61465,125.06104c-.31885.16846-.7998.25293-1.44238.25293-1.52197,0-2.2832-.79053-2.2832-2.37207v-3.20605h-1.13477v-1.59277h1.13477v-1.51074l2.15332-.61523v2.12598h1.57227v1.59277h-1.57227v2.83008c0,.729.28955,1.09375.86816,1.09375.22803,0,.4624-.06592.7041-.19824v1.59961Z" fill="#2f2f2f"/>
        <path d="M349.14736,125.31396c-1.1665,0-2.08398-.32715-2.75146-.98096s-1.00146-1.5415-1.00146-2.6626c0-1.15771.34619-2.06348,1.03906-2.71729s1.62939-.98096,2.80957-.98096c1.16211,0,2.07373.32715,2.73438.98096s.99121,1.51855.99121,2.59424c0,1.16211-.34082,2.08057-1.02197,2.75488s-1.61426,1.01172-2.79932,1.01172ZM349.20205,119.62646c-.51025,0-.90674.17529-1.18945.52637s-.42383.84766-.42383,1.49023c0,1.34424.54248,2.0166,1.62695,2.0166,1.03467,0,1.55176-.69043,1.55176-2.07129,0-1.30811-.52197-1.96191-1.56543-1.96191Z" fill="#2f2f2f"/>
        <path d="M356.53799,124.32959h-.02734v4.0332h-2.16016v-10.21973h2.16016v1.05273h.02734c.5332-.81592,1.28271-1.22363,2.24902-1.22363.90674,0,1.60742.31104,2.10205.93311s.7417,1.46875.7417,2.53955c0,1.1665-.28809,2.10303-.86475,2.80957s-1.34326,1.05957-2.30029,1.05957c-.84326,0-1.48584-.32812-1.92773-.98438ZM356.47646,121.4585v.56055c0,.48291.12744.87744.38281,1.18262s.59033.45801,1.00488.45801c.49219,0,.87402-.19043,1.14502-.5708s.40674-.91943.40674-1.6167c0-1.23047-.47852-1.8457-1.43555-1.8457-.44189,0-.80322.16748-1.0835.50244s-.42041.77832-.42041,1.32959Z" fill="#2f2f2f"/>
        <path d="M364.12588,117.03564c-.36475,0-.66309-.1084-.89551-.32471s-.34863-.48193-.34863-.79639c0-.32373.11621-.58789.34863-.79297s.53076-.30762.89551-.30762c.36914,0,.66895.10254.89893.30762s.34521.46924.34521.79297c0,.32812-.11523.59717-.34521.80664s-.52979.31445-.89893.31445ZM365.19229,125.14307h-2.16016v-7h2.16016v7Z" fill="#2f2f2f"/>
        <path d="M372.27188,124.89014c-.48779.28271-1.19189.42383-2.1123.42383-1.07568,0-1.9458-.32568-2.61133-.97754s-.99805-1.49268-.99805-2.52246c0-1.18945.35645-2.12695,1.06982-2.81299s1.66699-1.02881,2.86084-1.02881c.82471,0,1.42188.10938,1.79102.32812v1.83203c-.45117-.3374-.95459-.50586-1.51074-.50586-.61963,0-1.11084.18115-1.47314.54346s-.54346.8623-.54346,1.50049c0,.61963.17334,1.10645.51953,1.45947s.82275.52979,1.42871.52979c.5376,0,1.06396-.16846,1.5791-.50586v1.73633Z" fill="#2f2f2f"/>
        <path d="M289.5209,164.14307v-9.80273h3.47266c3.48193,0,5.22266,1.59277,5.22266,4.77832,0,1.52686-.4751,2.74561-1.42529,3.65723s-2.21582,1.36719-3.79736,1.36719h-3.47266ZM291.72891,156.13818v6.21387h1.09375c.95703,0,1.70801-.28711,2.25244-.86133s.81689-1.35596.81689-2.34473c0-.93408-.27002-1.66895-.81006-2.20459s-1.29785-.80322-2.27295-.80322h-1.08008Z" fill="#2f2f2f"/>
        <path d="M302.96035,164.31396c-1.1665,0-2.08398-.32715-2.75146-.98096s-1.00146-1.5415-1.00146-2.6626c0-1.15771.34619-2.06348,1.03906-2.71729s1.62939-.98096,2.80957-.98096c1.16211,0,2.07373.32715,2.73438.98096s.99121,1.51855.99121,2.59424c0,1.16211-.34082,2.08057-1.02197,2.75488s-1.61426,1.01172-2.79932,1.01172ZM303.01504,158.62646c-.51025,0-.90674.17529-1.18945.52637s-.42383.84766-.42383,1.49023c0,1.34424.54248,2.0166,1.62695,2.0166,1.03467,0,1.55176-.69043,1.55176-2.07129,0-1.30811-.52197-1.96191-1.56543-1.96191Z" fill="#2f2f2f"/>
        <path d="M319.27725,164.14307h-2.15332v-3.99219c0-1.01611-.37354-1.52441-1.12109-1.52441-.35547,0-.64502.15283-.86816.45801s-.33496.68604-.33496,1.1416v3.91699h-2.16016v-4.0332c0-.98877-.3667-1.4834-1.10059-1.4834-.36914,0-.66406.146-.88525.4375s-.33154.68799-.33154,1.18945v3.88965h-2.16016v-7h2.16016v1.09375h.02734c.22314-.37354.53662-.67773.93994-.9126s.84424-.35205,1.32275-.35205c.98877,0,1.66553.43506,2.03027,1.30566.5332-.87061,1.31689-1.30566,2.35156-1.30566,1.52197,0,2.2832.93896,2.2832,2.81641v4.35449Z" fill="#2f2f2f"/>
        <path d="M326.84268,164.14307h-2.04395v-1.00488h-.02734c-.46924.78369-1.16455,1.17578-2.08496,1.17578-.6792,0-1.21338-.19238-1.60303-.57764s-.58447-.89893-.58447-1.5415c0-1.35791.8042-2.14209,2.41309-2.35156l1.90039-.25293c0-.76562-.41455-1.14844-1.24414-1.14844-.83398,0-1.62695.24854-2.37891.74512v-1.62695c.30078-.15479.71191-.2915,1.23389-.41016s.99707-.17773,1.42529-.17773c1.99609,0,2.99414.99561,2.99414,2.9873v4.18359ZM324.8124,161.29932v-.47168l-1.27148.16406c-.70166.09131-1.05273.40771-1.05273.9502,0,.24609.08545.44775.25635.60498s.40234.23584.69385.23584c.40576,0,.73584-.14014.99121-.42041s.38281-.63477.38281-1.06299Z" fill="#2f2f2f"/>
        <path d="M329.61318,156.03564c-.36475,0-.66309-.1084-.89551-.32471s-.34863-.48193-.34863-.79639c0-.32373.11621-.58789.34863-.79297s.53076-.30762.89551-.30762c.36914,0,.66895.10254.89893.30762s.34521.46924.34521.79297c0,.32812-.11523.59717-.34521.80664s-.52979.31445-.89893.31445ZM330.67959,164.14307h-2.16016v-7h2.16016v7Z" fill="#2f2f2f"/>
        <path d="M339.22646,164.14307h-2.15332v-3.88965c0-1.08447-.38721-1.62695-1.16211-1.62695-.37354,0-.68115.14355-.92285.43066s-.3623.65186-.3623,1.09375v3.99219h-2.16016v-7h2.16016v1.10742h.02734c.51514-.85205,1.26465-1.27832,2.24902-1.27832,1.54932,0,2.32422.96143,2.32422,2.88477v4.28613Z" fill="#2f2f2f"/>
        <path d="M291.72891,199.76611v3.37695h-2.20801v-9.80273h3.45898c2.47021,0,3.70508,1.0415,3.70508,3.12402,0,.98438-.35449,1.78076-1.06299,2.38916s-1.65527.9126-2.84033.9126h-1.05273ZM291.72891,195.03564v3.05566h.86816c1.17578,0,1.76367-.51514,1.76367-1.54492,0-1.00732-.58789-1.51074-1.76367-1.51074h-.86816Z" fill="#2f2f2f"/>
        <path d="M303.51992,203.14307h-2.04395v-1.00488h-.02734c-.46924.78369-1.16455,1.17578-2.08496,1.17578-.6792,0-1.21338-.19238-1.60303-.57764s-.58447-.89893-.58447-1.5415c0-1.35791.8042-2.14209,2.41309-2.35156l1.90039-.25293c0-.76562-.41455-1.14844-1.24414-1.14844-.83398,0-1.62695.24854-2.37891.74512v-1.62695c.30078-.15479.71191-.2915,1.23389-.41016s.99707-.17773,1.42529-.17773c1.99609,0,2.99414.99561,2.99414,2.9873v4.18359ZM301.48965,200.29932v-.47168l-1.27148.16406c-.70166.09131-1.05273.40771-1.05273.9502,0,.24609.08545.44775.25635.60498s.40234.23584.69385.23584c.40576,0,.73584-.14014.99121-.42041s.38281-.63477.38281-1.06299Z" fill="#2f2f2f"/>
        <path d="M309.78262,198.09131c-.25977-.14111-.56299-.21191-.90918-.21191-.46924,0-.83643.17188-1.10059.51611s-.39648.8125-.39648,1.40479v3.34277h-2.16016v-7h2.16016v1.29883h.02734c.3418-.94775.95703-1.42188,1.8457-1.42188.22803,0,.40576.02734.5332.08203v1.98926Z" fill="#2f2f2f"/>
        <path d="M315.31436,203.06104c-.31885.16846-.7998.25293-1.44238.25293-1.52197,0-2.2832-.79053-2.2832-2.37207v-3.20605h-1.13477v-1.59277h1.13477v-1.51074l2.15332-.61523v2.12598h1.57227v1.59277h-1.57227v2.83008c0,.729.28955,1.09375.86816,1.09375.22803,0,.4624-.06592.7041-.19824v1.59961Z" fill="#2f2f2f"/>
        <path d="M323.4252,203.14307h-2.15332v-3.88965c0-1.08447-.38721-1.62695-1.16211-1.62695-.37354,0-.68115.14355-.92285.43066s-.3623.65186-.3623,1.09375v3.99219h-2.16016v-7h2.16016v1.10742h.02734c.51514-.85205,1.26465-1.27832,2.24902-1.27832,1.54932,0,2.32422.96143,2.32422,2.88477v4.28613Z" fill="#2f2f2f"/>
        <path d="M331.44668,200.2583h-4.56641c.07275,1.01611.71338,1.52441,1.9209,1.52441.77002,0,1.44678-.18213,2.03027-.54688v1.55859c-.64697.34619-1.48779.51953-2.52246.51953-1.13037,0-2.00732-.31348-2.63184-.93994s-.93652-1.50049-.93652-2.62158c0-1.16211.3374-2.08252,1.01172-2.76172s1.50391-1.01855,2.48828-1.01855c1.021,0,1.81055.30322,2.36865.90918s.8374,1.42871.8374,2.46777v.90918ZM329.44375,198.93213c0-1.00244-.40576-1.50391-1.2168-1.50391-.34619,0-.646.14355-.89893.43066s-.40674.64502-.46143,1.07324h2.57715Z" fill="#2f2f2f"/>
        <path d="M337.37832,198.09131c-.25977-.14111-.56299-.21191-.90918-.21191-.46924,0-.83643.17188-1.10059.51611s-.39648.8125-.39648,1.40479v3.34277h-2.16016v-7h2.16016v1.29883h.02734c.3418-.94775.95703-1.42188,1.8457-1.42188.22803,0,.40576.02734.5332.08203v1.98926Z" fill="#2f2f2f"/>
        <path d="M346.47695,203.06104c-.31885.16846-.7998.25293-1.44238.25293-1.52197,0-2.2832-.79053-2.2832-2.37207v-3.20605h-1.13477v-1.59277h1.13477v-1.51074l2.15332-.61523v2.12598h1.57227v1.59277h-1.57227v2.83008c0,.729.28955,1.09375.86816,1.09375.22803,0,.4624-.06592.7041-.19824v1.59961Z" fill="#2f2f2f"/>
        <path d="M351.01016,203.31396c-1.1665,0-2.08398-.32715-2.75146-.98096s-1.00146-1.5415-1.00146-2.6626c0-1.15771.34619-2.06348,1.03906-2.71729s1.62939-.98096,2.80957-.98096c1.16211,0,2.07373.32715,2.73438.98096s.99121,1.51855.99121,2.59424c0,1.16211-.34082,2.08057-1.02197,2.75488s-1.61426,1.01172-2.79932,1.01172ZM351.06484,197.62646c-.51025,0-.90674.17529-1.18945.52637s-.42383.84766-.42383,1.49023c0,1.34424.54248,2.0166,1.62695,2.0166,1.03467,0,1.55176-.69043,1.55176-2.07129,0-1.30811-.52197-1.96191-1.56543-1.96191Z" fill="#2f2f2f"/>
        <path d="M358.40078,202.32959h-.02734v4.0332h-2.16016v-10.21973h2.16016v1.05273h.02734c.5332-.81592,1.28271-1.22363,2.24902-1.22363.90674,0,1.60742.31104,2.10205.93311s.7417,1.46875.7417,2.53955c0,1.1665-.28809,2.10303-.86475,2.80957s-1.34326,1.05957-2.30029,1.05957c-.84326,0-1.48584-.32812-1.92773-.98438ZM358.33926,199.4585v.56055c0,.48291.12744.87744.38281,1.18262s.59033.45801,1.00488.45801c.49219,0,.87402-.19043,1.14502-.5708s.40674-.91943.40674-1.6167c0-1.23047-.47852-1.8457-1.43555-1.8457-.44189,0-.80322.16748-1.0835.50244s-.42041.77832-.42041,1.32959Z" fill="#2f2f2f"/>
        <path d="M365.98867,195.03564c-.36475,0-.66309-.1084-.89551-.32471s-.34863-.48193-.34863-.79639c0-.32373.11621-.58789.34863-.79297s.53076-.30762.89551-.30762c.36914,0,.66895.10254.89893.30762s.34521.46924.34521.79297c0,.32812-.11523.59717-.34521.80664s-.52979.31445-.89893.31445ZM367.05508,203.14307h-2.16016v-7h2.16016v7Z" fill="#2f2f2f"/>
        <path d="M374.13467,202.89014c-.48779.28271-1.19189.42383-2.1123.42383-1.07568,0-1.9458-.32568-2.61133-.97754s-.99805-1.49268-.99805-2.52246c0-1.18945.35645-2.12695,1.06982-2.81299s1.66699-1.02881,2.86084-1.02881c.82471,0,1.42188.10938,1.79102.32812v1.83203c-.45117-.3374-.95459-.50586-1.51074-.50586-.61963,0-1.11084.18115-1.47314.54346s-.54346.8623-.54346,1.50049c0,.61963.17334,1.10645.51953,1.45947s.82275.52979,1.42871.52979c.5376,0,1.06396-.16846,1.5791-.50586v1.73633Z" fill="#2f2f2f"/>
        <path d="M289.06973,241.76709v-2.1875c.39648.33252.82715.58203,1.29199.74854s.93408.24951,1.4082.24951c.27783,0,.52051-.0249.72803-.0752s.38037-.11963.51953-.2085.24268-.19385.31104-.31445.10254-.25195.10254-.39307c0-.19141-.05469-.3623-.16406-.5127s-.25879-.28955-.44775-.41699-.41357-.25049-.67334-.36914-.54004-.23926-.84082-.3623c-.76562-.31885-1.33643-.7085-1.7124-1.16895s-.56396-1.01611-.56396-1.66797c0-.51025.10254-.94922.30762-1.31592s.48438-.66895.8374-.90576.76221-.41113,1.22705-.52295.95703-.16748,1.47656-.16748c.51025,0,.96289.03076,1.35693.09229s.75781.15625,1.09033.28369v2.04395c-.16406-.11377-.34277-.21436-.53662-.30078s-.39307-.1582-.59814-.21533-.40918-.09912-.61182-.12646-.39551-.04102-.57764-.04102c-.25049,0-.47852.02393-.68359.07178s-.37842.11523-.51953.20166-.25049.19043-.32812.31104-.11621.25635-.11621.40674c0,.16406.04346.31104.12988.44092s.20947.25293.36914.36914.35303.22998.58105.3418.48535.22656.77246.34521c.39209.16406.74414.33838,1.05615.52295s.58008.39307.80322.62549.39404.49805.5127.79639.17773.646.17773,1.04248c0,.54688-.10352,1.00586-.31104,1.37744s-.48877.67236-.84424.90234-.76904.39551-1.24072.49561-.96973.15039-1.49365.15039c-.5376,0-1.04932-.04541-1.53467-.13672s-.90576-.22803-1.26123-.41016Z" fill="#2f2f2f"/>
        <path d="M303.80801,242.14307h-2.15332v-1.06641h-.03418c-.5332.82471-1.24658,1.2373-2.13965,1.2373-1.62256,0-2.43359-.98193-2.43359-2.94629v-4.22461h2.15332v4.0332c0,.98877.39209,1.4834,1.17578,1.4834.38721,0,.69727-.13574.92969-.40674s.34863-.63916.34863-1.104v-4.00586h2.15332v7Z" fill="#2f2f2f"/>
        <path d="M307.76357,241.32959h-.02734v.81348h-2.16016v-10.36328h2.16016v4.41602h.02734c.5332-.81592,1.29199-1.22363,2.27637-1.22363.90234,0,1.59717.31006,2.08496.92969s.73145,1.46729.73145,2.54297c0,1.1665-.28467,2.10303-.85449,2.80957s-1.33057,1.05957-2.2832,1.05957c-.86133,0-1.51318-.32812-1.95508-.98438ZM307.70205,238.37646v.71777c0,.45117.12988.82471.38965,1.12109s.59229.44434.99805.44434c.49219,0,.87402-.19043,1.14502-.5708s.40674-.91943.40674-1.6167c0-.57861-.12402-1.03125-.37256-1.35693s-.60254-.48877-1.06299-.48877c-.43311,0-.79199.16162-1.07666.48535s-.42725.74512-.42725,1.26465Z" fill="#2f2f2f"/>
        <path d="M313.89639,241.9585v-1.75c.35547.21436.70996.37354,1.06299.47852s.68701.15723,1.00146.15723c.38281,0,.68457-.05225.90576-.15723s.33154-.26416.33154-.47852c0-.13672-.05029-.25049-.15039-.3418s-.229-.1709-.38623-.23926-.3291-.12988-.51611-.18457-.3667-.11621-.54004-.18457c-.27783-.10498-.52295-.21777-.73486-.33838s-.38965-.26074-.5332-.42041-.25293-.34424-.32812-.55371-.11279-.45801-.11279-.74512c0-.39209.08545-.729.25635-1.01172s.39893-.51367.68359-.69385.61084-.31201.97754-.39648.74854-.12646,1.14502-.12646c.31006,0,.62451.02393.94336.07178s.6333.11719.94336.2085v1.66797c-.27344-.15967-.56641-.2793-.87842-.35889s-.61865-.11963-.91943-.11963c-.14111,0-.27441.0127-.3999.0376s-.23584.06152-.33154.10938-.1709.10938-.22559.18457-.08203.16064-.08203.25635c0,.12744.04102.23682.12305.32812s.18896.16992.32129.23584.2793.12549.44092.17773.32227.10596.48193.16064c.28711.1001.54688.20947.7793.32812s.43164.25732.59814.41699.29395.34619.38281.56055.1333.46924.1333.76562c0,.41455-.08984.76904-.27002,1.06299s-.41943.5332-.71777.71777-.64258.31885-1.03223.40332-.79395.12646-1.21338.12646c-.77002,0-1.4834-.11865-2.13965-.35547Z" fill="#2f2f2f"/>
        <path d="M325.86172,241.89014c-.48779.28271-1.19189.42383-2.1123.42383-1.07568,0-1.9458-.32568-2.61133-.97754s-.99805-1.49268-.99805-2.52246c0-1.18945.35645-2.12695,1.06982-2.81299s1.66699-1.02881,2.86084-1.02881c.82471,0,1.42188.10938,1.79102.32812v1.83203c-.45117-.3374-.95459-.50586-1.51074-.50586-.61963,0-1.11084.18115-1.47314.54346s-.54346.8623-.54346,1.50049c0,.61963.17334,1.10645.51953,1.45947s.82275.52979,1.42871.52979c.5376,0,1.06396-.16846,1.5791-.50586v1.73633Z" fill="#2f2f2f"/>
        <path d="M331.94521,237.09131c-.25977-.14111-.56299-.21191-.90918-.21191-.46924,0-.83643.17188-1.10059.51611s-.39648.8125-.39648,1.40479v3.34277h-2.16016v-7h2.16016v1.29883h.02734c.3418-.94775.95703-1.42188,1.8457-1.42188.22803,0,.40576.02734.5332.08203v1.98926Z" fill="#2f2f2f"/>
        <path d="M334.03115,234.03564c-.36475,0-.66309-.1084-.89551-.32471s-.34863-.48193-.34863-.79639c0-.32373.11621-.58789.34863-.79297s.53076-.30762.89551-.30762c.36914,0,.66895.10254.89893.30762s.34521.46924.34521.79297c0,.32812-.11523.59717-.34521.80664s-.52979.31445-.89893.31445ZM335.09756,242.14307h-2.16016v-7h2.16016v7Z" fill="#2f2f2f"/>
        <path d="M339.0668,241.32959h-.02734v4.0332h-2.16016v-10.21973h2.16016v1.05273h.02734c.5332-.81592,1.28271-1.22363,2.24902-1.22363.90674,0,1.60742.31104,2.10205.93311s.7417,1.46875.7417,2.53955c0,1.1665-.28809,2.10303-.86475,2.80957s-1.34326,1.05957-2.30029,1.05957c-.84326,0-1.48584-.32812-1.92773-.98438ZM339.00527,238.4585v.56055c0,.48291.12744.87744.38281,1.18262s.59033.45801,1.00488.45801c.49219,0,.87402-.19043,1.14502-.5708s.40674-.91943.40674-1.6167c0-1.23047-.47852-1.8457-1.43555-1.8457-.44189,0-.80322.16748-1.0835.50244s-.42041.77832-.42041,1.32959Z" fill="#2f2f2f"/>
        <path d="M349.78555,242.06104c-.31885.16846-.7998.25293-1.44238.25293-1.52197,0-2.2832-.79053-2.2832-2.37207v-3.20605h-1.13477v-1.59277h1.13477v-1.51074l2.15332-.61523v2.12598h1.57227v1.59277h-1.57227v2.83008c0,.729.28955,1.09375.86816,1.09375.22803,0,.4624-.06592.7041-.19824v1.59961Z" fill="#2f2f2f"/>
        <path d="M352.16348,234.03564c-.36475,0-.66309-.1084-.89551-.32471s-.34863-.48193-.34863-.79639c0-.32373.11621-.58789.34863-.79297s.53076-.30762.89551-.30762c.36914,0,.66895.10254.89893.30762s.34521.46924.34521.79297c0,.32812-.11523.59717-.34521.80664s-.52979.31445-.89893.31445ZM353.22988,242.14307h-2.16016v-7h2.16016v7Z" fill="#2f2f2f"/>
        <path d="M358.34072,242.31396c-1.1665,0-2.08398-.32715-2.75146-.98096s-1.00146-1.5415-1.00146-2.6626c0-1.15771.34619-2.06348,1.03906-2.71729s1.62939-.98096,2.80957-.98096c1.16211,0,2.07373.32715,2.73438.98096s.99121,1.51855.99121,2.59424c0,1.16211-.34082,2.08057-1.02197,2.75488s-1.61426,1.01172-2.79932,1.01172ZM358.39541,236.62646c-.51025,0-.90674.17529-1.18945.52637s-.42383.84766-.42383,1.49023c0,1.34424.54248,2.0166,1.62695,2.0166,1.03467,0,1.55176-.69043,1.55176-2.07129,0-1.30811-.52197-1.96191-1.56543-1.96191Z" fill="#2f2f2f"/>
        <path d="M370.30313,242.14307h-2.15332v-3.88965c0-1.08447-.38721-1.62695-1.16211-1.62695-.37354,0-.68115.14355-.92285.43066s-.3623.65186-.3623,1.09375v3.99219h-2.16016v-7h2.16016v1.10742h.02734c.51514-.85205,1.26465-1.27832,2.24902-1.27832,1.54932,0,2.32422.96143,2.32422,2.88477v4.28613Z" fill="#2f2f2f"/>
        <path d="M298.33926,281.14307h-2.22852l-4.04004-6.15918c-.23682-.35986-.40088-.63135-.49219-.81348h-.02734c.03662.34619.05469.875.05469,1.58594v5.38672h-2.08496v-9.80273h2.37891l3.88965,5.96777c.17773.26904.3418.53564.49219.7998h.02734c-.03662-.22803-.05469-.67676-.05469-1.34668v-5.4209h2.08496v9.80273Z" fill="#2f2f2f"/>
        <path d="M306.16592,281.14307h-2.04395v-1.00488h-.02734c-.46924.78369-1.16455,1.17578-2.08496,1.17578-.6792,0-1.21338-.19238-1.60303-.57764s-.58447-.89893-.58447-1.5415c0-1.35791.8042-2.14209,2.41309-2.35156l1.90039-.25293c0-.76562-.41455-1.14844-1.24414-1.14844-.83398,0-1.62695.24854-2.37891.74512v-1.62695c.30078-.15479.71191-.2915,1.23389-.41016s.99707-.17773,1.42529-.17773c1.99609,0,2.99414.99561,2.99414,2.9873v4.18359ZM304.13564,278.29932v-.47168l-1.27148.16406c-.70166.09131-1.05273.40771-1.05273.9502,0,.24609.08545.44775.25635.60498s.40234.23584.69385.23584c.40576,0,.73584-.14014.99121-.42041s.38281-.63477.38281-1.06299Z" fill="#2f2f2f"/>
        <path d="M318.97744,281.14307h-2.15332v-3.99219c0-1.01611-.37354-1.52441-1.12109-1.52441-.35547,0-.64502.15283-.86816.45801s-.33496.68604-.33496,1.1416v3.91699h-2.16016v-4.0332c0-.98877-.3667-1.4834-1.10059-1.4834-.36914,0-.66406.146-.88525.4375s-.33154.68799-.33154,1.18945v3.88965h-2.16016v-7h2.16016v1.09375h.02734c.22314-.37354.53662-.67773.93994-.9126s.84424-.35205,1.32275-.35205c.98877,0,1.66553.43506,2.03027,1.30566.5332-.87061,1.31689-1.30566,2.35156-1.30566,1.52197,0,2.2832.93896,2.2832,2.81641v4.35449Z" fill="#2f2f2f"/>
        <path d="M326.99795,278.2583h-4.56641c.07275,1.01611.71338,1.52441,1.9209,1.52441.77002,0,1.44678-.18213,2.03027-.54688v1.55859c-.64697.34619-1.48779.51953-2.52246.51953-1.13037,0-2.00732-.31348-2.63184-.93994s-.93652-1.50049-.93652-2.62158c0-1.16211.3374-2.08252,1.01172-2.76172s1.50391-1.01855,2.48828-1.01855c1.021,0,1.81055.30322,2.36865.90918s.8374,1.42871.8374,2.46777v.90918ZM324.99502,276.93213c0-1.00244-.40576-1.50391-1.2168-1.50391-.34619,0-.646.14355-.89893.43066s-.40674.64502-.46143,1.07324h2.57715Z" fill="#2f2f2f"/>
        <path d="M327.98574,280.9585v-1.75c.35547.21436.70996.37354,1.06299.47852s.68701.15723,1.00146.15723c.38281,0,.68457-.05225.90576-.15723s.33154-.26416.33154-.47852c0-.13672-.05029-.25049-.15039-.3418s-.229-.1709-.38623-.23926-.3291-.12988-.51611-.18457-.3667-.11621-.54004-.18457c-.27783-.10498-.52295-.21777-.73486-.33838s-.38965-.26074-.5332-.42041-.25293-.34424-.32812-.55371-.11279-.45801-.11279-.74512c0-.39209.08545-.729.25635-1.01172s.39893-.51367.68359-.69385.61084-.31201.97754-.39648.74854-.12646,1.14502-.12646c.31006,0,.62451.02393.94336.07178s.6333.11719.94336.2085v1.66797c-.27344-.15967-.56641-.2793-.87842-.35889s-.61865-.11963-.91943-.11963c-.14111,0-.27441.0127-.3999.0376s-.23584.06152-.33154.10938-.1709.10938-.22559.18457-.08203.16064-.08203.25635c0,.12744.04102.23682.12305.32812s.18896.16992.32129.23584.2793.12549.44092.17773.32227.10596.48193.16064c.28711.1001.54688.20947.7793.32812s.43164.25732.59814.41699.29395.34619.38281.56055.1333.46924.1333.76562c0,.41455-.08984.76904-.27002,1.06299s-.41943.5332-.71777.71777-.64258.31885-1.03223.40332-.79395.12646-1.21338.12646c-.77002,0-1.4834-.11865-2.13965-.35547Z" fill="#2f2f2f"/>
        <path d="M336.84951,280.32959h-.02734v4.0332h-2.16016v-10.21973h2.16016v1.05273h.02734c.5332-.81592,1.28271-1.22363,2.24902-1.22363.90674,0,1.60742.31104,2.10205.93311s.7417,1.46875.7417,2.53955c0,1.1665-.28809,2.10303-.86475,2.80957s-1.34326,1.05957-2.30029,1.05957c-.84326,0-1.48584-.32812-1.92773-.98438ZM336.78799,277.4585v.56055c0,.48291.12744.87744.38281,1.18262s.59033.45801,1.00488.45801c.49219,0,.87402-.19043,1.14502-.5708s.40674-.91943.40674-1.6167c0-1.23047-.47852-1.8457-1.43555-1.8457-.44189,0-.80322.16748-1.0835.50244s-.42041.77832-.42041,1.32959Z" fill="#2f2f2f"/>
        <path d="M349.17471,281.14307h-2.04395v-1.00488h-.02734c-.46924.78369-1.16455,1.17578-2.08496,1.17578-.6792,0-1.21338-.19238-1.60303-.57764s-.58447-.89893-.58447-1.5415c0-1.35791.8042-2.14209,2.41309-2.35156l1.90039-.25293c0-.76562-.41455-1.14844-1.24414-1.14844-.83398,0-1.62695.24854-2.37891.74512v-1.62695c.30078-.15479.71191-.2915,1.23389-.41016s.99707-.17773,1.42529-.17773c1.99609,0,2.99414.99561,2.99414,2.9873v4.18359ZM347.14443,278.29932v-.47168l-1.27148.16406c-.70166.09131-1.05273.40771-1.05273.9502,0,.24609.08545.44775.25635.60498s.40234.23584.69385.23584c.40576,0,.73584-.14014.99121-.42041s.38281-.63477.38281-1.06299Z" fill="#2f2f2f"/>
        <path d="M356.18838,280.89014c-.48779.28271-1.19189.42383-2.1123.42383-1.07568,0-1.9458-.32568-2.61133-.97754s-.99805-1.49268-.99805-2.52246c0-1.18945.35645-2.12695,1.06982-2.81299s1.66699-1.02881,2.86084-1.02881c.82471,0,1.42188.10938,1.79102.32812v1.83203c-.45117-.3374-.95459-.50586-1.51074-.50586-.61963,0-1.11084.18115-1.47314.54346s-.54346.8623-.54346,1.50049c0,.61963.17334,1.10645.51953,1.45947s.82275.52979,1.42871.52979c.5376,0,1.06396-.16846,1.5791-.50586v1.73633Z" fill="#2f2f2f"/>
        <path d="M363.90371,278.2583h-4.56641c.07275,1.01611.71338,1.52441,1.9209,1.52441.77002,0,1.44678-.18213,2.03027-.54688v1.55859c-.64697.34619-1.48779.51953-2.52246.51953-1.13037,0-2.00732-.31348-2.63184-.93994s-.93652-1.50049-.93652-2.62158c0-1.16211.3374-2.08252,1.01172-2.76172s1.50391-1.01855,2.48828-1.01855c1.021,0,1.81055.30322,2.36865.90918s.8374,1.42871.8374,2.46777v.90918ZM361.90078,276.93213c0-1.00244-.40576-1.50391-1.2168-1.50391-.34619,0-.646.14355-.89893.43066s-.40674.64502-.46143,1.07324h2.57715Z" fill="#2f2f2f"/>
      </g>
      <g>
        <path d="M263.4374,31.94238h-2.40625l-.69727-2.18066h-3.48633l-.69043,2.18066h-2.39258l3.56836-9.80273h2.61816l3.48633,9.80273ZM259.82803,28.06641l-1.05273-3.29492c-.07764-.24609-.13232-.54004-.16406-.88184h-.05469c-.02295.28711-.07959.57178-.1709.85449l-1.06641,3.32227h2.50879Z" fill="#2f2f2f"/>
        <path d="M270.80215,24.94238l-2.60449,7h-2.46094l-2.48145-7h2.31055l1.2168,4.31348c.13672.48779.21631.90234.23926,1.24414h.02734c.03174-.32373.11621-.72461.25293-1.20312l1.24414-4.35449h2.25586Z" fill="#2f2f2f"/>
        <path d="M277.45791,31.94238h-2.04395v-1.00488h-.02734c-.46924.78369-1.16455,1.17578-2.08496,1.17578-.6792,0-1.21338-.19238-1.60303-.57764s-.58447-.89893-.58447-1.5415c0-1.35791.8042-2.14209,2.41309-2.35156l1.90039-.25293c0-.76562-.41455-1.14844-1.24414-1.14844-.83398,0-1.62695.24854-2.37891.74512v-1.62695c.30078-.15479.71191-.2915,1.23389-.41016s.99707-.17773,1.42529-.17773c1.99609,0,2.99414.99561,2.99414,2.9873v4.18359ZM275.42764,29.09863v-.47168l-1.27148.16406c-.70166.09131-1.05273.40771-1.05273.9502,0,.24609.08545.44775.25635.60498s.40234.23584.69385.23584c.40576,0,.73584-.14014.99121-.42041s.38281-.63477.38281-1.06299Z" fill="#2f2f2f"/>
        <path d="M280.22842,23.83496c-.36475,0-.66309-.1084-.89551-.32471s-.34863-.48193-.34863-.79639c0-.32373.11621-.58789.34863-.79297s.53076-.30762.89551-.30762c.36914,0,.66895.10254.89893.30762s.34521.46924.34521.79297c0,.32812-.11523.59717-.34521.80664s-.52979.31445-.89893.31445ZM281.29482,31.94238h-2.16016v-7h2.16016v7Z" fill="#2f2f2f"/>
        <path d="M285.22988,31.94238h-2.16016v-10.36328h2.16016v10.36328Z" fill="#2f2f2f"/>
        <path d="M292.89492,31.94238h-2.04395v-1.00488h-.02734c-.46924.78369-1.16455,1.17578-2.08496,1.17578-.6792,0-1.21338-.19238-1.60303-.57764s-.58447-.89893-.58447-1.5415c0-1.35791.8042-2.14209,2.41309-2.35156l1.90039-.25293c0-.76562-.41455-1.14844-1.24414-1.14844-.83398,0-1.62695.24854-2.37891.74512v-1.62695c.30078-.15479.71191-.2915,1.23389-.41016s.99707-.17773,1.42529-.17773c1.99609,0,2.99414.99561,2.99414,2.9873v4.18359ZM290.86465,29.09863v-.47168l-1.27148.16406c-.70166.09131-1.05273.40771-1.05273.9502,0,.24609.08545.44775.25635.60498s.40234.23584.69385.23584c.40576,0,.73584-.14014.99121-.42041s.38281-.63477.38281-1.06299Z" fill="#2f2f2f"/>
        <path d="M296.77871,31.12891h-.02734v.81348h-2.16016v-10.36328h2.16016v4.41602h.02734c.5332-.81592,1.29199-1.22363,2.27637-1.22363.90234,0,1.59717.31006,2.08496.92969s.73145,1.46729.73145,2.54297c0,1.1665-.28467,2.10303-.85449,2.80957s-1.33057,1.05957-2.2832,1.05957c-.86133,0-1.51318-.32812-1.95508-.98438ZM296.71719,28.17578v.71777c0,.45117.12988.82471.38965,1.12109s.59229.44434.99805.44434c.49219,0,.87402-.19043,1.14502-.5708s.40674-.91943.40674-1.6167c0-.57861-.12402-1.03125-.37256-1.35693s-.60254-.48877-1.06299-.48877c-.43311,0-.79199.16162-1.07666.48535s-.42725.74512-.42725,1.26465Z" fill="#2f2f2f"/>
        <path d="M304.3666,23.83496c-.36475,0-.66309-.1084-.89551-.32471s-.34863-.48193-.34863-.79639c0-.32373.11621-.58789.34863-.79297s.53076-.30762.89551-.30762c.36914,0,.66895.10254.89893.30762s.34521.46924.34521.79297c0,.32812-.11523.59717-.34521.80664s-.52979.31445-.89893.31445ZM305.43301,31.94238h-2.16016v-7h2.16016v7Z" fill="#2f2f2f"/>
        <path d="M309.36855,31.94238h-2.16016v-10.36328h2.16016v10.36328Z" fill="#2f2f2f"/>
        <path d="M312.23721,23.83496c-.36475,0-.66309-.1084-.89551-.32471s-.34863-.48193-.34863-.79639c0-.32373.11621-.58789.34863-.79297s.53076-.30762.89551-.30762c.36914,0,.66895.10254.89893.30762s.34521.46924.34521.79297c0,.32812-.11523.59717-.34521.80664s-.52979.31445-.89893.31445ZM313.30361,31.94238h-2.16016v-7h2.16016v7Z" fill="#2f2f2f"/>
        <path d="M319.23965,31.86035c-.31885.16846-.7998.25293-1.44238.25293-1.52197,0-2.2832-.79053-2.2832-2.37207v-3.20605h-1.13477v-1.59277h1.13477v-1.51074l2.15332-.61523v2.12598h1.57227v1.59277h-1.57227v2.83008c0,.729.28955,1.09375.86816,1.09375.22803,0,.4624-.06592.7041-.19824v1.59961Z" fill="#2f2f2f"/>
        <path d="M327.46475,24.94238l-2.84375,7.56055c-.68359,1.81836-1.71338,2.72754-3.08984,2.72754-.52393,0-.95459-.05908-1.29199-.17773v-1.72266c.28711.16846.59912.25293.93652.25293.55615,0,.94336-.26221,1.16211-.78613l.36914-.86816-2.84375-6.98633h2.39258l1.30566,4.25879c.08203.26416.146.57666.19141.93652h.02734c.04102-.26416.11621-.57178.22559-.92285l1.31934-4.27246h2.13965Z" fill="#2f2f2f"/>
        <path d="M339.46182,31.94238h-7.89551v-1.27148l5.02441-6.7334h-4.66211v-1.79785h7.51953v1.2373l-4.91504,6.77441h4.92871v1.79102Z" fill="#2f2f2f"/>
        <path d="M343.98037,32.11328c-1.1665,0-2.08398-.32715-2.75146-.98096s-1.00146-1.5415-1.00146-2.6626c0-1.15771.34619-2.06348,1.03906-2.71729s1.62939-.98096,2.80957-.98096c1.16211,0,2.07373.32715,2.73438.98096s.99121,1.51855.99121,2.59424c0,1.16211-.34082,2.08057-1.02197,2.75488s-1.61426,1.01172-2.79932,1.01172ZM344.03506,26.42578c-.51025,0-.90674.17529-1.18945.52637s-.42383.84766-.42383,1.49023c0,1.34424.54248,2.0166,1.62695,2.0166,1.03467,0,1.55176-.69043,1.55176-2.07129,0-1.30811-.52197-1.96191-1.56543-1.96191Z" fill="#2f2f2f"/>
        <path d="M355.94277,31.94238h-2.15332v-3.88965c0-1.08447-.38721-1.62695-1.16211-1.62695-.37354,0-.68115.14355-.92285.43066s-.3623.65186-.3623,1.09375v3.99219h-2.16016v-7h2.16016v1.10742h.02734c.51514-.85205,1.26465-1.27832,2.24902-1.27832,1.54932,0,2.32422.96143,2.32422,2.88477v4.28613Z" fill="#2f2f2f"/>
        <path d="M363.96475,29.05762h-4.56641c.07275,1.01611.71338,1.52441,1.9209,1.52441.77002,0,1.44678-.18213,2.03027-.54688v1.55859c-.64697.34619-1.48779.51953-2.52246.51953-1.13037,0-2.00732-.31348-2.63184-.93994s-.93652-1.50049-.93652-2.62158c0-1.16211.3374-2.08252,1.01172-2.76172s1.50391-1.01855,2.48828-1.01855c1.021,0,1.81055.30322,2.36865.90918s.8374,1.42871.8374,2.46777v.90918ZM361.96182,27.73145c0-1.00244-.40576-1.50391-1.2168-1.50391-.34619,0-.646.14355-.89893.43066s-.40674.64502-.46143,1.07324h2.57715Z" fill="#2f2f2f"/>
        <path d="M371.13564,30.15137h4.15625v1.79102h-6.52148v-.73828c0-.50146.08447-.95117.25293-1.3501s.38037-.75635.63574-1.07324.53418-.59717.8374-.84082.59131-.46387.86475-.65967c.28711-.20508.53906-.40088.75537-.58789s.39893-.37256.54688-.55713.25879-.37158.33154-.56055.10938-.39062.10938-.60498c0-.41943-.11865-.73584-.35547-.9502s-.59912-.32129-1.08691-.32129c-.84326,0-1.6499.33496-2.41992,1.00488v-1.90039c.85205-.55127,1.81396-.82715,2.88477-.82715.49658,0,.94238.06494,1.33643.19482s.72803.31543,1.00146.55713.48193.53418.62549.87842.21533.72803.21533,1.15186c0,.45117-.06934.85205-.2085,1.20312s-.32373.66992-.55371.95703-.49561.55029-.79639.78955-.61279.4707-.93652.69385c-.21875.15479-.42969.30859-.63232.46143s-.38184.30322-.53662.45117-.27783.29297-.36914.43408-.13672.27588-.13672.40332Z" fill="#2f2f2f"/>
      </g>
      <g>
        <path d="M56.22207,31.94238h-2.40625l-.69727-2.18066h-3.48633l-.69043,2.18066h-2.39258l3.56836-9.80273h2.61816l3.48633,9.80273ZM52.6127,28.06641l-1.05273-3.29492c-.07764-.24609-.13232-.54004-.16406-.88184h-.05469c-.02295.28711-.07959.57178-.1709.85449l-1.06641,3.32227h2.50879Z" fill="#2f2f2f"/>
        <path d="M63.58682,24.94238l-2.60449,7h-2.46094l-2.48145-7h2.31055l1.2168,4.31348c.13672.48779.21631.90234.23926,1.24414h.02734c.03174-.32373.11621-.72461.25293-1.20312l1.24414-4.35449h2.25586Z" fill="#2f2f2f"/>
        <path d="M70.24258,31.94238h-2.04395v-1.00488h-.02734c-.46924.78369-1.16455,1.17578-2.08496,1.17578-.6792,0-1.21338-.19238-1.60303-.57764s-.58447-.89893-.58447-1.5415c0-1.35791.8042-2.14209,2.41309-2.35156l1.90039-.25293c0-.76562-.41455-1.14844-1.24414-1.14844-.83398,0-1.62695.24854-2.37891.74512v-1.62695c.30078-.15479.71191-.2915,1.23389-.41016s.99707-.17773,1.42529-.17773c1.99609,0,2.99414.99561,2.99414,2.9873v4.18359ZM68.2123,29.09863v-.47168l-1.27148.16406c-.70166.09131-1.05273.40771-1.05273.9502,0,.24609.08545.44775.25635.60498s.40234.23584.69385.23584c.40576,0,.73584-.14014.99121-.42041s.38281-.63477.38281-1.06299Z" fill="#2f2f2f"/>
        <path d="M73.01309,23.83496c-.36475,0-.66309-.1084-.89551-.32471s-.34863-.48193-.34863-.79639c0-.32373.11621-.58789.34863-.79297s.53076-.30762.89551-.30762c.36914,0,.66895.10254.89893.30762s.34521.46924.34521.79297c0,.32812-.11523.59717-.34521.80664s-.52979.31445-.89893.31445ZM74.07949,31.94238h-2.16016v-7h2.16016v7Z" fill="#2f2f2f"/>
        <path d="M78.01455,31.94238h-2.16016v-10.36328h2.16016v10.36328Z" fill="#2f2f2f"/>
        <path d="M85.67959,31.94238h-2.04395v-1.00488h-.02734c-.46924.78369-1.16455,1.17578-2.08496,1.17578-.6792,0-1.21338-.19238-1.60303-.57764s-.58447-.89893-.58447-1.5415c0-1.35791.8042-2.14209,2.41309-2.35156l1.90039-.25293c0-.76562-.41455-1.14844-1.24414-1.14844-.83398,0-1.62695.24854-2.37891.74512v-1.62695c.30078-.15479.71191-.2915,1.23389-.41016s.99707-.17773,1.42529-.17773c1.99609,0,2.99414.99561,2.99414,2.9873v4.18359ZM83.64932,29.09863v-.47168l-1.27148.16406c-.70166.09131-1.05273.40771-1.05273.9502,0,.24609.08545.44775.25635.60498s.40234.23584.69385.23584c.40576,0,.73584-.14014.99121-.42041s.38281-.63477.38281-1.06299Z" fill="#2f2f2f"/>
        <path d="M89.56338,31.12891h-.02734v.81348h-2.16016v-10.36328h2.16016v4.41602h.02734c.5332-.81592,1.29199-1.22363,2.27637-1.22363.90234,0,1.59717.31006,2.08496.92969s.73145,1.46729.73145,2.54297c0,1.1665-.28467,2.10303-.85449,2.80957s-1.33057,1.05957-2.2832,1.05957c-.86133,0-1.51318-.32812-1.95508-.98438ZM89.50186,28.17578v.71777c0,.45117.12988.82471.38965,1.12109s.59229.44434.99805.44434c.49219,0,.87402-.19043,1.14502-.5708s.40674-.91943.40674-1.6167c0-.57861-.12402-1.03125-.37256-1.35693s-.60254-.48877-1.06299-.48877c-.43311,0-.79199.16162-1.07666.48535s-.42725.74512-.42725,1.26465Z" fill="#2f2f2f"/>
        <path d="M97.15127,23.83496c-.36475,0-.66309-.1084-.89551-.32471s-.34863-.48193-.34863-.79639c0-.32373.11621-.58789.34863-.79297s.53076-.30762.89551-.30762c.36914,0,.66895.10254.89893.30762s.34521.46924.34521.79297c0,.32812-.11523.59717-.34521.80664s-.52979.31445-.89893.31445ZM98.21768,31.94238h-2.16016v-7h2.16016v7Z" fill="#2f2f2f"/>
        <path d="M102.15322,31.94238h-2.16016v-10.36328h2.16016v10.36328Z" fill="#2f2f2f"/>
        <path d="M105.02188,23.83496c-.36475,0-.66309-.1084-.89551-.32471s-.34863-.48193-.34863-.79639c0-.32373.11621-.58789.34863-.79297s.53076-.30762.89551-.30762c.36914,0,.66895.10254.89893.30762s.34521.46924.34521.79297c0,.32812-.11523.59717-.34521.80664s-.52979.31445-.89893.31445ZM106.08828,31.94238h-2.16016v-7h2.16016v7Z" fill="#2f2f2f"/>
        <path d="M112.02432,31.86035c-.31885.16846-.7998.25293-1.44238.25293-1.52197,0-2.2832-.79053-2.2832-2.37207v-3.20605h-1.13477v-1.59277h1.13477v-1.51074l2.15332-.61523v2.12598h1.57227v1.59277h-1.57227v2.83008c0,.729.28955,1.09375.86816,1.09375.22803,0,.4624-.06592.7041-.19824v1.59961Z" fill="#2f2f2f"/>
        <path d="M120.24941,24.94238l-2.84375,7.56055c-.68359,1.81836-1.71338,2.72754-3.08984,2.72754-.52393,0-.95459-.05908-1.29199-.17773v-1.72266c.28711.16846.59912.25293.93652.25293.55615,0,.94336-.26221,1.16211-.78613l.36914-.86816-2.84375-6.98633h2.39258l1.30566,4.25879c.08203.26416.146.57666.19141.93652h.02734c.04102-.26416.11621-.57178.22559-.92285l1.31934-4.27246h2.13965Z" fill="#2f2f2f"/>
        <path d="M132.24648,31.94238h-7.89551v-1.27148l5.02441-6.7334h-4.66211v-1.79785h7.51953v1.2373l-4.91504,6.77441h4.92871v1.79102Z" fill="#2f2f2f"/>
        <path d="M136.76504,32.11328c-1.1665,0-2.08398-.32715-2.75146-.98096s-1.00146-1.5415-1.00146-2.6626c0-1.15771.34619-2.06348,1.03906-2.71729s1.62939-.98096,2.80957-.98096c1.16211,0,2.07373.32715,2.73438.98096s.99121,1.51855.99121,2.59424c0,1.16211-.34082,2.08057-1.02197,2.75488s-1.61426,1.01172-2.79932,1.01172ZM136.81973,26.42578c-.51025,0-.90674.17529-1.18945.52637s-.42383.84766-.42383,1.49023c0,1.34424.54248,2.0166,1.62695,2.0166,1.03467,0,1.55176-.69043,1.55176-2.07129,0-1.30811-.52197-1.96191-1.56543-1.96191Z" fill="#2f2f2f"/>
        <path d="M148.72744,31.94238h-2.15332v-3.88965c0-1.08447-.38721-1.62695-1.16211-1.62695-.37354,0-.68115.14355-.92285.43066s-.3623.65186-.3623,1.09375v3.99219h-2.16016v-7h2.16016v1.10742h.02734c.51514-.85205,1.26465-1.27832,2.24902-1.27832,1.54932,0,2.32422.96143,2.32422,2.88477v4.28613Z" fill="#2f2f2f"/>
        <path d="M156.74941,29.05762h-4.56641c.07275,1.01611.71338,1.52441,1.9209,1.52441.77002,0,1.44678-.18213,2.03027-.54688v1.55859c-.64697.34619-1.48779.51953-2.52246.51953-1.13037,0-2.00732-.31348-2.63184-.93994s-.93652-1.50049-.93652-2.62158c0-1.16211.3374-2.08252,1.01172-2.76172s1.50391-1.01855,2.48828-1.01855c1.021,0,1.81055.30322,2.36865.90918s.8374,1.42871.8374,2.46777v.90918ZM154.74648,27.73145c0-1.00244-.40576-1.50391-1.2168-1.50391-.34619,0-.646.14355-.89893.43066s-.40674.64502-.46143,1.07324h2.57715Z" fill="#2f2f2f"/>
        <path d="M166.6752,21.9209v10.02148h-2.15332v-7.58789c-.11865.10498-.25879.2041-.42041.29736s-.33398.17773-.51611.25293-.37158.13916-.56738.19141-.38965.08984-.58105.11279v-1.81836c.56055-.16406,1.08936-.37354,1.58594-.62891s.9458-.53564,1.34668-.84082h1.30566Z" fill="#2f2f2f"/>
      </g>
      <g>
        <path d="M469.90176,31.94238h-2.40625l-.69727-2.18066h-3.48633l-.69043,2.18066h-2.39258l3.56836-9.80273h2.61816l3.48633,9.80273ZM466.29238,28.06641l-1.05273-3.29492c-.07764-.24609-.13232-.54004-.16406-.88184h-.05469c-.02295.28711-.07959.57178-.1709.85449l-1.06641,3.32227h2.50879Z" fill="#2f2f2f"/>
        <path d="M477.2665,24.94238l-2.60449,7h-2.46094l-2.48145-7h2.31055l1.2168,4.31348c.13672.48779.21631.90234.23926,1.24414h.02734c.03174-.32373.11621-.72461.25293-1.20312l1.24414-4.35449h2.25586Z" fill="#2f2f2f"/>
        <path d="M483.92227,31.94238h-2.04395v-1.00488h-.02734c-.46924.78369-1.16455,1.17578-2.08496,1.17578-.6792,0-1.21338-.19238-1.60303-.57764s-.58447-.89893-.58447-1.5415c0-1.35791.8042-2.14209,2.41309-2.35156l1.90039-.25293c0-.76562-.41455-1.14844-1.24414-1.14844-.83398,0-1.62695.24854-2.37891.74512v-1.62695c.30078-.15479.71191-.2915,1.23389-.41016s.99707-.17773,1.42529-.17773c1.99609,0,2.99414.99561,2.99414,2.9873v4.18359ZM481.89199,29.09863v-.47168l-1.27148.16406c-.70166.09131-1.05273.40771-1.05273.9502,0,.24609.08545.44775.25635.60498s.40234.23584.69385.23584c.40576,0,.73584-.14014.99121-.42041s.38281-.63477.38281-1.06299Z" fill="#2f2f2f"/>
        <path d="M486.69277,23.83496c-.36475,0-.66309-.1084-.89551-.32471s-.34863-.48193-.34863-.79639c0-.32373.11621-.58789.34863-.79297s.53076-.30762.89551-.30762c.36914,0,.66895.10254.89893.30762s.34521.46924.34521.79297c0,.32812-.11523.59717-.34521.80664s-.52979.31445-.89893.31445ZM487.75918,31.94238h-2.16016v-7h2.16016v7Z" fill="#2f2f2f"/>
        <path d="M491.69424,31.94238h-2.16016v-10.36328h2.16016v10.36328Z" fill="#2f2f2f"/>
        <path d="M499.35928,31.94238h-2.04395v-1.00488h-.02734c-.46924.78369-1.16455,1.17578-2.08496,1.17578-.6792,0-1.21338-.19238-1.60303-.57764s-.58447-.89893-.58447-1.5415c0-1.35791.8042-2.14209,2.41309-2.35156l1.90039-.25293c0-.76562-.41455-1.14844-1.24414-1.14844-.83398,0-1.62695.24854-2.37891.74512v-1.62695c.30078-.15479.71191-.2915,1.23389-.41016s.99707-.17773,1.42529-.17773c1.99609,0,2.99414.99561,2.99414,2.9873v4.18359ZM497.329,29.09863v-.47168l-1.27148.16406c-.70166.09131-1.05273.40771-1.05273.9502,0,.24609.08545.44775.25635.60498s.40234.23584.69385.23584c.40576,0,.73584-.14014.99121-.42041s.38281-.63477.38281-1.06299Z" fill="#2f2f2f"/>
        <path d="M503.24307,31.12891h-.02734v.81348h-2.16016v-10.36328h2.16016v4.41602h.02734c.5332-.81592,1.29199-1.22363,2.27637-1.22363.90234,0,1.59717.31006,2.08496.92969s.73145,1.46729.73145,2.54297c0,1.1665-.28467,2.10303-.85449,2.80957s-1.33057,1.05957-2.2832,1.05957c-.86133,0-1.51318-.32812-1.95508-.98438ZM503.18154,28.17578v.71777c0,.45117.12988.82471.38965,1.12109s.59229.44434.99805.44434c.49219,0,.87402-.19043,1.14502-.5708s.40674-.91943.40674-1.6167c0-.57861-.12402-1.03125-.37256-1.35693s-.60254-.48877-1.06299-.48877c-.43311,0-.79199.16162-1.07666.48535s-.42725.74512-.42725,1.26465Z" fill="#2f2f2f"/>
        <path d="M510.83096,23.83496c-.36475,0-.66309-.1084-.89551-.32471s-.34863-.48193-.34863-.79639c0-.32373.11621-.58789.34863-.79297s.53076-.30762.89551-.30762c.36914,0,.66895.10254.89893.30762s.34521.46924.34521.79297c0,.32812-.11523.59717-.34521.80664s-.52979.31445-.89893.31445ZM511.89736,31.94238h-2.16016v-7h2.16016v7Z" fill="#2f2f2f"/>
        <path d="M515.83291,31.94238h-2.16016v-10.36328h2.16016v10.36328Z" fill="#2f2f2f"/>
        <path d="M518.70156,23.83496c-.36475,0-.66309-.1084-.89551-.32471s-.34863-.48193-.34863-.79639c0-.32373.11621-.58789.34863-.79297s.53076-.30762.89551-.30762c.36914,0,.66895.10254.89893.30762s.34521.46924.34521.79297c0,.32812-.11523.59717-.34521.80664s-.52979.31445-.89893.31445ZM519.76797,31.94238h-2.16016v-7h2.16016v7Z" fill="#2f2f2f"/>
        <path d="M525.704,31.86035c-.31885.16846-.7998.25293-1.44238.25293-1.52197,0-2.2832-.79053-2.2832-2.37207v-3.20605h-1.13477v-1.59277h1.13477v-1.51074l2.15332-.61523v2.12598h1.57227v1.59277h-1.57227v2.83008c0,.729.28955,1.09375.86816,1.09375.22803,0,.4624-.06592.7041-.19824v1.59961Z" fill="#2f2f2f"/>
        <path d="M533.9291,24.94238l-2.84375,7.56055c-.68359,1.81836-1.71338,2.72754-3.08984,2.72754-.52393,0-.95459-.05908-1.29199-.17773v-1.72266c.28711.16846.59912.25293.93652.25293.55615,0,.94336-.26221,1.16211-.78613l.36914-.86816-2.84375-6.98633h2.39258l1.30566,4.25879c.08203.26416.146.57666.19141.93652h.02734c.04102-.26416.11621-.57178.22559-.92285l1.31934-4.27246h2.13965Z" fill="#2f2f2f"/>
        <path d="M545.92617,31.94238h-7.89551v-1.27148l5.02441-6.7334h-4.66211v-1.79785h7.51953v1.2373l-4.91504,6.77441h4.92871v1.79102Z" fill="#2f2f2f"/>
        <path d="M550.44473,32.11328c-1.1665,0-2.08398-.32715-2.75146-.98096s-1.00146-1.5415-1.00146-2.6626c0-1.15771.34619-2.06348,1.03906-2.71729s1.62939-.98096,2.80957-.98096c1.16211,0,2.07373.32715,2.73438.98096s.99121,1.51855.99121,2.59424c0,1.16211-.34082,2.08057-1.02197,2.75488s-1.61426,1.01172-2.79932,1.01172ZM550.49941,26.42578c-.51025,0-.90674.17529-1.18945.52637s-.42383.84766-.42383,1.49023c0,1.34424.54248,2.0166,1.62695,2.0166,1.03467,0,1.55176-.69043,1.55176-2.07129,0-1.30811-.52197-1.96191-1.56543-1.96191Z" fill="#2f2f2f"/>
        <path d="M562.40713,31.94238h-2.15332v-3.88965c0-1.08447-.38721-1.62695-1.16211-1.62695-.37354,0-.68115.14355-.92285.43066s-.3623.65186-.3623,1.09375v3.99219h-2.16016v-7h2.16016v1.10742h.02734c.51514-.85205,1.26465-1.27832,2.24902-1.27832,1.54932,0,2.32422.96143,2.32422,2.88477v4.28613Z" fill="#2f2f2f"/>
        <path d="M570.4291,29.05762h-4.56641c.07275,1.01611.71338,1.52441,1.9209,1.52441.77002,0,1.44678-.18213,2.03027-.54688v1.55859c-.64697.34619-1.48779.51953-2.52246.51953-1.13037,0-2.00732-.31348-2.63184-.93994s-.93652-1.50049-.93652-2.62158c0-1.16211.3374-2.08252,1.01172-2.76172s1.50391-1.01855,2.48828-1.01855c1.021,0,1.81055.30322,2.36865.90918s.8374,1.42871.8374,2.46777v.90918ZM568.42617,27.73145c0-1.00244-.40576-1.50391-1.2168-1.50391-.34619,0-.646.14355-.89893.43066s-.40674.64502-.46143,1.07324h2.57715Z" fill="#2f2f2f"/>
        <path d="M575.46719,31.62109v-1.87988c.65625.47852,1.42188.71777,2.29688.71777.55127,0,.98096-.11865,1.28857-.35547s.46143-.56738.46143-.99121c0-.4375-.19043-.7749-.5708-1.01172s-.90332-.35547-1.56885-.35547h-.90918v-1.6543h.84082c1.27588,0,1.91406-.42383,1.91406-1.27148,0-.79736-.48975-1.19629-1.46973-1.19629-.65625,0-1.29443.21191-1.91406.63574v-1.76367c.68799-.34619,1.49023-.51953,2.40625-.51953,1.00244,0,1.7832.22559,2.34131.67676s.8374,1.03662.8374,1.75684c0,1.28076-.64941,2.08252-1.94824,2.40625v.03418c.69287.08643,1.23975.33838,1.64062.75537s.60156.92871.60156,1.53467c0,.91602-.33496,1.64062-1.00488,2.17383s-1.59521.7998-2.77539.7998c-1.01172,0-1.83447-.16406-2.46777-.49219Z" fill="#2f2f2f"/>
      </g>
    </g>
  </g>
</svg>