<?xml version="1.0" encoding="UTF-8"?>
<svg xmlns="http://www.w3.org/2000/svg" width="299.2" height="228.8" xmlns:xlink="http://www.w3.org/1999/xlink" viewBox="0 0 299.2 228.8">
  <defs>
    <linearGradient id="linear-gradient" x1="-520.4397" y1="2028.34956" x2="-505.43857" y2="2028.34956" gradientTransform="translate(562.80277 2099.23145) rotate(.147) scale(1 -1)" gradientUnits="userSpaceOnUse">
      <stop offset="0" stop-color="#005ba1"/>
      <stop offset=".068" stop-color="#0060a9"/>
      <stop offset=".356" stop-color="#0071c8"/>
      <stop offset=".517" stop-color="#0078d4"/>
      <stop offset=".642" stop-color="#0074cd"/>
      <stop offset=".82" stop-color="#006abb"/>
      <stop offset="1" stop-color="#005ba1"/>
    </linearGradient>
    <linearGradient id="linear-gradient-2" x1="62.46945" y1="1750.8" x2="62.46945" y2="1762.56002" gradientTransform="translate(0 1867.6) scale(1 -1)" gradientUnits="userSpaceOnUse">
      <stop offset="0" stop-color="#0078d4"/>
      <stop offset=".502" stop-color="#4093e6"/>
      <stop offset=".775" stop-color="#5ea0ef"/>
    </linearGradient>
    <linearGradient id="linear-gradient-3" y1="1712.2" y2="1723.96002" xlink:href="#linear-gradient-2"/>
    <linearGradient id="linear-gradient-4" x1="62.46945" y1="1672.65" x2="62.46945" y2="1684.41002" xlink:href="#linear-gradient-2"/>
    <linearGradient id="linear-gradient-5" x1="-384.0406" y1="2028.69951" x2="-369.03947" y2="2028.69951" xlink:href="#linear-gradient"/>
    <linearGradient id="linear-gradient-6" x1="10.45648" y1="1838.52463" x2="32.32449" y2="1838.52463" gradientTransform="translate(0 1867.6) scale(1 -1)" gradientUnits="userSpaceOnUse">
      <stop offset=".1" stop-color="#54aef0"/>
      <stop offset="1" stop-color="#1988d9"/>
    </linearGradient>
    <linearGradient id="linear-gradient-7" x1="9.32984" y1="1831.65628" x2="19.67256" y2="1831.65628" gradientTransform="translate(-1290.93056 1320.86953) rotate(45) scale(1 -1)" gradientUnits="userSpaceOnUse">
      <stop offset="0" stop-color="#b3b2b3"/>
      <stop offset="1" stop-color="#979797"/>
    </linearGradient>
    <linearGradient id="linear-gradient-8" x1="9.32758" y1="1836.54613" x2="16.45229" y2="1836.54613" gradientTransform="translate(-1294.86146 1320.56411) rotate(45) scale(1 -1)" xlink:href="#linear-gradient-7"/>
    <linearGradient id="linear-gradient-9" x1="15.78307" y1="1830.05548" x2="22.89955" y2="1830.05548" gradientTransform="translate(-1288.37856 1317.91405) rotate(45) scale(1 -1)" xlink:href="#linear-gradient-7"/>
    <linearGradient id="linear-gradient-10" x1="198.86945" x2="198.86945" xlink:href="#linear-gradient-2"/>
    <linearGradient id="linear-gradient-11" x1="198.86945" y1="1712.2" x2="198.86945" y2="1723.96002" xlink:href="#linear-gradient-2"/>
  </defs>
  <g id="Shapes">
    <rect width="299.2" height="228.8" fill="#fff"/>
    <g>
      <rect x="8.8" y="35.2" width="281.6" height="184.8" fill="#fff"/>
      <rect x="8.8" y="35.2" width="281.6" height="184.8" fill="#53b1e0" opacity=".1"/>
      <rect x="8.8" y="35.2" width="281.6" height="184.8" fill="none" stroke="#53b1e0" stroke-width=".25"/>
    </g>
    <rect x="17.6" y="48.4" width="127.6" height="162.8" fill="#fff" stroke="#4e4f4f" stroke-width=".25"/>
    <g>
      <rect x="26.4" y="92.4" width="110" height="30.8" fill="#fff"/>
      <rect x="26.4" y="92.4" width="110" height="30.8" fill="#e1ddd8" opacity=".4"/>
      <rect x="26.4" y="92.4" width="110" height="30.8" fill="none" stroke="#8e8278" stroke-width=".25"/>
    </g>
    <g>
      <path d="M51.56377,27.38887h-2.40625l-.69727-2.18066h-3.48633l-.69043,2.18066h-2.39258l3.56836-9.80273h2.61816l3.48633,9.80273ZM47.95439,23.51289l-1.05273-3.29492c-.07764-.24609-.13232-.54004-.16406-.88184h-.05469c-.02295.28711-.07959.57178-.1709.85449l-1.06641,3.32227h2.50879Z" fill="#2f2f2f"/>
      <path d="M58.46953,27.38887h-6.28223v-.89551l3.51367-4.51172h-3.16504v-1.59277h5.90625v1.06641l-3.3291,4.34082h3.35645v1.59277Z" fill="#2f2f2f"/>
      <path d="M66.35137,27.38887h-2.15332v-1.06641h-.03418c-.5332.82471-1.24658,1.2373-2.13965,1.2373-1.62256,0-2.43359-.98193-2.43359-2.94629v-4.22461h2.15332v4.0332c0,.98877.39209,1.4834,1.17578,1.4834.38721,0,.69727-.13574.92969-.40674s.34863-.63916.34863-1.104v-4.00586h2.15332v7Z" fill="#2f2f2f"/>
      <path d="M72.68584,22.33711c-.25977-.14111-.56299-.21191-.90918-.21191-.46924,0-.83643.17188-1.10059.51611s-.39648.8125-.39648,1.40479v3.34277h-2.16016v-7h2.16016v1.29883h.02734c.3418-.94775.95703-1.42188,1.8457-1.42188.22803,0,.40576.02734.5332.08203v1.98926Z" fill="#2f2f2f"/>
      <path d="M80.0584,24.5041h-4.56641c.07275,1.01611.71338,1.52441,1.9209,1.52441.77002,0,1.44678-.18213,2.03027-.54688v1.55859c-.64697.34619-1.48779.51953-2.52246.51953-1.13037,0-2.00732-.31348-2.63184-.93994s-.93652-1.50049-.93652-2.62158c0-1.16211.3374-2.08252,1.01172-2.76172s1.50391-1.01855,2.48828-1.01855c1.021,0,1.81055.30322,2.36865.90918s.8374,1.42871.8374,2.46777v.90918ZM78.05547,23.17793c0-1.00244-.40576-1.50391-1.2168-1.50391-.34619,0-.646.14355-.89893.43066s-.40674.64502-.46143,1.07324h2.57715Z" fill="#2f2f2f"/>
      <path d="M85.41777,27.38887v-9.80273h3.47266c3.48193,0,5.22266,1.59277,5.22266,4.77832,0,1.52686-.4751,2.74561-1.42529,3.65723s-2.21582,1.36719-3.79736,1.36719h-3.47266ZM87.62578,19.38398v6.21387h1.09375c.95703,0,1.70801-.28711,2.25244-.86133s.81689-1.35596.81689-2.34473c0-.93408-.27002-1.66895-.81006-2.20459s-1.29785-.80322-2.27295-.80322h-1.08008Z" fill="#2f2f2f"/>
      <path d="M101.32695,27.38887h-2.04395v-1.00488h-.02734c-.46924.78369-1.16455,1.17578-2.08496,1.17578-.6792,0-1.21338-.19238-1.60303-.57764s-.58447-.89893-.58447-1.5415c0-1.35791.8042-2.14209,2.41309-2.35156l1.90039-.25293c0-.76562-.41455-1.14844-1.24414-1.14844-.83398,0-1.62695.24854-2.37891.74512v-1.62695c.30078-.15479.71191-.2915,1.23389-.41016s.99707-.17773,1.42529-.17773c1.99609,0,2.99414.99561,2.99414,2.9873v4.18359ZM99.29668,24.54512v-.47168l-1.27148.16406c-.70166.09131-1.05273.40771-1.05273.9502,0,.24609.08545.44775.25635.60498s.40234.23584.69385.23584c.40576,0,.73584-.14014.99121-.42041s.38281-.63477.38281-1.06299Z" fill="#2f2f2f"/>
      <path d="M107.15557,27.30684c-.31885.16846-.7998.25293-1.44238.25293-1.52197,0-2.2832-.79053-2.2832-2.37207v-3.20605h-1.13477v-1.59277h1.13477v-1.51074l2.15332-.61523v2.12598h1.57227v1.59277h-1.57227v2.83008c0,.729.28955,1.09375.86816,1.09375.22803,0,.4624-.06592.7041-.19824v1.59961Z" fill="#2f2f2f"/>
      <path d="M114.33623,27.38887h-2.04395v-1.00488h-.02734c-.46924.78369-1.16455,1.17578-2.08496,1.17578-.6792,0-1.21338-.19238-1.60303-.57764s-.58447-.89893-.58447-1.5415c0-1.35791.8042-2.14209,2.41309-2.35156l1.90039-.25293c0-.76562-.41455-1.14844-1.24414-1.14844-.83398,0-1.62695.24854-2.37891.74512v-1.62695c.30078-.15479.71191-.2915,1.23389-.41016s.99707-.17773,1.42529-.17773c1.99609,0,2.99414.99561,2.99414,2.9873v4.18359ZM112.30596,24.54512v-.47168l-1.27148.16406c-.70166.09131-1.05273.40771-1.05273.9502,0,.24609.08545.44775.25635.60498s.40234.23584.69385.23584c.40576,0,.73584-.14014.99121-.42041s.38281-.63477.38281-1.06299Z" fill="#2f2f2f"/>
      <path d="M125.99834,27.38887h-5.87891v-9.80273h5.65332v1.79785h-3.44531v2.18066h3.20605v1.79102h-3.20605v2.24219h3.6709v1.79102Z" fill="#2f2f2f"/>
      <path d="M134.35625,20.38887l-2.31055,3.39062,2.29688,3.60938h-2.48828l-1.01172-1.88672c-.08203-.15039-.18018-.3623-.29395-.63574h-.02734c-.06836.19141-.16162.39648-.28027.61523l-1.01855,1.90723h-2.48145l2.36523-3.48633-2.22168-3.51367h2.50195l.99805,1.96191c.13232.25977.22559.47852.28027.65625h.02734c.07275-.21436.1709-.4375.29395-.66992l1.01855-1.94824h2.35156Z" fill="#2f2f2f"/>
      <path d="M137.51445,26.57539h-.02734v4.0332h-2.16016v-10.21973h2.16016v1.05273h.02734c.5332-.81592,1.28271-1.22363,2.24902-1.22363.90674,0,1.60742.31104,2.10205.93311s.7417,1.46875.7417,2.53955c0,1.1665-.28809,2.10303-.86475,2.80957s-1.34326,1.05957-2.30029,1.05957c-.84326,0-1.48584-.32812-1.92773-.98438ZM137.45293,23.7043v.56055c0,.48291.12744.87744.38281,1.18262s.59033.45801,1.00488.45801c.49219,0,.87402-.19043,1.14502-.5708s.40674-.91943.40674-1.6167c0-1.23047-.47852-1.8457-1.43555-1.8457-.44189,0-.80322.16748-1.0835.50244s-.42041.77832-.42041,1.32959Z" fill="#2f2f2f"/>
      <path d="M146.19658,27.38887h-2.16016v-10.36328h2.16016v10.36328Z" fill="#2f2f2f"/>
      <path d="M151.33965,27.55977c-1.1665,0-2.08398-.32715-2.75146-.98096s-1.00146-1.5415-1.00146-2.6626c0-1.15771.34619-2.06348,1.03906-2.71729s1.62939-.98096,2.80957-.98096c1.16211,0,2.07373.32715,2.73438.98096s.99121,1.51855.99121,2.59424c0,1.16211-.34082,2.08057-1.02197,2.75488s-1.61426,1.01172-2.79932,1.01172ZM151.39434,21.87227c-.51025,0-.90674.17529-1.18945.52637s-.42383.84766-.42383,1.49023c0,1.34424.54248,2.0166,1.62695,2.0166,1.03467,0,1.55176-.69043,1.55176-2.07129,0-1.30811-.52197-1.96191-1.56543-1.96191Z" fill="#2f2f2f"/>
      <path d="M161.10771,22.33711c-.25977-.14111-.56299-.21191-.90918-.21191-.46924,0-.83643.17188-1.10059.51611s-.39648.8125-.39648,1.40479v3.34277h-2.16016v-7h2.16016v1.29883h.02734c.3418-.94775.95703-1.42188,1.8457-1.42188.22803,0,.40576.02734.5332.08203v1.98926Z" fill="#2f2f2f"/>
      <path d="M168.48027,24.5041h-4.56641c.07275,1.01611.71338,1.52441,1.9209,1.52441.77002,0,1.44678-.18213,2.03027-.54688v1.55859c-.64697.34619-1.48779.51953-2.52246.51953-1.13037,0-2.00732-.31348-2.63184-.93994s-.93652-1.50049-.93652-2.62158c0-1.16211.3374-2.08252,1.01172-2.76172s1.50391-1.01855,2.48828-1.01855c1.021,0,1.81055.30322,2.36865.90918s.8374,1.42871.8374,2.46777v.90918ZM166.47734,23.17793c0-1.00244-.40576-1.50391-1.2168-1.50391-.34619,0-.646.14355-.89893.43066s-.40674.64502-.46143,1.07324h2.57715Z" fill="#2f2f2f"/>
      <path d="M174.40996,22.33711c-.25977-.14111-.56299-.21191-.90918-.21191-.46924,0-.83643.17188-1.10059.51611s-.39648.8125-.39648,1.40479v3.34277h-2.16016v-7h2.16016v1.29883h.02734c.3418-.94775.95703-1.42188,1.8457-1.42188.22803,0,.40576.02734.5332.08203v1.98926Z" fill="#2f2f2f"/>
      <path d="M184.58184,27.13594c-.48779.28271-1.19189.42383-2.1123.42383-1.07568,0-1.9458-.32568-2.61133-.97754s-.99805-1.49268-.99805-2.52246c0-1.18945.35645-2.12695,1.06982-2.81299s1.66699-1.02881,2.86084-1.02881c.82471,0,1.42188.10938,1.79102.32812v1.83203c-.45117-.3374-.95459-.50586-1.51074-.50586-.61963,0-1.11084.18115-1.47314.54346s-.54346.8623-.54346,1.50049c0,.61963.17334,1.10645.51953,1.45947s.82275.52979,1.42871.52979c.5376,0,1.06396-.16846,1.5791-.50586v1.73633Z" fill="#2f2f2f"/>
      <path d="M188.26348,27.38887h-2.16016v-10.36328h2.16016v10.36328Z" fill="#2f2f2f"/>
      <path d="M196.721,27.38887h-2.15332v-1.06641h-.03418c-.5332.82471-1.24658,1.2373-2.13965,1.2373-1.62256,0-2.43359-.98193-2.43359-2.94629v-4.22461h2.15332v4.0332c0,.98877.39209,1.4834,1.17578,1.4834.38721,0,.69727-.13574.92969-.40674s.34863-.63916.34863-1.104v-4.00586h2.15332v7Z" fill="#2f2f2f"/>
      <path d="M198.18633,27.2043v-1.75c.35547.21436.70996.37354,1.06299.47852s.68701.15723,1.00146.15723c.38281,0,.68457-.05225.90576-.15723s.33154-.26416.33154-.47852c0-.13672-.05029-.25049-.15039-.3418s-.229-.1709-.38623-.23926-.3291-.12988-.51611-.18457-.3667-.11621-.54004-.18457c-.27783-.10498-.52295-.21777-.73486-.33838s-.38965-.26074-.5332-.42041-.25293-.34424-.32812-.55371-.11279-.45801-.11279-.74512c0-.39209.08545-.729.25635-1.01172s.39893-.51367.68359-.69385.61084-.31201.97754-.39648.74854-.12646,1.14502-.12646c.31006,0,.62451.02393.94336.07178s.6333.11719.94336.2085v1.66797c-.27344-.15967-.56641-.2793-.87842-.35889s-.61865-.11963-.91943-.11963c-.14111,0-.27441.0127-.3999.0376s-.23584.06152-.33154.10938-.1709.10938-.22559.18457-.08203.16064-.08203.25635c0,.12744.04102.23682.12305.32812s.18896.16992.32129.23584.2793.12549.44092.17773.32227.10596.48193.16064c.28711.1001.54688.20947.7793.32812s.43164.25732.59814.41699.29395.34619.38281.56055.1333.46924.1333.76562c0,.41455-.08984.76904-.27002,1.06299s-.41943.5332-.71777.71777-.64258.31885-1.03223.40332-.79395.12646-1.21338.12646c-.77002,0-1.4834-.11865-2.13965-.35547Z" fill="#2f2f2f"/>
      <path d="M208.99297,27.30684c-.31885.16846-.7998.25293-1.44238.25293-1.52197,0-2.2832-.79053-2.2832-2.37207v-3.20605h-1.13477v-1.59277h1.13477v-1.51074l2.15332-.61523v2.12598h1.57227v1.59277h-1.57227v2.83008c0,.729.28955,1.09375.86816,1.09375.22803,0,.4624-.06592.7041-.19824v1.59961Z" fill="#2f2f2f"/>
      <path d="M216.4793,24.5041h-4.56689c.07275,1.01611.71338,1.52441,1.92041,1.52441.77148,0,1.44727-.18213,2.03125-.54688v1.55859c-.64844.34619-1.48828.51953-2.52344.51953-1.12988,0-2.00684-.31348-2.63135-.93994s-.93652-1.50049-.93652-2.62158c0-1.16211.3374-2.08252,1.01172-2.76172s1.50342-1.01855,2.48779-1.01855c1.02148,0,1.81055.30322,2.36914.90918s.83789,1.42871.83789,2.46777v.90918ZM214.47539,23.17793c0-1.00244-.4043-1.50391-1.2168-1.50391-.3457,0-.64648.14355-.89844.43066-.25293.28711-.40625.64502-.46143,1.07324h2.57666Z" fill="#2f2f2f"/>
      <path d="M222.40996,22.33711c-.25977-.14111-.5625-.21191-.90918-.21191-.46973,0-.83594.17188-1.10059.51611s-.39648.8125-.39648,1.40479v3.34277h-2.16016v-7h2.16016v1.29883h.02734c.3418-.94775.95703-1.42188,1.8457-1.42188.22754,0,.40527.02734.5332.08203v1.98926Z" fill="#2f2f2f"/>
    </g>
    <g id="bdd66f0d-1091-4867-9f64-cdf433204a8a">
      <g>
        <path d="M55.0829,63.66506c-4.14257-.01059-7.49686-1.24242-7.49333-2.75191l-.03765,14.53605c0,1.49655,3.29429,2.72014,7.39097,2.75073h.10236c4.14257.01059,7.50392-1.20359,7.50745-2.71308l.03765-14.53605c-.00353,1.51067-3.36488,2.72485-7.50745,2.71426Z" fill="url(#linear-gradient)"/>
        <path d="M62.59035,60.95198c0,1.50831-3.36488,2.72367-7.50745,2.71308-4.14257-.01059-7.49686-1.24242-7.49333-2.75191s3.3637-2.72367,7.50745-2.71308c4.14374.01059,7.49686,1.24242,7.49333,2.75191" fill="#e6e6e6"/>
        <path d="M60.83614,60.72608c0,.96005-2.57896,1.73068-5.75324,1.72244-3.17428-.00824-5.745-.79181-5.74265-1.75186s2.57896-1.73068,5.75442-1.72244,5.74736.79181,5.745,1.75186" fill="#50e6ff"/>
        <path d="M55.08878,61.11198c-1.544-.04032-3.08384.1784-4.55553.64709,1.46627.49208,3.00696.72537,4.55318.68945,1.54562.04361,3.08706-.18171,4.55553-.66592-1.46954-.4766-3.00863-.70329-4.55318-.67062Z" fill="#198ab3"/>
      </g>
    </g>
    <g id="fb33f902-6783-4db3-88ea-a4524e356c77">
      <g>
        <path d="M52.5192,105.03998h19.90049v11.09511c0,.36722-.29769.66491-.66491.66491h-18.57066c-.36722,0-.66491-.29769-.66491-.66491v-11.09511h0Z" fill="url(#linear-gradient-2)"/>
        <path d="M53.18762,100.80001h18.56364c.36722,0,.66491.29769.66491.66491h0v3.57506h-19.89698v-3.57506c0-.36722.29768-.66491.6649-.66492.00117,0,.00235,0,.00352,0Z" fill="#0078d4"/>
        <rect x="54.63099" y="106.60042" width="4.27275" height="2.16564" rx=".283" ry=".283" fill="#fff" isolation="isolate" opacity=".9"/>
        <rect x="60.36233" y="106.56998" width="4.27275" height="2.16564" rx=".283" ry=".283" fill="#fff" isolation="isolate" opacity=".9"/>
        <rect x="66.09367" y="106.56998" width="4.27275" height="2.16564" rx=".283" ry=".283" fill="#fff" isolation="isolate" opacity=".9"/>
        <rect x="54.69421" y="109.69787" width="4.27275" height="2.16564" rx=".283" ry=".283" fill="#fff" isolation="isolate" opacity=".9"/>
        <rect x="60.42555" y="109.66743" width="4.27275" height="2.16564" rx=".283" ry=".283" fill="#ffd400"/>
        <rect x="66.15689" y="109.66743" width="4.27275" height="2.16564" rx=".283" ry=".283" fill="#ffd400"/>
        <rect x="54.69421" y="112.82576" width="4.27275" height="2.16564" rx=".283" ry=".283" fill="#ffd400"/>
        <rect x="60.42555" y="112.79532" width="4.27275" height="2.16564" rx=".283" ry=".283" fill="#ffd400"/>
        <rect x="66.15689" y="112.79532" width="4.27275" height="2.16564" rx=".283" ry=".283" fill="#ffd400"/>
      </g>
    </g>
    <g>
      <rect x="26.4" y="132" width="110" height="30.8" fill="#fff"/>
      <rect x="26.4" y="132" width="110" height="30.8" fill="#e1ddd8" opacity=".4"/>
      <rect x="26.4" y="132" width="110" height="30.8" fill="none" stroke="#8e8278" stroke-width=".25"/>
    </g>
    <g id="fb33f902-6783-4db3-88ea-a4524e356c77-2" data-name="fb33f902-6783-4db3-88ea-a4524e356c77">
      <g>
        <path d="M52.5192,143.63998h19.90049v11.09511c0,.36722-.29769.66491-.66491.66491h-18.57066c-.36722,0-.66491-.29769-.66491-.66491v-11.09511h0Z" fill="url(#linear-gradient-3)"/>
        <path d="M53.18762,139.40001h18.56364c.36722,0,.66491.29769.66491.66491h0v3.57506h-19.89698v-3.57506c0-.36722.29768-.66491.6649-.66492.00117,0,.00235,0,.00352,0Z" fill="#0078d4"/>
        <rect x="54.63099" y="145.20042" width="4.27275" height="2.16564" rx=".283" ry=".283" fill="#fff" isolation="isolate" opacity=".9"/>
        <rect x="60.36233" y="145.16998" width="4.27275" height="2.16564" rx=".283" ry=".283" fill="#fff" isolation="isolate" opacity=".9"/>
        <rect x="66.09367" y="145.16998" width="4.27275" height="2.16564" rx=".283" ry=".283" fill="#fff" isolation="isolate" opacity=".9"/>
        <rect x="54.69421" y="148.29787" width="4.27275" height="2.16564" rx=".283" ry=".283" fill="#fff" isolation="isolate" opacity=".9"/>
        <rect x="60.42555" y="148.26743" width="4.27275" height="2.16564" rx=".283" ry=".283" fill="#ffd400"/>
        <rect x="66.15689" y="148.26743" width="4.27275" height="2.16564" rx=".283" ry=".283" fill="#ffd400"/>
        <rect x="54.69421" y="151.42576" width="4.27275" height="2.16564" rx=".283" ry=".283" fill="#ffd400"/>
        <rect x="60.42555" y="151.39532" width="4.27275" height="2.16564" rx=".283" ry=".283" fill="#ffd400"/>
        <rect x="66.15689" y="151.39532" width="4.27275" height="2.16564" rx=".283" ry=".283" fill="#ffd400"/>
      </g>
    </g>
    <g>
      <rect x="26.4" y="171.55" width="110" height="30.8" fill="#fff"/>
      <rect x="26.4" y="171.55" width="110" height="30.8" fill="#e1ddd8" opacity=".4"/>
      <rect x="26.4" y="171.55" width="110" height="30.8" fill="none" stroke="#8e8278" stroke-width=".25"/>
    </g>
    <g id="fb33f902-6783-4db3-88ea-a4524e356c77-3" data-name="fb33f902-6783-4db3-88ea-a4524e356c77">
      <g>
        <path d="M52.5192,183.18998h19.90049v11.09511c0,.36722-.29769.66491-.66491.66491h-18.57066c-.36722,0-.66491-.29769-.66491-.66491v-11.09511h0Z" fill="url(#linear-gradient-4)"/>
        <path d="M53.18762,178.95001h18.56364c.36722,0,.66491.29769.66491.66491h0v3.57506h-19.89698v-3.57506c0-.36722.29768-.66491.6649-.66492.00117,0,.00235,0,.00352,0Z" fill="#0078d4"/>
        <rect x="54.63099" y="184.75042" width="4.27275" height="2.16564" rx=".283" ry=".283" fill="#fff" isolation="isolate" opacity=".9"/>
        <rect x="60.36233" y="184.71998" width="4.27275" height="2.16564" rx=".283" ry=".283" fill="#fff" isolation="isolate" opacity=".9"/>
        <rect x="66.09367" y="184.71998" width="4.27275" height="2.16564" rx=".283" ry=".283" fill="#fff" isolation="isolate" opacity=".9"/>
        <rect x="54.69421" y="187.84787" width="4.27275" height="2.16564" rx=".283" ry=".283" fill="#fff" isolation="isolate" opacity=".9"/>
        <rect x="60.42555" y="187.81743" width="4.27275" height="2.16564" rx=".283" ry=".283" fill="#ffd400"/>
        <rect x="66.15689" y="187.81743" width="4.27275" height="2.16564" rx=".283" ry=".283" fill="#ffd400"/>
        <rect x="54.69421" y="190.97576" width="4.27275" height="2.16564" rx=".283" ry=".283" fill="#ffd400"/>
        <rect x="60.42555" y="190.94532" width="4.27275" height="2.16564" rx=".283" ry=".283" fill="#ffd400"/>
        <rect x="66.15689" y="190.94532" width="4.27275" height="2.16564" rx=".283" ry=".283" fill="#ffd400"/>
      </g>
    </g>
    <rect x="154" y="48.4" width="127.6" height="162.8" fill="#fff" stroke="#4e4f4f" stroke-width=".25"/>
    <g id="bdd66f0d-1091-4867-9f64-cdf433204a8a-2" data-name="bdd66f0d-1091-4867-9f64-cdf433204a8a">
      <g>
        <path d="M191.4829,63.66506c-4.14257-.01059-7.49686-1.24242-7.49333-2.75191l-.03765,14.53605c0,1.49655,3.29429,2.72014,7.39097,2.75073h.10236c4.14257.01059,7.50392-1.20359,7.50745-2.71308l.03765-14.53605c-.00353,1.51067-3.36488,2.72485-7.50745,2.71426Z" fill="url(#linear-gradient-5)"/>
        <path d="M198.99035,60.95198c0,1.50831-3.36488,2.72367-7.50745,2.71308-4.14257-.01059-7.49686-1.24242-7.49333-2.75191s3.3637-2.72367,7.50745-2.71308c4.14374.01059,7.49686,1.24242,7.49333,2.75191" fill="#e6e6e6"/>
        <path d="M197.23614,60.72608c0,.96005-2.57896,1.73068-5.75324,1.72244-3.17428-.00824-5.745-.79181-5.74265-1.75186s2.57896-1.73068,5.75442-1.72244,5.74736.79181,5.745,1.75186" fill="#50e6ff"/>
        <path d="M191.48878,61.11198c-1.544-.04032-3.08384.1784-4.55553.64709,1.46627.49208,3.00696.72537,4.55318.68945,1.54562.04361,3.08706-.18171,4.55553-.66592-1.46954-.4766-3.00863-.70329-4.55318-.67062Z" fill="#198ab3"/>
      </g>
    </g>
    <g>
      <path d="M10.67779,19.43336l20.32915,20.32915c.27842.32103.76437.35558,1.0854.07717.17799-.15437.27545-.38177.26448-.61712v-20.32915c.00059-.42494-.34342-.76991-.76836-.7705-.01386-.00002-.02772.00034-.04156.00107H11.21774c-.42492.00451-.76573.35263-.76122.77755.00211.19924.08144.38989.22127.53183Z" fill="url(#linear-gradient-6)"/>
      <path id="f582129e-1fd7-440c-a5c4-799b0a032e7c" d="M16.1583,24.91386l9.36815,9.36815,6.74939-6.74939v-8.63922c.00057-.40962-.31988-.74787-.72894-.76943h-8.59872l-6.78988,6.78988Z" fill="#50e6ff"/>
      <rect id="b55df55b-2ac6-4f92-ba84-9d8becd854da" x="8.17574" y="34.79945" width="12.64835" height="2.29479" rx=".27" ry=".27" transform="translate(-21.17134 20.78158) rotate(-45)" fill="url(#linear-gradient-7)"/>
      <rect id="a1d88672-156d-4d85-8ddb-d3d546338b0e" x="8.84908" y="29.90169" width="8.08576" height="2.29479" rx=".27" ry=".27" transform="translate(-18.17905 18.21006) rotate(-45)" fill="url(#linear-gradient-8)"/>
      <rect id="a50d2abb-ca8f-44bb-a92d-5a79f17e98d0" x="15.2935" y="36.39232" width="8.08576" height="2.29479" rx=".27" ry=".27" transform="translate(-20.88109 24.66802) rotate(-45)" fill="url(#linear-gradient-9)"/>
      <rect id="abef2dbd-e94f-4bb4-9503-d2b3cf2041a9" x="21.0977" y="23.86155" width="2.29479" height="2.29479" rx=".38" ry=".38" transform="translate(-11.16855 23.05461) rotate(-45)" fill="#fff"/>
      <rect id="a157044f-57ca-43a1-b77d-760bafa34854" x="24.3374" y="20.61627" width="2.29479" height="2.29479" rx=".38" ry=".38" transform="translate(-7.92491 24.39491) rotate(-45)" fill="#fff"/>
      <rect id="b637d7ff-a1d5-4533-b34f-12a87620ff68" x="24.34296" y="27.10128" width="2.29479" height="2.29479" rx=".38" ry=".38" transform="translate(-12.50888 26.29825) rotate(-45)" fill="#fff"/>
      <path id="f613147f-9647-4c5d-a52a-663abb19234f" d="M27.47027,24.64388l.89092-.89092c.19935-.20129.52413-.20286.72542-.00352.00118.00117.00235.00234.00352.00352l.89092.89092c.20129.19935.20286.52413.00352.72542-.00117.00118-.00234.00235-.00352.00352l-.89092.89092c-.19935.20129-.52413.20286-.72542.00352-.00118-.00117-.00235-.00234-.00352-.00352l-.89092-.89092c-.20129-.19935-.20286-.52413-.00352-.72542.00117-.00118.00234-.00235.00352-.00352" fill="#fff"/>
    </g>
    <g>
      <rect x="162.8" y="92.4" width="110" height="30.8" fill="#fff"/>
      <rect x="162.8" y="92.4" width="110" height="30.8" fill="#e1ddd8" opacity=".4"/>
      <rect x="162.8" y="92.4" width="110" height="30.8" fill="none" stroke="#8e8278" stroke-width=".25"/>
    </g>
    <g id="fb33f902-6783-4db3-88ea-a4524e356c77-4" data-name="fb33f902-6783-4db3-88ea-a4524e356c77">
      <g>
        <path d="M188.9192,105.03998h19.90049v11.09511c0,.36722-.29769.66491-.66491.66491h-18.57066c-.36722,0-.66491-.29769-.66491-.66491v-11.09511h0Z" fill="url(#linear-gradient-10)"/>
        <path d="M189.58762,100.80001h18.56364c.36722,0,.66491.29769.66491.66491h0v3.57506h-19.89698v-3.57506c0-.36722.29768-.66491.6649-.66492.00117,0,.00235,0,.00352,0Z" fill="#0078d4"/>
        <rect x="191.03099" y="106.60042" width="4.27275" height="2.16564" rx=".283" ry=".283" fill="#fff" isolation="isolate" opacity=".9"/>
        <rect x="196.76233" y="106.56998" width="4.27275" height="2.16564" rx=".283" ry=".283" fill="#fff" isolation="isolate" opacity=".9"/>
        <rect x="202.49367" y="106.56998" width="4.27275" height="2.16564" rx=".283" ry=".283" fill="#fff" isolation="isolate" opacity=".9"/>
        <rect x="191.09421" y="109.69787" width="4.27275" height="2.16564" rx=".283" ry=".283" fill="#fff" isolation="isolate" opacity=".9"/>
        <rect x="196.82555" y="109.66743" width="4.27275" height="2.16564" rx=".283" ry=".283" fill="#ffd400"/>
        <rect x="202.55689" y="109.66743" width="4.27275" height="2.16564" rx=".283" ry=".283" fill="#ffd400"/>
        <rect x="191.09421" y="112.82576" width="4.27275" height="2.16564" rx=".283" ry=".283" fill="#ffd400"/>
        <rect x="196.82555" y="112.79532" width="4.27275" height="2.16564" rx=".283" ry=".283" fill="#ffd400"/>
        <rect x="202.55689" y="112.79532" width="4.27275" height="2.16564" rx=".283" ry=".283" fill="#ffd400"/>
      </g>
    </g>
    <g>
      <rect x="162.8" y="132" width="110" height="30.8" fill="#fff"/>
      <rect x="162.8" y="132" width="110" height="30.8" fill="#e1ddd8" opacity=".4"/>
      <rect x="162.8" y="132" width="110" height="30.8" fill="none" stroke="#8e8278" stroke-width=".25"/>
    </g>
    <g id="fb33f902-6783-4db3-88ea-a4524e356c77-5" data-name="fb33f902-6783-4db3-88ea-a4524e356c77">
      <g>
        <path d="M188.9192,143.63998h19.90049v11.09511c0,.36722-.29769.66491-.66491.66491h-18.57066c-.36722,0-.66491-.29769-.66491-.66491v-11.09511h0Z" fill="url(#linear-gradient-11)"/>
        <path d="M189.58762,139.40001h18.56364c.36722,0,.66491.29769.66491.66491h0v3.57506h-19.89698v-3.57506c0-.36722.29768-.66491.6649-.66492.00117,0,.00235,0,.00352,0Z" fill="#0078d4"/>
        <rect x="191.03099" y="145.20042" width="4.27275" height="2.16564" rx=".283" ry=".283" fill="#fff" isolation="isolate" opacity=".9"/>
        <rect x="196.76233" y="145.16998" width="4.27275" height="2.16564" rx=".283" ry=".283" fill="#fff" isolation="isolate" opacity=".9"/>
        <rect x="202.49367" y="145.16998" width="4.27275" height="2.16564" rx=".283" ry=".283" fill="#fff" isolation="isolate" opacity=".9"/>
        <rect x="191.09421" y="148.29787" width="4.27275" height="2.16564" rx=".283" ry=".283" fill="#fff" isolation="isolate" opacity=".9"/>
        <rect x="196.82555" y="148.26743" width="4.27275" height="2.16564" rx=".283" ry=".283" fill="#ffd400"/>
        <rect x="202.55689" y="148.26743" width="4.27275" height="2.16564" rx=".283" ry=".283" fill="#ffd400"/>
        <rect x="191.09421" y="151.42576" width="4.27275" height="2.16564" rx=".283" ry=".283" fill="#ffd400"/>
        <rect x="196.82555" y="151.39532" width="4.27275" height="2.16564" rx=".283" ry=".283" fill="#ffd400"/>
        <rect x="202.55689" y="151.39532" width="4.27275" height="2.16564" rx=".283" ry=".283" fill="#ffd400"/>
      </g>
    </g>
  </g>
  <g id="Text">
    <g>
      <path d="M69.65605,73.23848v-9.80273h2.70703c3.45459,0,5.18164,1.59277,5.18164,4.77832,0,1.51318-.47949,2.72852-1.43896,3.64697s-2.24316,1.37744-3.85205,1.37744h-2.59766ZM70.80449,64.4748v7.72461h1.46289c1.28516,0,2.28564-.34424,3.00098-1.03223s1.07324-1.66357,1.07324-2.92578c0-2.51123-1.33545-3.7666-4.00586-3.7666h-1.53125Z" fill="#2f2f2f"/>
      <path d="M84.17607,73.23848h-1.12109v-1.09375h-.02734c-.48779.83838-1.20557,1.25781-2.15332,1.25781-.69727,0-1.24316-.18457-1.63721-.55371s-.59131-.85889-.59131-1.46973c0-1.30811.77002-2.06885,2.31055-2.2832l2.09863-.29395c0-1.18945-.48096-1.78418-1.44238-1.78418-.84326,0-1.604.28711-2.2832.86133v-1.14844c.68799-.4375,1.48096-.65625,2.37891-.65625,1.64502,0,2.46777.87061,2.46777,2.61133v4.55273ZM83.05498,69.69746l-1.68848.23242c-.51953.07275-.91162.20166-1.17578.38623s-.39648.51172-.39648.98096c0,.3418.12207.62109.36572.8374s.56836.32471.97412.32471c.55615,0,1.01514-.19482,1.37744-.58447s.54346-.88281.54346-1.47998v-.69727Z" fill="#2f2f2f"/>
      <path d="M89.43437,73.17012c-.26416.146-.61279.21875-1.0459.21875-1.22607,0-1.83887-.68359-1.83887-2.05078v-4.14258h-1.20312v-.95703h1.20312v-1.70898l1.12109-.3623v2.07129h1.76367v.95703h-1.76367v3.94434c0,.46924.07959.8042.23926,1.00488s.42383.30078.79297.30078c.28271,0,.52637-.07764.73145-.23242v.95703Z" fill="#2f2f2f"/>
      <path d="M96.05156,73.23848h-1.12109v-1.09375h-.02734c-.48779.83838-1.20557,1.25781-2.15332,1.25781-.69727,0-1.24316-.18457-1.63721-.55371s-.59131-.85889-.59131-1.46973c0-1.30811.77002-2.06885,2.31055-2.2832l2.09863-.29395c0-1.18945-.48096-1.78418-1.44238-1.78418-.84326,0-1.604.28711-2.2832.86133v-1.14844c.68799-.4375,1.48096-.65625,2.37891-.65625,1.64502,0,2.46777.87061,2.46777,2.61133v4.55273ZM94.93047,69.69746l-1.68848.23242c-.51953.07275-.91162.20166-1.17578.38623s-.39648.51172-.39648.98096c0,.3418.12207.62109.36572.8374s.56836.32471.97412.32471c.55615,0,1.01514-.19482,1.37744-.58447s.54346-.88281.54346-1.47998v-.69727Z" fill="#2f2f2f"/>
      <path d="M99.22148,72.22676h-.02734v1.01172h-1.12109v-10.36328h1.12109v4.59375h.02734c.55127-.92969,1.35791-1.39453,2.41992-1.39453.89795,0,1.60059.31348,2.10889.93994s.76221,1.46631.76221,2.51904c0,1.17139-.28467,2.10889-.85449,2.81299s-1.34912,1.05615-2.33789,1.05615c-.92529,0-1.62451-.39209-2.09863-1.17578ZM99.19414,69.40352v.97754c0,.57861.18799,1.06982.56396,1.47314s.85352.60498,1.43213.60498c.6792,0,1.21094-.25977,1.59619-.7793s.57764-1.2417.57764-2.16699c0-.7793-.18018-1.39014-.54004-1.83203s-.84766-.66309-1.46289-.66309c-.65186,0-1.17578.22656-1.57227.68018s-.59473,1.02197-.59473,1.70557Z" fill="#2f2f2f"/>
      <path d="M111.24834,73.23848h-1.12109v-1.09375h-.02734c-.48779.83838-1.20557,1.25781-2.15332,1.25781-.69727,0-1.24316-.18457-1.63721-.55371s-.59131-.85889-.59131-1.46973c0-1.30811.77002-2.06885,2.31055-2.2832l2.09863-.29395c0-1.18945-.48096-1.78418-1.44238-1.78418-.84326,0-1.604.28711-2.2832.86133v-1.14844c.68799-.4375,1.48096-.65625,2.37891-.65625,1.64502,0,2.46777.87061,2.46777,2.61133v4.55273ZM110.12725,69.69746l-1.68848.23242c-.51953.07275-.91162.20166-1.17578.38623s-.39648.51172-.39648.98096c0,.3418.12207.62109.36572.8374s.56836.32471.97412.32471c.55615,0,1.01514-.19482,1.37744-.58447s.54346-.88281.54346-1.47998v-.69727Z" fill="#2f2f2f"/>
      <path d="M112.89043,72.98555v-1.20312c.61084.45117,1.28271.67676,2.0166.67676.98438,0,1.47656-.32812,1.47656-.98438,0-.18701-.04199-.34521-.12646-.4751s-.19824-.24512-.3418-.34521-.31201-.19043-.50586-.27002-.40234-.16309-.62549-.24951c-.31006-.12305-.58203-.24707-.81689-.37256s-.43066-.2666-.58789-.42383-.27588-.33594-.35547-.53662-.11963-.43506-.11963-.7041c0-.32812.0752-.61865.22559-.87158s.35107-.46484.60156-.63574.53662-.2998.85791-.38623.65283-.12988.99463-.12988c.60596,0,1.14844.10498,1.62695.31445v1.13477c-.51514-.3374-1.10742-.50586-1.77734-.50586-.20947,0-.39893.02393-.56738.07178s-.31348.11523-.43408.20166-.21436.19043-.28027.31104-.09912.25391-.09912.3999c0,.18213.0332.33496.09912.45801s.16309.23242.29053.32812.28271.18213.46484.25977.38965.16162.62207.25293c.31006.11865.58789.24023.83398.36572s.45557.2666.62891.42383.30664.33838.3999.54346.14014.44873.14014.73145c0,.34619-.07617.64697-.229.90234s-.35645.46729-.61182.63574-.54932.29395-.88184.37598-.68115.12305-1.0459.12305c-.72021,0-1.34424-.13916-1.87305-.41699Z" fill="#2f2f2f"/>
      <path d="M124.846,70.01875h-4.94238c.01807.7793.22803,1.38086.62891,1.80469s.95264.63574,1.6543.63574c.78857,0,1.51318-.25977,2.17383-.7793v1.05273c-.61523.44678-1.42871.66992-2.44043.66992-.98877,0-1.76611-.31787-2.33105-.95361s-.84766-1.53027-.84766-2.68311c0-1.08936.30859-1.97656.92627-2.6626s1.38428-1.02881,2.30029-1.02881,1.62451.29639,2.12598.88867.75195,1.41504.75195,2.46777v.58789ZM123.69756,69.06855c-.00439-.64697-.16064-1.15088-.46826-1.51074s-.73486-.54004-1.28174-.54004c-.52881,0-.97754.18896-1.34668.56738s-.59717.87256-.68359,1.4834h3.78027Z" fill="#2f2f2f"/>
    </g>
    <g>
      <path d="M85.92559,144.42988h-2.83008v8.76367h-1.14844v-8.76367h-2.82324v-1.03906h6.80176v1.03906Z" fill="#2f2f2f"/>
      <path d="M91.26299,153.19355h-1.12109v-1.09375h-.02734c-.48779.83838-1.20557,1.25781-2.15332,1.25781-.69727,0-1.24316-.18457-1.63721-.55371s-.59131-.85889-.59131-1.46973c0-1.30811.77002-2.06885,2.31055-2.2832l2.09863-.29395c0-1.18945-.48096-1.78418-1.44238-1.78418-.84326,0-1.604.28711-2.2832.86133v-1.14844c.68799-.4375,1.48096-.65625,2.37891-.65625,1.64502,0,2.46777.87061,2.46777,2.61133v4.55273ZM90.14189,149.65254l-1.68848.23242c-.51953.07275-.91162.20166-1.17578.38623s-.39648.51172-.39648.98096c0,.3418.12207.62109.36572.8374s.56836.32471.97412.32471c.55615,0,1.01514-.19482,1.37744-.58447s.54346-.88281.54346-1.47998v-.69727Z" fill="#2f2f2f"/>
      <path d="M94.43242,152.18184h-.02734v1.01172h-1.12109v-10.36328h1.12109v4.59375h.02734c.55127-.92969,1.35791-1.39453,2.41992-1.39453.89795,0,1.60059.31348,2.10889.93994s.76221,1.46631.76221,2.51904c0,1.17139-.28467,2.10889-.85449,2.81299s-1.34912,1.05615-2.33789,1.05615c-.92529,0-1.62451-.39209-2.09863-1.17578ZM94.40508,149.35859v.97754c0,.57861.18799,1.06982.56396,1.47314s.85352.60498,1.43213.60498c.6792,0,1.21094-.25977,1.59619-.7793s.57764-1.2417.57764-2.16699c0-.7793-.18018-1.39014-.54004-1.83203s-.84766-.66309-1.46289-.66309c-.65186,0-1.17578.22656-1.57227.68018s-.59473,1.02197-.59473,1.70557Z" fill="#2f2f2f"/>
      <path d="M102.57402,153.19355h-1.12109v-10.36328h1.12109v10.36328Z" fill="#2f2f2f"/>
      <path d="M110.40801,149.97383h-4.94238c.01807.7793.22803,1.38086.62891,1.80469s.95264.63574,1.6543.63574c.78857,0,1.51318-.25977,2.17383-.7793v1.05273c-.61523.44678-1.42871.66992-2.44043.66992-.98877,0-1.76611-.31787-2.33105-.95361s-.84766-1.53027-.84766-2.68311c0-1.08936.30859-1.97656.92627-2.6626s1.38428-1.02881,2.30029-1.02881,1.62451.29639,2.12598.88867.75195,1.41504.75195,2.46777v.58789ZM109.25957,149.02363c-.00439-.64697-.16064-1.15088-.46826-1.51074s-.73486-.54004-1.28174-.54004c-.52881,0-.97754.18896-1.34668.56738s-.59717.87256-.68359,1.4834h3.78027Z" fill="#2f2f2f"/>
    </g>
    <g>
      <path d="M85.92559,105.22773h-2.83008v8.76367h-1.14844v-8.76367h-2.82324v-1.03906h6.80176v1.03906Z" fill="#2f2f2f"/>
      <path d="M91.26348,113.99141h-1.12109v-1.09375h-.02734c-.48828.83838-1.20605,1.25781-2.15332,1.25781-.69727,0-1.24316-.18457-1.6377-.55371-.39355-.36914-.59082-.85889-.59082-1.46973,0-1.30811.76953-2.06885,2.31055-2.2832l2.09863-.29395c0-1.18945-.48145-1.78418-1.44238-1.78418-.84375,0-1.60449.28711-2.2832.86133v-1.14844c.6875-.4375,1.48047-.65625,2.37891-.65625,1.64453,0,2.46777.87061,2.46777,2.61133v4.55273ZM90.14238,110.45039l-1.68848.23242c-.51953.07275-.91211.20166-1.17578.38623-.26465.18457-.39648.51172-.39648.98096,0,.3418.12207.62109.36523.8374.24414.21631.56836.32471.97461.32471.55566,0,1.01465-.19482,1.37695-.58447s.54395-.88281.54395-1.47998v-.69727Z" fill="#2f2f2f"/>
      <path d="M94.43242,112.97969h-.02734v1.01172h-1.12109v-10.36328h1.12109v4.59375h.02734c.55176-.92969,1.3584-1.39453,2.41992-1.39453.89844,0,1.60059.31348,2.10938.93994.50781.62646.76172,1.46631.76172,2.51904,0,1.17139-.28418,2.10889-.85449,2.81299-.56934.7041-1.34863,1.05615-2.33789,1.05615-.9248,0-1.62402-.39209-2.09863-1.17578ZM94.40508,110.15645v.97754c0,.57861.18848,1.06982.56445,1.47314s.85352.60498,1.43164.60498c.67969,0,1.21094-.25977,1.59668-.7793.38477-.51953.57715-1.2417.57715-2.16699,0-.7793-.17969-1.39014-.54004-1.83203-.35938-.44189-.84766-.66309-1.46289-.66309-.65137,0-1.17578.22656-1.57227.68018s-.59473,1.02197-.59473,1.70557Z" fill="#2f2f2f"/>
      <path d="M102.57402,113.99141h-1.12109v-10.36328h1.12109v10.36328Z" fill="#2f2f2f"/>
      <path d="M110.40801,110.77168h-4.94238c.01855.7793.22852,1.38086.62891,1.80469.40137.42383.95312.63574,1.6543.63574.78906,0,1.51367-.25977,2.17383-.7793v1.05273c-.61523.44678-1.42871.66992-2.44043.66992-.98828,0-1.76562-.31787-2.33105-.95361-.56445-.63574-.84766-1.53027-.84766-2.68311,0-1.08936.30859-1.97656.92676-2.6626.61719-.68604,1.38379-1.02881,2.2998-1.02881s1.625.29639,2.12598.88867c.50195.59229.75195,1.41504.75195,2.46777v.58789ZM109.25957,109.82148c-.00391-.64697-.16016-1.15088-.46777-1.51074s-.73535-.54004-1.28223-.54004c-.52832,0-.97754.18896-1.34668.56738s-.59668.87256-.68359,1.4834h3.78027Z" fill="#2f2f2f"/>
    </g>
    <g>
      <path d="M85.92559,183.63154h-2.83008v8.76367h-1.14844v-8.76367h-2.82324v-1.03906h6.80176v1.03906Z" fill="#2f2f2f"/>
      <path d="M91.26299,192.39521h-1.12109v-1.09375h-.02734c-.48779.83838-1.20557,1.25781-2.15332,1.25781-.69727,0-1.24316-.18457-1.63721-.55371s-.59131-.85889-.59131-1.46973c0-1.30811.77002-2.06885,2.31055-2.2832l2.09863-.29395c0-1.18945-.48096-1.78418-1.44238-1.78418-.84326,0-1.604.28711-2.2832.86133v-1.14844c.68799-.4375,1.48096-.65625,2.37891-.65625,1.64502,0,2.46777.87061,2.46777,2.61133v4.55273ZM90.14189,188.8542l-1.68848.23242c-.51953.07275-.91162.20166-1.17578.38623s-.39648.51172-.39648.98096c0,.3418.12207.62109.36572.8374s.56836.32471.97412.32471c.55615,0,1.01514-.19482,1.37744-.58447s.54346-.88281.54346-1.47998v-.69727Z" fill="#2f2f2f"/>
      <path d="M94.43242,191.3835h-.02734v1.01172h-1.12109v-10.36328h1.12109v4.59375h.02734c.55127-.92969,1.35791-1.39453,2.41992-1.39453.89795,0,1.60059.31348,2.10889.93994s.76221,1.46631.76221,2.51904c0,1.17139-.28467,2.10889-.85449,2.81299s-1.34912,1.05615-2.33789,1.05615c-.92529,0-1.62451-.39209-2.09863-1.17578ZM94.40508,188.56025v.97754c0,.57861.18799,1.06982.56396,1.47314s.85352.60498,1.43213.60498c.6792,0,1.21094-.25977,1.59619-.7793s.57764-1.2417.57764-2.16699c0-.7793-.18018-1.39014-.54004-1.83203s-.84766-.66309-1.46289-.66309c-.65186,0-1.17578.22656-1.57227.68018s-.59473,1.02197-.59473,1.70557Z" fill="#2f2f2f"/>
      <path d="M102.57402,192.39521h-1.12109v-10.36328h1.12109v10.36328Z" fill="#2f2f2f"/>
      <path d="M110.40801,189.17549h-4.94238c.01807.7793.22803,1.38086.62891,1.80469s.95264.63574,1.6543.63574c.78857,0,1.51318-.25977,2.17383-.7793v1.05273c-.61523.44678-1.42871.66992-2.44043.66992-.98877,0-1.76611-.31787-2.33105-.95361s-.84766-1.53027-.84766-2.68311c0-1.08936.30859-1.97656.92627-2.6626s1.38428-1.02881,2.30029-1.02881,1.62451.29639,2.12598.88867.75195,1.41504.75195,2.46777v.58789ZM109.25957,188.22529c-.00439-.64697-.16064-1.15088-.46826-1.51074s-.73486-.54004-1.28174-.54004c-.52881,0-.97754.18896-1.34668.56738s-.59717.87256-.68359,1.4834h3.78027Z" fill="#2f2f2f"/>
    </g>
    <g>
      <path d="M206.05596,73.23848v-9.80273h2.70703c3.45459,0,5.18164,1.59277,5.18164,4.77832,0,1.51318-.47949,2.72852-1.43896,3.64697s-2.24316,1.37744-3.85205,1.37744h-2.59766ZM207.20439,64.4748v7.72461h1.46289c1.28516,0,2.28564-.34424,3.00098-1.03223s1.07324-1.66357,1.07324-2.92578c0-2.51123-1.33545-3.7666-4.00586-3.7666h-1.53125Z" fill="#2f2f2f"/>
      <path d="M220.57598,73.23848h-1.12109v-1.09375h-.02734c-.48779.83838-1.20557,1.25781-2.15332,1.25781-.69727,0-1.24316-.18457-1.63721-.55371s-.59131-.85889-.59131-1.46973c0-1.30811.77002-2.06885,2.31055-2.2832l2.09863-.29395c0-1.18945-.48096-1.78418-1.44238-1.78418-.84326,0-1.604.28711-2.2832.86133v-1.14844c.68799-.4375,1.48096-.65625,2.37891-.65625,1.64502,0,2.46777.87061,2.46777,2.61133v4.55273ZM219.45488,69.69746l-1.68848.23242c-.51953.07275-.91162.20166-1.17578.38623s-.39648.51172-.39648.98096c0,.3418.12207.62109.36572.8374s.56836.32471.97412.32471c.55615,0,1.01514-.19482,1.37744-.58447s.54346-.88281.54346-1.47998v-.69727Z" fill="#2f2f2f"/>
      <path d="M225.83428,73.17012c-.26416.146-.61279.21875-1.0459.21875-1.22607,0-1.83887-.68359-1.83887-2.05078v-4.14258h-1.20312v-.95703h1.20312v-1.70898l1.12109-.3623v2.07129h1.76367v.95703h-1.76367v3.94434c0,.46924.07959.8042.23926,1.00488s.42383.30078.79297.30078c.28271,0,.52637-.07764.73145-.23242v.95703Z" fill="#2f2f2f"/>
      <path d="M232.45146,73.23848h-1.12109v-1.09375h-.02734c-.48779.83838-1.20557,1.25781-2.15332,1.25781-.69727,0-1.24316-.18457-1.63721-.55371s-.59131-.85889-.59131-1.46973c0-1.30811.77002-2.06885,2.31055-2.2832l2.09863-.29395c0-1.18945-.48096-1.78418-1.44238-1.78418-.84326,0-1.604.28711-2.2832.86133v-1.14844c.68799-.4375,1.48096-.65625,2.37891-.65625,1.64502,0,2.46777.87061,2.46777,2.61133v4.55273ZM231.33037,69.69746l-1.68848.23242c-.51953.07275-.91162.20166-1.17578.38623s-.39648.51172-.39648.98096c0,.3418.12207.62109.36572.8374s.56836.32471.97412.32471c.55615,0,1.01514-.19482,1.37744-.58447s.54346-.88281.54346-1.47998v-.69727Z" fill="#2f2f2f"/>
      <path d="M235.62139,72.22676h-.02734v1.01172h-1.12109v-10.36328h1.12109v4.59375h.02734c.55127-.92969,1.35791-1.39453,2.41992-1.39453.89795,0,1.60059.31348,2.10889.93994s.76221,1.46631.76221,2.51904c0,1.17139-.28467,2.10889-.85449,2.81299s-1.34912,1.05615-2.33789,1.05615c-.92529,0-1.62451-.39209-2.09863-1.17578ZM235.59404,69.40352v.97754c0,.57861.18799,1.06982.56396,1.47314s.85352.60498,1.43213.60498c.6792,0,1.21094-.25977,1.59619-.7793s.57764-1.2417.57764-2.16699c0-.7793-.18018-1.39014-.54004-1.83203s-.84766-.66309-1.46289-.66309c-.65186,0-1.17578.22656-1.57227.68018s-.59473,1.02197-.59473,1.70557Z" fill="#2f2f2f"/>
      <path d="M247.64824,73.23848h-1.12109v-1.09375h-.02734c-.48779.83838-1.20557,1.25781-2.15332,1.25781-.69727,0-1.24316-.18457-1.63721-.55371s-.59131-.85889-.59131-1.46973c0-1.30811.77002-2.06885,2.31055-2.2832l2.09863-.29395c0-1.18945-.48096-1.78418-1.44238-1.78418-.84326,0-1.604.28711-2.2832.86133v-1.14844c.68799-.4375,1.48096-.65625,2.37891-.65625,1.64502,0,2.46777.87061,2.46777,2.61133v4.55273ZM246.52715,69.69746l-1.68848.23242c-.51953.07275-.91162.20166-1.17578.38623s-.39648.51172-.39648.98096c0,.3418.12207.62109.36572.8374s.56836.32471.97412.32471c.55615,0,1.01514-.19482,1.37744-.58447s.54346-.88281.54346-1.47998v-.69727Z" fill="#2f2f2f"/>
      <path d="M249.29033,72.98555v-1.20312c.61084.45117,1.28271.67676,2.0166.67676.98438,0,1.47656-.32812,1.47656-.98438,0-.18701-.04199-.34521-.12646-.4751s-.19824-.24512-.3418-.34521-.31201-.19043-.50586-.27002-.40234-.16309-.62549-.24951c-.31006-.12305-.58203-.24707-.81689-.37256s-.43066-.2666-.58789-.42383-.27588-.33594-.35547-.53662-.11963-.43506-.11963-.7041c0-.32812.0752-.61865.22559-.87158s.35107-.46484.60156-.63574.53662-.2998.85791-.38623.65283-.12988.99463-.12988c.60596,0,1.14844.10498,1.62695.31445v1.13477c-.51514-.3374-1.10742-.50586-1.77734-.50586-.20947,0-.39893.02393-.56738.07178s-.31348.11523-.43408.20166-.21436.19043-.28027.31104-.09912.25391-.09912.3999c0,.18213.0332.33496.09912.45801s.16309.23242.29053.32812.28271.18213.46484.25977.38965.16162.62207.25293c.31006.11865.58789.24023.83398.36572s.45557.2666.62891.42383.30664.33838.3999.54346.14014.44873.14014.73145c0,.34619-.07617.64697-.229.90234s-.35645.46729-.61182.63574-.54932.29395-.88184.37598-.68115.12305-1.0459.12305c-.72021,0-1.34424-.13916-1.87305-.41699Z" fill="#2f2f2f"/>
      <path d="M261.2459,70.01875h-4.94238c.01807.7793.22803,1.38086.62891,1.80469s.95264.63574,1.6543.63574c.78857,0,1.51318-.25977,2.17383-.7793v1.05273c-.61523.44678-1.42871.66992-2.44043.66992-.98877,0-1.76611-.31787-2.33105-.95361s-.84766-1.53027-.84766-2.68311c0-1.08936.30859-1.97656.92627-2.6626s1.38428-1.02881,2.30029-1.02881,1.62451.29639,2.12598.88867.75195,1.41504.75195,2.46777v.58789ZM260.09746,69.06855c-.00439-.64697-.16064-1.15088-.46826-1.51074s-.73486-.54004-1.28174-.54004c-.52881,0-.97754.18896-1.34668.56738s-.59717.87256-.68359,1.4834h3.78027Z" fill="#2f2f2f"/>
    </g>
    <g>
      <path d="M222.32598,144.42988h-2.83008v8.76367h-1.14844v-8.76367h-2.82324v-1.03906h6.80176v1.03906Z" fill="#2f2f2f"/>
      <path d="M227.66289,153.19355h-1.12109v-1.09375h-.02734c-.4873.83838-1.20508,1.25781-2.15332,1.25781-.69727,0-1.24316-.18457-1.63672-.55371-.39453-.36914-.5918-.85889-.5918-1.46973,0-1.30811.77051-2.06885,2.31055-2.2832l2.09863-.29395c0-1.18945-.48047-1.78418-1.44238-1.78418-.84277,0-1.60352.28711-2.2832.86133v-1.14844c.68848-.4375,1.48145-.65625,2.37891-.65625,1.64551,0,2.46777.87061,2.46777,2.61133v4.55273ZM226.5418,149.65254l-1.68848.23242c-.51953.07275-.91113.20166-1.17578.38623-.26367.18457-.39648.51172-.39648.98096,0,.3418.12207.62109.36621.8374.24316.21631.56836.32471.97363.32471.55664,0,1.01562-.19482,1.37793-.58447s.54297-.88281.54297-1.47998v-.69727Z" fill="#2f2f2f"/>
      <path d="M230.83281,152.18184h-.02734v1.01172h-1.12109v-10.36328h1.12109v4.59375h.02734c.55078-.92969,1.35742-1.39453,2.41992-1.39453.89746,0,1.60059.31348,2.1084.93994.50879.62646.7627,1.46631.7627,2.51904,0,1.17139-.28516,2.10889-.85449,2.81299-.57031.7041-1.34961,1.05615-2.33789,1.05615-.92578,0-1.625-.39209-2.09863-1.17578ZM230.80547,149.35859v.97754c0,.57861.1875,1.06982.56348,1.47314s.85352.60498,1.43262.60498c.67871,0,1.21094-.25977,1.5957-.7793.38574-.51953.57812-1.2417.57812-2.16699,0-.7793-.18066-1.39014-.54004-1.83203-.36035-.44189-.84766-.66309-1.46289-.66309-.65234,0-1.17578.22656-1.57227.68018s-.59473,1.02197-.59473,1.70557Z" fill="#2f2f2f"/>
      <path d="M238.97441,153.19355h-1.12109v-10.36328h1.12109v10.36328Z" fill="#2f2f2f"/>
      <path d="M246.8084,149.97383h-4.94238c.01758.7793.22754,1.38086.62891,1.80469.40039.42383.95215.63574,1.6543.63574.78809,0,1.5127-.25977,2.17383-.7793v1.05273c-.61523.44678-1.42871.66992-2.44043.66992-.98926,0-1.7666-.31787-2.33105-.95361-.56543-.63574-.84766-1.53027-.84766-2.68311,0-1.08936.30859-1.97656.92578-2.6626.61816-.68604,1.38477-1.02881,2.30078-1.02881s1.62402.29639,2.12598.88867c.50098.59229.75195,1.41504.75195,2.46777v.58789ZM245.65996,149.02363c-.00488-.64697-.16113-1.15088-.46875-1.51074s-.73438-.54004-1.28125-.54004c-.5293,0-.97754.18896-1.34668.56738s-.59766.87256-.68359,1.4834h3.78027Z" fill="#2f2f2f"/>
    </g>
    <g>
      <path d="M222.32598,105.22773h-2.83008v8.76367h-1.14844v-8.76367h-2.82324v-1.03906h6.80176v1.03906Z" fill="#2f2f2f"/>
      <path d="M227.66338,113.99141h-1.12109v-1.09375h-.02734c-.48779.83838-1.20557,1.25781-2.15332,1.25781-.69727,0-1.24316-.18457-1.63721-.55371s-.59131-.85889-.59131-1.46973c0-1.30811.77002-2.06885,2.31055-2.2832l2.09863-.29395c0-1.18945-.48096-1.78418-1.44238-1.78418-.84326,0-1.604.28711-2.2832.86133v-1.14844c.68799-.4375,1.48096-.65625,2.37891-.65625,1.64502,0,2.46777.87061,2.46777,2.61133v4.55273ZM226.54229,110.45039l-1.68848.23242c-.51953.07275-.91162.20166-1.17578.38623s-.39648.51172-.39648.98096c0,.3418.12207.62109.36572.8374s.56836.32471.97412.32471c.55615,0,1.01514-.19482,1.37744-.58447s.54346-.88281.54346-1.47998v-.69727Z" fill="#2f2f2f"/>
      <path d="M230.83281,112.97969h-.02734v1.01172h-1.12109v-10.36328h1.12109v4.59375h.02734c.55127-.92969,1.35791-1.39453,2.41992-1.39453.89795,0,1.60059.31348,2.10889.93994s.76221,1.46631.76221,2.51904c0,1.17139-.28467,2.10889-.85449,2.81299s-1.34912,1.05615-2.33789,1.05615c-.92529,0-1.62451-.39209-2.09863-1.17578ZM230.80547,110.15645v.97754c0,.57861.18799,1.06982.56396,1.47314s.85352.60498,1.43213.60498c.6792,0,1.21094-.25977,1.59619-.7793s.57764-1.2417.57764-2.16699c0-.7793-.18018-1.39014-.54004-1.83203s-.84766-.66309-1.46289-.66309c-.65186,0-1.17578.22656-1.57227.68018s-.59473,1.02197-.59473,1.70557Z" fill="#2f2f2f"/>
      <path d="M238.97441,113.99141h-1.12109v-10.36328h1.12109v10.36328Z" fill="#2f2f2f"/>
      <path d="M246.8084,110.77168h-4.94238c.01807.7793.22803,1.38086.62891,1.80469s.95264.63574,1.6543.63574c.78857,0,1.51318-.25977,2.17383-.7793v1.05273c-.61523.44678-1.42871.66992-2.44043.66992-.98877,0-1.76611-.31787-2.33105-.95361s-.84766-1.53027-.84766-2.68311c0-1.08936.30859-1.97656.92627-2.6626s1.38428-1.02881,2.30029-1.02881,1.62451.29639,2.12598.88867.75195,1.41504.75195,2.46777v.58789ZM245.65996,109.82148c-.00439-.64697-.16064-1.15088-.46826-1.51074s-.73486-.54004-1.28174-.54004c-.52881,0-.97754.18896-1.34668.56738s-.59717.87256-.68359,1.4834h3.78027Z" fill="#2f2f2f"/>
    </g>
  </g>
</svg>