<?xml version="1.0" encoding="UTF-8"?>
<svg xmlns="http://www.w3.org/2000/svg" width="362.07958" height="216.87021" xmlns:xlink="http://www.w3.org/1999/xlink" viewBox="0 0 362.07958 216.87021">
  <defs>
    <linearGradient id="linear-gradient" x1="-512.37069" y1="1307.71143" x2="-512.37069" y2="1320.7" gradientTransform="translate(564 1397.6) scale(1 -1)" gradientUnits="userSpaceOnUse">
      <stop offset="0" stop-color="#0078d4"/>
      <stop offset=".82" stop-color="#5ea0ef"/>
    </linearGradient>
    <linearGradient id="linear-gradient-2" x1="-512.37069" y1="1302.7" x2="-512.37069" y2="1307.71143" gradientTransform="translate(564 1397.6) scale(1 -1)" gradientUnits="userSpaceOnUse">
      <stop offset=".15" stop-color="#ccc"/>
      <stop offset="1" stop-color="#707070"/>
    </linearGradient>
    <linearGradient id="linear-gradient-3" x1="-406.77079" x2="-406.77079" xlink:href="#linear-gradient"/>
    <linearGradient id="linear-gradient-4" x1="-406.77079" x2="-406.77079" xlink:href="#linear-gradient-2"/>
    <linearGradient id="linear-gradient-5" x1="-512.37069" y1="1215.8" x2="-512.37069" y2="1228.13385" gradientTransform="translate(564 1397.6) scale(1 -1)" gradientUnits="userSpaceOnUse">
      <stop offset="0" stop-color="#a67af4"/>
      <stop offset=".775" stop-color="#b796f9"/>
    </linearGradient>
    <linearGradient id="linear-gradient-6" x1="-406.77079" x2="-406.77079" xlink:href="#linear-gradient-5"/>
    <linearGradient id="linear-gradient-7" x1="-303.25103" x2="-303.25103" xlink:href="#linear-gradient-5"/>
    <linearGradient id="linear-gradient-8" x1="13.664" y1="1138.61912" x2="35.53202" y2="1138.61912" gradientTransform="translate(0 1163.6) scale(1 -1)" gradientUnits="userSpaceOnUse">
      <stop offset=".1" stop-color="#54aef0"/>
      <stop offset="1" stop-color="#1988d9"/>
    </linearGradient>
    <linearGradient id="linear-gradient-9" x1="12.53737" y1="1131.75077" x2="22.88009" y2="1131.75077" gradientTransform="translate(-795.08317 819.59904) rotate(45) scale(1 -1)" gradientUnits="userSpaceOnUse">
      <stop offset="0" stop-color="#b3b2b3"/>
      <stop offset="1" stop-color="#979797"/>
    </linearGradient>
    <linearGradient id="linear-gradient-10" x1="12.53511" y1="1136.64062" x2="19.65982" y2="1136.64062" gradientTransform="translate(-799.01407 819.29362) rotate(45) scale(1 -1)" xlink:href="#linear-gradient-9"/>
    <linearGradient id="linear-gradient-11" x1="18.9906" y1="1130.14998" x2="26.10708" y2="1130.14998" gradientTransform="translate(-792.53117 816.64357) rotate(45) scale(1 -1)" xlink:href="#linear-gradient-9"/>
  </defs>
  <g id="Shapes">
    <rect width="362.07958" height="216.87021" fill="#fff"/>
    <g>
      <path d="M53.46006,22.98896h-2.40625l-.69727-2.18066h-3.48633l-.69043,2.18066h-2.39258l3.56836-9.80273h2.61816l3.48633,9.80273ZM49.85068,19.11299l-1.05273-3.29492c-.07764-.24609-.13232-.54004-.16406-.88184h-.05469c-.02295.28711-.07959.57178-.1709.85449l-1.06641,3.32227h2.50879Z" fill="#2f2f2f"/>
      <path d="M60.36582,22.98896h-6.28223v-.89551l3.51367-4.51172h-3.16504v-1.59277h5.90625v1.06641l-3.3291,4.34082h3.35645v1.59277Z" fill="#2f2f2f"/>
      <path d="M68.24766,22.98896h-2.15332v-1.06641h-.03418c-.5332.82471-1.24658,1.2373-2.13965,1.2373-1.62256,0-2.43359-.98193-2.43359-2.94629v-4.22461h2.15332v4.0332c0,.98877.39209,1.4834,1.17578,1.4834.38721,0,.69727-.13574.92969-.40674s.34863-.63916.34863-1.104v-4.00586h2.15332v7Z" fill="#2f2f2f"/>
      <path d="M74.58213,17.93721c-.25977-.14111-.56299-.21191-.90918-.21191-.46924,0-.83643.17188-1.10059.51611s-.39648.8125-.39648,1.40479v3.34277h-2.16016v-7h2.16016v1.29883h.02734c.3418-.94775.95703-1.42188,1.8457-1.42188.22803,0,.40576.02734.5332.08203v1.98926Z" fill="#2f2f2f"/>
      <path d="M81.95469,20.1042h-4.56641c.07275,1.01611.71338,1.52441,1.9209,1.52441.77002,0,1.44678-.18213,2.03027-.54688v1.55859c-.64697.34619-1.48779.51953-2.52246.51953-1.13037,0-2.00732-.31348-2.63184-.93994s-.93652-1.50049-.93652-2.62158c0-1.16211.3374-2.08252,1.01172-2.76172s1.50391-1.01855,2.48828-1.01855c1.021,0,1.81055.30322,2.36865.90918s.8374,1.42871.8374,2.46777v.90918ZM79.95176,18.77803c0-1.00244-.40576-1.50391-1.2168-1.50391-.34619,0-.646.14355-.89893.43066s-.40674.64502-.46143,1.07324h2.57715Z" fill="#2f2f2f"/>
      <path d="M87.31406,22.98896v-9.80273h3.47266c3.48193,0,5.22266,1.59277,5.22266,4.77832,0,1.52686-.4751,2.74561-1.42529,3.65723s-2.21582,1.36719-3.79736,1.36719h-3.47266ZM89.52207,14.98408v6.21387h1.09375c.95703,0,1.70801-.28711,2.25244-.86133s.81689-1.35596.81689-2.34473c0-.93408-.27002-1.66895-.81006-2.20459s-1.29785-.80322-2.27295-.80322h-1.08008Z" fill="#2f2f2f"/>
      <path d="M103.22324,22.98896h-2.04395v-1.00488h-.02734c-.46924.78369-1.16455,1.17578-2.08496,1.17578-.6792,0-1.21338-.19238-1.60303-.57764s-.58447-.89893-.58447-1.5415c0-1.35791.8042-2.14209,2.41309-2.35156l1.90039-.25293c0-.76562-.41455-1.14844-1.24414-1.14844-.83398,0-1.62695.24854-2.37891.74512v-1.62695c.30078-.15479.71191-.2915,1.23389-.41016s.99707-.17773,1.42529-.17773c1.99609,0,2.99414.99561,2.99414,2.9873v4.18359ZM101.19297,20.14521v-.47168l-1.27148.16406c-.70166.09131-1.05273.40771-1.05273.9502,0,.24609.08545.44775.25635.60498s.40234.23584.69385.23584c.40576,0,.73584-.14014.99121-.42041s.38281-.63477.38281-1.06299Z" fill="#2f2f2f"/>
      <path d="M109.05186,22.90693c-.31885.16846-.7998.25293-1.44238.25293-1.52197,0-2.2832-.79053-2.2832-2.37207v-3.20605h-1.13477v-1.59277h1.13477v-1.51074l2.15332-.61523v2.12598h1.57227v1.59277h-1.57227v2.83008c0,.729.28955,1.09375.86816,1.09375.22803,0,.4624-.06592.7041-.19824v1.59961Z" fill="#2f2f2f"/>
      <path d="M116.23252,22.98896h-2.04395v-1.00488h-.02734c-.46924.78369-1.16455,1.17578-2.08496,1.17578-.6792,0-1.21338-.19238-1.60303-.57764s-.58447-.89893-.58447-1.5415c0-1.35791.8042-2.14209,2.41309-2.35156l1.90039-.25293c0-.76562-.41455-1.14844-1.24414-1.14844-.83398,0-1.62695.24854-2.37891.74512v-1.62695c.30078-.15479.71191-.2915,1.23389-.41016s.99707-.17773,1.42529-.17773c1.99609,0,2.99414.99561,2.99414,2.9873v4.18359ZM114.20225,20.14521v-.47168l-1.27148.16406c-.70166.09131-1.05273.40771-1.05273.9502,0,.24609.08545.44775.25635.60498s.40234.23584.69385.23584c.40576,0,.73584-.14014.99121-.42041s.38281-.63477.38281-1.06299Z" fill="#2f2f2f"/>
      <path d="M127.89463,22.98896h-5.87891v-9.80273h5.65332v1.79785h-3.44531v2.18066h3.20605v1.79102h-3.20605v2.24219h3.6709v1.79102Z" fill="#2f2f2f"/>
      <path d="M136.25254,15.98896l-2.31055,3.39062,2.29688,3.60938h-2.48828l-1.01172-1.88672c-.08203-.15039-.18018-.3623-.29395-.63574h-.02734c-.06836.19141-.16162.39648-.28027.61523l-1.01855,1.90723h-2.48145l2.36523-3.48633-2.22168-3.51367h2.50195l.99805,1.96191c.13232.25977.22559.47852.28027.65625h.02734c.07275-.21436.1709-.4375.29395-.66992l1.01855-1.94824h2.35156Z" fill="#2f2f2f"/>
      <path d="M139.41074,22.17549h-.02734v4.0332h-2.16016v-10.21973h2.16016v1.05273h.02734c.5332-.81592,1.28271-1.22363,2.24902-1.22363.90674,0,1.60742.31104,2.10205.93311s.7417,1.46875.7417,2.53955c0,1.1665-.28809,2.10303-.86475,2.80957s-1.34326,1.05957-2.30029,1.05957c-.84326,0-1.48584-.32812-1.92773-.98438ZM139.34922,19.30439v.56055c0,.48291.12744.87744.38281,1.18262s.59033.45801,1.00488.45801c.49219,0,.87402-.19043,1.14502-.5708s.40674-.91943.40674-1.6167c0-1.23047-.47852-1.8457-1.43555-1.8457-.44189,0-.80322.16748-1.0835.50244s-.42041.77832-.42041,1.32959Z" fill="#2f2f2f"/>
      <path d="M148.09287,22.98896h-2.16016v-10.36328h2.16016v10.36328Z" fill="#2f2f2f"/>
      <path d="M153.23594,23.15986c-1.1665,0-2.08398-.32715-2.75146-.98096s-1.00146-1.5415-1.00146-2.6626c0-1.15771.34619-2.06348,1.03906-2.71729s1.62939-.98096,2.80957-.98096c1.16211,0,2.07373.32715,2.73438.98096s.99121,1.51855.99121,2.59424c0,1.16211-.34082,2.08057-1.02197,2.75488s-1.61426,1.01172-2.79932,1.01172ZM153.29062,17.47236c-.51025,0-.90674.17529-1.18945.52637s-.42383.84766-.42383,1.49023c0,1.34424.54248,2.0166,1.62695,2.0166,1.03467,0,1.55176-.69043,1.55176-2.07129,0-1.30811-.52197-1.96191-1.56543-1.96191Z" fill="#2f2f2f"/>
      <path d="M163.004,17.93721c-.25977-.14111-.56299-.21191-.90918-.21191-.46924,0-.83643.17188-1.10059.51611s-.39648.8125-.39648,1.40479v3.34277h-2.16016v-7h2.16016v1.29883h.02734c.3418-.94775.95703-1.42188,1.8457-1.42188.22803,0,.40576.02734.5332.08203v1.98926Z" fill="#2f2f2f"/>
      <path d="M170.37656,20.1042h-4.56641c.07275,1.01611.71338,1.52441,1.9209,1.52441.77002,0,1.44678-.18213,2.03027-.54688v1.55859c-.64697.34619-1.48779.51953-2.52246.51953-1.13037,0-2.00732-.31348-2.63184-.93994s-.93652-1.50049-.93652-2.62158c0-1.16211.3374-2.08252,1.01172-2.76172s1.50391-1.01855,2.48828-1.01855c1.021,0,1.81055.30322,2.36865.90918s.8374,1.42871.8374,2.46777v.90918ZM168.37363,18.77803c0-1.00244-.40576-1.50391-1.2168-1.50391-.34619,0-.646.14355-.89893.43066s-.40674.64502-.46143,1.07324h2.57715Z" fill="#2f2f2f"/>
      <path d="M176.30625,17.93721c-.25977-.14111-.56299-.21191-.90918-.21191-.46924,0-.83643.17188-1.10059.51611s-.39648.8125-.39648,1.40479v3.34277h-2.16016v-7h2.16016v1.29883h.02734c.3418-.94775.95703-1.42188,1.8457-1.42188.22803,0,.40576.02734.5332.08203v1.98926Z" fill="#2f2f2f"/>
      <path d="M186.47812,22.73604c-.48779.28271-1.19189.42383-2.1123.42383-1.07568,0-1.9458-.32568-2.61133-.97754s-.99805-1.49268-.99805-2.52246c0-1.18945.35645-2.12695,1.06982-2.81299s1.66699-1.02881,2.86084-1.02881c.82471,0,1.42188.10938,1.79102.32812v1.83203c-.45117-.3374-.95459-.50586-1.51074-.50586-.61963,0-1.11084.18115-1.47314.54346s-.54346.8623-.54346,1.50049c0,.61963.17334,1.10645.51953,1.45947s.82275.52979,1.42871.52979c.5376,0,1.06396-.16846,1.5791-.50586v1.73633Z" fill="#2f2f2f"/>
      <path d="M190.15977,22.98896h-2.16016v-10.36328h2.16016v10.36328Z" fill="#2f2f2f"/>
      <path d="M198.61729,22.98896h-2.15332v-1.06641h-.03418c-.5332.82471-1.24658,1.2373-2.13965,1.2373-1.62256,0-2.43359-.98193-2.43359-2.94629v-4.22461h2.15332v4.0332c0,.98877.39209,1.4834,1.17578,1.4834.38721,0,.69727-.13574.92969-.40674s.34863-.63916.34863-1.104v-4.00586h2.15332v7Z" fill="#2f2f2f"/>
      <path d="M200.08262,22.80439v-1.75c.35547.21436.70996.37354,1.06299.47852s.68701.15723,1.00146.15723c.38281,0,.68457-.05225.90576-.15723s.33154-.26416.33154-.47852c0-.13672-.05029-.25049-.15039-.3418s-.229-.1709-.38623-.23926-.3291-.12988-.51611-.18457-.3667-.11621-.54004-.18457c-.27783-.10498-.52295-.21777-.73486-.33838s-.38965-.26074-.5332-.42041-.25293-.34424-.32812-.55371-.11279-.45801-.11279-.74512c0-.39209.08545-.729.25635-1.01172s.39893-.51367.68359-.69385.61084-.31201.97754-.39648.74854-.12646,1.14502-.12646c.31006,0,.62451.02393.94336.07178s.6333.11719.94336.2085v1.66797c-.27344-.15967-.56641-.2793-.87842-.35889s-.61865-.11963-.91943-.11963c-.14111,0-.27441.0127-.3999.0376s-.23584.06152-.33154.10938-.1709.10938-.22559.18457-.08203.16064-.08203.25635c0,.12744.04102.23682.12305.32812s.18896.16992.32129.23584.2793.12549.44092.17773.32227.10596.48193.16064c.28711.1001.54688.20947.7793.32812s.43164.25732.59814.41699.29395.34619.38281.56055.1333.46924.1333.76562c0,.41455-.08984.76904-.27002,1.06299s-.41943.5332-.71777.71777-.64258.31885-1.03223.40332-.79395.12646-1.21338.12646c-.77002,0-1.4834-.11865-2.13965-.35547Z" fill="#2f2f2f"/>
      <path d="M210.88926,22.90693c-.31885.16846-.7998.25293-1.44238.25293-1.52197,0-2.2832-.79053-2.2832-2.37207v-3.20605h-1.13477v-1.59277h1.13477v-1.51074l2.15332-.61523v2.12598h1.57227v1.59277h-1.57227v2.83008c0,.729.28955,1.09375.86816,1.09375.22803,0,.4624-.06592.7041-.19824v1.59961Z" fill="#2f2f2f"/>
      <path d="M218.37559,20.1042h-4.56689c.07275,1.01611.71338,1.52441,1.92041,1.52441.77148,0,1.44727-.18213,2.03125-.54688v1.55859c-.64844.34619-1.48828.51953-2.52344.51953-1.12988,0-2.00684-.31348-2.63135-.93994s-.93652-1.50049-.93652-2.62158c0-1.16211.3374-2.08252,1.01172-2.76172s1.50342-1.01855,2.48779-1.01855c1.02148,0,1.81055.30322,2.36914.90918s.83789,1.42871.83789,2.46777v.90918ZM216.37168,18.77803c0-1.00244-.4043-1.50391-1.2168-1.50391-.3457,0-.64648.14355-.89844.43066-.25293.28711-.40625.64502-.46143,1.07324h2.57666Z" fill="#2f2f2f"/>
      <path d="M224.30625,17.93721c-.25977-.14111-.5625-.21191-.90918-.21191-.46973,0-.83594.17188-1.10059.51611s-.39648.8125-.39648,1.40479v3.34277h-2.16016v-7h2.16016v1.29883h.02734c.3418-.94775.95703-1.42188,1.8457-1.42188.22754,0,.40527.02734.5332.08203v1.98926Z" fill="#2f2f2f"/>
    </g>
    <g>
      <rect x="10.85076" y="30.8" width="341.14924" height="176" fill="#fff"/>
      <rect x="10.85076" y="30.8" width="341.14924" height="176" fill="#53b1e0" opacity=".1"/>
      <rect x="10.85076" y="30.8" width="341.14924" height="176" fill="none" stroke="#53b1e0" stroke-width=".25"/>
    </g>
    <line x1="10.85076" y1="118.8" x2="352" y2="118.8" fill="none" stroke="#53b1e0" stroke-width=".25"/>
    <g>
      <rect x="26.4" y="70.5" width="96.8" height="30.8" fill="#fff"/>
      <rect x="26.4" y="70.5" width="96.8" height="30.8" fill="#aa95c7" opacity=".15"/>
      <rect x="26.4" y="70.5" width="96.8" height="30.8" fill="none" stroke="#4e4f4f" stroke-width=".25"/>
    </g>
    <g>
      <rect x="41.88788" y="76.9" width="19.48286" height="12.98857" rx=".64943" ry=".64943" fill="url(#linear-gradient)"/>
      <polygon points="54.87645 81.50012 54.87645 85.27763 51.62931 87.18262 51.62931 83.39429 54.87645 81.50012" fill="#50e6ff"/>
      <polygon points="54.87645 81.50012 51.62931 83.40511 48.38217 81.50012 51.62931 79.60595 54.87645 81.50012" fill="#c3f1ff"/>
      <polygon points="51.62931 83.40511 51.62931 87.18262 48.38217 85.27763 48.38217 81.50012 51.62931 83.40511" fill="#9cebff"/>
      <polygon points="48.38217 85.27763 51.62931 83.39429 51.62931 87.18262 48.38217 85.27763" fill="#c3f1ff"/>
      <polygon points="54.87645 85.27763 51.62931 83.39429 51.62931 87.18262 54.87645 85.27763" fill="#9cebff"/>
      <path d="M55.53671,93.81762c-1.92664-.30307-2.00241-1.68851-2.00241-3.92904h-3.8208c0,2.24053-.06494,3.62598-1.99158,3.92904-.55086.06095-.96668.52817-.96332,1.08238h9.74143c.00336-.55421-.41246-1.02143-.96332-1.08238Z" fill="url(#linear-gradient-2)"/>
    </g>
    <g>
      <rect x="132" y="70.5" width="96.8" height="30.8" fill="#fff"/>
      <rect x="132" y="70.5" width="96.8" height="30.8" fill="#aa95c7" opacity=".15"/>
      <rect x="132" y="70.5" width="96.8" height="30.8" fill="none" stroke="#4e4f4f" stroke-width=".25"/>
    </g>
    <g>
      <rect x="147.48778" y="76.9" width="19.48286" height="12.98857" rx=".64943" ry=".64943" fill="url(#linear-gradient-3)"/>
      <polygon points="160.47636 81.50012 160.47636 85.27763 157.22921 87.18262 157.22921 83.39429 160.47636 81.50012" fill="#50e6ff"/>
      <polygon points="160.47636 81.50012 157.22921 83.40511 153.98207 81.50012 157.22921 79.60595 160.47636 81.50012" fill="#c3f1ff"/>
      <polygon points="157.22921 83.40511 157.22921 87.18262 153.98207 85.27763 153.98207 81.50012 157.22921 83.40511" fill="#9cebff"/>
      <polygon points="153.98207 85.27763 157.22921 83.39429 157.22921 87.18262 153.98207 85.27763" fill="#c3f1ff"/>
      <polygon points="160.47636 85.27763 157.22921 83.39429 157.22921 87.18262 160.47636 85.27763" fill="#9cebff"/>
      <path d="M161.13661,93.81762c-1.92664-.30307-2.00241-1.68851-2.00241-3.92904h-3.8208c0,2.24053-.06494,3.62598-1.99158,3.92904-.55086.06095-.96668.52817-.96332,1.08238h9.74143c.00336-.55421-.41246-1.02143-.96332-1.08238Z" fill="url(#linear-gradient-4)"/>
    </g>
    <g>
      <rect x="26.4" y="158.4" width="96.8" height="30.8" fill="#fff"/>
      <rect x="26.4" y="158.4" width="96.8" height="30.8" fill="#aa95c7" opacity=".15"/>
      <rect x="26.4" y="158.4" width="96.8" height="30.8" fill="none" stroke="#4e4f4f" stroke-width=".25"/>
    </g>
    <g id="f3784f80-3379-4e66-8e32-fca3fab0f4d7">
      <g>
        <path d="M41.68034,169.46615h19.89793v11.66909c0,.36713-.29762.66475-.66476.66475h-18.56842c-.36713,0-.66475-.29762-.66475-.66475v-11.66909Z" fill="url(#linear-gradient-5)"/>
        <path d="M42.34863,165.8h18.56137c.36713,0,.66476.29762.66476.66475h0v3.00022h-19.89088v-2.99904c-.00065-.36713.29644-.66528.66358-.66593.00039,0,.00079,0,.00118,0Z" fill="#773adc"/>
        <g>
          <rect x="44.12876" y="170.78272" width="4.33326" height="9.33363" rx=".32238" ry=".32238" fill="#fff"/>
          <rect x="49.46209" y="170.78272" width="4.33326" height="9.33363" rx=".32238" ry=".32238" fill="#fff" isolation="isolate" opacity=".75"/>
          <rect x="54.7966" y="170.78272" width="4.33326" height="9.33363" rx=".32238" ry=".32238" fill="#fff" isolation="isolate" opacity=".5"/>
        </g>
      </g>
    </g>
    <g>
      <rect x="132" y="158.4" width="96.8" height="30.8" fill="#fff"/>
      <rect x="132" y="158.4" width="96.8" height="30.8" fill="#aa95c7" opacity=".15"/>
      <rect x="132" y="158.4" width="96.8" height="30.8" fill="none" stroke="#4e4f4f" stroke-width=".25"/>
    </g>
    <g id="f3784f80-3379-4e66-8e32-fca3fab0f4d7-2" data-name="f3784f80-3379-4e66-8e32-fca3fab0f4d7">
      <g>
        <path d="M147.28024,169.46615h19.89793v11.66909c0,.36713-.29762.66475-.66476.66475h-18.56842c-.36713,0-.66475-.29762-.66475-.66475v-11.66909Z" fill="url(#linear-gradient-6)"/>
        <path d="M147.94853,165.8h18.56137c.36713,0,.66476.29762.66476.66475h0v3.00022h-19.89088v-2.99904c-.00065-.36713.29644-.66528.66358-.66593.00039,0,.00079,0,.00118,0Z" fill="#773adc"/>
        <g>
          <rect x="149.72866" y="170.78272" width="4.33326" height="9.33363" rx=".32238" ry=".32238" fill="#fff"/>
          <rect x="155.06199" y="170.78272" width="4.33326" height="9.33363" rx=".32238" ry=".32238" fill="#fff" isolation="isolate" opacity=".75"/>
          <rect x="160.3965" y="170.78272" width="4.33326" height="9.33363" rx=".32238" ry=".32238" fill="#fff" isolation="isolate" opacity=".5"/>
        </g>
      </g>
    </g>
    <g>
      <rect x="237.6" y="158.4" width="96.8" height="30.8" fill="#fff"/>
      <rect x="237.6" y="158.4" width="96.8" height="30.8" fill="#aa95c7" opacity=".15"/>
      <rect x="237.6" y="158.4" width="96.8" height="30.8" fill="none" stroke="#4e4f4f" stroke-width=".25"/>
    </g>
    <g id="f3784f80-3379-4e66-8e32-fca3fab0f4d7-3" data-name="f3784f80-3379-4e66-8e32-fca3fab0f4d7">
      <g>
        <path d="M250.8,169.46615h19.89793v11.66909c0,.36713-.29762.66475-.66476.66475h-18.56842c-.36713,0-.66475-.29762-.66475-.66475v-11.66909Z" fill="url(#linear-gradient-7)"/>
        <path d="M251.46828,165.8h18.56137c.36713,0,.66476.29762.66476.66475h0v3.00022h-19.89088v-2.99904c-.00065-.36713.29644-.66528.66358-.66593.00039,0,.00079,0,.00118,0Z" fill="#773adc"/>
        <g>
          <rect x="253.24842" y="170.78272" width="4.33326" height="9.33363" rx=".32238" ry=".32238" fill="#fff"/>
          <rect x="258.58175" y="170.78272" width="4.33326" height="9.33363" rx=".32238" ry=".32238" fill="#fff" isolation="isolate" opacity=".75"/>
          <rect x="263.91626" y="170.78272" width="4.33326" height="9.33363" rx=".32238" ry=".32238" fill="#fff" isolation="isolate" opacity=".5"/>
        </g>
      </g>
    </g>
    <g>
      <path d="M13.88532,15.33887l20.32915,20.32915c.27842.32103.76437.35558,1.0854.07717.17799-.15437.27545-.38177.26448-.61712V14.79892c.00059-.42494-.34342-.76991-.76836-.7705-.01386-.00002-.02772.00034-.04156.00107H14.42527c-.42492.00451-.76573.35263-.76122.77755.00211.19924.08144.38989.22127.53183Z" fill="url(#linear-gradient-8)"/>
      <path id="f582129e-1fd7-440c-a5c4-799b0a032e7c" d="M19.36582,20.81937l9.36815,9.36815,6.74939-6.74939v-8.63922c.00057-.40962-.31988-.74787-.72894-.76943h-8.59872l-6.78988,6.78988Z" fill="#50e6ff"/>
      <rect id="b55df55b-2ac6-4f92-ba84-9d8becd854da" x="11.38327" y="30.70496" width="12.64835" height="2.29479" rx=".27" ry=".27" transform="translate(-17.33663 21.85039) rotate(-45)" fill="url(#linear-gradient-9)"/>
      <rect id="a1d88672-156d-4d85-8ddb-d3d546338b0e" x="12.05661" y="25.8072" width="8.08576" height="2.29479" rx=".27" ry=".27" transform="translate(-14.34434 19.27888) rotate(-45)" fill="url(#linear-gradient-10)"/>
      <rect id="a50d2abb-ca8f-44bb-a92d-5a79f17e98d0" x="18.50103" y="32.29783" width="8.08576" height="2.29479" rx=".27" ry=".27" transform="translate(-17.04639 25.73684) rotate(-45)" fill="url(#linear-gradient-11)"/>
      <rect id="abef2dbd-e94f-4bb4-9503-d2b3cf2041a9" x="24.30523" y="19.76705" width="2.29479" height="2.29479" rx=".38" ry=".38" transform="translate(-7.33385 24.12342) rotate(-45)" fill="#fff"/>
      <rect id="a157044f-57ca-43a1-b77d-760bafa34854" x="27.54493" y="16.52178" width="2.29479" height="2.29479" rx=".38" ry=".38" transform="translate(-4.09021 25.46372) rotate(-45)" fill="#fff"/>
      <rect id="b637d7ff-a1d5-4533-b34f-12a87620ff68" x="27.55048" y="23.00679" width="2.29479" height="2.29479" rx=".38" ry=".38" transform="translate(-8.67418 27.36706) rotate(-45)" fill="#fff"/>
      <path id="f613147f-9647-4c5d-a52a-663abb19234f" d="M30.6778,20.54939l.89092-.89092c.19935-.20129.52413-.20286.72542-.00352.00118.00117.00235.00234.00352.00352l.89092.89092c.20129.19935.20286.52413.00352.72542-.00117.00118-.00234.00235-.00352.00352l-.89092.89092c-.19935.20129-.52413.20286-.72542.00352-.00118-.00117-.00235-.00234-.00352-.00352l-.89092-.89092c-.20129-.19935-.20286-.52413-.00352-.72542.00117-.00118.00234-.00235.00352-.00352" fill="#fff"/>
    </g>
  </g>
  <g id="Text">
    <g>
      <path d="M32.00742,56.78975c-.72461.38281-1.62695.57422-2.70703.57422-1.39453,0-2.51074-.44873-3.34961-1.34668-.83789-.89795-1.25781-2.07568-1.25781-3.53418,0-1.56787.47168-2.83447,1.41504-3.80078s2.13965-1.44922,3.58887-1.44922c.92969,0,1.7002.13428,2.31055.40332v1.22363c-.70117-.39209-1.47656-.58789-2.32422-.58789-1.125,0-2.03809.37598-2.7373,1.12793-.7002.75195-1.0498,1.75684-1.0498,3.01465,0,1.19385.32715,2.14551.98145,2.854.65332.7085,1.51172,1.06299,2.57324,1.06299.98438,0,1.83691-.21875,2.55664-.65625v1.11426Z" fill="#2f2f2f"/>
      <path d="M36.55625,57.36396c-1.03418,0-1.86035-.32715-2.47754-.98096-.61816-.65381-.92676-1.521-.92676-2.60107,0-1.17578.32129-2.09424.96387-2.75488s1.51074-.99121,2.60449-.99121c1.04395,0,1.8584.32129,2.44434.96387.58496.64258.87793,1.53369.87793,2.67285,0,1.1167-.31543,2.01074-.94629,2.68311-.63184.67236-1.47754,1.0083-2.54004,1.0083ZM36.63828,50.9792c-.71973,0-1.28906.24512-1.70898.73486-.41895.48975-.62891,1.16553-.62891,2.02686,0,.82959.21191,1.4834.63574,1.96191s.99121.71777,1.70215.71777c.72461,0,1.28223-.23486,1.67188-.7041s.58398-1.13721.58398-2.00293c0-.875-.19434-1.54932-.58398-2.02344s-.94727-.71094-1.67188-.71094Z" fill="#2f2f2f"/>
      <path d="M51.69785,57.1999h-1.12109v-4.01953c0-.7749-.12012-1.33545-.35938-1.68164s-.6416-.51953-1.20605-.51953c-.47852,0-.88574.21875-1.2207.65625s-.50195.96143-.50195,1.57227v3.99219h-1.12109v-4.15625c0-1.37646-.53125-2.06445-1.59277-2.06445-.49219,0-.89844.20605-1.2168.61865-.31934.4126-.47852.94922-.47852,1.60986v3.99219h-1.12109v-7h1.12109v1.10742h.02734c.49609-.84766,1.2207-1.27148,2.17383-1.27148.47852,0,.89551.1333,1.25098.3999s.59863.61621.73145,1.04932c.51953-.96631,1.29395-1.44922,2.32422-1.44922,1.54004,0,2.31055.9502,2.31055,2.85059v4.31348Z" fill="#2f2f2f"/>
      <path d="M54.87266,56.18818h-.02734v4.23145h-1.12109v-10.21973h1.12109v1.23047h.02734c.55176-.92969,1.3584-1.39453,2.41992-1.39453.90234,0,1.60645.31348,2.1123.93994s.75879,1.46631.75879,2.51904c0,1.17139-.28418,2.10889-.85449,2.81299-.56934.7041-1.34863,1.05615-2.33789,1.05615-.90625,0-1.60645-.39209-2.09863-1.17578ZM54.84531,53.36494v.97754c0,.57861.18848,1.06982.56445,1.47314s.85352.60498,1.43164.60498c.67969,0,1.21094-.25977,1.59668-.7793.38477-.51953.57715-1.2417.57715-2.16699,0-.7793-.17969-1.39014-.54004-1.83203-.35938-.44189-.84766-.66309-1.46289-.66309-.65137,0-1.17578.22656-1.57227.68018s-.59473,1.02197-.59473,1.70557Z" fill="#2f2f2f"/>
      <path d="M67.57285,57.1999h-1.12109v-1.10742h-.02734c-.46484.84766-1.18457,1.27148-2.16016,1.27148-1.66797,0-2.50195-.99365-2.50195-2.98047v-4.18359h1.11426v4.00586c0,1.47656.56543,2.21484,1.69531,2.21484.54688,0,.99707-.20166,1.35059-.60498.35254-.40332.5293-.93066.5293-1.58252v-4.0332h1.12109v7Z" fill="#2f2f2f"/>
      <path d="M73.01523,57.13154c-.26367.146-.6123.21875-1.0459.21875-1.22559,0-1.83887-.68359-1.83887-2.05078v-4.14258h-1.20312v-.95703h1.20312v-1.70898l1.12109-.3623v2.07129h1.76367v.95703h-1.76367v3.94434c0,.46924.08008.8042.23926,1.00488.16016.20068.42383.30078.79297.30078.2832,0,.52637-.07764.73145-.23242v.95703Z" fill="#2f2f2f"/>
      <path d="M80.0084,53.98018h-4.94238c.01855.7793.22852,1.38086.62891,1.80469.40137.42383.95312.63574,1.6543.63574.78906,0,1.51367-.25977,2.17383-.7793v1.05273c-.61523.44678-1.42871.66992-2.44043.66992-.98828,0-1.76562-.31787-2.33105-.95361-.56445-.63574-.84766-1.53027-.84766-2.68311,0-1.08936.30859-1.97656.92676-2.6626.61719-.68604,1.38379-1.02881,2.2998-1.02881s1.625.29639,2.12598.88867c.50195.59229.75195,1.41504.75195,2.46777v.58789ZM78.85996,53.02998c-.00391-.64697-.16016-1.15088-.46777-1.51074s-.73535-.54004-1.28223-.54004c-.52832,0-.97754.18896-1.34668.56738s-.59668.87256-.68359,1.4834h3.78027Z" fill="#2f2f2f"/>
      <path d="M86.65977,57.1999h-1.12109v-10.36328h1.12109v10.36328Z" fill="#2f2f2f"/>
      <path d="M93.81406,57.1999h-1.12109v-1.09375h-.02734c-.4873.83838-1.20508,1.25781-2.15332,1.25781-.69727,0-1.24316-.18457-1.63672-.55371-.39453-.36914-.5918-.85889-.5918-1.46973,0-1.30811.77051-2.06885,2.31055-2.2832l2.09863-.29395c0-1.18945-.48047-1.78418-1.44238-1.78418-.84277,0-1.60352.28711-2.2832.86133v-1.14844c.68848-.4375,1.48145-.65625,2.37891-.65625,1.64551,0,2.46777.87061,2.46777,2.61133v4.55273ZM92.69297,53.65889l-1.68848.23242c-.51953.07275-.91113.20166-1.17578.38623-.26367.18457-.39648.51172-.39648.98096,0,.3418.12207.62109.36621.8374.24316.21631.56836.32471.97363.32471.55664,0,1.01562-.19482,1.37793-.58447s.54297-.88281.54297-1.47998v-.69727Z" fill="#2f2f2f"/>
      <path d="M101.32578,50.1999l-3.21973,8.12109c-.57422,1.44922-1.38086,2.17383-2.41992,2.17383-.29199,0-.53613-.02979-.73145-.08887v-1.00488c.24121.08203.46191.12305.66309.12305.56445,0,.98828-.3374,1.27148-1.01172l.56055-1.32617-2.73438-6.98633h1.24414l1.89355,5.38672c.02246.06836.07031.24609.14355.5332h.04102c.02246-.10938.06836-.28271.13672-.51953l1.98926-5.40039h1.16211Z" fill="#2f2f2f"/>
      <path d="M107.96836,53.98018h-4.94238c.01855.7793.22852,1.38086.62891,1.80469.40137.42383.95312.63574,1.6543.63574.78906,0,1.51367-.25977,2.17383-.7793v1.05273c-.61523.44678-1.42871.66992-2.44043.66992-.98828,0-1.76562-.31787-2.33105-.95361-.56445-.63574-.84766-1.53027-.84766-2.68311,0-1.08936.30859-1.97656.92676-2.6626.61719-.68604,1.38379-1.02881,2.2998-1.02881s1.625.29639,2.12598.88867c.50195.59229.75195,1.41504.75195,2.46777v.58789ZM106.81992,53.02998c-.00391-.64697-.16016-1.15088-.46777-1.51074s-.73535-.54004-1.28223-.54004c-.52832,0-.97754.18896-1.34668.56738s-.59668.87256-.68359,1.4834h3.78027Z" fill="#2f2f2f"/>
      <path d="M113.30137,51.33467c-.19531-.15039-.47852-.22559-.84766-.22559-.47852,0-.87793.22559-1.19922.67676s-.48242,1.06641-.48242,1.8457v3.56836h-1.12109v-7h1.12109v1.44238h.02734c.16016-.49219.40332-.87598.73145-1.15186s.69531-.41357,1.10059-.41357c.29199,0,.51562.03174.66992.0957v1.16211Z" fill="#2f2f2f"/>
    </g>
    <g>
      <path d="M75.1876,90.4001h-1.4082l-5.04492-7.81348c-.12744-.1958-.23242-.40088-.31445-.61523h-.04102c.03662.20947.05469.65869.05469,1.34668v7.08203h-1.14844v-9.80273h1.49023l4.9082,7.69043c.20508.31885.3374.5376.39648.65625h.02734c-.04541-.28271-.06836-.76318-.06836-1.44238v-6.9043h1.14844v9.80273Z" fill="#2f2f2f"/>
      <path d="M80.44492,90.56416c-1.03467,0-1.86035-.32715-2.47803-.98096s-.92627-1.521-.92627-2.60107c0-1.17578.32129-2.09424.96387-2.75488s1.51074-.99121,2.60449-.99121c1.04346,0,1.8584.32129,2.44385.96387s.87842,1.53369.87842,2.67285c0,1.1167-.31543,2.01074-.94678,2.68311s-1.47754,1.0083-2.53955,1.0083ZM80.52695,84.17939c-.72021,0-1.28955.24512-1.70898.73486s-.62891,1.16553-.62891,2.02686c0,.82959.21191,1.4834.63574,1.96191s.99121.71777,1.70215.71777c.72461,0,1.28174-.23486,1.67139-.7041s.58447-1.13721.58447-2.00293c0-.875-.19482-1.54932-.58447-2.02344s-.94678-.71094-1.67139-.71094Z" fill="#2f2f2f"/>
      <path d="M91.68564,90.4001h-1.12109v-1.18945h-.02734c-.51953.90234-1.32178,1.35352-2.40625,1.35352-.87939,0-1.58252-.31348-2.10889-.93994s-.78955-1.47998-.78955-2.56006c0-1.15771.2915-2.08496.875-2.78223s1.36035-1.0459,2.33105-1.0459c.96143,0,1.66113.37842,2.09863,1.13477h.02734v-4.33398h1.12109v10.36328ZM90.56455,87.23506v-1.03223c0-.56494-.18701-1.04346-.56055-1.43555s-.84766-.58789-1.42188-.58789c-.68359,0-1.22119.25049-1.61328.75195s-.58789,1.19385-.58789,2.07812c0,.80664.18799,1.44336.56396,1.91064s.88086.70068,1.51416.70068c.62451,0,1.13135-.22559,1.521-.67676s.58447-1.021.58447-1.70898Z" fill="#2f2f2f"/>
      <path d="M99.50693,87.18037h-4.94238c.01807.7793.22803,1.38086.62891,1.80469s.95264.63574,1.6543.63574c.78857,0,1.51318-.25977,2.17383-.7793v1.05273c-.61523.44678-1.42871.66992-2.44043.66992-.98877,0-1.76611-.31787-2.33105-.95361s-.84766-1.53027-.84766-2.68311c0-1.08936.30859-1.97656.92627-2.6626s1.38428-1.02881,2.30029-1.02881,1.62451.29639,2.12598.88867.75195,1.41504.75195,2.46777v.58789ZM98.3585,86.23018c-.00439-.64697-.16064-1.15088-.46826-1.51074s-.73486-.54004-1.28174-.54004c-.52881,0-.97754.18896-1.34668.56738s-.59717.87256-.68359,1.4834h3.78027Z" fill="#2f2f2f"/>
    </g>
    <g>
      <path d="M180.78721,90.4001h-1.4082l-5.04492-7.81348c-.12744-.1958-.23242-.40088-.31445-.61523h-.04102c.03662.20947.05469.65869.05469,1.34668v7.08203h-1.14844v-9.80273h1.49023l4.9082,7.69043c.20508.31885.3374.5376.39648.65625h.02734c-.04541-.28271-.06836-.76318-.06836-1.44238v-6.9043h1.14844v9.80273Z" fill="#2f2f2f"/>
      <path d="M186.04453,90.56416c-1.03467,0-1.86035-.32715-2.47803-.98096s-.92627-1.521-.92627-2.60107c0-1.17578.32129-2.09424.96387-2.75488s1.51074-.99121,2.60449-.99121c1.04346,0,1.8584.32129,2.44385.96387s.87842,1.53369.87842,2.67285c0,1.1167-.31543,2.01074-.94678,2.68311s-1.47754,1.0083-2.53955,1.0083ZM186.12656,84.17939c-.72021,0-1.28955.24512-1.70898.73486s-.62891,1.16553-.62891,2.02686c0,.82959.21191,1.4834.63574,1.96191s.99121.71777,1.70215.71777c.72461,0,1.28174-.23486,1.67139-.7041s.58447-1.13721.58447-2.00293c0-.875-.19482-1.54932-.58447-2.02344s-.94678-.71094-1.67139-.71094Z" fill="#2f2f2f"/>
      <path d="M197.28525,90.4001h-1.12109v-1.18945h-.02734c-.51953.90234-1.32178,1.35352-2.40625,1.35352-.87939,0-1.58252-.31348-2.10889-.93994s-.78955-1.47998-.78955-2.56006c0-1.15771.2915-2.08496.875-2.78223s1.36035-1.0459,2.33105-1.0459c.96143,0,1.66113.37842,2.09863,1.13477h.02734v-4.33398h1.12109v10.36328ZM196.16416,87.23506v-1.03223c0-.56494-.18701-1.04346-.56055-1.43555s-.84766-.58789-1.42188-.58789c-.68359,0-1.22119.25049-1.61328.75195s-.58789,1.19385-.58789,2.07812c0,.80664.18799,1.44336.56396,1.91064s.88086.70068,1.51416.70068c.62451,0,1.13135-.22559,1.521-.67676s.58447-1.021.58447-1.70898Z" fill="#2f2f2f"/>
      <path d="M205.10654,87.18037h-4.94238c.01807.7793.22803,1.38086.62891,1.80469s.95264.63574,1.6543.63574c.78857,0,1.51318-.25977,2.17383-.7793v1.05273c-.61523.44678-1.42871.66992-2.44043.66992-.98877,0-1.76611-.31787-2.33105-.95361s-.84766-1.53027-.84766-2.68311c0-1.08936.30859-1.97656.92627-2.6626s1.38428-1.02881,2.30029-1.02881,1.62451.29639,2.12598.88867.75195,1.41504.75195,2.46777v.58789ZM203.95811,86.23018c-.00439-.64697-.16064-1.15088-.46826-1.51074s-.73486-.54004-1.28174-.54004c-.52881,0-.97754.18896-1.34668.56738s-.59717.87256-.68359,1.4834h3.78027Z" fill="#2f2f2f"/>
    </g>
    <g>
      <path d="M24.87754,144.80342v-1.35352c.15479.13672.34082.25977.55713.36914s.44434.20166.68359.27686.47949.1333.72119.17432.46484.06152.66992.06152c.70654,0,1.23389-.13086,1.58252-.39307s.52295-.63916.52295-1.13135c0-.26416-.05811-.49463-.17432-.69043s-.27686-.375-.48193-.53662-.44775-.31689-.72803-.46484-.58203-.3042-.90576-.46826c-.3418-.17334-.66064-.34863-.95703-.52637s-.55371-.37354-.77246-.58789-.39062-.45703-.51611-.72803-.18799-.58887-.18799-.95361c0-.44678.09814-.83496.29395-1.16553s.45361-.60254.77246-.81689.68262-.37354,1.09033-.47852.82373-.15723,1.24756-.15723c.96631,0,1.67041.11621,2.1123.34863v1.29199c-.57861-.40088-1.32178-.60156-2.22852-.60156-.25049,0-.50146.02637-.75195.07861s-.47412.1377-.66992.25635-.35547.271-.47852.45801-.18457.41455-.18457.68359c0,.25049.04688.46729.14014.64941s.23145.34863.41357.49902.4043.29639.6665.4375.56396.29639.90576.46484c.35107.17334.68359.35547.99805.54688s.59033.40332.82715.63574.4248.48975.56396.77246.2085.60596.2085.9707c0,.48291-.09473.89209-.28369,1.22705s-.44434.60742-.76562.81689-.69141.36133-1.11084.45459-.86133.14014-1.32617.14014c-.15479,0-.34619-.0127-.57422-.0376s-.46045-.06152-.69727-.10938-.46143-.10693-.67334-.17773-.38184-.14941-.50928-.23584Z" fill="#2f2f2f"/>
      <path d="M35.48887,145.13154c-.26416.146-.61279.21875-1.0459.21875-1.22607,0-1.83887-.68359-1.83887-2.05078v-4.14258h-1.20312v-.95703h1.20312v-1.70898l1.12109-.3623v2.07129h1.76367v.95703h-1.76367v3.94434c0,.46924.07959.8042.23926,1.00488s.42383.30078.79297.30078c.28271,0,.52637-.07764.73145-.23242v.95703Z" fill="#2f2f2f"/>
      <path d="M39.74668,145.36396c-1.03467,0-1.86035-.32715-2.47803-.98096s-.92627-1.521-.92627-2.60107c0-1.17578.32129-2.09424.96387-2.75488s1.51074-.99121,2.60449-.99121c1.04346,0,1.8584.32129,2.44385.96387s.87842,1.53369.87842,2.67285c0,1.1167-.31543,2.01074-.94678,2.68311s-1.47754,1.0083-2.53955,1.0083ZM39.82871,138.9792c-.72021,0-1.28955.24512-1.70898.73486s-.62891,1.16553-.62891,2.02686c0,.82959.21191,1.4834.63574,1.96191s.99121.71777,1.70215.71777c.72461,0,1.28174-.23486,1.67139-.7041s.58447-1.13721.58447-2.00293c0-.875-.19482-1.54932-.58447-2.02344s-.94678-.71094-1.67139-.71094Z" fill="#2f2f2f"/>
      <path d="M48.59873,139.33467c-.1958-.15039-.47852-.22559-.84766-.22559-.47852,0-.87842.22559-1.19971.67676s-.48193,1.06641-.48193,1.8457v3.56836h-1.12109v-7h1.12109v1.44238h.02734c.15967-.49219.40332-.87598.73145-1.15186s.69482-.41357,1.10059-.41357c.2915,0,.51514.03174.66992.0957v1.16211Z" fill="#2f2f2f"/>
      <path d="M54.77451,145.1999h-1.12109v-1.09375h-.02734c-.48779.83838-1.20557,1.25781-2.15332,1.25781-.69727,0-1.24316-.18457-1.63721-.55371s-.59131-.85889-.59131-1.46973c0-1.30811.77002-2.06885,2.31055-2.2832l2.09863-.29395c0-1.18945-.48096-1.78418-1.44238-1.78418-.84326,0-1.604.28711-2.2832.86133v-1.14844c.68799-.4375,1.48096-.65625,2.37891-.65625,1.64502,0,2.46777.87061,2.46777,2.61133v4.55273ZM53.65342,141.65889l-1.68848.23242c-.51953.07275-.91162.20166-1.17578.38623s-.39648.51172-.39648.98096c0,.3418.12207.62109.36572.8374s.56836.32471.97412.32471c.55615,0,1.01514-.19482,1.37744-.58447s.54346-.88281.54346-1.47998v-.69727Z" fill="#2f2f2f"/>
      <path d="M62.84336,144.63936c0,2.57031-1.23047,3.85547-3.69141,3.85547-.86572,0-1.62256-.16406-2.26953-.49219v-1.12109c.78857.4375,1.54053.65625,2.25586.65625,1.72266,0,2.58398-.91602,2.58398-2.74805v-.76562h-.02734c-.5332.89307-1.33545,1.33984-2.40625,1.33984-.87061,0-1.57129-.31104-2.10205-.93311s-.79639-1.45703-.79639-2.50537c0-1.18945.28613-2.13525.85791-2.83691s1.35449-1.05273,2.34814-1.05273c.94336,0,1.64307.37842,2.09863,1.13477h.02734v-.9707h1.12109v6.43945ZM61.72227,142.03486v-1.03223c0-.55615-.18799-1.03223-.56396-1.42871s-.84424-.59473-1.40479-.59473c-.69287,0-1.23486.25195-1.62695.75537s-.58789,1.20898-.58789,2.11572c0,.7793.18799,1.40234.56396,1.86963s.87402.70068,1.49365.70068c.62891,0,1.14062-.22314,1.53467-.66992s.59131-1.01855.59131-1.71582Z" fill="#2f2f2f"/>
      <path d="M70.66465,141.98018h-4.94238c.01807.7793.22803,1.38086.62891,1.80469s.95264.63574,1.6543.63574c.78857,0,1.51318-.25977,2.17383-.7793v1.05273c-.61523.44678-1.42871.66992-2.44043.66992-.98877,0-1.76611-.31787-2.33105-.95361s-.84766-1.53027-.84766-2.68311c0-1.08936.30859-1.97656.92627-2.6626s1.38428-1.02881,2.30029-1.02881,1.62451.29639,2.12598.88867.75195,1.41504.75195,2.46777v.58789ZM69.51621,141.02998c-.00439-.64697-.16064-1.15088-.46826-1.51074s-.73486-.54004-1.28174-.54004c-.52881,0-.97754.18896-1.34668.56738s-.59717.87256-.68359,1.4834h3.78027Z" fill="#2f2f2f"/>
      <path d="M77.31602,145.1999h-1.12109v-10.36328h1.12109v10.36328Z" fill="#2f2f2f"/>
      <path d="M84.47031,145.1999h-1.12109v-1.09375h-.02734c-.48779.83838-1.20557,1.25781-2.15332,1.25781-.69727,0-1.24316-.18457-1.63721-.55371s-.59131-.85889-.59131-1.46973c0-1.30811.77002-2.06885,2.31055-2.2832l2.09863-.29395c0-1.18945-.48096-1.78418-1.44238-1.78418-.84326,0-1.604.28711-2.2832.86133v-1.14844c.68799-.4375,1.48096-.65625,2.37891-.65625,1.64502,0,2.46777.87061,2.46777,2.61133v4.55273ZM83.34922,141.65889l-1.68848.23242c-.51953.07275-.91162.20166-1.17578.38623s-.39648.51172-.39648.98096c0,.3418.12207.62109.36572.8374s.56836.32471.97412.32471c.55615,0,1.01514-.19482,1.37744-.58447s.54346-.88281.54346-1.47998v-.69727Z" fill="#2f2f2f"/>
      <path d="M91.98154,138.1999l-3.21973,8.12109c-.57422,1.44922-1.38086,2.17383-2.41992,2.17383-.2915,0-.53564-.02979-.73145-.08887v-1.00488c.2417.08203.4624.12305.66309.12305.56494,0,.98877-.3374,1.27148-1.01172l.56055-1.32617-2.73438-6.98633h1.24414l1.89355,5.38672c.02295.06836.0708.24609.14355.5332h.04102c.02295-.10938.06836-.28271.13672-.51953l1.98926-5.40039h1.16211Z" fill="#2f2f2f"/>
      <path d="M98.62461,141.98018h-4.94238c.01807.7793.22803,1.38086.62891,1.80469s.95264.63574,1.6543.63574c.78857,0,1.51318-.25977,2.17383-.7793v1.05273c-.61523.44678-1.42871.66992-2.44043.66992-.98877,0-1.76611-.31787-2.33105-.95361s-.84766-1.53027-.84766-2.68311c0-1.08936.30859-1.97656.92627-2.6626s1.38428-1.02881,2.30029-1.02881,1.62451.29639,2.12598.88867.75195,1.41504.75195,2.46777v.58789ZM97.47617,141.02998c-.00439-.64697-.16064-1.15088-.46826-1.51074s-.73486-.54004-1.28174-.54004c-.52881,0-.97754.18896-1.34668.56738s-.59717.87256-.68359,1.4834h3.78027Z" fill="#2f2f2f"/>
      <path d="M103.95762,139.33467c-.1958-.15039-.47852-.22559-.84766-.22559-.47852,0-.87842.22559-1.19971.67676s-.48193,1.06641-.48193,1.8457v3.56836h-1.12109v-7h1.12109v1.44238h.02734c.15967-.49219.40332-.87598.73145-1.15186s.69482-.41357,1.10059-.41357c.2915,0,.51514.03174.66992.0957v1.16211Z" fill="#2f2f2f"/>
      <path d="M111.94883,147.42842h-.99805c-1.4126-1.61328-2.11914-3.60254-2.11914-5.96777,0-2.37451.70654-4.39551,2.11914-6.06348h1.01172c-1.43115,1.73193-2.14648,3.74854-2.14648,6.0498,0,2.2832.71094,4.27686,2.13281,5.98145Z" fill="#2f2f2f"/>
      <path d="M117.92979,138.52119l-4.14258,5.72168h4.10156v.95703h-5.74902v-.34863l4.14258-5.69434h-3.75293v-.95703h5.40039v.32129Z" fill="#2f2f2f"/>
      <path d="M122.10215,145.36396c-1.03418,0-1.86035-.32715-2.47852-.98096-.61719-.65381-.92578-1.521-.92578-2.60107,0-1.17578.32129-2.09424.96387-2.75488s1.51074-.99121,2.60449-.99121c1.04395,0,1.8584.32129,2.44336.96387.58594.64258.87891,1.53369.87891,2.67285,0,1.1167-.31543,2.01074-.94727,2.68311-.63086.67236-1.47754,1.0083-2.53906,1.0083ZM122.18418,138.9792c-.71973,0-1.29004.24512-1.70898.73486s-.62891,1.16553-.62891,2.02686c0,.82959.21191,1.4834.63574,1.96191s.99121.71777,1.70215.71777c.72461,0,1.28125-.23486,1.67188-.7041.38867-.46924.58398-1.13721.58398-2.00293,0-.875-.19531-1.54932-.58398-2.02344-.39062-.47412-.94727-.71094-1.67188-.71094Z" fill="#2f2f2f"/>
      <path d="M133.11387,145.1999h-1.12109v-3.99219c0-1.48584-.54199-2.22852-1.62695-2.22852-.56055,0-1.02441.21094-1.39062.63232-.36719.42139-.55078.95361-.55078,1.59619v3.99219h-1.12109v-7h1.12109v1.16211h.02734c.52832-.88428,1.29395-1.32617,2.29688-1.32617.76562,0,1.35156.24707,1.75684.7417s.6084,1.20898.6084,2.14307v4.2793Z" fill="#2f2f2f"/>
      <path d="M140.81797,141.98018h-4.94238c.01855.7793.22754,1.38086.62891,1.80469s.95215.63574,1.6543.63574c.78809,0,1.5127-.25977,2.17383-.7793v1.05273c-.61523.44678-1.42871.66992-2.44043.66992-.98926,0-1.76562-.31787-2.33105-.95361s-.84766-1.53027-.84766-2.68311c0-1.08936.30859-1.97656.92578-2.6626.61816-.68604,1.38477-1.02881,2.30078-1.02881s1.625.29639,2.12598.88867.75195,1.41504.75195,2.46777v.58789ZM139.66953,141.02998c-.00488-.64697-.16113-1.15088-.46777-1.51074-.30859-.35986-.73535-.54004-1.28223-.54004-.52832,0-.97754.18896-1.34668.56738s-.59668.87256-.68359,1.4834h3.78027Z" fill="#2f2f2f"/>
      <path d="M146.16465,141.74092h-3.73242v-.88184h3.73242v.88184Z" fill="#2f2f2f"/>
      <path d="M151.72422,139.33467c-.19629-.15039-.47852-.22559-.84766-.22559-.47852,0-.87891.22559-1.19922.67676-.32227.45117-.48242,1.06641-.48242,1.8457v3.56836h-1.12109v-7h1.12109v1.44238h.02734c.15918-.49219.40332-.87598.73145-1.15186s.69531-.41357,1.10059-.41357c.29199,0,.51465.03174.66992.0957v1.16211Z" fill="#2f2f2f"/>
      <path d="M158.56699,141.98018h-4.94238c.01855.7793.22754,1.38086.62891,1.80469s.95215.63574,1.6543.63574c.78809,0,1.5127-.25977,2.17383-.7793v1.05273c-.61523.44678-1.42871.66992-2.44043.66992-.98926,0-1.76562-.31787-2.33105-.95361s-.84766-1.53027-.84766-2.68311c0-1.08936.30859-1.97656.92578-2.6626.61816-.68604,1.38477-1.02881,2.30078-1.02881s1.625.29639,2.12598.88867.75195,1.41504.75195,2.46777v.58789ZM157.41855,141.02998c-.00488-.64697-.16113-1.15088-.46777-1.51074-.30859-.35986-.73535-.54004-1.28223-.54004-.52832,0-.97754.18896-1.34668.56738s-.59668.87256-.68359,1.4834h3.78027Z" fill="#2f2f2f"/>
      <path d="M166.29844,145.1999h-1.12109v-1.18945h-.02734c-.51953.90234-1.32129,1.35352-2.40625,1.35352-.87988,0-1.58203-.31348-2.10938-.93994-.52539-.62646-.78906-1.47998-.78906-2.56006,0-1.15771.29199-2.08496.875-2.78223s1.36035-1.0459,2.33105-1.0459c.96191,0,1.66113.37842,2.09863,1.13477h.02734v-4.33398h1.12109v10.36328ZM165.17734,142.03486v-1.03223c0-.56494-.18652-1.04346-.56055-1.43555s-.84766-.58789-1.42188-.58789c-.68359,0-1.22168.25049-1.61328.75195s-.58789,1.19385-.58789,2.07812c0,.80664.1875,1.44336.56445,1.91064.375.46729.87988.70068,1.51367.70068.62402,0,1.13086-.22559,1.52148-.67676.38867-.45117.58398-1.021.58398-1.70898Z" fill="#2f2f2f"/>
      <path d="M174.12559,145.1999h-1.12109v-1.10742h-.02734c-.46484.84766-1.18457,1.27148-2.16016,1.27148-1.66797,0-2.50195-.99365-2.50195-2.98047v-4.18359h1.11426v4.00586c0,1.47656.56543,2.21484,1.69531,2.21484.54688,0,.99707-.20166,1.35059-.60498.35254-.40332.5293-.93066.5293-1.58252v-4.0332h1.12109v7Z" fill="#2f2f2f"/>
      <path d="M182.04355,145.1999h-1.12109v-3.99219c0-1.48584-.54199-2.22852-1.62695-2.22852-.56055,0-1.02441.21094-1.39062.63232-.36719.42139-.55078.95361-.55078,1.59619v3.99219h-1.12109v-7h1.12109v1.16211h.02734c.52832-.88428,1.29395-1.32617,2.29688-1.32617.76562,0,1.35156.24707,1.75684.7417s.6084,1.20898.6084,2.14307v4.2793Z" fill="#2f2f2f"/>
      <path d="M190.11777,145.1999h-1.12109v-1.18945h-.02734c-.51953.90234-1.32129,1.35352-2.40625,1.35352-.87988,0-1.58203-.31348-2.10938-.93994-.52539-.62646-.78906-1.47998-.78906-2.56006,0-1.15771.29199-2.08496.875-2.78223s1.36035-1.0459,2.33105-1.0459c.96191,0,1.66113.37842,2.09863,1.13477h.02734v-4.33398h1.12109v10.36328ZM188.99668,142.03486v-1.03223c0-.56494-.18652-1.04346-.56055-1.43555s-.84766-.58789-1.42188-.58789c-.68359,0-1.22168.25049-1.61328.75195s-.58789,1.19385-.58789,2.07812c0,.80664.1875,1.44336.56445,1.91064.375.46729.87988.70068,1.51367.70068.62402,0,1.13086-.22559,1.52148-.67676.38867-.45117.58398-1.021.58398-1.70898Z" fill="#2f2f2f"/>
      <path d="M197.275,145.1999h-1.12109v-1.09375h-.02734c-.4873.83838-1.20508,1.25781-2.15332,1.25781-.69727,0-1.24316-.18457-1.63672-.55371-.39453-.36914-.5918-.85889-.5918-1.46973,0-1.30811.77051-2.06885,2.31055-2.2832l2.09863-.29395c0-1.18945-.48047-1.78418-1.44238-1.78418-.84277,0-1.60449.28711-2.2832.86133v-1.14844c.68848-.4375,1.48145-.65625,2.37891-.65625,1.64551,0,2.46777.87061,2.46777,2.61133v4.55273ZM196.15391,141.65889l-1.68848.23242c-.51953.07275-.91113.20166-1.17578.38623s-.39648.51172-.39648.98096c0,.3418.12207.62109.36523.8374.24414.21631.56934.32471.97461.32471.55566,0,1.01562-.19482,1.37695-.58447.36328-.38965.54395-.88281.54395-1.47998v-.69727Z" fill="#2f2f2f"/>
      <path d="M205.10703,145.1999h-1.12109v-3.99219c0-1.48584-.54199-2.22852-1.62695-2.22852-.56055,0-1.02441.21094-1.39062.63232-.36719.42139-.55078.95361-.55078,1.59619v3.99219h-1.12109v-7h1.12109v1.16211h.02734c.52832-.88428,1.29395-1.32617,2.29688-1.32617.76562,0,1.35156.24707,1.75684.7417s.6084,1.20898.6084,2.14307v4.2793Z" fill="#2f2f2f"/>
      <path d="M210.33652,145.13154c-.26465.146-.61328.21875-1.0459.21875-1.22559,0-1.83887-.68359-1.83887-2.05078v-4.14258h-1.20312v-.95703h1.20312v-1.70898l1.12109-.3623v2.07129h1.76367v.95703h-1.76367v3.94434c0,.46924.08008.8042.23926,1.00488s.42383.30078.79297.30078c.28223,0,.52637-.07764.73145-.23242v.95703Z" fill="#2f2f2f"/>
      <path d="M211.56113,147.42842h-.99805c1.42188-1.70459,2.13281-3.69824,2.13281-5.98145,0-2.30127-.71582-4.31787-2.14648-6.0498h1.01172c1.42188,1.66797,2.13281,3.68896,2.13281,6.06348,0,2.36523-.71094,4.35449-2.13281,5.96777Z" fill="#2f2f2f"/>
    </g>
    <g>
      <path d="M73.95713,177.98994c-.72461.38281-1.62695.57422-2.70703.57422-1.39453,0-2.51123-.44873-3.34961-1.34668s-1.25781-2.07568-1.25781-3.53418c0-1.56787.47168-2.83447,1.41504-3.80078s2.13965-1.44922,3.58887-1.44922c.92969,0,1.69971.13428,2.31055.40332v1.22363c-.70166-.39209-1.47656-.58789-2.32422-.58789-1.12549,0-2.03809.37598-2.73779,1.12793s-1.04932,1.75684-1.04932,3.01465c0,1.19385.32715,2.14551.98096,2.854s1.51172,1.06299,2.57373,1.06299c.98438,0,1.83643-.21875,2.55664-.65625v1.11426Z" fill="#2f2f2f"/>
      <path d="M78.50596,178.56416c-1.03467,0-1.86035-.32715-2.47803-.98096s-.92627-1.521-.92627-2.60107c0-1.17578.32129-2.09424.96387-2.75488s1.51074-.99121,2.60449-.99121c1.04346,0,1.8584.32129,2.44385.96387s.87842,1.53369.87842,2.67285c0,1.1167-.31543,2.01074-.94678,2.68311s-1.47754,1.0083-2.53955,1.0083ZM78.58799,172.17939c-.72021,0-1.28955.24512-1.70898.73486s-.62891,1.16553-.62891,2.02686c0,.82959.21191,1.4834.63574,1.96191s.99121.71777,1.70215.71777c.72461,0,1.28174-.23486,1.67139-.7041s.58447-1.13721.58447-2.00293c0-.875-.19482-1.54932-.58447-2.02344s-.94678-.71094-1.67139-.71094Z" fill="#2f2f2f"/>
      <path d="M84.85605,177.38838h-.02734v4.23145h-1.12109v-10.21973h1.12109v1.23047h.02734c.55127-.92969,1.35791-1.39453,2.41992-1.39453.90234,0,1.60645.31348,2.1123.93994s.75879,1.46631.75879,2.51904c0,1.17139-.28467,2.10889-.85449,2.81299s-1.34912,1.05615-2.33789,1.05615c-.90674,0-1.60645-.39209-2.09863-1.17578ZM84.82871,174.56514v.97754c0,.57861.18799,1.06982.56396,1.47314s.85352.60498,1.43213.60498c.6792,0,1.21094-.25977,1.59619-.7793s.57764-1.2417.57764-2.16699c0-.7793-.18018-1.39014-.54004-1.83203s-.84766-.66309-1.46289-.66309c-.65186,0-1.17578.22656-1.57227.68018s-.59473,1.02197-.59473,1.70557Z" fill="#2f2f2f"/>
      <path d="M97.37217,171.4001l-3.21973,8.12109c-.57422,1.44922-1.38086,2.17383-2.41992,2.17383-.2915,0-.53564-.02979-.73145-.08887v-1.00488c.2417.08203.4624.12305.66309.12305.56494,0,.98877-.3374,1.27148-1.01172l.56055-1.32617-2.73438-6.98633h1.24414l1.89355,5.38672c.02295.06836.0708.24609.14355.5332h.04102c.02295-.10938.06836-.28271.13672-.51953l1.98926-5.40039h1.16211Z" fill="#2f2f2f"/>
      <path d="M106.22471,178.4001h-1.12109v-8.46973c-.08643.08643-.21289.18555-.37939.29736s-.35303.22217-.56055.33154-.42627.21191-.65625.30762-.45459.1709-.67334.22559v-1.13477c.24609-.06836.50684-.16064.78271-.27686s.54688-.24609.81348-.38965.51855-.29395.75537-.45117.44189-.31104.61523-.46143h.42383v10.02148Z" fill="#2f2f2f"/>
    </g>
    <g>
      <path d="M179.55723,177.98994c-.72461.38281-1.62695.57422-2.70703.57422-1.39453,0-2.51123-.44873-3.34961-1.34668s-1.25781-2.07568-1.25781-3.53418c0-1.56787.47168-2.83447,1.41504-3.80078s2.13965-1.44922,3.58887-1.44922c.92969,0,1.69971.13428,2.31055.40332v1.22363c-.70166-.39209-1.47656-.58789-2.32422-.58789-1.12549,0-2.03809.37598-2.73779,1.12793s-1.04932,1.75684-1.04932,3.01465c0,1.19385.32715,2.14551.98096,2.854s1.51172,1.06299,2.57373,1.06299c.98438,0,1.83643-.21875,2.55664-.65625v1.11426Z" fill="#2f2f2f"/>
      <path d="M184.10605,178.56416c-1.03467,0-1.86035-.32715-2.47803-.98096s-.92627-1.521-.92627-2.60107c0-1.17578.32129-2.09424.96387-2.75488s1.51074-.99121,2.60449-.99121c1.04346,0,1.8584.32129,2.44385.96387s.87842,1.53369.87842,2.67285c0,1.1167-.31543,2.01074-.94678,2.68311s-1.47754,1.0083-2.53955,1.0083ZM184.18809,172.17939c-.72021,0-1.28955.24512-1.70898.73486s-.62891,1.16553-.62891,2.02686c0,.82959.21191,1.4834.63574,1.96191s.99121.71777,1.70215.71777c.72461,0,1.28174-.23486,1.67139-.7041s.58447-1.13721.58447-2.00293c0-.875-.19482-1.54932-.58447-2.02344s-.94678-.71094-1.67139-.71094Z" fill="#2f2f2f"/>
      <path d="M190.45615,177.38838h-.02734v4.23145h-1.12109v-10.21973h1.12109v1.23047h.02734c.55127-.92969,1.35791-1.39453,2.41992-1.39453.90234,0,1.60645.31348,2.1123.93994s.75879,1.46631.75879,2.51904c0,1.17139-.28467,2.10889-.85449,2.81299s-1.34912,1.05615-2.33789,1.05615c-.90674,0-1.60645-.39209-2.09863-1.17578ZM190.42881,174.56514v.97754c0,.57861.18799,1.06982.56396,1.47314s.85352.60498,1.43213.60498c.6792,0,1.21094-.25977,1.59619-.7793s.57764-1.2417.57764-2.16699c0-.7793-.18018-1.39014-.54004-1.83203s-.84766-.66309-1.46289-.66309c-.65186,0-1.17578.22656-1.57227.68018s-.59473,1.02197-.59473,1.70557Z" fill="#2f2f2f"/>
      <path d="M202.97227,171.4001l-3.21973,8.12109c-.57422,1.44922-1.38086,2.17383-2.41992,2.17383-.2915,0-.53564-.02979-.73145-.08887v-1.00488c.2417.08203.4624.12305.66309.12305.56494,0,.98877-.3374,1.27148-1.01172l.56055-1.32617-2.73438-6.98633h1.24414l1.89355,5.38672c.02295.06836.0708.24609.14355.5332h.04102c.02295-.10938.06836-.28271.13672-.51953l1.98926-5.40039h1.16211Z" fill="#2f2f2f"/>
      <path d="M212.15293,171.16768c0-.30078-.04688-.56299-.14014-.78613s-.22119-.40918-.38281-.55713-.35205-.25879-.5708-.33154-.45557-.10938-.71094-.10938c-.21875,0-.43311.02979-.64258.08887s-.41357.14111-.61182.24609-.38965.22998-.57422.37598-.35645.30762-.51611.48535v-1.20312c.31445-.30518.6665-.53906,1.05615-.70068s.86475-.24268,1.42529-.24268c.40088,0,.77246.05811,1.11426.17432s.63818.28613.88867.50928.44775.49902.59131.82715.21533.7041.21533,1.12793c0,.38721-.04443.73828-.1333,1.05273s-.22314.61084-.40332.88867-.40674.54443-.68018.7998-.59473.51514-.96387.7793c-.46045.32812-.83984.6084-1.13818.84082s-.53564.4502-.71094.65283-.29834.40576-.36914.6084-.10596.43652-.10596.70068h4.88086v1.00488h-6.0498v-.48535c0-.41943.04541-.78857.13672-1.10742s.2417-.62207.45117-.90918.48438-.57422.82373-.86133.75537-.61084,1.24756-.9707c.35547-.25537.65283-.49902.89209-.73145s.43164-.46484.57764-.69727.24951-.46826.31104-.70752.09229-.49316.09229-.76221Z" fill="#2f2f2f"/>
    </g>
    <g>
      <path d="M284.30625,177.98994c-.72461.38281-1.62695.57422-2.70703.57422-1.39453,0-2.51123-.44873-3.34961-1.34668s-1.25781-2.07568-1.25781-3.53418c0-1.56787.47168-2.83447,1.41504-3.80078s2.13965-1.44922,3.58887-1.44922c.92969,0,1.69971.13428,2.31055.40332v1.22363c-.70166-.39209-1.47656-.58789-2.32422-.58789-1.12549,0-2.03809.37598-2.73779,1.12793s-1.04932,1.75684-1.04932,3.01465c0,1.19385.32715,2.14551.98096,2.854s1.51172,1.06299,2.57373,1.06299c.98438,0,1.83643-.21875,2.55664-.65625v1.11426Z" fill="#2f2f2f"/>
      <path d="M288.85508,178.56416c-1.03467,0-1.86035-.32715-2.47803-.98096s-.92627-1.521-.92627-2.60107c0-1.17578.32129-2.09424.96387-2.75488s1.51074-.99121,2.60449-.99121c1.04346,0,1.8584.32129,2.44385.96387s.87842,1.53369.87842,2.67285c0,1.1167-.31543,2.01074-.94678,2.68311s-1.47754,1.0083-2.53955,1.0083ZM288.93711,172.17939c-.72021,0-1.28955.24512-1.70898.73486s-.62891,1.16553-.62891,2.02686c0,.82959.21191,1.4834.63574,1.96191s.99121.71777,1.70215.71777c.72461,0,1.28174-.23486,1.67139-.7041s.58447-1.13721.58447-2.00293c0-.875-.19482-1.54932-.58447-2.02344s-.94678-.71094-1.67139-.71094Z" fill="#2f2f2f"/>
      <path d="M295.20518,177.38838h-.02734v4.23145h-1.12109v-10.21973h1.12109v1.23047h.02734c.55127-.92969,1.35791-1.39453,2.41992-1.39453.90234,0,1.60645.31348,2.1123.93994s.75879,1.46631.75879,2.51904c0,1.17139-.28467,2.10889-.85449,2.81299s-1.34912,1.05615-2.33789,1.05615c-.90674,0-1.60645-.39209-2.09863-1.17578ZM295.17783,174.56514v.97754c0,.57861.18799,1.06982.56396,1.47314s.85352.60498,1.43213.60498c.6792,0,1.21094-.25977,1.59619-.7793s.57764-1.2417.57764-2.16699c0-.7793-.18018-1.39014-.54004-1.83203s-.84766-.66309-1.46289-.66309c-.65186,0-1.17578.22656-1.57227.68018s-.59473,1.02197-.59473,1.70557Z" fill="#2f2f2f"/>
      <path d="M307.72129,171.4001l-3.21973,8.12109c-.57422,1.44922-1.38086,2.17383-2.41992,2.17383-.2915,0-.53564-.02979-.73145-.08887v-1.00488c.2417.08203.4624.12305.66309.12305.56494,0,.98877-.3374,1.27148-1.01172l.56055-1.32617-2.73438-6.98633h1.24414l1.89355,5.38672c.02295.06836.0708.24609.14355.5332h.04102c.02295-.10938.06836-.28271.13672-.51953l1.98926-5.40039h1.16211Z" fill="#2f2f2f"/>
      <path d="M318.13926,175.62471c0,.44189-.08301.84424-.24951,1.20654s-.40088.67236-.7041.92969-.6665.45703-1.09033.59814-.89111.21191-1.40137.21191c-.93408,0-1.67725-.17773-2.22852-.5332v-1.20312c.66064.51953,1.41748.7793,2.26953.7793.3418,0,.65039-.04346.92627-.12988s.5127-.21191.71094-.37598.35107-.3623.45801-.59473.16064-.49463.16064-.78613c0-1.28076-.91162-1.9209-2.73438-1.9209h-.81348v-.9502h.77246c1.61328,0,2.41992-.60156,2.41992-1.80469,0-1.11182-.61523-1.66797-1.8457-1.66797-.69287,0-1.34229.23242-1.94824.69727v-1.08691c.62451-.37354,1.36719-.56055,2.22852-.56055.41016,0,.78174.05713,1.11426.1709s.61768.27344.85449.47852.42041.45117.55029.73828.19482.604.19482.9502c0,1.28955-.65186,2.11914-1.95508,2.48828v.02734c.33252.03662.64014.11719.92285.24268s.52637.28809.73145.48877.36572.43652.48193.70752.17432.5708.17432.89893Z" fill="#2f2f2f"/>
    </g>
  </g>
</svg>