<?xml version="1.0" encoding="UTF-8"?>
<svg xmlns="http://www.w3.org/2000/svg" width="704" height="316.8" xmlns:xlink="http://www.w3.org/1999/xlink" viewBox="0 0 704 316.8">
  <defs>
    <linearGradient id="Cool_gray_gradient_1" data-name="Cool gray gradient 1" x1="524.47044" y1="157.30163" x2="694.77026" y2="157.30163" gradientUnits="userSpaceOnUse">
      <stop offset="0" stop-color="#f5f5f4"/>
      <stop offset="1" stop-color="#ececea"/>
    </linearGradient>
    <linearGradient id="Cool_gray_gradient_1-2" data-name="Cool gray gradient 1" x1="344.77399" x2="515.0738" xlink:href="#Cool_gray_gradient_1"/>
    <linearGradient id="Cool_gray_gradient_1-3" data-name="Cool gray gradient 1" x1="167.38517" x2="337.68499" xlink:href="#Cool_gray_gradient_1"/>
    <linearGradient id="linear-gradient" x1="-336.17382" y1="-86.98857" x2="-336.17382" y2="-74" gradientTransform="translate(564 33.6) scale(1 -1)" gradientUnits="userSpaceOnUse">
      <stop offset="0" stop-color="#0078d4"/>
      <stop offset=".82" stop-color="#5ea0ef"/>
    </linearGradient>
    <linearGradient id="linear-gradient-2" x1="-336.17382" y1="-92" x2="-336.17382" y2="-86.98857" gradientTransform="translate(564 33.6) scale(1 -1)" gradientUnits="userSpaceOnUse">
      <stop offset=".15" stop-color="#ccc"/>
      <stop offset="1" stop-color="#707070"/>
    </linearGradient>
    <linearGradient id="linear-gradient-3" y1="-126.58857" y2="-113.6" xlink:href="#linear-gradient"/>
    <linearGradient id="linear-gradient-4" y1="-131.6" y2="-126.58857" xlink:href="#linear-gradient-2"/>
    <linearGradient id="linear-gradient-5" x1="71.24363" y1="-353.08155" x2="94.10599" y2="-353.08155" gradientTransform="translate(0 -200.4) scale(1 -1)" gradientUnits="userSpaceOnUse">
      <stop offset=".1" stop-color="#54aef0"/>
      <stop offset="1" stop-color="#1988d9"/>
    </linearGradient>
    <linearGradient id="linear-gradient-6" x1="70.06062" y1="-360.26234" x2="80.8838" y2="-360.26234" gradientTransform="translate(276.84796 -148.24538) rotate(45) scale(1 -1)" gradientUnits="userSpaceOnUse">
      <stop offset="0" stop-color="#b3b2b3"/>
      <stop offset="1" stop-color="#979797"/>
    </linearGradient>
    <linearGradient id="linear-gradient-7" x1="70.05809" y1="-355.14979" x2="77.51695" y2="-355.14979" gradientTransform="translate(272.73817 -148.56433) rotate(45) scale(1 -1)" xlink:href="#linear-gradient-6"/>
    <linearGradient id="linear-gradient-8" x1="76.80751" y1="-361.93557" x2="84.25776" y2="-361.93557" gradientTransform="translate(279.51558 -151.33515) rotate(45) scale(1 -1)" xlink:href="#linear-gradient-6"/>
    <linearGradient id="linear-gradient-9" x1="-338.79953" y1="-223.5" x2="-338.79953" y2="-210.39529" gradientTransform="translate(564 33.6) scale(1 -1)" gradientUnits="userSpaceOnUse">
      <stop offset="0" stop-color="#a67af4"/>
      <stop offset=".775" stop-color="#b796f9"/>
    </linearGradient>
  </defs>
  <g isolation="isolate">
    <g id="Shapes">
      <rect width="704" height="316.8" fill="#fff"/>
      <g>
        <g mix-blend-mode="multiply" opacity=".8">
          <path d="M695.2,300c0,4.4-3.09414,8-6.87587,8h-156.54807c-3.78173,0-6.87587-3.6-6.87587-8V15.60325c0-4.4,3.09414-8,6.87587-8h156.54807c3.78173,0,6.87587,3.6,6.87587,8v284.39675Z" fill="#2b436f"/>
          <path d="M695.2,300c0,4.4-3.09414,8-6.87587,8h-156.54807c-3.78173,0-6.87587-3.6-6.87587-8V15.60325c0-4.4,3.09414-8,6.87587-8h156.54807c3.78173,0,6.87587,3.6,6.87587,8v284.39675Z" fill="#2b436f" opacity=".4"/>
        </g>
        <g>
          <path d="M694.77026,299.5c0,4.4-3.09414,8-6.87587,8h-156.54807c-3.78173,0-6.87587-3.6-6.87587-8V15.10325c0-4.4,3.09414-8,6.87587-8h156.54807c3.78173,0,6.87587,3.6,6.87587,8v284.39675Z" fill="url(#Cool_gray_gradient_1)"/>
          <path d="M694.77026,299.5c0,4.4-3.09414,8-6.87587,8h-156.54807c-3.78173,0-6.87587-3.6-6.87587-8V15.10325c0-4.4,3.09414-8,6.87587-8h156.54807c3.78173,0,6.87587,3.6,6.87587,8v284.39675Z" fill="#8ec8e7" opacity=".4"/>
        </g>
      </g>
      <g>
        <g mix-blend-mode="multiply" opacity=".8">
          <path d="M515.50354,300c0,4.4-3.09414,8-6.87587,8h-156.54807c-3.78173,0-6.87587-3.6-6.87587-8V15.60325c0-4.4,3.09414-8,6.87587-8h156.54807c3.78173,0,6.87587,3.6,6.87587,8v284.39675Z" fill="#2b436f"/>
          <path d="M515.50354,300c0,4.4-3.09414,8-6.87587,8h-156.54807c-3.78173,0-6.87587-3.6-6.87587-8V15.60325c0-4.4,3.09414-8,6.87587-8h156.54807c3.78173,0,6.87587,3.6,6.87587,8v284.39675Z" fill="#2b436f" opacity=".4"/>
        </g>
        <g>
          <path d="M515.0738,299.5c0,4.4-3.09414,8-6.87587,8h-156.54807c-3.78173,0-6.87587-3.6-6.87587-8V15.10325c0-4.4,3.09414-8,6.87587-8h156.54807c3.78173,0,6.87587,3.6,6.87587,8v284.39675Z" fill="url(#Cool_gray_gradient_1-2)"/>
          <path d="M515.0738,299.5c0,4.4-3.09414,8-6.87587,8h-156.54807c-3.78173,0-6.87587-3.6-6.87587-8V15.10325c0-4.4,3.09414-8,6.87587-8h156.54807c3.78173,0,6.87587,3.6,6.87587,8v284.39675Z" fill="#8ec8e7" opacity=".4"/>
        </g>
      </g>
      <g>
        <g mix-blend-mode="multiply" opacity=".8">
          <path d="M338.11473,300c0,4.4-3.09414,8-6.87587,8h-156.54807c-3.78173,0-6.87587-3.6-6.87587-8V15.60325c0-4.4,3.09414-8,6.87587-8h156.54807c3.78173,0,6.87587,3.6,6.87587,8v284.39675Z" fill="#2b436f"/>
          <path d="M338.11473,300c0,4.4-3.09414,8-6.87587,8h-156.54807c-3.78173,0-6.87587-3.6-6.87587-8V15.60325c0-4.4,3.09414-8,6.87587-8h156.54807c3.78173,0,6.87587,3.6,6.87587,8v284.39675Z" fill="#2b436f" opacity=".4"/>
        </g>
        <g>
          <path d="M337.68499,299.5c0,4.4-3.09414,8-6.87587,8h-156.54807c-3.78173,0-6.87587-3.6-6.87587-8V15.10325c0-4.4,3.09414-8,6.87587-8h156.54807c3.78173,0,6.87587,3.6,6.87587,8v284.39675Z" fill="url(#Cool_gray_gradient_1-3)"/>
          <path d="M337.68499,299.5c0,4.4-3.09414,8-6.87587,8h-156.54807c-3.78173,0-6.87587-3.6-6.87587-8V15.10325c0-4.4,3.09414-8,6.87587-8h156.54807c3.78173,0,6.87587,3.6,6.87587,8v284.39675Z" fill="#8ec8e7" opacity=".4"/>
        </g>
      </g>
      <g>
        <rect x="10.08343" y="61.6" width="328.71657" height="228.62256" fill="#fff"/>
        <rect x="10.08343" y="61.6" width="328.71657" height="228.62256" fill="#53b1e0" opacity=".1"/>
        <rect x="10.08343" y="61.6" width="328.71657" height="228.62256" fill="none" stroke="#53b1e0" stroke-width=".25"/>
      </g>
      <line x1="167.2" y1="184.8" x2="338.8" y2="184.8" fill="none" stroke="#53b1e0" stroke-width=".25"/>
      <g>
        <rect x="202.4" y="101.2" width="96.8" height="30.8" fill="#fff"/>
        <rect x="202.4" y="101.2" width="96.8" height="30.8" fill="#aa95c7" opacity=".15"/>
        <rect x="202.4" y="101.2" width="96.8" height="30.8" fill="none" stroke="#4e4f4f" stroke-width=".25"/>
      </g>
      <g>
        <rect x="218.08475" y="107.6" width="19.48286" height="12.98857" rx=".64943" ry=".64943" fill="url(#linear-gradient)"/>
        <polygon points="231.07332 112.20012 231.07332 115.97763 227.82618 117.88262 227.82618 114.09429 231.07332 112.20012" fill="#50e6ff"/>
        <polygon points="231.07332 112.20012 227.82618 114.10511 224.57904 112.20012 227.82618 110.30595 231.07332 112.20012" fill="#c3f1ff"/>
        <polygon points="227.82618 114.10511 227.82618 117.88262 224.57904 115.97763 224.57904 112.20012 227.82618 114.10511" fill="#9cebff"/>
        <polygon points="224.57904 115.97763 227.82618 114.09429 227.82618 117.88262 224.57904 115.97763" fill="#c3f1ff"/>
        <polygon points="231.07332 115.97763 227.82618 114.09429 227.82618 117.88262 231.07332 115.97763" fill="#9cebff"/>
        <path d="M231.73358,124.51762c-1.92664-.30307-2.00241-1.68851-2.00241-3.92904h-3.8208c0,2.24053-.06494,3.62598-1.99158,3.92904-.55086.06095-.96668.52817-.96332,1.08238h9.74143c.00336-.55421-.41246-1.02143-.96332-1.08238Z" fill="url(#linear-gradient-2)"/>
      </g>
      <g>
        <rect x="202.4" y="140.8" width="96.8" height="30.8" fill="#fff"/>
        <rect x="202.4" y="140.8" width="96.8" height="30.8" fill="#aa95c7" opacity=".15"/>
        <rect x="202.4" y="140.8" width="96.8" height="30.8" fill="none" stroke="#4e4f4f" stroke-width=".25"/>
      </g>
      <g>
        <rect x="218.08475" y="147.2" width="19.48286" height="12.98857" rx=".64943" ry=".64943" fill="url(#linear-gradient-3)"/>
        <polygon points="231.07332 151.80012 231.07332 155.57763 227.82618 157.48262 227.82618 153.69429 231.07332 151.80012" fill="#50e6ff"/>
        <polygon points="231.07332 151.80012 227.82618 153.70511 224.57904 151.80012 227.82618 149.90595 231.07332 151.80012" fill="#c3f1ff"/>
        <polygon points="227.82618 153.70511 227.82618 157.48262 224.57904 155.57763 224.57904 151.80012 227.82618 153.70511" fill="#9cebff"/>
        <polygon points="224.57904 155.57763 227.82618 153.69429 227.82618 157.48262 224.57904 155.57763" fill="#c3f1ff"/>
        <polygon points="231.07332 155.57763 227.82618 153.69429 227.82618 157.48262 231.07332 155.57763" fill="#9cebff"/>
        <path d="M231.73358,164.11762c-1.92664-.30307-2.00241-1.68851-2.00241-3.92904h-3.8208c0,2.24053-.06494,3.62598-1.99158,3.92904-.55086.06095-.96668.52817-.96332,1.08238h9.74143c.00336-.55421-.41246-1.02143-.96332-1.08238Z" fill="url(#linear-gradient-4)"/>
      </g>
      <g>
        <rect x="211.2" y="242" width="96.8" height="30.8" fill="#fff"/>
        <rect x="211.2" y="242" width="96.8" height="30.8" fill="#aa95c7" opacity=".15"/>
        <rect x="211.2" y="242" width="96.8" height="30.8" fill="none" stroke="#4e4f4f" stroke-width=".25"/>
      </g>
      <g>
        <path d="M71.47501,142.60111l21.25353,21.25353c.29108.33563.79912.37175,1.13475.08067.18609-.16138.28798-.39913.27651-.64518v-21.25353c.00062-.44427-.35903-.80491-.8033-.80553-.01449-.00002-.02898.00035-.04345.00111h-21.25353c-.44424.00471-.80055.36866-.79584.81291.00221.2083.08514.40762.23133.55601Z" fill="url(#linear-gradient-5)"/>
        <path id="f582129e-1fd7-440c-a5c4-799b0a032e7c" d="M77.20471,148.33081l9.79412,9.79412,7.05629-7.05629v-9.03205c.00059-.42825-.33443-.78188-.76208-.80442h-8.98971l-7.09862,7.09862Z" fill="#50e6ff"/>
        <rect id="b55df55b-2ac6-4f92-ba84-9d8becd854da" x="68.85918" y="158.66591" width="13.22348" height="2.39914" rx=".27" ry=".27" transform="translate(-90.93704 100.18951) rotate(-45)" fill="url(#linear-gradient-6)"/>
        <rect id="a1d88672-156d-4d85-8ddb-d3d546338b0e" x="69.56314" y="153.54544" width="8.45343" height="2.39914" rx=".27" ry=".27" transform="translate(-87.8087 97.50107) rotate(-45)" fill="url(#linear-gradient-7)"/>
        <rect id="a50d2abb-ca8f-44bb-a92d-5a79f17e98d0" x="76.3006" y="160.33121" width="8.45343" height="2.39914" rx=".27" ry=".27" transform="translate(-90.6336 104.25268) rotate(-45)" fill="url(#linear-gradient-8)"/>
        <rect id="abef2dbd-e94f-4bb4-9503-d2b3cf2041a9" x="82.36871" y="147.23065" width="2.39914" height="2.39914" rx=".38" ry=".38" transform="translate(-80.47943 102.5659) rotate(-45)" fill="#fff"/>
        <rect id="a157044f-57ca-43a1-b77d-760bafa34854" x="85.75573" y="143.83781" width="2.39914" height="2.39914" rx=".38" ry=".38" transform="translate(-77.0883 103.96715) rotate(-45)" fill="#fff"/>
        <rect id="b637d7ff-a1d5-4533-b34f-12a87620ff68" x="85.76153" y="150.6177" width="2.39914" height="2.39914" rx=".38" ry=".38" transform="translate(-81.8807 105.95703) rotate(-45)" fill="#fff"/>
        <path id="f613147f-9647-4c5d-a52a-663abb19234f" d="M89.03104,148.04856l.93143-.93143c.20841-.21044.54796-.21209.7584-.00368.00123.00122.00246.00244.00368.00368l.93143.93143c.21044.20841.21209.54796.00368.7584-.00122.00123-.00245.00246-.00368.00368l-.93143.93143c-.20841.21044-.54796.21209-.7584.00368-.00123-.00122-.00246-.00244-.00368-.00368l-.93143-.93143c-.21044-.20841-.21209-.54796-.00368-.7584.00122-.00123.00245-.00246.00368-.00368" fill="#fff"/>
      </g>
      <g>
        <rect x="206.8" y="237.6" width="96.8" height="30.8" fill="#fff"/>
        <rect x="206.8" y="237.6" width="96.8" height="30.8" fill="#aa95c7" opacity=".15"/>
        <rect x="206.8" y="237.6" width="96.8" height="30.8" fill="none" stroke="#4e4f4f" stroke-width=".25"/>
      </g>
      <g>
        <rect x="202.4" y="233.2" width="96.8" height="30.8" fill="#fff"/>
        <rect x="202.4" y="233.2" width="96.8" height="30.8" fill="#aa95c7" opacity=".15"/>
        <rect x="202.4" y="233.2" width="96.8" height="30.8" fill="none" stroke="#4e4f4f" stroke-width=".25"/>
      </g>
      <g id="f3784f80-3379-4e66-8e32-fca3fab0f4d7">
        <g>
          <path d="M214.62969,243.99529h21.14155v12.39841c0,.39008-.31622.7063-.7063.7063h-19.72895c-.39008,0-.7063-.31622-.7063-.7063v-12.39841Z" fill="url(#linear-gradient-9)"/>
          <path d="M215.33974,240.1h19.72145c.39008,0,.7063.31622.7063.7063h0v3.18774h-21.13406v-3.18648c-.00069-.39008.31497-.70686.70505-.70755.00042,0,.00083,0,.00125,0Z" fill="#773adc"/>
          <g>
            <rect x="217.23113" y="245.39414" width="4.60409" height="9.91698" rx=".34253" ry=".34253" fill="#fff"/>
            <rect x="222.8978" y="245.39414" width="4.60409" height="9.91698" rx=".34253" ry=".34253" fill="#fff" isolation="isolate" opacity=".75"/>
            <rect x="228.56572" y="245.39414" width="4.60409" height="9.91698" rx=".34253" ry=".34253" fill="#fff" isolation="isolate" opacity=".5"/>
          </g>
        </g>
      </g>
    </g>
    <g id="Text">
      <g>
        <path d="M201.21152,30.24629h-2.40625l-.69727-2.18066h-3.48633l-.69043,2.18066h-2.39258l3.56836-9.80273h2.61816l3.48633,9.80273ZM197.60215,26.37031l-1.05273-3.29492c-.07764-.24609-.13232-.54004-.16406-.88184h-.05469c-.02295.28711-.07959.57129-.1709.85449l-1.06641,3.32227h2.50879Z" fill="#2f2f2f"/>
        <path d="M208.57627,23.24629l-2.60449,7h-2.46094l-2.48145-7h2.31055l1.2168,4.31348c.13672.4873.21631.90234.23926,1.24414h.02734c.03174-.32422.11621-.72461.25293-1.20312l1.24414-4.35449h2.25586Z" fill="#2f2f2f"/>
        <path d="M215.23203,30.24629h-2.04395v-1.00488h-.02734c-.46924.7832-1.16455,1.17578-2.08496,1.17578-.6792,0-1.21338-.19238-1.60303-.57812-.38965-.38477-.58447-.89844-.58447-1.54102,0-1.3584.8042-2.14258,2.41309-2.35156l1.90039-.25293c0-.76562-.41455-1.14844-1.24414-1.14844-.83398,0-1.62695.24805-2.37891.74512v-1.62695c.30078-.15527.71191-.29199,1.23389-.41016.52197-.11914.99707-.17773,1.42529-.17773,1.99609,0,2.99414.99512,2.99414,2.9873v4.18359ZM213.20176,27.40254v-.47168l-1.27148.16406c-.70166.09082-1.05273.40723-1.05273.9502,0,.24609.08545.44727.25635.60449s.40234.23633.69385.23633c.40576,0,.73584-.14062.99121-.4209s.38281-.63477.38281-1.0625Z" fill="#2f2f2f"/>
        <path d="M218.00254,22.13887c-.36475,0-.66309-.1084-.89551-.3252-.23242-.21582-.34863-.48145-.34863-.7959,0-.32422.11621-.58789.34863-.79297s.53076-.30762.89551-.30762c.36914,0,.66895.10254.89893.30762s.34521.46875.34521.79297c0,.32812-.11523.59668-.34521.80664-.22998.20898-.52979.31445-.89893.31445ZM219.06895,30.24629h-2.16016v-7h2.16016v7Z" fill="#2f2f2f"/>
        <path d="M223.004,30.24629h-2.16016v-10.36328h2.16016v10.36328Z" fill="#2f2f2f"/>
        <path d="M230.66904,30.24629h-2.04395v-1.00488h-.02734c-.46924.7832-1.16455,1.17578-2.08496,1.17578-.6792,0-1.21338-.19238-1.60303-.57812-.38965-.38477-.58447-.89844-.58447-1.54102,0-1.3584.8042-2.14258,2.41309-2.35156l1.90039-.25293c0-.76562-.41455-1.14844-1.24414-1.14844-.83398,0-1.62695.24805-2.37891.74512v-1.62695c.30078-.15527.71191-.29199,1.23389-.41016.52197-.11914.99707-.17773,1.42529-.17773,1.99609,0,2.99414.99512,2.99414,2.9873v4.18359ZM228.63877,27.40254v-.47168l-1.27148.16406c-.70166.09082-1.05273.40723-1.05273.9502,0,.24609.08545.44727.25635.60449s.40234.23633.69385.23633c.40576,0,.73584-.14062.99121-.4209s.38281-.63477.38281-1.0625Z" fill="#2f2f2f"/>
        <path d="M234.55283,29.43281h-.02734v.81348h-2.16016v-10.36328h2.16016v4.41602h.02734c.5332-.81641,1.29199-1.22363,2.27637-1.22363.90234,0,1.59717.30957,2.08496.92969.48779.61914.73145,1.4668.73145,2.54297,0,1.16602-.28467,2.10254-.85449,2.80957-.56982.70605-1.33057,1.05957-2.2832,1.05957-.86133,0-1.51318-.32812-1.95508-.98438ZM234.49131,26.47969v.71777c0,.45117.12988.82422.38965,1.12109.25977.2959.59229.44434.99805.44434.49219,0,.87402-.19043,1.14502-.57129.271-.37988.40674-.91895.40674-1.61621,0-.5791-.12402-1.03125-.37256-1.35742-.24854-.3252-.60254-.48828-1.06299-.48828-.43311,0-.79199.16113-1.07666.48535-.28467.32324-.42725.74512-.42725,1.26465Z" fill="#2f2f2f"/>
        <path d="M242.14072,22.13887c-.36475,0-.66309-.1084-.89551-.3252-.23242-.21582-.34863-.48145-.34863-.7959,0-.32422.11621-.58789.34863-.79297s.53076-.30762.89551-.30762c.36914,0,.66895.10254.89893.30762s.34521.46875.34521.79297c0,.32812-.11523.59668-.34521.80664-.22998.20898-.52979.31445-.89893.31445ZM243.20713,30.24629h-2.16016v-7h2.16016v7Z" fill="#2f2f2f"/>
        <path d="M247.14268,30.24629h-2.16016v-10.36328h2.16016v10.36328Z" fill="#2f2f2f"/>
        <path d="M250.01133,22.13887c-.36475,0-.66309-.1084-.89551-.3252-.23242-.21582-.34863-.48145-.34863-.7959,0-.32422.11621-.58789.34863-.79297s.53076-.30762.89551-.30762c.36914,0,.66895.10254.89893.30762s.34521.46875.34521.79297c0,.32812-.11523.59668-.34521.80664-.22998.20898-.52979.31445-.89893.31445ZM251.07773,30.24629h-2.16016v-7h2.16016v7Z" fill="#2f2f2f"/>
        <path d="M257.01377,30.16426c-.31885.16797-.7998.25293-1.44238.25293-1.52197,0-2.2832-.79102-2.2832-2.37207v-3.20605h-1.13477v-1.59277h1.13477v-1.51074l2.15332-.61523v2.12598h1.57227v1.59277h-1.57227v2.83008c0,.72852.28955,1.09375.86816,1.09375.22803,0,.4624-.06641.7041-.19824v1.59961Z" fill="#2f2f2f"/>
        <path d="M265.23887,23.24629l-2.84375,7.56055c-.68359,1.81836-1.71338,2.72754-3.08984,2.72754-.52393,0-.95459-.05957-1.29199-.17773v-1.72266c.28711.16797.59912.25293.93652.25293.55615,0,.94336-.2627,1.16211-.78613l.36914-.86816-2.84375-6.98633h2.39258l1.30566,4.25879c.08203.26367.146.57617.19141.93652h.02734c.04102-.26465.11621-.57227.22559-.92285l1.31934-4.27246h2.13965Z" fill="#2f2f2f"/>
        <path d="M277.23594,30.24629h-7.89551v-1.27148l5.02441-6.7334h-4.66211v-1.79785h7.51953v1.2373l-4.91504,6.77441h4.92871v1.79102Z" fill="#2f2f2f"/>
        <path d="M281.75449,30.41719c-1.1665,0-2.08398-.32715-2.75146-.98145-.66748-.65332-1.00146-1.54102-1.00146-2.66211,0-1.1582.34619-2.06348,1.03906-2.71777.69287-.65332,1.62939-.98047,2.80957-.98047,1.16211,0,2.07373.32715,2.73438.98047.66064.6543.99121,1.51855.99121,2.59473,0,1.16211-.34082,2.08008-1.02197,2.75488-.68115.67383-1.61426,1.01172-2.79932,1.01172ZM281.80918,24.72969c-.51025,0-.90674.1748-1.18945.52637-.28271.35059-.42383.84766-.42383,1.49023,0,1.34375.54248,2.0166,1.62695,2.0166,1.03467,0,1.55176-.69043,1.55176-2.07129,0-1.30859-.52197-1.96191-1.56543-1.96191Z" fill="#2f2f2f"/>
        <path d="M293.71689,30.24629h-2.15332v-3.88965c0-1.08496-.38721-1.62695-1.16211-1.62695-.37354,0-.68115.14355-.92285.43066s-.3623.65137-.3623,1.09375v3.99219h-2.16016v-7h2.16016v1.10742h.02734c.51514-.85254,1.26465-1.27832,2.24902-1.27832,1.54932,0,2.32422.96094,2.32422,2.88477v4.28613Z" fill="#2f2f2f"/>
        <path d="M301.73887,27.36152h-4.56641c.07275,1.01562.71338,1.52441,1.9209,1.52441.77002,0,1.44678-.18262,2.03027-.54688v1.55859c-.64697.3457-1.48779.51953-2.52246.51953-1.13037,0-2.00732-.31348-2.63184-.94043-.62451-.62598-.93652-1.5-.93652-2.62109,0-1.16211.3374-2.08301,1.01172-2.76172.67432-.67969,1.50391-1.01855,2.48828-1.01855,1.021,0,1.81055.30273,2.36865.90918.55811.60547.8374,1.42871.8374,2.46777v.90918ZM299.73594,26.03535c0-1.00293-.40576-1.50391-1.2168-1.50391-.34619,0-.646.14355-.89893.43066s-.40674.64453-.46143,1.07324h2.57715Z" fill="#2f2f2f"/>
        <path d="M311.66465,20.2248v10.02148h-2.15332v-7.58789c-.11865.10449-.25879.2041-.42041.29688-.16162.09375-.33398.17773-.51611.25293s-.37158.13965-.56738.19141c-.1958.05273-.38965.08984-.58105.11328v-1.81836c.56055-.16406,1.08936-.37402,1.58594-.62891.49658-.25586.9458-.53613,1.34668-.84082h1.30566Z" fill="#2f2f2f"/>
      </g>
      <g>
        <path d="M377.43369,30.24629h-2.40625l-.69727-2.18066h-3.48633l-.69043,2.18066h-2.39258l3.56836-9.80273h2.61816l3.48633,9.80273ZM373.82432,26.37031l-1.05273-3.29492c-.07764-.24609-.13232-.54004-.16406-.88184h-.05469c-.02295.28711-.07959.57129-.1709.85449l-1.06641,3.32227h2.50879Z" fill="#2f2f2f"/>
        <path d="M384.79844,23.24629l-2.60449,7h-2.46094l-2.48145-7h2.31055l1.2168,4.31348c.13672.4873.21631.90234.23926,1.24414h.02734c.03174-.32422.11621-.72461.25293-1.20312l1.24414-4.35449h2.25586Z" fill="#2f2f2f"/>
        <path d="M391.4542,30.24629h-2.04395v-1.00488h-.02734c-.46924.7832-1.16455,1.17578-2.08496,1.17578-.6792,0-1.21338-.19238-1.60303-.57812-.38965-.38477-.58447-.89844-.58447-1.54102,0-1.3584.8042-2.14258,2.41309-2.35156l1.90039-.25293c0-.76562-.41455-1.14844-1.24414-1.14844-.83398,0-1.62695.24805-2.37891.74512v-1.62695c.30078-.15527.71191-.29199,1.23389-.41016.52197-.11914.99707-.17773,1.42529-.17773,1.99609,0,2.99414.99512,2.99414,2.9873v4.18359ZM389.42393,27.40254v-.47168l-1.27148.16406c-.70166.09082-1.05273.40723-1.05273.9502,0,.24609.08545.44727.25635.60449s.40234.23633.69385.23633c.40576,0,.73584-.14062.99121-.4209s.38281-.63477.38281-1.0625Z" fill="#2f2f2f"/>
        <path d="M394.22471,22.13887c-.36475,0-.66309-.1084-.89551-.3252-.23242-.21582-.34863-.48145-.34863-.7959,0-.32422.11621-.58789.34863-.79297s.53076-.30762.89551-.30762c.36914,0,.66895.10254.89893.30762s.34521.46875.34521.79297c0,.32812-.11523.59668-.34521.80664-.22998.20898-.52979.31445-.89893.31445ZM395.29111,30.24629h-2.16016v-7h2.16016v7Z" fill="#2f2f2f"/>
        <path d="M399.22617,30.24629h-2.16016v-10.36328h2.16016v10.36328Z" fill="#2f2f2f"/>
        <path d="M406.89121,30.24629h-2.04395v-1.00488h-.02734c-.46924.7832-1.16455,1.17578-2.08496,1.17578-.6792,0-1.21338-.19238-1.60303-.57812-.38965-.38477-.58447-.89844-.58447-1.54102,0-1.3584.8042-2.14258,2.41309-2.35156l1.90039-.25293c0-.76562-.41455-1.14844-1.24414-1.14844-.83398,0-1.62695.24805-2.37891.74512v-1.62695c.30078-.15527.71191-.29199,1.23389-.41016.52197-.11914.99707-.17773,1.42529-.17773,1.99609,0,2.99414.99512,2.99414,2.9873v4.18359ZM404.86094,27.40254v-.47168l-1.27148.16406c-.70166.09082-1.05273.40723-1.05273.9502,0,.24609.08545.44727.25635.60449s.40234.23633.69385.23633c.40576,0,.73584-.14062.99121-.4209s.38281-.63477.38281-1.0625Z" fill="#2f2f2f"/>
        <path d="M410.775,29.43281h-.02734v.81348h-2.16016v-10.36328h2.16016v4.41602h.02734c.5332-.81641,1.29199-1.22363,2.27637-1.22363.90234,0,1.59717.30957,2.08496.92969.48779.61914.73145,1.4668.73145,2.54297,0,1.16602-.28467,2.10254-.85449,2.80957-.56982.70605-1.33057,1.05957-2.2832,1.05957-.86133,0-1.51318-.32812-1.95508-.98438ZM410.71348,26.47969v.71777c0,.45117.12988.82422.38965,1.12109.25977.2959.59229.44434.99805.44434.49219,0,.87402-.19043,1.14502-.57129.271-.37988.40674-.91895.40674-1.61621,0-.5791-.12402-1.03125-.37256-1.35742-.24854-.3252-.60254-.48828-1.06299-.48828-.43311,0-.79199.16113-1.07666.48535-.28467.32324-.42725.74512-.42725,1.26465Z" fill="#2f2f2f"/>
        <path d="M418.36289,22.13887c-.36475,0-.66309-.1084-.89551-.3252-.23242-.21582-.34863-.48145-.34863-.7959,0-.32422.11621-.58789.34863-.79297s.53076-.30762.89551-.30762c.36914,0,.66895.10254.89893.30762s.34521.46875.34521.79297c0,.32812-.11523.59668-.34521.80664-.22998.20898-.52979.31445-.89893.31445ZM419.4293,30.24629h-2.16016v-7h2.16016v7Z" fill="#2f2f2f"/>
        <path d="M423.36484,30.24629h-2.16016v-10.36328h2.16016v10.36328Z" fill="#2f2f2f"/>
        <path d="M426.2335,22.13887c-.36475,0-.66309-.1084-.89551-.3252-.23242-.21582-.34863-.48145-.34863-.7959,0-.32422.11621-.58789.34863-.79297s.53076-.30762.89551-.30762c.36914,0,.66895.10254.89893.30762s.34521.46875.34521.79297c0,.32812-.11523.59668-.34521.80664-.22998.20898-.52979.31445-.89893.31445ZM427.2999,30.24629h-2.16016v-7h2.16016v7Z" fill="#2f2f2f"/>
        <path d="M433.23594,30.16426c-.31885.16797-.7998.25293-1.44238.25293-1.52197,0-2.2832-.79102-2.2832-2.37207v-3.20605h-1.13477v-1.59277h1.13477v-1.51074l2.15332-.61523v2.12598h1.57227v1.59277h-1.57227v2.83008c0,.72852.28955,1.09375.86816,1.09375.22803,0,.4624-.06641.7041-.19824v1.59961Z" fill="#2f2f2f"/>
        <path d="M441.46104,23.24629l-2.84375,7.56055c-.68359,1.81836-1.71338,2.72754-3.08984,2.72754-.52393,0-.95459-.05957-1.29199-.17773v-1.72266c.28711.16797.59912.25293.93652.25293.55615,0,.94336-.2627,1.16211-.78613l.36914-.86816-2.84375-6.98633h2.39258l1.30566,4.25879c.08203.26367.146.57617.19141.93652h.02734c.04102-.26465.11621-.57227.22559-.92285l1.31934-4.27246h2.13965Z" fill="#2f2f2f"/>
        <path d="M453.45811,30.24629h-7.89551v-1.27148l5.02441-6.7334h-4.66211v-1.79785h7.51953v1.2373l-4.91504,6.77441h4.92871v1.79102Z" fill="#2f2f2f"/>
        <path d="M457.97666,30.41719c-1.1665,0-2.08398-.32715-2.75146-.98145-.66748-.65332-1.00146-1.54102-1.00146-2.66211,0-1.1582.34619-2.06348,1.03906-2.71777.69287-.65332,1.62939-.98047,2.80957-.98047,1.16211,0,2.07373.32715,2.73438.98047.66064.6543.99121,1.51855.99121,2.59473,0,1.16211-.34082,2.08008-1.02197,2.75488-.68115.67383-1.61426,1.01172-2.79932,1.01172ZM458.03135,24.72969c-.51025,0-.90674.1748-1.18945.52637-.28271.35059-.42383.84766-.42383,1.49023,0,1.34375.54248,2.0166,1.62695,2.0166,1.03467,0,1.55176-.69043,1.55176-2.07129,0-1.30859-.52197-1.96191-1.56543-1.96191Z" fill="#2f2f2f"/>
        <path d="M469.93906,30.24629h-2.15332v-3.88965c0-1.08496-.38721-1.62695-1.16211-1.62695-.37354,0-.68115.14355-.92285.43066s-.3623.65137-.3623,1.09375v3.99219h-2.16016v-7h2.16016v1.10742h.02734c.51514-.85254,1.26465-1.27832,2.24902-1.27832,1.54932,0,2.32422.96094,2.32422,2.88477v4.28613Z" fill="#2f2f2f"/>
        <path d="M477.96104,27.36152h-4.56641c.07275,1.01562.71338,1.52441,1.9209,1.52441.77002,0,1.44678-.18262,2.03027-.54688v1.55859c-.64697.3457-1.48779.51953-2.52246.51953-1.13037,0-2.00732-.31348-2.63184-.94043-.62451-.62598-.93652-1.5-.93652-2.62109,0-1.16211.3374-2.08301,1.01172-2.76172.67432-.67969,1.50391-1.01855,2.48828-1.01855,1.021,0,1.81055.30273,2.36865.90918.55811.60547.8374,1.42871.8374,2.46777v.90918ZM475.95811,26.03535c0-1.00293-.40576-1.50391-1.2168-1.50391-.34619,0-.646.14355-.89893.43066s-.40674.64453-.46143,1.07324h2.57715Z" fill="#2f2f2f"/>
        <path d="M485.13193,28.45527h4.15625v1.79102h-6.52148v-.73828c0-.50195.08447-.95117.25293-1.35059.16846-.39844.38037-.75586.63574-1.07324.25537-.31641.53418-.59668.8374-.84082.30322-.24316.59131-.46387.86475-.65918.28711-.20508.53906-.40137.75537-.58789.21631-.1875.39893-.37305.54688-.55762s.25879-.37109.33154-.56055c.07275-.18848.10938-.39062.10938-.60449,0-.41992-.11865-.73633-.35547-.9502-.23682-.21484-.59912-.32129-1.08691-.32129-.84326,0-1.6499.33496-2.41992,1.00488v-1.90039c.85205-.55176,1.81396-.82715,2.88477-.82715.49658,0,.94238.06445,1.33643.19434s.72803.31543,1.00146.55762c.27344.24121.48193.53418.62549.87793.14355.34473.21533.72852.21533,1.15234,0,.45117-.06934.85156-.2085,1.20312-.13916.35059-.32373.66992-.55371.95703s-.49561.5498-.79639.78906-.61279.4707-.93652.69434c-.21875.1543-.42969.30859-.63232.46094-.20264.15332-.38184.30371-.53662.45117-.15479.14844-.27783.29297-.36914.43457-.09131.14062-.13672.27539-.13672.40332Z" fill="#2f2f2f"/>
      </g>
      <g>
        <path d="M558.29648,30.24629h-2.40625l-.69727-2.18066h-3.48633l-.69043,2.18066h-2.39258l3.56836-9.80273h2.61816l3.48633,9.80273ZM554.68711,26.37031l-1.05273-3.29492c-.07715-.24609-.13184-.54004-.16406-.88184h-.05469c-.02246.28711-.0791.57129-.1709.85449l-1.06641,3.32227h2.50879Z" fill="#2f2f2f"/>
        <path d="M565.66172,23.24629l-2.60449,7h-2.46094l-2.48145-7h2.31055l1.2168,4.31348c.13672.4873.21582.90234.23926,1.24414h.02734c.03125-.32422.11621-.72461.25293-1.20312l1.24414-4.35449h2.25586Z" fill="#2f2f2f"/>
        <path d="M572.31699,30.24629h-2.04395v-1.00488h-.02734c-.46875.7832-1.16406,1.17578-2.08496,1.17578-.67871,0-1.21289-.19238-1.60254-.57812-.38965-.38477-.58496-.89844-.58496-1.54102,0-1.3584.80469-2.14258,2.41309-2.35156l1.90039-.25293c0-.76562-.41406-1.14844-1.24414-1.14844-.83398,0-1.62695.24805-2.37891.74512v-1.62695c.30078-.15527.71191-.29199,1.23438-.41016.52148-.11914.99707-.17773,1.4248-.17773,1.99609,0,2.99414.99512,2.99414,2.9873v4.18359ZM570.28672,27.40254v-.47168l-1.27148.16406c-.70117.09082-1.05273.40723-1.05273.9502,0,.24609.08594.44727.25684.60449s.40234.23633.69336.23633c.40625,0,.73633-.14062.99121-.4209.25586-.28027.38281-.63477.38281-1.0625Z" fill="#2f2f2f"/>
        <path d="M575.0875,22.13887c-.36426,0-.66309-.1084-.89551-.3252-.23242-.21582-.34863-.48145-.34863-.7959,0-.32422.11621-.58789.34863-.79297s.53125-.30762.89551-.30762c.36914,0,.66895.10254.89941.30762.22949.20508.34473.46875.34473.79297,0,.32812-.11523.59668-.34473.80664-.23047.20898-.53027.31445-.89941.31445ZM576.15391,30.24629h-2.16016v-7h2.16016v7Z" fill="#2f2f2f"/>
        <path d="M580.08945,30.24629h-2.16016v-10.36328h2.16016v10.36328Z" fill="#2f2f2f"/>
        <path d="M587.75449,30.24629h-2.04395v-1.00488h-.02734c-.46973.7832-1.16504,1.17578-2.08496,1.17578-.67969,0-1.21387-.19238-1.60352-.57812-.38965-.38477-.58398-.89844-.58398-1.54102,0-1.3584.80371-2.14258,2.41309-2.35156l1.90039-.25293c0-.76562-.41504-1.14844-1.24414-1.14844-.83398,0-1.62695.24805-2.37891.74512v-1.62695c.30078-.15527.71191-.29199,1.2334-.41016.52246-.11914.99707-.17773,1.42578-.17773,1.99609,0,2.99414.99512,2.99414,2.9873v4.18359ZM585.72422,27.40254v-.47168l-1.27148.16406c-.70215.09082-1.05273.40723-1.05273.9502,0,.24609.08496.44727.25586.60449s.40234.23633.69434.23633c.40527,0,.73535-.14062.99121-.4209.25488-.28027.38281-.63477.38281-1.0625Z" fill="#2f2f2f"/>
        <path d="M591.63828,29.43281h-.02734v.81348h-2.16016v-10.36328h2.16016v4.41602h.02734c.5332-.81641,1.29199-1.22363,2.27637-1.22363.90234,0,1.59668.30957,2.08496.92969.4873.61914.73145,1.4668.73145,2.54297,0,1.16602-.28516,2.10254-.85449,2.80957-.57031.70605-1.33105,1.05957-2.2832,1.05957-.86133,0-1.51367-.32812-1.95508-.98438ZM591.57676,26.47969v.71777c0,.45117.12988.82422.38965,1.12109.25977.2959.5918.44434.99805.44434.49219,0,.87402-.19043,1.14453-.57129.27148-.37988.40723-.91895.40723-1.61621,0-.5791-.12402-1.03125-.37305-1.35742-.24805-.3252-.60254-.48828-1.0625-.48828-.43359,0-.79199.16113-1.07715.48535-.28418.32324-.42676.74512-.42676,1.26465Z" fill="#2f2f2f"/>
        <path d="M599.22617,22.13887c-.36523,0-.66309-.1084-.89551-.3252-.23242-.21582-.34863-.48145-.34863-.7959,0-.32422.11621-.58789.34863-.79297s.53027-.30762.89551-.30762c.36914,0,.66895.10254.89844.30762.23047.20508.3457.46875.3457.79297,0,.32812-.11523.59668-.3457.80664-.22949.20898-.5293.31445-.89844.31445ZM600.29258,30.24629h-2.16016v-7h2.16016v7Z" fill="#2f2f2f"/>
        <path d="M604.22812,30.24629h-2.16016v-10.36328h2.16016v10.36328Z" fill="#2f2f2f"/>
        <path d="M607.09629,22.13887c-.36426,0-.66309-.1084-.89551-.3252-.23242-.21582-.34863-.48145-.34863-.7959,0-.32422.11621-.58789.34863-.79297s.53125-.30762.89551-.30762c.36914,0,.66895.10254.89941.30762.22949.20508.34473.46875.34473.79297,0,.32812-.11523.59668-.34473.80664-.23047.20898-.53027.31445-.89941.31445ZM608.1627,30.24629h-2.16016v-7h2.16016v7Z" fill="#2f2f2f"/>
        <path d="M614.09922,30.16426c-.31934.16797-.7998.25293-1.44238.25293-1.52246,0-2.2832-.79102-2.2832-2.37207v-3.20605h-1.13477v-1.59277h1.13477v-1.51074l2.15332-.61523v2.12598h1.57227v1.59277h-1.57227v2.83008c0,.72852.28906,1.09375.86816,1.09375.22754,0,.46191-.06641.7041-.19824v1.59961Z" fill="#2f2f2f"/>
        <path d="M622.32383,23.24629l-2.84375,7.56055c-.68359,1.81836-1.71289,2.72754-3.08984,2.72754-.52344,0-.9541-.05957-1.29199-.17773v-1.72266c.28711.16797.59961.25293.93652.25293.55664,0,.94336-.2627,1.16211-.78613l.36914-.86816-2.84375-6.98633h2.39258l1.30566,4.25879c.08203.26367.14648.57617.19141.93652h.02734c.04102-.26465.11621-.57227.22559-.92285l1.31934-4.27246h2.13965Z" fill="#2f2f2f"/>
        <path d="M634.3209,30.24629h-7.89551v-1.27148l5.02441-6.7334h-4.66211v-1.79785h7.51953v1.2373l-4.91504,6.77441h4.92871v1.79102Z" fill="#2f2f2f"/>
        <path d="M638.83945,30.41719c-1.16602,0-2.08398-.32715-2.75098-.98145-.66797-.65332-1.00195-1.54102-1.00195-2.66211,0-1.1582.34668-2.06348,1.03906-2.71777.69336-.65332,1.62988-.98047,2.80957-.98047,1.16211,0,2.07422.32715,2.73438.98047.66113.6543.99121,1.51855.99121,2.59473,0,1.16211-.34082,2.08008-1.02148,2.75488-.68164.67383-1.61426,1.01172-2.7998,1.01172ZM638.89414,24.72969c-.50977,0-.90625.1748-1.18945.52637-.28223.35059-.42383.84766-.42383,1.49023,0,1.34375.54297,2.0166,1.62695,2.0166,1.03516,0,1.55176-.69043,1.55176-2.07129,0-1.30859-.52148-1.96191-1.56543-1.96191Z" fill="#2f2f2f"/>
        <path d="M650.80234,30.24629h-2.15332v-3.88965c0-1.08496-.3877-1.62695-1.16211-1.62695-.37402,0-.68164.14355-.92285.43066-.24219.28711-.3623.65137-.3623,1.09375v3.99219h-2.16016v-7h2.16016v1.10742h.02734c.51465-.85254,1.26465-1.27832,2.24902-1.27832,1.54883,0,2.32422.96094,2.32422,2.88477v4.28613Z" fill="#2f2f2f"/>
        <path d="M658.82383,27.36152h-4.56641c.07324,1.01562.71387,1.52441,1.9209,1.52441.77051,0,1.44727-.18262,2.03027-.54688v1.55859c-.64648.3457-1.4873.51953-2.52246.51953-1.12988,0-2.00684-.31348-2.63184-.94043-.62402-.62598-.93652-1.5-.93652-2.62109,0-1.16211.33789-2.08301,1.01172-2.76172.6748-.67969,1.50391-1.01855,2.48828-1.01855,1.02148,0,1.81055.30273,2.36914.90918.55762.60547.83691,1.42871.83691,2.46777v.90918ZM656.8209,26.03535c0-1.00293-.40527-1.50391-1.2168-1.50391-.3457,0-.64551.14355-.89844.43066s-.40723.64453-.46191,1.07324h2.57715Z" fill="#2f2f2f"/>
        <path d="M663.86191,29.925v-1.87988c.65625.47852,1.42188.71777,2.29688.71777.55176,0,.98145-.11914,1.28906-.35547.30762-.2373.46094-.56738.46094-.99121,0-.4375-.19043-.77539-.57031-1.01172-.38086-.2373-.90332-.35547-1.56934-.35547h-.90918v-1.6543h.84082c1.27637,0,1.91406-.42383,1.91406-1.27148,0-.79785-.48926-1.19629-1.46973-1.19629-.65625,0-1.29395.21191-1.91406.63574v-1.76367c.68848-.34668,1.49023-.51953,2.40625-.51953,1.00293,0,1.7832.22559,2.3418.67676.55762.45117.83691,1.03613.83691,1.75684,0,1.28027-.64941,2.08203-1.94824,2.40625v.03418c.69336.08594,1.24023.33789,1.64062.75488.40137.41699.60156.92871.60156,1.53516,0,.91602-.33496,1.64062-1.00488,2.17383s-1.59473.7998-2.77539.7998c-1.01172,0-1.83398-.16406-2.46777-.49219Z" fill="#2f2f2f"/>
      </g>
      <g>
        <path d="M174.78965,84.88691c-.72461.38281-1.62695.57422-2.70703.57422-1.39453,0-2.51123-.44922-3.34961-1.34668-.83838-.89844-1.25781-2.07617-1.25781-3.53418,0-1.56836.47168-2.83496,1.41504-3.80078.94336-.9668,2.13965-1.44922,3.58887-1.44922.92969,0,1.69971.13379,2.31055.40332v1.22363c-.70166-.39258-1.47656-.58789-2.32422-.58789-1.12549,0-2.03809.37598-2.73779,1.12793s-1.04932,1.75684-1.04932,3.01465c0,1.19336.32715,2.14551.98096,2.85352.65381.70898,1.51172,1.06348,2.57373,1.06348.98438,0,1.83643-.21875,2.55664-.65625v1.11426Z" fill="#2f2f2f"/>
        <path d="M179.33848,85.46113c-1.03467,0-1.86035-.32715-2.47803-.98145-.61768-.65332-.92627-1.52051-.92627-2.60059,0-1.17578.32129-2.09473.96387-2.75488.64258-.66113,1.51074-.99121,2.60449-.99121,1.04346,0,1.8584.32129,2.44385.96387s.87842,1.5332.87842,2.67285c0,1.11621-.31543,2.01074-.94678,2.68262-.63135.67285-1.47754,1.00879-2.53955,1.00879ZM179.42051,79.07637c-.72021,0-1.28955.24512-1.70898.73438-.41943.49023-.62891,1.16602-.62891,2.02734,0,.8291.21191,1.4834.63574,1.96191s.99121.71777,1.70215.71777c.72461,0,1.28174-.23535,1.67139-.7041.38965-.46973.58447-1.1377.58447-2.00293,0-.875-.19482-1.5498-.58447-2.02344-.38965-.47461-.94678-.71094-1.67139-.71094Z" fill="#2f2f2f"/>
        <path d="M194.47959,85.29707h-1.12109v-4.01953c0-.77539-.11963-1.33594-.35889-1.68164-.23926-.34668-.6416-.51953-1.20654-.51953-.47852,0-.88525.21875-1.22021.65625s-.50244.96094-.50244,1.57227v3.99219h-1.12109v-4.15625c0-1.37695-.53076-2.06445-1.59277-2.06445-.49219,0-.89795.20605-1.2168.61816-.31885.41309-.47852.94922-.47852,1.61035v3.99219h-1.12109v-7h1.12109v1.10742h.02734c.49658-.84766,1.22119-1.27148,2.17383-1.27148.47852,0,.89551.13281,1.25098.39941s.59912.61621.73145,1.0498c.51953-.9668,1.29443-1.44922,2.32422-1.44922,1.54053,0,2.31055.9502,2.31055,2.85059v4.31348Z" fill="#2f2f2f"/>
        <path d="M197.65488,84.28535h-.02734v4.23145h-1.12109v-10.21973h1.12109v1.23047h.02734c.55127-.92969,1.35791-1.39453,2.41992-1.39453.90234,0,1.60645.31348,2.1123.93945.50586.62695.75879,1.4668.75879,2.51953,0,1.1709-.28467,2.1084-.85449,2.8125s-1.34912,1.05664-2.33789,1.05664c-.90674,0-1.60645-.39258-2.09863-1.17578ZM197.62754,81.46211v.97754c0,.57812.18799,1.06934.56396,1.47266s.85352.60547,1.43213.60547c.6792,0,1.21094-.25977,1.59619-.7793s.57764-1.24219.57764-2.16699c0-.7793-.18018-1.39062-.54004-1.83203-.35986-.44238-.84766-.66309-1.46289-.66309-.65186,0-1.17578.22656-1.57227.67969-.39648.4541-.59473,1.02246-.59473,1.70605Z" fill="#2f2f2f"/>
        <path d="M210.35508,85.29707h-1.12109v-1.10742h-.02734c-.46484.84766-1.18506,1.27148-2.16016,1.27148-1.66797,0-2.50195-.99414-2.50195-2.98047v-4.18359h1.11426v4.00586c0,1.47656.56494,2.21484,1.69531,2.21484.54688,0,.99707-.20215,1.3501-.60547s.52979-.93066.52979-1.58203v-4.0332h1.12109v7Z" fill="#2f2f2f"/>
        <path d="M215.79746,85.22871c-.26416.14551-.61279.21875-1.0459.21875-1.22607,0-1.83887-.68359-1.83887-2.05078v-4.14258h-1.20312v-.95703h1.20312v-1.70898l1.12109-.3623v2.07129h1.76367v.95703h-1.76367v3.94434c0,.46875.07959.80371.23926,1.00488.15967.2002.42383.30078.79297.30078.28271,0,.52637-.07812.73145-.23242v.95703Z" fill="#2f2f2f"/>
        <path d="M222.79062,82.07734h-4.94238c.01807.7793.22803,1.38086.62891,1.80469s.95264.63574,1.6543.63574c.78857,0,1.51318-.25977,2.17383-.7793v1.05273c-.61523.44629-1.42871.66992-2.44043.66992-.98877,0-1.76611-.31836-2.33105-.9541s-.84766-1.53027-.84766-2.68262c0-1.08984.30859-1.97656.92627-2.66309.61768-.68555,1.38428-1.02832,2.30029-1.02832s1.62451.2959,2.12598.88867c.50146.5918.75195,1.41504.75195,2.46777v.58789ZM221.64219,81.12715c-.00439-.64746-.16064-1.15137-.46826-1.51074-.30762-.36035-.73486-.54004-1.28174-.54004-.52881,0-.97754.18848-1.34668.56738-.36914.37793-.59717.87207-.68359,1.4834h3.78027Z" fill="#2f2f2f"/>
        <path d="M229.44199,85.29707h-1.12109v-10.36328h1.12109v10.36328Z" fill="#2f2f2f"/>
        <path d="M236.59629,85.29707h-1.12109v-1.09375h-.02734c-.48779.83789-1.20557,1.25781-2.15332,1.25781-.69727,0-1.24316-.18457-1.63721-.55371s-.59131-.85938-.59131-1.46973c0-1.30859.77002-2.06934,2.31055-2.2832l2.09863-.29395c0-1.18945-.48096-1.78418-1.44238-1.78418-.84326,0-1.604.28711-2.2832.86133v-1.14844c.68799-.4375,1.48096-.65625,2.37891-.65625,1.64502,0,2.46777.87012,2.46777,2.61133v4.55273ZM235.4752,81.75605l-1.68848.23242c-.51953.07227-.91162.20117-1.17578.38574s-.39648.51172-.39648.98145c0,.3418.12207.62109.36572.83691.24365.2168.56836.3252.97412.3252.55615,0,1.01514-.19531,1.37744-.58496s.54346-.88281.54346-1.47949v-.69727Z" fill="#2f2f2f"/>
        <path d="M244.10752,78.29707l-3.21973,8.12109c-.57422,1.44922-1.38086,2.17383-2.41992,2.17383-.2915,0-.53564-.03027-.73145-.08887v-1.00488c.2417.08203.4624.12305.66309.12305.56494,0,.98877-.33789,1.27148-1.01172l.56055-1.32617-2.73438-6.98633h1.24414l1.89355,5.38672c.02295.06836.0708.24609.14355.5332h.04102c.02295-.10938.06836-.2832.13672-.51953l1.98926-5.40039h1.16211Z" fill="#2f2f2f"/>
        <path d="M250.75059,82.07734h-4.94238c.01807.7793.22803,1.38086.62891,1.80469s.95264.63574,1.6543.63574c.78857,0,1.51318-.25977,2.17383-.7793v1.05273c-.61523.44629-1.42871.66992-2.44043.66992-.98877,0-1.76611-.31836-2.33105-.9541s-.84766-1.53027-.84766-2.68262c0-1.08984.30859-1.97656.92627-2.66309.61768-.68555,1.38428-1.02832,2.30029-1.02832s1.62451.2959,2.12598.88867c.50146.5918.75195,1.41504.75195,2.46777v.58789ZM249.60215,81.12715c-.00439-.64746-.16064-1.15137-.46826-1.51074-.30762-.36035-.73486-.54004-1.28174-.54004-.52881,0-.97754.18848-1.34668.56738-.36914.37793-.59717.87207-.68359,1.4834h3.78027Z" fill="#2f2f2f"/>
        <path d="M256.08359,79.43184c-.1958-.15039-.47852-.22559-.84766-.22559-.47852,0-.87842.22559-1.19971.67676s-.48193,1.06641-.48193,1.8457v3.56836h-1.12109v-7h1.12109v1.44238h.02734c.15967-.49219.40332-.87598.73145-1.15234.32812-.27539.69482-.41309,1.10059-.41309.2915,0,.51514.03125.66992.0957v1.16211Z" fill="#2f2f2f"/>
      </g>
      <g>
        <path d="M255.5875,121.0998h-1.4082l-5.04492-7.81348c-.12744-.19531-.23242-.40039-.31445-.61523h-.04102c.03662.20996.05469.65918.05469,1.34668v7.08203h-1.14844v-9.80273h1.49023l4.9082,7.69043c.20508.31934.3374.53809.39648.65625h.02734c-.04541-.28223-.06836-.7627-.06836-1.44238v-6.9043h1.14844v9.80273Z" fill="#2f2f2f"/>
        <path d="M260.84482,121.26387c-1.03467,0-1.86035-.32715-2.47803-.98047-.61768-.6543-.92627-1.52148-.92627-2.60156,0-1.17578.32129-2.09375.96387-2.75488.64258-.66016,1.51074-.99121,2.60449-.99121,1.04346,0,1.8584.32129,2.44385.96387s.87842,1.53418.87842,2.67285c0,1.11719-.31543,2.01074-.94678,2.68359-.63135.67188-1.47754,1.00781-2.53955,1.00781ZM260.92686,114.8791c-.72021,0-1.28955.24512-1.70898.73535-.41943.48926-.62891,1.16504-.62891,2.02637,0,.83008.21191,1.4834.63574,1.96191s.99121.71777,1.70215.71777c.72461,0,1.28174-.23438,1.67139-.7041.38965-.46875.58447-1.13672.58447-2.00293,0-.875-.19482-1.54883-.58447-2.02344-.38965-.47363-.94678-.71094-1.67139-.71094Z" fill="#2f2f2f"/>
        <path d="M272.08555,121.0998h-1.12109v-1.18945h-.02734c-.51953.90234-1.32178,1.35352-2.40625,1.35352-.87939,0-1.58252-.31348-2.10889-.93945-.52637-.62695-.78955-1.48047-.78955-2.56055,0-1.15723.2915-2.08496.875-2.78223s1.36035-1.0459,2.33105-1.0459c.96143,0,1.66113.37891,2.09863,1.13477h.02734v-4.33398h1.12109v10.36328ZM270.96445,117.93477v-1.03223c0-.56445-.18701-1.04297-.56055-1.43555-.37354-.3916-.84766-.58789-1.42188-.58789-.68359,0-1.22119.25098-1.61328.75195-.39209.50195-.58789,1.19434-.58789,2.07812,0,.80664.18799,1.44336.56396,1.91113.37598.4668.88086.7002,1.51416.7002.62451,0,1.13135-.22559,1.521-.67676s.58447-1.02051.58447-1.70898Z" fill="#2f2f2f"/>
        <path d="M279.90684,117.88008h-4.94238c.01807.7793.22803,1.38086.62891,1.80469s.95264.63574,1.6543.63574c.78857,0,1.51318-.25977,2.17383-.7793v1.05273c-.61523.44727-1.42871.66992-2.44043.66992-.98877,0-1.76611-.31738-2.33105-.95312s-.84766-1.53027-.84766-2.68359c0-1.08887.30859-1.97656.92627-2.66211.61768-.68652,1.38428-1.0293,2.30029-1.0293s1.62451.29688,2.12598.88867c.50146.59277.75195,1.41504.75195,2.46777v.58789ZM278.7584,116.92988c-.00439-.64648-.16064-1.15039-.46826-1.51074-.30762-.35938-.73486-.54004-1.28174-.54004-.52881,0-.97754.18945-1.34668.56738-.36914.37891-.59717.87305-.68359,1.4834h3.78027Z" fill="#2f2f2f"/>
      </g>
      <g>
        <path d="M255.5875,160.70039h-1.4082l-5.04492-7.81348c-.12744-.19629-.23242-.40137-.31445-.61523h-.04102c.03662.20898.05469.6582.05469,1.34668v7.08203h-1.14844v-9.80273h1.49023l4.9082,7.69043c.20508.31836.3374.53711.39648.65625h.02734c-.04541-.2832-.06836-.76367-.06836-1.44238v-6.9043h1.14844v9.80273Z" fill="#2f2f2f"/>
        <path d="M260.84482,160.86445c-1.03467,0-1.86035-.32715-2.47803-.98145-.61768-.65332-.92627-1.52051-.92627-2.60059,0-1.17578.32129-2.09473.96387-2.75488.64258-.66113,1.51074-.99121,2.60449-.99121,1.04346,0,1.8584.32129,2.44385.96387s.87842,1.5332.87842,2.67285c0,1.11621-.31543,2.01074-.94678,2.68262-.63135.67285-1.47754,1.00879-2.53955,1.00879ZM260.92686,154.47969c-.72021,0-1.28955.24512-1.70898.73438-.41943.49023-.62891,1.16602-.62891,2.02734,0,.8291.21191,1.4834.63574,1.96191s.99121.71777,1.70215.71777c.72461,0,1.28174-.23535,1.67139-.7041.38965-.46973.58447-1.1377.58447-2.00293,0-.875-.19482-1.5498-.58447-2.02344-.38965-.47461-.94678-.71094-1.67139-.71094Z" fill="#2f2f2f"/>
        <path d="M272.08555,160.70039h-1.12109v-1.18945h-.02734c-.51953.90234-1.32178,1.35352-2.40625,1.35352-.87939,0-1.58252-.31348-2.10889-.94043-.52637-.62598-.78955-1.47949-.78955-2.55957,0-1.1582.2915-2.08496.875-2.78223s1.36035-1.0459,2.33105-1.0459c.96143,0,1.66113.37793,2.09863,1.13477h.02734v-4.33398h1.12109v10.36328ZM270.96445,157.53535v-1.03223c0-.56543-.18701-1.04395-.56055-1.43555-.37354-.39258-.84766-.58789-1.42188-.58789-.68359,0-1.22119.25-1.61328.75195-.39209.50098-.58789,1.19336-.58789,2.07812,0,.80664.18799,1.44336.56396,1.91016.37598.46777.88086.70117,1.51416.70117.62451,0,1.13135-.22559,1.521-.67676s.58447-1.02148.58447-1.70898Z" fill="#2f2f2f"/>
        <path d="M279.90684,157.48066h-4.94238c.01807.7793.22803,1.38086.62891,1.80469s.95264.63574,1.6543.63574c.78857,0,1.51318-.25977,2.17383-.7793v1.05273c-.61523.44629-1.42871.66992-2.44043.66992-.98877,0-1.76611-.31836-2.33105-.9541s-.84766-1.53027-.84766-2.68262c0-1.08984.30859-1.97656.92627-2.66309.61768-.68555,1.38428-1.02832,2.30029-1.02832s1.62451.2959,2.12598.88867c.50146.5918.75195,1.41504.75195,2.46777v.58789ZM278.7584,156.53047c-.00439-.64746-.16064-1.15137-.46826-1.51074-.30762-.36035-.73486-.54004-1.28174-.54004-.52881,0-.97754.18848-1.34668.56738-.36914.37793-.59717.87207-.68359,1.4834h3.78027Z" fill="#2f2f2f"/>
      </g>
      <g>
        <path d="M167.65977,206.40352v-1.35352c.15479.13672.34082.25977.55713.36914s.44434.20117.68359.27637.47949.13379.72119.1748.46484.06152.66992.06152c.70654,0,1.23389-.13086,1.58252-.39355.34863-.26172.52295-.63867.52295-1.13086,0-.26465-.05811-.49512-.17432-.69043-.11621-.19629-.27686-.375-.48193-.53711-.20508-.16113-.44775-.31641-.72803-.46484-.28027-.14746-.58203-.30371-.90576-.46777-.3418-.17383-.66064-.34863-.95703-.52637s-.55371-.37402-.77246-.58789c-.21875-.21484-.39062-.45703-.51611-.72852-.12549-.27051-.18799-.58887-.18799-.95312,0-.44727.09814-.83496.29395-1.16602.1958-.33008.45361-.60254.77246-.81641.31885-.21484.68262-.37402,1.09033-.47852.40771-.10547.82373-.15723,1.24756-.15723.96631,0,1.67041.11621,2.1123.34863v1.29199c-.57861-.40137-1.32178-.60156-2.22852-.60156-.25049,0-.50146.02637-.75195.07812-.25049.05273-.47412.1377-.66992.25684-.1958.11816-.35547.27051-.47852.45801-.12305.18652-.18457.41406-.18457.68359,0,.25.04688.4668.14014.64941.09326.18164.23145.34863.41357.49902s.4043.2959.6665.4375c.26221.14062.56396.2959.90576.46484.35107.17285.68359.35547.99805.54688s.59033.40332.82715.63574.4248.48926.56396.77246c.13916.28223.2085.60547.2085.9707,0,.48242-.09473.8916-.28369,1.22656s-.44434.60742-.76562.81738c-.32129.20898-.69141.36133-1.11084.4541-.41943.09375-.86133.14062-1.32617.14062-.15479,0-.34619-.0127-.57422-.03809-.22803-.02441-.46045-.06152-.69727-.10938s-.46143-.10645-.67334-.17773c-.21191-.07031-.38184-.14941-.50928-.23535Z" fill="#2f2f2f"/>
        <path d="M178.27109,206.73164c-.26416.14551-.61279.21875-1.0459.21875-1.22607,0-1.83887-.68359-1.83887-2.05078v-4.14258h-1.20312v-.95703h1.20312v-1.70898l1.12109-.3623v2.07129h1.76367v.95703h-1.76367v3.94434c0,.46875.07959.80371.23926,1.00488.15967.2002.42383.30078.79297.30078.28271,0,.52637-.07812.73145-.23242v.95703Z" fill="#2f2f2f"/>
        <path d="M182.52891,206.96406c-1.03467,0-1.86035-.32715-2.47803-.98145-.61768-.65332-.92627-1.52051-.92627-2.60059,0-1.17578.32129-2.09473.96387-2.75488.64258-.66113,1.51074-.99121,2.60449-.99121,1.04346,0,1.8584.32129,2.44385.96387s.87842,1.5332.87842,2.67285c0,1.11621-.31543,2.01074-.94678,2.68262-.63135.67285-1.47754,1.00879-2.53955,1.00879ZM182.61094,200.5793c-.72021,0-1.28955.24512-1.70898.73438-.41943.49023-.62891,1.16602-.62891,2.02734,0,.8291.21191,1.4834.63574,1.96191s.99121.71777,1.70215.71777c.72461,0,1.28174-.23535,1.67139-.7041.38965-.46973.58447-1.1377.58447-2.00293,0-.875-.19482-1.5498-.58447-2.02344-.38965-.47461-.94678-.71094-1.67139-.71094Z" fill="#2f2f2f"/>
        <path d="M191.38096,200.93477c-.1958-.15039-.47852-.22559-.84766-.22559-.47852,0-.87842.22559-1.19971.67676s-.48193,1.06641-.48193,1.8457v3.56836h-1.12109v-7h1.12109v1.44238h.02734c.15967-.49219.40332-.87598.73145-1.15234.32812-.27539.69482-.41309,1.10059-.41309.2915,0,.51514.03125.66992.0957v1.16211Z" fill="#2f2f2f"/>
        <path d="M197.55674,206.8h-1.12109v-1.09375h-.02734c-.48779.83789-1.20557,1.25781-2.15332,1.25781-.69727,0-1.24316-.18457-1.63721-.55371s-.59131-.85938-.59131-1.46973c0-1.30859.77002-2.06934,2.31055-2.2832l2.09863-.29395c0-1.18945-.48096-1.78418-1.44238-1.78418-.84326,0-1.604.28711-2.2832.86133v-1.14844c.68799-.4375,1.48096-.65625,2.37891-.65625,1.64502,0,2.46777.87012,2.46777,2.61133v4.55273ZM196.43564,203.25898l-1.68848.23242c-.51953.07227-.91162.20117-1.17578.38574s-.39648.51172-.39648.98145c0,.3418.12207.62109.36572.83691.24365.2168.56836.3252.97412.3252.55615,0,1.01514-.19531,1.37744-.58496s.54346-.88281.54346-1.47949v-.69727Z" fill="#2f2f2f"/>
        <path d="M205.62559,206.23945c0,2.57031-1.23047,3.85547-3.69141,3.85547-.86572,0-1.62256-.16406-2.26953-.49219v-1.12109c.78857.4375,1.54053.65625,2.25586.65625,1.72266,0,2.58398-.91602,2.58398-2.74805v-.76562h-.02734c-.5332.89258-1.33545,1.33984-2.40625,1.33984-.87061,0-1.57129-.31152-2.10205-.93359s-.79639-1.45703-.79639-2.50488c0-1.18945.28613-2.13574.85791-2.83691.57178-.70215,1.35449-1.05273,2.34814-1.05273.94336,0,1.64307.37793,2.09863,1.13477h.02734v-.9707h1.12109v6.43945ZM204.50449,203.63496v-1.03223c0-.55664-.18799-1.03223-.56396-1.42871s-.84424-.59473-1.40479-.59473c-.69287,0-1.23486.25195-1.62695.75488-.39209.50391-.58789,1.20898-.58789,2.11621,0,.7793.18799,1.40234.56396,1.86914.37598.46777.87402.70117,1.49365.70117.62891,0,1.14062-.22363,1.53467-.66992.39404-.44727.59131-1.01855.59131-1.71582Z" fill="#2f2f2f"/>
        <path d="M213.44687,203.58027h-4.94238c.01807.7793.22803,1.38086.62891,1.80469s.95264.63574,1.6543.63574c.78857,0,1.51318-.25977,2.17383-.7793v1.05273c-.61523.44629-1.42871.66992-2.44043.66992-.98877,0-1.76611-.31836-2.33105-.9541s-.84766-1.53027-.84766-2.68262c0-1.08984.30859-1.97656.92627-2.66309.61768-.68555,1.38428-1.02832,2.30029-1.02832s1.62451.2959,2.12598.88867c.50146.5918.75195,1.41504.75195,2.46777v.58789ZM212.29844,202.63008c-.00439-.64746-.16064-1.15137-.46826-1.51074-.30762-.36035-.73486-.54004-1.28174-.54004-.52881,0-.97754.18848-1.34668.56738-.36914.37793-.59717.87207-.68359,1.4834h3.78027Z" fill="#2f2f2f"/>
        <path d="M220.09824,206.8h-1.12109v-10.36328h1.12109v10.36328Z" fill="#2f2f2f"/>
        <path d="M227.25254,206.8h-1.12109v-1.09375h-.02734c-.48779.83789-1.20557,1.25781-2.15332,1.25781-.69727,0-1.24316-.18457-1.63721-.55371s-.59131-.85938-.59131-1.46973c0-1.30859.77002-2.06934,2.31055-2.2832l2.09863-.29395c0-1.18945-.48096-1.78418-1.44238-1.78418-.84326,0-1.604.28711-2.2832.86133v-1.14844c.68799-.4375,1.48096-.65625,2.37891-.65625,1.64502,0,2.46777.87012,2.46777,2.61133v4.55273ZM226.13145,203.25898l-1.68848.23242c-.51953.07227-.91162.20117-1.17578.38574s-.39648.51172-.39648.98145c0,.3418.12207.62109.36572.83691.24365.2168.56836.3252.97412.3252.55615,0,1.01514-.19531,1.37744-.58496s.54346-.88281.54346-1.47949v-.69727Z" fill="#2f2f2f"/>
        <path d="M234.76377,199.8l-3.21973,8.12109c-.57422,1.44922-1.38086,2.17383-2.41992,2.17383-.2915,0-.53564-.03027-.73145-.08887v-1.00488c.2417.08203.4624.12305.66309.12305.56494,0,.98877-.33789,1.27148-1.01172l.56055-1.32617-2.73438-6.98633h1.24414l1.89355,5.38672c.02295.06836.0708.24609.14355.5332h.04102c.02295-.10938.06836-.2832.13672-.51953l1.98926-5.40039h1.16211Z" fill="#2f2f2f"/>
        <path d="M241.40684,203.58027h-4.94238c.01807.7793.22803,1.38086.62891,1.80469s.95264.63574,1.6543.63574c.78857,0,1.51318-.25977,2.17383-.7793v1.05273c-.61523.44629-1.42871.66992-2.44043.66992-.98877,0-1.76611-.31836-2.33105-.9541s-.84766-1.53027-.84766-2.68262c0-1.08984.30859-1.97656.92627-2.66309.61768-.68555,1.38428-1.02832,2.30029-1.02832s1.62451.2959,2.12598.88867c.50146.5918.75195,1.41504.75195,2.46777v.58789ZM240.2584,202.63008c-.00439-.64746-.16064-1.15137-.46826-1.51074-.30762-.36035-.73486-.54004-1.28174-.54004-.52881,0-.97754.18848-1.34668.56738-.36914.37793-.59717.87207-.68359,1.4834h3.78027Z" fill="#2f2f2f"/>
        <path d="M246.73984,200.93477c-.1958-.15039-.47852-.22559-.84766-.22559-.47852,0-.87842.22559-1.19971.67676s-.48193,1.06641-.48193,1.8457v3.56836h-1.12109v-7h1.12109v1.44238h.02734c.15967-.49219.40332-.87598.73145-1.15234.32812-.27539.69482-.41309,1.10059-.41309.2915,0,.51514.03125.66992.0957v1.16211Z" fill="#2f2f2f"/>
        <path d="M170.90684,225.82832h-.99805c-1.4126-1.61328-2.11914-3.60254-2.11914-5.96777,0-2.375.70654-4.39551,2.11914-6.06348h1.01172c-1.43115,1.73145-2.14648,3.74805-2.14648,6.0498,0,2.2832.71094,4.27637,2.13281,5.98145Z" fill="#2f2f2f"/>
        <path d="M173.30332,223.5998h-1.12109v-10.36328h1.12109v10.36328Z" fill="#2f2f2f"/>
        <path d="M178.42148,223.76387c-1.03467,0-1.86035-.32715-2.47803-.98145-.61768-.65332-.92627-1.52051-.92627-2.60059,0-1.17578.32129-2.09473.96387-2.75488.64258-.66113,1.51074-.99121,2.60449-.99121,1.04346,0,1.8584.32129,2.44385.96387s.87842,1.5332.87842,2.67285c0,1.11621-.31543,2.01074-.94678,2.68262-.63135.67285-1.47754,1.00879-2.53955,1.00879ZM178.50352,217.3791c-.72021,0-1.28955.24512-1.70898.73438-.41943.49023-.62891,1.16602-.62891,2.02734,0,.8291.21191,1.4834.63574,1.96191s.99121.71777,1.70215.71777c.72461,0,1.28174-.23535,1.67139-.7041.38965-.46973.58447-1.1377.58447-2.00293,0-.875-.19482-1.5498-.58447-2.02344-.38965-.47461-.94678-.71094-1.67139-.71094Z" fill="#2f2f2f"/>
        <path d="M188.45908,223.27852c-.5376.32324-1.17578.48535-1.91406.48535-.99805,0-1.80371-.3252-2.4165-.97461s-.91943-1.49121-.91943-2.52539c0-1.15332.33057-2.0791.99121-2.7793.66064-.69922,1.54248-1.04883,2.64551-1.04883.61523,0,1.15771.11328,1.62695.3418v1.14844c-.51953-.36523-1.07568-.54688-1.66797-.54688-.71533,0-1.30225.25586-1.76025.76855s-.68701,1.18652-.68701,2.02051c0,.82031.21533,1.4668.646,1.94141.43066.47363,1.0083.71094,1.73291.71094.61084,0,1.18506-.20312,1.72266-.6084v1.06641Z" fill="#2f2f2f"/>
        <path d="M195.20322,223.5998h-1.12109v-1.09375h-.02734c-.48779.83789-1.20557,1.25781-2.15332,1.25781-.69727,0-1.24316-.18457-1.63721-.55371s-.59131-.85938-.59131-1.46973c0-1.30859.77002-2.06934,2.31055-2.2832l2.09863-.29395c0-1.18945-.48096-1.78418-1.44238-1.78418-.84326,0-1.604.28711-2.2832.86133v-1.14844c.68799-.4375,1.48096-.65625,2.37891-.65625,1.64502,0,2.46777.87012,2.46777,2.61133v4.55273ZM194.08213,220.05879l-1.68848.23242c-.51953.07227-.91162.20117-1.17578.38574s-.39648.51172-.39648.98145c0,.3418.12207.62109.36572.83691.24365.2168.56836.3252.97412.3252.55615,0,1.01514-.19531,1.37744-.58496s.54346-.88281.54346-1.47949v-.69727Z" fill="#2f2f2f"/>
        <path d="M198.34385,223.5998h-1.12109v-10.36328h1.12109v10.36328Z" fill="#2f2f2f"/>
        <path d="M201.57529,223.5998h-1.12109v-10.36328h1.12109v10.36328Z" fill="#2f2f2f"/>
        <path d="M209.44541,216.5998l-3.21973,8.12109c-.57422,1.44922-1.38086,2.17383-2.41992,2.17383-.2915,0-.53564-.03027-.73145-.08887v-1.00488c.2417.08203.4624.12305.66309.12305.56494,0,.98877-.33789,1.27148-1.01172l.56055-1.32617-2.73438-6.98633h1.24414l1.89355,5.38672c.02295.06836.0708.24609.14355.5332h.04102c.02295-.10938.06836-.2832.13672-.51953l1.98926-5.40039h1.16211Z" fill="#2f2f2f"/>
        <path d="M218.13389,217.73457c-.1958-.15039-.47852-.22559-.84766-.22559-.47852,0-.87842.22559-1.19971.67676s-.48193,1.06641-.48193,1.8457v3.56836h-1.12109v-7h1.12109v1.44238h.02734c.15967-.49219.40332-.87598.73145-1.15234.32812-.27539.69482-.41309,1.10059-.41309.2915,0,.51514.03125.66992.0957v1.16211Z" fill="#2f2f2f"/>
        <path d="M224.97666,220.38008h-4.94238c.01807.7793.22803,1.38086.62891,1.80469s.95264.63574,1.6543.63574c.78857,0,1.51318-.25977,2.17383-.7793v1.05273c-.61523.44629-1.42871.66992-2.44043.66992-.98877,0-1.76611-.31836-2.33105-.9541s-.84766-1.53027-.84766-2.68262c0-1.08984.30859-1.97656.92627-2.66309.61768-.68555,1.38428-1.02832,2.30029-1.02832s1.62451.2959,2.12598.88867c.50146.5918.75195,1.41504.75195,2.46777v.58789ZM223.82822,219.42988c-.00439-.64746-.16064-1.15137-.46826-1.51074-.30762-.36035-.73486-.54004-1.28174-.54004-.52881,0-.97754.18848-1.34668.56738-.36914.37793-.59717.87207-.68359,1.4834h3.78027Z" fill="#2f2f2f"/>
        <path d="M232.70811,223.5998h-1.12109v-1.18945h-.02734c-.51953.90234-1.32178,1.35352-2.40625,1.35352-.87939,0-1.58252-.31348-2.10889-.94043-.52637-.62598-.78955-1.47949-.78955-2.55957,0-1.1582.2915-2.08496.875-2.78223s1.36035-1.0459,2.33105-1.0459c.96143,0,1.66113.37793,2.09863,1.13477h.02734v-4.33398h1.12109v10.36328ZM231.58701,220.43477v-1.03223c0-.56543-.18701-1.04395-.56055-1.43555-.37354-.39258-.84766-.58789-1.42188-.58789-.68359,0-1.22119.25-1.61328.75195-.39209.50098-.58789,1.19336-.58789,2.07812,0,.80664.18799,1.44336.56396,1.91016.37598.46777.88086.70117,1.51416.70117.62451,0,1.13135-.22559,1.521-.67676s.58447-1.02148.58447-1.70898Z" fill="#2f2f2f"/>
        <path d="M240.53574,223.5998h-1.12109v-1.10742h-.02734c-.46484.84766-1.18506,1.27148-2.16016,1.27148-1.66797,0-2.50195-.99414-2.50195-2.98047v-4.18359h1.11426v4.00586c0,1.47656.56494,2.21484,1.69531,2.21484.54688,0,.99707-.20215,1.3501-.60547s.52979-.93066.52979-1.58203v-4.0332h1.12109v7Z" fill="#2f2f2f"/>
        <path d="M248.45322,223.5998h-1.12109v-3.99219c0-1.48633-.54248-2.22852-1.62695-2.22852-.56055,0-1.02441.21094-1.39111.63184-.3667.42188-.55029.9541-.55029,1.59668v3.99219h-1.12109v-7h1.12109v1.16211h.02734c.52881-.88477,1.29443-1.32617,2.29688-1.32617.76562,0,1.35107.24707,1.75684.74121.40576.49512.6084,1.20898.6084,2.14355v4.2793Z" fill="#2f2f2f"/>
        <path d="M256.52793,223.5998h-1.12109v-1.18945h-.02734c-.51953.90234-1.32178,1.35352-2.40625,1.35352-.87939,0-1.58252-.31348-2.10889-.94043-.52637-.62598-.78955-1.47949-.78955-2.55957,0-1.1582.2915-2.08496.875-2.78223s1.36035-1.0459,2.33105-1.0459c.96143,0,1.66113.37793,2.09863,1.13477h.02734v-4.33398h1.12109v10.36328ZM255.40684,220.43477v-1.03223c0-.56543-.18701-1.04395-.56055-1.43555-.37354-.39258-.84766-.58789-1.42188-.58789-.68359,0-1.22119.25-1.61328.75195-.39209.50098-.58789,1.19336-.58789,2.07812,0,.80664.18799,1.44336.56396,1.91016.37598.46777.88086.70117,1.51416.70117.62451,0,1.13135-.22559,1.521-.67676s.58447-1.02148.58447-1.70898Z" fill="#2f2f2f"/>
        <path d="M263.68516,223.5998h-1.12109v-1.09375h-.02734c-.48828.83789-1.20605,1.25781-2.15381,1.25781-.69727,0-1.24316-.18457-1.63721-.55371s-.59131-.85938-.59131-1.46973c0-1.30859.77002-2.06934,2.31055-2.2832l2.09912-.29395c0-1.18945-.48145-1.78418-1.44287-1.78418-.84326,0-1.604.28711-2.2832.86133v-1.14844c.68799-.4375,1.48096-.65625,2.37891-.65625,1.646,0,2.46826.87012,2.46826,2.61133v4.55273ZM262.56406,220.05879l-1.68896.23242c-.51953.07227-.91162.20117-1.17578.38574s-.39648.51172-.39648.98145c0,.3418.12207.62109.36572.83691.24365.2168.56836.3252.97412.3252.55615,0,1.01514-.19531,1.37744-.58496s.54395-.88281.54395-1.47949v-.69727Z" fill="#2f2f2f"/>
        <path d="M271.51621,223.5998h-1.12109v-3.99219c0-1.48633-.54199-2.22852-1.62695-2.22852-.56055,0-1.02441.21094-1.39062.63184-.36719.42188-.55078.9541-.55078,1.59668v3.99219h-1.12109v-7h1.12109v1.16211h.02734c.52832-.88477,1.29395-1.32617,2.29688-1.32617.76562,0,1.35156.24707,1.75684.74121.40527.49512.6084,1.20898.6084,2.14355v4.2793Z" fill="#2f2f2f"/>
        <path d="M276.7457,223.53145c-.26465.14551-.61328.21875-1.0459.21875-1.22559,0-1.83887-.68359-1.83887-2.05078v-4.14258h-1.20312v-.95703h1.20312v-1.70898l1.12109-.3623v2.07129h1.76367v.95703h-1.76367v3.94434c0,.46875.08008.80371.23926,1.00488.15918.2002.42383.30078.79297.30078.28223,0,.52637-.07812.73145-.23242v.95703Z" fill="#2f2f2f"/>
        <path d="M277.97031,225.82832h-.99805c1.42188-1.70508,2.13281-3.69824,2.13281-5.98145,0-2.30176-.71582-4.31836-2.14648-6.0498h1.01172c1.42188,1.66797,2.13281,3.68848,2.13281,6.06348,0,2.36523-.71094,4.35449-2.13281,5.96777Z" fill="#2f2f2f"/>
      </g>
      <g>
        <path d="M253.79014,252.79023c-.72461.38281-1.62695.57422-2.70703.57422-1.39453,0-2.51123-.44922-3.34961-1.34668-.83838-.89844-1.25781-2.07617-1.25781-3.53418,0-1.56836.47168-2.83496,1.41504-3.80078.94336-.9668,2.13965-1.44922,3.58887-1.44922.92969,0,1.69971.13379,2.31055.40332v1.22363c-.70166-.39258-1.47656-.58789-2.32422-.58789-1.12549,0-2.03809.37598-2.73779,1.12793s-1.04932,1.75684-1.04932,3.01465c0,1.19336.32715,2.14551.98096,2.85352.65381.70898,1.51172,1.06348,2.57373,1.06348.98438,0,1.83643-.21875,2.55664-.65625v1.11426Z" fill="#2f2f2f"/>
        <path d="M258.33896,253.36445c-1.03467,0-1.86035-.32715-2.47803-.98145-.61768-.65332-.92627-1.52051-.92627-2.60059,0-1.17578.32129-2.09473.96387-2.75488.64258-.66113,1.51074-.99121,2.60449-.99121,1.04346,0,1.8584.32129,2.44385.96387s.87842,1.5332.87842,2.67285c0,1.11621-.31543,2.01074-.94678,2.68262-.63135.67285-1.47754,1.00879-2.53955,1.00879ZM258.421,246.97969c-.72021,0-1.28955.24512-1.70898.73438-.41943.49023-.62891,1.16602-.62891,2.02734,0,.8291.21191,1.4834.63574,1.96191s.99121.71777,1.70215.71777c.72461,0,1.28174-.23535,1.67139-.7041.38965-.46973.58447-1.1377.58447-2.00293,0-.875-.19482-1.5498-.58447-2.02344-.38965-.47461-.94678-.71094-1.67139-.71094Z" fill="#2f2f2f"/>
        <path d="M264.68906,252.18867h-.02734v4.23145h-1.12109v-10.21973h1.12109v1.23047h.02734c.55127-.92969,1.35791-1.39453,2.41992-1.39453.90234,0,1.60645.31348,2.1123.93945.50586.62695.75879,1.4668.75879,2.51953,0,1.1709-.28467,2.1084-.85449,2.8125s-1.34912,1.05664-2.33789,1.05664c-.90674,0-1.60645-.39258-2.09863-1.17578ZM264.66172,249.36543v.97754c0,.57812.18799,1.06934.56396,1.47266s.85352.60547,1.43213.60547c.6792,0,1.21094-.25977,1.59619-.7793s.57764-1.24219.57764-2.16699c0-.7793-.18018-1.39062-.54004-1.83203-.35986-.44238-.84766-.66309-1.46289-.66309-.65186,0-1.17578.22656-1.57227.67969-.39648.4541-.59473,1.02246-.59473,1.70605Z" fill="#2f2f2f"/>
        <path d="M277.20518,246.20039l-3.21973,8.12109c-.57422,1.44922-1.38086,2.17383-2.41992,2.17383-.2915,0-.53564-.03027-.73145-.08887v-1.00488c.2417.08203.4624.12305.66309.12305.56494,0,.98877-.33789,1.27148-1.01172l.56055-1.32617-2.73438-6.98633h1.24414l1.89355,5.38672c.02295.06836.0708.24609.14355.5332h.04102c.02295-.10938.06836-.2832.13672-.51953l1.98926-5.40039h1.16211Z" fill="#2f2f2f"/>
        <path d="M286.05771,253.20039h-1.12109v-8.46973c-.08643.08594-.21289.18555-.37939.29688-.1665.1123-.35303.22266-.56055.33203s-.42627.21191-.65625.30762-.45459.1709-.67334.22559v-1.13477c.24609-.06836.50684-.16113.78271-.27734s.54688-.24609.81348-.38965.51855-.29395.75537-.45117.44189-.31055.61523-.46094h.42383v10.02148Z" fill="#2f2f2f"/>
      </g>
      <g>
        <rect x="24.4" y="174.07614" width="115.4" height="37.12386" fill="none"/>
        <path d="M55.18467,185.97773h-2.40625l-.69727-2.18066h-3.48633l-.69043,2.18066h-2.39258l3.56836-9.80273h2.61816l3.48633,9.80273ZM51.57529,182.10176l-1.05273-3.29492c-.07764-.24609-.13232-.54004-.16406-.88184h-.05469c-.02295.28711-.07959.57129-.1709.85449l-1.06641,3.32227h2.50879Z" fill="#2f2f2f"/>
        <path d="M62.09043,185.97773h-6.28223v-.89551l3.51367-4.51172h-3.16504v-1.59277h5.90625v1.06641l-3.3291,4.34082h3.35645v1.59277Z" fill="#2f2f2f"/>
        <path d="M69.97227,185.97773h-2.15332v-1.06641h-.03418c-.5332.82422-1.24658,1.2373-2.13965,1.2373-1.62256,0-2.43359-.98242-2.43359-2.94629v-4.22461h2.15332v4.0332c0,.98828.39209,1.4834,1.17578,1.4834.38721,0,.69727-.13574.92969-.40723.23242-.27051.34863-.63867.34863-1.10352v-4.00586h2.15332v7Z" fill="#2f2f2f"/>
        <path d="M76.30674,180.92598c-.25977-.1416-.56299-.21191-.90918-.21191-.46924,0-.83643.17188-1.10059.51562-.26416.34473-.39648.8125-.39648,1.40527v3.34277h-2.16016v-7h2.16016v1.29883h.02734c.3418-.94824.95703-1.42188,1.8457-1.42188.22803,0,.40576.02734.5332.08203v1.98926Z" fill="#2f2f2f"/>
        <path d="M83.6793,183.09297h-4.56641c.07275,1.01562.71338,1.52441,1.9209,1.52441.77002,0,1.44678-.18262,2.03027-.54688v1.55859c-.64697.3457-1.48779.51953-2.52246.51953-1.13037,0-2.00732-.31348-2.63184-.94043-.62451-.62598-.93652-1.5-.93652-2.62109,0-1.16211.3374-2.08301,1.01172-2.76172.67432-.67969,1.50391-1.01855,2.48828-1.01855,1.021,0,1.81055.30273,2.36865.90918.55811.60547.8374,1.42871.8374,2.46777v.90918ZM81.67637,181.7668c0-1.00293-.40576-1.50391-1.2168-1.50391-.34619,0-.646.14355-.89893.43066s-.40674.64453-.46143,1.07324h2.57715Z" fill="#2f2f2f"/>
        <path d="M89.03867,185.97773v-9.80273h3.47266c3.48193,0,5.22266,1.59277,5.22266,4.77832,0,1.52637-.4751,2.74512-1.42529,3.65723-.9502.91113-2.21582,1.36719-3.79736,1.36719h-3.47266ZM91.24668,177.97285v6.21387h1.09375c.95703,0,1.70801-.28711,2.25244-.86133s.81689-1.35645.81689-2.34473c0-.93457-.27002-1.66895-.81006-2.20508-.54004-.53516-1.29785-.80273-2.27295-.80273h-1.08008Z" fill="#2f2f2f"/>
        <path d="M104.94785,185.97773h-2.04395v-1.00488h-.02734c-.46924.7832-1.16455,1.17578-2.08496,1.17578-.6792,0-1.21338-.19238-1.60303-.57812-.38965-.38477-.58447-.89844-.58447-1.54102,0-1.3584.8042-2.14258,2.41309-2.35156l1.90039-.25293c0-.76562-.41455-1.14844-1.24414-1.14844-.83398,0-1.62695.24805-2.37891.74512v-1.62695c.30078-.15527.71191-.29199,1.23389-.41016.52197-.11914.99707-.17773,1.42529-.17773,1.99609,0,2.99414.99512,2.99414,2.9873v4.18359ZM102.91758,183.13398v-.47168l-1.27148.16406c-.70166.09082-1.05273.40723-1.05273.9502,0,.24609.08545.44727.25635.60449s.40234.23633.69385.23633c.40576,0,.73584-.14062.99121-.4209s.38281-.63477.38281-1.0625Z" fill="#2f2f2f"/>
        <path d="M110.77646,185.8957c-.31885.16797-.7998.25293-1.44238.25293-1.52197,0-2.2832-.79102-2.2832-2.37207v-3.20605h-1.13477v-1.59277h1.13477v-1.51074l2.15332-.61523v2.12598h1.57227v1.59277h-1.57227v2.83008c0,.72852.28955,1.09375.86816,1.09375.22803,0,.4624-.06641.7041-.19824v1.59961Z" fill="#2f2f2f"/>
        <path d="M117.95713,185.97773h-2.04395v-1.00488h-.02734c-.46924.7832-1.16455,1.17578-2.08496,1.17578-.6792,0-1.21338-.19238-1.60303-.57812-.38965-.38477-.58447-.89844-.58447-1.54102,0-1.3584.8042-2.14258,2.41309-2.35156l1.90039-.25293c0-.76562-.41455-1.14844-1.24414-1.14844-.83398,0-1.62695.24805-2.37891.74512v-1.62695c.30078-.15527.71191-.29199,1.23389-.41016.52197-.11914.99707-.17773,1.42529-.17773,1.99609,0,2.99414.99512,2.99414,2.9873v4.18359ZM115.92686,183.13398v-.47168l-1.27148.16406c-.70166.09082-1.05273.40723-1.05273.9502,0,.24609.08545.44727.25635.60449s.40234.23633.69385.23633c.40576,0,.73584-.14062.99121-.4209s.38281-.63477.38281-1.0625Z" fill="#2f2f2f"/>
        <path d="M37.34629,202.77754h-5.87891v-9.80273h5.65332v1.79785h-3.44531v2.18066h3.20605v1.79102h-3.20605v2.24219h3.6709v1.79102Z" fill="#2f2f2f"/>
        <path d="M45.7042,195.77754l-2.31055,3.39062,2.29688,3.60938h-2.48828l-1.01172-1.88672c-.08203-.15039-.18018-.3623-.29395-.63574h-.02734c-.06836.19141-.16162.39648-.28027.61523l-1.01855,1.90723h-2.48145l2.36523-3.48633-2.22168-3.51367h2.50195l.99805,1.96191c.13232.25977.22559.47852.28027.65625h.02734c.07275-.21484.1709-.4375.29395-.66992l1.01855-1.94824h2.35156Z" fill="#2f2f2f"/>
        <path d="M48.8624,201.96406h-.02734v4.0332h-2.16016v-10.21973h2.16016v1.05273h.02734c.5332-.81641,1.28271-1.22363,2.24902-1.22363.90674,0,1.60742.31055,2.10205.93262s.7417,1.46875.7417,2.54004c0,1.16602-.28809,2.10254-.86475,2.80957-.57666.70605-1.34326,1.05957-2.30029,1.05957-.84326,0-1.48584-.32812-1.92773-.98438ZM48.80088,199.09297v.56055c0,.48242.12744.87695.38281,1.18262.25537.30469.59033.45801,1.00488.45801.49219,0,.87402-.19043,1.14502-.57129.271-.37988.40674-.91895.40674-1.61621,0-1.23047-.47852-1.8457-1.43555-1.8457-.44189,0-.80322.16699-1.0835.50195s-.42041.77832-.42041,1.33008Z" fill="#2f2f2f"/>
        <path d="M57.54453,202.77754h-2.16016v-10.36328h2.16016v10.36328Z" fill="#2f2f2f"/>
        <path d="M62.6876,202.94844c-1.1665,0-2.08398-.32715-2.75146-.98145-.66748-.65332-1.00146-1.54102-1.00146-2.66211,0-1.1582.34619-2.06348,1.03906-2.71777.69287-.65332,1.62939-.98047,2.80957-.98047,1.16211,0,2.07373.32715,2.73438.98047.66064.6543.99121,1.51855.99121,2.59473,0,1.16211-.34082,2.08008-1.02197,2.75488-.68115.67383-1.61426,1.01172-2.79932,1.01172ZM62.74229,197.26094c-.51025,0-.90674.1748-1.18945.52637-.28271.35059-.42383.84766-.42383,1.49023,0,1.34375.54248,2.0166,1.62695,2.0166,1.03467,0,1.55176-.69043,1.55176-2.07129,0-1.30859-.52197-1.96191-1.56543-1.96191Z" fill="#2f2f2f"/>
        <path d="M72.45566,197.72578c-.25977-.1416-.56299-.21191-.90918-.21191-.46924,0-.83643.17188-1.10059.51562-.26416.34473-.39648.8125-.39648,1.40527v3.34277h-2.16016v-7h2.16016v1.29883h.02734c.3418-.94824.95703-1.42188,1.8457-1.42188.22803,0,.40576.02734.5332.08203v1.98926Z" fill="#2f2f2f"/>
        <path d="M79.82822,199.89277h-4.56641c.07275,1.01562.71338,1.52441,1.9209,1.52441.77002,0,1.44678-.18262,2.03027-.54688v1.55859c-.64697.3457-1.48779.51953-2.52246.51953-1.13037,0-2.00732-.31348-2.63184-.94043-.62451-.62598-.93652-1.5-.93652-2.62109,0-1.16211.3374-2.08301,1.01172-2.76172.67432-.67969,1.50391-1.01855,2.48828-1.01855,1.021,0,1.81055.30273,2.36865.90918.55811.60547.8374,1.42871.8374,2.46777v.90918ZM77.82529,198.5666c0-1.00293-.40576-1.50391-1.2168-1.50391-.34619,0-.646.14355-.89893.43066s-.40674.64453-.46143,1.07324h2.57715Z" fill="#2f2f2f"/>
        <path d="M85.75791,197.72578c-.25977-.1416-.56299-.21191-.90918-.21191-.46924,0-.83643.17188-1.10059.51562-.26416.34473-.39648.8125-.39648,1.40527v3.34277h-2.16016v-7h2.16016v1.29883h.02734c.3418-.94824.95703-1.42188,1.8457-1.42188.22803,0,.40576.02734.5332.08203v1.98926Z" fill="#2f2f2f"/>
        <path d="M95.92979,202.52461c-.48779.28223-1.19189.42383-2.1123.42383-1.07568,0-1.9458-.32617-2.61133-.97754-.66553-.65234-.99805-1.49316-.99805-2.52246,0-1.18945.35645-2.12695,1.06982-2.81348.71338-.68555,1.66699-1.02832,2.86084-1.02832.82471,0,1.42188.10938,1.79102.32812v1.83203c-.45117-.33789-.95459-.50586-1.51074-.50586-.61963,0-1.11084.18066-1.47314.54297s-.54346.8623-.54346,1.50098c0,.61914.17334,1.10645.51953,1.45898.34619.35352.82275.53027,1.42871.53027.5376,0,1.06396-.16895,1.5791-.50586v1.73633Z" fill="#2f2f2f"/>
        <path d="M99.61143,202.77754h-2.16016v-10.36328h2.16016v10.36328Z" fill="#2f2f2f"/>
        <path d="M108.06846,202.77754h-2.15332v-1.06641h-.03418c-.5332.82422-1.24658,1.2373-2.13965,1.2373-1.62256,0-2.43359-.98242-2.43359-2.94629v-4.22461h2.15332v4.0332c0,.98828.39209,1.4834,1.17578,1.4834.38721,0,.69727-.13574.92969-.40723.23242-.27051.34863-.63867.34863-1.10352v-4.00586h2.15332v7Z" fill="#2f2f2f"/>
        <path d="M109.53379,202.59297v-1.75c.35547.21387.70996.37305,1.06299.47852.35303.10449.68701.15723,1.00146.15723.38281,0,.68457-.05273.90576-.15723.22119-.10547.33154-.26465.33154-.47852,0-.13672-.05029-.25098-.15039-.3418-.1001-.0918-.229-.1709-.38623-.23926s-.3291-.12988-.51611-.18457-.3667-.11621-.54004-.18457c-.27783-.10547-.52295-.21777-.73486-.33887-.21191-.12012-.38965-.26074-.5332-.41992-.14355-.16016-.25293-.34473-.32812-.55371-.0752-.20996-.11279-.45801-.11279-.74512,0-.39258.08545-.72949.25635-1.01172.1709-.2832.39893-.51367.68359-.69434.28467-.17969.61084-.31152.97754-.39648.3667-.08398.74854-.12598,1.14502-.12598.31006,0,.62451.02344.94336.07129s.6333.11719.94336.20898v1.66797c-.27344-.16016-.56641-.2793-.87842-.35938-.31201-.0791-.61865-.11914-.91943-.11914-.14111,0-.27441.0127-.3999.03711-.12549.02539-.23584.06152-.33154.10938s-.1709.10938-.22559.18457-.08203.16113-.08203.25684c0,.12695.04102.23633.12305.32812.08203.09082.18896.16992.32129.23535.13232.06641.2793.12598.44092.17773.16162.05273.32227.10645.48193.16113.28711.09961.54688.20898.7793.32812.23242.11816.43164.25684.59814.41699.1665.15918.29395.3457.38281.56055.08887.21387.1333.46875.1333.76562,0,.41406-.08984.76855-.27002,1.0625s-.41943.5332-.71777.71777-.64258.31934-1.03223.40332c-.38965.08496-.79395.12695-1.21338.12695-.77002,0-1.4834-.11914-2.13965-.35547Z" fill="#2f2f2f"/>
        <path d="M120.34043,202.69551c-.31885.16797-.7998.25293-1.44238.25293-1.52197,0-2.2832-.79102-2.2832-2.37207v-3.20605h-1.13477v-1.59277h1.13477v-1.51074l2.15332-.61523v2.12598h1.57227v1.59277h-1.57227v2.83008c0,.72852.28955,1.09375.86816,1.09375.22803,0,.4624-.06641.7041-.19824v1.59961Z" fill="#2f2f2f"/>
        <path d="M127.82676,199.89277h-4.56641c.07275,1.01562.71338,1.52441,1.9209,1.52441.77002,0,1.44678-.18262,2.03027-.54688v1.55859c-.64697.3457-1.48779.51953-2.52246.51953-1.13037,0-2.00732-.31348-2.63184-.94043-.62451-.62598-.93652-1.5-.93652-2.62109,0-1.16211.3374-2.08301,1.01172-2.76172.67432-.67969,1.50391-1.01855,2.48828-1.01855,1.021,0,1.81055.30273,2.36865.90918.55811.60547.8374,1.42871.8374,2.46777v.90918ZM125.82383,198.5666c0-1.00293-.40576-1.50391-1.2168-1.50391-.34619,0-.646.14355-.89893.43066s-.40674.64453-.46143,1.07324h2.57715Z" fill="#2f2f2f"/>
        <path d="M133.75791,197.72578c-.25977-.1416-.56299-.21191-.90918-.21191-.46924,0-.83643.17188-1.10059.51562-.26416.34473-.39648.8125-.39648,1.40527v3.34277h-2.16016v-7h2.16016v1.29883h.02734c.3418-.94824.95703-1.42188,1.8457-1.42188.22803,0,.40576.02734.5332.08203v1.98926Z" fill="#2f2f2f"/>
      </g>
    </g>
  </g>
</svg>