<?xml version="1.0" encoding="UTF-8"?>
<svg xmlns="http://www.w3.org/2000/svg" width="334.4" height="316.8" xmlns:xlink="http://www.w3.org/1999/xlink" viewBox="0 0 334.4 316.8">
  <defs>
    <linearGradient id="linear-gradient" x1="107.9074" y1="1828.65126" x2="107.9074" y2="1858.80779" gradientTransform="translate(-1272.5376 1259.90425) rotate(45) scale(1 -1)" gradientUnits="userSpaceOnUse">
      <stop offset="0" stop-color="#5e9741"/>
      <stop offset=".55" stop-color="#6bad44"/>
      <stop offset="1" stop-color="#76bc43"/>
    </linearGradient>
    <linearGradient id="linear-gradient-2" x1="105.67955" y1="1848.24989" x2="105.66425" y2="1850.17771" gradientTransform="translate(0 1876.4) scale(1 -1)" gradientUnits="userSpaceOnUse">
      <stop offset="0" stop-color="#cccccb"/>
      <stop offset=".12" stop-color="#d7d7d7"/>
      <stop offset=".42" stop-color="#ebebeb"/>
      <stop offset=".72" stop-color="#f8f8f8"/>
      <stop offset="1" stop-color="#fdfefe"/>
    </linearGradient>
    <linearGradient id="linear-gradient-3" x1="108.46866" y1="1846.33741" x2="108.46866" y2="1848.05103" xlink:href="#linear-gradient-2"/>
    <linearGradient id="linear-gradient-4" x1="26.08243" y1="1802.5331" x2="26.08243" y2="1778.5331" gradientTransform="translate(0 1876.4) scale(1 -1)" gradientUnits="userSpaceOnUse">
      <stop offset=".18" stop-color="#5ea0ef"/>
      <stop offset="1" stop-color="#0078d4"/>
    </linearGradient>
    <linearGradient id="linear-gradient-5" x1="-447.94612" y1="1966.26352" x2="-447.94612" y2="1996.40394" gradientTransform="translate(564 2110.4) scale(1 -1)" gradientUnits="userSpaceOnUse">
      <stop offset="0" stop-color="#5e9624"/>
      <stop offset=".02" stop-color="#5f9724"/>
      <stop offset="1" stop-color="#76bc2d"/>
    </linearGradient>
    <linearGradient id="linear-gradient-6" x1="-323.30867" y1="1915.54772" x2="-323.30867" y2="1934.30899" gradientTransform="translate(564 2110.4) scale(1 -1)" gradientUnits="userSpaceOnUse">
      <stop offset="0" stop-color="#0078d4"/>
      <stop offset=".82" stop-color="#5ea0ef"/>
    </linearGradient>
    <linearGradient id="linear-gradient-7" x1="-323.30867" y1="1908.30899" x2="-323.30867" y2="1915.54772" gradientTransform="translate(564 2110.4) scale(1 -1)" gradientUnits="userSpaceOnUse">
      <stop offset=".15" stop-color="#ccc"/>
      <stop offset="1" stop-color="#707070"/>
    </linearGradient>
    <linearGradient id="linear-gradient-8" x1="-471.6" x2="-471.6" xlink:href="#linear-gradient-6"/>
    <linearGradient id="linear-gradient-9" x1="-471.6" x2="-471.6" xlink:href="#linear-gradient-7"/>
    <linearGradient id="linear-gradient-10" x1="-439.87094" y1="1831.57518" x2="-420.36947" y2="1831.57518" gradientTransform="translate(562.79148 2108.00887) rotate(.147) scale(1 -1)" gradientUnits="userSpaceOnUse">
      <stop offset="0" stop-color="#005ba1"/>
      <stop offset=".068" stop-color="#0060a9"/>
      <stop offset=".356" stop-color="#0071c8"/>
      <stop offset=".517" stop-color="#0078d4"/>
      <stop offset=".642" stop-color="#0074cd"/>
      <stop offset=".82" stop-color="#006abb"/>
      <stop offset="1" stop-color="#005ba1"/>
    </linearGradient>
  </defs>
  <g isolation="isolate">
    <g id="Shapes">
      <rect width="334.4" height="316.8" fill="#fff"/>
      <g>
        <rect x="10.65386" y="93.4669" width="312.4" height="214.5331" fill="#fff"/>
        <rect x="10.65386" y="93.4669" width="312.4" height="214.5331" fill="#53b1e0" opacity=".1"/>
        <rect x="10.65386" y="93.4669" width="312.4" height="214.5331" fill="none" stroke="#53b1e0" stroke-width=".25"/>
      </g>
      <g>
        <rect x="11.02641" y="10.25937" width="312.02745" height="39.6" fill="#fff"/>
        <rect x="11.02641" y="10.25937" width="312.02745" height="39.6" fill="#d3ec8e" opacity=".3"/>
        <rect x="11.02641" y="10.25937" width="312.02745" height="39.6" fill="none" opacity=".7" stroke="#8bc63f" stroke-width=".25"/>
      </g>
      <g>
        <g mix-blend-mode="multiply" opacity=".8">
          <rect x="24.35386" y="107.1669" width="286" height="39.6" fill="#5e9741"/>
          <rect x="24.35386" y="107.1669" width="286" height="39.6" fill="#5e9741" opacity=".6"/>
        </g>
        <g>
          <rect x="23.85386" y="106.6669" width="286" height="39.6" fill="#fff"/>
          <rect x="23.85386" y="106.6669" width="286" height="39.6" fill="#d3ec8e" opacity=".6"/>
        </g>
      </g>
      <g>
        <rect x="98.45603" y="22.61908" width="18.89564" height="18.89564" rx=".87211" ry=".87211" transform="translate(8.92958 85.69173) rotate(-45)" fill="url(#linear-gradient)"/>
        <g>
          <path d="M110.80958,34.37722h4.34523c.08693-.00793.15336-.08101.153-.1683v-4.32993c.00912-.08401-.0516-.1595-.1356-.16861-.05423-.00588-.1075.01755-.1398.06151l-1.19341,1.19341v.0765c-.05949.05832-.15471.05832-.2142,0l-5.30914-5.23264c-.05949-.05832-.15471-.05832-.2142,0l-1.34641,1.34641c-.06025.06464-.06025.16486,0,.2295l5.21734,5.21734c.06025.06464.06025.16486,0,.2295l-.0765.0765-1.19341,1.19341c-.05992.07106-.05088.17724.02018.23716.0247.02083.05488.0341.08692.03825Z" fill="#fff"/>
          <path d="M104.73543,34.37722h-4.34523c-.07475-.02113-.12533-.09068-.1224-.1683v-4.32993c.00119-.08449.07064-.15202.15514-.15084.03931.00055.0769.01621.10497.04374l1.20871,1.19341v.0765c.05949.05832.15471.05832.2142,0l5.27854-5.23264c.05949-.05832.15471-.05832.2142,0l1.34641,1.34641c.06025.06464.06025.16486,0,.2295l-5.21734,5.21734c-.06025.06464-.06025.16486,0,.2295v.0765l1.19341,1.19341c.07022.0609.07778.16719.01689.23741-.01339.01544-.02948.02831-.04749.03799Z" fill="#fff"/>
          <path d="M104.58243,38.29405l3.06002,3.06002c.05949.05832.15471.05832.2142,0l3.06002-3.06002c.05916-.06034.0582-.15721-.00213-.21637-.02807-.02752-.06566-.04318-.10497-.04374h-1.79011c-.08137-.00711-.14589-.07163-.153-.153v-7.34405c.00845-.08408-.05286-.15908-.13693-.16754-.00534-.00054-.0107-.00079-.01607-.00077h-1.89721c-.09295,0-.1683.07535-.1683.1683v7.34406c0,.0845-.0685.153-.153.153h-1.80541c-.08449.00119-.15202.07065-.15083.15514.00055.03931.01621.07689.04373.10496Z" fill="#fff"/>
        </g>
        <path id="ac0a9c0c-2e8c-4843-b02b-2fadf76b27d0" d="M110.44237,30.20029c-1.85717,1.33972-4.44875.92024-5.78846-.93693-1.27421-1.76636-.96459-4.2175.70882-5.61152h0c1.88084-1.30628,4.4645-.8405,5.77078,1.04033,1.22196,1.75944.90251,4.16006-.73704,5.53872" fill="#2e76bc"/>
        <circle cx="105.66874" cy="26.78836" r="1.33111" fill="url(#linear-gradient-2)"/>
        <g>
          <path d="M104.35293,29.00688l.2907.459.2142.306c.11849-.57653.29271-1.14018.5202-1.68301-.25987-.04478-.49999-.16751-.6885-.3519-.1392.41568-.25163.83985-.3366,1.26991Z" fill="#f2f2f3" isolation="isolate" opacity=".55"/>
          <path d="M105.22503,25.53375c-.17911-.45783-.3024-.93558-.3672-1.42291-.19997.21375-.37453.44992-.5202.70381.06036.38744.16297.76711.306,1.13221.15855-.18158.35777-.32313.5814-.4131Z" fill="#f2f2f3" isolation="isolate" opacity=".55"/>
          <path d="M106.64795,27.69107c-.19578.20796-.45327.34743-.73441.3978.22038.22453.4555.4341.7038.6273.31256.2289.64545.42863.99451.5967v-.1071c.00672-.23915.11871-.46313.306-.612-.46394-.23921-.89152-.54315-1.26991-.90271Z" fill="#f2f2f3" isolation="isolate" opacity=".55"/>
          <path d="M110.65658,29.31288c-.44786-.0038-.89406-.05508-1.33111-.153h0c.00089.22352-.08719.43821-.2448.5967.54226.11865,1.09859.15986,1.65241.1224.20878-.19565.39834-.41083.5661-.64261l-.64261.0765Z" fill="#f2f2f3" isolation="isolate" opacity=".55"/>
        </g>
        <circle cx="108.46866" cy="29.20578" r=".85681" fill="url(#linear-gradient-3)"/>
        <circle cx="110.42707" cy="27.07906" r=".91801" fill="#f2f2f3"/>
        <g>
          <path d="M108.23916,25.05945c.8977-.42948,1.8813-.64922,2.87642-.64261-.20491-.26328-.44717-.49523-.71911-.68851-.78491.04701-1.55597.22813-2.27972.5355-.153,0-.2907.1683-.4437.2448h0c-.3662-.44229-.68899-.91879-.96391-1.42291l-.5202.1989c.27344.54548.60702,1.05867.99451,1.53001-.37176.24174-.71556.52397-1.02511.84151.27183.10198.50287.29003.65791.5355.28103-.28077.59432-.52729.93331-.73441.55273.55932,1.15154,1.07113,1.79011,1.53001.04345-.19321.15137-.36588.306-.4896-.57466-.43378-1.11204-.91486-1.60651-1.43821Z" fill="#f2f2f3" isolation="isolate" opacity=".55"/>
          <path d="M111.81939,27.61457h-.2754l-.153-.0918c-.05342.18034-.16008.34033-.306.459l.1836.1071h0l.1683.0918h0l.4284.2142h0c.05489-.17607.10085-.3548.1377-.5355l-.1836-.2448Z" fill="#f2f2f3" isolation="isolate" opacity=".55"/>
        </g>
        <circle cx="105.66874" cy="26.78836" r="1.33111" fill="#f2f2f3"/>
        <circle cx="108.46866" cy="29.20578" r=".85681" fill="#f2f2f3"/>
      </g>
      <g id="e0962381-da5c-47a2-ae4c-adf850116f2b">
        <g>
          <rect x="10.65386" y="73.8669" width="30.85714" height="24" rx=".76" ry=".76" fill="url(#linear-gradient-4)"/>
          <path d="M24.91294,78.68405s-.00668.02709-.01508.07286c-.74384.20711-1.44702.53928-2.07943.98229-1.20368-.45014-2.53679-.4042-3.70663.12771-.12565,1.27484.21465,2.55205.95794,3.59537-.23609.66029-.39419,1.34591-.47109,2.04291-1.09072.56792-1.92152,1.53325-2.32063,2.6964.81141.99321,1.96681,1.64478,3.23657,1.8252l.00463-.0036c.31433.56293.6994,1.08333,1.14583,1.54851-.32414.92882-.29688,1.9442.07663,2.85429,1.07062.05045,2.1257-.27118,2.98611-.91029.87578.29321,1.7981.42251,2.72074.38143.52774.69105,1.3037,1.14958,2.1636,1.27851.61904-.60323.98895-1.41696,1.03646-2.28h0l-.00103-.04577h0l-.00274-.04766c.6786-.47296,1.25252-1.08061,1.686-1.78509.69483.019,1.37096-.22652,1.89171-.68691-.08917-.70921-.43856-1.36003-.9804-1.82623h0l-.02708-.01971h0l-.02434-.01577c.32736-2.63821-1.54596-5.04228-4.18418-5.36964-.23375-.029-.46932-.04081-.7048-.03533-4.85931-.17657-4.3392,8.38029.48651,6.02023.29674-.71297-.82954.04097-1.13503-.11897-1.08808-.07896-1.91287-1.01418-1.8552-2.1036.13107-1.38557,1.36056-2.40254,2.74613-2.27147.39877.03772.78281.16996,1.12027.38575,3.22783,1.80497.92126,6.84274-2.44954,6.56091.02331,0-.00377,0-.00291-.00103-2.83982-.07154-5.10939-2.38567-5.12571-5.22634-.10351-3.1287,2.34889-5.74892,5.4776-5.85243.00139-.00005.00278-.00009.00418-.00014,3.28611-.31097,5.78297,2.35903,6.71777,5.12091.2102-1.90133-.51474-3.78652-1.94469-5.05714.14136-.66503.02762-1.35891-.31869-1.944-.66218-.06062-1.32493.10976-1.87577.48223-.59945-.25663-1.23063-.43167-1.87663-.52046-.28656-.85351-.89237-1.56296-1.69046-1.97966-.80356.47316-1.39871,1.23241-1.66629,2.12571" fill="#f2f2f2"/>
        </g>
      </g>
      <g>
        <path d="M103.31605,127.84592l12.11683-12.11683c.33376-.34297.88236-.35044,1.22533-.01668.00564.00548.0112.01105.01668.01668l12.11683,12.11683c.34297.33376.35044.88236.01668,1.22533-.00548.00564-.01105.0112-.01668.01668l-12.13127,12.13127c-.33694.33027-.87619.33027-1.21313,0l-12.13127-12.13127c-.34297-.33376-.35044-.88236-.01668-1.22533.00548-.00564.01105-.0112.01668-.01668Z" fill="url(#linear-gradient-5)"/>
        <path d="M119.23112,121.24594l-3.0617-3.04726c-.06579-.05884-.16529-.05884-.23107,0l-3.0617,3.04726c-.06617.04453-.08372.13427-.03919.20045.03392.05041.09577.0742.15473.05951h1.79081c.08774,0,.15886.07112.15886.15886v2.8884c0,.08774.07112.15886.15886.15886h1.90634c.08774,0,.15886-.07112.15886-.15886v-2.8884c0-.08774.07112-.15886.15886-.15886h1.79081c.0774.01928.15577-.02783.17505-.10523.01469-.05896-.0091-.12081-.05951-.15473Z" fill="#b4ec36"/>
        <path d="M108.83289,125.01529l-3.03282,3.07614c-.05687.06101-.05687.15562,0,.21663l3.03282,3.04726c.06014.06389.16068.06693.22456.00679.03358-.03161.05177-.07625.04984-.12232v-1.77636c0-.08774.07112-.15886.15886-.15886h2.8884c.07976.0004.14474-.06393.14514-.14369.00003-.00506-.00022-.01013-.00072-.01517v-1.90634c.04089-.06848.01852-.15715-.04996-.19804-.01571-.00938-.03306-.01569-.05113-.01859h-2.8884c-.07936.00798-.15016-.04989-.15814-.12925-.00051-.00504-.00075-.0101-.00072-.01517v-1.74748c.0319-.08774-.01336-.18473-.10109-.21663-.08774-.0319-.18472.01336-.21663.10109Z" fill="#b4ec36"/>
        <path d="M123.39041,131.35533l3.07614-3.0617c.05687-.06101.05687-.15562,0-.21663l-3.07614-3.0617c-.06761-.05592-.16775-.04643-.22366.02118-.02205.02666-.03479.05979-.03629.09436v1.80525c.0004.07976-.06393.14474-.14369.14514-.00506.00003-.01013-.00021-.01517-.00072h-2.8884c-.07976-.0004-.14474.06393-.14514.14369-.00003.00507.00021.01013.00072.01517v1.90634c-.00798.07936.04989.15016.12925.15814.00504.00051.0101.00075.01517.00072h2.8884c.08774,0,.15886.07112.15886.15886v1.79081c.01124.08701.0909.14844.17791.1372.03025-.00391.05873-.01644.08205-.0361Z" fill="#b4ec36"/>
        <path d="M120.0832,128.46693c.01379-2.22529-1.77898-4.04041-4.00427-4.0542-2.22529-.01379-4.04041,1.77898-4.0542,4.00427-.01126,1.81738,1.1955,3.41736,2.94601,3.90595v1.37199c-1.2117.62612-1.68641,2.11597-1.06029,3.32768.62612,1.2117,2.11597,1.68641,3.32768,1.06029,1.2117-.62612,1.68641-2.11598,1.06029-3.32768-.235-.45478-.60551-.82529-1.06029-1.06029v-1.4442c1.67296-.50454,2.82487-2.03653,2.84507-3.7838Z" fill="#fff"/>
        <circle id="e99c3387-15c3-4f28-bd4b-cb209b430e06" cx="116.06833" cy="128.45249" r="2.3396" fill="#5ea0ef"/>
      </g>
      <rect x="24.42733" y="250.75699" width="283.57267" height="44" fill="#fff" stroke="#4e4f4f" stroke-width=".25"/>
      <rect x="172.71866" y="159.35453" width="135.94535" height="78.53953" fill="#fff" stroke="#4e4f4f" stroke-width=".25"/>
      <g>
        <rect x="226.62038" y="176.09101" width="28.14191" height="18.76127" rx=".93806" ry=".93806" fill="url(#linear-gradient-6)"/>
        <polygon points="245.38165 182.73563 245.38165 188.19203 240.69133 190.94368 240.69133 185.47165 245.38165 182.73563" fill="#50e6ff"/>
        <polygon points="245.38165 182.73563 240.69133 185.48728 236.00101 182.73563 240.69133 179.99961 245.38165 182.73563" fill="#c3f1ff"/>
        <polygon points="240.69133 185.48728 240.69133 190.94368 236.00101 188.19203 236.00101 182.73563 240.69133 185.48728" fill="#9cebff"/>
        <polygon points="236.00101 188.19203 240.69133 185.47165 240.69133 190.94368 236.00101 188.19203" fill="#c3f1ff"/>
        <polygon points="245.38165 188.19203 240.69133 185.47165 240.69133 190.94368 245.38165 188.19203" fill="#9cebff"/>
        <path d="M246.33535,200.52757c-2.78292-.43776-2.89236-2.43896-2.89236-5.67529h-5.51894c0,3.23632-.09381,5.23752-2.87673,5.67529-.79569.08805-1.39632.76291-1.39146,1.56344h14.07096c.00486-.80053-.59577-1.4754-1.39146-1.56344Z" fill="url(#linear-gradient-7)"/>
      </g>
      <rect x="24.42733" y="159.35453" width="135.94535" height="78.53953" fill="#fff" stroke="#4e4f4f" stroke-width=".25"/>
      <g>
        <rect x="78.32904" y="176.09101" width="28.14191" height="18.76127" rx=".93806" ry=".93806" fill="url(#linear-gradient-8)"/>
        <polygon points="97.09032 182.73563 97.09032 188.19203 92.4 190.94368 92.4 185.47165 97.09032 182.73563" fill="#50e6ff"/>
        <polygon points="97.09032 182.73563 92.4 185.48728 87.70968 182.73563 92.4 179.99961 97.09032 182.73563" fill="#c3f1ff"/>
        <polygon points="92.4 185.48728 92.4 190.94368 87.70968 188.19203 87.70968 182.73563 92.4 185.48728" fill="#9cebff"/>
        <polygon points="87.70968 188.19203 92.4 185.47165 92.4 190.94368 87.70968 188.19203" fill="#c3f1ff"/>
        <polygon points="97.09032 188.19203 92.4 185.47165 92.4 190.94368 97.09032 188.19203" fill="#9cebff"/>
        <path d="M98.04402,200.52757c-2.78292-.43776-2.89236-2.43896-2.89236-5.67529h-5.51894c0,3.23632-.09381,5.23752-2.87673,5.67529-.79569.08805-1.39632.76291-1.39146,1.56344h14.07096c.00486-.80053-.59577-1.4754-1.39146-1.56344Z" fill="url(#linear-gradient-9)"/>
      </g>
      <g id="bdd66f0d-1091-4867-9f64-cdf433204a8a">
        <g>
          <path d="M137.39027,267.6591c-5.38534-.01377-9.74592-1.61514-9.74133-3.57748l-.04894,18.89686c0,1.94551,4.28258,3.53618,9.60826,3.57595h.13307c5.38534.01377,9.75509-1.56467,9.75968-3.52701l.04894-18.89686c-.00459,1.96387-4.37434,3.5423-9.75968,3.52853Z" fill="url(#linear-gradient-10)"/>
          <path d="M147.14996,264.13209c0,1.96081-4.37434,3.54077-9.75968,3.52701-5.38534-.01377-9.74592-1.61514-9.74133-3.57748s4.37282-3.54077,9.75968-3.52701c5.38687.01377,9.74592,1.61514,9.74133,3.57748" fill="#e6e6e6"/>
          <path d="M144.86948,263.83843c0,1.24806-3.35264,2.24988-7.47921,2.23918-4.12657-.01071-7.46851-1.02935-7.46545-2.27741s3.35264-2.24988,7.48074-2.23918c4.1281.01071,7.47156,1.02935,7.4685,2.27741" fill="#50e6ff"/>
          <path d="M137.39792,264.34011c-2.0072-.05242-4.00899.23192-5.92219.84122,1.90615.63971,3.90904.94299,5.91913.89628,2.00931.0567,4.01318-.23623,5.92219-.86569-1.9104-.61958-3.91122-.91427-5.91913-.87181Z" fill="#198ab3"/>
        </g>
      </g>
    </g>
    <g id="Text">
      <g>
        <path d="M130.12402,34.82402v-2.1875c.39648.33301.82715.58203,1.29199.74902.46484.16602.93408.24902,1.4082.24902.27783,0,.52051-.02441.72803-.0752.20752-.0498.38037-.11914.51953-.20801s.24268-.19434.31104-.31445c.06836-.12109.10254-.25195.10254-.39355,0-.19141-.05469-.3623-.16406-.5127s-.25879-.28906-.44775-.41699c-.18896-.12695-.41357-.25-.67334-.36914-.25977-.11816-.54004-.23926-.84082-.3623-.76562-.31836-1.33643-.70801-1.7124-1.16895-.37598-.45996-.56396-1.01562-.56396-1.66797,0-.50977.10254-.94922.30762-1.31543.20508-.36719.48438-.66895.8374-.90625.35303-.23633.76221-.41113,1.22705-.52246.46484-.1123.95703-.16797,1.47656-.16797.51025,0,.96289.03125,1.35693.09277s.75781.15625,1.09033.2832v2.04395c-.16406-.11328-.34277-.21387-.53662-.30078-.19385-.08594-.39307-.1582-.59814-.21484-.20508-.05762-.40918-.09961-.61182-.12695s-.39551-.04102-.57764-.04102c-.25049,0-.47852.02441-.68359.07227s-.37842.11523-.51953.20117c-.14111.08691-.25049.19043-.32812.31152-.07764.12012-.11621.25586-.11621.40625,0,.16406.04346.31152.12988.44141s.20947.25293.36914.36914.35303.22949.58105.3418c.22803.11133.48535.22656.77246.34473.39209.16406.74414.33887,1.05615.52344s.58008.39258.80322.625.39404.49805.5127.79688c.11865.29785.17773.64551.17773,1.04199,0,.54688-.10352,1.00586-.31104,1.37793-.20752.37109-.48877.67188-.84424.90234-.35547.22949-.76904.39551-1.24072.49512-.47168.10059-.96973.15039-1.49365.15039-.5376,0-1.04932-.04492-1.53467-.13672-.48535-.09082-.90576-.22754-1.26123-.41016Z" fill="#2f2f2f"/>
        <path d="M144.9375,35.2h-2.15332v-3.97852c0-1.02539-.37354-1.53809-1.12109-1.53809-.38281,0-.69287.14355-.92969.43066s-.35547.65234-.35547,1.09375v3.99219h-2.16016v-10.36328h2.16016v4.40234h.02734c.52881-.80664,1.24658-1.20996,2.15332-1.20996,1.58594,0,2.37891.95703,2.37891,2.87109v4.2998Z" fill="#2f2f2f"/>
        <path d="M152.50293,35.2h-2.04395v-1.00488h-.02734c-.46924.78418-1.16455,1.17578-2.08496,1.17578-.6792,0-1.21338-.19238-1.60303-.57715-.38965-.38574-.58447-.89941-.58447-1.54199,0-1.35742.8042-2.1416,2.41309-2.35156l1.90039-.25293c0-.76562-.41455-1.14844-1.24414-1.14844-.83398,0-1.62695.24902-2.37891.74512v-1.62695c.30078-.1543.71191-.29102,1.23389-.41016.52197-.11816.99707-.17773,1.42529-.17773,1.99609,0,2.99414.99609,2.99414,2.9873v4.18359ZM150.47266,32.35625v-.47168l-1.27148.16406c-.70166.0918-1.05273.4082-1.05273.9502,0,.24609.08545.44824.25635.60547s.40234.23535.69385.23535c.40576,0,.73584-.13965.99121-.41992s.38281-.63477.38281-1.06348Z" fill="#2f2f2f"/>
        <path d="M158.76562,30.14824c-.25977-.14062-.56299-.21191-.90918-.21191-.46924,0-.83643.17188-1.10059.5166-.26416.34375-.39648.8125-.39648,1.4043v3.34277h-2.16016v-7h2.16016v1.29883h.02734c.3418-.94727.95703-1.42188,1.8457-1.42188.22803,0,.40576.02734.5332.08203v1.98926Z" fill="#2f2f2f"/>
        <path d="M166.13818,32.31523h-4.56641c.07275,1.0166.71338,1.52441,1.9209,1.52441.77002,0,1.44678-.18164,2.03027-.54688v1.55859c-.64697.34668-1.48779.51953-2.52246.51953-1.13037,0-2.00732-.31348-2.63184-.93945-.62451-.62695-.93652-1.50098-.93652-2.62207,0-1.16211.3374-2.08203,1.01172-2.76172.67432-.67871,1.50391-1.01855,2.48828-1.01855,1.021,0,1.81055.30371,2.36865.90918.55811.60645.8374,1.42871.8374,2.46777v.90918ZM164.13525,30.98906c0-1.00195-.40576-1.50391-1.2168-1.50391-.34619,0-.646.14355-.89893.43066s-.40674.64551-.46143,1.07324h2.57715Z" fill="#2f2f2f"/>
        <path d="M174.38379,35.2h-2.16016v-.96387h-.02734c-.49219.75684-1.21436,1.13477-2.16699,1.13477-.875,0-1.5791-.30859-2.1123-.92578-.5332-.61816-.7998-1.48047-.7998-2.58789,0-1.15723.29395-2.08496.88184-2.78223s1.35791-1.0459,2.31055-1.0459c.90234,0,1.53125.32422,1.88672.9707h.02734v-4.16309h2.16016v10.36328ZM172.26465,31.7957v-.52637c0-.45508-.13232-.83398-.39648-1.13477s-.6084-.45117-1.03223-.45117c-.47852,0-.85205.18848-1.12109.56445s-.40332.8916-.40332,1.54785c0,.61523.12988,1.08984.38965,1.42188.25977.33301.61963.49902,1.08008.49902.4375,0,.79395-.1748,1.06982-.52637.27588-.35059.41357-.81543.41357-1.39453Z" fill="#2f2f2f"/>
        <path d="M186.92773,34.4002c0,1.29883-.37598,2.30469-1.12793,3.01855-.75195.71289-1.84131,1.06934-3.26758,1.06934-.94336,0-1.69092-.13379-2.24219-.40332v-1.81836c.72021.41992,1.44678.62891,2.18066.62891.729,0,1.29443-.19238,1.69531-.57715.40088-.38574.60156-.9082.60156-1.56934v-.55371h-.02734c-.49219.78418-1.21924,1.17578-2.18066,1.17578-.89307,0-1.60205-.31445-2.12598-.94336s-.78613-1.47168-.78613-2.5293c0-1.18457.2915-2.12598.875-2.82324s1.35107-1.0459,2.30371-1.0459c.85205,0,1.49023.32812,1.91406.98438h.02734v-.81348h2.16016v6.2002ZM184.79492,31.83672v-.55371c0-.44141-.13086-.81934-.39307-1.13086-.26221-.3125-.60254-.46875-1.02197-.46875-.47852,0-.85449.1875-1.12793.56055-.27344.37402-.41016.90039-.41016,1.5791,0,.58398.12988,1.04492.38965,1.38477.25977.33887.61523.50879,1.06641.50879.44678,0,.80762-.17188,1.0835-.51562.27588-.34473.41357-.79883.41357-1.36426Z" fill="#2f2f2f"/>
        <path d="M194.56885,35.2h-2.04395v-1.00488h-.02734c-.46924.78418-1.16455,1.17578-2.08496,1.17578-.6792,0-1.21338-.19238-1.60303-.57715-.38965-.38574-.58447-.89941-.58447-1.54199,0-1.35742.8042-2.1416,2.41309-2.35156l1.90039-.25293c0-.76562-.41455-1.14844-1.24414-1.14844-.83398,0-1.62695.24902-2.37891.74512v-1.62695c.30078-.1543.71191-.29102,1.23389-.41016.52197-.11816.99707-.17773,1.42529-.17773,1.99609,0,2.99414.99609,2.99414,2.9873v4.18359ZM192.53857,32.35625v-.47168l-1.27148.16406c-.70166.0918-1.05273.4082-1.05273.9502,0,.24609.08545.44824.25635.60547s.40234.23535.69385.23535c.40576,0,.73584-.13965.99121-.41992s.38281-.63477.38281-1.06348Z" fill="#2f2f2f"/>
        <path d="M200.39746,35.11797c-.31885.16895-.7998.25293-1.44238.25293-1.52197,0-2.2832-.79004-2.2832-2.37207v-3.20605h-1.13477v-1.59277h1.13477v-1.51074l2.15332-.61523v2.12598h1.57227v1.59277h-1.57227v2.83008c0,.72949.28955,1.09375.86816,1.09375.22803,0,.4624-.06543.7041-.19824v1.59961Z" fill="#2f2f2f"/>
        <path d="M207.88379,32.31523h-4.56641c.07275,1.0166.71338,1.52441,1.9209,1.52441.77002,0,1.44678-.18164,2.03027-.54688v1.55859c-.64697.34668-1.48779.51953-2.52246.51953-1.13037,0-2.00732-.31348-2.63184-.93945-.62451-.62695-.93652-1.50098-.93652-2.62207,0-1.16211.3374-2.08203,1.01172-2.76172.67432-.67871,1.50391-1.01855,2.48828-1.01855,1.021,0,1.81055.30371,2.36865.90918.55811.60645.8374,1.42871.8374,2.46777v.90918ZM205.88086,30.98906c0-1.00195-.40576-1.50391-1.2168-1.50391-.34619,0-.646.14355-.89893.43066s-.40674.64551-.46143,1.07324h2.57715Z" fill="#2f2f2f"/>
        <path d="M219.24756,28.2l-2.0166,7h-2.26953l-1.03223-4.10156c-.06836-.27344-.10693-.57129-.11621-.89551h-.04102c-.03174.35547-.07764.64551-.13672.86816l-1.10742,4.12891h-2.24219l-1.97559-7h2.20117l.96387,4.56641c.04541.21484.07959.47461.10254.7793h.04102c.02295-.31836.06396-.58789.12305-.80664l1.20312-4.53906h2.05762l1.08008,4.56641c.02734.11426.05908.37891.0957.79297h.04785c.02295-.26367.05908-.52832.10938-.79297l.90918-4.56641h2.00293Z" fill="#2f2f2f"/>
        <path d="M225.98535,35.2h-2.04395v-1.00488h-.02734c-.46924.78418-1.16455,1.17578-2.08496,1.17578-.6792,0-1.21338-.19238-1.60303-.57715-.38965-.38574-.58447-.89941-.58447-1.54199,0-1.35742.8042-2.1416,2.41309-2.35156l1.90039-.25293c0-.76562-.41455-1.14844-1.24414-1.14844-.83398,0-1.62695.24902-2.37891.74512v-1.62695c.30078-.1543.71191-.29102,1.23389-.41016.52197-.11816.99707-.17773,1.42529-.17773,1.99609,0,2.99414.99609,2.99414,2.9873v4.18359ZM223.95508,32.35625v-.47168l-1.27148.16406c-.70166.0918-1.05273.4082-1.05273.9502,0,.24609.08545.44824.25635.60547s.40234.23535.69385.23535c.40576,0,.73584-.13965.99121-.41992s.38281-.63477.38281-1.06348Z" fill="#2f2f2f"/>
        <path d="M234.11279,28.2l-2.84375,7.56055c-.68359,1.81836-1.71338,2.72754-3.08984,2.72754-.52393,0-.95459-.05859-1.29199-.17773v-1.72266c.28711.16895.59912.25293.93652.25293.55615,0,.94336-.26172,1.16211-.78613l.36914-.86816-2.84375-6.98633h2.39258l1.30566,4.25879c.08203.26465.146.57715.19141.93652h.02734c.04102-.26367.11621-.57129.22559-.92285l1.31934-4.27246h2.13965Z" fill="#2f2f2f"/>
      </g>
      <g>
        <path d="M57.99512,86.0667h-2.40625l-.69727-2.18066h-3.48633l-.69043,2.18066h-2.39258l3.56836-9.80273h2.61816l3.48633,9.80273ZM54.38574,82.19072l-1.05273-3.29492c-.07764-.24609-.13232-.54004-.16406-.88184h-.05469c-.02295.28711-.07959.57178-.1709.85449l-1.06641,3.32227h2.50879Z" fill="#2f2f2f"/>
        <path d="M64.90088,86.0667h-6.28223v-.89551l3.51367-4.51172h-3.16504v-1.59277h5.90625v1.06641l-3.3291,4.34082h3.35645v1.59277Z" fill="#2f2f2f"/>
        <path d="M72.78271,86.0667h-2.15332v-1.06641h-.03418c-.5332.82471-1.24658,1.2373-2.13965,1.2373-1.62256,0-2.43359-.98193-2.43359-2.94629v-4.22461h2.15332v4.0332c0,.98877.39209,1.4834,1.17578,1.4834.38721,0,.69727-.13574.92969-.40674s.34863-.63916.34863-1.104v-4.00586h2.15332v7Z" fill="#2f2f2f"/>
        <path d="M79.11719,81.01494c-.25977-.14111-.56299-.21191-.90918-.21191-.46924,0-.83643.17188-1.10059.51611s-.39648.8125-.39648,1.40479v3.34277h-2.16016v-7h2.16016v1.29883h.02734c.3418-.94775.95703-1.42188,1.8457-1.42188.22803,0,.40576.02734.5332.08203v1.98926Z" fill="#2f2f2f"/>
        <path d="M86.48975,83.18193h-4.56641c.07275,1.01611.71338,1.52441,1.9209,1.52441.77002,0,1.44678-.18213,2.03027-.54688v1.55859c-.64697.34619-1.48779.51953-2.52246.51953-1.13037,0-2.00732-.31348-2.63184-.93994s-.93652-1.50049-.93652-2.62158c0-1.16211.3374-2.08252,1.01172-2.76172s1.50391-1.01855,2.48828-1.01855c1.021,0,1.81055.30322,2.36865.90918s.8374,1.42871.8374,2.46777v.90918ZM84.48682,81.85576c0-1.00244-.40576-1.50391-1.2168-1.50391-.34619,0-.646.14355-.89893.43066s-.40674.64502-.46143,1.07324h2.57715Z" fill="#2f2f2f"/>
        <path d="M103.01904,86.0667h-2.18066v-5.86523c0-.6333.02734-1.33301.08203-2.09863h-.05469c-.11377.60156-.21631,1.03467-.30762,1.29883l-2.29688,6.66504h-1.80469l-2.33789-6.59668c-.06396-.17773-.1665-.6333-.30762-1.36719h-.06152c.05908.96631.08887,1.81396.08887,2.54297v5.4209h-1.98926v-9.80273h3.2334l2.00293,5.81055c.15967.46484.27588.93213.34863,1.40137h.04102c.12305-.54248.25293-1.01416.38965-1.41504l2.00293-5.79688h3.15137v9.80273Z" fill="#2f2f2f"/>
        <path d="M110.83887,86.0667h-2.04395v-1.00488h-.02734c-.46924.78369-1.16455,1.17578-2.08496,1.17578-.6792,0-1.21338-.19238-1.60303-.57764s-.58447-.89893-.58447-1.5415c0-1.35791.8042-2.14209,2.41309-2.35156l1.90039-.25293c0-.76562-.41455-1.14844-1.24414-1.14844-.83398,0-1.62695.24854-2.37891.74512v-1.62695c.30078-.15479.71191-.2915,1.23389-.41016s.99707-.17773,1.42529-.17773c1.99609,0,2.99414.99561,2.99414,2.9873v4.18359ZM108.80859,83.22295v-.47168l-1.27148.16406c-.70166.09131-1.05273.40771-1.05273.9502,0,.24609.08545.44775.25635.60498s.40234.23584.69385.23584c.40576,0,.73584-.14014.99121-.42041s.38281-.63477.38281-1.06299Z" fill="#2f2f2f"/>
        <path d="M119.2959,86.0667h-2.15332v-3.88965c0-1.08447-.38721-1.62695-1.16211-1.62695-.37354,0-.68115.14355-.92285.43066s-.3623.65186-.3623,1.09375v3.99219h-2.16016v-7h2.16016v1.10742h.02734c.51514-.85205,1.26465-1.27832,2.24902-1.27832,1.54932,0,2.32422.96143,2.32422,2.88477v4.28613Z" fill="#2f2f2f"/>
        <path d="M126.86133,86.0667h-2.04395v-1.00488h-.02734c-.46924.78369-1.16455,1.17578-2.08496,1.17578-.6792,0-1.21338-.19238-1.60303-.57764s-.58447-.89893-.58447-1.5415c0-1.35791.8042-2.14209,2.41309-2.35156l1.90039-.25293c0-.76562-.41455-1.14844-1.24414-1.14844-.83398,0-1.62695.24854-2.37891.74512v-1.62695c.30078-.15479.71191-.2915,1.23389-.41016s.99707-.17773,1.42529-.17773c1.99609,0,2.99414.99561,2.99414,2.9873v4.18359ZM124.83105,83.22295v-.47168l-1.27148.16406c-.70166.09131-1.05273.40771-1.05273.9502,0,.24609.08545.44775.25635.60498s.40234.23584.69385.23584c.40576,0,.73584-.14014.99121-.42041s.38281-.63477.38281-1.06299Z" fill="#2f2f2f"/>
        <path d="M135.45605,85.26689c0,1.29883-.37598,2.30469-1.12793,3.01807s-1.84131,1.06982-3.26758,1.06982c-.94336,0-1.69092-.13428-2.24219-.40332v-1.81836c.72021.41943,1.44678.62891,2.18066.62891.729,0,1.29443-.19238,1.69531-.57764s.60156-.9082.60156-1.56885v-.55371h-.02734c-.49219.78369-1.21924,1.17578-2.18066,1.17578-.89307,0-1.60205-.31445-2.12598-.94336s-.78613-1.47217-.78613-2.5293c0-1.18506.2915-2.12598.875-2.82324s1.35107-1.0459,2.30371-1.0459c.85205,0,1.49023.32812,1.91406.98438h.02734v-.81348h2.16016v6.2002ZM133.32324,82.70342v-.55371c0-.44189-.13086-.81934-.39307-1.13135s-.60254-.46826-1.02197-.46826c-.47852,0-.85449.18701-1.12793.56055s-.41016.8999-.41016,1.5791c0,.5835.12988,1.04492.38965,1.38428s.61523.50928,1.06641.50928c.44678,0,.80762-.17188,1.0835-.51611s.41357-.79883.41357-1.36377Z" fill="#2f2f2f"/>
        <path d="M143.5498,83.18193h-4.56641c.07275,1.01611.71338,1.52441,1.9209,1.52441.77002,0,1.44678-.18213,2.03027-.54688v1.55859c-.64697.34619-1.48779.51953-2.52246.51953-1.13037,0-2.00732-.31348-2.63184-.93994s-.93652-1.50049-.93652-2.62158c0-1.16211.3374-2.08252,1.01172-2.76172s1.50391-1.01855,2.48828-1.01855c1.021,0,1.81055.30322,2.36865.90918s.8374,1.42871.8374,2.46777v.90918ZM141.54688,81.85576c0-1.00244-.40576-1.50391-1.2168-1.50391-.34619,0-.646.14355-.89893.43066s-.40674.64502-.46143,1.07324h2.57715Z" fill="#2f2f2f"/>
        <path d="M151.79492,86.0667h-2.16016v-.96387h-.02734c-.49219.75635-1.21436,1.13477-2.16699,1.13477-.875,0-1.5791-.30859-2.1123-.92627s-.7998-1.47998-.7998-2.5874c0-1.15771.29395-2.08496.88184-2.78223s1.35791-1.0459,2.31055-1.0459c.90234,0,1.53125.32373,1.88672.9707h.02734v-4.16309h2.16016v10.36328ZM149.67578,82.6624v-.52637c0-.45557-.13232-.83398-.39648-1.13477s-.6084-.45117-1.03223-.45117c-.47852,0-.85205.18799-1.12109.56396s-.40332.89209-.40332,1.54834c0,.61523.12988,1.08936.38965,1.42188s.61963.49902,1.08008.49902c.4375,0,.79395-.17529,1.06982-.52637s.41357-.81592.41357-1.39453Z" fill="#2f2f2f"/>
        <path d="M165.7334,85.41045c-.95703.55127-2.14648.82715-3.56836.82715-1.57666,0-2.81982-.43652-3.729-1.30908s-1.36377-2.07471-1.36377-3.60596c0-1.54053.49658-2.7959,1.49023-3.7666s2.31494-1.45605,3.96484-1.45605c1.03906,0,1.95508.14355,2.74805.43066v2.07129c-.75635-.4375-1.68164-.65625-2.77539-.65625-.91602,0-1.66211.29736-2.23877.89209s-.86475,1.38867-.86475,2.38232c0,1.00732.25879,1.78662.77588,2.33789s1.21582.82715,2.09521.82715c.52881,0,.94775-.0752,1.25781-.22559v-1.91406h-1.96191v-1.76367h4.16992v4.92871Z" fill="#2f2f2f"/>
        <path d="M172.0625,81.01494c-.25977-.14111-.56299-.21191-.90918-.21191-.46924,0-.83643.17188-1.10059.51611s-.39648.8125-.39648,1.40479v3.34277h-2.16016v-7h2.16016v1.29883h.02734c.3418-.94775.95703-1.42188,1.8457-1.42188.22803,0,.40576.02734.5332.08203v1.98926Z" fill="#2f2f2f"/>
        <path d="M178.78662,86.0667h-2.04395v-1.00488h-.02734c-.46924.78369-1.16455,1.17578-2.08496,1.17578-.6792,0-1.21338-.19238-1.60303-.57764s-.58447-.89893-.58447-1.5415c0-1.35791.8042-2.14209,2.41309-2.35156l1.90039-.25293c0-.76562-.41455-1.14844-1.24414-1.14844-.83398,0-1.62695.24854-2.37891.74512v-1.62695c.30078-.15479.71191-.2915,1.23389-.41016s.99707-.17773,1.42529-.17773c1.99609,0,2.99414.99561,2.99414,2.9873v4.18359ZM176.75635,83.22295v-.47168l-1.27148.16406c-.70166.09131-1.05273.40771-1.05273.9502,0,.24609.08545.44775.25635.60498s.40234.23584.69385.23584c.40576,0,.73584-.14014.99121-.42041s.38281-.63477.38281-1.06299Z" fill="#2f2f2f"/>
        <path d="M184.94287,77.35771c-.27783-.10938-.54443-.16406-.7998-.16406-.69287,0-1.03906.37598-1.03906,1.12793v.74512h1.59961v1.59277h-1.59961v5.40723h-2.15332v-5.40723h-1.17578v-1.59277h1.17578v-.86816c0-.79736.25977-1.43994.7793-1.92773s1.22607-.73145,2.11914-.73145c.4375,0,.80225.04541,1.09375.13672v1.68164Z" fill="#2f2f2f"/>
        <path d="M191.44775,86.0667h-2.04395v-1.00488h-.02734c-.46924.78369-1.16455,1.17578-2.08496,1.17578-.6792,0-1.21338-.19238-1.60303-.57764s-.58447-.89893-.58447-1.5415c0-1.35791.8042-2.14209,2.41309-2.35156l1.90039-.25293c0-.76562-.41455-1.14844-1.24414-1.14844-.83398,0-1.62695.24854-2.37891.74512v-1.62695c.30078-.15479.71191-.2915,1.23389-.41016s.99707-.17773,1.42529-.17773c1.99609,0,2.99414.99561,2.99414,2.9873v4.18359ZM189.41748,83.22295v-.47168l-1.27148.16406c-.70166.09131-1.05273.40771-1.05273.9502,0,.24609.08545.44775.25635.60498s.40234.23584.69385.23584c.40576,0,.73584-.14014.99121-.42041s.38281-.63477.38281-1.06299Z" fill="#2f2f2f"/>
        <path d="M199.90479,86.0667h-2.15332v-3.88965c0-1.08447-.38721-1.62695-1.16211-1.62695-.37354,0-.68115.14355-.92285.43066s-.3623.65186-.3623,1.09375v3.99219h-2.16016v-7h2.16016v1.10742h.02734c.51514-.85205,1.26465-1.27832,2.24902-1.27832,1.54932,0,2.32422.96143,2.32422,2.88477v4.28613Z" fill="#2f2f2f"/>
        <path d="M207.47021,86.0667h-2.04395v-1.00488h-.02734c-.46924.78369-1.16455,1.17578-2.08496,1.17578-.6792,0-1.21338-.19238-1.60303-.57764s-.58447-.89893-.58447-1.5415c0-1.35791.8042-2.14209,2.41309-2.35156l1.90039-.25293c0-.76562-.41455-1.14844-1.24414-1.14844-.83398,0-1.62695.24854-2.37891.74512v-1.62695c.30078-.15479.71191-.2915,1.23389-.41016s.99707-.17773,1.42529-.17773c1.99609,0,2.99414.99561,2.99414,2.9873v4.18359ZM205.43994,83.22295v-.47168l-1.27148.16406c-.70166.09131-1.05273.40771-1.05273.9502,0,.24609.08545.44775.25635.60498s.40234.23584.69385.23584c.40576,0,.73584-.14014.99121-.42041s.38281-.63477.38281-1.06299Z" fill="#2f2f2f"/>
        <path d="M223.1792,79.0667l-2.0166,7h-2.26953l-1.03223-4.10156c-.06836-.27344-.10693-.57178-.11621-.89551h-.04102c-.03174.35547-.07764.64502-.13672.86816l-1.10742,4.12891h-2.24219l-1.97559-7h2.20117l.96387,4.56641c.04541.21436.07959.47412.10254.7793h.04102c.02295-.31885.06396-.58789.12305-.80664l1.20312-4.53906h2.05762l1.08008,4.56641c.02734.11377.05908.37842.0957.79297h.04785c.02295-.26416.05908-.52881.10938-.79297l.90918-4.56641h2.00293Z" fill="#2f2f2f"/>
        <path d="M227.37256,86.2376c-1.1665,0-2.08398-.32715-2.75146-.98096s-1.00146-1.5415-1.00146-2.6626c0-1.15771.34619-2.06348,1.03906-2.71729s1.62939-.98096,2.80957-.98096c1.16211,0,2.07373.32715,2.73438.98096s.99121,1.51855.99121,2.59424c0,1.16211-.34082,2.08057-1.02197,2.75488s-1.61426,1.01172-2.79932,1.01172ZM227.42725,80.5501c-.51025,0-.90674.17529-1.18945.52637s-.42383.84766-.42383,1.49023c0,1.34424.54248,2.0166,1.62695,2.0166,1.03467,0,1.55176-.69043,1.55176-2.07129,0-1.30811-.52197-1.96191-1.56543-1.96191Z" fill="#2f2f2f"/>
        <path d="M237.14062,81.01494c-.25977-.14111-.56299-.21191-.90918-.21191-.46924,0-.83643.17188-1.10059.51611s-.39648.8125-.39648,1.40479v3.34277h-2.16016v-7h2.16016v1.29883h.02734c.3418-.94775.95703-1.42188,1.8457-1.42188.22803,0,.40576.02734.5332.08203v1.98926Z" fill="#2f2f2f"/>
        <path d="M245.14551,86.0667h-2.59082l-2.23535-3.47266h-.02734v3.47266h-2.16016v-10.36328h2.16016v6.59668h.02734l2.08496-3.2334h2.56348l-2.50879,3.28809,2.68652,3.71191Z" fill="#2f2f2f"/>
        <path d="M245.80322,85.88213v-1.75c.35547.21436.70996.37354,1.06299.47852s.68701.15723,1.00146.15723c.38281,0,.68457-.05225.90576-.15723s.33154-.26416.33154-.47852c0-.13672-.05029-.25049-.15039-.3418s-.229-.1709-.38623-.23926-.3291-.12988-.51611-.18457-.3667-.11621-.54004-.18457c-.27783-.10498-.52295-.21777-.73486-.33838s-.38965-.26074-.5332-.42041-.25293-.34424-.32812-.55371-.11279-.45801-.11279-.74512c0-.39209.08545-.729.25635-1.01172s.39893-.51367.68359-.69385.61084-.31201.97754-.39648.74854-.12646,1.14502-.12646c.31006,0,.62451.02393.94336.07178s.6333.11719.94336.2085v1.66797c-.27344-.15967-.56641-.2793-.87842-.35889s-.61865-.11963-.91943-.11963c-.14111,0-.27441.0127-.3999.0376s-.23584.06152-.33154.10938-.1709.10938-.22559.18457-.08203.16064-.08203.25635c0,.12744.04102.23682.12305.32812s.18896.16992.32129.23584.2793.12549.44092.17773.32227.10596.48193.16064c.28711.1001.54688.20947.7793.32812s.43164.25732.59814.41699.29395.34619.38281.56055.1333.46924.1333.76562c0,.41455-.08984.76904-.27002,1.06299s-.41943.5332-.71777.71777-.64258.31885-1.03223.40332-.79395.12646-1.21338.12646c-.77002,0-1.4834-.11865-2.13965-.35547Z" fill="#2f2f2f"/>
        <path d="M254.6665,85.25322h-.02734v4.0332h-2.16016v-10.21973h2.16016v1.05273h.02734c.5332-.81592,1.28271-1.22363,2.24902-1.22363.90674,0,1.60742.31104,2.10205.93311s.7417,1.46875.7417,2.53955c0,1.1665-.28809,2.10303-.86475,2.80957s-1.34326,1.05957-2.30029,1.05957c-.84326,0-1.48584-.32812-1.92773-.98438ZM254.60498,82.38213v.56055c0,.48291.12744.87744.38281,1.18262s.59033.45801,1.00488.45801c.49219,0,.87402-.19043,1.14502-.5708s.40674-.91943.40674-1.6167c0-1.23047-.47852-1.8457-1.43555-1.8457-.44189,0-.80322.16748-1.0835.50244s-.42041.77832-.42041,1.32959Z" fill="#2f2f2f"/>
        <path d="M266.99219,86.0667h-2.04395v-1.00488h-.02734c-.46924.78369-1.16455,1.17578-2.08496,1.17578-.6792,0-1.21338-.19238-1.60303-.57764s-.58447-.89893-.58447-1.5415c0-1.35791.8042-2.14209,2.41309-2.35156l1.90039-.25293c0-.76562-.41455-1.14844-1.24414-1.14844-.83398,0-1.62695.24854-2.37891.74512v-1.62695c.30078-.15479.71191-.2915,1.23389-.41016s.99707-.17773,1.42529-.17773c1.99609,0,2.99414.99561,2.99414,2.9873v4.18359ZM264.96191,83.22295v-.47168l-1.27148.16406c-.70166.09131-1.05273.40771-1.05273.9502,0,.24609.08545.44775.25635.60498s.40234.23584.69385.23584c.40576,0,.73584-.14014.99121-.42041s.38281-.63477.38281-1.06299Z" fill="#2f2f2f"/>
        <path d="M274.00586,85.81377c-.48779.28271-1.19189.42383-2.1123.42383-1.07568,0-1.9458-.32568-2.61133-.97754s-.99805-1.49268-.99805-2.52246c0-1.18945.35645-2.12695,1.06982-2.81299s1.66699-1.02881,2.86084-1.02881c.82471,0,1.42188.10938,1.79102.32812v1.83203c-.45117-.3374-.95459-.50586-1.51074-.50586-.61963,0-1.11084.18115-1.47314.54346s-.54346.8623-.54346,1.50049c0,.61963.17334,1.10645.51953,1.45947s.82275.52979,1.42871.52979c.5376,0,1.06396-.16846,1.5791-.50586v1.73633Z" fill="#2f2f2f"/>
        <path d="M281.72119,83.18193h-4.56641c.07275,1.01611.71338,1.52441,1.9209,1.52441.77002,0,1.44678-.18213,2.03027-.54688v1.55859c-.64697.34619-1.48779.51953-2.52246.51953-1.13037,0-2.00732-.31348-2.63184-.93994s-.93652-1.50049-.93652-2.62158c0-1.16211.3374-2.08252,1.01172-2.76172s1.50391-1.01855,2.48828-1.01855c1.021,0,1.81055.30322,2.36865.90918s.8374,1.42871.8374,2.46777v.90918ZM279.71826,81.85576c0-1.00244-.40576-1.50391-1.2168-1.50391-.34619,0-.646.14355-.89893.43066s-.40674.64502-.46143,1.07324h2.57715Z" fill="#2f2f2f"/>
      </g>
      <g>
        <path d="M144.625,131.9998h-5.08594v-9.80273h1.14844v8.76367h3.9375v1.03906Z" fill="#2f2f2f"/>
        <path d="M148.81055,132.16387c-1.03467,0-1.86035-.32715-2.47803-.98096s-.92627-1.521-.92627-2.60107c0-1.17578.32129-2.09424.96387-2.75488s1.51074-.99121,2.60449-.99121c1.04346,0,1.8584.32129,2.44385.96387s.87842,1.53369.87842,2.67285c0,1.1167-.31543,2.01074-.94678,2.68311s-1.47754,1.0083-2.53955,1.0083ZM148.89258,125.7791c-.72021,0-1.28955.24512-1.70898.73486s-.62891,1.16553-.62891,2.02686c0,.82959.21191,1.4834.63574,1.96191s.99121.71777,1.70215.71777c.72461,0,1.28174-.23486,1.67139-.7041s.58447-1.13721.58447-2.00293c0-.875-.19482-1.54932-.58447-2.02344s-.94678-.71094-1.67139-.71094Z" fill="#2f2f2f"/>
        <path d="M159.04541,131.9998h-1.12109v-1.09375h-.02734c-.48779.83838-1.20557,1.25781-2.15332,1.25781-.69727,0-1.24316-.18457-1.63721-.55371s-.59131-.85889-.59131-1.46973c0-1.30811.77002-2.06885,2.31055-2.2832l2.09863-.29395c0-1.18945-.48096-1.78418-1.44238-1.78418-.84326,0-1.604.28711-2.2832.86133v-1.14844c.68799-.4375,1.48096-.65625,2.37891-.65625,1.64502,0,2.46777.87061,2.46777,2.61133v4.55273ZM157.92432,128.45879l-1.68848.23242c-.51953.07275-.91162.20166-1.17578.38623s-.39648.51172-.39648.98096c0,.3418.12207.62109.36572.8374s.56836.32471.97412.32471c.55615,0,1.01514-.19482,1.37744-.58447s.54346-.88281.54346-1.47998v-.69727Z" fill="#2f2f2f"/>
        <path d="M167.11426,131.9998h-1.12109v-1.18945h-.02734c-.51953.90234-1.32178,1.35352-2.40625,1.35352-.87939,0-1.58252-.31348-2.10889-.93994s-.78955-1.47998-.78955-2.56006c0-1.15771.2915-2.08496.875-2.78223s1.36035-1.0459,2.33105-1.0459c.96143,0,1.66113.37842,2.09863,1.13477h.02734v-4.33398h1.12109v10.36328ZM165.99316,128.83477v-1.03223c0-.56494-.18701-1.04346-.56055-1.43555s-.84766-.58789-1.42188-.58789c-.68359,0-1.22119.25049-1.61328.75195s-.58789,1.19385-.58789,2.07812c0,.80664.18799,1.44336.56396,1.91064s.88086.70068,1.51416.70068c.62451,0,1.13135-.22559,1.521-.67676s.58447-1.021.58447-1.70898Z" fill="#2f2f2f"/>
        <path d="M174.36719,130.98809h-.02734v1.01172h-1.12109v-10.36328h1.12109v4.59375h.02734c.55127-.92969,1.35791-1.39453,2.41992-1.39453.89795,0,1.60059.31348,2.10889.93994s.76221,1.46631.76221,2.51904c0,1.17139-.28467,2.10889-.85449,2.81299s-1.34912,1.05615-2.33789,1.05615c-.92529,0-1.62451-.39209-2.09863-1.17578ZM174.33984,128.16484v.97754c0,.57861.18799,1.06982.56396,1.47314s.85352.60498,1.43213.60498c.6792,0,1.21094-.25977,1.59619-.7793s.57764-1.2417.57764-2.16699c0-.7793-.18018-1.39014-.54004-1.83203s-.84766-.66309-1.46289-.66309c-.65186,0-1.17578.22656-1.57227.68018s-.59473,1.02197-.59473,1.70557Z" fill="#2f2f2f"/>
        <path d="M186.39404,131.9998h-1.12109v-1.09375h-.02734c-.48779.83838-1.20557,1.25781-2.15332,1.25781-.69727,0-1.24316-.18457-1.63721-.55371s-.59131-.85889-.59131-1.46973c0-1.30811.77002-2.06885,2.31055-2.2832l2.09863-.29395c0-1.18945-.48096-1.78418-1.44238-1.78418-.84326,0-1.604.28711-2.2832.86133v-1.14844c.68799-.4375,1.48096-.65625,2.37891-.65625,1.64502,0,2.46777.87061,2.46777,2.61133v4.55273ZM185.27295,128.45879l-1.68848.23242c-.51953.07275-.91162.20166-1.17578.38623s-.39648.51172-.39648.98096c0,.3418.12207.62109.36572.8374s.56836.32471.97412.32471c.55615,0,1.01514-.19482,1.37744-.58447s.54346-.88281.54346-1.47998v-.69727Z" fill="#2f2f2f"/>
        <path d="M189.53516,131.9998h-1.12109v-10.36328h1.12109v10.36328Z" fill="#2f2f2f"/>
        <path d="M196.68945,131.9998h-1.12109v-1.09375h-.02734c-.48779.83838-1.20557,1.25781-2.15332,1.25781-.69727,0-1.24316-.18457-1.63721-.55371s-.59131-.85889-.59131-1.46973c0-1.30811.77002-2.06885,2.31055-2.2832l2.09863-.29395c0-1.18945-.48096-1.78418-1.44238-1.78418-.84326,0-1.604.28711-2.2832.86133v-1.14844c.68799-.4375,1.48096-.65625,2.37891-.65625,1.64502,0,2.46777.87061,2.46777,2.61133v4.55273ZM195.56836,128.45879l-1.68848.23242c-.51953.07275-.91162.20166-1.17578.38623s-.39648.51172-.39648.98096c0,.3418.12207.62109.36572.8374s.56836.32471.97412.32471c.55615,0,1.01514-.19482,1.37744-.58447s.54346-.88281.54346-1.47998v-.69727Z" fill="#2f2f2f"/>
        <path d="M204.521,131.9998h-1.12109v-3.99219c0-1.48584-.54248-2.22852-1.62695-2.22852-.56055,0-1.02441.21094-1.39111.63232s-.55029.95361-.55029,1.59619v3.99219h-1.12109v-7h1.12109v1.16211h.02734c.52881-.88428,1.29443-1.32617,2.29688-1.32617.76562,0,1.35107.24707,1.75684.7417s.6084,1.20898.6084,2.14307v4.2793Z" fill="#2f2f2f"/>
        <path d="M211.37012,131.67852c-.5376.32373-1.17578.48535-1.91406.48535-.99805,0-1.80371-.32471-2.4165-.97412s-.91943-1.49121-.91943-2.52588c0-1.15283.33057-2.0791.99121-2.77881s1.54248-1.04932,2.64551-1.04932c.61523,0,1.15771.11377,1.62695.3418v1.14844c-.51953-.36475-1.07568-.54688-1.66797-.54688-.71533,0-1.30225.25635-1.76025.76904s-.68701,1.18604-.68701,2.02002c0,.82031.21533,1.46729.646,1.94141s1.0083.71094,1.73291.71094c.61084,0,1.18506-.20264,1.72266-.6084v1.06641Z" fill="#2f2f2f"/>
        <path d="M218.54004,128.78008h-4.94238c.01807.7793.22803,1.38086.62891,1.80469s.95264.63574,1.6543.63574c.78857,0,1.51318-.25977,2.17383-.7793v1.05273c-.61523.44678-1.42871.66992-2.44043.66992-.98877,0-1.76611-.31787-2.33105-.95361s-.84766-1.53027-.84766-2.68311c0-1.08936.30859-1.97656.92627-2.6626s1.38428-1.02881,2.30029-1.02881,1.62451.29639,2.12598.88867.75195,1.41504.75195,2.46777v.58789ZM217.3916,127.82988c-.00439-.64697-.16064-1.15088-.46826-1.51074s-.73486-.54004-1.28174-.54004c-.52881,0-.97754.18896-1.34668.56738s-.59717.87256-.68359,1.4834h3.78027Z" fill="#2f2f2f"/>
        <path d="M223.87305,126.13457c-.1958-.15039-.47852-.22559-.84766-.22559-.47852,0-.87842.22559-1.19971.67676s-.48193,1.06641-.48193,1.8457v3.56836h-1.12109v-7h1.12109v1.44238h.02734c.15967-.49219.40332-.87598.73145-1.15186s.69482-.41357,1.10059-.41357c.2915,0,.51514.03174.66992.0957v1.16211Z" fill="#2f2f2f"/>
      </g>
      <g>
        <path d="M204.87549,222.42119c-.98438.55615-2.07812.83398-3.28125.83398-1.39893,0-2.53027-.45117-3.39404-1.35352s-1.29541-2.09619-1.29541-3.58203c0-1.51758.47949-2.7627,1.43896-3.73584s2.1748-1.45947,3.64697-1.45947c1.06641,0,1.96191.17334,2.68652.51953v1.27148c-.79297-.50146-1.73193-.75195-2.81641-.75195-1.09814,0-1.99854.37842-2.7002,1.13477s-1.05273,1.73633-1.05273,2.93945c0,1.23975.32568,2.21387.97754,2.92236s1.53564,1.06299,2.65234,1.06299c.76562,0,1.42871-.15283,1.98926-.45801v-2.74805h-2.14648v-1.03906h3.29492v4.44336Z" fill="#2f2f2f"/>
        <path d="M210.60986,217.22588c-.1958-.15039-.47852-.22559-.84766-.22559-.47852,0-.87842.22559-1.19971.67676s-.48193,1.06641-.48193,1.8457v3.56836h-1.12109v-7h1.12109v1.44238h.02734c.15967-.49219.40332-.87598.73145-1.15186s.69482-.41357,1.10059-.41357c.2915,0,.51514.03174.66992.0957v1.16211Z" fill="#2f2f2f"/>
        <path d="M216.78564,223.09111h-1.12109v-1.09375h-.02734c-.48779.83838-1.20557,1.25781-2.15332,1.25781-.69727,0-1.24316-.18457-1.63721-.55371s-.59131-.85889-.59131-1.46973c0-1.30811.77002-2.06885,2.31055-2.2832l2.09863-.29395c0-1.18945-.48096-1.78418-1.44238-1.78418-.84326,0-1.604.28711-2.2832.86133v-1.14844c.68799-.4375,1.48096-.65625,2.37891-.65625,1.64502,0,2.46777.87061,2.46777,2.61133v4.55273ZM215.66455,219.5501l-1.68848.23242c-.51953.07275-.91162.20166-1.17578.38623s-.39648.51172-.39648.98096c0,.3418.12207.62109.36572.8374s.56836.32471.97412.32471c.55615,0,1.01514-.19482,1.37744-.58447s.54346-.88281.54346-1.47998v-.69727Z" fill="#2f2f2f"/>
        <path d="M222.22119,213.71221c-.21875-.12305-.46729-.18457-.74512-.18457-.78369,0-1.17578.49463-1.17578,1.4834v1.08008h1.64062v.95703h-1.64062v6.04297h-1.11426v-6.04297h-1.19629v-.95703h1.19629v-1.13477c0-.73389.21191-1.31348.63574-1.73975s.95264-.63916,1.58594-.63916c.3418,0,.61279.04102.81348.12305v1.01172Z" fill="#2f2f2f"/>
        <path d="M228.11572,223.09111h-1.12109v-1.09375h-.02734c-.48779.83838-1.20557,1.25781-2.15332,1.25781-.69727,0-1.24316-.18457-1.63721-.55371s-.59131-.85889-.59131-1.46973c0-1.30811.77002-2.06885,2.31055-2.2832l2.09863-.29395c0-1.18945-.48096-1.78418-1.44238-1.78418-.84326,0-1.604.28711-2.2832.86133v-1.14844c.68799-.4375,1.48096-.65625,2.37891-.65625,1.64502,0,2.46777.87061,2.46777,2.61133v4.55273ZM226.99463,219.5501l-1.68848.23242c-.51953.07275-.91162.20166-1.17578.38623s-.39648.51172-.39648.98096c0,.3418.12207.62109.36572.8374s.56836.32471.97412.32471c.55615,0,1.01514-.19482,1.37744-.58447s.54346-.88281.54346-1.47998v-.69727Z" fill="#2f2f2f"/>
        <path d="M235.94727,223.09111h-1.12109v-3.99219c0-1.48584-.54248-2.22852-1.62695-2.22852-.56055,0-1.02441.21094-1.39111.63232s-.55029.95361-.55029,1.59619v3.99219h-1.12109v-7h1.12109v1.16211h.02734c.52881-.88428,1.29443-1.32617,2.29688-1.32617.76562,0,1.35107.24707,1.75684.7417s.6084,1.20898.6084,2.14307v4.2793Z" fill="#2f2f2f"/>
        <path d="M242.97949,223.09111h-1.12109v-1.09375h-.02734c-.48779.83838-1.20557,1.25781-2.15332,1.25781-.69727,0-1.24316-.18457-1.63721-.55371s-.59131-.85889-.59131-1.46973c0-1.30811.77002-2.06885,2.31055-2.2832l2.09863-.29395c0-1.18945-.48096-1.78418-1.44238-1.78418-.84326,0-1.604.28711-2.2832.86133v-1.14844c.68799-.4375,1.48096-.65625,2.37891-.65625,1.64502,0,2.46777.87061,2.46777,2.61133v4.55273ZM241.8584,219.5501l-1.68848.23242c-.51953.07275-.91162.20166-1.17578.38623s-.39648.51172-.39648.98096c0,.3418.12207.62109.36572.8374s.56836.32471.97412.32471c.55615,0,1.01514-.19482,1.37744-.58447s.54346-.88281.54346-1.47998v-.69727Z" fill="#2f2f2f"/>
        <path d="M248.50293,222.83818v-1.20312c.61084.45117,1.28271.67676,2.0166.67676.98438,0,1.47656-.32812,1.47656-.98438,0-.18701-.04199-.34521-.12646-.4751s-.19824-.24512-.3418-.34521-.31201-.19043-.50586-.27002-.40234-.16309-.62549-.24951c-.31006-.12305-.58203-.24707-.81689-.37256s-.43066-.2666-.58789-.42383-.27588-.33594-.35547-.53662-.11963-.43506-.11963-.7041c0-.32812.0752-.61865.22559-.87158s.35107-.46484.60156-.63574.53662-.2998.85791-.38623.65283-.12988.99463-.12988c.60596,0,1.14844.10498,1.62695.31445v1.13477c-.51514-.3374-1.10742-.50586-1.77734-.50586-.20947,0-.39893.02393-.56738.07178s-.31348.11523-.43408.20166-.21436.19043-.28027.31104-.09912.25391-.09912.3999c0,.18213.0332.33496.09912.45801s.16309.23242.29053.32812.28271.18213.46484.25977.38965.16162.62207.25293c.31006.11865.58789.24023.83398.36572s.45557.2666.62891.42383.30664.33838.3999.54346.14014.44873.14014.73145c0,.34619-.07617.64697-.229.90234s-.35645.46729-.61182.63574-.54932.29395-.88184.37598-.68115.12305-1.0459.12305c-.72021,0-1.34424-.13916-1.87305-.41699Z" fill="#2f2f2f"/>
        <path d="M260.45801,219.87139h-4.94238c.01807.7793.22803,1.38086.62891,1.80469s.95264.63574,1.6543.63574c.78857,0,1.51318-.25977,2.17383-.7793v1.05273c-.61523.44678-1.42871.66992-2.44043.66992-.98877,0-1.76611-.31787-2.33105-.95361s-.84766-1.53027-.84766-2.68311c0-1.08936.30859-1.97656.92627-2.6626s1.38428-1.02881,2.30029-1.02881,1.62451.29639,2.12598.88867.75195,1.41504.75195,2.46777v.58789ZM259.30957,218.92119c-.00439-.64697-.16064-1.15088-.46826-1.51074s-.73486-.54004-1.28174-.54004c-.52881,0-.97754.18896-1.34668.56738s-.59717.87256-.68359,1.4834h3.78027Z" fill="#2f2f2f"/>
        <path d="M265.79102,217.22588c-.1958-.15039-.47852-.22559-.84766-.22559-.47852,0-.87842.22559-1.19971.67676s-.48193,1.06641-.48193,1.8457v3.56836h-1.12109v-7h1.12109v1.44238h.02734c.15967-.49219.40332-.87598.73145-1.15186s.69482-.41357,1.10059-.41357c.2915,0,.51514.03174.66992.0957v1.16211Z" fill="#2f2f2f"/>
        <path d="M273.06396,216.09111l-2.78906,7h-1.10059l-2.65234-7h1.23047l1.77734,5.08594c.13232.37354.21436.69971.24609.97754h.02734c.04541-.35107.11865-.66748.21875-.9502l1.85938-5.11328h1.18262Z" fill="#2f2f2f"/>
        <path d="M279.70557,219.87139h-4.94238c.01807.7793.22803,1.38086.62891,1.80469s.95264.63574,1.6543.63574c.78857,0,1.51318-.25977,2.17383-.7793v1.05273c-.61523.44678-1.42871.66992-2.44043.66992-.98877,0-1.76611-.31787-2.33105-.95361s-.84766-1.53027-.84766-2.68311c0-1.08936.30859-1.97656.92627-2.6626s1.38428-1.02881,2.30029-1.02881,1.62451.29639,2.12598.88867.75195,1.41504.75195,2.46777v.58789ZM278.55713,218.92119c-.00439-.64697-.16064-1.15088-.46826-1.51074s-.73486-.54004-1.28174-.54004c-.52881,0-.97754.18896-1.34668.56738s-.59717.87256-.68359,1.4834h3.78027Z" fill="#2f2f2f"/>
        <path d="M285.03857,217.22588c-.1958-.15039-.47852-.22559-.84766-.22559-.47852,0-.87842.22559-1.19971.67676s-.48193,1.06641-.48193,1.8457v3.56836h-1.12109v-7h1.12109v1.44238h.02734c.15967-.49219.40332-.87598.73145-1.15186s.69482-.41357,1.10059-.41357c.2915,0,.51514.03174.66992.0957v1.16211Z" fill="#2f2f2f"/>
      </g>
      <g>
        <path d="M56.58398,222.42119c-.98438.55615-2.07812.83398-3.28125.83398-1.39893,0-2.53027-.45117-3.39404-1.35352s-1.29541-2.09619-1.29541-3.58203c0-1.51758.47949-2.7627,1.43896-3.73584s2.1748-1.45947,3.64697-1.45947c1.06641,0,1.96191.17334,2.68652.51953v1.27148c-.79297-.50146-1.73193-.75195-2.81641-.75195-1.09814,0-1.99854.37842-2.7002,1.13477s-1.05273,1.73633-1.05273,2.93945c0,1.23975.32568,2.21387.97754,2.92236s1.53564,1.06299,2.65234,1.06299c.76562,0,1.42871-.15283,1.98926-.45801v-2.74805h-2.14648v-1.03906h3.29492v4.44336Z" fill="#2f2f2f"/>
        <path d="M62.31836,217.22588c-.1958-.15039-.47852-.22559-.84766-.22559-.47852,0-.87842.22559-1.19971.67676s-.48193,1.06641-.48193,1.8457v3.56836h-1.12109v-7h1.12109v1.44238h.02734c.15967-.49219.40332-.87598.73145-1.15186s.69482-.41357,1.10059-.41357c.2915,0,.51514.03174.66992.0957v1.16211Z" fill="#2f2f2f"/>
        <path d="M68.49414,223.09111h-1.12109v-1.09375h-.02734c-.48779.83838-1.20557,1.25781-2.15332,1.25781-.69727,0-1.24316-.18457-1.63721-.55371s-.59131-.85889-.59131-1.46973c0-1.30811.77002-2.06885,2.31055-2.2832l2.09863-.29395c0-1.18945-.48096-1.78418-1.44238-1.78418-.84326,0-1.604.28711-2.2832.86133v-1.14844c.68799-.4375,1.48096-.65625,2.37891-.65625,1.64502,0,2.46777.87061,2.46777,2.61133v4.55273ZM67.37305,219.5501l-1.68848.23242c-.51953.07275-.91162.20166-1.17578.38623s-.39648.51172-.39648.98096c0,.3418.12207.62109.36572.8374s.56836.32471.97412.32471c.55615,0,1.01514-.19482,1.37744-.58447s.54346-.88281.54346-1.47998v-.69727Z" fill="#2f2f2f"/>
        <path d="M73.92969,213.71221c-.21875-.12305-.46729-.18457-.74512-.18457-.78369,0-1.17578.49463-1.17578,1.4834v1.08008h1.64062v.95703h-1.64062v6.04297h-1.11426v-6.04297h-1.19629v-.95703h1.19629v-1.13477c0-.73389.21191-1.31348.63574-1.73975s.95264-.63916,1.58594-.63916c.3418,0,.61279.04102.81348.12305v1.01172Z" fill="#2f2f2f"/>
        <path d="M79.82422,223.09111h-1.12109v-1.09375h-.02734c-.48779.83838-1.20557,1.25781-2.15332,1.25781-.69727,0-1.24316-.18457-1.63721-.55371s-.59131-.85889-.59131-1.46973c0-1.30811.77002-2.06885,2.31055-2.2832l2.09863-.29395c0-1.18945-.48096-1.78418-1.44238-1.78418-.84326,0-1.604.28711-2.2832.86133v-1.14844c.68799-.4375,1.48096-.65625,2.37891-.65625,1.64502,0,2.46777.87061,2.46777,2.61133v4.55273ZM78.70312,219.5501l-1.68848.23242c-.51953.07275-.91162.20166-1.17578.38623s-.39648.51172-.39648.98096c0,.3418.12207.62109.36572.8374s.56836.32471.97412.32471c.55615,0,1.01514-.19482,1.37744-.58447s.54346-.88281.54346-1.47998v-.69727Z" fill="#2f2f2f"/>
        <path d="M87.65576,223.09111h-1.12109v-3.99219c0-1.48584-.54248-2.22852-1.62695-2.22852-.56055,0-1.02441.21094-1.39111.63232s-.55029.95361-.55029,1.59619v3.99219h-1.12109v-7h1.12109v1.16211h.02734c.52881-.88428,1.29443-1.32617,2.29688-1.32617.76562,0,1.35107.24707,1.75684.7417s.6084,1.20898.6084,2.14307v4.2793Z" fill="#2f2f2f"/>
        <path d="M94.68799,223.09111h-1.12109v-1.09375h-.02734c-.48779.83838-1.20557,1.25781-2.15332,1.25781-.69727,0-1.24316-.18457-1.63721-.55371s-.59131-.85889-.59131-1.46973c0-1.30811.77002-2.06885,2.31055-2.2832l2.09863-.29395c0-1.18945-.48096-1.78418-1.44238-1.78418-.84326,0-1.604.28711-2.2832.86133v-1.14844c.68799-.4375,1.48096-.65625,2.37891-.65625,1.64502,0,2.46777.87061,2.46777,2.61133v4.55273ZM93.56689,219.5501l-1.68848.23242c-.51953.07275-.91162.20166-1.17578.38623s-.39648.51172-.39648.98096c0,.3418.12207.62109.36572.8374s.56836.32471.97412.32471c.55615,0,1.01514-.19482,1.37744-.58447s.54346-.88281.54346-1.47998v-.69727Z" fill="#2f2f2f"/>
        <path d="M100.21143,222.83818v-1.20312c.61084.45117,1.28271.67676,2.0166.67676.98438,0,1.47656-.32812,1.47656-.98438,0-.18701-.04199-.34521-.12646-.4751s-.19824-.24512-.3418-.34521-.31201-.19043-.50586-.27002-.40234-.16309-.62549-.24951c-.31006-.12305-.58203-.24707-.81689-.37256s-.43066-.2666-.58789-.42383-.27588-.33594-.35547-.53662-.11963-.43506-.11963-.7041c0-.32812.0752-.61865.22559-.87158s.35107-.46484.60156-.63574.53662-.2998.85791-.38623.65283-.12988.99463-.12988c.60596,0,1.14844.10498,1.62695.31445v1.13477c-.51514-.3374-1.10742-.50586-1.77734-.50586-.20947,0-.39893.02393-.56738.07178s-.31348.11523-.43408.20166-.21436.19043-.28027.31104-.09912.25391-.09912.3999c0,.18213.0332.33496.09912.45801s.16309.23242.29053.32812.28271.18213.46484.25977.38965.16162.62207.25293c.31006.11865.58789.24023.83398.36572s.45557.2666.62891.42383.30664.33838.3999.54346.14014.44873.14014.73145c0,.34619-.07617.64697-.229.90234s-.35645.46729-.61182.63574-.54932.29395-.88184.37598-.68115.12305-1.0459.12305c-.72021,0-1.34424-.13916-1.87305-.41699Z" fill="#2f2f2f"/>
        <path d="M112.1665,219.87139h-4.94238c.01807.7793.22803,1.38086.62891,1.80469s.95264.63574,1.6543.63574c.78857,0,1.51318-.25977,2.17383-.7793v1.05273c-.61523.44678-1.42871.66992-2.44043.66992-.98877,0-1.76611-.31787-2.33105-.95361s-.84766-1.53027-.84766-2.68311c0-1.08936.30859-1.97656.92627-2.6626s1.38428-1.02881,2.30029-1.02881,1.62451.29639,2.12598.88867.75195,1.41504.75195,2.46777v.58789ZM111.01807,218.92119c-.00439-.64697-.16064-1.15088-.46826-1.51074s-.73486-.54004-1.28174-.54004c-.52881,0-.97754.18896-1.34668.56738s-.59717.87256-.68359,1.4834h3.78027Z" fill="#2f2f2f"/>
        <path d="M117.49951,217.22588c-.1958-.15039-.47852-.22559-.84766-.22559-.47852,0-.87842.22559-1.19971.67676s-.48193,1.06641-.48193,1.8457v3.56836h-1.12109v-7h1.12109v1.44238h.02734c.15967-.49219.40332-.87598.73145-1.15186s.69482-.41357,1.10059-.41357c.2915,0,.51514.03174.66992.0957v1.16211Z" fill="#2f2f2f"/>
        <path d="M124.77246,216.09111l-2.78906,7h-1.10059l-2.65234-7h1.23047l1.77734,5.08594c.13232.37354.21436.69971.24609.97754h.02734c.04541-.35107.11865-.66748.21875-.9502l1.85938-5.11328h1.18262Z" fill="#2f2f2f"/>
        <path d="M131.41406,219.87139h-4.94238c.01807.7793.22803,1.38086.62891,1.80469s.95264.63574,1.6543.63574c.78857,0,1.51318-.25977,2.17383-.7793v1.05273c-.61523.44678-1.42871.66992-2.44043.66992-.98877,0-1.76611-.31787-2.33105-.95361s-.84766-1.53027-.84766-2.68311c0-1.08936.30859-1.97656.92627-2.6626s1.38428-1.02881,2.30029-1.02881,1.62451.29639,2.12598.88867.75195,1.41504.75195,2.46777v.58789ZM130.26562,218.92119c-.00439-.64697-.16064-1.15088-.46826-1.51074s-.73486-.54004-1.28174-.54004c-.52881,0-.97754.18896-1.34668.56738s-.59717.87256-.68359,1.4834h3.78027Z" fill="#2f2f2f"/>
        <path d="M136.74707,217.22588c-.1958-.15039-.47852-.22559-.84766-.22559-.47852,0-.87842.22559-1.19971.67676s-.48193,1.06641-.48193,1.8457v3.56836h-1.12109v-7h1.12109v1.44238h.02734c.15967-.49219.40332-.87598.73145-1.15186s.69482-.41357,1.10059-.41357c.2915,0,.51514.03174.66992.0957v1.16211Z" fill="#2f2f2f"/>
      </g>
      <g>
        <path d="M157.56787,279.15459v-9.80273h2.70703c3.45459,0,5.18164,1.59277,5.18164,4.77832,0,1.51318-.47949,2.72852-1.43896,3.64697s-2.24316,1.37744-3.85205,1.37744h-2.59766ZM158.71631,270.39092v7.72461h1.46289c1.28516,0,2.28564-.34424,3.00098-1.03223s1.07324-1.66357,1.07324-2.92578c0-2.51123-1.33545-3.7666-4.00586-3.7666h-1.53125Z" fill="#2f2f2f"/>
        <path d="M172.08789,279.15459h-1.12109v-1.09375h-.02734c-.48779.83838-1.20557,1.25781-2.15332,1.25781-.69727,0-1.24316-.18457-1.63721-.55371s-.59131-.85889-.59131-1.46973c0-1.30811.77002-2.06885,2.31055-2.2832l2.09863-.29395c0-1.18945-.48096-1.78418-1.44238-1.78418-.84326,0-1.604.28711-2.2832.86133v-1.14844c.68799-.4375,1.48096-.65625,2.37891-.65625,1.64502,0,2.46777.87061,2.46777,2.61133v4.55273ZM170.9668,275.61357l-1.68848.23242c-.51953.07275-.91162.20166-1.17578.38623s-.39648.51172-.39648.98096c0,.3418.12207.62109.36572.8374s.56836.32471.97412.32471c.55615,0,1.01514-.19482,1.37744-.58447s.54346-.88281.54346-1.47998v-.69727Z" fill="#2f2f2f"/>
        <path d="M177.34619,279.08623c-.26416.146-.61279.21875-1.0459.21875-1.22607,0-1.83887-.68359-1.83887-2.05078v-4.14258h-1.20312v-.95703h1.20312v-1.70898l1.12109-.3623v2.07129h1.76367v.95703h-1.76367v3.94434c0,.46924.07959.8042.23926,1.00488s.42383.30078.79297.30078c.28271,0,.52637-.07764.73145-.23242v.95703Z" fill="#2f2f2f"/>
        <path d="M183.96338,279.15459h-1.12109v-1.09375h-.02734c-.48779.83838-1.20557,1.25781-2.15332,1.25781-.69727,0-1.24316-.18457-1.63721-.55371s-.59131-.85889-.59131-1.46973c0-1.30811.77002-2.06885,2.31055-2.2832l2.09863-.29395c0-1.18945-.48096-1.78418-1.44238-1.78418-.84326,0-1.604.28711-2.2832.86133v-1.14844c.68799-.4375,1.48096-.65625,2.37891-.65625,1.64502,0,2.46777.87061,2.46777,2.61133v4.55273ZM182.84229,275.61357l-1.68848.23242c-.51953.07275-.91162.20166-1.17578.38623s-.39648.51172-.39648.98096c0,.3418.12207.62109.36572.8374s.56836.32471.97412.32471c.55615,0,1.01514-.19482,1.37744-.58447s.54346-.88281.54346-1.47998v-.69727Z" fill="#2f2f2f"/>
        <path d="M187.1333,278.14287h-.02734v1.01172h-1.12109v-10.36328h1.12109v4.59375h.02734c.55127-.92969,1.35791-1.39453,2.41992-1.39453.89795,0,1.60059.31348,2.10889.93994s.76221,1.46631.76221,2.51904c0,1.17139-.28467,2.10889-.85449,2.81299s-1.34912,1.05615-2.33789,1.05615c-.92529,0-1.62451-.39209-2.09863-1.17578ZM187.10596,275.31963v.97754c0,.57861.18799,1.06982.56396,1.47314s.85352.60498,1.43213.60498c.6792,0,1.21094-.25977,1.59619-.7793s.57764-1.2417.57764-2.16699c0-.7793-.18018-1.39014-.54004-1.83203s-.84766-.66309-1.46289-.66309c-.65186,0-1.17578.22656-1.57227.68018s-.59473,1.02197-.59473,1.70557Z" fill="#2f2f2f"/>
        <path d="M199.16016,279.15459h-1.12109v-1.09375h-.02734c-.48779.83838-1.20557,1.25781-2.15332,1.25781-.69727,0-1.24316-.18457-1.63721-.55371s-.59131-.85889-.59131-1.46973c0-1.30811.77002-2.06885,2.31055-2.2832l2.09863-.29395c0-1.18945-.48096-1.78418-1.44238-1.78418-.84326,0-1.604.28711-2.2832.86133v-1.14844c.68799-.4375,1.48096-.65625,2.37891-.65625,1.64502,0,2.46777.87061,2.46777,2.61133v4.55273ZM198.03906,275.61357l-1.68848.23242c-.51953.07275-.91162.20166-1.17578.38623s-.39648.51172-.39648.98096c0,.3418.12207.62109.36572.8374s.56836.32471.97412.32471c.55615,0,1.01514-.19482,1.37744-.58447s.54346-.88281.54346-1.47998v-.69727Z" fill="#2f2f2f"/>
        <path d="M200.80225,278.90166v-1.20312c.61084.45117,1.28271.67676,2.0166.67676.98438,0,1.47656-.32812,1.47656-.98438,0-.18701-.04199-.34521-.12646-.4751s-.19824-.24512-.3418-.34521-.31201-.19043-.50586-.27002-.40234-.16309-.62549-.24951c-.31006-.12305-.58203-.24707-.81689-.37256s-.43066-.2666-.58789-.42383-.27588-.33594-.35547-.53662-.11963-.43506-.11963-.7041c0-.32812.0752-.61865.22559-.87158s.35107-.46484.60156-.63574.53662-.2998.85791-.38623.65283-.12988.99463-.12988c.60596,0,1.14844.10498,1.62695.31445v1.13477c-.51514-.3374-1.10742-.50586-1.77734-.50586-.20947,0-.39893.02393-.56738.07178s-.31348.11523-.43408.20166-.21436.19043-.28027.31104-.09912.25391-.09912.3999c0,.18213.0332.33496.09912.45801s.16309.23242.29053.32812.28271.18213.46484.25977.38965.16162.62207.25293c.31006.11865.58789.24023.83398.36572s.45557.2666.62891.42383.30664.33838.3999.54346.14014.44873.14014.73145c0,.34619-.07617.64697-.229.90234s-.35645.46729-.61182.63574-.54932.29395-.88184.37598-.68115.12305-1.0459.12305c-.72021,0-1.34424-.13916-1.87305-.41699Z" fill="#2f2f2f"/>
        <path d="M212.75781,275.93486h-4.94238c.01807.7793.22803,1.38086.62891,1.80469s.95264.63574,1.6543.63574c.78857,0,1.51318-.25977,2.17383-.7793v1.05273c-.61523.44678-1.42871.66992-2.44043.66992-.98877,0-1.76611-.31787-2.33105-.95361s-.84766-1.53027-.84766-2.68311c0-1.08936.30859-1.97656.92627-2.6626s1.38428-1.02881,2.30029-1.02881,1.62451.29639,2.12598.88867.75195,1.41504.75195,2.46777v.58789ZM211.60938,274.98467c-.00439-.64697-.16064-1.15088-.46826-1.51074s-.73486-.54004-1.28174-.54004c-.52881,0-.97754.18896-1.34668.56738s-.59717.87256-.68359,1.4834h3.78027Z" fill="#2f2f2f"/>
      </g>
    </g>
  </g>
</svg>