<?xml version="1.0" encoding="UTF-8"?>
<svg xmlns="http://www.w3.org/2000/svg" width="796.4" height="299.2" xmlns:xlink="http://www.w3.org/1999/xlink" viewBox="0 0 796.4 299.2">
  <defs>
    <linearGradient id="Cool_gray_gradient_1" data-name="Cool gray gradient 1" x1="378.11605" y1="151.03375" x2="576.25803" y2="151.03375" gradientUnits="userSpaceOnUse">
      <stop offset="0" stop-color="#f5f5f4"/>
      <stop offset="1" stop-color="#ececea"/>
    </linearGradient>
    <linearGradient id="Cool_gray_gradient_1-2" data-name="Cool gray gradient 1" x1="585.05803" x2="783.2" xlink:href="#Cool_gray_gradient_1"/>
    <linearGradient id="Cool_gray_gradient_1-3" data-name="Cool gray gradient 1" x1="171.31605" x2="369.45803" xlink:href="#Cool_gray_gradient_1"/>
    <linearGradient id="linear-gradient" x1="92.4" y1="915.76625" x2="92.4" y2="891.76625" gradientTransform="translate(0 1031.6) scale(1 -1)" gradientUnits="userSpaceOnUse">
      <stop offset=".18" stop-color="#5ea0ef"/>
      <stop offset="1" stop-color="#0078d4"/>
    </linearGradient>
    <linearGradient id="linear-gradient-2" x1="-139.142" y1="1161.56095" x2="-139.142" y2="1196.33836" gradientTransform="translate(564 1265.6) scale(1 -1)" gradientUnits="userSpaceOnUse">
      <stop offset="0" stop-color="#5e9624"/>
      <stop offset=".02" stop-color="#5f9724"/>
      <stop offset="1" stop-color="#76bc2d"/>
    </linearGradient>
    <linearGradient id="linear-gradient-3" x1="-86.81296" y1="1106.72499" x2="-86.81296" y2="1125.48627" gradientTransform="translate(564 1265.6) scale(1 -1)" gradientUnits="userSpaceOnUse">
      <stop offset="0" stop-color="#0078d4"/>
      <stop offset=".82" stop-color="#5ea0ef"/>
    </linearGradient>
    <linearGradient id="linear-gradient-4" x1="-86.81296" y1="1099.48627" x2="-86.81296" y2="1106.72499" gradientTransform="translate(564 1265.6) scale(1 -1)" gradientUnits="userSpaceOnUse">
      <stop offset=".15" stop-color="#ccc"/>
      <stop offset="1" stop-color="#707070"/>
    </linearGradient>
    <linearGradient id="linear-gradient-5" x1="-293.61296" x2="-293.61296" xlink:href="#linear-gradient-3"/>
    <linearGradient id="linear-gradient-6" x1="-293.61296" x2="-293.61296" xlink:href="#linear-gradient-4"/>
    <linearGradient id="linear-gradient-7" x1="-135.4235" y1="1023.53356" x2="-115.92203" y2="1023.53356" gradientTransform="translate(563.87521 1263.20887) rotate(.147) scale(1 -1)" gradientUnits="userSpaceOnUse">
      <stop offset="0" stop-color="#005ba1"/>
      <stop offset=".068" stop-color="#0060a9"/>
      <stop offset=".356" stop-color="#0071c8"/>
      <stop offset=".517" stop-color="#0078d4"/>
      <stop offset=".642" stop-color="#0074cd"/>
      <stop offset=".82" stop-color="#006abb"/>
      <stop offset="1" stop-color="#005ba1"/>
    </linearGradient>
  </defs>
  <g isolation="isolate">
    <g id="Shapes">
      <rect width="796.4" height="299.2" fill="#fff"/>
      <g>
        <g mix-blend-mode="multiply" opacity=".8">
          <rect x="378.61605" y="11.99026" width="198.14197" height="279.08699" rx="8" ry="8" fill="#2b436f"/>
          <rect x="378.61605" y="11.99026" width="198.14197" height="279.08699" rx="8" ry="8" fill="#2b436f" opacity=".4"/>
        </g>
        <g>
          <rect x="378.11605" y="11.49026" width="198.14197" height="279.08699" rx="8" ry="8" fill="url(#Cool_gray_gradient_1)"/>
          <rect x="378.11605" y="11.49026" width="198.14197" height="279.08699" rx="8" ry="8" fill="#8ec8e7" opacity=".4"/>
        </g>
      </g>
      <g>
        <g mix-blend-mode="multiply" opacity=".8">
          <rect x="585.55803" y="11.99026" width="198.14197" height="279.08699" rx="8" ry="8" fill="#2b436f"/>
          <rect x="585.55803" y="11.99026" width="198.14197" height="279.08699" rx="8" ry="8" fill="#2b436f" opacity=".4"/>
        </g>
        <g>
          <rect x="585.05803" y="11.49026" width="198.14197" height="279.08699" rx="8" ry="8" fill="url(#Cool_gray_gradient_1-2)"/>
          <rect x="585.05803" y="11.49026" width="198.14197" height="279.08699" rx="8" ry="8" fill="#8ec8e7" opacity=".4"/>
        </g>
      </g>
      <g>
        <g mix-blend-mode="multiply" opacity=".8">
          <rect x="171.81605" y="11.99026" width="198.14197" height="279.08699" rx="8" ry="8" fill="#2b436f"/>
          <rect x="171.81605" y="11.99026" width="198.14197" height="279.08699" rx="8" ry="8" fill="#2b436f" opacity=".4"/>
        </g>
        <g>
          <rect x="171.31605" y="11.49026" width="198.14197" height="279.08699" rx="8" ry="8" fill="url(#Cool_gray_gradient_1-3)"/>
          <rect x="171.31605" y="11.49026" width="198.14197" height="279.08699" rx="8" ry="8" fill="#8ec8e7" opacity=".4"/>
        </g>
      </g>
      <g>
        <rect x="9.2848" y="52.97725" width="773.77323" height="215.98879" fill="#fff"/>
        <rect x="9.2848" y="52.97725" width="773.77323" height="215.98879" fill="#53b1e0" opacity=".1"/>
        <rect x="9.2848" y="52.97725" width="773.77323" height="215.98879" fill="none" stroke="#53b1e0" stroke-width=".25"/>
      </g>
      <g id="e0962381-da5c-47a2-ae4c-adf850116f2b">
        <g>
          <rect x="76.97143" y="115.83375" width="30.85714" height="24" rx=".76" ry=".76" fill="url(#linear-gradient)"/>
          <path d="M91.23051,120.6509s-.00668.02709-.01508.07286c-.74384.20711-1.44702.53928-2.07943.98229-1.20368-.45014-2.53679-.4042-3.70663.12771-.12565,1.27484.21465,2.55205.95794,3.59537-.23609.66029-.39419,1.34591-.47109,2.04291-1.09072.56792-1.92152,1.53325-2.32063,2.6964.81141.99321,1.96681,1.64478,3.23657,1.8252l.00463-.0036c.31433.56293.6994,1.08333,1.14583,1.54851-.32414.92882-.29688,1.9442.07663,2.85429,1.07062.05045,2.1257-.27118,2.98611-.91029.87578.29321,1.7981.42251,2.72074.38143.52774.69105,1.3037,1.14958,2.1636,1.27851.61904-.60323.98895-1.41696,1.03646-2.28h0l-.00103-.04577h0l-.00274-.04766c.6786-.47296,1.25252-1.08061,1.686-1.78509.69483.019,1.37096-.22652,1.89171-.68691-.08917-.70921-.43856-1.36003-.9804-1.82623h0l-.02708-.01971h0l-.02434-.01577c.32736-2.63821-1.54596-5.04228-4.18418-5.36964-.23375-.029-.46932-.04081-.7048-.03533-4.85931-.17657-4.3392,8.38029.48651,6.02023.29674-.71297-.82954.04097-1.13503-.11897-1.08808-.07896-1.91287-1.01418-1.8552-2.1036.13107-1.38557,1.36056-2.40254,2.74613-2.27147.39877.03772.78281.16996,1.12027.38575,3.22783,1.80497.92126,6.84274-2.44954,6.56091.02331,0-.00377,0-.00291-.00103-2.83982-.07154-5.10939-2.38567-5.12571-5.22634-.10351-3.1287,2.34889-5.74892,5.4776-5.85243.00139-.00005.00278-.00009.00418-.00014,3.28611-.31097,5.78297,2.35903,6.71777,5.12091.2102-1.90133-.51474-3.78652-1.94469-5.05714.14136-.66503.02762-1.35891-.31869-1.944-.66218-.06062-1.32493.10976-1.87577.48223-.59945-.25663-1.23063-.43167-1.87663-.52046-.28656-.85351-.89237-1.56296-1.69046-1.97966-.80356.47316-1.39871,1.23241-1.66629,2.12571" fill="#f2f2f2"/>
        </g>
      </g>
      <g>
        <g mix-blend-mode="multiply" opacity=".8">
          <rect x="171.95803" y="64.45876" width="611.6" height="44" fill="#5e9741"/>
          <rect x="171.95803" y="64.45876" width="611.6" height="44" fill="#5e9741" opacity=".6"/>
        </g>
        <g>
          <rect x="171.45803" y="63.95876" width="611.6" height="44" fill="#fff"/>
          <rect x="171.45803" y="63.95876" width="611.6" height="44" fill="#d3ec8e" opacity=".6"/>
        </g>
      </g>
      <rect x="171.45803" y="214.77972" width="611.6" height="44" fill="#fff" stroke="#4e4f4f" stroke-width=".25"/>
      <g>
        <path d="M410.1605,85.24225l13.98095-13.98095c.38511-.39574,1.01811-.40435,1.41384-.01925.0065.00633.01292.01274.01925.01925l13.98095,13.98095c.39574.38511.40435,1.01811.01925,1.41384-.00633.0065-.01275.01292-.01925.01925l-13.99762,13.99762c-.38878.38108-1.01098.38108-1.39976,0l-13.99762-13.99762c-.39574-.38511-.40435-1.0181-.01925-1.41384.00633-.0065.01275-.01292.01925-.01925Z" fill="url(#linear-gradient-2)"/>
        <path d="M428.52404,77.62688l-3.53273-3.51607c-.07591-.06789-.19071-.06789-.26662,0l-3.53273,3.51607c-.07635.05138-.0966.15493-.04522.23128.03914.05817.1105.08561.17853.06867h2.06631c.10123,0,.1833.08207.1833.1833v3.33277c0,.10124.08207.1833.1833.1833h2.19963c.10123,0,.1833-.08207.1833-.1833v-3.33277c0-.10124.08207-.1833.1833-.1833h2.06631c.0893.02225.17973-.03211.20198-.12141.01695-.06803-.0105-.13939-.06867-.17853Z" fill="#b4ec36"/>
        <path d="M416.52608,81.97614l-3.4994,3.5494c-.06562.0704-.06562.17956,0,.24996l3.4994,3.51607c.06939.07371.1854.07722.25911.00783.03875-.03647.05973-.08798.0575-.14114v-2.04965c0-.10123.08207-.1833.1833-.1833h3.33277c.09203.00046.16701-.07377.16747-.1658.00003-.00584-.00025-.01169-.00083-.0175v-2.19963c.04718-.07902.02137-.18132-.05765-.2285-.01813-.01082-.03815-.01811-.059-.02145h-3.33277c-.09157.0092-.17326-.05757-.18247-.14914-.00058-.00582-.00086-.01166-.00083-.0175v-2.01632c.03681-.10124-.01541-.21314-.11665-.24996-.10123-.03681-.21314.01541-.24996.11665Z" fill="#b4ec36"/>
        <path d="M433.32322,89.29156l3.54939-3.53273c.06562-.0704.06562-.17956,0-.24996l-3.54939-3.53273c-.07801-.06452-.19356-.05358-.25807.02444-.02544.03076-.04014.06899-.04188.10888v2.08298c.00046.09203-.07377.16701-.1658.16747-.00584.00003-.01169-.00025-.0175-.00083h-3.33277c-.09203-.00046-.16701.07377-.16747.1658-.00003.00585.00025.01169.00083.0175v2.19963c-.0092.09157.05757.17326.14914.18247.00581.00058.01166.00086.0175.00083h3.33277c.10123,0,.1833.08207.1833.1833v2.06631c.01297.1004.10488.17127.20528.1583.0349-.00451.06777-.01897.09467-.04165Z" fill="#b4ec36"/>
        <path d="M429.50721,85.95879c.01591-2.56764-2.05267-4.66202-4.62031-4.67793-2.56764-.01591-4.66202,2.05267-4.67793,4.62031-.01299,2.09698,1.37942,3.9431,3.39924,4.50686v1.58306c-1.39812.72245-1.94586,2.44151-1.22341,3.83963.72245,1.39812,2.44151,1.94586,3.83963,1.22341,1.39812-.72245,1.94586-2.44151,1.22341-3.83963-.27115-.52474-.69866-.95226-1.22341-1.22341v-1.66638c1.93034-.58217,3.25947-2.34984,3.28277-4.36592Z" fill="#fff"/>
        <circle id="e99c3387-15c3-4f28-bd4b-cb209b430e06" cx="424.87466" cy="85.94213" r="2.69954" fill="#5ea0ef"/>
      </g>
      <rect x="409.21437" y="123.37725" width="135.94535" height="78.53953" fill="#fff" stroke="#4e4f4f" stroke-width=".25"/>
      <g>
        <rect x="463.11609" y="140.11373" width="28.14191" height="18.76127" rx=".93806" ry=".93806" fill="url(#linear-gradient-3)"/>
        <polygon points="481.87736 146.75835 481.87736 152.21475 477.18704 154.96641 477.18704 149.49437 481.87736 146.75835" fill="#50e6ff"/>
        <polygon points="481.87736 146.75835 477.18704 149.51 472.49672 146.75835 477.18704 144.02233 481.87736 146.75835" fill="#c3f1ff"/>
        <polygon points="477.18704 149.51 477.18704 154.96641 472.49672 152.21475 472.49672 146.75835 477.18704 149.51" fill="#9cebff"/>
        <polygon points="472.49672 152.21475 477.18704 149.49437 477.18704 154.96641 472.49672 152.21475" fill="#c3f1ff"/>
        <polygon points="481.87736 152.21475 477.18704 149.49437 477.18704 154.96641 481.87736 152.21475" fill="#9cebff"/>
        <path d="M482.83106,164.55029c-2.78292-.43776-2.89236-2.43896-2.89236-5.67529h-5.51894c0,3.23632-.09381,5.23752-2.87673,5.67529-.79569.08805-1.39632.76291-1.39146,1.56344h14.07096c.00486-.80053-.59577-1.4754-1.39146-1.56344Z" fill="url(#linear-gradient-4)"/>
      </g>
      <rect x="202.41437" y="123.37725" width="135.94535" height="78.53953" fill="#fff" stroke="#4e4f4f" stroke-width=".25"/>
      <g>
        <rect x="256.31609" y="140.11373" width="28.14191" height="18.76127" rx=".93806" ry=".93806" fill="url(#linear-gradient-5)"/>
        <polygon points="275.07736 146.75835 275.07736 152.21475 270.38704 154.96641 270.38704 149.49437 275.07736 146.75835" fill="#50e6ff"/>
        <polygon points="275.07736 146.75835 270.38704 149.51 265.69672 146.75835 270.38704 144.02233 275.07736 146.75835" fill="#c3f1ff"/>
        <polygon points="270.38704 149.51 270.38704 154.96641 265.69672 152.21475 265.69672 146.75835 270.38704 149.51" fill="#9cebff"/>
        <polygon points="265.69672 152.21475 270.38704 149.49437 270.38704 154.96641 265.69672 152.21475" fill="#c3f1ff"/>
        <polygon points="275.07736 152.21475 270.38704 149.49437 270.38704 154.96641 275.07736 152.21475" fill="#9cebff"/>
        <path d="M276.03106,164.55029c-2.78292-.43776-2.89236-2.43896-2.89236-5.67529h-5.51894c0,3.23632-.09381,5.23752-2.87673,5.67529-.79569.08805-1.39632.76291-1.39146,1.56344h14.07096c.00486-.80053-.59577-1.4754-1.39146-1.56344Z" fill="url(#linear-gradient-6)"/>
      </g>
      <g id="bdd66f0d-1091-4867-9f64-cdf433204a8a">
        <g>
          <path d="M440.8483,231.68183c-5.38534-.01377-9.74592-1.61514-9.74133-3.57748l-.04894,18.89686c0,1.94551,4.28258,3.53618,9.60826,3.57595h.13307c5.38534.01377,9.75509-1.56467,9.75968-3.52701l.04894-18.89686c-.00459,1.96387-4.37434,3.5423-9.75968,3.52853Z" fill="url(#linear-gradient-7)"/>
          <path d="M450.60798,228.15482c0,1.96081-4.37434,3.54077-9.75968,3.52701-5.38534-.01377-9.74592-1.61514-9.74133-3.57748s4.37282-3.54077,9.75968-3.52701c5.38687.01377,9.74592,1.61514,9.74133,3.57748" fill="#e6e6e6"/>
          <path d="M448.32751,227.86116c0,1.24806-3.35264,2.24988-7.47921,2.23918-4.12657-.01071-7.46851-1.02935-7.46545-2.27741s3.35264-2.24988,7.48074-2.23918c4.1281.01071,7.47156,1.02935,7.4685,2.27741" fill="#50e6ff"/>
          <path d="M440.85595,228.36283c-2.0072-.05242-4.00899.23192-5.92219.84122,1.90615.63971,3.90904.94299,5.91913.89628,2.00931.0567,4.01318-.23623,5.92219-.86569-1.9104-.61958-3.91122-.91427-5.91913-.87181Z" fill="#198ab3"/>
        </g>
      </g>
    </g>
    <g id="Text">
      <g>
        <rect x="22" y="151.32838" width="140.8" height="37.12386" fill="none"/>
        <path d="M49.91602,163.22969h-2.40625l-.69727-2.18066h-3.48633l-.69043,2.18066h-2.39258l3.56836-9.80273h2.61816l3.48633,9.80273ZM46.30664,159.35371l-1.05273-3.29492c-.07764-.24609-.13232-.54004-.16406-.88184h-.05469c-.02295.28711-.07959.57178-.1709.85449l-1.06641,3.32227h2.50879Z" fill="#2f2f2f"/>
        <path d="M56.82178,163.22969h-6.28223v-.89551l3.51367-4.51172h-3.16504v-1.59277h5.90625v1.06641l-3.3291,4.34082h3.35645v1.59277Z" fill="#2f2f2f"/>
        <path d="M64.70361,163.22969h-2.15332v-1.06641h-.03418c-.5332.82471-1.24658,1.2373-2.13965,1.2373-1.62256,0-2.43359-.98193-2.43359-2.94629v-4.22461h2.15332v4.0332c0,.98877.39209,1.4834,1.17578,1.4834.38721,0,.69727-.13574.92969-.40674s.34863-.63916.34863-1.104v-4.00586h2.15332v7Z" fill="#2f2f2f"/>
        <path d="M71.03809,158.17793c-.25977-.14111-.56299-.21191-.90918-.21191-.46924,0-.83643.17188-1.10059.51611s-.39648.8125-.39648,1.40479v3.34277h-2.16016v-7h2.16016v1.29883h.02734c.3418-.94775.95703-1.42188,1.8457-1.42188.22803,0,.40576.02734.5332.08203v1.98926Z" fill="#2f2f2f"/>
        <path d="M78.41064,160.34492h-4.56641c.07275,1.01611.71338,1.52441,1.9209,1.52441.77002,0,1.44678-.18213,2.03027-.54688v1.55859c-.64697.34619-1.48779.51953-2.52246.51953-1.13037,0-2.00732-.31348-2.63184-.93994s-.93652-1.50049-.93652-2.62158c0-1.16211.3374-2.08252,1.01172-2.76172s1.50391-1.01855,2.48828-1.01855c1.021,0,1.81055.30322,2.36865.90918s.8374,1.42871.8374,2.46777v.90918ZM76.40771,159.01875c0-1.00244-.40576-1.50391-1.2168-1.50391-.34619,0-.646.14355-.89893.43066s-.40674.64502-.46143,1.07324h2.57715Z" fill="#2f2f2f"/>
        <path d="M94.93994,163.22969h-2.18066v-5.86523c0-.6333.02734-1.33301.08203-2.09863h-.05469c-.11377.60156-.21631,1.03467-.30762,1.29883l-2.29688,6.66504h-1.80469l-2.33789-6.59668c-.06396-.17773-.1665-.6333-.30762-1.36719h-.06152c.05908.96631.08887,1.81396.08887,2.54297v5.4209h-1.98926v-9.80273h3.2334l2.00293,5.81055c.15967.46484.27588.93213.34863,1.40137h.04102c.12305-.54248.25293-1.01416.38965-1.41504l2.00293-5.79688h3.15137v9.80273Z" fill="#2f2f2f"/>
        <path d="M102.75977,163.22969h-2.04395v-1.00488h-.02734c-.46924.78369-1.16455,1.17578-2.08496,1.17578-.6792,0-1.21338-.19238-1.60303-.57764s-.58447-.89893-.58447-1.5415c0-1.35791.8042-2.14209,2.41309-2.35156l1.90039-.25293c0-.76562-.41455-1.14844-1.24414-1.14844-.83398,0-1.62695.24854-2.37891.74512v-1.62695c.30078-.15479.71191-.2915,1.23389-.41016s.99707-.17773,1.42529-.17773c1.99609,0,2.99414.99561,2.99414,2.9873v4.18359ZM100.72949,160.38594v-.47168l-1.27148.16406c-.70166.09131-1.05273.40771-1.05273.9502,0,.24609.08545.44775.25635.60498s.40234.23584.69385.23584c.40576,0,.73584-.14014.99121-.42041s.38281-.63477.38281-1.06299Z" fill="#2f2f2f"/>
        <path d="M111.2168,163.22969h-2.15332v-3.88965c0-1.08447-.38721-1.62695-1.16211-1.62695-.37354,0-.68115.14355-.92285.43066s-.3623.65186-.3623,1.09375v3.99219h-2.16016v-7h2.16016v1.10742h.02734c.51514-.85205,1.26465-1.27832,2.24902-1.27832,1.54932,0,2.32422.96143,2.32422,2.88477v4.28613Z" fill="#2f2f2f"/>
        <path d="M118.78223,163.22969h-2.04395v-1.00488h-.02734c-.46924.78369-1.16455,1.17578-2.08496,1.17578-.6792,0-1.21338-.19238-1.60303-.57764s-.58447-.89893-.58447-1.5415c0-1.35791.8042-2.14209,2.41309-2.35156l1.90039-.25293c0-.76562-.41455-1.14844-1.24414-1.14844-.83398,0-1.62695.24854-2.37891.74512v-1.62695c.30078-.15479.71191-.2915,1.23389-.41016s.99707-.17773,1.42529-.17773c1.99609,0,2.99414.99561,2.99414,2.9873v4.18359ZM116.75195,160.38594v-.47168l-1.27148.16406c-.70166.09131-1.05273.40771-1.05273.9502,0,.24609.08545.44775.25635.60498s.40234.23584.69385.23584c.40576,0,.73584-.14014.99121-.42041s.38281-.63477.38281-1.06299Z" fill="#2f2f2f"/>
        <path d="M127.37695,162.42988c0,1.29883-.37598,2.30469-1.12793,3.01807s-1.84131,1.06982-3.26758,1.06982c-.94336,0-1.69092-.13428-2.24219-.40332v-1.81836c.72021.41943,1.44678.62891,2.18066.62891.729,0,1.29443-.19238,1.69531-.57764s.60156-.9082.60156-1.56885v-.55371h-.02734c-.49219.78369-1.21924,1.17578-2.18066,1.17578-.89307,0-1.60205-.31445-2.12598-.94336s-.78613-1.47217-.78613-2.5293c0-1.18506.2915-2.12598.875-2.82324s1.35107-1.0459,2.30371-1.0459c.85205,0,1.49023.32812,1.91406.98438h.02734v-.81348h2.16016v6.2002ZM125.24414,159.86641v-.55371c0-.44189-.13086-.81934-.39307-1.13135s-.60254-.46826-1.02197-.46826c-.47852,0-.85449.18701-1.12793.56055s-.41016.8999-.41016,1.5791c0,.5835.12988,1.04492.38965,1.38428s.61523.50928,1.06641.50928c.44678,0,.80762-.17188,1.0835-.51611s.41357-.79883.41357-1.36377Z" fill="#2f2f2f"/>
        <path d="M135.4707,160.34492h-4.56641c.07275,1.01611.71338,1.52441,1.9209,1.52441.77002,0,1.44678-.18213,2.03027-.54688v1.55859c-.64697.34619-1.48779.51953-2.52246.51953-1.13037,0-2.00732-.31348-2.63184-.93994s-.93652-1.50049-.93652-2.62158c0-1.16211.3374-2.08252,1.01172-2.76172s1.50391-1.01855,2.48828-1.01855c1.021,0,1.81055.30322,2.36865.90918s.8374,1.42871.8374,2.46777v.90918ZM133.46777,159.01875c0-1.00244-.40576-1.50391-1.2168-1.50391-.34619,0-.646.14355-.89893.43066s-.40674.64502-.46143,1.07324h2.57715Z" fill="#2f2f2f"/>
        <path d="M143.71582,163.22969h-2.16016v-.96387h-.02734c-.49219.75635-1.21436,1.13477-2.16699,1.13477-.875,0-1.5791-.30859-2.1123-.92627s-.7998-1.47998-.7998-2.5874c0-1.15771.29395-2.08496.88184-2.78223s1.35791-1.0459,2.31055-1.0459c.90234,0,1.53125.32373,1.88672.9707h.02734v-4.16309h2.16016v10.36328ZM141.59668,159.82539v-.52637c0-.45557-.13232-.83398-.39648-1.13477s-.6084-.45117-1.03223-.45117c-.47852,0-.85205.18799-1.12109.56396s-.40332.89209-.40332,1.54834c0,.61523.12988,1.08936.38965,1.42188s.61963.49902,1.08008.49902c.4375,0,.79395-.17529,1.06982-.52637s.41357-.81592.41357-1.39453Z" fill="#2f2f2f"/>
        <path d="M38.80176,179.37324c-.95703.55127-2.14648.82715-3.56836.82715-1.57666,0-2.81982-.43652-3.729-1.30908s-1.36377-2.07471-1.36377-3.60596c0-1.54053.49658-2.7959,1.49023-3.7666s2.31494-1.45605,3.96484-1.45605c1.03906,0,1.95508.14355,2.74805.43066v2.07129c-.75635-.4375-1.68164-.65625-2.77539-.65625-.91602,0-1.66211.29736-2.23877.89209s-.86475,1.38867-.86475,2.38232c0,1.00732.25879,1.78662.77588,2.33789s1.21582.82715,2.09521.82715c.52881,0,.94775-.0752,1.25781-.22559v-1.91406h-1.96191v-1.76367h4.16992v4.92871Z" fill="#2f2f2f"/>
        <path d="M45.13086,174.97773c-.25977-.14111-.56299-.21191-.90918-.21191-.46924,0-.83643.17188-1.10059.51611s-.39648.8125-.39648,1.40479v3.34277h-2.16016v-7h2.16016v1.29883h.02734c.3418-.94775.95703-1.42188,1.8457-1.42188.22803,0,.40576.02734.5332.08203v1.98926Z" fill="#2f2f2f"/>
        <path d="M51.85498,180.02949h-2.04395v-1.00488h-.02734c-.46924.78369-1.16455,1.17578-2.08496,1.17578-.6792,0-1.21338-.19238-1.60303-.57764s-.58447-.89893-.58447-1.5415c0-1.35791.8042-2.14209,2.41309-2.35156l1.90039-.25293c0-.76562-.41455-1.14844-1.24414-1.14844-.83398,0-1.62695.24854-2.37891.74512v-1.62695c.30078-.15479.71191-.2915,1.23389-.41016s.99707-.17773,1.42529-.17773c1.99609,0,2.99414.99561,2.99414,2.9873v4.18359ZM49.82471,177.18574v-.47168l-1.27148.16406c-.70166.09131-1.05273.40771-1.05273.9502,0,.24609.08545.44775.25635.60498s.40234.23584.69385.23584c.40576,0,.73584-.14014.99121-.42041s.38281-.63477.38281-1.06299Z" fill="#2f2f2f"/>
        <path d="M58.01123,171.32051c-.27783-.10938-.54443-.16406-.7998-.16406-.69287,0-1.03906.37598-1.03906,1.12793v.74512h1.59961v1.59277h-1.59961v5.40723h-2.15332v-5.40723h-1.17578v-1.59277h1.17578v-.86816c0-.79736.25977-1.43994.7793-1.92773s1.22607-.73145,2.11914-.73145c.4375,0,.80225.04541,1.09375.13672v1.68164Z" fill="#2f2f2f"/>
        <path d="M64.51611,180.02949h-2.04395v-1.00488h-.02734c-.46924.78369-1.16455,1.17578-2.08496,1.17578-.6792,0-1.21338-.19238-1.60303-.57764s-.58447-.89893-.58447-1.5415c0-1.35791.8042-2.14209,2.41309-2.35156l1.90039-.25293c0-.76562-.41455-1.14844-1.24414-1.14844-.83398,0-1.62695.24854-2.37891.74512v-1.62695c.30078-.15479.71191-.2915,1.23389-.41016s.99707-.17773,1.42529-.17773c1.99609,0,2.99414.99561,2.99414,2.9873v4.18359ZM62.48584,177.18574v-.47168l-1.27148.16406c-.70166.09131-1.05273.40771-1.05273.9502,0,.24609.08545.44775.25635.60498s.40234.23584.69385.23584c.40576,0,.73584-.14014.99121-.42041s.38281-.63477.38281-1.06299Z" fill="#2f2f2f"/>
        <path d="M72.97314,180.02949h-2.15332v-3.88965c0-1.08447-.38721-1.62695-1.16211-1.62695-.37354,0-.68115.14355-.92285.43066s-.3623.65186-.3623,1.09375v3.99219h-2.16016v-7h2.16016v1.10742h.02734c.51514-.85205,1.26465-1.27832,2.24902-1.27832,1.54932,0,2.32422.96143,2.32422,2.88477v4.28613Z" fill="#2f2f2f"/>
        <path d="M80.53857,180.02949h-2.04395v-1.00488h-.02734c-.46924.78369-1.16455,1.17578-2.08496,1.17578-.6792,0-1.21338-.19238-1.60303-.57764s-.58447-.89893-.58447-1.5415c0-1.35791.8042-2.14209,2.41309-2.35156l1.90039-.25293c0-.76562-.41455-1.14844-1.24414-1.14844-.83398,0-1.62695.24854-2.37891.74512v-1.62695c.30078-.15479.71191-.2915,1.23389-.41016s.99707-.17773,1.42529-.17773c1.99609,0,2.99414.99561,2.99414,2.9873v4.18359ZM78.5083,177.18574v-.47168l-1.27148.16406c-.70166.09131-1.05273.40771-1.05273.9502,0,.24609.08545.44775.25635.60498s.40234.23584.69385.23584c.40576,0,.73584-.14014.99121-.42041s.38281-.63477.38281-1.06299Z" fill="#2f2f2f"/>
        <path d="M96.24756,173.02949l-2.0166,7h-2.26953l-1.03223-4.10156c-.06836-.27344-.10693-.57178-.11621-.89551h-.04102c-.03174.35547-.07764.64502-.13672.86816l-1.10742,4.12891h-2.24219l-1.97559-7h2.20117l.96387,4.56641c.04541.21436.07959.47412.10254.7793h.04102c.02295-.31885.06396-.58789.12305-.80664l1.20312-4.53906h2.05762l1.08008,4.56641c.02734.11377.05908.37842.0957.79297h.04785c.02295-.26416.05908-.52881.10938-.79297l.90918-4.56641h2.00293Z" fill="#2f2f2f"/>
        <path d="M100.44092,180.20039c-1.1665,0-2.08398-.32715-2.75146-.98096s-1.00146-1.5415-1.00146-2.6626c0-1.15771.34619-2.06348,1.03906-2.71729s1.62939-.98096,2.80957-.98096c1.16211,0,2.07373.32715,2.73438.98096s.99121,1.51855.99121,2.59424c0,1.16211-.34082,2.08057-1.02197,2.75488s-1.61426,1.01172-2.79932,1.01172ZM100.49561,174.51289c-.51025,0-.90674.17529-1.18945.52637s-.42383.84766-.42383,1.49023c0,1.34424.54248,2.0166,1.62695,2.0166,1.03467,0,1.55176-.69043,1.55176-2.07129,0-1.30811-.52197-1.96191-1.56543-1.96191Z" fill="#2f2f2f"/>
        <path d="M110.20898,174.97773c-.25977-.14111-.56299-.21191-.90918-.21191-.46924,0-.83643.17188-1.10059.51611s-.39648.8125-.39648,1.40479v3.34277h-2.16016v-7h2.16016v1.29883h.02734c.3418-.94775.95703-1.42188,1.8457-1.42188.22803,0,.40576.02734.5332.08203v1.98926Z" fill="#2f2f2f"/>
        <path d="M118.21387,180.02949h-2.59082l-2.23535-3.47266h-.02734v3.47266h-2.16016v-10.36328h2.16016v6.59668h.02734l2.08496-3.2334h2.56348l-2.50879,3.28809,2.68652,3.71191Z" fill="#2f2f2f"/>
        <path d="M118.87158,179.84492v-1.75c.35547.21436.70996.37354,1.06299.47852s.68701.15723,1.00146.15723c.38281,0,.68457-.05225.90576-.15723s.33154-.26416.33154-.47852c0-.13672-.05029-.25049-.15039-.3418s-.229-.1709-.38623-.23926-.3291-.12988-.51611-.18457-.3667-.11621-.54004-.18457c-.27783-.10498-.52295-.21777-.73486-.33838s-.38965-.26074-.5332-.42041-.25293-.34424-.32812-.55371-.11279-.45801-.11279-.74512c0-.39209.08545-.729.25635-1.01172s.39893-.51367.68359-.69385.61084-.31201.97754-.39648.74854-.12646,1.14502-.12646c.31006,0,.62451.02393.94336.07178s.6333.11719.94336.2085v1.66797c-.27344-.15967-.56641-.2793-.87842-.35889s-.61865-.11963-.91943-.11963c-.14111,0-.27441.0127-.3999.0376s-.23584.06152-.33154.10938-.1709.10938-.22559.18457-.08203.16064-.08203.25635c0,.12744.04102.23682.12305.32812s.18896.16992.32129.23584.2793.12549.44092.17773.32227.10596.48193.16064c.28711.1001.54688.20947.7793.32812s.43164.25732.59814.41699.29395.34619.38281.56055.1333.46924.1333.76562c0,.41455-.08984.76904-.27002,1.06299s-.41943.5332-.71777.71777-.64258.31885-1.03223.40332-.79395.12646-1.21338.12646c-.77002,0-1.4834-.11865-2.13965-.35547Z" fill="#2f2f2f"/>
        <path d="M127.73486,179.21602h-.02734v4.0332h-2.16016v-10.21973h2.16016v1.05273h.02734c.5332-.81592,1.28271-1.22363,2.24902-1.22363.90674,0,1.60742.31104,2.10205.93311s.7417,1.46875.7417,2.53955c0,1.1665-.28809,2.10303-.86475,2.80957s-1.34326,1.05957-2.30029,1.05957c-.84326,0-1.48584-.32812-1.92773-.98438ZM127.67334,176.34492v.56055c0,.48291.12744.87744.38281,1.18262s.59033.45801,1.00488.45801c.49219,0,.87402-.19043,1.14502-.5708s.40674-.91943.40674-1.6167c0-1.23047-.47852-1.8457-1.43555-1.8457-.44189,0-.80322.16748-1.0835.50244s-.42041.77832-.42041,1.32959Z" fill="#2f2f2f"/>
        <path d="M140.06055,180.02949h-2.04395v-1.00488h-.02734c-.46924.78369-1.16455,1.17578-2.08496,1.17578-.6792,0-1.21338-.19238-1.60303-.57764s-.58447-.89893-.58447-1.5415c0-1.35791.8042-2.14209,2.41309-2.35156l1.90039-.25293c0-.76562-.41455-1.14844-1.24414-1.14844-.83398,0-1.62695.24854-2.37891.74512v-1.62695c.30078-.15479.71191-.2915,1.23389-.41016s.99707-.17773,1.42529-.17773c1.99609,0,2.99414.99561,2.99414,2.9873v4.18359ZM138.03027,177.18574v-.47168l-1.27148.16406c-.70166.09131-1.05273.40771-1.05273.9502,0,.24609.08545.44775.25635.60498s.40234.23584.69385.23584c.40576,0,.73584-.14014.99121-.42041s.38281-.63477.38281-1.06299Z" fill="#2f2f2f"/>
        <path d="M147.07422,179.77656c-.48779.28271-1.19189.42383-2.1123.42383-1.07568,0-1.9458-.32568-2.61133-.97754s-.99805-1.49268-.99805-2.52246c0-1.18945.35645-2.12695,1.06982-2.81299s1.66699-1.02881,2.86084-1.02881c.82471,0,1.42188.10938,1.79102.32812v1.83203c-.45117-.3374-.95459-.50586-1.51074-.50586-.61963,0-1.11084.18115-1.47314.54346s-.54346.8623-.54346,1.50049c0,.61963.17334,1.10645.51953,1.45947s.82275.52979,1.42871.52979c.5376,0,1.06396-.16846,1.5791-.50586v1.73633Z" fill="#2f2f2f"/>
        <path d="M154.78955,177.14473h-4.56641c.07275,1.01611.71338,1.52441,1.9209,1.52441.77002,0,1.44678-.18213,2.03027-.54688v1.55859c-.64697.34619-1.48779.51953-2.52246.51953-1.13037,0-2.00732-.31348-2.63184-.93994s-.93652-1.50049-.93652-2.62158c0-1.16211.3374-2.08252,1.01172-2.76172s1.50391-1.01855,2.48828-1.01855c1.021,0,1.81055.30322,2.36865.90918s.8374,1.42871.8374,2.46777v.90918ZM152.78662,175.81855c0-1.00244-.40576-1.50391-1.2168-1.50391-.34619,0-.646.14355-.89893.43066s-.40674.64502-.46143,1.07324h2.57715Z" fill="#2f2f2f"/>
      </g>
      <g>
        <path d="M218.84863,34.63301h-2.40625l-.69727-2.18066h-3.48633l-.69043,2.18066h-2.39258l3.56836-9.80273h2.61816l3.48633,9.80273ZM215.23926,30.75703l-1.05273-3.29492c-.07764-.24609-.13232-.54004-.16406-.88184h-.05469c-.02295.28711-.07959.57178-.1709.85449l-1.06641,3.32227h2.50879Z" fill="#2f2f2f"/>
        <path d="M226.21338,27.63301l-2.60449,7h-2.46094l-2.48145-7h2.31055l1.2168,4.31348c.13672.48779.21631.90234.23926,1.24414h.02734c.03174-.32373.11621-.72461.25293-1.20312l1.24414-4.35449h2.25586Z" fill="#2f2f2f"/>
        <path d="M232.86914,34.63301h-2.04395v-1.00488h-.02734c-.46924.78369-1.16455,1.17578-2.08496,1.17578-.6792,0-1.21338-.19238-1.60303-.57764s-.58447-.89893-.58447-1.5415c0-1.35791.8042-2.14209,2.41309-2.35156l1.90039-.25293c0-.76562-.41455-1.14844-1.24414-1.14844-.83398,0-1.62695.24854-2.37891.74512v-1.62695c.30078-.15479.71191-.2915,1.23389-.41016s.99707-.17773,1.42529-.17773c1.99609,0,2.99414.99561,2.99414,2.9873v4.18359ZM230.83887,31.78926v-.47168l-1.27148.16406c-.70166.09131-1.05273.40771-1.05273.9502,0,.24609.08545.44775.25635.60498s.40234.23584.69385.23584c.40576,0,.73584-.14014.99121-.42041s.38281-.63477.38281-1.06299Z" fill="#2f2f2f"/>
        <path d="M235.63965,26.52559c-.36475,0-.66309-.1084-.89551-.32471s-.34863-.48193-.34863-.79639c0-.32373.11621-.58789.34863-.79297s.53076-.30762.89551-.30762c.36914,0,.66895.10254.89893.30762s.34521.46924.34521.79297c0,.32812-.11523.59717-.34521.80664s-.52979.31445-.89893.31445ZM236.70605,34.63301h-2.16016v-7h2.16016v7Z" fill="#2f2f2f"/>
        <path d="M240.64111,34.63301h-2.16016v-10.36328h2.16016v10.36328Z" fill="#2f2f2f"/>
        <path d="M248.30615,34.63301h-2.04395v-1.00488h-.02734c-.46924.78369-1.16455,1.17578-2.08496,1.17578-.6792,0-1.21338-.19238-1.60303-.57764s-.58447-.89893-.58447-1.5415c0-1.35791.8042-2.14209,2.41309-2.35156l1.90039-.25293c0-.76562-.41455-1.14844-1.24414-1.14844-.83398,0-1.62695.24854-2.37891.74512v-1.62695c.30078-.15479.71191-.2915,1.23389-.41016s.99707-.17773,1.42529-.17773c1.99609,0,2.99414.99561,2.99414,2.9873v4.18359ZM246.27588,31.78926v-.47168l-1.27148.16406c-.70166.09131-1.05273.40771-1.05273.9502,0,.24609.08545.44775.25635.60498s.40234.23584.69385.23584c.40576,0,.73584-.14014.99121-.42041s.38281-.63477.38281-1.06299Z" fill="#2f2f2f"/>
        <path d="M252.18994,33.81953h-.02734v.81348h-2.16016v-10.36328h2.16016v4.41602h.02734c.5332-.81592,1.29199-1.22363,2.27637-1.22363.90234,0,1.59717.31006,2.08496.92969s.73145,1.46729.73145,2.54297c0,1.1665-.28467,2.10303-.85449,2.80957s-1.33057,1.05957-2.2832,1.05957c-.86133,0-1.51318-.32812-1.95508-.98438ZM252.12842,30.86641v.71777c0,.45117.12988.82471.38965,1.12109s.59229.44434.99805.44434c.49219,0,.87402-.19043,1.14502-.5708s.40674-.91943.40674-1.6167c0-.57861-.12402-1.03125-.37256-1.35693s-.60254-.48877-1.06299-.48877c-.43311,0-.79199.16162-1.07666.48535s-.42725.74512-.42725,1.26465Z" fill="#2f2f2f"/>
        <path d="M259.77783,26.52559c-.36475,0-.66309-.1084-.89551-.32471s-.34863-.48193-.34863-.79639c0-.32373.11621-.58789.34863-.79297s.53076-.30762.89551-.30762c.36914,0,.66895.10254.89893.30762s.34521.46924.34521.79297c0,.32812-.11523.59717-.34521.80664s-.52979.31445-.89893.31445ZM260.84424,34.63301h-2.16016v-7h2.16016v7Z" fill="#2f2f2f"/>
        <path d="M264.77979,34.63301h-2.16016v-10.36328h2.16016v10.36328Z" fill="#2f2f2f"/>
        <path d="M267.64844,26.52559c-.36475,0-.66309-.1084-.89551-.32471s-.34863-.48193-.34863-.79639c0-.32373.11621-.58789.34863-.79297s.53076-.30762.89551-.30762c.36914,0,.66895.10254.89893.30762s.34521.46924.34521.79297c0,.32812-.11523.59717-.34521.80664s-.52979.31445-.89893.31445ZM268.71484,34.63301h-2.16016v-7h2.16016v7Z" fill="#2f2f2f"/>
        <path d="M274.65088,34.55098c-.31885.16846-.7998.25293-1.44238.25293-1.52197,0-2.2832-.79053-2.2832-2.37207v-3.20605h-1.13477v-1.59277h1.13477v-1.51074l2.15332-.61523v2.12598h1.57227v1.59277h-1.57227v2.83008c0,.729.28955,1.09375.86816,1.09375.22803,0,.4624-.06592.7041-.19824v1.59961Z" fill="#2f2f2f"/>
        <path d="M282.87598,27.63301l-2.84375,7.56055c-.68359,1.81836-1.71338,2.72754-3.08984,2.72754-.52393,0-.95459-.05908-1.29199-.17773v-1.72266c.28711.16846.59912.25293.93652.25293.55615,0,.94336-.26221,1.16211-.78613l.36914-.86816-2.84375-6.98633h2.39258l1.30566,4.25879c.08203.26416.146.57666.19141.93652h.02734c.04102-.26416.11621-.57178.22559-.92285l1.31934-4.27246h2.13965Z" fill="#2f2f2f"/>
        <path d="M294.87305,34.63301h-7.89551v-1.27148l5.02441-6.7334h-4.66211v-1.79785h7.51953v1.2373l-4.91504,6.77441h4.92871v1.79102Z" fill="#2f2f2f"/>
        <path d="M299.3916,34.80391c-1.1665,0-2.08398-.32715-2.75146-.98096s-1.00146-1.5415-1.00146-2.6626c0-1.15771.34619-2.06348,1.03906-2.71729s1.62939-.98096,2.80957-.98096c1.16211,0,2.07373.32715,2.73438.98096s.99121,1.51855.99121,2.59424c0,1.16211-.34082,2.08057-1.02197,2.75488s-1.61426,1.01172-2.79932,1.01172ZM299.44629,29.11641c-.51025,0-.90674.17529-1.18945.52637s-.42383.84766-.42383,1.49023c0,1.34424.54248,2.0166,1.62695,2.0166,1.03467,0,1.55176-.69043,1.55176-2.07129,0-1.30811-.52197-1.96191-1.56543-1.96191Z" fill="#2f2f2f"/>
        <path d="M311.354,34.63301h-2.15332v-3.88965c0-1.08447-.38721-1.62695-1.16211-1.62695-.37354,0-.68115.14355-.92285.43066s-.3623.65186-.3623,1.09375v3.99219h-2.16016v-7h2.16016v1.10742h.02734c.51514-.85205,1.26465-1.27832,2.24902-1.27832,1.54932,0,2.32422.96143,2.32422,2.88477v4.28613Z" fill="#2f2f2f"/>
        <path d="M319.37598,31.74824h-4.56641c.07275,1.01611.71338,1.52441,1.9209,1.52441.77002,0,1.44678-.18213,2.03027-.54688v1.55859c-.64697.34619-1.48779.51953-2.52246.51953-1.13037,0-2.00732-.31348-2.63184-.93994s-.93652-1.50049-.93652-2.62158c0-1.16211.3374-2.08252,1.01172-2.76172s1.50391-1.01855,2.48828-1.01855c1.021,0,1.81055.30322,2.36865.90918s.8374,1.42871.8374,2.46777v.90918ZM317.37305,30.42207c0-1.00244-.40576-1.50391-1.2168-1.50391-.34619,0-.646.14355-.89893.43066s-.40674.64502-.46143,1.07324h2.57715Z" fill="#2f2f2f"/>
        <path d="M329.30176,24.61152v10.02148h-2.15332v-7.58789c-.11865.10498-.25879.2041-.42041.29736s-.33398.17773-.51611.25293-.37158.13916-.56738.19141-.38965.08984-.58105.11279v-1.81836c.56055-.16406,1.08936-.37354,1.58594-.62891s.9458-.53564,1.34668-.84082h1.30566Z" fill="#2f2f2f"/>
      </g>
      <g>
        <path d="M453.95264,90.35859h-5.83789v-9.80273h2.20801v8.01172h3.62988v1.79102Z" fill="#2f2f2f"/>
        <path d="M458.41553,90.52949c-1.1665,0-2.08398-.32715-2.75146-.98096s-1.00146-1.5415-1.00146-2.6626c0-1.15771.34619-2.06348,1.03906-2.71729s1.62939-.98096,2.80957-.98096c1.16211,0,2.07373.32715,2.73438.98096s.99121,1.51855.99121,2.59424c0,1.16211-.34082,2.08057-1.02197,2.75488s-1.61426,1.01172-2.79932,1.01172ZM458.47021,84.84199c-.51025,0-.90674.17529-1.18945.52637s-.42383.84766-.42383,1.49023c0,1.34424.54248,2.0166,1.62695,2.0166,1.03467,0,1.55176-.69043,1.55176-2.07129,0-1.30811-.52197-1.96191-1.56543-1.96191Z" fill="#2f2f2f"/>
        <path d="M469.45264,90.35859h-2.04395v-1.00488h-.02734c-.46924.78369-1.16455,1.17578-2.08496,1.17578-.6792,0-1.21338-.19238-1.60303-.57764s-.58447-.89893-.58447-1.5415c0-1.35791.8042-2.14209,2.41309-2.35156l1.90039-.25293c0-.76562-.41455-1.14844-1.24414-1.14844-.83398,0-1.62695.24854-2.37891.74512v-1.62695c.30078-.15479.71191-.2915,1.23389-.41016s.99707-.17773,1.42529-.17773c1.99609,0,2.99414.99561,2.99414,2.9873v4.18359ZM467.42236,87.51484v-.47168l-1.27148.16406c-.70166.09131-1.05273.40771-1.05273.9502,0,.24609.08545.44775.25635.60498s.40234.23584.69385.23584c.40576,0,.73584-.14014.99121-.42041s.38281-.63477.38281-1.06299Z" fill="#2f2f2f"/>
        <path d="M478.03369,90.35859h-2.16016v-.96387h-.02734c-.49219.75635-1.21436,1.13477-2.16699,1.13477-.875,0-1.5791-.30859-2.1123-.92627s-.7998-1.47998-.7998-2.5874c0-1.15771.29395-2.08496.88184-2.78223s1.35791-1.0459,2.31055-1.0459c.90234,0,1.53125.32373,1.88672.9707h.02734v-4.16309h2.16016v10.36328ZM475.91455,86.9543v-.52637c0-.45557-.13232-.83398-.39648-1.13477s-.6084-.45117-1.03223-.45117c-.47852,0-.85205.18799-1.12109.56396s-.40332.89209-.40332,1.54834c0,.61523.12988,1.08936.38965,1.42188s.61963.49902,1.08008.49902c.4375,0,.79395-.17529,1.06982-.52637s.41357-.81592.41357-1.39453Z" fill="#2f2f2f"/>
        <path d="M485.90186,89.54512h-.02734v.81348h-2.16016v-10.36328h2.16016v4.41602h.02734c.5332-.81592,1.29199-1.22363,2.27637-1.22363.90234,0,1.59717.31006,2.08496.92969s.73145,1.46729.73145,2.54297c0,1.1665-.28467,2.10303-.85449,2.80957s-1.33057,1.05957-2.2832,1.05957c-.86133,0-1.51318-.32812-1.95508-.98438ZM485.84033,86.59199v.71777c0,.45117.12988.82471.38965,1.12109s.59229.44434.99805.44434c.49219,0,.87402-.19043,1.14502-.5708s.40674-.91943.40674-1.6167c0-.57861-.12402-1.03125-.37256-1.35693s-.60254-.48877-1.06299-.48877c-.43311,0-.79199.16162-1.07666.48535s-.42725.74512-.42725,1.26465Z" fill="#2f2f2f"/>
        <path d="M498.22705,90.35859h-2.04395v-1.00488h-.02734c-.46924.78369-1.16455,1.17578-2.08496,1.17578-.6792,0-1.21338-.19238-1.60303-.57764s-.58447-.89893-.58447-1.5415c0-1.35791.8042-2.14209,2.41309-2.35156l1.90039-.25293c0-.76562-.41455-1.14844-1.24414-1.14844-.83398,0-1.62695.24854-2.37891.74512v-1.62695c.30078-.15479.71191-.2915,1.23389-.41016s.99707-.17773,1.42529-.17773c1.99609,0,2.99414.99561,2.99414,2.9873v4.18359ZM496.19678,87.51484v-.47168l-1.27148.16406c-.70166.09131-1.05273.40771-1.05273.9502,0,.24609.08545.44775.25635.60498s.40234.23584.69385.23584c.40576,0,.73584-.14014.99121-.42041s.38281-.63477.38281-1.06299Z" fill="#2f2f2f"/>
        <path d="M502.08496,90.35859h-2.16016v-10.36328h2.16016v10.36328Z" fill="#2f2f2f"/>
        <path d="M509.75,90.35859h-2.04395v-1.00488h-.02734c-.46924.78369-1.16455,1.17578-2.08496,1.17578-.6792,0-1.21338-.19238-1.60303-.57764s-.58447-.89893-.58447-1.5415c0-1.35791.8042-2.14209,2.41309-2.35156l1.90039-.25293c0-.76562-.41455-1.14844-1.24414-1.14844-.83398,0-1.62695.24854-2.37891.74512v-1.62695c.30078-.15479.71191-.2915,1.23389-.41016s.99707-.17773,1.42529-.17773c1.99609,0,2.99414.99561,2.99414,2.9873v4.18359ZM507.71973,87.51484v-.47168l-1.27148.16406c-.70166.09131-1.05273.40771-1.05273.9502,0,.24609.08545.44775.25635.60498s.40234.23584.69385.23584c.40576,0,.73584-.14014.99121-.42041s.38281-.63477.38281-1.06299Z" fill="#2f2f2f"/>
        <path d="M518.20703,90.35859h-2.15332v-3.88965c0-1.08447-.38721-1.62695-1.16211-1.62695-.37354,0-.68115.14355-.92285.43066s-.3623.65186-.3623,1.09375v3.99219h-2.16016v-7h2.16016v1.10742h.02734c.51514-.85205,1.26465-1.27832,2.24902-1.27832,1.54932,0,2.32422.96143,2.32422,2.88477v4.28613Z" fill="#2f2f2f"/>
        <path d="M525.2207,90.10566c-.48779.28271-1.19189.42383-2.1123.42383-1.07568,0-1.9458-.32568-2.61133-.97754s-.99805-1.49268-.99805-2.52246c0-1.18945.35645-2.12695,1.06982-2.81299s1.66699-1.02881,2.86084-1.02881c.82471,0,1.42188.10938,1.79102.32812v1.83203c-.45117-.3374-.95459-.50586-1.51074-.50586-.61963,0-1.11084.18115-1.47314.54346s-.54346.8623-.54346,1.50049c0,.61963.17334,1.10645.51953,1.45947s.82275.52979,1.42871.52979c.5376,0,1.06396-.16846,1.5791-.50586v1.73633Z" fill="#2f2f2f"/>
        <path d="M532.93604,87.47383h-4.56641c.07275,1.01611.71338,1.52441,1.9209,1.52441.77002,0,1.44678-.18213,2.03027-.54688v1.55859c-.64697.34619-1.48779.51953-2.52246.51953-1.13037,0-2.00732-.31348-2.63184-.93994s-.93652-1.50049-.93652-2.62158c0-1.16211.3374-2.08252,1.01172-2.76172s1.50391-1.01855,2.48828-1.01855c1.021,0,1.81055.30322,2.36865.90918s.8374,1.42871.8374,2.46777v.90918ZM530.93311,86.14766c0-1.00244-.40576-1.50391-1.2168-1.50391-.34619,0-.646.14355-.89893.43066s-.40674.64502-.46143,1.07324h2.57715Z" fill="#2f2f2f"/>
        <path d="M538.86768,85.30684c-.25977-.14111-.56299-.21191-.90918-.21191-.46924,0-.83643.17188-1.10059.51611s-.39648.8125-.39648,1.40479v3.34277h-2.16016v-7h2.16016v1.29883h.02734c.3418-.94775.95703-1.42188,1.8457-1.42188.22803,0,.40576.02734.5332.08203v1.98926Z" fill="#2f2f2f"/>
      </g>
      <g>
        <path d="M425.64844,34.63301h-2.40625l-.69727-2.18066h-3.48633l-.69043,2.18066h-2.39258l3.56836-9.80273h2.61816l3.48633,9.80273ZM422.03906,30.75703l-1.05273-3.29492c-.07764-.24609-.13232-.54004-.16406-.88184h-.05469c-.02295.28711-.07959.57178-.1709.85449l-1.06641,3.32227h2.50879Z" fill="#2f2f2f"/>
        <path d="M433.01318,27.63301l-2.60449,7h-2.46094l-2.48145-7h2.31055l1.2168,4.31348c.13672.48779.21631.90234.23926,1.24414h.02734c.03174-.32373.11621-.72461.25293-1.20312l1.24414-4.35449h2.25586Z" fill="#2f2f2f"/>
        <path d="M439.66895,34.63301h-2.04395v-1.00488h-.02734c-.46924.78369-1.16455,1.17578-2.08496,1.17578-.6792,0-1.21338-.19238-1.60303-.57764s-.58447-.89893-.58447-1.5415c0-1.35791.8042-2.14209,2.41309-2.35156l1.90039-.25293c0-.76562-.41455-1.14844-1.24414-1.14844-.83398,0-1.62695.24854-2.37891.74512v-1.62695c.30078-.15479.71191-.2915,1.23389-.41016s.99707-.17773,1.42529-.17773c1.99609,0,2.99414.99561,2.99414,2.9873v4.18359ZM437.63867,31.78926v-.47168l-1.27148.16406c-.70166.09131-1.05273.40771-1.05273.9502,0,.24609.08545.44775.25635.60498s.40234.23584.69385.23584c.40576,0,.73584-.14014.99121-.42041s.38281-.63477.38281-1.06299Z" fill="#2f2f2f"/>
        <path d="M442.43945,26.52559c-.36475,0-.66309-.1084-.89551-.32471s-.34863-.48193-.34863-.79639c0-.32373.11621-.58789.34863-.79297s.53076-.30762.89551-.30762c.36914,0,.66895.10254.89893.30762s.34521.46924.34521.79297c0,.32812-.11523.59717-.34521.80664s-.52979.31445-.89893.31445ZM443.50586,34.63301h-2.16016v-7h2.16016v7Z" fill="#2f2f2f"/>
        <path d="M447.44092,34.63301h-2.16016v-10.36328h2.16016v10.36328Z" fill="#2f2f2f"/>
        <path d="M455.10596,34.63301h-2.04395v-1.00488h-.02734c-.46924.78369-1.16455,1.17578-2.08496,1.17578-.6792,0-1.21338-.19238-1.60303-.57764s-.58447-.89893-.58447-1.5415c0-1.35791.8042-2.14209,2.41309-2.35156l1.90039-.25293c0-.76562-.41455-1.14844-1.24414-1.14844-.83398,0-1.62695.24854-2.37891.74512v-1.62695c.30078-.15479.71191-.2915,1.23389-.41016s.99707-.17773,1.42529-.17773c1.99609,0,2.99414.99561,2.99414,2.9873v4.18359ZM453.07568,31.78926v-.47168l-1.27148.16406c-.70166.09131-1.05273.40771-1.05273.9502,0,.24609.08545.44775.25635.60498s.40234.23584.69385.23584c.40576,0,.73584-.14014.99121-.42041s.38281-.63477.38281-1.06299Z" fill="#2f2f2f"/>
        <path d="M458.98975,33.81953h-.02734v.81348h-2.16016v-10.36328h2.16016v4.41602h.02734c.5332-.81592,1.29199-1.22363,2.27637-1.22363.90234,0,1.59717.31006,2.08496.92969s.73145,1.46729.73145,2.54297c0,1.1665-.28467,2.10303-.85449,2.80957s-1.33057,1.05957-2.2832,1.05957c-.86133,0-1.51318-.32812-1.95508-.98438ZM458.92822,30.86641v.71777c0,.45117.12988.82471.38965,1.12109s.59229.44434.99805.44434c.49219,0,.87402-.19043,1.14502-.5708s.40674-.91943.40674-1.6167c0-.57861-.12402-1.03125-.37256-1.35693s-.60254-.48877-1.06299-.48877c-.43311,0-.79199.16162-1.07666.48535s-.42725.74512-.42725,1.26465Z" fill="#2f2f2f"/>
        <path d="M466.57764,26.52559c-.36475,0-.66309-.1084-.89551-.32471s-.34863-.48193-.34863-.79639c0-.32373.11621-.58789.34863-.79297s.53076-.30762.89551-.30762c.36914,0,.66895.10254.89893.30762s.34521.46924.34521.79297c0,.32812-.11523.59717-.34521.80664s-.52979.31445-.89893.31445ZM467.64404,34.63301h-2.16016v-7h2.16016v7Z" fill="#2f2f2f"/>
        <path d="M471.57959,34.63301h-2.16016v-10.36328h2.16016v10.36328Z" fill="#2f2f2f"/>
        <path d="M474.44824,26.52559c-.36475,0-.66309-.1084-.89551-.32471s-.34863-.48193-.34863-.79639c0-.32373.11621-.58789.34863-.79297s.53076-.30762.89551-.30762c.36914,0,.66895.10254.89893.30762s.34521.46924.34521.79297c0,.32812-.11523.59717-.34521.80664s-.52979.31445-.89893.31445ZM475.51465,34.63301h-2.16016v-7h2.16016v7Z" fill="#2f2f2f"/>
        <path d="M481.45068,34.55098c-.31885.16846-.7998.25293-1.44238.25293-1.52197,0-2.2832-.79053-2.2832-2.37207v-3.20605h-1.13477v-1.59277h1.13477v-1.51074l2.15332-.61523v2.12598h1.57227v1.59277h-1.57227v2.83008c0,.729.28955,1.09375.86816,1.09375.22803,0,.4624-.06592.7041-.19824v1.59961Z" fill="#2f2f2f"/>
        <path d="M489.67578,27.63301l-2.84375,7.56055c-.68359,1.81836-1.71338,2.72754-3.08984,2.72754-.52393,0-.95459-.05908-1.29199-.17773v-1.72266c.28711.16846.59912.25293.93652.25293.55615,0,.94336-.26221,1.16211-.78613l.36914-.86816-2.84375-6.98633h2.39258l1.30566,4.25879c.08203.26416.146.57666.19141.93652h.02734c.04102-.26416.11621-.57178.22559-.92285l1.31934-4.27246h2.13965Z" fill="#2f2f2f"/>
        <path d="M501.67285,34.63301h-7.89551v-1.27148l5.02441-6.7334h-4.66211v-1.79785h7.51953v1.2373l-4.91504,6.77441h4.92871v1.79102Z" fill="#2f2f2f"/>
        <path d="M506.19141,34.80391c-1.1665,0-2.08398-.32715-2.75146-.98096s-1.00146-1.5415-1.00146-2.6626c0-1.15771.34619-2.06348,1.03906-2.71729s1.62939-.98096,2.80957-.98096c1.16211,0,2.07373.32715,2.73438.98096s.99121,1.51855.99121,2.59424c0,1.16211-.34082,2.08057-1.02197,2.75488s-1.61426,1.01172-2.79932,1.01172ZM506.24609,29.11641c-.51025,0-.90674.17529-1.18945.52637s-.42383.84766-.42383,1.49023c0,1.34424.54248,2.0166,1.62695,2.0166,1.03467,0,1.55176-.69043,1.55176-2.07129,0-1.30811-.52197-1.96191-1.56543-1.96191Z" fill="#2f2f2f"/>
        <path d="M518.15381,34.63301h-2.15332v-3.88965c0-1.08447-.38721-1.62695-1.16211-1.62695-.37354,0-.68115.14355-.92285.43066s-.3623.65186-.3623,1.09375v3.99219h-2.16016v-7h2.16016v1.10742h.02734c.51514-.85205,1.26465-1.27832,2.24902-1.27832,1.54932,0,2.32422.96143,2.32422,2.88477v4.28613Z" fill="#2f2f2f"/>
        <path d="M526.17578,31.74824h-4.56641c.07275,1.01611.71338,1.52441,1.9209,1.52441.77002,0,1.44678-.18213,2.03027-.54688v1.55859c-.64697.34619-1.48779.51953-2.52246.51953-1.13037,0-2.00732-.31348-2.63184-.93994s-.93652-1.50049-.93652-2.62158c0-1.16211.3374-2.08252,1.01172-2.76172s1.50391-1.01855,2.48828-1.01855c1.021,0,1.81055.30322,2.36865.90918s.8374,1.42871.8374,2.46777v.90918ZM524.17285,30.42207c0-1.00244-.40576-1.50391-1.2168-1.50391-.34619,0-.646.14355-.89893.43066s-.40674.64502-.46143,1.07324h2.57715Z" fill="#2f2f2f"/>
        <path d="M533.34668,32.84199h4.15625v1.79102h-6.52148v-.73828c0-.50146.08447-.95117.25293-1.3501s.38037-.75635.63574-1.07324.53418-.59717.8374-.84082.59131-.46387.86475-.65967c.28711-.20508.53906-.40088.75537-.58789s.39893-.37256.54688-.55713.25879-.37158.33154-.56055.10938-.39062.10938-.60498c0-.41943-.11865-.73584-.35547-.9502s-.59912-.32129-1.08691-.32129c-.84326,0-1.6499.33496-2.41992,1.00488v-1.90039c.85205-.55127,1.81396-.82715,2.88477-.82715.49658,0,.94238.06494,1.33643.19482s.72803.31543,1.00146.55713.48193.53418.62549.87842.21533.72803.21533,1.15186c0,.45117-.06934.85205-.2085,1.20312s-.32373.66992-.55371.95703-.49561.55029-.79639.78955-.61279.4707-.93652.69385c-.21875.15479-.42969.30859-.63232.46143s-.38184.30322-.53662.45117-.27783.29297-.36914.43408-.13672.27588-.13672.40332Z" fill="#2f2f2f"/>
      </g>
      <g>
        <path d="M632.59082,34.63301h-2.40625l-.69727-2.18066h-3.48633l-.69043,2.18066h-2.39258l3.56836-9.80273h2.61816l3.48633,9.80273ZM628.98145,30.75703l-1.05273-3.29492c-.07764-.24609-.13232-.54004-.16406-.88184h-.05469c-.02295.28711-.07959.57178-.1709.85449l-1.06641,3.32227h2.50879Z" fill="#2f2f2f"/>
        <path d="M639.95557,27.63301l-2.60449,7h-2.46094l-2.48145-7h2.31055l1.2168,4.31348c.13672.48779.21631.90234.23926,1.24414h.02734c.03174-.32373.11621-.72461.25293-1.20312l1.24414-4.35449h2.25586Z" fill="#2f2f2f"/>
        <path d="M646.61133,34.63301h-2.04395v-1.00488h-.02734c-.46924.78369-1.16455,1.17578-2.08496,1.17578-.6792,0-1.21338-.19238-1.60303-.57764s-.58447-.89893-.58447-1.5415c0-1.35791.8042-2.14209,2.41309-2.35156l1.90039-.25293c0-.76562-.41455-1.14844-1.24414-1.14844-.83398,0-1.62695.24854-2.37891.74512v-1.62695c.30078-.15479.71191-.2915,1.23389-.41016s.99707-.17773,1.42529-.17773c1.99609,0,2.99414.99561,2.99414,2.9873v4.18359ZM644.58105,31.78926v-.47168l-1.27148.16406c-.70166.09131-1.05273.40771-1.05273.9502,0,.24609.08545.44775.25635.60498s.40234.23584.69385.23584c.40576,0,.73584-.14014.99121-.42041s.38281-.63477.38281-1.06299Z" fill="#2f2f2f"/>
        <path d="M649.38184,26.52559c-.36475,0-.66309-.1084-.89551-.32471s-.34863-.48193-.34863-.79639c0-.32373.11621-.58789.34863-.79297s.53076-.30762.89551-.30762c.36914,0,.66895.10254.89893.30762s.34521.46924.34521.79297c0,.32812-.11523.59717-.34521.80664s-.52979.31445-.89893.31445ZM650.44824,34.63301h-2.16016v-7h2.16016v7Z" fill="#2f2f2f"/>
        <path d="M654.3833,34.63301h-2.16016v-10.36328h2.16016v10.36328Z" fill="#2f2f2f"/>
        <path d="M662.04834,34.63301h-2.04395v-1.00488h-.02734c-.46924.78369-1.16455,1.17578-2.08496,1.17578-.6792,0-1.21338-.19238-1.60303-.57764s-.58447-.89893-.58447-1.5415c0-1.35791.8042-2.14209,2.41309-2.35156l1.90039-.25293c0-.76562-.41455-1.14844-1.24414-1.14844-.83398,0-1.62695.24854-2.37891.74512v-1.62695c.30078-.15479.71191-.2915,1.23389-.41016s.99707-.17773,1.42529-.17773c1.99609,0,2.99414.99561,2.99414,2.9873v4.18359ZM660.01807,31.78926v-.47168l-1.27148.16406c-.70166.09131-1.05273.40771-1.05273.9502,0,.24609.08545.44775.25635.60498s.40234.23584.69385.23584c.40576,0,.73584-.14014.99121-.42041s.38281-.63477.38281-1.06299Z" fill="#2f2f2f"/>
        <path d="M665.93213,33.81953h-.02734v.81348h-2.16016v-10.36328h2.16016v4.41602h.02734c.5332-.81592,1.29199-1.22363,2.27637-1.22363.90234,0,1.59717.31006,2.08496.92969s.73145,1.46729.73145,2.54297c0,1.1665-.28467,2.10303-.85449,2.80957s-1.33057,1.05957-2.2832,1.05957c-.86133,0-1.51318-.32812-1.95508-.98438ZM665.87061,30.86641v.71777c0,.45117.12988.82471.38965,1.12109s.59229.44434.99805.44434c.49219,0,.87402-.19043,1.14502-.5708s.40674-.91943.40674-1.6167c0-.57861-.12402-1.03125-.37256-1.35693s-.60254-.48877-1.06299-.48877c-.43311,0-.79199.16162-1.07666.48535s-.42725.74512-.42725,1.26465Z" fill="#2f2f2f"/>
        <path d="M673.52002,26.52559c-.36475,0-.66309-.1084-.89551-.32471s-.34863-.48193-.34863-.79639c0-.32373.11621-.58789.34863-.79297s.53076-.30762.89551-.30762c.36914,0,.66895.10254.89893.30762s.34521.46924.34521.79297c0,.32812-.11523.59717-.34521.80664s-.52979.31445-.89893.31445ZM674.58643,34.63301h-2.16016v-7h2.16016v7Z" fill="#2f2f2f"/>
        <path d="M678.52197,34.63301h-2.16016v-10.36328h2.16016v10.36328Z" fill="#2f2f2f"/>
        <path d="M681.39062,26.52559c-.36475,0-.66309-.1084-.89551-.32471s-.34863-.48193-.34863-.79639c0-.32373.11621-.58789.34863-.79297s.53076-.30762.89551-.30762c.36914,0,.66895.10254.89893.30762s.34521.46924.34521.79297c0,.32812-.11523.59717-.34521.80664s-.52979.31445-.89893.31445ZM682.45703,34.63301h-2.16016v-7h2.16016v7Z" fill="#2f2f2f"/>
        <path d="M688.39307,34.55098c-.31885.16846-.7998.25293-1.44238.25293-1.52197,0-2.2832-.79053-2.2832-2.37207v-3.20605h-1.13477v-1.59277h1.13477v-1.51074l2.15332-.61523v2.12598h1.57227v1.59277h-1.57227v2.83008c0,.729.28955,1.09375.86816,1.09375.22803,0,.4624-.06592.7041-.19824v1.59961Z" fill="#2f2f2f"/>
        <path d="M696.61816,27.63301l-2.84375,7.56055c-.68359,1.81836-1.71338,2.72754-3.08984,2.72754-.52393,0-.95459-.05908-1.29199-.17773v-1.72266c.28711.16846.59912.25293.93652.25293.55615,0,.94336-.26221,1.16211-.78613l.36914-.86816-2.84375-6.98633h2.39258l1.30566,4.25879c.08203.26416.146.57666.19141.93652h.02734c.04102-.26416.11621-.57178.22559-.92285l1.31934-4.27246h2.13965Z" fill="#2f2f2f"/>
        <path d="M708.61523,34.63301h-7.89551v-1.27148l5.02441-6.7334h-4.66211v-1.79785h7.51953v1.2373l-4.91504,6.77441h4.92871v1.79102Z" fill="#2f2f2f"/>
        <path d="M713.13379,34.80391c-1.1665,0-2.08398-.32715-2.75146-.98096s-1.00146-1.5415-1.00146-2.6626c0-1.15771.34619-2.06348,1.03906-2.71729s1.62939-.98096,2.80957-.98096c1.16211,0,2.07373.32715,2.73438.98096s.99121,1.51855.99121,2.59424c0,1.16211-.34082,2.08057-1.02197,2.75488s-1.61426,1.01172-2.79932,1.01172ZM713.18848,29.11641c-.51025,0-.90674.17529-1.18945.52637s-.42383.84766-.42383,1.49023c0,1.34424.54248,2.0166,1.62695,2.0166,1.03467,0,1.55176-.69043,1.55176-2.07129,0-1.30811-.52197-1.96191-1.56543-1.96191Z" fill="#2f2f2f"/>
        <path d="M725.09619,34.63301h-2.15332v-3.88965c0-1.08447-.38721-1.62695-1.16211-1.62695-.37354,0-.68115.14355-.92285.43066s-.3623.65186-.3623,1.09375v3.99219h-2.16016v-7h2.16016v1.10742h.02734c.51514-.85205,1.26465-1.27832,2.24902-1.27832,1.54932,0,2.32422.96143,2.32422,2.88477v4.28613Z" fill="#2f2f2f"/>
        <path d="M733.11816,31.74824h-4.56641c.07275,1.01611.71338,1.52441,1.9209,1.52441.77002,0,1.44678-.18213,2.03027-.54688v1.55859c-.64697.34619-1.48779.51953-2.52246.51953-1.13037,0-2.00732-.31348-2.63184-.93994s-.93652-1.50049-.93652-2.62158c0-1.16211.3374-2.08252,1.01172-2.76172s1.50391-1.01855,2.48828-1.01855c1.021,0,1.81055.30322,2.36865.90918s.8374,1.42871.8374,2.46777v.90918ZM731.11523,30.42207c0-1.00244-.40576-1.50391-1.2168-1.50391-.34619,0-.646.14355-.89893.43066s-.40674.64502-.46143,1.07324h2.57715Z" fill="#2f2f2f"/>
        <path d="M738.15625,34.31172v-1.87988c.65625.47852,1.42188.71777,2.29688.71777.55127,0,.98096-.11865,1.28857-.35547s.46143-.56738.46143-.99121c0-.4375-.19043-.7749-.5708-1.01172s-.90332-.35547-1.56885-.35547h-.90918v-1.6543h.84082c1.27588,0,1.91406-.42383,1.91406-1.27148,0-.79736-.48975-1.19629-1.46973-1.19629-.65625,0-1.29443.21191-1.91406.63574v-1.76367c.68799-.34619,1.49023-.51953,2.40625-.51953,1.00244,0,1.7832.22559,2.34131.67676s.8374,1.03662.8374,1.75684c0,1.28076-.64941,2.08252-1.94824,2.40625v.03418c.69287.08643,1.23975.33838,1.64062.75537s.60156.92871.60156,1.53467c0,.91602-.33496,1.64062-1.00488,2.17383s-1.59521.7998-2.77539.7998c-1.01172,0-1.83447-.16406-2.46777-.49219Z" fill="#2f2f2f"/>
      </g>
      <g>
        <path d="M441.37109,186.44404c-.98438.55615-2.07812.83398-3.28125.83398-1.39893,0-2.53027-.45117-3.39404-1.35352s-1.29541-2.09619-1.29541-3.58203c0-1.51758.47949-2.7627,1.43896-3.73584s2.1748-1.45947,3.64697-1.45947c1.06641,0,1.96191.17334,2.68652.51953v1.27148c-.79297-.50146-1.73193-.75195-2.81641-.75195-1.09814,0-1.99854.37842-2.7002,1.13477s-1.05273,1.73633-1.05273,2.93945c0,1.23975.32568,2.21387.97754,2.92236s1.53564,1.06299,2.65234,1.06299c.76562,0,1.42871-.15283,1.98926-.45801v-2.74805h-2.14648v-1.03906h3.29492v4.44336Z" fill="#2f2f2f"/>
        <path d="M447.10547,181.24873c-.1958-.15039-.47852-.22559-.84766-.22559-.47852,0-.87842.22559-1.19971.67676s-.48193,1.06641-.48193,1.8457v3.56836h-1.12109v-7h1.12109v1.44238h.02734c.15967-.49219.40332-.87598.73145-1.15186s.69482-.41357,1.10059-.41357c.2915,0,.51514.03174.66992.0957v1.16211Z" fill="#2f2f2f"/>
        <path d="M453.28125,187.11396h-1.12109v-1.09375h-.02734c-.48779.83838-1.20557,1.25781-2.15332,1.25781-.69727,0-1.24316-.18457-1.63721-.55371s-.59131-.85889-.59131-1.46973c0-1.30811.77002-2.06885,2.31055-2.2832l2.09863-.29395c0-1.18945-.48096-1.78418-1.44238-1.78418-.84326,0-1.604.28711-2.2832.86133v-1.14844c.68799-.4375,1.48096-.65625,2.37891-.65625,1.64502,0,2.46777.87061,2.46777,2.61133v4.55273ZM452.16016,183.57295l-1.68848.23242c-.51953.07275-.91162.20166-1.17578.38623s-.39648.51172-.39648.98096c0,.3418.12207.62109.36572.8374s.56836.32471.97412.32471c.55615,0,1.01514-.19482,1.37744-.58447s.54346-.88281.54346-1.47998v-.69727Z" fill="#2f2f2f"/>
        <path d="M458.7168,177.73506c-.21875-.12305-.46729-.18457-.74512-.18457-.78369,0-1.17578.49463-1.17578,1.4834v1.08008h1.64062v.95703h-1.64062v6.04297h-1.11426v-6.04297h-1.19629v-.95703h1.19629v-1.13477c0-.73389.21191-1.31348.63574-1.73975s.95264-.63916,1.58594-.63916c.3418,0,.61279.04102.81348.12305v1.01172Z" fill="#2f2f2f"/>
        <path d="M464.61133,187.11396h-1.12109v-1.09375h-.02734c-.48779.83838-1.20557,1.25781-2.15332,1.25781-.69727,0-1.24316-.18457-1.63721-.55371s-.59131-.85889-.59131-1.46973c0-1.30811.77002-2.06885,2.31055-2.2832l2.09863-.29395c0-1.18945-.48096-1.78418-1.44238-1.78418-.84326,0-1.604.28711-2.2832.86133v-1.14844c.68799-.4375,1.48096-.65625,2.37891-.65625,1.64502,0,2.46777.87061,2.46777,2.61133v4.55273ZM463.49023,183.57295l-1.68848.23242c-.51953.07275-.91162.20166-1.17578.38623s-.39648.51172-.39648.98096c0,.3418.12207.62109.36572.8374s.56836.32471.97412.32471c.55615,0,1.01514-.19482,1.37744-.58447s.54346-.88281.54346-1.47998v-.69727Z" fill="#2f2f2f"/>
        <path d="M472.44287,187.11396h-1.12109v-3.99219c0-1.48584-.54248-2.22852-1.62695-2.22852-.56055,0-1.02441.21094-1.39111.63232s-.55029.95361-.55029,1.59619v3.99219h-1.12109v-7h1.12109v1.16211h.02734c.52881-.88428,1.29443-1.32617,2.29688-1.32617.76562,0,1.35107.24707,1.75684.7417s.6084,1.20898.6084,2.14307v4.2793Z" fill="#2f2f2f"/>
        <path d="M479.4751,187.11396h-1.12109v-1.09375h-.02734c-.48779.83838-1.20557,1.25781-2.15332,1.25781-.69727,0-1.24316-.18457-1.63721-.55371s-.59131-.85889-.59131-1.46973c0-1.30811.77002-2.06885,2.31055-2.2832l2.09863-.29395c0-1.18945-.48096-1.78418-1.44238-1.78418-.84326,0-1.604.28711-2.2832.86133v-1.14844c.68799-.4375,1.48096-.65625,2.37891-.65625,1.64502,0,2.46777.87061,2.46777,2.61133v4.55273ZM478.354,183.57295l-1.68848.23242c-.51953.07275-.91162.20166-1.17578.38623s-.39648.51172-.39648.98096c0,.3418.12207.62109.36572.8374s.56836.32471.97412.32471c.55615,0,1.01514-.19482,1.37744-.58447s.54346-.88281.54346-1.47998v-.69727Z" fill="#2f2f2f"/>
        <path d="M484.99854,186.86104v-1.20312c.61084.45117,1.28271.67676,2.0166.67676.98438,0,1.47656-.32812,1.47656-.98438,0-.18701-.04199-.34521-.12646-.4751s-.19824-.24512-.3418-.34521-.31201-.19043-.50586-.27002-.40234-.16309-.62549-.24951c-.31006-.12305-.58203-.24707-.81689-.37256s-.43066-.2666-.58789-.42383-.27588-.33594-.35547-.53662-.11963-.43506-.11963-.7041c0-.32812.0752-.61865.22559-.87158s.35107-.46484.60156-.63574.53662-.2998.85791-.38623.65283-.12988.99463-.12988c.60596,0,1.14844.10498,1.62695.31445v1.13477c-.51514-.3374-1.10742-.50586-1.77734-.50586-.20947,0-.39893.02393-.56738.07178s-.31348.11523-.43408.20166-.21436.19043-.28027.31104-.09912.25391-.09912.3999c0,.18213.0332.33496.09912.45801s.16309.23242.29053.32812.28271.18213.46484.25977.38965.16162.62207.25293c.31006.11865.58789.24023.83398.36572s.45557.2666.62891.42383.30664.33838.3999.54346.14014.44873.14014.73145c0,.34619-.07617.64697-.229.90234s-.35645.46729-.61182.63574-.54932.29395-.88184.37598-.68115.12305-1.0459.12305c-.72021,0-1.34424-.13916-1.87305-.41699Z" fill="#2f2f2f"/>
        <path d="M496.95361,183.89424h-4.94238c.01807.7793.22803,1.38086.62891,1.80469s.95264.63574,1.6543.63574c.78857,0,1.51318-.25977,2.17383-.7793v1.05273c-.61523.44678-1.42871.66992-2.44043.66992-.98877,0-1.76611-.31787-2.33105-.95361s-.84766-1.53027-.84766-2.68311c0-1.08936.30859-1.97656.92627-2.6626s1.38428-1.02881,2.30029-1.02881,1.62451.29639,2.12598.88867.75195,1.41504.75195,2.46777v.58789ZM495.80518,182.94404c-.00439-.64697-.16064-1.15088-.46826-1.51074s-.73486-.54004-1.28174-.54004c-.52881,0-.97754.18896-1.34668.56738s-.59717.87256-.68359,1.4834h3.78027Z" fill="#2f2f2f"/>
        <path d="M502.28662,181.24873c-.1958-.15039-.47852-.22559-.84766-.22559-.47852,0-.87842.22559-1.19971.67676s-.48193,1.06641-.48193,1.8457v3.56836h-1.12109v-7h1.12109v1.44238h.02734c.15967-.49219.40332-.87598.73145-1.15186s.69482-.41357,1.10059-.41357c.2915,0,.51514.03174.66992.0957v1.16211Z" fill="#2f2f2f"/>
        <path d="M509.55957,180.11396l-2.78906,7h-1.10059l-2.65234-7h1.23047l1.77734,5.08594c.13232.37354.21436.69971.24609.97754h.02734c.04541-.35107.11865-.66748.21875-.9502l1.85938-5.11328h1.18262Z" fill="#2f2f2f"/>
        <path d="M516.20117,183.89424h-4.94238c.01807.7793.22803,1.38086.62891,1.80469s.95264.63574,1.6543.63574c.78857,0,1.51318-.25977,2.17383-.7793v1.05273c-.61523.44678-1.42871.66992-2.44043.66992-.98877,0-1.76611-.31787-2.33105-.95361s-.84766-1.53027-.84766-2.68311c0-1.08936.30859-1.97656.92627-2.6626s1.38428-1.02881,2.30029-1.02881,1.62451.29639,2.12598.88867.75195,1.41504.75195,2.46777v.58789ZM515.05273,182.94404c-.00439-.64697-.16064-1.15088-.46826-1.51074s-.73486-.54004-1.28174-.54004c-.52881,0-.97754.18896-1.34668.56738s-.59717.87256-.68359,1.4834h3.78027Z" fill="#2f2f2f"/>
        <path d="M521.53418,181.24873c-.1958-.15039-.47852-.22559-.84766-.22559-.47852,0-.87842.22559-1.19971.67676s-.48193,1.06641-.48193,1.8457v3.56836h-1.12109v-7h1.12109v1.44238h.02734c.15967-.49219.40332-.87598.73145-1.15186s.69482-.41357,1.10059-.41357c.2915,0,.51514.03174.66992.0957v1.16211Z" fill="#2f2f2f"/>
      </g>
      <g>
        <path d="M234.5708,186.44404c-.98438.55615-2.07812.83398-3.28125.83398-1.39893,0-2.53027-.45117-3.39404-1.35352s-1.29541-2.09619-1.29541-3.58203c0-1.51758.47949-2.7627,1.43896-3.73584s2.1748-1.45947,3.64697-1.45947c1.06641,0,1.96191.17334,2.68652.51953v1.27148c-.79297-.50146-1.73193-.75195-2.81641-.75195-1.09814,0-1.99854.37842-2.7002,1.13477s-1.05273,1.73633-1.05273,2.93945c0,1.23975.32568,2.21387.97754,2.92236s1.53564,1.06299,2.65234,1.06299c.76562,0,1.42871-.15283,1.98926-.45801v-2.74805h-2.14648v-1.03906h3.29492v4.44336Z" fill="#2f2f2f"/>
        <path d="M240.30518,181.24873c-.1958-.15039-.47852-.22559-.84766-.22559-.47852,0-.87842.22559-1.19971.67676s-.48193,1.06641-.48193,1.8457v3.56836h-1.12109v-7h1.12109v1.44238h.02734c.15967-.49219.40332-.87598.73145-1.15186s.69482-.41357,1.10059-.41357c.2915,0,.51514.03174.66992.0957v1.16211Z" fill="#2f2f2f"/>
        <path d="M246.48096,187.11396h-1.12109v-1.09375h-.02734c-.48779.83838-1.20557,1.25781-2.15332,1.25781-.69727,0-1.24316-.18457-1.63721-.55371s-.59131-.85889-.59131-1.46973c0-1.30811.77002-2.06885,2.31055-2.2832l2.09863-.29395c0-1.18945-.48096-1.78418-1.44238-1.78418-.84326,0-1.604.28711-2.2832.86133v-1.14844c.68799-.4375,1.48096-.65625,2.37891-.65625,1.64502,0,2.46777.87061,2.46777,2.61133v4.55273ZM245.35986,183.57295l-1.68848.23242c-.51953.07275-.91162.20166-1.17578.38623s-.39648.51172-.39648.98096c0,.3418.12207.62109.36572.8374s.56836.32471.97412.32471c.55615,0,1.01514-.19482,1.37744-.58447s.54346-.88281.54346-1.47998v-.69727Z" fill="#2f2f2f"/>
        <path d="M251.9165,177.73506c-.21875-.12305-.46729-.18457-.74512-.18457-.78369,0-1.17578.49463-1.17578,1.4834v1.08008h1.64062v.95703h-1.64062v6.04297h-1.11426v-6.04297h-1.19629v-.95703h1.19629v-1.13477c0-.73389.21191-1.31348.63574-1.73975s.95264-.63916,1.58594-.63916c.3418,0,.61279.04102.81348.12305v1.01172Z" fill="#2f2f2f"/>
        <path d="M257.81104,187.11396h-1.12109v-1.09375h-.02734c-.48779.83838-1.20557,1.25781-2.15332,1.25781-.69727,0-1.24316-.18457-1.63721-.55371s-.59131-.85889-.59131-1.46973c0-1.30811.77002-2.06885,2.31055-2.2832l2.09863-.29395c0-1.18945-.48096-1.78418-1.44238-1.78418-.84326,0-1.604.28711-2.2832.86133v-1.14844c.68799-.4375,1.48096-.65625,2.37891-.65625,1.64502,0,2.46777.87061,2.46777,2.61133v4.55273ZM256.68994,183.57295l-1.68848.23242c-.51953.07275-.91162.20166-1.17578.38623s-.39648.51172-.39648.98096c0,.3418.12207.62109.36572.8374s.56836.32471.97412.32471c.55615,0,1.01514-.19482,1.37744-.58447s.54346-.88281.54346-1.47998v-.69727Z" fill="#2f2f2f"/>
        <path d="M265.64258,187.11396h-1.12109v-3.99219c0-1.48584-.54248-2.22852-1.62695-2.22852-.56055,0-1.02441.21094-1.39111.63232s-.55029.95361-.55029,1.59619v3.99219h-1.12109v-7h1.12109v1.16211h.02734c.52881-.88428,1.29443-1.32617,2.29688-1.32617.76562,0,1.35107.24707,1.75684.7417s.6084,1.20898.6084,2.14307v4.2793Z" fill="#2f2f2f"/>
        <path d="M272.6748,187.11396h-1.12109v-1.09375h-.02734c-.48779.83838-1.20557,1.25781-2.15332,1.25781-.69727,0-1.24316-.18457-1.63721-.55371s-.59131-.85889-.59131-1.46973c0-1.30811.77002-2.06885,2.31055-2.2832l2.09863-.29395c0-1.18945-.48096-1.78418-1.44238-1.78418-.84326,0-1.604.28711-2.2832.86133v-1.14844c.68799-.4375,1.48096-.65625,2.37891-.65625,1.64502,0,2.46777.87061,2.46777,2.61133v4.55273ZM271.55371,183.57295l-1.68848.23242c-.51953.07275-.91162.20166-1.17578.38623s-.39648.51172-.39648.98096c0,.3418.12207.62109.36572.8374s.56836.32471.97412.32471c.55615,0,1.01514-.19482,1.37744-.58447s.54346-.88281.54346-1.47998v-.69727Z" fill="#2f2f2f"/>
        <path d="M278.19824,186.86104v-1.20312c.61084.45117,1.28271.67676,2.0166.67676.98438,0,1.47656-.32812,1.47656-.98438,0-.18701-.04199-.34521-.12646-.4751s-.19824-.24512-.3418-.34521-.31201-.19043-.50586-.27002-.40234-.16309-.62549-.24951c-.31006-.12305-.58203-.24707-.81689-.37256s-.43066-.2666-.58789-.42383-.27588-.33594-.35547-.53662-.11963-.43506-.11963-.7041c0-.32812.0752-.61865.22559-.87158s.35107-.46484.60156-.63574.53662-.2998.85791-.38623.65283-.12988.99463-.12988c.60596,0,1.14844.10498,1.62695.31445v1.13477c-.51514-.3374-1.10742-.50586-1.77734-.50586-.20947,0-.39893.02393-.56738.07178s-.31348.11523-.43408.20166-.21436.19043-.28027.31104-.09912.25391-.09912.3999c0,.18213.0332.33496.09912.45801s.16309.23242.29053.32812.28271.18213.46484.25977.38965.16162.62207.25293c.31006.11865.58789.24023.83398.36572s.45557.2666.62891.42383.30664.33838.3999.54346.14014.44873.14014.73145c0,.34619-.07617.64697-.229.90234s-.35645.46729-.61182.63574-.54932.29395-.88184.37598-.68115.12305-1.0459.12305c-.72021,0-1.34424-.13916-1.87305-.41699Z" fill="#2f2f2f"/>
        <path d="M290.15332,183.89424h-4.94238c.01807.7793.22803,1.38086.62891,1.80469s.95264.63574,1.6543.63574c.78857,0,1.51318-.25977,2.17383-.7793v1.05273c-.61523.44678-1.42871.66992-2.44043.66992-.98877,0-1.76611-.31787-2.33105-.95361s-.84766-1.53027-.84766-2.68311c0-1.08936.30859-1.97656.92627-2.6626s1.38428-1.02881,2.30029-1.02881,1.62451.29639,2.12598.88867.75195,1.41504.75195,2.46777v.58789ZM289.00488,182.94404c-.00439-.64697-.16064-1.15088-.46826-1.51074s-.73486-.54004-1.28174-.54004c-.52881,0-.97754.18896-1.34668.56738s-.59717.87256-.68359,1.4834h3.78027Z" fill="#2f2f2f"/>
        <path d="M295.48633,181.24873c-.1958-.15039-.47852-.22559-.84766-.22559-.47852,0-.87842.22559-1.19971.67676s-.48193,1.06641-.48193,1.8457v3.56836h-1.12109v-7h1.12109v1.44238h.02734c.15967-.49219.40332-.87598.73145-1.15186s.69482-.41357,1.10059-.41357c.2915,0,.51514.03174.66992.0957v1.16211Z" fill="#2f2f2f"/>
        <path d="M302.75928,180.11396l-2.78906,7h-1.10059l-2.65234-7h1.23047l1.77734,5.08594c.13232.37354.21436.69971.24609.97754h.02734c.04541-.35107.11865-.66748.21875-.9502l1.85938-5.11328h1.18262Z" fill="#2f2f2f"/>
        <path d="M309.40088,183.89424h-4.94238c.01807.7793.22803,1.38086.62891,1.80469s.95264.63574,1.6543.63574c.78857,0,1.51318-.25977,2.17383-.7793v1.05273c-.61523.44678-1.42871.66992-2.44043.66992-.98877,0-1.76611-.31787-2.33105-.95361s-.84766-1.53027-.84766-2.68311c0-1.08936.30859-1.97656.92627-2.6626s1.38428-1.02881,2.30029-1.02881,1.62451.29639,2.12598.88867.75195,1.41504.75195,2.46777v.58789ZM308.25244,182.94404c-.00439-.64697-.16064-1.15088-.46826-1.51074s-.73486-.54004-1.28174-.54004c-.52881,0-.97754.18896-1.34668.56738s-.59717.87256-.68359,1.4834h3.78027Z" fill="#2f2f2f"/>
        <path d="M314.73389,181.24873c-.1958-.15039-.47852-.22559-.84766-.22559-.47852,0-.87842.22559-1.19971.67676s-.48193,1.06641-.48193,1.8457v3.56836h-1.12109v-7h1.12109v1.44238h.02734c.15967-.49219.40332-.87598.73145-1.15186s.69482-.41357,1.10059-.41357c.2915,0,.51514.03174.66992.0957v1.16211Z" fill="#2f2f2f"/>
      </g>
      <g>
        <path d="M461.02588,243.17744v-9.80273h2.70703c3.45459,0,5.18164,1.59277,5.18164,4.77832,0,1.51318-.47949,2.72852-1.43896,3.64697s-2.24316,1.37744-3.85205,1.37744h-2.59766ZM462.17432,234.41377v7.72461h1.46289c1.28516,0,2.28564-.34424,3.00098-1.03223s1.07324-1.66357,1.07324-2.92578c0-2.51123-1.33545-3.7666-4.00586-3.7666h-1.53125Z" fill="#2f2f2f"/>
        <path d="M475.5459,243.17744h-1.12109v-1.09375h-.02734c-.48779.83838-1.20557,1.25781-2.15332,1.25781-.69727,0-1.24316-.18457-1.63721-.55371s-.59131-.85889-.59131-1.46973c0-1.30811.77002-2.06885,2.31055-2.2832l2.09863-.29395c0-1.18945-.48096-1.78418-1.44238-1.78418-.84326,0-1.604.28711-2.2832.86133v-1.14844c.68799-.4375,1.48096-.65625,2.37891-.65625,1.64502,0,2.46777.87061,2.46777,2.61133v4.55273ZM474.4248,239.63643l-1.68848.23242c-.51953.07275-.91162.20166-1.17578.38623s-.39648.51172-.39648.98096c0,.3418.12207.62109.36572.8374s.56836.32471.97412.32471c.55615,0,1.01514-.19482,1.37744-.58447s.54346-.88281.54346-1.47998v-.69727Z" fill="#2f2f2f"/>
        <path d="M480.8042,243.10908c-.26416.146-.61279.21875-1.0459.21875-1.22607,0-1.83887-.68359-1.83887-2.05078v-4.14258h-1.20312v-.95703h1.20312v-1.70898l1.12109-.3623v2.07129h1.76367v.95703h-1.76367v3.94434c0,.46924.07959.8042.23926,1.00488s.42383.30078.79297.30078c.28271,0,.52637-.07764.73145-.23242v.95703Z" fill="#2f2f2f"/>
        <path d="M487.42139,243.17744h-1.12109v-1.09375h-.02734c-.48779.83838-1.20557,1.25781-2.15332,1.25781-.69727,0-1.24316-.18457-1.63721-.55371s-.59131-.85889-.59131-1.46973c0-1.30811.77002-2.06885,2.31055-2.2832l2.09863-.29395c0-1.18945-.48096-1.78418-1.44238-1.78418-.84326,0-1.604.28711-2.2832.86133v-1.14844c.68799-.4375,1.48096-.65625,2.37891-.65625,1.64502,0,2.46777.87061,2.46777,2.61133v4.55273ZM486.30029,239.63643l-1.68848.23242c-.51953.07275-.91162.20166-1.17578.38623s-.39648.51172-.39648.98096c0,.3418.12207.62109.36572.8374s.56836.32471.97412.32471c.55615,0,1.01514-.19482,1.37744-.58447s.54346-.88281.54346-1.47998v-.69727Z" fill="#2f2f2f"/>
        <path d="M490.59131,242.16572h-.02734v1.01172h-1.12109v-10.36328h1.12109v4.59375h.02734c.55127-.92969,1.35791-1.39453,2.41992-1.39453.89795,0,1.60059.31348,2.10889.93994s.76221,1.46631.76221,2.51904c0,1.17139-.28467,2.10889-.85449,2.81299s-1.34912,1.05615-2.33789,1.05615c-.92529,0-1.62451-.39209-2.09863-1.17578ZM490.56396,239.34248v.97754c0,.57861.18799,1.06982.56396,1.47314s.85352.60498,1.43213.60498c.6792,0,1.21094-.25977,1.59619-.7793s.57764-1.2417.57764-2.16699c0-.7793-.18018-1.39014-.54004-1.83203s-.84766-.66309-1.46289-.66309c-.65186,0-1.17578.22656-1.57227.68018s-.59473,1.02197-.59473,1.70557Z" fill="#2f2f2f"/>
        <path d="M502.61816,243.17744h-1.12109v-1.09375h-.02734c-.48779.83838-1.20557,1.25781-2.15332,1.25781-.69727,0-1.24316-.18457-1.63721-.55371s-.59131-.85889-.59131-1.46973c0-1.30811.77002-2.06885,2.31055-2.2832l2.09863-.29395c0-1.18945-.48096-1.78418-1.44238-1.78418-.84326,0-1.604.28711-2.2832.86133v-1.14844c.68799-.4375,1.48096-.65625,2.37891-.65625,1.64502,0,2.46777.87061,2.46777,2.61133v4.55273ZM501.49707,239.63643l-1.68848.23242c-.51953.07275-.91162.20166-1.17578.38623s-.39648.51172-.39648.98096c0,.3418.12207.62109.36572.8374s.56836.32471.97412.32471c.55615,0,1.01514-.19482,1.37744-.58447s.54346-.88281.54346-1.47998v-.69727Z" fill="#2f2f2f"/>
        <path d="M504.26025,242.92451v-1.20312c.61084.45117,1.28271.67676,2.0166.67676.98438,0,1.47656-.32812,1.47656-.98438,0-.18701-.04199-.34521-.12646-.4751s-.19824-.24512-.3418-.34521-.31201-.19043-.50586-.27002-.40234-.16309-.62549-.24951c-.31006-.12305-.58203-.24707-.81689-.37256s-.43066-.2666-.58789-.42383-.27588-.33594-.35547-.53662-.11963-.43506-.11963-.7041c0-.32812.0752-.61865.22559-.87158s.35107-.46484.60156-.63574.53662-.2998.85791-.38623.65283-.12988.99463-.12988c.60596,0,1.14844.10498,1.62695.31445v1.13477c-.51514-.3374-1.10742-.50586-1.77734-.50586-.20947,0-.39893.02393-.56738.07178s-.31348.11523-.43408.20166-.21436.19043-.28027.31104-.09912.25391-.09912.3999c0,.18213.0332.33496.09912.45801s.16309.23242.29053.32812.28271.18213.46484.25977.38965.16162.62207.25293c.31006.11865.58789.24023.83398.36572s.45557.2666.62891.42383.30664.33838.3999.54346.14014.44873.14014.73145c0,.34619-.07617.64697-.229.90234s-.35645.46729-.61182.63574-.54932.29395-.88184.37598-.68115.12305-1.0459.12305c-.72021,0-1.34424-.13916-1.87305-.41699Z" fill="#2f2f2f"/>
        <path d="M516.21582,239.95771h-4.94238c.01807.7793.22803,1.38086.62891,1.80469s.95264.63574,1.6543.63574c.78857,0,1.51318-.25977,2.17383-.7793v1.05273c-.61523.44678-1.42871.66992-2.44043.66992-.98877,0-1.76611-.31787-2.33105-.95361s-.84766-1.53027-.84766-2.68311c0-1.08936.30859-1.97656.92627-2.6626s1.38428-1.02881,2.30029-1.02881,1.62451.29639,2.12598.88867.75195,1.41504.75195,2.46777v.58789ZM515.06738,239.00752c-.00439-.64697-.16064-1.15088-.46826-1.51074s-.73486-.54004-1.28174-.54004c-.52881,0-.97754.18896-1.34668.56738s-.59717.87256-.68359,1.4834h3.78027Z" fill="#2f2f2f"/>
      </g>
    </g>
  </g>
</svg>