<?xml version="1.0" encoding="UTF-8"?>
<svg xmlns="http://www.w3.org/2000/svg" width="831.6" height="259.6" xmlns:xlink="http://www.w3.org/1999/xlink" viewBox="0 0 831.6 259.6">
  <defs>
    <linearGradient id="linear-gradient" x1="-119.91502" y1="1017.48389" x2="-119.91502" y2="1039.48389" gradientTransform="translate(564 1173.2) scale(1 -1)" gradientUnits="userSpaceOnUse">
      <stop offset=".16" stop-color="#6f4bb2"/>
      <stop offset=".32" stop-color="#7450b5"/>
      <stop offset=".51" stop-color="#825dbf"/>
      <stop offset=".72" stop-color="#9a72ce"/>
      <stop offset=".94" stop-color="#bb90e4"/>
      <stop offset="1" stop-color="#c69aeb"/>
    </linearGradient>
    <radialGradient id="radial-gradient" cx="83.70658" cy="789.32851" fx="83.70658" fy="789.32851" r="14.02275" gradientTransform="translate(0 939.2) scale(1 -1)" gradientUnits="userSpaceOnUse">
      <stop offset=".18" stop-color="#5ea0ef"/>
      <stop offset="1" stop-color="#0078d4"/>
    </radialGradient>
    <clipPath id="clippath">
      <path d="M92.3017,160.95767c-6.12275,4.74702-14.93439,3.63165-19.68135-2.49102-4.74696-6.12277-3.63165-14.93442,2.4911-19.68133l.14848-.09908c6.2062-4.63253,14.9928-3.35697,19.62542,2.84928,4.55469,6.10183,3.4078,14.72327-2.58365,19.42215Z" fill="none"/>
    </clipPath>
  </defs>
  <g isolation="isolate">
    <g id="Shapes">
      <rect width="831.6" height="259.6" fill="#fff"/>
      <g>
        <g mix-blend-mode="multiply">
          <rect x="158.9" y="31.3" width="286" height="220" fill="#d9d9d6"/>
          <rect x="158.9" y="31.3" width="286" height="220" fill="#d9d9d6"/>
        </g>
        <g>
          <rect x="158.4" y="30.8" width="286" height="220" fill="#fff"/>
          <rect x="158.4" y="30.8" width="286" height="220" fill="#d9d9d6"/>
        </g>
      </g>
      <g>
        <rect x="171.41046" y="57.2" width="127.03111" height="30.8" fill="#fff"/>
        <rect x="171.41046" y="57.2" width="127.03111" height="30.8" fill="#ffe399" opacity=".47"/>
        <rect x="171.41046" y="57.2" width="127.03111" height="30.8" fill="none" stroke="#ffe399" stroke-width=".25"/>
      </g>
      <g>
        <rect x="303.6" y="57.2" width="127.6" height="30.8" fill="#fff"/>
        <rect x="303.6" y="57.2" width="127.6" height="30.8" fill="#ffe399" opacity=".47"/>
        <rect x="303.6" y="57.2" width="127.6" height="30.8" fill="none" stroke="#ffe399" stroke-width=".25"/>
      </g>
      <g>
        <g mix-blend-mode="multiply">
          <rect x="537.29971" y="31.3" width="286" height="220" fill="#d9d9d6"/>
          <rect x="537.29971" y="31.3" width="286" height="220" fill="#d9d9d6"/>
        </g>
        <g>
          <rect x="536.79971" y="30.8" width="286" height="220" fill="#fff"/>
          <rect x="536.79971" y="30.8" width="286" height="220" fill="#d9d9d6"/>
        </g>
      </g>
      <g>
        <rect x="8.8" y="110" width="814" height="123.2" fill="#fff"/>
        <rect x="8.8" y="110" width="814" height="123.2" fill="#1a00e2" opacity=".03"/>
        <rect x="8.8" y="110" width="814" height="123.2" fill="none" opacity=".5" stroke="#1a00e2" stroke-width=".25"/>
      </g>
      <g>
        <rect x="549.81046" y="57.2" width="127.03111" height="30.8" fill="#fff"/>
        <rect x="549.81046" y="57.2" width="127.03111" height="30.8" fill="#ffe399" opacity=".47"/>
        <rect x="549.81046" y="57.2" width="127.03111" height="30.8" fill="none" stroke="#ffe399" stroke-width=".25"/>
      </g>
      <g>
        <rect x="682" y="57.2" width="127.6" height="30.8" fill="#fff"/>
        <rect x="682" y="57.2" width="127.6" height="30.8" fill="#ffe399" opacity=".47"/>
        <rect x="682" y="57.2" width="127.6" height="30.8" fill="none" stroke="#ffe399" stroke-width=".25"/>
      </g>
      <g>
        <line x1="745.80001" y1="179.87949" x2="745.80001" y2="92.52145" fill="none" stroke="#3c3c41" stroke-miterlimit="10" stroke-width=".75"/>
        <polygon points="748.60482 179.0588 745.80001 183.91611 742.9952 179.0588 748.60482 179.0588" fill="#3c3c41"/>
        <polygon points="748.60482 93.34214 745.80001 88.48482 742.9952 93.34214 748.60482 93.34214" fill="#3c3c41"/>
      </g>
      <g>
        <line x1="613.32601" y1="179.87949" x2="613.32601" y2="92.52145" fill="none" stroke="#3c3c41" stroke-miterlimit="10" stroke-width=".75"/>
        <polygon points="616.13082 179.0588 613.32601 183.91611 610.5212 179.0588 616.13082 179.0588" fill="#3c3c41"/>
        <polygon points="616.13082 93.34214 613.32601 88.48482 610.5212 93.34214 616.13082 93.34214" fill="#3c3c41"/>
      </g>
      <g>
        <line x1="400.03663" y1="199.21405" x2="589.96337" y2="199.21405" fill="none" stroke="#3c3c41" stroke-miterlimit="10" stroke-width=".75"/>
        <polygon points="400.85731 202.01886 396 199.21405 400.85731 196.40924 400.85731 202.01886" fill="#3c3c41"/>
        <polygon points="589.14269 202.01886 594 199.21405 589.14269 196.40924 589.14269 202.01886" fill="#3c3c41"/>
      </g>
      <g>
        <line x1="367.4" y1="179.87949" x2="367.4" y2="92.52145" fill="none" stroke="#3c3c41" stroke-miterlimit="10" stroke-width=".75"/>
        <polygon points="370.20481 179.0588 367.4 183.91611 364.59519 179.0588 370.20481 179.0588" fill="#3c3c41"/>
        <polygon points="370.20481 93.34214 367.4 88.48482 364.59519 93.34214 370.20481 93.34214" fill="#3c3c41"/>
      </g>
      <g>
        <line x1="234.92602" y1="179.87949" x2="234.92602" y2="92.52145" fill="none" stroke="#3c3c41" stroke-miterlimit="10" stroke-width=".75"/>
        <polygon points="237.73083 179.0588 234.92602 183.91611 232.12121 179.0588 237.73083 179.0588" fill="#3c3c41"/>
        <polygon points="237.73083 93.34214 234.92602 88.48482 232.12121 93.34214 237.73083 93.34214" fill="#3c3c41"/>
      </g>
      <g>
        <rect x="220" y="127.11611" width="550" height="35.2" fill="#fff"/>
        <rect x="220" y="127.11611" width="550" height="35.2" fill="#1a00e2" opacity=".14"/>
        <rect x="220" y="127.11611" width="550" height="35.2" fill="none" opacity=".6" stroke="#1a00e2" stroke-width=".25"/>
      </g>
      <g>
        <rect x="594" y="183.91611" width="176" height="30.8" fill="#fff"/>
        <rect x="594" y="183.91611" width="176" height="30.8" fill="#5d52ec" opacity=".14"/>
        <rect x="594" y="183.91611" width="176" height="30.8" fill="none" opacity=".5" stroke="#5d52ec" stroke-width=".25"/>
      </g>
      <g>
        <rect x="220" y="183.91611" width="176" height="30.8" fill="#fff"/>
        <rect x="220" y="183.91611" width="176" height="30.8" fill="#5d52ec" opacity=".14"/>
        <rect x="220" y="183.91611" width="176" height="30.8" fill="none" opacity=".5" stroke="#5d52ec" stroke-width=".25"/>
      </g>
      <g>
        <path d="M448.34262,133.71611h-8.51529c-.19513.00065-.38175.07997-.51765.22l-6.00471,6.00471c-.14003.13589-.21935.32252-.22.51765v8.51529c.00065.19513.07997.38175.22.51765l6.00471,6.00471c.13589.14003.32252.21935.51765.22h8.51529c.19513-.00065.38175-.07997.51765-.22l6.00471-6.00471c.14003-.13589.21935-.32252.22-.51765v-8.5153c-.00065-.19513-.07997-.38175-.22-.51765l-6.00471-6.00471c-.13589-.14003-.32252-.21935-.51765-.22Z" fill="url(#linear-gradient)"/>
        <path d="M440.20262,142.95611l-.09059.09059-1.29412,1.29412c-.06445.07654-.05466.19083.02188.25529.03026.02548.06802.04036.10753.04236h4.91765c.10006,0,.18118-.08112.18118-.18118h0v-4.85294c.01787-.11793-.06325-.22801-.18118-.24588-.11793-.01787-.22801.06325-.24588.18118h0l-1.29412,1.29412-.09059.09059c-.07369.06591-.18514.06591-.25882,0l-3.32588-3.27412-1.77294,1.78588,3.32588,3.26118c.06591.07369.06591.18514,0,.25882Z" fill="#f2f2f2"/>
        <path d="M453.37674,140.71729l-5.29294-5.29294c-.06902-.06764-.1622-.10491-.25882-.10353h-7.48c-.09663-.00138-.18981.03589-.25882.10353l-5.29294,5.29294c-.06764.06902-.10491.1622-.10353.25882v7.48c.00128.09612.03817.18834.10353.25882l5.29294,5.29294c.06902.06764.1622.10491.25882.10353h7.48c.09663.00138.18981-.03589.25882-.10353l5.29294-5.29294c.06536-.07048.10225-.16271.10353-.25882v-7.48c.00138-.09663-.03589-.18981-.10353-.25882ZM452.91086,147.77023l-4.07647-4.07647.98353-.99647c.08577-.07564.09398-.20648.01834-.29225-.00572-.00649-.01185-.01261-.01834-.01834-.04596-.01682-.09639-.01682-.14235,0l-3.50706-.09059c-.11662-.0002-.21314.09064-.22.20706h0l.09059,3.50706c-.00022.11436.0923.20724.20665.20746.00445,0,.0089-.00013.01335-.0004h0c.04867.02532.10663.02532.15529,0l1.1-1.08706,4.33529,4.27059-3.28706,3.28706-4.47765-4.46471,1.03529-.91882c.08577-.07564.09398-.20648.01834-.29225-.00572-.00649-.01185-.01261-.01834-.01834-.03717-.03935-.08827-.06257-.14235-.06471l-3.48118-.15529c-.11662-.0002-.21314.09064-.22.20706h0l.09059,3.50706c-.00022.11436.0923.20724.20665.20746.00445,0,.0089-.00013.01335-.0004h0c.05829-.00014.11415-.02341.15529-.06471l1.04824-1.07412,3.98588,3.98588h-6.35412l-5.17647-5.17647v-7.31176l1.63059-1.61765,1.77294-1.78588,1.77294-1.77294h7.32471l5.17647,5.17647-.01294,6.71647Z" fill="#f2f2f2"/>
      </g>
      <g>
        <path id="a9e07728-1645-4b38-9a48-dd4b9b350c00" d="M92.3017,160.95772c-6.12275,4.74696-14.93439,3.63165-19.68135-2.4911-4.74696-6.12275-3.63165-14.93439,2.4911-19.68135l.14848-.09898c6.2062-4.63262,14.9928-3.35697,19.62542,2.84923,4.55469,6.1018,3.4078,14.7233-2.58365,19.4222" fill="url(#radial-gradient)"/>
        <g clip-path="url(#clippath)">
          <path d="M75.67236,146.65451c-.18225.17852-.18528.47098-.00677.65323.08852.09037.21022.14049.33671.13865h10.09638c.71285-.01737,1.40057.2637,1.8972.77538.39401.41614.64285.94856.70939,1.51776.09116.68901-.12614,1.38316-.5939,1.8972-.44465.56714-1.12706.89616-1.8477.89086h-3.48094c-.06768-.01053-.13217.03246-.14848.09898l-.89086,2.19415c-.19797.47842-.41243.97334-.6104,1.46827-.03048.0448-.03048.10368,0,.14848l2.57359,2.4746,4.27282,4.27282.75888.80837,3.53043-1.96319-.77538-.6104-2.35912-2.37562-2.55709-2.57359h-.11548l.85786-.11548c2.07619-.40149,3.81514-1.81246,4.63576-3.7614.707-1.61995.707-3.46124,0-5.08119-.29296-.68016-.70029-1.3051-1.20431-1.8477-.57146-.62738-1.26842-1.12762-2.04567-1.46826-.86232-.38039-1.79613-.57165-2.73856-.56091h-4.94921v-1.93019c-.06441-.1085-.20398-.14523-.31345-.08249l-5.03169,5.03169Z" fill="#f2f2f2"/>
        </g>
      </g>
    </g>
    <g id="Text">
      <g>
        <path d="M219.82041,77.75186c-.72461.38281-1.62695.57422-2.70703.57422-1.39453,0-2.51123-.44873-3.34961-1.34668s-1.25781-2.07568-1.25781-3.53418c0-1.56787.47168-2.83447,1.41504-3.80078s2.13965-1.44922,3.58887-1.44922c.92969,0,1.69971.13428,2.31055.40332v1.22363c-.70166-.39209-1.47656-.58789-2.32422-.58789-1.12549,0-2.03809.37598-2.73779,1.12793s-1.04932,1.75684-1.04932,3.01465c0,1.19385.32715,2.14551.98096,2.854s1.51172,1.06299,2.57373,1.06299c.98438,0,1.83643-.21875,2.55664-.65625v1.11426Z" fill="#2f2f2f"/>
        <path d="M222.49326,78.16201h-1.12109v-10.36328h1.12109v10.36328Z" fill="#2f2f2f"/>
        <path d="M225.18027,69.38467c-.20068,0-.37158-.06836-.5127-.20508s-.21191-.31006-.21191-.51953.0708-.38379.21191-.52295.31201-.2085.5127-.2085c.20508,0,.37939.06934.52295.2085s.21533.31348.21533.52295c0,.20068-.07178.37158-.21533.5127s-.31787.21191-.52295.21191ZM225.72715,78.16201h-1.12109v-7h1.12109v7Z" fill="#2f2f2f"/>
        <path d="M233.52158,74.94229h-4.94238c.01807.7793.22803,1.38086.62891,1.80469s.95264.63574,1.6543.63574c.78857,0,1.51318-.25977,2.17383-.7793v1.05273c-.61523.44678-1.42871.66992-2.44043.66992-.98877,0-1.76611-.31787-2.33105-.95361s-.84766-1.53027-.84766-2.68311c0-1.08936.30859-1.97656.92627-2.6626s1.38428-1.02881,2.30029-1.02881,1.62451.29639,2.12598.88867.75195,1.41504.75195,2.46777v.58789ZM232.37314,73.99209c-.00439-.64697-.16064-1.15088-.46826-1.51074s-.73486-.54004-1.28174-.54004c-.52881,0-.97754.18896-1.34668.56738s-.59717.87256-.68359,1.4834h3.78027Z" fill="#2f2f2f"/>
        <path d="M241.01523,78.16201h-1.12109v-3.99219c0-1.48584-.54248-2.22852-1.62695-2.22852-.56055,0-1.02441.21094-1.39111.63232s-.55029.95361-.55029,1.59619v3.99219h-1.12109v-7h1.12109v1.16211h.02734c.52881-.88428,1.29443-1.32617,2.29688-1.32617.76562,0,1.35107.24707,1.75684.7417s.6084,1.20898.6084,2.14307v4.2793Z" fill="#2f2f2f"/>
        <path d="M246.24424,78.09365c-.26416.146-.61279.21875-1.0459.21875-1.22607,0-1.83887-.68359-1.83887-2.05078v-4.14258h-1.20312v-.95703h1.20312v-1.70898l1.12109-.3623v2.07129h1.76367v.95703h-1.76367v3.94434c0,.46924.07959.8042.23926,1.00488s.42383.30078.79297.30078c.28271,0,.52637-.07764.73145-.23242v.95703Z" fill="#2f2f2f"/>
        <path d="M255.39072,78.16201h-1.12109v-8.46973c-.08643.08643-.21289.18555-.37939.29736s-.35303.22217-.56055.33154-.42627.21191-.65625.30762-.45459.1709-.67334.22559v-1.13477c.24609-.06836.50684-.16064.78271-.27686s.54688-.24609.81348-.38965.51855-.29395.75537-.45117.44189-.31104.61523-.46143h.42383v10.02148Z" fill="#2f2f2f"/>
      </g>
      <g>
        <path d="M352.29453,77.75186c-.72461.38281-1.62695.57422-2.70703.57422-1.39453,0-2.51123-.44873-3.34961-1.34668s-1.25781-2.07568-1.25781-3.53418c0-1.56787.47168-2.83447,1.41504-3.80078s2.13965-1.44922,3.58887-1.44922c.92969,0,1.69971.13428,2.31055.40332v1.22363c-.70166-.39209-1.47656-.58789-2.32422-.58789-1.12549,0-2.03809.37598-2.73779,1.12793s-1.04932,1.75684-1.04932,3.01465c0,1.19385.32715,2.14551.98096,2.854s1.51172,1.06299,2.57373,1.06299c.98438,0,1.83643-.21875,2.55664-.65625v1.11426Z" fill="#2f2f2f"/>
        <path d="M354.96738,78.16201h-1.12109v-10.36328h1.12109v10.36328Z" fill="#2f2f2f"/>
        <path d="M357.65439,69.38467c-.20068,0-.37158-.06836-.5127-.20508s-.21191-.31006-.21191-.51953.0708-.38379.21191-.52295.31201-.2085.5127-.2085c.20508,0,.37939.06934.52295.2085s.21533.31348.21533.52295c0,.20068-.07178.37158-.21533.5127s-.31787.21191-.52295.21191ZM358.20127,78.16201h-1.12109v-7h1.12109v7Z" fill="#2f2f2f"/>
        <path d="M365.9957,74.94229h-4.94238c.01807.7793.22803,1.38086.62891,1.80469s.95264.63574,1.6543.63574c.78857,0,1.51318-.25977,2.17383-.7793v1.05273c-.61523.44678-1.42871.66992-2.44043.66992-.98877,0-1.76611-.31787-2.33105-.95361s-.84766-1.53027-.84766-2.68311c0-1.08936.30859-1.97656.92627-2.6626s1.38428-1.02881,2.30029-1.02881,1.62451.29639,2.12598.88867.75195,1.41504.75195,2.46777v.58789ZM364.84727,73.99209c-.00439-.64697-.16064-1.15088-.46826-1.51074s-.73486-.54004-1.28174-.54004c-.52881,0-.97754.18896-1.34668.56738s-.59717.87256-.68359,1.4834h3.78027Z" fill="#2f2f2f"/>
        <path d="M373.48936,78.16201h-1.12109v-3.99219c0-1.48584-.54248-2.22852-1.62695-2.22852-.56055,0-1.02441.21094-1.39111.63232s-.55029.95361-.55029,1.59619v3.99219h-1.12109v-7h1.12109v1.16211h.02734c.52881-.88428,1.29443-1.32617,2.29688-1.32617.76562,0,1.35107.24707,1.75684.7417s.6084,1.20898.6084,2.14307v4.2793Z" fill="#2f2f2f"/>
        <path d="M378.71836,78.09365c-.26416.146-.61279.21875-1.0459.21875-1.22607,0-1.83887-.68359-1.83887-2.05078v-4.14258h-1.20312v-.95703h1.20312v-1.70898l1.12109-.3623v2.07129h1.76367v.95703h-1.76367v3.94434c0,.46924.07959.8042.23926,1.00488s.42383.30078.79297.30078c.28271,0,.52637-.07764.73145-.23242v.95703Z" fill="#2f2f2f"/>
        <path d="M388.19297,70.92959c0-.30078-.04688-.56299-.14014-.78613s-.22119-.40918-.38281-.55713-.35205-.25879-.5708-.33154-.45557-.10938-.71094-.10938c-.21875,0-.43311.02979-.64258.08887s-.41357.14111-.61182.24609-.38965.22998-.57422.37598-.35645.30762-.51611.48535v-1.20312c.31445-.30518.6665-.53906,1.05615-.70068s.86475-.24268,1.42529-.24268c.40088,0,.77246.05811,1.11426.17432s.63818.28613.88867.50928.44775.49902.59131.82715.21533.7041.21533,1.12793c0,.38721-.04443.73828-.1333,1.05273s-.22314.61084-.40332.88867-.40674.54443-.68018.7998-.59473.51514-.96387.7793c-.46045.32812-.83984.6084-1.13818.84082s-.53564.4502-.71094.65283-.29834.40576-.36914.6084-.10596.43652-.10596.70068h4.88086v1.00488h-6.0498v-.48535c0-.41943.04541-.78857.13672-1.10742s.2417-.62207.45117-.90918.48438-.57422.82373-.86133.75537-.61084,1.24756-.9707c.35547-.25537.65283-.49902.89209-.73145s.43164-.46484.57764-.69727.24951-.46826.31104-.70752.09229-.49316.09229-.76221Z" fill="#2f2f2f"/>
      </g>
      <g>
        <path d="M167.74473,22.00039h-2.53613l-1.52441-2.52246c-.11377-.19141-.22314-.3623-.32812-.5127s-.21094-.2793-.31787-.38623-.21875-.18896-.33496-.24609-.24268-.08545-.37939-.08545h-.59473v3.75293h-2.20801v-9.80273h3.5c2.37891,0,3.56836.88867,3.56836,2.66602,0,.3418-.05225.65723-.15723.94678s-.25293.55029-.44434.78271-.42285.43311-.69385.60156-.57324.30078-.90576.39648v.02734c.146.04541.28711.11963.42383.22217s.26904.22217.39648.35889.24951.28369.36572.44092.22217.31104.31787.46143l1.85254,2.89844ZM161.7291,13.85195v2.72754h.95703c.47412,0,.85449-.13672,1.1416-.41016.2915-.27783.4375-.62207.4375-1.03223,0-.85693-.5127-1.28516-1.53809-1.28516h-.99805Z" fill="#2f2f2f"/>
        <path d="M174.56309,19.11563h-4.56641c.07275,1.01611.71338,1.52441,1.9209,1.52441.77002,0,1.44678-.18213,2.03027-.54688v1.55859c-.64697.34619-1.48779.51953-2.52246.51953-1.13037,0-2.00732-.31348-2.63184-.93994s-.93652-1.50049-.93652-2.62158c0-1.16211.3374-2.08252,1.01172-2.76172s1.50391-1.01855,2.48828-1.01855c1.021,0,1.81055.30322,2.36865.90918s.8374,1.42871.8374,2.46777v.90918ZM172.56016,17.78945c0-1.00244-.40576-1.50391-1.2168-1.50391-.34619,0-.646.14355-.89893.43066s-.40674.64502-.46143,1.07324h2.57715Z" fill="#2f2f2f"/>
        <path d="M182.82187,21.20059c0,1.29883-.37598,2.30469-1.12793,3.01807s-1.84131,1.06982-3.26758,1.06982c-.94336,0-1.69092-.13428-2.24219-.40332v-1.81836c.72021.41943,1.44678.62891,2.18066.62891.729,0,1.29443-.19238,1.69531-.57764s.60156-.9082.60156-1.56885v-.55371h-.02734c-.49219.78369-1.21924,1.17578-2.18066,1.17578-.89307,0-1.60205-.31445-2.12598-.94336s-.78613-1.47217-.78613-2.5293c0-1.18506.2915-2.12598.875-2.82324s1.35107-1.0459,2.30371-1.0459c.85205,0,1.49023.32812,1.91406.98438h.02734v-.81348h2.16016v6.2002ZM180.68906,18.63711v-.55371c0-.44189-.13086-.81934-.39307-1.13135s-.60254-.46826-1.02197-.46826c-.47852,0-.85449.18701-1.12793.56055s-.41016.8999-.41016,1.5791c0,.5835.12988,1.04492.38965,1.38428s.61523.50928,1.06641.50928c.44678,0,.80762-.17188,1.0835-.51611s.41357-.79883.41357-1.36377Z" fill="#2f2f2f"/>
        <path d="M185.67686,13.89297c-.36475,0-.66309-.1084-.89551-.32471s-.34863-.48193-.34863-.79639c0-.32373.11621-.58789.34863-.79297s.53076-.30762.89551-.30762c.36914,0,.66895.10254.89893.30762s.34521.46924.34521.79297c0,.32812-.11523.59717-.34521.80664s-.52979.31445-.89893.31445ZM186.74326,22.00039h-2.16016v-7h2.16016v7Z" fill="#2f2f2f"/>
        <path d="M191.8541,22.17129c-1.1665,0-2.08398-.32715-2.75146-.98096s-1.00146-1.5415-1.00146-2.6626c0-1.15771.34619-2.06348,1.03906-2.71729s1.62939-.98096,2.80957-.98096c1.16211,0,2.07373.32715,2.73438.98096s.99121,1.51855.99121,2.59424c0,1.16211-.34082,2.08057-1.02197,2.75488s-1.61426,1.01172-2.79932,1.01172ZM191.90879,16.48379c-.51025,0-.90674.17529-1.18945.52637s-.42383.84766-.42383,1.49023c0,1.34424.54248,2.0166,1.62695,2.0166,1.03467,0,1.55176-.69043,1.55176-2.07129,0-1.30811-.52197-1.96191-1.56543-1.96191Z" fill="#2f2f2f"/>
        <path d="M203.8165,22.00039h-2.15332v-3.88965c0-1.08447-.38721-1.62695-1.16211-1.62695-.37354,0-.68115.14355-.92285.43066s-.3623.65186-.3623,1.09375v3.99219h-2.16016v-7h2.16016v1.10742h.02734c.51514-.85205,1.26465-1.27832,2.24902-1.27832,1.54932,0,2.32422.96143,2.32422,2.88477v4.28613Z" fill="#2f2f2f"/>
        <path d="M218.21982,22.00039h-2.40625l-.69727-2.18066h-3.48633l-.69043,2.18066h-2.39258l3.56836-9.80273h2.61816l3.48633,9.80273ZM214.61045,18.12441l-1.05273-3.29492c-.07764-.24609-.13232-.54004-.16406-.88184h-.05469c-.02295.28711-.07959.57178-.1709.85449l-1.06641,3.32227h2.50879Z" fill="#2f2f2f"/>
      </g>
      <g>
        <path d="M546.14463,22.00039h-2.53613l-1.52441-2.52246c-.11377-.19141-.22314-.3623-.32812-.5127s-.21094-.2793-.31787-.38623-.21875-.18896-.33496-.24609-.24268-.08545-.37939-.08545h-.59473v3.75293h-2.20801v-9.80273h3.5c2.37891,0,3.56836.88867,3.56836,2.66602,0,.3418-.05225.65723-.15723.94678s-.25293.55029-.44434.78271-.42285.43311-.69385.60156-.57324.30078-.90576.39648v.02734c.146.04541.28711.11963.42383.22217s.26904.22217.39648.35889.24951.28369.36572.44092.22217.31104.31787.46143l1.85254,2.89844ZM540.129,13.85195v2.72754h.95703c.47412,0,.85449-.13672,1.1416-.41016.2915-.27783.4375-.62207.4375-1.03223,0-.85693-.5127-1.28516-1.53809-1.28516h-.99805Z" fill="#2f2f2f"/>
        <path d="M552.96299,19.11563h-4.56641c.07275,1.01611.71338,1.52441,1.9209,1.52441.77002,0,1.44678-.18213,2.03027-.54688v1.55859c-.64697.34619-1.48779.51953-2.52246.51953-1.13037,0-2.00732-.31348-2.63184-.93994s-.93652-1.50049-.93652-2.62158c0-1.16211.3374-2.08252,1.01172-2.76172s1.50391-1.01855,2.48828-1.01855c1.021,0,1.81055.30322,2.36865.90918s.8374,1.42871.8374,2.46777v.90918ZM550.96006,17.78945c0-1.00244-.40576-1.50391-1.2168-1.50391-.34619,0-.646.14355-.89893.43066s-.40674.64502-.46143,1.07324h2.57715Z" fill="#2f2f2f"/>
        <path d="M561.22178,21.20059c0,1.29883-.37598,2.30469-1.12793,3.01807s-1.84131,1.06982-3.26758,1.06982c-.94336,0-1.69092-.13428-2.24219-.40332v-1.81836c.72021.41943,1.44678.62891,2.18066.62891.729,0,1.29443-.19238,1.69531-.57764s.60156-.9082.60156-1.56885v-.55371h-.02734c-.49219.78369-1.21924,1.17578-2.18066,1.17578-.89307,0-1.60205-.31445-2.12598-.94336s-.78613-1.47217-.78613-2.5293c0-1.18506.2915-2.12598.875-2.82324s1.35107-1.0459,2.30371-1.0459c.85205,0,1.49023.32812,1.91406.98438h.02734v-.81348h2.16016v6.2002ZM559.08896,18.63711v-.55371c0-.44189-.13086-.81934-.39307-1.13135s-.60254-.46826-1.02197-.46826c-.47852,0-.85449.18701-1.12793.56055s-.41016.8999-.41016,1.5791c0,.5835.12988,1.04492.38965,1.38428s.61523.50928,1.06641.50928c.44678,0,.80762-.17188,1.0835-.51611s.41357-.79883.41357-1.36377Z" fill="#2f2f2f"/>
        <path d="M564.07676,13.89297c-.36475,0-.66309-.1084-.89551-.32471s-.34863-.48193-.34863-.79639c0-.32373.11621-.58789.34863-.79297s.53076-.30762.89551-.30762c.36914,0,.66895.10254.89893.30762s.34521.46924.34521.79297c0,.32812-.11523.59717-.34521.80664s-.52979.31445-.89893.31445ZM565.14316,22.00039h-2.16016v-7h2.16016v7Z" fill="#2f2f2f"/>
        <path d="M570.254,22.17129c-1.1665,0-2.08398-.32715-2.75146-.98096s-1.00146-1.5415-1.00146-2.6626c0-1.15771.34619-2.06348,1.03906-2.71729s1.62939-.98096,2.80957-.98096c1.16211,0,2.07373.32715,2.73438.98096s.99121,1.51855.99121,2.59424c0,1.16211-.34082,2.08057-1.02197,2.75488s-1.61426,1.01172-2.79932,1.01172ZM570.30869,16.48379c-.51025,0-.90674.17529-1.18945.52637s-.42383.84766-.42383,1.49023c0,1.34424.54248,2.0166,1.62695,2.0166,1.03467,0,1.55176-.69043,1.55176-2.07129,0-1.30811-.52197-1.96191-1.56543-1.96191Z" fill="#2f2f2f"/>
        <path d="M582.21641,22.00039h-2.15332v-3.88965c0-1.08447-.38721-1.62695-1.16211-1.62695-.37354,0-.68115.14355-.92285.43066s-.3623.65186-.3623,1.09375v3.99219h-2.16016v-7h2.16016v1.10742h.02734c.51514-.85205,1.26465-1.27832,2.24902-1.27832,1.54932,0,2.32422.96143,2.32422,2.88477v4.28613Z" fill="#2f2f2f"/>
        <path d="M587.99961,22.00039v-9.80273h3.56836c1.09375,0,1.93457.20068,2.52246.60156s.88184.96631.88184,1.69531c0,.52881-.17871.99121-.53662,1.3877s-.81445.67236-1.37061.82715v.02734c.69727.08643,1.25439.34424,1.67139.77246s.62549.9502.62549,1.56543c0,.89795-.32129,1.60986-.96387,2.13623s-1.52002.78955-2.63184.78955h-3.7666ZM590.20762,13.82461v2.32422h.9707c.45557,0,.81445-.11035,1.07666-.33154s.39307-.52539.39307-.9126c0-.72021-.5376-1.08008-1.61328-1.08008h-.82715ZM590.20762,17.78945v2.58398h1.19629c.51025,0,.91016-.11865,1.19971-.35547s.43408-.56055.43408-.9707c0-.39209-.14258-.69971-.42725-.92285s-.68262-.33496-1.19287-.33496h-1.20996Z" fill="#2f2f2f"/>
      </g>
      <g>
        <path d="M293.11436,203.87588h-1.36719l-1.64062-2.74805c-.15039-.25537-.29639-.47266-.4375-.65283s-.28613-.32715-.43408-.44092-.30762-.19727-.47852-.24951-.36328-.07861-.57764-.07861h-.94336v4.16992h-1.14844v-9.80273h2.92578c.42822,0,.82373.05371,1.18604.16064s.67676.27002.94336.48877.4751.49121.62549.81689.22559.70752.22559,1.14502c0,.3418-.05127.65527-.15381.93994s-.24854.53906-.4375.76221-.41699.41357-.68359.5708-.56641.2793-.89893.36572v.02734c.16406.07275.30664.15625.42725.24951s.23584.2041.34521.33154.21777.27246.32471.43408.22656.34961.35889.56396l1.83887,2.94629ZM287.23545,195.11221v3.55469h1.55859c.28711,0,.55273-.04346.79639-.12988s.45459-.21094.63232-.37256.31689-.35986.41699-.59473.15039-.49805.15039-.78955c0-.52393-.16992-.93311-.50928-1.22705s-.83057-.44092-1.47314-.44092h-1.57227Z" fill="#2f2f2f"/>
        <path d="M299.72666,200.65615h-4.94238c.01807.7793.22803,1.38086.62891,1.80469s.95264.63574,1.6543.63574c.78857,0,1.51318-.25977,2.17383-.7793v1.05273c-.61523.44678-1.42871.66992-2.44043.66992-.98877,0-1.76611-.31787-2.33105-.95361s-.84766-1.53027-.84766-2.68311c0-1.08936.30859-1.97656.92627-2.6626s1.38428-1.02881,2.30029-1.02881,1.62451.29639,2.12598.88867.75195,1.41504.75195,2.46777v.58789ZM298.57822,199.70596c-.00439-.64697-.16064-1.15088-.46826-1.51074s-.73486-.54004-1.28174-.54004c-.52881,0-.97754.18896-1.34668.56738s-.59717.87256-.68359,1.4834h3.78027Z" fill="#2f2f2f"/>
        <path d="M302.55771,202.86416h-.02734v4.23145h-1.12109v-10.21973h1.12109v1.23047h.02734c.55127-.92969,1.35791-1.39453,2.41992-1.39453.90234,0,1.60645.31348,2.1123.93994s.75879,1.46631.75879,2.51904c0,1.17139-.28467,2.10889-.85449,2.81299s-1.34912,1.05615-2.33789,1.05615c-.90674,0-1.60645-.39209-2.09863-1.17578ZM302.53037,200.04092v.97754c0,.57861.18799,1.06982.56396,1.47314s.85352.60498,1.43213.60498c.6792,0,1.21094-.25977,1.59619-.7793s.57764-1.2417.57764-2.16699c0-.7793-.18018-1.39014-.54004-1.83203s-.84766-.66309-1.46289-.66309c-.65186,0-1.17578.22656-1.57227.68018s-.59473,1.02197-.59473,1.70557Z" fill="#2f2f2f"/>
        <path d="M310.69932,203.87588h-1.12109v-10.36328h1.12109v10.36328Z" fill="#2f2f2f"/>
        <path d="M313.38633,195.09854c-.20068,0-.37158-.06836-.5127-.20508s-.21191-.31006-.21191-.51953.0708-.38379.21191-.52295.31201-.2085.5127-.2085c.20508,0,.37939.06934.52295.2085s.21533.31348.21533.52295c0,.20068-.07178.37158-.21533.5127s-.31787.21191-.52295.21191ZM313.9332,203.87588h-1.12109v-7h1.12109v7Z" fill="#2f2f2f"/>
        <path d="M320.84531,203.55459c-.5376.32373-1.17578.48535-1.91406.48535-.99805,0-1.80371-.32471-2.4165-.97412s-.91943-1.49121-.91943-2.52588c0-1.15283.33057-2.0791.99121-2.77881s1.54248-1.04932,2.64551-1.04932c.61523,0,1.15771.11377,1.62695.3418v1.14844c-.51953-.36475-1.07568-.54688-1.66797-.54688-.71533,0-1.30225.25635-1.76025.76904s-.68701,1.18604-.68701,2.02002c0,.82031.21533,1.46729.646,1.94141s1.0083.71094,1.73291.71094c.61084,0,1.18506-.20264,1.72266-.6084v1.06641Z" fill="#2f2f2f"/>
        <path d="M327.58896,203.87588h-1.12109v-1.09375h-.02734c-.48779.83838-1.20557,1.25781-2.15332,1.25781-.69727,0-1.24316-.18457-1.63721-.55371s-.59131-.85889-.59131-1.46973c0-1.30811.77002-2.06885,2.31055-2.2832l2.09863-.29395c0-1.18945-.48096-1.78418-1.44238-1.78418-.84326,0-1.604.28711-2.2832.86133v-1.14844c.68799-.4375,1.48096-.65625,2.37891-.65625,1.64502,0,2.46777.87061,2.46777,2.61133v4.55273ZM326.46787,200.33486l-1.68848.23242c-.51953.07275-.91162.20166-1.17578.38623s-.39648.51172-.39648.98096c0,.3418.12207.62109.36572.8374s.56836.32471.97412.32471c.55615,0,1.01514-.19482,1.37744-.58447s.54346-.88281.54346-1.47998v-.69727Z" fill="#2f2f2f"/>
      </g>
      <g>
        <path d="M669.55771,203.87588h-1.36719l-1.64062-2.74805c-.15039-.25537-.29639-.47266-.4375-.65283s-.28613-.32715-.43408-.44092-.30762-.19727-.47852-.24951-.36328-.07861-.57764-.07861h-.94336v4.16992h-1.14844v-9.80273h2.92578c.42822,0,.82373.05371,1.18604.16064s.67676.27002.94336.48877.4751.49121.62549.81689.22559.70752.22559,1.14502c0,.3418-.05127.65527-.15381.93994s-.24854.53906-.4375.76221-.41699.41357-.68359.5708-.56641.2793-.89893.36572v.02734c.16406.07275.30664.15625.42725.24951s.23584.2041.34521.33154.21777.27246.32471.43408.22656.34961.35889.56396l1.83887,2.94629ZM663.67881,195.11221v3.55469h1.55859c.28711,0,.55273-.04346.79639-.12988s.45459-.21094.63232-.37256.31689-.35986.41699-.59473.15039-.49805.15039-.78955c0-.52393-.16992-.93311-.50928-1.22705s-.83057-.44092-1.47314-.44092h-1.57227Z" fill="#2f2f2f"/>
        <path d="M676.17002,200.65615h-4.94238c.01807.7793.22803,1.38086.62891,1.80469s.95264.63574,1.6543.63574c.78857,0,1.51318-.25977,2.17383-.7793v1.05273c-.61523.44678-1.42871.66992-2.44043.66992-.98877,0-1.76611-.31787-2.33105-.95361s-.84766-1.53027-.84766-2.68311c0-1.08936.30859-1.97656.92627-2.6626s1.38428-1.02881,2.30029-1.02881,1.62451.29639,2.12598.88867.75195,1.41504.75195,2.46777v.58789ZM675.02158,199.70596c-.00439-.64697-.16064-1.15088-.46826-1.51074s-.73486-.54004-1.28174-.54004c-.52881,0-.97754.18896-1.34668.56738s-.59717.87256-.68359,1.4834h3.78027Z" fill="#2f2f2f"/>
        <path d="M679.00107,202.86416h-.02734v4.23145h-1.12109v-10.21973h1.12109v1.23047h.02734c.55127-.92969,1.35791-1.39453,2.41992-1.39453.90234,0,1.60645.31348,2.1123.93994s.75879,1.46631.75879,2.51904c0,1.17139-.28467,2.10889-.85449,2.81299s-1.34912,1.05615-2.33789,1.05615c-.90674,0-1.60645-.39209-2.09863-1.17578ZM678.97373,200.04092v.97754c0,.57861.18799,1.06982.56396,1.47314s.85352.60498,1.43213.60498c.6792,0,1.21094-.25977,1.59619-.7793s.57764-1.2417.57764-2.16699c0-.7793-.18018-1.39014-.54004-1.83203s-.84766-.66309-1.46289-.66309c-.65186,0-1.17578.22656-1.57227.68018s-.59473,1.02197-.59473,1.70557Z" fill="#2f2f2f"/>
        <path d="M687.14219,203.87588h-1.12109v-10.36328h1.12109v10.36328Z" fill="#2f2f2f"/>
        <path d="M689.82969,195.09854c-.20117,0-.37207-.06836-.5127-.20508-.1416-.13672-.21191-.31006-.21191-.51953s.07031-.38379.21191-.52295c.14062-.13916.31152-.2085.5127-.2085.20508,0,.37891.06934.52246.2085s.21582.31348.21582.52295c0,.20068-.07227.37158-.21582.5127s-.31738.21191-.52246.21191ZM690.37656,203.87588h-1.12109v-7h1.12109v7Z" fill="#2f2f2f"/>
        <path d="M697.28867,203.55459c-.53809.32373-1.17578.48535-1.91406.48535-.99805,0-1.80371-.32471-2.41699-.97412-.6123-.64941-.91895-1.49121-.91895-2.52588,0-1.15283.33008-2.0791.99121-2.77881.66016-.69971,1.54199-1.04932,2.64551-1.04932.61523,0,1.15723.11377,1.62695.3418v1.14844c-.51953-.36475-1.07617-.54688-1.66797-.54688-.71582,0-1.30273.25635-1.76074.76904s-.68652,1.18604-.68652,2.02002c0,.82031.21484,1.46729.64551,1.94141s1.00879.71094,1.7334.71094c.61035,0,1.18457-.20264,1.72266-.6084v1.06641Z" fill="#2f2f2f"/>
        <path d="M704.03184,203.87588h-1.12109v-1.09375h-.02734c-.4873.83838-1.20508,1.25781-2.15332,1.25781-.69727,0-1.24316-.18457-1.63672-.55371-.39453-.36914-.5918-.85889-.5918-1.46973,0-1.30811.77051-2.06885,2.31055-2.2832l2.09863-.29395c0-1.18945-.48047-1.78418-1.44238-1.78418-.84277,0-1.60352.28711-2.2832.86133v-1.14844c.68848-.4375,1.48145-.65625,2.37891-.65625,1.64551,0,2.46777.87061,2.46777,2.61133v4.55273ZM702.91074,200.33486l-1.68848.23242c-.51953.07275-.91113.20166-1.17578.38623-.26367.18457-.39648.51172-.39648.98096,0,.3418.12207.62109.36621.8374.24316.21631.56836.32471.97363.32471.55664,0,1.01562-.19482,1.37793-.58447s.54297-.88281.54297-1.47998v-.69727Z" fill="#2f2f2f"/>
      </g>
      <g>
        <path d="M598.22031,77.75186c-.72461.38281-1.62695.57422-2.70703.57422-1.39453,0-2.51123-.44873-3.34961-1.34668s-1.25781-2.07568-1.25781-3.53418c0-1.56787.47168-2.83447,1.41504-3.80078s2.13965-1.44922,3.58887-1.44922c.92969,0,1.69971.13428,2.31055.40332v1.22363c-.70166-.39209-1.47656-.58789-2.32422-.58789-1.12549,0-2.03809.37598-2.73779,1.12793s-1.04932,1.75684-1.04932,3.01465c0,1.19385.32715,2.14551.98096,2.854s1.51172,1.06299,2.57373,1.06299c.98438,0,1.83643-.21875,2.55664-.65625v1.11426Z" fill="#2f2f2f"/>
        <path d="M600.89316,78.16201h-1.12109v-10.36328h1.12109v10.36328Z" fill="#2f2f2f"/>
        <path d="M603.58018,69.38467c-.20068,0-.37158-.06836-.5127-.20508s-.21191-.31006-.21191-.51953.0708-.38379.21191-.52295.31201-.2085.5127-.2085c.20508,0,.37939.06934.52295.2085s.21533.31348.21533.52295c0,.20068-.07178.37158-.21533.5127s-.31787.21191-.52295.21191ZM604.12705,78.16201h-1.12109v-7h1.12109v7Z" fill="#2f2f2f"/>
        <path d="M611.92148,74.94229h-4.94238c.01807.7793.22803,1.38086.62891,1.80469s.95264.63574,1.6543.63574c.78857,0,1.51318-.25977,2.17383-.7793v1.05273c-.61523.44678-1.42871.66992-2.44043.66992-.98877,0-1.76611-.31787-2.33105-.95361s-.84766-1.53027-.84766-2.68311c0-1.08936.30859-1.97656.92627-2.6626s1.38428-1.02881,2.30029-1.02881,1.62451.29639,2.12598.88867.75195,1.41504.75195,2.46777v.58789ZM610.77305,73.99209c-.00439-.64697-.16064-1.15088-.46826-1.51074s-.73486-.54004-1.28174-.54004c-.52881,0-.97754.18896-1.34668.56738s-.59717.87256-.68359,1.4834h3.78027Z" fill="#2f2f2f"/>
        <path d="M619.41514,78.16201h-1.12109v-3.99219c0-1.48584-.54248-2.22852-1.62695-2.22852-.56055,0-1.02441.21094-1.39111.63232s-.55029.95361-.55029,1.59619v3.99219h-1.12109v-7h1.12109v1.16211h.02734c.52881-.88428,1.29443-1.32617,2.29688-1.32617.76562,0,1.35107.24707,1.75684.7417s.6084,1.20898.6084,2.14307v4.2793Z" fill="#2f2f2f"/>
        <path d="M624.64414,78.09365c-.26416.146-.61279.21875-1.0459.21875-1.22607,0-1.83887-.68359-1.83887-2.05078v-4.14258h-1.20312v-.95703h1.20312v-1.70898l1.12109-.3623v2.07129h1.76367v.95703h-1.76367v3.94434c0,.46924.07959.8042.23926,1.00488s.42383.30078.79297.30078c.28271,0,.52637-.07764.73145-.23242v.95703Z" fill="#2f2f2f"/>
        <path d="M635.35605,75.38662c0,.44189-.08301.84424-.24951,1.20654s-.40088.67236-.7041.92969-.6665.45703-1.09033.59814-.89111.21191-1.40137.21191c-.93408,0-1.67725-.17773-2.22852-.5332v-1.20312c.66064.51953,1.41748.7793,2.26953.7793.3418,0,.65039-.04346.92627-.12988s.5127-.21191.71094-.37598.35107-.3623.45801-.59473.16064-.49463.16064-.78613c0-1.28076-.91162-1.9209-2.73438-1.9209h-.81348v-.9502h.77246c1.61328,0,2.41992-.60156,2.41992-1.80469,0-1.11182-.61523-1.66797-1.8457-1.66797-.69287,0-1.34229.23242-1.94824.69727v-1.08691c.62451-.37354,1.36719-.56055,2.22852-.56055.41016,0,.78174.05713,1.11426.1709s.61768.27344.85449.47852.42041.45117.55029.73828.19482.604.19482.9502c0,1.28955-.65186,2.11914-1.95508,2.48828v.02734c.33252.03662.64014.11719.92285.24268s.52637.28809.73145.48877.36572.43652.48193.70752.17432.5708.17432.89893Z" fill="#2f2f2f"/>
      </g>
      <g>
        <path d="M448.00107,215.20352v-1.35352c.15479.13672.34082.25977.55713.36914s.44434.20166.68359.27686.47949.1333.72119.17432.46484.06152.66992.06152c.70654,0,1.23389-.13086,1.58252-.39307s.52295-.63916.52295-1.13135c0-.26416-.05811-.49463-.17432-.69043s-.27686-.375-.48193-.53662-.44775-.31689-.72803-.46484-.58203-.3042-.90576-.46826c-.3418-.17334-.66064-.34863-.95703-.52637s-.55371-.37354-.77246-.58789-.39062-.45703-.51611-.72803-.18799-.58887-.18799-.95361c0-.44678.09814-.83496.29395-1.16553s.45361-.60254.77246-.81689.68262-.37354,1.09033-.47852.82373-.15723,1.24756-.15723c.96631,0,1.67041.11621,2.1123.34863v1.29199c-.57861-.40088-1.32178-.60156-2.22852-.60156-.25049,0-.50146.02637-.75195.07861s-.47412.1377-.66992.25635-.35547.271-.47852.45801-.18457.41455-.18457.68359c0,.25049.04688.46729.14014.64941s.23145.34863.41357.49902.4043.29639.6665.4375.56396.29639.90576.46484c.35107.17334.68359.35547.99805.54688s.59033.40332.82715.63574.4248.48975.56396.77246.2085.60596.2085.9707c0,.48291-.09473.89209-.28369,1.22705s-.44434.60742-.76562.81689-.69141.36133-1.11084.45459-.86133.14014-1.32617.14014c-.15479,0-.34619-.0127-.57422-.0376s-.46045-.06152-.69727-.10938-.46143-.10693-.67334-.17773-.38184-.14941-.50928-.23584Z" fill="#2f2f2f"/>
        <path d="M460.87217,208.6l-3.21973,8.12109c-.57422,1.44922-1.38086,2.17383-2.41992,2.17383-.2915,0-.53564-.02979-.73145-.08887v-1.00488c.2417.08203.4624.12305.66309.12305.56494,0,.98877-.3374,1.27148-1.01172l.56055-1.32617-2.73438-6.98633h1.24414l1.89355,5.38672c.02295.06836.0708.24609.14355.5332h.04102c.02295-.10938.06836-.28271.13672-.51953l1.98926-5.40039h1.16211Z" fill="#2f2f2f"/>
        <path d="M467.92539,215.6h-1.12109v-3.99219c0-1.48584-.54248-2.22852-1.62695-2.22852-.56055,0-1.02441.21094-1.39111.63232s-.55029.95361-.55029,1.59619v3.99219h-1.12109v-7h1.12109v1.16211h.02734c.52881-.88428,1.29443-1.32617,2.29688-1.32617.76562,0,1.35107.24707,1.75684.7417s.6084,1.20898.6084,2.14307v4.2793Z" fill="#2f2f2f"/>
        <path d="M474.77402,215.27871c-.5376.32373-1.17578.48535-1.91406.48535-.99805,0-1.80371-.32471-2.4165-.97412s-.91943-1.49121-.91943-2.52588c0-1.15283.33057-2.0791.99121-2.77881s1.54248-1.04932,2.64551-1.04932c.61523,0,1.15771.11377,1.62695.3418v1.14844c-.51953-.36475-1.07568-.54688-1.66797-.54688-.71533,0-1.30225.25635-1.76025.76904s-.68701,1.18604-.68701,2.02002c0,.82031.21533,1.46729.646,1.94141s1.0083.71094,1.73291.71094c.61084,0,1.18506-.20264,1.72266-.6084v1.06641Z" fill="#2f2f2f"/>
        <path d="M482.07236,215.6h-1.12109v-4.0332c0-1.4585-.54248-2.1875-1.62695-2.1875-.54688,0-1.00732.21094-1.38086.63232s-.56055.96289-.56055,1.62354v3.96484h-1.12109v-10.36328h1.12109v4.52539h.02734c.5376-.88428,1.30322-1.32617,2.29688-1.32617,1.57666,0,2.36523.9502,2.36523,2.85059v4.31348Z" fill="#2f2f2f"/>
        <path d="M487.7457,209.73477c-.1958-.15039-.47852-.22559-.84766-.22559-.47852,0-.87842.22559-1.19971.67676s-.48193,1.06641-.48193,1.8457v3.56836h-1.12109v-7h1.12109v1.44238h.02734c.15967-.49219.40332-.87598.73145-1.15186s.69482-.41357,1.10059-.41357c.2915,0,.51514.03174.66992.0957v1.16211Z" fill="#2f2f2f"/>
        <path d="M491.88828,215.76406c-1.03467,0-1.86035-.32715-2.47803-.98096s-.92627-1.521-.92627-2.60107c0-1.17578.32129-2.09424.96387-2.75488s1.51074-.99121,2.60449-.99121c1.04346,0,1.8584.32129,2.44385.96387s.87842,1.53369.87842,2.67285c0,1.1167-.31543,2.01074-.94678,2.68311s-1.47754,1.0083-2.53955,1.0083ZM491.97031,209.3793c-.72021,0-1.28955.24512-1.70898.73486s-.62891,1.16553-.62891,2.02686c0,.82959.21191,1.4834.63574,1.96191s.99121.71777,1.70215.71777c.72461,0,1.28174-.23486,1.67139-.7041s.58447-1.13721.58447-2.00293c0-.875-.19482-1.54932-.58447-2.02344s-.94678-.71094-1.67139-.71094Z" fill="#2f2f2f"/>
        <path d="M502.90049,215.6h-1.12109v-3.99219c0-1.48584-.54248-2.22852-1.62695-2.22852-.56055,0-1.02441.21094-1.39111.63232s-.55029.95361-.55029,1.59619v3.99219h-1.12109v-7h1.12109v1.16211h.02734c.52881-.88428,1.29443-1.32617,2.29688-1.32617.76562,0,1.35107.24707,1.75684.7417s.6084,1.20898.6084,2.14307v4.2793Z" fill="#2f2f2f"/>
        <path d="M505.48496,206.82266c-.20068,0-.37158-.06836-.5127-.20508s-.21191-.31006-.21191-.51953.0708-.38379.21191-.52295.31201-.2085.5127-.2085c.20508,0,.37939.06934.52295.2085s.21533.31348.21533.52295c0,.20068-.07178.37158-.21533.5127s-.31787.21191-.52295.21191ZM506.03184,215.6h-1.12109v-7h1.12109v7Z" fill="#2f2f2f"/>
        <path d="M513.1417,208.92129l-4.14258,5.72168h4.10156v.95703h-5.74902v-.34863l4.14258-5.69434h-3.75293v-.95703h5.40039v.32129Z" fill="#2f2f2f"/>
        <path d="M519.69395,215.6h-1.12109v-1.09375h-.02734c-.48779.83838-1.20557,1.25781-2.15332,1.25781-.69727,0-1.24316-.18457-1.63721-.55371s-.59131-.85889-.59131-1.46973c0-1.30811.77002-2.06885,2.31055-2.2832l2.09863-.29395c0-1.18945-.48096-1.78418-1.44238-1.78418-.84326,0-1.604.28711-2.2832.86133v-1.14844c.68799-.4375,1.48096-.65625,2.37891-.65625,1.64502,0,2.46777.87061,2.46777,2.61133v4.55273ZM518.57285,212.05898l-1.68848.23242c-.51953.07275-.91162.20166-1.17578.38623s-.39648.51172-.39648.98096c0,.3418.12207.62109.36572.8374s.56836.32471.97412.32471c.55615,0,1.01514-.19482,1.37744-.58447s.54346-.88281.54346-1.47998v-.69727Z" fill="#2f2f2f"/>
        <path d="M524.95225,215.53164c-.26416.146-.61279.21875-1.0459.21875-1.22607,0-1.83887-.68359-1.83887-2.05078v-4.14258h-1.20312v-.95703h1.20312v-1.70898l1.12109-.3623v2.07129h1.76367v.95703h-1.76367v3.94434c0,.46924.07959.8042.23926,1.00488s.42383.30078.79297.30078c.28271,0,.52637-.07764.73145-.23242v.95703Z" fill="#2f2f2f"/>
        <path d="M526.90781,206.82266c-.20068,0-.37158-.06836-.5127-.20508s-.21191-.31006-.21191-.51953.0708-.38379.21191-.52295.31201-.2085.5127-.2085c.20508,0,.37939.06934.52295.2085s.21533.31348.21533.52295c0,.20068-.07178.37158-.21533.5127s-.31787.21191-.52295.21191ZM527.45469,215.6h-1.12109v-7h1.12109v7Z" fill="#2f2f2f"/>
        <path d="M532.54893,215.76406c-1.03467,0-1.86035-.32715-2.47803-.98096s-.92627-1.521-.92627-2.60107c0-1.17578.32129-2.09424.96387-2.75488s1.51074-.99121,2.60449-.99121c1.04346,0,1.8584.32129,2.44385.96387s.87842,1.53369.87842,2.67285c0,1.1167-.31543,2.01074-.94678,2.68311s-1.47754,1.0083-2.53955,1.0083ZM532.63096,209.3793c-.72021,0-1.28955.24512-1.70898.73486s-.62891,1.16553-.62891,2.02686c0,.82959.21191,1.4834.63574,1.96191s.99121.71777,1.70215.71777c.72461,0,1.28174-.23486,1.67139-.7041s.58447-1.13721.58447-2.00293c0-.875-.19482-1.54932-.58447-2.02344s-.94678-.71094-1.67139-.71094Z" fill="#2f2f2f"/>
        <path d="M543.56113,215.6h-1.12109v-3.99219c0-1.48584-.54248-2.22852-1.62695-2.22852-.56055,0-1.02441.21094-1.39111.63232s-.55029.95361-.55029,1.59619v3.99219h-1.12109v-7h1.12109v1.16211h.02734c.52881-.88428,1.29443-1.32617,2.29688-1.32617.76562,0,1.35107.24707,1.75684.7417s.6084,1.20898.6084,2.14307v4.2793Z" fill="#2f2f2f"/>
      </g>
      <g>
        <path d="M730.69395,77.75186c-.72461.38281-1.62695.57422-2.70703.57422-1.39453,0-2.51074-.44873-3.34961-1.34668-.83789-.89795-1.25781-2.07568-1.25781-3.53418,0-1.56787.47168-2.83447,1.41504-3.80078s2.13965-1.44922,3.58887-1.44922c.92969,0,1.7002.13428,2.31055.40332v1.22363c-.70117-.39209-1.47656-.58789-2.32422-.58789-1.125,0-2.03809.37598-2.7373,1.12793-.7002.75195-1.0498,1.75684-1.0498,3.01465,0,1.19385.32715,2.14551.98145,2.854.65332.7085,1.51172,1.06299,2.57324,1.06299.98438,0,1.83691-.21875,2.55664-.65625v1.11426Z" fill="#2f2f2f"/>
        <path d="M733.3668,78.16201h-1.12109v-10.36328h1.12109v10.36328Z" fill="#2f2f2f"/>
        <path d="M736.0543,69.38467c-.20117,0-.37207-.06836-.5127-.20508-.1416-.13672-.21191-.31006-.21191-.51953s.07031-.38379.21191-.52295c.14062-.13916.31152-.2085.5127-.2085.20508,0,.37891.06934.52246.2085s.21582.31348.21582.52295c0,.20068-.07227.37158-.21582.5127s-.31738.21191-.52246.21191ZM736.60117,78.16201h-1.12109v-7h1.12109v7Z" fill="#2f2f2f"/>
        <path d="M744.39512,74.94229h-4.94238c.01855.7793.22852,1.38086.62891,1.80469.40137.42383.95312.63574,1.6543.63574.78906,0,1.51367-.25977,2.17383-.7793v1.05273c-.61523.44678-1.42871.66992-2.44043.66992-.98828,0-1.76562-.31787-2.33105-.95361-.56445-.63574-.84766-1.53027-.84766-2.68311,0-1.08936.30859-1.97656.92676-2.6626.61719-.68604,1.38379-1.02881,2.2998-1.02881s1.625.29639,2.12598.88867c.50195.59229.75195,1.41504.75195,2.46777v.58789ZM743.24668,73.99209c-.00391-.64697-.16016-1.15088-.46777-1.51074s-.73535-.54004-1.28223-.54004c-.52832,0-.97754.18896-1.34668.56738s-.59668.87256-.68359,1.4834h3.78027Z" fill="#2f2f2f"/>
        <path d="M751.88926,78.16201h-1.12109v-3.99219c0-1.48584-.54297-2.22852-1.62695-2.22852-.56055,0-1.02441.21094-1.3916.63232-.36621.42139-.5498.95361-.5498,1.59619v3.99219h-1.12109v-7h1.12109v1.16211h.02734c.52832-.88428,1.29395-1.32617,2.29688-1.32617.76562,0,1.35059.24707,1.75684.7417.40527.49463.6084,1.20898.6084,2.14307v4.2793Z" fill="#2f2f2f"/>
        <path d="M757.11777,78.09365c-.26367.146-.6123.21875-1.0459.21875-1.22559,0-1.83887-.68359-1.83887-2.05078v-4.14258h-1.20312v-.95703h1.20312v-1.70898l1.12109-.3623v2.07129h1.76367v.95703h-1.76367v3.94434c0,.46924.08008.8042.23926,1.00488.16016.20068.42383.30078.79297.30078.2832,0,.52637-.07764.73145-.23242v.95703Z" fill="#2f2f2f"/>
        <path d="M767.12559,68.35928v6.47363h1.25781v1.02539h-1.25781v2.30371h-1.10742v-2.30371h-4.60742v-.9707c.42871-.48291.86133-.99902,1.29883-1.54834s.85547-1.10645,1.25488-1.67139c.39844-.56494.76758-1.12891,1.10742-1.69189.33887-.56299.625-1.10156.85742-1.6167h1.19629ZM762.67539,74.83291h3.34277v-4.79883c-.3418.59717-.66504,1.13037-.9707,1.59961-.30469.46924-.5957.89551-.87109,1.27832-.27637.38281-.53906.729-.79004,1.03906-.25.31006-.4873.604-.71094.88184Z" fill="#2f2f2f"/>
      </g>
      <g>
        <path d="M466.49863,140.85244h-2.83008v8.76367h-1.14844v-8.76367h-2.82324v-1.03906h6.80176v1.03906Z"/>
        <path d="M470.31992,143.75088c-.19629-.15039-.47852-.22559-.84766-.22559-.47852,0-.87891.22559-1.19922.67676-.32227.45117-.48242,1.06641-.48242,1.8457v3.56836h-1.12109v-7h1.12109v1.44238h.02734c.15918-.49219.40332-.87598.73145-1.15137.32812-.27637.69531-.41406,1.10059-.41406.29199,0,.51465.03223.66992.0957v1.16211Z"/>
        <path d="M476.54746,149.61611h-1.12109v-1.09375h-.02734c-.4873.83887-1.20508,1.25781-2.15332,1.25781-.69727,0-1.24316-.18457-1.63672-.55371-.39453-.36914-.5918-.85938-.5918-1.46973,0-1.30762.77051-2.06934,2.31055-2.2832l2.09863-.29395c0-1.18945-.48047-1.78418-1.44238-1.78418-.84277,0-1.60449.28711-2.2832.86133v-1.14844c.68848-.4375,1.48145-.65625,2.37891-.65625,1.64551,0,2.46777.87012,2.46777,2.61133v4.55273ZM475.42637,146.0751l-1.68848.23242c-.51953.07324-.91113.20117-1.17578.38672-.26465.18359-.39648.51074-.39648.98047,0,.3418.12207.62109.36523.83789.24414.21582.56934.32422.97461.32422.55566,0,1.01562-.19531,1.37695-.58398.36328-.39062.54395-.88379.54395-1.48047v-.69727Z"/>
        <path d="M482.11875,140.23721c-.21875-.12305-.4668-.18457-.74512-.18457-.78418,0-1.17578.49414-1.17578,1.4834v1.08008h1.64062v.95703h-1.64062v6.04297h-1.11426v-6.04297h-1.19629v-.95703h1.19629v-1.13477c0-.7334.21191-1.31348.63574-1.74023.42383-.42578.95215-.63867,1.58594-.63867.3418,0,.61328.04102.81348.12305v1.01172Z"/>
        <path d="M486.50059,140.23721c-.21875-.12305-.4668-.18457-.74512-.18457-.78418,0-1.17578.49414-1.17578,1.4834v1.08008h1.64062v.95703h-1.64062v6.04297h-1.11426v-6.04297h-1.19629v-.95703h1.19629v-1.13477c0-.7334.21191-1.31348.63574-1.74023.42383-.42578.95215-.63867,1.58594-.63867.3418,0,.61328.04102.81348.12305v1.01172Z"/>
        <path d="M487.99766,140.83877c-.2002,0-.37109-.06836-.5127-.20508s-.21191-.30957-.21191-.51953.07031-.38379.21191-.52344c.1416-.13867.3125-.20801.5127-.20801.20508,0,.37891.06934.52344.20801.14258.13965.21484.31348.21484.52344,0,.2002-.07227.37109-.21484.5127-.14453.1416-.31836.21191-.52344.21191ZM488.54453,149.61611h-1.12109v-7h1.12109v7Z"/>
        <path d="M495.58555,149.29482c-.53809.32324-1.17578.48535-1.91406.48535-.99805,0-1.80371-.32422-2.41602-.97461-.61328-.64844-.91992-1.49121-.91992-2.52539,0-1.15332.33008-2.0791.99121-2.7793.66113-.69922,1.54297-1.04883,2.64551-1.04883.61523,0,1.15723.11426,1.62695.3418v1.14844c-.51953-.36426-1.0752-.54688-1.66797-.54688-.71582,0-1.30273.25586-1.75977.76953-.45898.51172-.6875,1.18555-.6875,2.01953,0,.82031.21484,1.46777.64648,1.94141.42969.47363,1.00781.71094,1.73242.71094.61035,0,1.18457-.20312,1.72266-.6084v1.06641Z"/>
        <path d="M511.26035,149.61611h-1.1416v-6.57617c0-.51953.03223-1.15527.0957-1.90723h-.02734c-.10938.44238-.20703.75879-.29395.9502l-3.34961,7.5332h-.56055l-3.34277-7.47852c-.0957-.21875-.19336-.55371-.29395-1.00488h-.02734c.03613.3916.05469,1.03223.05469,1.9209v6.5625h-1.10742v-9.80273h1.51758l3.00781,6.83594c.23242.52441.38281.91602.45117,1.17578h.04102c.19629-.53809.35352-.93848.47168-1.20312l3.06934-6.80859h1.43555v9.80273Z"/>
        <path d="M518.69785,149.61611h-1.12109v-1.09375h-.02734c-.4873.83887-1.20508,1.25781-2.15332,1.25781-.69727,0-1.24316-.18457-1.63672-.55371-.39453-.36914-.5918-.85938-.5918-1.46973,0-1.30762.77051-2.06934,2.31055-2.2832l2.09863-.29395c0-1.18945-.48047-1.78418-1.44238-1.78418-.84277,0-1.60449.28711-2.2832.86133v-1.14844c.68848-.4375,1.48145-.65625,2.37891-.65625,1.64551,0,2.46777.87012,2.46777,2.61133v4.55273ZM517.57676,146.0751l-1.68848.23242c-.51953.07324-.91113.20117-1.17578.38672-.26465.18359-.39648.51074-.39648.98047,0,.3418.12207.62109.36523.83789.24414.21582.56934.32422.97461.32422.55566,0,1.01562-.19531,1.37695-.58398.36328-.39062.54395-.88379.54395-1.48047v-.69727Z"/>
        <path d="M526.6207,149.61611h-1.12109v-3.99219c0-1.48535-.54199-2.22852-1.62695-2.22852-.56055,0-1.02441.21094-1.39062.63281-.36719.4209-.55078.95312-.55078,1.5957v3.99219h-1.12109v-7h1.12109v1.16211h.02734c.52832-.88379,1.29395-1.32617,2.29688-1.32617.76562,0,1.35156.24707,1.75684.74219.40527.49414.6084,1.20801.6084,2.14258v4.2793Z"/>
        <path d="M533.74375,149.61611h-1.12109v-1.09375h-.02734c-.4873.83887-1.20508,1.25781-2.15332,1.25781-.69727,0-1.24316-.18457-1.63672-.55371-.39453-.36914-.5918-.85938-.5918-1.46973,0-1.30762.77051-2.06934,2.31055-2.2832l2.09863-.29395c0-1.18945-.48047-1.78418-1.44238-1.78418-.84277,0-1.60449.28711-2.2832.86133v-1.14844c.68848-.4375,1.48145-.65625,2.37891-.65625,1.64551,0,2.46777.87012,2.46777,2.61133v4.55273ZM532.62266,146.0751l-1.68848.23242c-.51953.07324-.91113.20117-1.17578.38672-.26465.18359-.39648.51074-.39648.98047,0,.3418.12207.62109.36523.83789.24414.21582.56934.32422.97461.32422.55566,0,1.01562-.19531,1.37695-.58398.36328-.39062.54395-.88379.54395-1.48047v-.69727Z"/>
        <path d="M541.83066,149.05557c0,2.57031-1.23047,3.85547-3.69141,3.85547-.86621,0-1.62207-.16406-2.26953-.49219v-1.12109c.78809.4375,1.54004.65625,2.25586.65625,1.72266,0,2.58398-.91602,2.58398-2.74805v-.76562h-.02734c-.5332.89355-1.33496,1.33984-2.40625,1.33984-.87012,0-1.57129-.31055-2.10156-.93359-.53125-.62109-.79688-1.45703-.79688-2.50488,0-1.18945.28613-2.13477.85742-2.83691.57227-.70215,1.35547-1.05273,2.34863-1.05273.94336,0,1.64258.37793,2.09863,1.13477h.02734v-.9707h1.12109v6.43945ZM540.70957,146.45107v-1.03223c0-.55566-.1875-1.03223-.56445-1.42871-.375-.39648-.84375-.59473-1.4043-.59473-.69238,0-1.23535.25195-1.62695.75586-.3916.50293-.58789,1.20801-.58789,2.11523,0,.7793.1875,1.40234.56445,1.86914.375.46777.87305.70117,1.49316.70117.62891,0,1.14062-.22363,1.53418-.66992.39453-.44629.5918-1.01855.5918-1.71582Z"/>
        <path d="M549.72617,146.39639h-4.94238c.01855.7793.22754,1.38086.62891,1.80469s.95215.63574,1.6543.63574c.78809,0,1.5127-.25977,2.17383-.7793v1.05273c-.61523.44629-1.42871.66992-2.44043.66992-.98926,0-1.76562-.31836-2.33105-.95312-.56543-.63672-.84766-1.53027-.84766-2.68359,0-1.08887.30859-1.97656.92578-2.66211.61816-.68652,1.38477-1.0293,2.30078-1.0293s1.625.2959,2.12598.88867.75195,1.41504.75195,2.46777v.58789ZM548.57773,145.44619c-.00488-.64746-.16113-1.15039-.46777-1.51074-.30859-.36035-.73535-.54004-1.28223-.54004-.52832,0-.97754.18945-1.34668.56738s-.59668.87305-.68359,1.4834h3.78027Z"/>
        <path d="M555.07187,143.75088c-.19629-.15039-.47852-.22559-.84766-.22559-.47852,0-.87891.22559-1.19922.67676-.32227.45117-.48242,1.06641-.48242,1.8457v3.56836h-1.12109v-7h1.12109v1.44238h.02734c.15918-.49219.40332-.87598.73145-1.15137.32812-.27637.69531-.41406,1.10059-.41406.29199,0,.51465.03223.66992.0957v1.16211Z"/>
      </g>
      <g>
        <rect x="26.4" y="172.7" width="115.52769" height="39" fill="none"/>
        <path d="M47.9415,184.60146h-2.40625l-.69727-2.18066h-3.48633l-.69043,2.18066h-2.39258l3.56836-9.80273h2.61816l3.48633,9.80273ZM44.33213,180.72549l-1.05273-3.29492c-.07764-.24609-.13232-.54004-.16406-.88184h-.05469c-.02295.28711-.07959.57178-.1709.85449l-1.06641,3.32227h2.50879Z" fill="#2f2f2f"/>
        <path d="M54.84727,184.60146h-6.28223v-.89551l3.51367-4.51172h-3.16504v-1.59277h5.90625v1.06641l-3.3291,4.34082h3.35645v1.59277Z" fill="#2f2f2f"/>
        <path d="M62.7291,184.60146h-2.15332v-1.06641h-.03418c-.5332.82471-1.24658,1.2373-2.13965,1.2373-1.62256,0-2.43359-.98193-2.43359-2.94629v-4.22461h2.15332v4.0332c0,.98877.39209,1.4834,1.17578,1.4834.38721,0,.69727-.13574.92969-.40674s.34863-.63916.34863-1.104v-4.00586h2.15332v7Z" fill="#2f2f2f"/>
        <path d="M69.06357,179.54971c-.25977-.14111-.56299-.21191-.90918-.21191-.46924,0-.83643.17188-1.10059.51611s-.39648.8125-.39648,1.40479v3.34277h-2.16016v-7h2.16016v1.29883h.02734c.3418-.94775.95703-1.42188,1.8457-1.42188.22803,0,.40576.02734.5332.08203v1.98926Z" fill="#2f2f2f"/>
        <path d="M76.43613,181.7167h-4.56641c.07275,1.01611.71338,1.52441,1.9209,1.52441.77002,0,1.44678-.18213,2.03027-.54688v1.55859c-.64697.34619-1.48779.51953-2.52246.51953-1.13037,0-2.00732-.31348-2.63184-.93994s-.93652-1.50049-.93652-2.62158c0-1.16211.3374-2.08252,1.01172-2.76172s1.50391-1.01855,2.48828-1.01855c1.021,0,1.81055.30322,2.36865.90918s.8374,1.42871.8374,2.46777v.90918ZM74.4332,180.39053c0-1.00244-.40576-1.50391-1.2168-1.50391-.34619,0-.646.14355-.89893.43066s-.40674.64502-.46143,1.07324h2.57715Z" fill="#2f2f2f"/>
        <path d="M81.34434,184.22549v-2.1875c.39648.33252.82715.58203,1.29199.74854s.93408.24951,1.4082.24951c.27783,0,.52051-.0249.72803-.0752s.38037-.11963.51953-.2085.24268-.19385.31104-.31445.10254-.25195.10254-.39307c0-.19141-.05469-.3623-.16406-.5127s-.25879-.28955-.44775-.41699-.41357-.25049-.67334-.36914-.54004-.23926-.84082-.3623c-.76562-.31885-1.33643-.7085-1.7124-1.16895s-.56396-1.01611-.56396-1.66797c0-.51025.10254-.94922.30762-1.31592s.48438-.66895.8374-.90576.76221-.41113,1.22705-.52295.95703-.16748,1.47656-.16748c.51025,0,.96289.03076,1.35693.09229s.75781.15625,1.09033.28369v2.04395c-.16406-.11377-.34277-.21436-.53662-.30078s-.39307-.1582-.59814-.21533-.40918-.09912-.61182-.12646-.39551-.04102-.57764-.04102c-.25049,0-.47852.02393-.68359.07178s-.37842.11523-.51953.20166-.25049.19043-.32812.31104-.11621.25635-.11621.40674c0,.16406.04346.31104.12988.44092s.20947.25293.36914.36914.35303.22998.58105.3418.48535.22656.77246.34521c.39209.16406.74414.33838,1.05615.52295s.58008.39307.80322.62549.39404.49805.5127.79639.17773.646.17773,1.04248c0,.54688-.10352,1.00586-.31104,1.37744s-.48877.67236-.84424.90234-.76904.39551-1.24072.49561-.96973.15039-1.49365.15039c-.5376,0-1.04932-.04541-1.53467-.13672s-.90576-.22803-1.26123-.41016Z" fill="#2f2f2f"/>
        <path d="M90.48984,176.49404c-.36475,0-.66309-.1084-.89551-.32471s-.34863-.48193-.34863-.79639c0-.32373.11621-.58789.34863-.79297s.53076-.30762.89551-.30762c.36914,0,.66895.10254.89893.30762s.34521.46924.34521.79297c0,.32812-.11523.59717-.34521.80664s-.52979.31445-.89893.31445ZM91.55625,184.60146h-2.16016v-7h2.16016v7Z" fill="#2f2f2f"/>
        <path d="M100.22129,183.80166c0,1.29883-.37598,2.30469-1.12793,3.01807s-1.84131,1.06982-3.26758,1.06982c-.94336,0-1.69092-.13428-2.24219-.40332v-1.81836c.72021.41943,1.44678.62891,2.18066.62891.729,0,1.29443-.19238,1.69531-.57764s.60156-.9082.60156-1.56885v-.55371h-.02734c-.49219.78369-1.21924,1.17578-2.18066,1.17578-.89307,0-1.60205-.31445-2.12598-.94336s-.78613-1.47217-.78613-2.5293c0-1.18506.2915-2.12598.875-2.82324s1.35107-1.0459,2.30371-1.0459c.85205,0,1.49023.32812,1.91406.98438h.02734v-.81348h2.16016v6.2002ZM98.08848,181.23818v-.55371c0-.44189-.13086-.81934-.39307-1.13135s-.60254-.46826-1.02197-.46826c-.47852,0-.85449.18701-1.12793.56055s-.41016.8999-.41016,1.5791c0,.5835.12988,1.04492.38965,1.38428s.61523.50928,1.06641.50928c.44678,0,.80762-.17188,1.0835-.51611s.41357-.79883.41357-1.36377Z" fill="#2f2f2f"/>
        <path d="M108.7418,184.60146h-2.15332v-3.88965c0-1.08447-.38721-1.62695-1.16211-1.62695-.37354,0-.68115.14355-.92285.43066s-.3623.65186-.3623,1.09375v3.99219h-2.16016v-7h2.16016v1.10742h.02734c.51514-.85205,1.26465-1.27832,2.24902-1.27832,1.54932,0,2.32422.96143,2.32422,2.88477v4.28613Z" fill="#2f2f2f"/>
        <path d="M116.30723,184.60146h-2.04395v-1.00488h-.02734c-.46924.78369-1.16455,1.17578-2.08496,1.17578-.6792,0-1.21338-.19238-1.60303-.57764s-.58447-.89893-.58447-1.5415c0-1.35791.8042-2.14209,2.41309-2.35156l1.90039-.25293c0-.76562-.41455-1.14844-1.24414-1.14844-.83398,0-1.62695.24854-2.37891.74512v-1.62695c.30078-.15479.71191-.2915,1.23389-.41016s.99707-.17773,1.42529-.17773c1.99609,0,2.99414.99561,2.99414,2.9873v4.18359ZM114.27695,181.75771v-.47168l-1.27148.16406c-.70166.09131-1.05273.40771-1.05273.9502,0,.24609.08545.44775.25635.60498s.40234.23584.69385.23584c.40576,0,.73584-.14014.99121-.42041s.38281-.63477.38281-1.06299Z" fill="#2f2f2f"/>
        <path d="M120.16514,184.60146h-2.16016v-10.36328h2.16016v10.36328Z" fill="#2f2f2f"/>
        <path d="M130.33213,184.60146h-2.53613l-1.52441-2.52246c-.11377-.19141-.22314-.3623-.32812-.5127s-.21094-.2793-.31787-.38623-.21875-.18896-.33496-.24609-.24268-.08545-.37939-.08545h-.59473v3.75293h-2.20801v-9.80273h3.5c2.37891,0,3.56836.88867,3.56836,2.66602,0,.3418-.05225.65723-.15723.94678s-.25293.55029-.44434.78271-.42285.43311-.69385.60156-.57324.30078-.90576.39648v.02734c.146.04541.28711.11963.42383.22217s.26904.22217.39648.35889.24951.28369.36572.44092.22217.31104.31787.46143l1.85254,2.89844ZM124.3165,176.45303v2.72754h.95703c.47412,0,.85449-.13672,1.1416-.41016.2915-.27783.4375-.62207.4375-1.03223,0-.85693-.5127-1.28516-1.53809-1.28516h-.99805Z" fill="#2f2f2f"/>
        <path d="M61.15439,201.02529v-2.1875c.39648.33252.82715.58203,1.29199.74854s.93408.24951,1.4082.24951c.27783,0,.52051-.0249.72803-.0752s.38037-.11963.51953-.2085.24268-.19385.31104-.31445.10254-.25195.10254-.39307c0-.19141-.05469-.3623-.16406-.5127s-.25879-.28955-.44775-.41699-.41357-.25049-.67334-.36914-.54004-.23926-.84082-.3623c-.76562-.31885-1.33643-.7085-1.7124-1.16895s-.56396-1.01611-.56396-1.66797c0-.51025.10254-.94922.30762-1.31592s.48438-.66895.8374-.90576.76221-.41113,1.22705-.52295.95703-.16748,1.47656-.16748c.51025,0,.96289.03076,1.35693.09229s.75781.15625,1.09033.28369v2.04395c-.16406-.11377-.34277-.21436-.53662-.30078s-.39307-.1582-.59814-.21533-.40918-.09912-.61182-.12646-.39551-.04102-.57764-.04102c-.25049,0-.47852.02393-.68359.07178s-.37842.11523-.51953.20166-.25049.19043-.32812.31104-.11621.25635-.11621.40674c0,.16406.04346.31104.12988.44092s.20947.25293.36914.36914.35303.22998.58105.3418.48535.22656.77246.34521c.39209.16406.74414.33838,1.05615.52295s.58008.39307.80322.62549.39404.49805.5127.79639.17773.646.17773,1.04248c0,.54688-.10352,1.00586-.31104,1.37744s-.48877.67236-.84424.90234-.76904.39551-1.24072.49561-.96973.15039-1.49365.15039c-.5376,0-1.04932-.04541-1.53467-.13672s-.90576-.22803-1.26123-.41016Z" fill="#2f2f2f"/>
        <path d="M75.53037,198.5165h-4.56641c.07275,1.01611.71338,1.52441,1.9209,1.52441.77002,0,1.44678-.18213,2.03027-.54688v1.55859c-.64697.34619-1.48779.51953-2.52246.51953-1.13037,0-2.00732-.31348-2.63184-.93994s-.93652-1.50049-.93652-2.62158c0-1.16211.3374-2.08252,1.01172-2.76172s1.50391-1.01855,2.48828-1.01855c1.021,0,1.81055.30322,2.36865.90918s.8374,1.42871.8374,2.46777v.90918ZM73.52744,197.19033c0-1.00244-.40576-1.50391-1.2168-1.50391-.34619,0-.646.14355-.89893.43066s-.40674.64502-.46143,1.07324h2.57715Z" fill="#2f2f2f"/>
        <path d="M81.46152,196.34951c-.25977-.14111-.56299-.21191-.90918-.21191-.46924,0-.83643.17188-1.10059.51611s-.39648.8125-.39648,1.40479v3.34277h-2.16016v-7h2.16016v1.29883h.02734c.3418-.94775.95703-1.42188,1.8457-1.42188.22803,0,.40576.02734.5332.08203v1.98926Z" fill="#2f2f2f"/>
        <path d="M89.56016,194.40127l-2.60449,7h-2.46094l-2.48145-7h2.31055l1.2168,4.31348c.13672.48779.21631.90234.23926,1.24414h.02734c.03174-.32373.11621-.72461.25293-1.20312l1.24414-4.35449h2.25586Z" fill="#2f2f2f"/>
        <path d="M91.60605,193.29385c-.36475,0-.66309-.1084-.89551-.32471s-.34863-.48193-.34863-.79639c0-.32373.11621-.58789.34863-.79297s.53076-.30762.89551-.30762c.36914,0,.66895.10254.89893.30762s.34521.46924.34521.79297c0,.32812-.11523.59717-.34521.80664s-.52979.31445-.89893.31445ZM92.67246,201.40127h-2.16016v-7h2.16016v7Z" fill="#2f2f2f"/>
        <path d="M99.75205,201.14834c-.48779.28271-1.19189.42383-2.1123.42383-1.07568,0-1.9458-.32568-2.61133-.97754s-.99805-1.49268-.99805-2.52246c0-1.18945.35645-2.12695,1.06982-2.81299s1.66699-1.02881,2.86084-1.02881c.82471,0,1.42188.10938,1.79102.32812v1.83203c-.45117-.3374-.95459-.50586-1.51074-.50586-.61963,0-1.11084.18115-1.47314.54346s-.54346.8623-.54346,1.50049c0,.61963.17334,1.10645.51953,1.45947s.82275.52979,1.42871.52979c.5376,0,1.06396-.16846,1.5791-.50586v1.73633Z" fill="#2f2f2f"/>
        <path d="M107.46738,198.5165h-4.56641c.07275,1.01611.71338,1.52441,1.9209,1.52441.77002,0,1.44678-.18213,2.03027-.54688v1.55859c-.64697.34619-1.48779.51953-2.52246.51953-1.13037,0-2.00732-.31348-2.63184-.93994s-.93652-1.50049-.93652-2.62158c0-1.16211.3374-2.08252,1.01172-2.76172s1.50391-1.01855,2.48828-1.01855c1.021,0,1.81055.30322,2.36865.90918s.8374,1.42871.8374,2.46777v.90918ZM105.46445,197.19033c0-1.00244-.40576-1.50391-1.2168-1.50391-.34619,0-.646.14355-.89893.43066s-.40674.64502-.46143,1.07324h2.57715Z" fill="#2f2f2f"/>
      </g>
    </g>
  </g>
</svg>