<?xml version="1.0" encoding="UTF-8"?>
<svg xmlns="http://www.w3.org/2000/svg" width="668.8" height="184.8" xmlns:xlink="http://www.w3.org/1999/xlink" viewBox="0 0 668.8 184.8">
  <defs>
    <linearGradient id="Cool_gray_gradient_1" data-name="Cool gray gradient 1" x1="8.8" y1="92.4" x2="220" y2="92.4" gradientUnits="userSpaceOnUse">
      <stop offset="0" stop-color="#f5f5f4"/>
      <stop offset="1" stop-color="#ececea"/>
    </linearGradient>
    <linearGradient id="Cool_gray_gradient_1-2" data-name="Cool gray gradient 1" x1="227.57526" x2="438.77526" xlink:href="#Cool_gray_gradient_1"/>
    <linearGradient id="Cool_gray_gradient_1-3" data-name="Cool gray gradient 1" x1="448.8" x2="660" xlink:href="#Cool_gray_gradient_1"/>
    <radialGradient id="radial-gradient" cx="333.69615" cy="1563.82796" fx="333.69615" fy="1563.82796" r="14.02275" gradientTransform="translate(0 1656.39945) scale(1 -1)" gradientUnits="userSpaceOnUse">
      <stop offset=".18" stop-color="#5ea0ef"/>
      <stop offset="1" stop-color="#0078d4"/>
    </radialGradient>
    <clipPath id="clippath">
      <path d="M342.29128,103.65767c-6.12275,4.74702-14.93439,3.63165-19.68135-2.49102-4.74696-6.12277-3.63165-14.93442,2.4911-19.68133l.14848-.09908c6.2062-4.63253,14.9928-3.35697,19.62542,2.84928,4.55469,6.10183,3.4078,14.72327-2.58365,19.42215Z" fill="none"/>
    </clipPath>
  </defs>
  <g isolation="isolate">
    <g id="Shapes">
      <rect width="668.8" height="184.8" fill="#fff"/>
      <g>
        <g mix-blend-mode="multiply" opacity=".7">
          <rect x="9.3" y="9.3" width="211.2" height="167.2" rx="8" ry="8"/>
          <rect x="9.3" y="9.3" width="211.2" height="167.2" rx="8" ry="8" opacity=".2"/>
        </g>
        <g>
          <rect x="8.8" y="8.8" width="211.2" height="167.2" rx="8" ry="8" fill="url(#Cool_gray_gradient_1)"/>
          <rect x="8.8" y="8.8" width="211.2" height="167.2" rx="8" ry="8" fill="#0078d4" opacity=".2"/>
        </g>
      </g>
      <g>
        <g mix-blend-mode="multiply" opacity=".7">
          <rect x="228.07526" y="9.3" width="211.2" height="167.2" rx="8" ry="8"/>
          <rect x="228.07526" y="9.3" width="211.2" height="167.2" rx="8" ry="8" opacity=".2"/>
        </g>
        <g>
          <rect x="227.57526" y="8.8" width="211.2" height="167.2" rx="8" ry="8" fill="url(#Cool_gray_gradient_1-2)"/>
          <rect x="227.57526" y="8.8" width="211.2" height="167.2" rx="8" ry="8" fill="#0078d4" opacity=".2"/>
        </g>
      </g>
      <g>
        <g mix-blend-mode="multiply" opacity=".7">
          <rect x="449.3" y="9.3" width="211.2" height="167.2" rx="8" ry="8"/>
          <rect x="449.3" y="9.3" width="211.2" height="167.2" rx="8" ry="8" opacity=".2"/>
        </g>
        <g>
          <rect x="448.8" y="8.8" width="211.2" height="167.2" rx="8" ry="8" fill="url(#Cool_gray_gradient_1-3)"/>
          <rect x="448.8" y="8.8" width="211.2" height="167.2" rx="8" ry="8" fill="#0078d4" opacity=".2"/>
        </g>
      </g>
      <g>
        <rect x="8.8" y="57.2" width="651.2" height="92.4" fill="#fff"/>
        <rect x="8.8" y="57.2" width="651.2" height="92.4" fill="#1a00e2" opacity=".03"/>
        <rect x="8.8" y="57.2" width="651.2" height="92.4" fill="none" opacity=".5" stroke="#1a00e2" stroke-width=".25"/>
      </g>
      <g>
        <path id="a9e07728-1645-4b38-9a48-dd4b9b350c00" d="M342.29128,103.65772c-6.12275,4.74696-14.93439,3.63165-19.68135-2.4911-4.74696-6.12275-3.63165-14.93439,2.4911-19.68135l.14848-.09898c6.2062-4.63262,14.9928-3.35697,19.62542,2.84923,4.55469,6.1018,3.4078,14.7233-2.58365,19.4222" fill="url(#radial-gradient)"/>
        <g clip-path="url(#clippath)">
          <path d="M325.66194,89.35451c-.18225.17852-.18528.47098-.00677.65323.08852.09037.21022.14049.33671.13865h10.09638c.71285-.01737,1.40057.2637,1.8972.77538.39401.41614.64285.94856.70939,1.51776.09116.68901-.12614,1.38316-.5939,1.8972-.44465.56714-1.12706.89616-1.8477.89086h-3.48094c-.06768-.01053-.13217.03246-.14848.09898l-.89086,2.19415c-.19797.47842-.41243.97334-.6104,1.46827-.03048.0448-.03048.10368,0,.14848l2.57359,2.4746,4.27282,4.27282.75888.80837,3.53043-1.96319-.77538-.6104-2.35912-2.37562-2.55709-2.57359h-.11548l.85786-.11548c2.07619-.40149,3.81514-1.81246,4.63576-3.7614.707-1.61995.707-3.46124,0-5.08119-.29296-.68016-.70029-1.3051-1.20431-1.8477-.57146-.62738-1.26842-1.12762-2.04567-1.46826-.86232-.38039-1.79613-.57165-2.73856-.56091h-4.94921v-1.93019c-.06441-.1085-.20398-.14523-.31345-.08249l-5.03169,5.03169Z" fill="#f2f2f2"/>
        </g>
      </g>
    </g>
    <g id="Text">
      <g>
        <path d="M62.68584,35.20021h-2.40625l-.69727-2.18066h-3.48633l-.69043,2.18066h-2.39258l3.56836-9.80273h2.61816l3.48633,9.80273ZM59.07646,31.32424l-1.05273-3.29492c-.07764-.24609-.13232-.54004-.16406-.88184h-.05469c-.02295.28711-.07959.57178-.1709.85449l-1.06641,3.32227h2.50879Z"/>
        <path d="M70.05498,28.20021l-2.60449,7h-2.46094l-2.48145-7h2.31055l1.2168,4.31348c.13672.48779.21631.90234.23926,1.24414h.02734c.03174-.32373.11621-.72461.25293-1.20312l1.24414-4.35449h2.25586Z"/>
        <path d="M76.59014,35.20021h-2.04395v-1.00488h-.02734c-.46924.78369-1.16455,1.17578-2.08496,1.17578-.6792,0-1.21338-.19238-1.60303-.57764s-.58447-.89893-.58447-1.5415c0-1.35791.8042-2.14209,2.41309-2.35156l1.90039-.25293c0-.76562-.41455-1.14844-1.24414-1.14844-.83398,0-1.62695.24854-2.37891.74512v-1.62695c.30078-.15479.71191-.2915,1.23389-.41016s.99707-.17773,1.42529-.17773c1.99609,0,2.99414.99561,2.99414,2.9873v4.18359ZM74.55986,32.35646v-.47168l-1.27148.16406c-.70166.09131-1.05273.40771-1.05273.9502,0,.24609.08545.44775.25635.60498s.40234.23584.69385.23584c.40576,0,.73584-.14014.99121-.42041s.38281-.63477.38281-1.06299Z"/>
        <path d="M79.39287,27.09279c-.36475,0-.66309-.1084-.89551-.32471s-.34863-.48193-.34863-.79639c0-.32373.11621-.58789.34863-.79297s.53076-.30762.89551-.30762c.36914,0,.66895.10254.89893.30762s.34521.46924.34521.79297c0,.32812-.11523.59717-.34521.80664s-.52979.31445-.89893.31445ZM80.45928,35.20021h-2.16016v-7h2.16016v7Z"/>
        <path d="M84.43779,35.20021h-2.16016v-10.36328h2.16016v10.36328Z"/>
        <path d="M92.08037,35.20021h-2.04395v-1.00488h-.02734c-.46924.78369-1.16455,1.17578-2.08496,1.17578-.6792,0-1.21338-.19238-1.60303-.57764s-.58447-.89893-.58447-1.5415c0-1.35791.8042-2.14209,2.41309-2.35156l1.90039-.25293c0-.76562-.41455-1.14844-1.24414-1.14844-.83398,0-1.62695.24854-2.37891.74512v-1.62695c.30078-.15479.71191-.2915,1.23389-.41016s.99707-.17773,1.42529-.17773c1.99609,0,2.99414.99561,2.99414,2.9873v4.18359ZM90.0501,32.35646v-.47168l-1.27148.16406c-.70166.09131-1.05273.40771-1.05273.9502,0,.24609.08545.44775.25635.60498s.40234.23584.69385.23584c.40576,0,.73584-.14014.99121-.42041s.38281-.63477.38281-1.06299Z"/>
        <path d="M95.97686,34.38674h-.02734v.81348h-2.16016v-10.36328h2.16016v4.41602h.02734c.5332-.81592,1.29199-1.22363,2.27637-1.22363.90234,0,1.59717.31006,2.08496.92969s.73145,1.46729.73145,2.54297c0,1.1665-.28467,2.10303-.85449,2.80957s-1.33057,1.05957-2.2832,1.05957c-.86133,0-1.51318-.32812-1.95508-.98438ZM95.91533,31.43361v.71777c0,.45117.12988.82471.38965,1.12109s.59229.44434.99805.44434c.49219,0,.87402-.19043,1.14502-.5708s.40674-.91943.40674-1.6167c0-.57861-.12402-1.03125-.37256-1.35693s-.60254-.48877-1.06299-.48877c-.43311,0-.79199.16162-1.07666.48535s-.42725.74512-.42725,1.26465Z"/>
        <path d="M103.56475,27.09279c-.36475,0-.66309-.1084-.89551-.32471s-.34863-.48193-.34863-.79639c0-.32373.11621-.58789.34863-.79297s.53076-.30762.89551-.30762c.36914,0,.66895.10254.89893.30762s.34521.46924.34521.79297c0,.32812-.11523.59717-.34521.80664s-.52979.31445-.89893.31445ZM104.63115,35.20021h-2.16016v-7h2.16016v7Z"/>
        <path d="M108.60967,35.20021h-2.16016v-10.36328h2.16016v10.36328Z"/>
        <path d="M111.52178,27.09279c-.36475,0-.66309-.1084-.89551-.32471s-.34863-.48193-.34863-.79639c0-.32373.11621-.58789.34863-.79297s.53076-.30762.89551-.30762c.36914,0,.66895.10254.89893.30762s.34521.46924.34521.79297c0,.32812-.11523.59717-.34521.80664s-.52979.31445-.89893.31445ZM112.58818,35.20021h-2.16016v-7h2.16016v7Z"/>
        <path d="M118.63799,35.11818c-.31885.16846-.7998.25293-1.44238.25293-1.52197,0-2.2832-.79053-2.2832-2.37207v-3.20605h-1.13477v-1.59277h1.13477v-1.51074l2.15332-.61523v2.12598h1.57227v1.59277h-1.57227v2.83008c0,.729.28955,1.09375.86816,1.09375.22803,0,.4624-.06592.7041-.19824v1.59961Z"/>
        <path d="M126.51982,28.20021l-2.84375,7.56055c-.68359,1.81836-1.71338,2.72754-3.08984,2.72754-.52393,0-.95459-.05908-1.29199-.17773v-1.72266c.28711.16846.59912.25293.93652.25293.55615,0,.94336-.26221,1.16211-.78613l.36914-.86816-2.84375-6.98633h2.39258l1.30566,4.25879c.08203.26416.146.57666.19141.93652h.02734c.04102-.26416.11621-.57178.22559-.92285l1.31934-4.27246h2.13965Z"/>
        <path d="M138.51689,35.20021h-7.89551v-1.27148l5.02441-6.7334h-4.66211v-1.79785h7.51953v1.2373l-4.91504,6.77441h4.92871v1.79102Z"/>
        <path d="M143.0833,35.37111c-1.1665,0-2.08398-.32715-2.75146-.98096s-1.00146-1.5415-1.00146-2.6626c0-1.15771.34619-2.06348,1.03906-2.71729s1.62939-.98096,2.80957-.98096c1.16211,0,2.07373.32715,2.73438.98096s.99121,1.51855.99121,2.59424c0,1.16211-.34082,2.08057-1.02197,2.75488s-1.61426,1.01172-2.79932,1.01172ZM143.13799,29.68361c-.51025,0-.90674.17529-1.18945.52637s-.42383.84766-.42383,1.49023c0,1.34424.54248,2.0166,1.62695,2.0166,1.03467,0,1.55176-.69043,1.55176-2.07129,0-1.30811-.52197-1.96191-1.56543-1.96191Z"/>
        <path d="M155.0667,35.20021h-2.15332v-3.88965c0-1.08447-.38721-1.62695-1.16211-1.62695-.37354,0-.68115.14355-.92285.43066s-.3623.65186-.3623,1.09375v3.99219h-2.16016v-7h2.16016v1.10742h.02734c.51514-.85205,1.26465-1.27832,2.24902-1.27832,1.54932,0,2.32422.96143,2.32422,2.88477v4.28613Z"/>
        <path d="M163.06475,32.31545h-4.56641c.07275,1.01611.71338,1.52441,1.9209,1.52441.77002,0,1.44678-.18213,2.03027-.54688v1.55859c-.64697.34619-1.48779.51953-2.52246.51953-1.13037,0-2.00732-.31348-2.63184-.93994s-.93652-1.50049-.93652-2.62158c0-1.16211.3374-2.08252,1.01172-2.76172s1.50391-1.01855,2.48828-1.01855c1.021,0,1.81055.30322,2.36865.90918s.8374,1.42871.8374,2.46777v.90918ZM161.06182,30.98927c0-1.00244-.40576-1.50391-1.2168-1.50391-.34619,0-.646.14355-.89893.43066s-.40674.64502-.46143,1.07324h2.57715Z"/>
        <path d="M172.99053,25.17873v10.02148h-2.15332v-7.58789c-.11865.10498-.25879.2041-.42041.29736s-.33398.17773-.51611.25293-.37158.13916-.56738.19141-.38965.08984-.58105.11279v-1.81836c.56055-.16406,1.08936-.37354,1.58594-.62891s.9458-.53564,1.34668-.84082h1.30566Z"/>
      </g>
      <g>
        <path d="M281.71074,35.20021h-2.40625l-.69727-2.18066h-3.48633l-.69043,2.18066h-2.39258l3.56836-9.80273h2.61816l3.48633,9.80273ZM278.10137,31.32424l-1.05273-3.29492c-.07764-.24609-.13232-.54004-.16406-.88184h-.05469c-.02295.28711-.07959.57178-.1709.85449l-1.06641,3.32227h2.50879Z"/>
        <path d="M289.07988,28.20021l-2.60449,7h-2.46094l-2.48145-7h2.31055l1.2168,4.31348c.13672.48779.21631.90234.23926,1.24414h.02734c.03174-.32373.11621-.72461.25293-1.20312l1.24414-4.35449h2.25586Z"/>
        <path d="M295.61504,35.20021h-2.04395v-1.00488h-.02734c-.46924.78369-1.16455,1.17578-2.08496,1.17578-.6792,0-1.21338-.19238-1.60303-.57764s-.58447-.89893-.58447-1.5415c0-1.35791.8042-2.14209,2.41309-2.35156l1.90039-.25293c0-.76562-.41455-1.14844-1.24414-1.14844-.83398,0-1.62695.24854-2.37891.74512v-1.62695c.30078-.15479.71191-.2915,1.23389-.41016s.99707-.17773,1.42529-.17773c1.99609,0,2.99414.99561,2.99414,2.9873v4.18359ZM293.58477,32.35646v-.47168l-1.27148.16406c-.70166.09131-1.05273.40771-1.05273.9502,0,.24609.08545.44775.25635.60498s.40234.23584.69385.23584c.40576,0,.73584-.14014.99121-.42041s.38281-.63477.38281-1.06299Z"/>
        <path d="M298.41777,27.09279c-.36475,0-.66309-.1084-.89551-.32471s-.34863-.48193-.34863-.79639c0-.32373.11621-.58789.34863-.79297s.53076-.30762.89551-.30762c.36914,0,.66895.10254.89893.30762s.34521.46924.34521.79297c0,.32812-.11523.59717-.34521.80664s-.52979.31445-.89893.31445ZM299.48418,35.20021h-2.16016v-7h2.16016v7Z"/>
        <path d="M303.4627,35.20021h-2.16016v-10.36328h2.16016v10.36328Z"/>
        <path d="M311.10527,35.20021h-2.04395v-1.00488h-.02734c-.46924.78369-1.16455,1.17578-2.08496,1.17578-.6792,0-1.21338-.19238-1.60303-.57764s-.58447-.89893-.58447-1.5415c0-1.35791.8042-2.14209,2.41309-2.35156l1.90039-.25293c0-.76562-.41455-1.14844-1.24414-1.14844-.83398,0-1.62695.24854-2.37891.74512v-1.62695c.30078-.15479.71191-.2915,1.23389-.41016s.99707-.17773,1.42529-.17773c1.99609,0,2.99414.99561,2.99414,2.9873v4.18359ZM309.075,32.35646v-.47168l-1.27148.16406c-.70166.09131-1.05273.40771-1.05273.9502,0,.24609.08545.44775.25635.60498s.40234.23584.69385.23584c.40576,0,.73584-.14014.99121-.42041s.38281-.63477.38281-1.06299Z"/>
        <path d="M315.00176,34.38674h-.02734v.81348h-2.16016v-10.36328h2.16016v4.41602h.02734c.5332-.81592,1.29199-1.22363,2.27637-1.22363.90234,0,1.59717.31006,2.08496.92969s.73145,1.46729.73145,2.54297c0,1.1665-.28467,2.10303-.85449,2.80957s-1.33057,1.05957-2.2832,1.05957c-.86133,0-1.51318-.32812-1.95508-.98438ZM314.94023,31.43361v.71777c0,.45117.12988.82471.38965,1.12109s.59229.44434.99805.44434c.49219,0,.87402-.19043,1.14502-.5708s.40674-.91943.40674-1.6167c0-.57861-.12402-1.03125-.37256-1.35693s-.60254-.48877-1.06299-.48877c-.43311,0-.79199.16162-1.07666.48535s-.42725.74512-.42725,1.26465Z"/>
        <path d="M322.58965,27.09279c-.36475,0-.66309-.1084-.89551-.32471s-.34863-.48193-.34863-.79639c0-.32373.11621-.58789.34863-.79297s.53076-.30762.89551-.30762c.36914,0,.66895.10254.89893.30762s.34521.46924.34521.79297c0,.32812-.11523.59717-.34521.80664s-.52979.31445-.89893.31445ZM323.65605,35.20021h-2.16016v-7h2.16016v7Z"/>
        <path d="M327.63457,35.20021h-2.16016v-10.36328h2.16016v10.36328Z"/>
        <path d="M330.54668,27.09279c-.36475,0-.66309-.1084-.89551-.32471s-.34863-.48193-.34863-.79639c0-.32373.11621-.58789.34863-.79297s.53076-.30762.89551-.30762c.36914,0,.66895.10254.89893.30762s.34521.46924.34521.79297c0,.32812-.11523.59717-.34521.80664s-.52979.31445-.89893.31445ZM331.61309,35.20021h-2.16016v-7h2.16016v7Z"/>
        <path d="M337.66289,35.11818c-.31885.16846-.7998.25293-1.44238.25293-1.52197,0-2.2832-.79053-2.2832-2.37207v-3.20605h-1.13477v-1.59277h1.13477v-1.51074l2.15332-.61523v2.12598h1.57227v1.59277h-1.57227v2.83008c0,.729.28955,1.09375.86816,1.09375.22803,0,.4624-.06592.7041-.19824v1.59961Z"/>
        <path d="M345.54473,28.20021l-2.84375,7.56055c-.68359,1.81836-1.71338,2.72754-3.08984,2.72754-.52393,0-.95459-.05908-1.29199-.17773v-1.72266c.28711.16846.59912.25293.93652.25293.55615,0,.94336-.26221,1.16211-.78613l.36914-.86816-2.84375-6.98633h2.39258l1.30566,4.25879c.08203.26416.146.57666.19141.93652h.02734c.04102-.26416.11621-.57178.22559-.92285l1.31934-4.27246h2.13965Z"/>
        <path d="M357.5418,35.20021h-7.89551v-1.27148l5.02441-6.7334h-4.66211v-1.79785h7.51953v1.2373l-4.91504,6.77441h4.92871v1.79102Z"/>
        <path d="M362.1082,35.37111c-1.1665,0-2.08398-.32715-2.75146-.98096s-1.00146-1.5415-1.00146-2.6626c0-1.15771.34619-2.06348,1.03906-2.71729s1.62939-.98096,2.80957-.98096c1.16211,0,2.07373.32715,2.73438.98096s.99121,1.51855.99121,2.59424c0,1.16211-.34082,2.08057-1.02197,2.75488s-1.61426,1.01172-2.79932,1.01172ZM362.16289,29.68361c-.51025,0-.90674.17529-1.18945.52637s-.42383.84766-.42383,1.49023c0,1.34424.54248,2.0166,1.62695,2.0166,1.03467,0,1.55176-.69043,1.55176-2.07129,0-1.30811-.52197-1.96191-1.56543-1.96191Z"/>
        <path d="M374.0916,35.20021h-2.15332v-3.88965c0-1.08447-.38721-1.62695-1.16211-1.62695-.37354,0-.68115.14355-.92285.43066s-.3623.65186-.3623,1.09375v3.99219h-2.16016v-7h2.16016v1.10742h.02734c.51514-.85205,1.26465-1.27832,2.24902-1.27832,1.54932,0,2.32422.96143,2.32422,2.88477v4.28613Z"/>
        <path d="M382.08965,32.31545h-4.56641c.07275,1.01611.71338,1.52441,1.9209,1.52441.77002,0,1.44678-.18213,2.03027-.54688v1.55859c-.64697.34619-1.48779.51953-2.52246.51953-1.13037,0-2.00732-.31348-2.63184-.93994s-.93652-1.50049-.93652-2.62158c0-1.16211.3374-2.08252,1.01172-2.76172s1.50391-1.01855,2.48828-1.01855c1.021,0,1.81055.30322,2.36865.90918s.8374,1.42871.8374,2.46777v.90918ZM380.08672,30.98927c0-1.00244-.40576-1.50391-1.2168-1.50391-.34619,0-.646.14355-.89893.43066s-.40674.64502-.46143,1.07324h2.57715Z"/>
        <path d="M389.26055,33.4092h4.15625v1.79102h-6.52148v-.73828c0-.50146.08447-.95117.25293-1.3501s.38037-.75635.63574-1.07324.53418-.59717.8374-.84082.59131-.46387.86475-.65967c.28711-.20508.53906-.40088.75537-.58789s.39893-.37256.54688-.55713.25879-.37158.33154-.56055.10938-.39062.10938-.60498c0-.41943-.11865-.73584-.35547-.9502s-.59912-.32129-1.08691-.32129c-.84326,0-1.6499.33496-2.41992,1.00488v-1.90039c.85205-.55127,1.81396-.82715,2.88477-.82715.49658,0,.94238.06494,1.33643.19482s.72803.31543,1.00146.55713.48193.53418.62549.87842.21533.72803.21533,1.15186c0,.45117-.06934.85205-.2085,1.20312s-.32373.66992-.55371.95703-.49561.55029-.79639.78955-.61279.4707-.93652.69385c-.21875.15479-.42969.30859-.63232.46143s-.38184.30322-.53662.45117-.27783.29297-.36914.43408-.13672.27588-.13672.40332Z"/>
      </g>
      <g>
        <path d="M502.93584,35.20021h-2.40625l-.69727-2.18066h-3.48633l-.69043,2.18066h-2.39258l3.56836-9.80273h2.61816l3.48633,9.80273ZM499.32646,31.32424l-1.05273-3.29492c-.07764-.24609-.13232-.54004-.16406-.88184h-.05469c-.02295.28711-.07959.57178-.1709.85449l-1.06641,3.32227h2.50879Z"/>
        <path d="M510.30498,28.20021l-2.60449,7h-2.46094l-2.48145-7h2.31055l1.2168,4.31348c.13672.48779.21631.90234.23926,1.24414h.02734c.03174-.32373.11621-.72461.25293-1.20312l1.24414-4.35449h2.25586Z"/>
        <path d="M516.84014,35.20021h-2.04395v-1.00488h-.02734c-.46924.78369-1.16455,1.17578-2.08496,1.17578-.6792,0-1.21338-.19238-1.60303-.57764s-.58447-.89893-.58447-1.5415c0-1.35791.8042-2.14209,2.41309-2.35156l1.90039-.25293c0-.76562-.41455-1.14844-1.24414-1.14844-.83398,0-1.62695.24854-2.37891.74512v-1.62695c.30078-.15479.71191-.2915,1.23389-.41016s.99707-.17773,1.42529-.17773c1.99609,0,2.99414.99561,2.99414,2.9873v4.18359ZM514.80986,32.35646v-.47168l-1.27148.16406c-.70166.09131-1.05273.40771-1.05273.9502,0,.24609.08545.44775.25635.60498s.40234.23584.69385.23584c.40576,0,.73584-.14014.99121-.42041s.38281-.63477.38281-1.06299Z"/>
        <path d="M519.64287,27.09279c-.36475,0-.66309-.1084-.89551-.32471s-.34863-.48193-.34863-.79639c0-.32373.11621-.58789.34863-.79297s.53076-.30762.89551-.30762c.36914,0,.66895.10254.89893.30762s.34521.46924.34521.79297c0,.32812-.11523.59717-.34521.80664s-.52979.31445-.89893.31445ZM520.70928,35.20021h-2.16016v-7h2.16016v7Z"/>
        <path d="M524.68779,35.20021h-2.16016v-10.36328h2.16016v10.36328Z"/>
        <path d="M532.33037,35.20021h-2.04395v-1.00488h-.02734c-.46924.78369-1.16455,1.17578-2.08496,1.17578-.6792,0-1.21338-.19238-1.60303-.57764s-.58447-.89893-.58447-1.5415c0-1.35791.8042-2.14209,2.41309-2.35156l1.90039-.25293c0-.76562-.41455-1.14844-1.24414-1.14844-.83398,0-1.62695.24854-2.37891.74512v-1.62695c.30078-.15479.71191-.2915,1.23389-.41016s.99707-.17773,1.42529-.17773c1.99609,0,2.99414.99561,2.99414,2.9873v4.18359ZM530.3001,32.35646v-.47168l-1.27148.16406c-.70166.09131-1.05273.40771-1.05273.9502,0,.24609.08545.44775.25635.60498s.40234.23584.69385.23584c.40576,0,.73584-.14014.99121-.42041s.38281-.63477.38281-1.06299Z"/>
        <path d="M536.22686,34.38674h-.02734v.81348h-2.16016v-10.36328h2.16016v4.41602h.02734c.5332-.81592,1.29199-1.22363,2.27637-1.22363.90234,0,1.59717.31006,2.08496.92969s.73145,1.46729.73145,2.54297c0,1.1665-.28467,2.10303-.85449,2.80957s-1.33057,1.05957-2.2832,1.05957c-.86133,0-1.51318-.32812-1.95508-.98438ZM536.16533,31.43361v.71777c0,.45117.12988.82471.38965,1.12109s.59229.44434.99805.44434c.49219,0,.87402-.19043,1.14502-.5708s.40674-.91943.40674-1.6167c0-.57861-.12402-1.03125-.37256-1.35693s-.60254-.48877-1.06299-.48877c-.43311,0-.79199.16162-1.07666.48535s-.42725.74512-.42725,1.26465Z"/>
        <path d="M543.81475,27.09279c-.36475,0-.66309-.1084-.89551-.32471s-.34863-.48193-.34863-.79639c0-.32373.11621-.58789.34863-.79297s.53076-.30762.89551-.30762c.36914,0,.66895.10254.89893.30762s.34521.46924.34521.79297c0,.32812-.11523.59717-.34521.80664s-.52979.31445-.89893.31445ZM544.88115,35.20021h-2.16016v-7h2.16016v7Z"/>
        <path d="M548.85967,35.20021h-2.16016v-10.36328h2.16016v10.36328Z"/>
        <path d="M551.77178,27.09279c-.36475,0-.66309-.1084-.89551-.32471s-.34863-.48193-.34863-.79639c0-.32373.11621-.58789.34863-.79297s.53076-.30762.89551-.30762c.36914,0,.66895.10254.89893.30762s.34521.46924.34521.79297c0,.32812-.11523.59717-.34521.80664s-.52979.31445-.89893.31445ZM552.83818,35.20021h-2.16016v-7h2.16016v7Z"/>
        <path d="M558.88799,35.11818c-.31885.16846-.7998.25293-1.44238.25293-1.52197,0-2.2832-.79053-2.2832-2.37207v-3.20605h-1.13477v-1.59277h1.13477v-1.51074l2.15332-.61523v2.12598h1.57227v1.59277h-1.57227v2.83008c0,.729.28955,1.09375.86816,1.09375.22803,0,.4624-.06592.7041-.19824v1.59961Z"/>
        <path d="M566.76982,28.20021l-2.84375,7.56055c-.68359,1.81836-1.71338,2.72754-3.08984,2.72754-.52393,0-.95459-.05908-1.29199-.17773v-1.72266c.28711.16846.59912.25293.93652.25293.55615,0,.94336-.26221,1.16211-.78613l.36914-.86816-2.84375-6.98633h2.39258l1.30566,4.25879c.08203.26416.146.57666.19141.93652h.02734c.04102-.26416.11621-.57178.22559-.92285l1.31934-4.27246h2.13965Z"/>
        <path d="M578.76689,35.20021h-7.89551v-1.27148l5.02441-6.7334h-4.66211v-1.79785h7.51953v1.2373l-4.91504,6.77441h4.92871v1.79102Z"/>
        <path d="M583.3333,35.37111c-1.1665,0-2.08398-.32715-2.75146-.98096s-1.00146-1.5415-1.00146-2.6626c0-1.15771.34619-2.06348,1.03906-2.71729s1.62939-.98096,2.80957-.98096c1.1626,0,2.07373.32715,2.73486.98096.66016.65381.99121,1.51855.99121,2.59424,0,1.16211-.34082,2.08057-1.02246,2.75488-.68066.67432-1.61426,1.01172-2.79932,1.01172ZM583.38799,29.68361c-.51025,0-.90674.17529-1.18945.52637s-.42383.84766-.42383,1.49023c0,1.34424.54248,2.0166,1.62695,2.0166,1.03467,0,1.55225-.69043,1.55225-2.07129,0-1.30811-.52246-1.96191-1.56592-1.96191Z"/>
        <path d="M595.31719,35.20021h-2.15332v-3.88965c0-1.08447-.3877-1.62695-1.16211-1.62695-.37402,0-.68164.14355-.92285.43066-.24219.28711-.3623.65186-.3623,1.09375v3.99219h-2.16016v-7h2.16016v1.10742h.02734c.51465-.85205,1.26465-1.27832,2.24902-1.27832,1.54883,0,2.32422.96143,2.32422,2.88477v4.28613Z"/>
        <path d="M603.31523,32.31545h-4.56641c.07227,1.01611.71289,1.52441,1.9209,1.52441.76953,0,1.44629-.18213,2.03027-.54688v1.55859c-.64746.34619-1.48828.51953-2.52246.51953-1.13086,0-2.00781-.31348-2.63184-.93994-.625-.62646-.93652-1.50049-.93652-2.62158,0-1.16211.33691-2.08252,1.01172-2.76172.67383-.6792,1.50391-1.01855,2.48828-1.01855,1.02051,0,1.81055.30322,2.36816.90918.55859.60596.83789,1.42871.83789,2.46777v.90918ZM601.3123,30.98927c0-1.00244-.40625-1.50391-1.2168-1.50391-.34668,0-.64648.14355-.89941.43066s-.40625.64502-.46094,1.07324h2.57715Z"/>
        <path d="M608.35332,34.87892v-1.87988c.65625.47852,1.42188.71777,2.29688.71777.55078,0,.98047-.11865,1.28809-.35547s.46191-.56738.46191-.99121c0-.4375-.19043-.7749-.57129-1.01172-.37988-.23682-.90332-.35547-1.56836-.35547h-.90918v-1.6543h.84082c1.27539,0,1.91406-.42383,1.91406-1.27148,0-.79736-.49023-1.19629-1.46973-1.19629-.65625,0-1.29492.21191-1.91406.63574v-1.76367c.6875-.34619,1.49023-.51953,2.40625-.51953,1.00195,0,1.7832.22559,2.34082.67676.55859.45117.83789,1.03662.83789,1.75684,0,1.28076-.64941,2.08252-1.94824,2.40625v.03418c.69238.08643,1.23926.33838,1.64062.75537.40039.41699.60156.92871.60156,1.53467,0,.91602-.33496,1.64062-1.00488,2.17383s-1.5957.7998-2.77539.7998c-1.01172,0-1.83496-.16406-2.46777-.49219Z"/>
      </g>
      <g>
        <rect x="241.3391" y="114.4" width="183.67231" height="17.93066" fill="none"/>
        <path d="M271.34258,126.30129h-2.40625l-.69727-2.18066h-3.48633l-.69043,2.18066h-2.39258l3.56836-9.80273h2.61816l3.48633,9.80273ZM267.7332,122.42531l-1.05273-3.29492c-.07764-.24609-.13232-.54004-.16406-.88184h-.05469c-.02295.28711-.07959.57178-.1709.85449l-1.06641,3.32227h2.50879Z" fill="#2f2f2f"/>
        <path d="M278.24834,126.30129h-6.28223v-.89551l3.51367-4.51172h-3.16504v-1.59277h5.90625v1.06641l-3.3291,4.34082h3.35645v1.59277Z" fill="#2f2f2f"/>
        <path d="M286.13018,126.30129h-2.15332v-1.06641h-.03418c-.5332.82471-1.24658,1.2373-2.13965,1.2373-1.62256,0-2.43359-.98193-2.43359-2.94629v-4.22461h2.15332v4.0332c0,.98877.39209,1.4834,1.17578,1.4834.38721,0,.69727-.13574.92969-.40674s.34863-.63916.34863-1.104v-4.00586h2.15332v7Z" fill="#2f2f2f"/>
        <path d="M292.46465,121.24953c-.25977-.14111-.56299-.21191-.90918-.21191-.46924,0-.83643.17188-1.10059.51611s-.39648.8125-.39648,1.40479v3.34277h-2.16016v-7h2.16016v1.29883h.02734c.3418-.94775.95703-1.42188,1.8457-1.42188.22803,0,.40576.02734.5332.08203v1.98926Z" fill="#2f2f2f"/>
        <path d="M299.83721,123.41652h-4.56641c.07275,1.01611.71338,1.52441,1.9209,1.52441.77002,0,1.44678-.18213,2.03027-.54688v1.55859c-.64697.34619-1.48779.51953-2.52246.51953-1.13037,0-2.00732-.31348-2.63184-.93994s-.93652-1.50049-.93652-2.62158c0-1.16211.3374-2.08252,1.01172-2.76172s1.50391-1.01855,2.48828-1.01855c1.021,0,1.81055.30322,2.36865.90918s.8374,1.42871.8374,2.46777v.90918ZM297.83428,122.09035c0-1.00244-.40576-1.50391-1.2168-1.50391-.34619,0-.646.14355-.89893.43066s-.40674.64502-.46143,1.07324h2.57715Z" fill="#2f2f2f"/>
        <path d="M304.74541,125.92531v-2.1875c.39648.33252.82715.58203,1.29199.74854s.93408.24951,1.4082.24951c.27783,0,.52051-.0249.72803-.0752s.38037-.11963.51953-.2085.24268-.19385.31104-.31445.10254-.25195.10254-.39307c0-.19141-.05469-.3623-.16406-.5127s-.25879-.28955-.44775-.41699-.41357-.25049-.67334-.36914-.54004-.23926-.84082-.3623c-.76562-.31885-1.33643-.7085-1.7124-1.16895s-.56396-1.01611-.56396-1.66797c0-.51025.10254-.94922.30762-1.31592s.48438-.66895.8374-.90576.76221-.41113,1.22705-.52295.95703-.16748,1.47656-.16748c.51025,0,.96289.03076,1.35693.09229s.75781.15625,1.09033.28369v2.04395c-.16406-.11377-.34277-.21436-.53662-.30078s-.39307-.1582-.59814-.21533-.40918-.09912-.61182-.12646-.39551-.04102-.57764-.04102c-.25049,0-.47852.02393-.68359.07178s-.37842.11523-.51953.20166-.25049.19043-.32812.31104-.11621.25635-.11621.40674c0,.16406.04346.31104.12988.44092s.20947.25293.36914.36914.35303.22998.58105.3418.48535.22656.77246.34521c.39209.16406.74414.33838,1.05615.52295s.58008.39307.80322.62549.39404.49805.5127.79639.17773.646.17773,1.04248c0,.54688-.10352,1.00586-.31104,1.37744s-.48877.67236-.84424.90234-.76904.39551-1.24072.49561-.96973.15039-1.49365.15039c-.5376,0-1.04932-.04541-1.53467-.13672s-.90576-.22803-1.26123-.41016Z" fill="#2f2f2f"/>
        <path d="M313.89092,118.19386c-.36475,0-.66309-.1084-.89551-.32471s-.34863-.48193-.34863-.79639c0-.32373.11621-.58789.34863-.79297s.53076-.30762.89551-.30762c.36914,0,.66895.10254.89893.30762s.34521.46924.34521.79297c0,.32812-.11523.59717-.34521.80664s-.52979.31445-.89893.31445ZM314.95732,126.30129h-2.16016v-7h2.16016v7Z" fill="#2f2f2f"/>
        <path d="M323.62236,125.50148c0,1.29883-.37598,2.30469-1.12793,3.01807s-1.84131,1.06982-3.26758,1.06982c-.94336,0-1.69092-.13428-2.24219-.40332v-1.81836c.72021.41943,1.44678.62891,2.18066.62891.729,0,1.29443-.19238,1.69531-.57764s.60156-.9082.60156-1.56885v-.55371h-.02734c-.49219.78369-1.21924,1.17578-2.18066,1.17578-.89307,0-1.60205-.31445-2.12598-.94336s-.78613-1.47217-.78613-2.5293c0-1.18506.2915-2.12598.875-2.82324s1.35107-1.0459,2.30371-1.0459c.85205,0,1.49023.32812,1.91406.98438h.02734v-.81348h2.16016v6.2002ZM321.48955,122.938v-.55371c0-.44189-.13086-.81934-.39307-1.13135s-.60254-.46826-1.02197-.46826c-.47852,0-.85449.18701-1.12793.56055s-.41016.8999-.41016,1.5791c0,.5835.12988,1.04492.38965,1.38428s.61523.50928,1.06641.50928c.44678,0,.80762-.17188,1.0835-.51611s.41357-.79883.41357-1.36377Z" fill="#2f2f2f"/>
        <path d="M332.14287,126.30129h-2.15332v-3.88965c0-1.08447-.38721-1.62695-1.16211-1.62695-.37354,0-.68115.14355-.92285.43066s-.3623.65186-.3623,1.09375v3.99219h-2.16016v-7h2.16016v1.10742h.02734c.51514-.85205,1.26465-1.27832,2.24902-1.27832,1.54932,0,2.32422.96143,2.32422,2.88477v4.28613Z" fill="#2f2f2f"/>
        <path d="M339.7083,126.30129h-2.04395v-1.00488h-.02734c-.46924.78369-1.16455,1.17578-2.08496,1.17578-.6792,0-1.21338-.19238-1.60303-.57764s-.58447-.89893-.58447-1.5415c0-1.35791.8042-2.14209,2.41309-2.35156l1.90039-.25293c0-.76562-.41455-1.14844-1.24414-1.14844-.83398,0-1.62695.24854-2.37891.74512v-1.62695c.30078-.15479.71191-.2915,1.23389-.41016s.99707-.17773,1.42529-.17773c1.99609,0,2.99414.99561,2.99414,2.9873v4.18359ZM337.67803,123.45754v-.47168l-1.27148.16406c-.70166.09131-1.05273.40771-1.05273.9502,0,.24609.08545.44775.25635.60498s.40234.23584.69385.23584c.40576,0,.73584-.14014.99121-.42041s.38281-.63477.38281-1.06299Z" fill="#2f2f2f"/>
        <path d="M343.56621,126.30129h-2.16016v-10.36328h2.16016v10.36328Z" fill="#2f2f2f"/>
        <path d="M353.7332,126.30129h-2.53613l-1.52441-2.52246c-.11377-.19141-.22314-.3623-.32812-.5127s-.21094-.2793-.31787-.38623-.21875-.18896-.33496-.24609-.24268-.08545-.37939-.08545h-.59473v3.75293h-2.20801v-9.80273h3.5c2.37891,0,3.56836.88867,3.56836,2.66602,0,.3418-.05225.65723-.15723.94678s-.25293.55029-.44434.78271-.42285.43311-.69385.60156-.57324.30078-.90576.39648v.02734c.146.04541.28711.11963.42383.22217s.26904.22217.39648.35889.24951.28369.36572.44092.22217.31104.31787.46143l1.85254,2.89844ZM347.71758,118.15285v2.72754h.95703c.47412,0,.85449-.13672,1.1416-.41016.2915-.27783.4375-.62207.4375-1.03223,0-.85693-.5127-1.28516-1.53809-1.28516h-.99805Z" fill="#2f2f2f"/>
        <path d="M358.06035,125.92531v-2.1875c.39648.33252.82715.58203,1.29199.74854s.93408.24951,1.4082.24951c.27783,0,.52051-.0249.72803-.0752s.38037-.11963.51953-.2085.24268-.19385.31104-.31445.10254-.25195.10254-.39307c0-.19141-.05469-.3623-.16406-.5127s-.25879-.28955-.44775-.41699-.41357-.25049-.67334-.36914-.54004-.23926-.84082-.3623c-.76562-.31885-1.33643-.7085-1.7124-1.16895s-.56396-1.01611-.56396-1.66797c0-.51025.10254-.94922.30762-1.31592s.48438-.66895.8374-.90576.76221-.41113,1.22705-.52295.95703-.16748,1.47656-.16748c.51025,0,.96289.03076,1.35693.09229s.75781.15625,1.09033.28369v2.04395c-.16406-.11377-.34277-.21436-.53662-.30078s-.39307-.1582-.59814-.21533-.40918-.09912-.61182-.12646-.39551-.04102-.57764-.04102c-.25049,0-.47852.02393-.68359.07178s-.37842.11523-.51953.20166-.25049.19043-.32812.31104-.11621.25635-.11621.40674c0,.16406.04346.31104.12988.44092s.20947.25293.36914.36914.35303.22998.58105.3418.48535.22656.77246.34521c.39209.16406.74414.33838,1.05615.52295s.58008.39307.80322.62549.39404.49805.5127.79639.17773.646.17773,1.04248c0,.54688-.10352,1.00586-.31104,1.37744s-.48877.67236-.84424.90234-.76904.39551-1.24072.49561-.96973.15039-1.49365.15039c-.5376,0-1.04932-.04541-1.53467-.13672s-.90576-.22803-1.26123-.41016Z" fill="#2f2f2f"/>
        <path d="M372.43633,123.41652h-4.56641c.07275,1.01611.71338,1.52441,1.9209,1.52441.77002,0,1.44678-.18213,2.03027-.54688v1.55859c-.64697.34619-1.48779.51953-2.52246.51953-1.13037,0-2.00732-.31348-2.63184-.93994s-.93652-1.50049-.93652-2.62158c0-1.16211.3374-2.08252,1.01172-2.76172s1.50391-1.01855,2.48828-1.01855c1.021,0,1.81055.30322,2.36865.90918s.8374,1.42871.8374,2.46777v.90918ZM370.4334,122.09035c0-1.00244-.40576-1.50391-1.2168-1.50391-.34619,0-.646.14355-.89893.43066s-.40674.64502-.46143,1.07324h2.57715Z" fill="#2f2f2f"/>
        <path d="M378.36748,121.24953c-.25977-.14111-.56299-.21191-.90918-.21191-.46924,0-.83643.17188-1.10059.51611s-.39648.8125-.39648,1.40479v3.34277h-2.16016v-7h2.16016v1.29883h.02734c.3418-.94775.95703-1.42188,1.8457-1.42188.22803,0,.40576.02734.5332.08203v1.98926Z" fill="#2f2f2f"/>
        <path d="M386.46611,119.30129l-2.60449,7h-2.46094l-2.48145-7h2.31055l1.2168,4.31348c.13672.48779.21631.90234.23926,1.24414h.02734c.03174-.32373.11621-.72461.25293-1.20312l1.24414-4.35449h2.25586Z" fill="#2f2f2f"/>
        <path d="M388.51201,118.19386c-.36475,0-.66309-.1084-.89551-.32471s-.34863-.48193-.34863-.79639c0-.32373.11621-.58789.34863-.79297s.53076-.30762.89551-.30762c.36914,0,.66895.10254.89893.30762s.34521.46924.34521.79297c0,.32812-.11523.59717-.34521.80664s-.52979.31445-.89893.31445ZM389.57842,126.30129h-2.16016v-7h2.16016v7Z" fill="#2f2f2f"/>
        <path d="M396.65801,126.04836c-.48779.28271-1.19189.42383-2.1123.42383-1.07568,0-1.9458-.32568-2.61133-.97754s-.99805-1.49268-.99805-2.52246c0-1.18945.35645-2.12695,1.06982-2.81299s1.66699-1.02881,2.86084-1.02881c.82471,0,1.42188.10938,1.79102.32812v1.83203c-.45117-.3374-.95459-.50586-1.51074-.50586-.61963,0-1.11084.18115-1.47314.54346s-.54346.8623-.54346,1.50049c0,.61963.17334,1.10645.51953,1.45947s.82275.52979,1.42871.52979c.5376,0,1.06396-.16846,1.5791-.50586v1.73633Z" fill="#2f2f2f"/>
        <path d="M404.37334,123.41652h-4.56641c.07275,1.01611.71338,1.52441,1.9209,1.52441.77002,0,1.44678-.18213,2.03027-.54688v1.55859c-.64697.34619-1.48779.51953-2.52246.51953-1.13037,0-2.00732-.31348-2.63184-.93994s-.93652-1.50049-.93652-2.62158c0-1.16211.3374-2.08252,1.01172-2.76172s1.50391-1.01855,2.48828-1.01855c1.021,0,1.81055.30322,2.36865.90918s.8374,1.42871.8374,2.46777v.90918ZM402.37041,122.09035c0-1.00244-.40576-1.50391-1.2168-1.50391-.34619,0-.646.14355-.89893.43066s-.40674.64502-.46143,1.07324h2.57715Z" fill="#2f2f2f"/>
      </g>
    </g>
  </g>
</svg>